<svg xmlns="http://www.w3.org/2000/svg" xml:space="preserve" x="0" y="0" version="1.1" viewBox="0 0 925 650"><text fill="#2d3f50" font-family="'DMSans-Regular','DM Sans',sans-serif" font-size="32" transform="translate(25.194 47.079)">Cumulative number of COVID-19 cases in Victoria, Australia</text><path d="M4.4 102.4H68V121H4.4z" fill="none"/><text fill="#2d3f50" font-family="'DMSans-Regular','DM Sans',sans-serif" font-size="21" transform="matrix(.9035 0 0 1 6.298 117.494)">10,000</text><path d="M4.4 220.8H68v18.6H4.4z" fill="none"/><text fill="#2d3f50" font-family="'DMSans-Regular','DM Sans',sans-serif" font-size="21" transform="matrix(.9035 0 0 1 19.447 235.966)">1,000</text><path d="M4.4 339.3H68v18.6H4.4z" fill="none"/><text fill="#2d3f50" font-family="'DMSans-Regular','DM Sans',sans-serif" font-size="21" transform="matrix(.9035 0 0 1 35.973 354.439)">100</text><path d="M4.4 457.8H68v18.6H4.4z" fill="none"/><text fill="#2d3f50" font-family="'DMSans-Regular','DM Sans',sans-serif" font-size="21" transform="matrix(.9035 0 0 1 49.122 472.912)">10</text><path d="M4.4 576.3H68v18.6H4.4z" fill="none"/><text fill="#2d3f50" font-family="'DMSans-Regular','DM Sans',sans-serif" font-size="21" transform="matrix(.9035 0 0 1 62.27 591.384)">1</text><text fill="#2d3f50" font-family="'DMSans-Regular','DM Sans',sans-serif" font-size="24" transform="translate(56.717 632.309)">February</text><text fill="#2d3f50" font-family="'DMSans-Regular','DM Sans',sans-serif" font-size="24" transform="translate(177.792 632.309)">March</text><text fill="#2d3f50" font-family="'DMSans-Regular','DM Sans',sans-serif" font-size="24" transform="translate(300.368 632.309)">April</text><text fill="#2d3f50" font-family="'DMSans-Regular','DM Sans',sans-serif" font-size="24" transform="translate(412.58 632.309)">May</text><text fill="#2d3f50" font-family="'DMSans-Regular','DM Sans',sans-serif" font-size="24" transform="translate(522.819 632.309)">June</text><text fill="#2d3f50" font-family="'DMSans-Regular','DM Sans',sans-serif" font-size="24" transform="translate(637.143 632.309)">July</text><text fill="#2d3f50" font-family="'DMSans-Regular','DM Sans',sans-serif" font-size="24" transform="translate(734.396 632.309)">August</text><path d="M87.6 600.3v-7.7h777v7.7" fill="none" stroke="#2d3f50" stroke-width="1.317"/><path d="M106 591.9v14.2m106.3-14.2v14.2m113.5-14.2v14.2m109.9-14.2v14.2m113.7-14.2v14.2m109.9-14.2v14.2M773 591.9v14.2" fill="none" stroke="#2d3f50" stroke-width="1.711"/><path d="M79.6 585.5h8V79.4" fill="none" stroke="#2d3f50" stroke-width="1.317"/><path d="M87 585.5H72" fill="none" stroke="#2d3f50" stroke-width="2"/><path d="M87 549.833h-7.4m7.4-20.838h-7.4m7.4-14.828h-7.4M87 502.7h-7.4m7.4-9.372h-7.4m7.4-7.941h-7.4M87 478.5h-7.4m7.4-6.01h-7.4" fill="none" stroke="#2d3f50" stroke-width="1.317"/><path d="M87 467.1H72" fill="none" stroke="#2d3f50" stroke-width="2"/><path d="M87 431.367h-7.4m7.4-20.839h-7.4M87 395.7h-7.4m7.4-11.466h-7.4m7.4-9.372h-7.4m7.4-7.942h-7.4m7.4-6.886h-7.4m7.4-6.011h-7.4" fill="none" stroke="#2d3f50" stroke-width="1.317"/><path d="M87 348.6H72" fill="none" stroke="#2d3f50" stroke-width="2"/><path d="M87 312.9h-7.4m7.4-20.838h-7.4m7.4-14.828h-7.4m7.4-11.466h-7.4m7.4-9.373h-7.4m7.4-7.941h-7.4m7.4-6.887h-7.4m7.4-6.01h-7.4" fill="none" stroke="#2d3f50" stroke-width="1.317"/><path d="M87 230.1H72" fill="none" stroke="#2d3f50" stroke-width="2"/><path d="M87 194.434h-7.4m7.4-20.838h-7.4m7.4-14.829h-7.4m7.4-11.466h-7.4m7.4-9.372h-7.4m7.4-7.941h-7.4M87 123.1h-7.4m7.4-6.01h-7.4" fill="none" stroke="#2d3f50" stroke-width="1.317"/><path d="M87 111.7H72" fill="none" stroke="#2d3f50" stroke-width="2"/><g fill-opacity=".5" transform="translate(95 50)"><ellipse fill="#bbb1ac" cx="-8" cy="534.8" rx="5.5" ry="6.3"/><ellipse fill="#bbb1ac" cx="-4.3" cy="534.8" rx="5.5" ry="6.3"/><ellipse fill="#bbb1ac" cx="-.6" cy="534.8" rx="5.5" ry="6.3"/><ellipse fill="#bbb1ac" cx="3" cy="499.2" rx="5.5" ry="6.3"/><ellipse fill="#bbb1ac" cx="6.7" cy="478.3" rx="5.5" ry="6.3"/><ellipse fill="#bbb1ac" cx="10.4" cy="463.5" rx="5.5" ry="6.3"/><ellipse fill="#bbb1ac" cx="14" cy="463.5" rx="5.5" ry="6.3"/><ellipse fill="#bbb1ac" cx="17.7" cy="463.5" rx="5.5" ry="6.3"/><ellipse fill="#bbb1ac" cx="21.4" cy="463.5" rx="5.5" ry="6.3"/><ellipse fill="#bbb1ac" cx="25" cy="463.5" rx="5.5" ry="6.3"/><ellipse fill="#bbb1ac" cx="28.7" cy="463.5" rx="5.5" ry="6.3"/><ellipse fill="#bbb1ac" cx="32.4" cy="463.5" rx="5.5" ry="6.3"/><ellipse fill="#bbb1ac" cx="36" cy="463.5" rx="5.5" ry="6.3"/><ellipse fill="#bbb1ac" cx="39.7" cy="463.5" rx="5.5" ry="6.3"/><ellipse fill="#bbb1ac" cx="43.4" cy="463.5" rx="5.5" ry="6.3"/><ellipse fill="#bbb1ac" cx="47" cy="463.5" rx="5.5" ry="6.3"/><ellipse fill="#bbb1ac" cx="50.7" cy="463.5" rx="5.5" ry="6.3"/><ellipse fill="#bbb1ac" cx="54.3" cy="463.5" rx="5.5" ry="6.3"/><ellipse fill="#bbb1ac" cx="58" cy="463.5" rx="5.5" ry="6.3"/><ellipse fill="#bbb1ac" cx="61.7" cy="463.5" rx="5.5" ry="6.3"/><ellipse fill="#bbb1ac" cx="65.3" cy="463.5" rx="5.5" ry="6.3"/><ellipse fill="#bbb1ac" cx="69" cy="463.5" rx="5.5" ry="6.3"/><ellipse fill="#bbb1ac" cx="72.7" cy="463.5" rx="5.5" ry="6.3"/><ellipse fill="#bbb1ac" cx="76.3" cy="463.5" rx="5.5" ry="6.3"/><ellipse fill="#bbb1ac" cx="80" cy="463.5" rx="5.5" ry="6.3"/><ellipse fill="#bbb1ac" cx="83.7" cy="463.5" rx="5.5" ry="6.3"/><ellipse fill="#bbb1ac" cx="87.3" cy="463.5" rx="5.5" ry="6.3"/><ellipse fill="#bbb1ac" cx="91" cy="463.5" rx="5.5" ry="6.3"/><ellipse fill="#bbb1ac" cx="94.7" cy="463.5" rx="5.5" ry="6.3"/><ellipse fill="#bbb1ac" cx="98.3" cy="463.5" rx="5.5" ry="6.3"/><ellipse fill="#bbb1ac" cx="102" cy="463.5" rx="5.5" ry="6.3"/><ellipse fill="#bbb1ac" cx="105.7" cy="463.5" rx="5.5" ry="6.3"/><ellipse fill="#bbb1ac" cx="109.3" cy="463.5" rx="5.5" ry="6.3"/><ellipse fill="#bbb1ac" cx="113" cy="434.7" rx="5.5" ry="6.3"/><ellipse fill="#bbb1ac" cx="116.7" cy="434.7" rx="5.5" ry="6.3"/><ellipse fill="#bbb1ac" cx="120.3" cy="421.8" rx="5.5" ry="6.3"/><ellipse fill="#bbb1ac" cx="124" cy="421.8" rx="5.5" ry="6.3"/><ellipse fill="#bbb1ac" cx="127.7" cy="416.4" rx="5.5" ry="6.3"/><ellipse fill="#bbb1ac" cx="131.3" cy="416.4" rx="5.5" ry="6.3"/><ellipse fill="#bbb1ac" cx="135" cy="416.4" rx="5.5" ry="6.3"/><ellipse fill="#bbb1ac" cx="138.7" cy="411.5" rx="5.5" ry="6.3"/><ellipse fill="#bbb1ac" cx="142.3" cy="411.5" rx="5.5" ry="6.3"/><ellipse fill="#bbb1ac" cx="145.8" cy="395.5" rx="5.5" ry="6.3"/><ellipse fill="#bbb1ac" cx="149.5" cy="386.1" rx="5.5" ry="6.3"/><ellipse fill="#bbb1ac" cx="153.2" cy="378.2" rx="5.5" ry="6.3"/><ellipse fill="#bbb1ac" cx="156.8" cy="378.2" rx="5.5" ry="6.3"/><ellipse fill="#bbb1ac" cx="160.5" cy="350.5" rx="5.5" ry="6.3"/><ellipse fill="#bbb1ac" cx="164.2" cy="334.6" rx="5.5" ry="6.3"/><ellipse fill="#bbb1ac" cx="167.8" cy="326.8" rx="5.5" ry="6.3"/><ellipse fill="#bbb1ac" cx="171.5" cy="315.5" rx="5.5" ry="6.3"/><ellipse fill="#bbb1ac" cx="175.2" cy="301.1" rx="5.5" ry="6.3"/><ellipse fill="#bbb1ac" cx="178.8" cy="288.1" rx="5.5" ry="6.3"/><ellipse fill="#bbb1ac" cx="182.5" cy="288.1" rx="5.5" ry="6.3"/><ellipse fill="#bbb1ac" cx="186.2" cy="288.1" rx="5.5" ry="6.3"/><ellipse fill="#bbb1ac" cx="189.8" cy="255.3" rx="5.5" ry="6.3"/><ellipse fill="#bbb1ac" cx="193.5" cy="242.1" rx="5.5" ry="6.3"/><ellipse fill="#bbb1ac" cx="197.2" cy="232.7" rx="5.5" ry="6.3"/><ellipse fill="#bbb1ac" cx="200.8" cy="225.2" rx="5.5" ry="6.3"/><ellipse fill="#bbb1ac" cx="204.5" cy="218.7" rx="5.5" ry="6.3"/><ellipse fill="#bbb1ac" cx="208.1" cy="213.1" rx="5.5" ry="6.3"/><ellipse fill="#bbb1ac" cx="211.8" cy="208" rx="5.5" ry="6.3"/><ellipse fill="#bbb1ac" cx="215.5" cy="198.9" rx="5.5" ry="6.3"/><ellipse fill="#bbb1ac" cx="219.1" cy="192.9" rx="5.5" ry="6.3"/><ellipse fill="#bbb1ac" cx="222.8" cy="189.6" rx="5.5" ry="6.3"/><ellipse fill="#bbb1ac" cx="226.5" cy="183.9" rx="5.5" ry="6.3"/><ellipse fill="#bbb1ac" cx="230.1" cy="181.1" rx="5.5" ry="6.3"/><ellipse fill="#bbb1ac" cx="233.8" cy="177.6" rx="5.5" ry="6.3"/><ellipse fill="#bbb1ac" cx="237.5" cy="175.2" rx="5.5" ry="6.3"/><ellipse fill="#bbb1ac" cx="241.1" cy="173.8" rx="5.5" ry="6.3"/><ellipse fill="#bbb1ac" cx="244.8" cy="172.9" rx="5.5" ry="6.3"/><ellipse fill="#bbb1ac" cx="248.5" cy="171.9" rx="5.5" ry="6.3"/><ellipse fill="#bbb1ac" cx="252.1" cy="170.4" rx="5.5" ry="6.3"/><ellipse fill="#bbb1ac" cx="255.8" cy="169.5" rx="5.5" ry="6.3"/><ellipse fill="#bbb1ac" cx="259.5" cy="168.9" rx="5.5" ry="6.3"/><ellipse fill="#bbb1ac" cx="263.1" cy="168.3" rx="5.5" ry="6.3"/><ellipse fill="#bbb1ac" cx="266.8" cy="167.3" rx="5.5" ry="6.3"/><ellipse fill="#bbb1ac" cx="270.5" cy="167.2" rx="5.5" ry="6.3"/><ellipse fill="#bbb1ac" cx="274.1" cy="166.7" rx="5.5" ry="6.3"/><ellipse fill="#bbb1ac" cx="277.8" cy="166.3" rx="5.5" ry="6.3"/><ellipse fill="#bbb1ac" cx="281.5" cy="166" rx="5.5" ry="6.3"/><ellipse fill="#bbb1ac" cx="285.1" cy="166" rx="5.5" ry="6.3"/><ellipse fill="#bbb1ac" cx="288.8" cy="165.8" rx="5.5" ry="6.3"/><ellipse fill="#bbb1ac" cx="292.5" cy="165.2" rx="5.5" ry="6.3"/><ellipse fill="#bbb1ac" cx="296.1" cy="165.2" rx="5.5" ry="6.3"/><ellipse fill="#bbb1ac" cx="299.8" cy="165.2" rx="5.5" ry="6.3"/><ellipse fill="#bbb1ac" cx="303.5" cy="165.2" rx="5.5" ry="6.3"/><ellipse fill="#bbb1ac" cx="307.1" cy="165.2" rx="5.5" ry="6.3"/><ellipse fill="#bbb1ac" cx="310.8" cy="164.5" rx="5.5" ry="6.3"/><ellipse fill="#bbb1ac" cx="314.5" cy="164.2" rx="5.5" ry="6.3"/><ellipse fill="#bbb1ac" cx="318.1" cy="164.1" rx="5.5" ry="6.3"/><ellipse fill="#bbb1ac" cx="321.8" cy="164" rx="5.5" ry="6.3"/><ellipse fill="#bbb1ac" cx="325.4" cy="164" rx="5.5" ry="6.3"/><ellipse fill="#bbb1ac" cx="329.1" cy="163.8" rx="5.5" ry="6.3"/><ellipse fill="#bbb1ac" cx="332.8" cy="163.6" rx="5.5" ry="6.3"/><ellipse fill="#bbb1ac" cx="336.4" cy="163.4" rx="5.5" ry="6.3"/><ellipse fill="#bbb1ac" cx="340.1" cy="163.2" rx="5.5" ry="6.3"/><ellipse fill="#bbb1ac" cx="343.8" cy="162.7" rx="5.5" ry="6.3"/><ellipse fill="#bbb1ac" cx="347.4" cy="161.9" rx="5.5" ry="6.3"/><ellipse fill="#bbb1ac" cx="351.1" cy="161.3" rx="5.5" ry="6.3"/><ellipse fill="#bbb1ac" cx="354.8" cy="160.7" rx="5.5" ry="6.3"/><ellipse fill="#bbb1ac" cx="358.4" cy="160.2" rx="5.5" ry="6.3"/><ellipse fill="#bbb1ac" cx="362.1" cy="159.7" rx="5.5" ry="6.3"/><ellipse fill="#bbb1ac" cx="365.8" cy="159.7" rx="5.5" ry="6.3"/><ellipse fill="#bbb1ac" cx="369.4" cy="159" rx="5.5" ry="6.3"/><ellipse fill="#bbb1ac" cx="373.1" cy="158.7" rx="5.5" ry="6.3"/><ellipse fill="#bbb1ac" cx="376.8" cy="158.2" rx="5.5" ry="6.3"/><ellipse fill="#bbb1ac" cx="380.4" cy="158.1" rx="5.5" ry="6.3"/><ellipse fill="#bbb1ac" cx="384.1" cy="157.8" rx="5.5" ry="6.3"/><ellipse fill="#bbb1ac" cx="387.8" cy="157.2" rx="5.5" ry="6.3"/><ellipse fill="#bbb1ac" cx="391.4" cy="156.8" rx="5.5" ry="6.3"/><ellipse fill="#bbb1ac" cx="395.1" cy="156.6" rx="5.5" ry="6.3"/><ellipse fill="#bbb1ac" cx="398.8" cy="156.4" rx="5.5" ry="6.3"/><ellipse fill="#bbb1ac" cx="402.4" cy="156.1" rx="5.5" ry="6.3"/><ellipse fill="#bbb1ac" cx="406.1" cy="156.1" rx="5.5" ry="6.3"/><ellipse fill="#bbb1ac" cx="409.8" cy="155.9" rx="5.5" ry="6.3"/><ellipse fill="#bbb1ac" cx="413.4" cy="155.5" rx="5.5" ry="6.3"/><ellipse fill="#bbb1ac" cx="417.1" cy="155.5" rx="5.5" ry="6.3"/><ellipse fill="#bbb1ac" cx="420.8" cy="155.1" rx="5.5" ry="6.3"/><ellipse fill="#bbb1ac" cx="424.4" cy="155.1" rx="5.5" ry="6.3"/><ellipse fill="#bbb1ac" cx="428.1" cy="154.9" rx="5.5" ry="6.3"/><ellipse fill="#bbb1ac" cx="431.8" cy="154.7" rx="5.5" ry="6.3"/><ellipse fill="#bbb1ac" cx="435.4" cy="154.3" rx="5.5" ry="6.3"/><ellipse fill="#bbb1ac" cx="439.1" cy="154.2" rx="5.5" ry="6.3"/><ellipse fill="#bbb1ac" cx="442.7" cy="153.8" rx="5.5" ry="6.3"/><ellipse fill="#bbb1ac" cx="446.4" cy="153.7" rx="5.5" ry="6.3"/><ellipse fill="#bbb1ac" cx="450.1" cy="153.6" rx="5.5" ry="6.3"/><ellipse fill="#bbb1ac" cx="453.7" cy="153.3" rx="5.5" ry="6.3"/><ellipse fill="#bbb1ac" cx="457.4" cy="153" rx="5.5" ry="6.3"/><ellipse fill="#bbb1ac" cx="461.1" cy="152.8" rx="5.5" ry="6.3"/><ellipse fill="#bbb1ac" cx="464.7" cy="152.7" rx="5.5" ry="6.3"/><ellipse fill="#bbb1ac" cx="468.4" cy="152.7" rx="5.5" ry="6.3"/><ellipse fill="#bbb1ac" cx="472.1" cy="152.6" rx="5.5" ry="6.3"/><ellipse fill="#bbb1ac" cx="475.7" cy="152.5" rx="5.5" ry="6.3"/><ellipse fill="#bbb1ac" cx="479.4" cy="152.5" rx="5.5" ry="6.3"/><ellipse fill="#bbb1ac" cx="483.1" cy="152.4" rx="5.5" ry="6.3"/><ellipse fill="#bbb1ac" cx="486.7" cy="152.1" rx="5.5" ry="6.3"/><ellipse fill="#bbb1ac" cx="490.4" cy="152" rx="5.5" ry="6.3"/><ellipse fill="#bbb1ac" cx="494.1" cy="152" rx="5.5" ry="6.3"/><ellipse fill="#bbb1ac" cx="497.7" cy="151.5" rx="5.5" ry="6.3"/><ellipse fill="#bbb1ac" cx="501.4" cy="151.2" rx="5.5" ry="6.3"/><ellipse fill="#bbb1ac" cx="505.1" cy="150.9" rx="5.5" ry="6.3"/><ellipse fill="#bbb1ac" cx="508.7" cy="150.3" rx="5.5" ry="6.3"/><ellipse fill="#bbb1ac" cx="512.4" cy="149.8" rx="5.5" ry="6.3"/><ellipse fill="#bbb1ac" cx="516.1" cy="149.4" rx="5.5" ry="6.3"/><ellipse fill="#bbb1ac" cx="519.7" cy="149.4" rx="5.5" ry="6.3"/><ellipse fill="#bbb1ac" cx="523.4" cy="148.2" rx="5.5" ry="6.3"/><ellipse fill="#bbb1ac" cx="527.1" cy="147.9" rx="5.5" ry="6.3"/><ellipse fill="#bbb1ac" cx="530.7" cy="147.4" rx="5.5" ry="6.3"/><ellipse fill="#bbb1ac" cx="534.4" cy="146.8" rx="5.5" ry="6.3"/><ellipse fill="#bbb1ac" cx="538.1" cy="145.9" rx="5.5" ry="6.3"/><ellipse fill="#bbb1ac" cx="541.7" cy="145.1" rx="5.5" ry="6.3"/><ellipse fill="#bbb1ac" cx="545.4" cy="145.1" rx="5.5" ry="6.3"/><ellipse fill="#bbb1ac" cx="549.1" cy="143" rx="5.5" ry="6.3"/><ellipse fill="#bbb1ac" cx="552.7" cy="141.3" rx="5.5" ry="6.3"/><ellipse fill="#bbb1ac" cx="556.4" cy="139.8" rx="5.5" ry="6.3"/><ellipse fill="#bbb1ac" cx="560" cy="138.1" rx="5.5" ry="6.3"/><ellipse fill="#bbb1ac" cx="563.7" cy="136.5" rx="5.5" ry="6.3"/><ellipse fill="#bbb1ac" cx="567.4" cy="135.1" rx="5.5" ry="6.3"/><ellipse fill="#bbb1ac" cx="571" cy="135.1" rx="5.5" ry="6.3"/><ellipse fill="#bbb1ac" cx="574.7" cy="131.5" rx="5.5" ry="6.3"/><ellipse fill="#bbb1ac" cx="578.4" cy="129.1" rx="5.5" ry="6.3"/><ellipse fill="#bbb1ac" cx="582" cy="126" rx="5.5" ry="6.3"/><ellipse fill="#bbb1ac" cx="585.7" cy="123.9" rx="5.5" ry="6.3"/><ellipse fill="#bbb1ac" cx="589.4" cy="121.2" rx="5.5" ry="6.3"/><ellipse fill="#bbb1ac" cx="593" cy="116.5" rx="5.5" ry="6.3"/><ellipse fill="#bbb1ac" cx="596.7" cy="114.1" rx="5.5" ry="6.3"/><ellipse fill="#bbb1ac" cx="600.4" cy="110.7" rx="5.5" ry="6.3"/><ellipse fill="#bbb1ac" cx="604" cy="108.5" rx="5.5" ry="6.3"/><ellipse fill="#bbb1ac" cx="607.7" cy="105.3" rx="5.5" ry="6.3"/><ellipse fill="#bbb1ac" cx="611.4" cy="102.6" rx="5.5" ry="6.3"/><ellipse fill="#bbb1ac" cx="615" cy="99.3" rx="5.5" ry="6.3"/><ellipse fill="#bbb1ac" cx="618.7" cy="94.9" rx="5.5" ry="6.3"/><ellipse fill="#bbb1ac" cx="622.4" cy="93.1" rx="5.5" ry="6.3"/><ellipse fill="#bbb1ac" cx="626" cy="89.9" rx="5.5" ry="6.3"/><ellipse fill="#bbb1ac" cx="629.7" cy="87.7" rx="5.5" ry="6.3"/><ellipse fill="#bbb1ac" cx="633.4" cy="84.8" rx="5.5" ry="6.3"/><ellipse fill="#bbb1ac" cx="637" cy="81.3" rx="5.5" ry="6.3"/><ellipse fill="#bbb1ac" cx="640.7" cy="78.4" rx="5.5" ry="6.3"/><ellipse fill="#bbb1ac" cx="644.4" cy="76.4" rx="5.5" ry="6.3"/><ellipse fill="#bbb1ac" cx="648" cy="74.1" rx="5.5" ry="6.3"/><ellipse fill="#bbb1ac" cx="651.7" cy="71.3" rx="5.5" ry="6.3"/><ellipse fill="#bbb1ac" cx="655.4" cy="68.1" rx="5.5" ry="6.3"/><ellipse fill="#bbb1ac" cx="659" cy="66.1" rx="5.5" ry="6.3"/><ellipse fill="#bbb1ac" cx="662.7" cy="64.7" rx="5.5" ry="6.3"/><ellipse fill="#bbb1ac" cx="666.4" cy="61" rx="5.5" ry="6.3"/><ellipse fill="#bbb1ac" cx="670" cy="58.1" rx="5.5" ry="6.3"/><ellipse fill="#bbb1ac" cx="673.7" cy="56.4" rx="5.5" ry="6.3"/><ellipse fill="#bbb1ac" cx="677.3" cy="53.5" rx="5.5" ry="6.3"/><ellipse fill="#bbb1ac" cx="681" cy="51.8" rx="5.5" ry="6.3"/><ellipse fill="#bbb1ac" cx="684.7" cy="50.2" rx="5.5" ry="6.3"/><ellipse fill="#bbb1ac" cx="688.3" cy="47.3" rx="5.5" ry="6.3"/><ellipse fill="#bbb1ac" cx="692" cy="45.6" rx="5.5" ry="6.3"/><ellipse fill="#bbb1ac" cx="695.7" cy="44.1" rx="5.5" ry="6.3"/><ellipse fill="#bbb1ac" cx="699.3" cy="42.6" rx="5.5" ry="6.3"/><ellipse fill="#bbb1ac" cx="703" cy="41.3" rx="5.5" ry="6.3"/><ellipse fill="#bbb1ac" cx="706.7" cy="40.2" rx="5.5" ry="6.3"/><ellipse fill="#bbb1ac" cx="710.3" cy="39.2" rx="5.5" ry="6.3"/><ellipse fill="#bbb1ac" cx="714" cy="37.9" rx="5.5" ry="6.3"/><ellipse fill="#bbb1ac" cx="717.7" cy="37.2" rx="5.5" ry="6.3"/><ellipse fill="#bbb1ac" cx="721.3" cy="36" rx="5.5" ry="6.3"/><ellipse fill="#bbb1ac" cx="725" cy="35.1" rx="5.5" ry="6.3"/><ellipse fill="#bbb1ac" cx="728.7" cy="34.4" rx="5.5" ry="6.3"/><ellipse fill="#bbb1ac" cx="732.3" cy="33.6" rx="5.5" ry="6.3"/><ellipse fill="#5aa14e" cx="736" cy="32.9" rx="5.5" ry="6.3"/><ellipse fill="#5aa14e" cx="739.7" cy="32.3" rx="5.5" ry="6.3"/><ellipse fill="#5aa14e" cx="743.3" cy="31.6" rx="5.5" ry="6.3"/><ellipse fill="#5aa14e" cx="747" cy="31.1" rx="5.5" ry="6.3"/><ellipse fill="#5aa14e" cx="750.7" cy="30.6" rx="5.5" ry="6.3"/><ellipse fill="#f28f2a" cx="754.3" cy="30" rx="5.5" ry="6.3"/><ellipse fill="#f28f2a" cx="758" cy="29.8" rx="5.5" ry="6.3"/><ellipse fill="#f28f2a" cx="761.7" cy="29.4" rx="5.5" ry="6.3"/><ellipse fill="#f28f2a" cx="765.3" cy="29" rx="5.5" ry="6.3"/><ellipse fill="#f28f2a" cx="769" cy="28.7" rx="5.5" ry="6.3"/></g></svg>