<?xml version="1.0" encoding="utf-8"?>
<!-- Generator: Adobe Illustrator 24.2.3, SVG Export Plug-In . SVG Version: 6.00 Build 0)  -->
<svg version="1.1" id="Layer_1" xmlns="http://www.w3.org/2000/svg" xmlns:xlink="http://www.w3.org/1999/xlink" x="0px" y="0px"
	 viewBox="0 0 925 650" style="enable-background:new 0 0 925 650;" xml:space="preserve">
<style type="text/css">
	.st0{fill:#2D3F50;}
	.st1{font-family:'DMSans-Regular','DM Sans',sans-serif;}
	.st2{font-size:32px;}
	.st3{fill:none;}
	.st4{font-size:21px;}
	.st5{font-size:24px;}
	.st6{fill:none;stroke:#2D3F50;stroke-width:1.3168;}
	.st7{fill:none;stroke:#2D3F50;stroke-width:1.7106;}
	.st8{fill:none;stroke:#2D3F50;stroke-width:2;}
	.st9{fill:#BBB1AC;fill-opacity:0.5;}
	.st10{fill:#5AA14E;fill-opacity:0.5;}
	.st11{fill:#F28F2A;fill-opacity:0.5;}
	.st12{fill:none;stroke:#5AA14E;stroke-width:3;stroke-dasharray:94.7051,94.7051;}
	.st13{fill:none;stroke:#F28F2A;stroke-width:3;stroke-dasharray:74.4914,74.4914;}
</style>
<text transform="matrix(1 0 0 1 25.1938 47.0786)" class="st0 st1 st2">Cumulative number of COVID-19 cases in Victoria, Australia</text>
<g transform="translate(0,35)">
	<rect x="4.4" y="67.4" class="st3" width="63.6" height="18.6"/>
	<text transform="matrix(0.9035 0 0 1 6.298 82.494)" class="st0 st1 st4">10,000</text>
	<rect x="4.4" y="185.8" class="st3" width="63.6" height="18.6"/>
	<text transform="matrix(0.9035 0 0 1 19.4469 200.9665)" class="st0 st1 st4">1,000</text>
	<rect x="4.4" y="304.3" class="st3" width="63.6" height="18.6"/>
	<text transform="matrix(0.9035 0 0 1 35.9728 319.439)" class="st0 st1 st4">100</text>
	<rect x="4.4" y="422.8" class="st3" width="63.6" height="18.6"/>
	<text transform="matrix(0.9035 0 0 1 49.1217 437.9119)" class="st0 st1 st4">10</text>
	<rect x="4.4" y="541.3" class="st3" width="63.6" height="18.6"/>
	<text transform="matrix(0.9035 0 0 1 62.2701 556.3839)" class="st0 st1 st4">1</text>
	<text transform="matrix(1 0 0 1 56.7173 597.3087)" class="st0 st1 st5">February</text>
	<text transform="matrix(1 0 0 1 177.7917 597.3087)" class="st0 st1 st5">March</text>
	<text transform="matrix(1 0 0 1 300.3685 597.3087)" class="st0 st1 st5">April</text>
	<text transform="matrix(1 0 0 1 412.5808 597.3087)" class="st0 st1 st5">May</text>
	<text transform="matrix(1 0 0 1 522.8187 597.3087)" class="st0 st1 st5">June</text>
	<text transform="matrix(1 0 0 1 637.1431 597.3087)" class="st0 st1 st5">July</text>
	<text transform="matrix(1 0 0 1 734.3961 597.3087)" class="st0 st1 st5">August</text>
	<path class="st6" d="M87.6,565.3v-7.7h777v7.7"/>
	<line class="st7" x1="106" y1="556.9" x2="106" y2="571.1"/>
	<line class="st7" x1="212.3" y1="556.9" x2="212.3" y2="571.1"/>
	<line class="st7" x1="325.8" y1="556.9" x2="325.8" y2="571.1"/>
	<line class="st7" x1="435.7" y1="556.9" x2="435.7" y2="571.1"/>
	<line class="st7" x1="549.4" y1="556.9" x2="549.4" y2="571.1"/>
	<line class="st7" x1="659.3" y1="556.9" x2="659.3" y2="571.1"/>
	<line class="st7" x1="773" y1="556.9" x2="773" y2="571.1"/>
	<path class="st6" d="M79.6,550.5h8V44.4"/>
	<g transform="translate(0,360.5)">
		<line class="st8" x1="87" y1="190" x2="72" y2="190"/>
	</g>
	<g transform="translate(0,335.1332931395292)">
		<line class="st6" x1="87" y1="179.7" x2="79.6" y2="179.7"/>
	</g>
	<g transform="translate(0,320.29472085936766)">
		<line class="st6" x1="87" y1="173.7" x2="79.6" y2="173.7"/>
	</g>
	<g transform="translate(0,309.7665862790584)">
		<line class="st6" x1="87" y1="169.4" x2="79.6" y2="169.4"/>
	</g>
	<g transform="translate(0,301.60033066590086)">
		<line class="st6" x1="87" y1="166.1" x2="79.6" y2="166.1"/>
	</g>
	<g transform="translate(0,294.92801399889686)">
		<line class="st6" x1="87" y1="163.4" x2="79.6" y2="163.4"/>
	</g>
	<g transform="translate(0,289.2866506388649)">
		<line class="st6" x1="87" y1="161.1" x2="79.6" y2="161.1"/>
	</g>
	<g transform="translate(0,284.39987941858755)">
		<line class="st6" x1="87" y1="159.1" x2="79.6" y2="159.1"/>
	</g>
	<g transform="translate(0,280.0894417187353)">
		<line class="st6" x1="87" y1="157.4" x2="79.6" y2="157.4"/>
	</g>
	<line class="st8" x1="87" y1="432.1" x2="72" y2="432.1"/>
	<g transform="translate(0,250.86691694495923)">
		<line class="st6" x1="87" y1="145.5" x2="79.6" y2="145.5"/>
	</g>
	<g transform="translate(0,236.0283446647977)">
		<line class="st6" x1="87" y1="139.5" x2="79.6" y2="139.5"/>
	</g>
	<g transform="translate(0,225.5002100844884)">
		<line class="st6" x1="87" y1="135.2" x2="79.6" y2="135.2"/>
	</g>
	<g transform="translate(0,217.33395447133083)">
		<line class="st6" x1="87" y1="131.9" x2="79.6" y2="131.9"/>
	</g>
	<g transform="translate(0,210.66163780432692)">
		<line class="st6" x1="87" y1="129.2" x2="79.6" y2="129.2"/>
	</g>
	<g transform="translate(0,205.0202744442949)">
		<line class="st6" x1="87" y1="126.9" x2="79.6" y2="126.9"/>
	</g>
	<g transform="translate(0,200.13350322401757)">
		<line class="st6" x1="87" y1="124.9" x2="79.6" y2="124.9"/>
	</g>
	<g transform="translate(0,195.82306552416537)">
		<line class="st6" x1="87" y1="123.2" x2="79.6" y2="123.2"/>
	</g>
	<line class="st8" x1="87" y1="313.6" x2="72" y2="313.6"/>
	<g transform="translate(0,166.60054075038926)">
		<line class="st6" x1="87" y1="111.3" x2="79.6" y2="111.3"/>
	</g>
	<g transform="translate(0,151.7619684702277)">
		<line class="st6" x1="87" y1="105.3" x2="79.6" y2="105.3"/>
	</g>
	<g transform="translate(0,141.23383388991843)">
		<line class="st6" x1="87" y1="101" x2="79.6" y2="101"/>
	</g>
	<g transform="translate(0,133.06757827676088)">
		<line class="st6" x1="87" y1="97.7" x2="79.6" y2="97.7"/>
	</g>
	<g transform="translate(0,126.39526160975691)">
		<line class="st6" x1="87" y1="95" x2="79.6" y2="95"/>
	</g>
	<g transform="translate(0,120.75389824972491)">
		<line class="st6" x1="87" y1="92.7" x2="79.6" y2="92.7"/>
	</g>
	<g transform="translate(0,115.86712702944764)">
		<line class="st6" x1="87" y1="90.7" x2="79.6" y2="90.7"/>
	</g>
	<g transform="translate(0,111.55668932959537)">
		<line class="st6" x1="87" y1="89" x2="79.6" y2="89"/>
	</g>
	<line class="st8" x1="87" y1="195.1" x2="72" y2="195.1"/>
	<g transform="translate(0,82.33416455581927)">
		<line class="st6" x1="87" y1="77.1" x2="79.6" y2="77.1"/>
	</g>
	<g transform="translate(0,67.49559227565777)">
		<line class="st6" x1="87" y1="71.1" x2="79.6" y2="71.1"/>
	</g>
	<g transform="translate(0,56.96745769534844)">
		<line class="st6" x1="87" y1="66.8" x2="79.6" y2="66.8"/>
	</g>
	<g transform="translate(0,48.80120208219086)">
		<line class="st6" x1="87" y1="63.5" x2="79.6" y2="63.5"/>
	</g>
	<g transform="translate(0,42.12888541518694)">
		<line class="st6" x1="87" y1="60.8" x2="79.6" y2="60.8"/>
	</g>
	<g transform="translate(0,36.48752205515493)">
		<line class="st6" x1="87" y1="58.5" x2="79.6" y2="58.5"/>
	</g>
	<g transform="translate(0,31.600750834877616)">
		<line class="st6" x1="87" y1="56.5" x2="79.6" y2="56.5"/>
	</g>
	<g transform="translate(0,27.290313135025396)">
		<line class="st6" x1="87" y1="54.8" x2="79.6" y2="54.8"/>
	</g>
	<line class="st8" x1="87" y1="76.7" x2="72" y2="76.7"/>
	<g id="epi-curve" transform="translate(95,15)">
		<g id="confirmed-timepoints">
			<ellipse class="st9" cx="-8" cy="534.8" rx="5.5" ry="6.3"/>
			<ellipse class="st9" cx="-4.3" cy="534.8" rx="5.5" ry="6.3"/>
			<ellipse class="st9" cx="-0.6" cy="534.8" rx="5.5" ry="6.3"/>
			<ellipse class="st9" cx="3" cy="499.2" rx="5.5" ry="6.3"/>
			<ellipse class="st9" cx="6.7" cy="478.3" rx="5.5" ry="6.3"/>
			<ellipse class="st9" cx="10.4" cy="463.5" rx="5.5" ry="6.3"/>
			<ellipse class="st9" cx="14" cy="463.5" rx="5.5" ry="6.3"/>
			<ellipse class="st9" cx="17.7" cy="463.5" rx="5.5" ry="6.3"/>
			<ellipse class="st9" cx="21.4" cy="463.5" rx="5.5" ry="6.3"/>
			<ellipse class="st9" cx="25" cy="463.5" rx="5.5" ry="6.3"/>
			<ellipse class="st9" cx="28.7" cy="463.5" rx="5.5" ry="6.3"/>
			<ellipse class="st9" cx="32.4" cy="463.5" rx="5.5" ry="6.3"/>
			<ellipse class="st9" cx="36" cy="463.5" rx="5.5" ry="6.3"/>
			<ellipse class="st9" cx="39.7" cy="463.5" rx="5.5" ry="6.3"/>
			<ellipse class="st9" cx="43.4" cy="463.5" rx="5.5" ry="6.3"/>
			<ellipse class="st9" cx="47" cy="463.5" rx="5.5" ry="6.3"/>
			<ellipse class="st9" cx="50.7" cy="463.5" rx="5.5" ry="6.3"/>
			<ellipse class="st9" cx="54.3" cy="463.5" rx="5.5" ry="6.3"/>
			<ellipse class="st9" cx="58" cy="463.5" rx="5.5" ry="6.3"/>
			<ellipse class="st9" cx="61.7" cy="463.5" rx="5.5" ry="6.3"/>
			<ellipse class="st9" cx="65.3" cy="463.5" rx="5.5" ry="6.3"/>
			<ellipse class="st9" cx="69" cy="463.5" rx="5.5" ry="6.3"/>
			<ellipse class="st9" cx="72.7" cy="463.5" rx="5.5" ry="6.3"/>
			<ellipse class="st9" cx="76.3" cy="463.5" rx="5.5" ry="6.3"/>
			<ellipse class="st9" cx="80" cy="463.5" rx="5.5" ry="6.3"/>
			<ellipse class="st9" cx="83.7" cy="463.5" rx="5.5" ry="6.3"/>
			<ellipse class="st9" cx="87.3" cy="463.5" rx="5.5" ry="6.3"/>
			<ellipse class="st9" cx="91" cy="463.5" rx="5.5" ry="6.3"/>
			<ellipse class="st9" cx="94.7" cy="463.5" rx="5.5" ry="6.3"/>
			<ellipse class="st9" cx="98.3" cy="463.5" rx="5.5" ry="6.3"/>
			<ellipse class="st9" cx="102" cy="463.5" rx="5.5" ry="6.3"/>
			<ellipse class="st9" cx="105.7" cy="463.5" rx="5.5" ry="6.3"/>
			<ellipse class="st9" cx="109.3" cy="463.5" rx="5.5" ry="6.3"/>
			<ellipse class="st9" cx="113" cy="434.7" rx="5.5" ry="6.3"/>
			<ellipse class="st9" cx="116.7" cy="434.7" rx="5.5" ry="6.3"/>
			<ellipse class="st9" cx="120.3" cy="421.8" rx="5.5" ry="6.3"/>
			<ellipse class="st9" cx="124" cy="421.8" rx="5.5" ry="6.3"/>
			<ellipse class="st9" cx="127.7" cy="416.4" rx="5.5" ry="6.3"/>
			<ellipse class="st9" cx="131.3" cy="416.4" rx="5.5" ry="6.3"/>
			<ellipse class="st9" cx="135" cy="416.4" rx="5.5" ry="6.3"/>
			<ellipse class="st9" cx="138.7" cy="411.5" rx="5.5" ry="6.3"/>
			<ellipse class="st9" cx="142.3" cy="411.5" rx="5.5" ry="6.3"/>
			<ellipse class="st9" cx="145.8" cy="395.5" rx="5.5" ry="6.3"/>
			<ellipse class="st9" cx="149.5" cy="386.1" rx="5.5" ry="6.3"/>
			<ellipse class="st9" cx="153.2" cy="378.2" rx="5.5" ry="6.3"/>
			<ellipse class="st9" cx="156.8" cy="378.2" rx="5.5" ry="6.3"/>
			<ellipse class="st9" cx="160.5" cy="350.5" rx="5.5" ry="6.3"/>
			<ellipse class="st9" cx="164.2" cy="334.6" rx="5.5" ry="6.3"/>
			<ellipse class="st9" cx="167.8" cy="326.8" rx="5.5" ry="6.3"/>
			<ellipse class="st9" cx="171.5" cy="315.5" rx="5.5" ry="6.3"/>
			<ellipse class="st9" cx="175.2" cy="301.1" rx="5.5" ry="6.3"/>
			<ellipse class="st9" cx="178.8" cy="288.1" rx="5.5" ry="6.3"/>
			<ellipse class="st9" cx="182.5" cy="288.1" rx="5.5" ry="6.3"/>
			<ellipse class="st9" cx="186.2" cy="288.1" rx="5.5" ry="6.3"/>
			<ellipse class="st9" cx="189.8" cy="255.3" rx="5.5" ry="6.3"/>
			<ellipse class="st9" cx="193.5" cy="242.1" rx="5.5" ry="6.3"/>
			<ellipse class="st9" cx="197.2" cy="232.7" rx="5.5" ry="6.3"/>
			<ellipse class="st9" cx="200.8" cy="225.2" rx="5.5" ry="6.3"/>
			<ellipse class="st9" cx="204.5" cy="218.7" rx="5.5" ry="6.3"/>
			<ellipse class="st9" cx="208.1" cy="213.1" rx="5.5" ry="6.3"/>
			<ellipse class="st9" cx="211.8" cy="208" rx="5.5" ry="6.3"/>
			<ellipse class="st9" cx="215.5" cy="198.9" rx="5.5" ry="6.3"/>
			<ellipse class="st9" cx="219.1" cy="192.9" rx="5.5" ry="6.3"/>
			<ellipse class="st9" cx="222.8" cy="189.6" rx="5.5" ry="6.3"/>
			<ellipse class="st9" cx="226.5" cy="183.9" rx="5.5" ry="6.3"/>
			<ellipse class="st9" cx="230.1" cy="181.1" rx="5.5" ry="6.3"/>
			<ellipse class="st9" cx="233.8" cy="177.6" rx="5.5" ry="6.3"/>
			<ellipse class="st9" cx="237.5" cy="175.2" rx="5.5" ry="6.3"/>
			<ellipse class="st9" cx="241.1" cy="173.8" rx="5.5" ry="6.3"/>
			<ellipse class="st9" cx="244.8" cy="172.9" rx="5.5" ry="6.3"/>
			<ellipse class="st9" cx="248.5" cy="171.9" rx="5.5" ry="6.3"/>
			<ellipse class="st9" cx="252.1" cy="170.4" rx="5.5" ry="6.3"/>
			<ellipse class="st9" cx="255.8" cy="169.5" rx="5.5" ry="6.3"/>
			<ellipse class="st9" cx="259.5" cy="168.9" rx="5.5" ry="6.3"/>
			<ellipse class="st9" cx="263.1" cy="168.3" rx="5.5" ry="6.3"/>
			<ellipse class="st9" cx="266.8" cy="167.3" rx="5.5" ry="6.3"/>
			<ellipse class="st9" cx="270.5" cy="167.2" rx="5.5" ry="6.3"/>
			<ellipse class="st9" cx="274.1" cy="166.7" rx="5.5" ry="6.3"/>
			<ellipse class="st9" cx="277.8" cy="166.3" rx="5.5" ry="6.3"/>
			<ellipse class="st9" cx="281.5" cy="166" rx="5.5" ry="6.3"/>
			<ellipse class="st9" cx="285.1" cy="166" rx="5.5" ry="6.3"/>
			<ellipse class="st9" cx="288.8" cy="165.8" rx="5.5" ry="6.3"/>
			<ellipse class="st9" cx="292.5" cy="165.2" rx="5.5" ry="6.3"/>
			<ellipse class="st9" cx="296.1" cy="165.2" rx="5.5" ry="6.3"/>
			<ellipse class="st9" cx="299.8" cy="165.2" rx="5.5" ry="6.3"/>
			<ellipse class="st9" cx="303.5" cy="165.2" rx="5.5" ry="6.3"/>
			<ellipse class="st9" cx="307.1" cy="165.2" rx="5.5" ry="6.3"/>
			<ellipse class="st9" cx="310.8" cy="164.5" rx="5.5" ry="6.3"/>
			<ellipse class="st9" cx="314.5" cy="164.2" rx="5.5" ry="6.3"/>
			<ellipse class="st9" cx="318.1" cy="164.1" rx="5.5" ry="6.3"/>
			<ellipse class="st9" cx="321.8" cy="164" rx="5.5" ry="6.3"/>
			<ellipse class="st9" cx="325.4" cy="164" rx="5.5" ry="6.3"/>
			<ellipse class="st9" cx="329.1" cy="163.8" rx="5.5" ry="6.3"/>
			<ellipse class="st9" cx="332.8" cy="163.6" rx="5.5" ry="6.3"/>
			<ellipse class="st9" cx="336.4" cy="163.4" rx="5.5" ry="6.3"/>
			<ellipse class="st9" cx="340.1" cy="163.2" rx="5.5" ry="6.3"/>
			<ellipse class="st9" cx="343.8" cy="162.7" rx="5.5" ry="6.3"/>
			<ellipse class="st9" cx="347.4" cy="161.9" rx="5.5" ry="6.3"/>
			<ellipse class="st9" cx="351.1" cy="161.3" rx="5.5" ry="6.3"/>
			<ellipse class="st9" cx="354.8" cy="160.7" rx="5.5" ry="6.3"/>
			<ellipse class="st9" cx="358.4" cy="160.2" rx="5.5" ry="6.3"/>
			<ellipse class="st9" cx="362.1" cy="159.7" rx="5.5" ry="6.3"/>
			<ellipse class="st9" cx="365.8" cy="159.7" rx="5.5" ry="6.3"/>
			<ellipse class="st9" cx="369.4" cy="159" rx="5.5" ry="6.3"/>
			<ellipse class="st9" cx="373.1" cy="158.7" rx="5.5" ry="6.3"/>
			<ellipse class="st9" cx="376.8" cy="158.2" rx="5.5" ry="6.3"/>
			<ellipse class="st9" cx="380.4" cy="158.1" rx="5.5" ry="6.3"/>
			<ellipse class="st9" cx="384.1" cy="157.8" rx="5.5" ry="6.3"/>
			<ellipse class="st9" cx="387.8" cy="157.2" rx="5.5" ry="6.3"/>
			<ellipse class="st9" cx="391.4" cy="156.8" rx="5.5" ry="6.3"/>
			<ellipse class="st9" cx="395.1" cy="156.6" rx="5.5" ry="6.3"/>
			<ellipse class="st9" cx="398.8" cy="156.4" rx="5.5" ry="6.3"/>
			<ellipse class="st9" cx="402.4" cy="156.1" rx="5.5" ry="6.3"/>
			<ellipse class="st9" cx="406.1" cy="156.1" rx="5.5" ry="6.3"/>
			<ellipse class="st9" cx="409.8" cy="155.9" rx="5.5" ry="6.3"/>
			<ellipse class="st9" cx="413.4" cy="155.5" rx="5.5" ry="6.3"/>
			<ellipse class="st9" cx="417.1" cy="155.5" rx="5.5" ry="6.3"/>
			<ellipse class="st9" cx="420.8" cy="155.1" rx="5.5" ry="6.3"/>
			<ellipse class="st9" cx="424.4" cy="155.1" rx="5.5" ry="6.3"/>
			<ellipse class="st9" cx="428.1" cy="154.9" rx="5.5" ry="6.3"/>
			<ellipse class="st9" cx="431.8" cy="154.7" rx="5.5" ry="6.3"/>
			<ellipse class="st9" cx="435.4" cy="154.3" rx="5.5" ry="6.3"/>
			<ellipse class="st9" cx="439.1" cy="154.2" rx="5.5" ry="6.3"/>
			<ellipse class="st9" cx="442.7" cy="153.8" rx="5.5" ry="6.3"/>
			<ellipse class="st9" cx="446.4" cy="153.7" rx="5.5" ry="6.3"/>
			<ellipse class="st9" cx="450.1" cy="153.6" rx="5.5" ry="6.3"/>
			<ellipse class="st9" cx="453.7" cy="153.3" rx="5.5" ry="6.3"/>
			<ellipse class="st9" cx="457.4" cy="153" rx="5.5" ry="6.3"/>
			<ellipse class="st9" cx="461.1" cy="152.8" rx="5.5" ry="6.3"/>
			<ellipse class="st9" cx="464.7" cy="152.7" rx="5.5" ry="6.3"/>
			<ellipse class="st9" cx="468.4" cy="152.7" rx="5.5" ry="6.3"/>
			<ellipse class="st9" cx="472.1" cy="152.6" rx="5.5" ry="6.3"/>
			<ellipse class="st9" cx="475.7" cy="152.5" rx="5.5" ry="6.3"/>
			<ellipse class="st9" cx="479.4" cy="152.5" rx="5.5" ry="6.3"/>
			<ellipse class="st9" cx="483.1" cy="152.4" rx="5.5" ry="6.3"/>
			<ellipse class="st9" cx="486.7" cy="152.1" rx="5.5" ry="6.3"/>
			<ellipse class="st9" cx="490.4" cy="152" rx="5.5" ry="6.3"/>
			<ellipse class="st9" cx="494.1" cy="152" rx="5.5" ry="6.3"/>
			<ellipse class="st9" cx="497.7" cy="151.5" rx="5.5" ry="6.3"/>
			<ellipse class="st9" cx="501.4" cy="151.2" rx="5.5" ry="6.3"/>
			<ellipse class="st9" cx="505.1" cy="150.9" rx="5.5" ry="6.3"/>
			<ellipse class="st9" cx="508.7" cy="150.3" rx="5.5" ry="6.3"/>
			<ellipse class="st9" cx="512.4" cy="149.8" rx="5.5" ry="6.3"/>
			<ellipse class="st9" cx="516.1" cy="149.4" rx="5.5" ry="6.3"/>
			<ellipse class="st9" cx="519.7" cy="149.4" rx="5.5" ry="6.3"/>
			<ellipse class="st9" cx="523.4" cy="148.2" rx="5.5" ry="6.3"/>
			<ellipse class="st9" cx="527.1" cy="147.9" rx="5.5" ry="6.3"/>
			<ellipse class="st9" cx="530.7" cy="147.4" rx="5.5" ry="6.3"/>
			<ellipse class="st9" cx="534.4" cy="146.8" rx="5.5" ry="6.3"/>
			<ellipse class="st9" cx="538.1" cy="145.9" rx="5.5" ry="6.3"/>
			<ellipse class="st9" cx="541.7" cy="145.1" rx="5.5" ry="6.3"/>
			<ellipse class="st9" cx="545.4" cy="145.1" rx="5.5" ry="6.3"/>
			<ellipse class="st9" cx="549.1" cy="143" rx="5.5" ry="6.3"/>
			<ellipse class="st9" cx="552.7" cy="141.3" rx="5.5" ry="6.3"/>
			<ellipse class="st9" cx="556.4" cy="139.8" rx="5.5" ry="6.3"/>
			<ellipse class="st9" cx="560" cy="138.1" rx="5.5" ry="6.3"/>
			<ellipse class="st9" cx="563.7" cy="136.5" rx="5.5" ry="6.3"/>
			<ellipse class="st9" cx="567.4" cy="135.1" rx="5.5" ry="6.3"/>
			<ellipse class="st9" cx="571" cy="135.1" rx="5.5" ry="6.3"/>
			<ellipse class="st9" cx="574.7" cy="131.5" rx="5.5" ry="6.3"/>
			<ellipse class="st9" cx="578.4" cy="129.1" rx="5.5" ry="6.3"/>
			<ellipse class="st9" cx="582" cy="126" rx="5.5" ry="6.3"/>
			<ellipse class="st9" cx="585.7" cy="123.9" rx="5.5" ry="6.3"/>
			<ellipse class="st9" cx="589.4" cy="121.2" rx="5.5" ry="6.3"/>
			<ellipse class="st9" cx="593" cy="116.5" rx="5.5" ry="6.3"/>
			<ellipse class="st9" cx="596.7" cy="114.1" rx="5.5" ry="6.3"/>
			<ellipse class="st9" cx="600.4" cy="110.7" rx="5.5" ry="6.3"/>
			<ellipse class="st9" cx="604" cy="108.5" rx="5.5" ry="6.3"/>
			<ellipse class="st9" cx="607.7" cy="105.3" rx="5.5" ry="6.3"/>
			<ellipse class="st9" cx="611.4" cy="102.6" rx="5.5" ry="6.3"/>
			<ellipse class="st9" cx="615" cy="99.3" rx="5.5" ry="6.3"/>
			<ellipse class="st9" cx="618.7" cy="94.9" rx="5.5" ry="6.3"/>
			<ellipse class="st9" cx="622.4" cy="93.1" rx="5.5" ry="6.3"/>
			<ellipse class="st9" cx="626" cy="89.9" rx="5.5" ry="6.3"/>
			<ellipse class="st9" cx="629.7" cy="87.7" rx="5.5" ry="6.3"/>
			<ellipse class="st9" cx="633.4" cy="84.8" rx="5.5" ry="6.3"/>
			<ellipse class="st9" cx="637" cy="81.3" rx="5.5" ry="6.3"/>
			<ellipse class="st9" cx="640.7" cy="78.4" rx="5.5" ry="6.3"/>
			<ellipse class="st9" cx="644.4" cy="76.4" rx="5.5" ry="6.3"/>
			<ellipse class="st9" cx="648" cy="74.1" rx="5.5" ry="6.3"/>
			<ellipse class="st9" cx="651.7" cy="71.3" rx="5.5" ry="6.3"/>
			<ellipse class="st9" cx="655.4" cy="68.1" rx="5.5" ry="6.3"/>
			<ellipse class="st9" cx="659" cy="66.1" rx="5.5" ry="6.3"/>
			<ellipse class="st9" cx="662.7" cy="64.7" rx="5.5" ry="6.3"/>
			<ellipse class="st9" cx="666.4" cy="61" rx="5.5" ry="6.3"/>
			<ellipse class="st9" cx="670" cy="58.1" rx="5.5" ry="6.3"/>
			<ellipse class="st9" cx="673.7" cy="56.4" rx="5.5" ry="6.3"/>
			<ellipse class="st9" cx="677.3" cy="53.5" rx="5.5" ry="6.3"/>
			<ellipse class="st9" cx="681" cy="51.8" rx="5.5" ry="6.3"/>
			<ellipse class="st9" cx="684.7" cy="50.2" rx="5.5" ry="6.3"/>
			<ellipse class="st9" cx="688.3" cy="47.3" rx="5.5" ry="6.3"/>
			<ellipse class="st9" cx="692" cy="45.6" rx="5.5" ry="6.3"/>
			<ellipse class="st9" cx="695.7" cy="44.1" rx="5.5" ry="6.3"/>
			<ellipse class="st9" cx="699.3" cy="42.6" rx="5.5" ry="6.3"/>
			<ellipse class="st9" cx="703" cy="41.3" rx="5.5" ry="6.3"/>
			<ellipse class="st9" cx="706.7" cy="40.2" rx="5.5" ry="6.3"/>
			<ellipse class="st9" cx="710.3" cy="39.2" rx="5.5" ry="6.3"/>
			<ellipse class="st9" cx="714" cy="37.9" rx="5.5" ry="6.3"/>
			<ellipse class="st9" cx="717.7" cy="37.2" rx="5.5" ry="6.3"/>
			<ellipse class="st9" cx="721.3" cy="36" rx="5.5" ry="6.3"/>
			<ellipse class="st9" cx="725" cy="35.1" rx="5.5" ry="6.3"/>
			<ellipse class="st9" cx="728.7" cy="34.4" rx="5.5" ry="6.3"/>
			<ellipse class="st9" cx="732.3" cy="33.6" rx="5.5" ry="6.3"/>
			<ellipse class="st10" cx="736" cy="32.9" rx="5.5" ry="6.3"/>
			<ellipse class="st10" cx="739.7" cy="32.3" rx="5.5" ry="6.3"/>
			<ellipse class="st10" cx="743.3" cy="31.6" rx="5.5" ry="6.3"/>
			<ellipse class="st10" cx="747" cy="31.1" rx="5.5" ry="6.3"/>
			<ellipse class="st10" cx="750.7" cy="30.6" rx="5.5" ry="6.3"/>
			<ellipse class="st11" cx="754.3" cy="30" rx="5.5" ry="6.3"/>
			<ellipse class="st11" cx="758" cy="29.8" rx="5.5" ry="6.3"/>
			<ellipse class="st11" cx="761.7" cy="29.4" rx="5.5" ry="6.3"/>
			<ellipse class="st11" cx="765.3" cy="29" rx="5.5" ry="6.3"/>
			<ellipse class="st11" cx="769" cy="28.7" rx="5.5" ry="6.3"/>
		</g>
		<line class="st12" x1="732.3" y1="33.5" x2="820.2" y2="19.6"/>
		<line class="st13" x1="750.7" y1="30.4" x2="820.2" y2="23.8"/>
	</g>
</g>
</svg>
