<?xml version="1.0" encoding="utf-8"?>
<!-- Generator: Adobe Illustrator 24.2.3, SVG Export Plug-In . SVG Version: 6.00 Build 0)  -->
<svg version="1.1" id="Layer_1" xmlns="http://www.w3.org/2000/svg" xmlns:xlink="http://www.w3.org/1999/xlink" x="0px" y="0px"
	 viewBox="0 0 925 650" style="enable-background:new 0 0 925 650;" xml:space="preserve">
<style type="text/css">
	.st0{fill:#2C3E50;}
	.st1{font-family:'DMSans-Regular','DM Sans',sans-serif;}
	.st2{font-size:32px;}
	.st3{fill:none;stroke:#2C3E50;}
	.st4{font-size:24px;}
	.st5{font-size:21px;}
	.st6{fill:#F28E2C;}
	.st7{font-family:'DMSans-Medium','DM Sans',sans-serif;font-weight:600}
	.st8{fill:none;stroke:#F28E2C;stroke-width:6;}
	.st9{fill:none;stroke:#507EA3;stroke-width:6;}
	.st10{fill:#507EA3;}
	.st11{fill:#E15759;}
	.st12{fill:none;stroke:#E15759;stroke-width:6;}
	.st13{fill:none;stroke:#2C3E50;stroke-width:1.6471;}
	.st14{fill:none;stroke:#2C3E50;stroke-width:1.286;}
</style>
<g>
	<text transform="matrix(1 0 0 1 18.5867 43.1876)" class="st0 st1 st2">Number of COVID-19 daily new cases (7-day rolling average)</text>
	<path class="st3" d="M96.7,594.7v-5.5h715.8v5.5"/>
	<text transform="matrix(1 0 0 1 80.4071 627.749)" class="st0 st1 st4">February</text>
	<text transform="matrix(1 0 0 1 190.8786 627.749)" class="st0 st1 st4">March</text>
	<text transform="matrix(1 0 0 1 302.0746 627.749)" class="st0 st1 st4">April</text>
	<text transform="matrix(1 0 0 1 403.3188 627.749)" class="st0 st1 st4">May</text>
	<text transform="matrix(1 0 0 1 502.2227 627.749)" class="st0 st1 st4">June</text>
	<text transform="matrix(1 0 0 1 605.5784 627.749)" class="st0 st1 st4">July</text>
	<text transform="matrix(1 0 0 1 691.3984 627.749)" class="st0 st1 st4">August</text>
	<path class="st3" d="M96.7,584.2V64.7"/>
	<line class="st3" x1="96.2" y1="584.2" x2="86.2" y2="584.2"/>
	<text transform="matrix(1 0 0 1 50.2766 587.3491)" class="st0 st1 st5">0</text>
	<text transform="matrix(1 0 0 1 9.8137 476.8937)" class="st0 st1 st5">10,000</text>
	<text transform="matrix(1 0 0 1 5.6535 363.4143)" class="st0 st1 st5">20,000</text>
	<text transform="matrix(1 0 0 1 5.2377 252.959)" class="st0 st1 st5">30,000</text>
	<text transform="matrix(1 0 0 1 4.9651 140.9917)" class="st0 st1 st5">40,000</text>
	<g id="epi-curve" transform="translate(95,15)">
		<g id="BRA">
			<text transform="matrix(1 0 0 1 737.9641 199.7295)" class="st6 st7 st2">Brazil</text>
			<path id="epi-line-BRA" class="st8" d="M116.7,568.7h3.3h3.3h3.3h3.3h3.3h3.3h3.3h3.3h3.3h3.3h3.3h3.2l3.3-0.1h3.3h3.3l3.3-0.1
				l3.3-0.2l3.3-0.1l3.3-0.4l3.3-0.1l3.3-0.4l3.3-0.8l3.3-0.5l3.3-0.3l3.3-0.4l3.3-0.3l3.3-0.4l3.3-0.4l3.3,0.3l3.3,0.1l3.3-1.3
				l3.3-1.3l3.3-1.2l3.3-0.9l3.3-1.3l3.3-0.7l3.3-1.1l3.3-1.2l3.3-1.6l3.3-1.1l3.3-0.9l3.3,0.3l3.3-1.1l3.3-0.3l3.3,0.1l3.3-1.5
				l3.3-0.3l3.3-2.7l3.3-3l3.3-0.8l3.3-1.4l3.3-0.8l3.3,0.6l3.3-3.5l3.3-1.2l3.3-3.7l3.3-2.8l3.3-3.6l3.3-5.5l3.3-6l3.3-5.2l3.3-1.6
				l3.3,0.6l3.3-1.5l3.3-3.9l3.3-1.7l3.3-7.5l3.3-2.7l3.3-9.8l3.3-6.8l3.3-3.1l3.3-0.2l3.3-2.9l3.3-1.2l3.3-6.2l3.3-9.6l3.3-6.5
				l3.3-1.5l3.3-11.8l3.3-12.6l3.3-12.4l3.3-8.8l3.3-5.9l3.3-5.3l3.3-13.2l3.3,4.2l3.3,0.3l3.3-1.4l3.3-12.7l3.3-9.8l3.3-26.8l3.3-1
				l3.3,0.1l3.3-20.2l3.3-12.9l3.3-7.2l3.3-6.2l3.3,9.9l3.3-4l3.3-6.5l3.3-5l3.3-6.8l3.3,0.8l3.3,7.8l3.3,8.6l3.3,2.9l3.3-8l3.3-4.5
				l3.3,1.2l3.3,12.2l3.3-46l3.3,34.7l3.3-56l3.3-1.3l3.3-7.2l3.3-16.9l3.3-26.7l3.3,12.7l3.3-61.9l3.3,34.6l3.3-4.2l3.3,8.9
				l3.3-6.4l3.3-13.8l3.3,7.4l3.3,1.2l3.3,7.1l3.3,6.1l3.3-18.3l3.3,3.4l3.3,8.8l3.3-4.5l3.3-1.8l3.3,2l3.3-0.1l3.3,5.5l3.3,7.4
				l3.3-4.5l3.3,17.4l3.3,16.8l3.3,2.1h3.3l3.3,1.4l3.3-44.7l3.3-23.3l3.3-34.7l3.3-36.2l3.3-1.7l3.3-4.8l3.3,0.3l3.3-1.9l3.3,3.4
				l3.3,5.6l3.3,9.2l3.3-2l3.3,10.6l3.3-17.3L638,78l3.3,7.5l3.3,3.4l3.3-7.3l3.3,4.5l3.3-8.6l3.3-0.9l3.3,3.2l3.3-11.1l3.3-0.7
				l3.3,13.4l3.3-0.1l3.3,4.3l3.3,7l3.3,9.4l3.3,23.6l3.3,32.5l3.3-13.5l3.3-0.5l3.3,3.7l3.3,1l3.3,3.4l3.3,15.1l3.3-12.3l3.3,36.6"
				/>
			<circle id="BRA_2020-08-26" class="st6" cx="717" cy="191.4" r="7.5"/>
		</g>
		<g id="ITA_1_">
			<path id="epi-line-ITA" class="st9" d="M30.9,568.7h3.3h3.3h3.3h3.3h3.3h3.3H54h3.3h3.3h3.3h26.4l3.3-0.1l3.3-0.1l3.3-0.1
				l3.3-0.1l3.3-0.2l3.3-0.3l3.3-0.3l3.3-0.3l3.3-0.8l3.3-0.4l3.3-0.6l3.3-0.7l3.3-0.9l3.3-0.9l3.3-1.6l3.3-1.5l3.3-2.3l3.3-0.8
				l3.3-2.8l3.2,1.2l3.3-7.1l3.3-3.6l3.3-3.4l3.3-2.3l3.3-4.1l3.3-3l3.3-8.5l3.3-1.3l3.3-4.9l3.3-3.2l3.3-2.5l3.3-2.8l3.3-1.6
				l3.3-1.4l3.3,0.1l3.3,0.9l3.3,0.5l3.3,1.2l3.3,1.9l3.3,0.7l3.3,2.5l3.3,2.1l3.3,1.9l3.3,1.4l3.3,0.7l3.3,1.6l3.3,1.5l3.3,0.7
				l3.3,1l3.3,0.2l3.3,0.4l3.3,0.7l3.3,0.1l3.3,1.9l3.3,0.7l3.3,0.7l3.3,1.9l3.3,1.7l3.3,1.4l3.3,0.4l3.3-1.1l3.3,1.8l3.3,0.8
				l3.3,1.8l3.3,1.2l3.3,0.8l3.3,1l3.3,2.1l3.3,1.2l3.3,1.7l3.3,0.7l3.3,1.5l3.3,0.8l3.3,1.6l3.3,1l3.3,0.8l3.3,1l3.3,1.3l3.3,0.9
				l3.3,0.8l3.3-0.5l3.3,0.9l3.3,0.7l3.3,0.9l3.3,0.3l3.3,0.2l3.3,0.5l3.3,0.9l3.3,0.4l3.3,0.6l3.3,0.2l3.3,0.3l3.3,0.2l3.3,0.2
				l3.3,0.7l3.3,0.1l3.3,0.1l3.3,0.2l3.3,0.4l3.3,0.3l3.3,0.2l3.3,0.1l3.3,0.4l3.3,0.7h3.3l3.3,0.2l3.3,0.2l3.3-0.1l3.3,0.1l3.3,0.2
				l3.3-0.3l3.3,0.6l3.3-0.1l3.3-0.2h3.3l3.3,0.1l3.3-0.2l3.3,0.1l3.3-0.2l3.3,0.2l3.3,0.2l3.3,0.1l3.3,0.2l3.3-0.5l3.3,0.1h3.3
				l3.3,0.1l3.3,0.1l3.3,0.2h3.3l3.3,0.6l3.3,0.2l3.3,0.1l3.3-0.1h3.3l3.3-0.1h3.3h3.3h3.3l3.3-0.1l3.3,0.1l3.3-0.1l3.3,0.1h3.3h3.3
				h3.3l3.3,0.1l3.3-0.1h3.3h3.3h3.3l3.3-0.2l3.3-0.1h3.3h3.3l3.3-0.1h3.3l3.3-0.1h3.3l3.3-0.1l3.3-0.2h3.3h3.3h3.3h3.3l3.3-0.2h3.3
				l3.3-0.3l3.3-0.1l3.3-0.4l3.3-0.2l3.3-0.4l3.3-0.1l3.3-0.2h3.3l3.3-0.5h3.3l3.3-0.1h3.3l3.3-0.3l3.3-0.5l3.3-0.6l3.3-0.7l3.3-1.2
				l3.3-1l3.3-0.8l3.3-1.2l3.3-0.4l3.3-0.3l3.3-0.1"/>
			<text transform="matrix(1 0 0 1 737.9648 549.7707)" class="st10 st7 st2">Italy</text>
			<circle id="ITA_2020-08-26" class="st10" cx="717" cy="556.3" r="7.5"/>
		</g>
		<g id="CHN">
			<text transform="matrix(1 0 0 1 737.9648 583.6569)" class="st11 st7 st2">China</text>
			<path id="epi-line-CHN" class="st12" d="M1.2,564.8l3.3-0.7l3.3-0.7l3.3-3.4h3.3l3.3-3.1l3.3-2.2l3.3-2.6l3.3-6.5l3.3-3.7
				l3.3-2.2l3.3-5l3.3-1.7l3.3-3l3.3-1l3.3,2.8l3.3,0.9l3.3,3.1l3.3,5.4l3.3-19.2l3.3-4.7l3.3,1l3.3,1.5l3.3,1l3.3,0.4l3.3-0.1
				l3.3,23.5l3.3,9.6l3.3,1l3.3,3.3l3.3,2.7l3.3,2h3.3h3.3l3.3,0.2l3.3,1.6l3.3-0.9h3.3l3.3,0.6l3.3,0.5l3.3,0.5l3.3,0.3l3.3,0.6
				l3.3,0.8l3.3,0.3l3.3,0.2l3.3,0.1l3.2,0.2l3.3,0.2l3.3,0.1h3.3h3.3h3.3h3.3h3.3l3.3-0.1h3.3h3.3l3.3-0.1l3.3-0.1h3.3l3.3-0.1h3.3
				h3.3h3.3h3.3h3.3h3.3l3.3,0.1h3.3l3.3,0.1h3.3h3.3h3.3l3.3-0.1h3.3h3.3l3.3-0.1l3.3-0.1l3.3-0.1l3.3-0.1h3.3h3.3l3.3-0.5l3.3,0.1
				l3.3,0.2l3.3,0.1l3.3,0.1l3.3,0.1l3.3,0.1l3.3,0.5h3.3h3.3h3.3h3.3h3.3h3.3h3.3h3.3h3.3h3.3h3.3h3.3h3.3h3.3h3.3h3.3h3.3h3.3h3.3
				h3.3h3.3h3.3h3.3h3.3h3.3h3.3h3.3h3.3h3.3h3.3h3.3h3.3h3.3h3.3h3.3h3.3h3.3h3.3h3.3h3.3h3.3h3.3h3.3h3.3h3.3h3.3h3.3h3.3h3.3
				l3.3-0.1l3.3-0.1l3.3-0.1l3.3-0.1h3.3h3.3h3.3h3.3l3.3,0.1h3.3h3.3h3.3h3.3h3.3l3.3,0.1h3.3h3.3h3.3h3.3h3.3h3.3h3.3h3.3h3.3h3.3
				h3.3h3.3h3.3h3.3h3.3h3.3h3.3h3.3h3.3h3.3h3.3h3.3h3.3h3.3l3.3-0.2h3.3l3.3-0.1l3.3-0.1l3.3-0.1l3.3-0.1l3.3-0.2h3.3l3.3-0.2h3.3
				h3.3h3.3l3.3,0.1l3.3,0.1l3.3,0.1l3.3,0.1h3.3h3.3h3.3h3.3h3.3h3.3h3.3h3.3h3.3h3.3h3.3h3.3h3.3h3.3h3.3h3.3h3.3h3.3h3.3h3.3h3.3
				h3.3h3.3"/>
			<circle id="CHN_2020-08-26" class="st11" cx="717" cy="568.5" r="7.5"/>
		</g>
	</g>
	<line class="st13" x1="129.7" y1="588.7" x2="129.7" y2="604.9"/>
	<line class="st13" x1="225.4" y1="588.7" x2="225.4" y2="604.9"/>
	<line class="st13" x1="327.5" y1="588.7" x2="327.5" y2="604.9"/>
	<line class="st13" x1="426.5" y1="588.7" x2="426.5" y2="604.9"/>
	<line class="st13" x1="528.8" y1="588.7" x2="528.8" y2="604.9"/>
	<line class="st13" x1="627.8" y1="588.7" x2="627.8" y2="604.9"/>
	<line class="st13" x1="730" y1="588.7" x2="730" y2="604.9"/>
	<line class="st14" x1="96.2" y1="472.2" x2="86.2" y2="472.2"/>
	<line class="st14" x1="96.2" y1="360.2" x2="86.2" y2="360.2"/>
	<line class="st14" x1="96.2" y1="248.3" x2="86.2" y2="248.3"/>
	<line class="st14" x1="96.2" y1="136.3" x2="86.2" y2="136.3"/>
</g>
</svg>
