<svg xmlns="http://www.w3.org/2000/svg" xml:space="preserve" x="0" y="0" version="1.1" viewBox="0 0 925 650"><text fill="#2c3e50" font-family="'DMSans-Regular','DM Sans',sans-serif" font-size="32" transform="translate(18.587 43.188)">Number of COVID-19 daily new cases (7-day rolling average)</text><path d="M96.7 594.7v-5.5h715.8v5.5" fill="none" stroke="#2c3e50"/><text fill="#2c3e50" font-family="'DMSans-Regular','DM Sans',sans-serif" font-size="24" transform="translate(80.407 627.749)">February</text><text fill="#2c3e50" font-family="'DMSans-Regular','DM Sans',sans-serif" font-size="24" transform="translate(190.879 627.749)">March</text><text fill="#2c3e50" font-family="'DMSans-Regular','DM Sans',sans-serif" font-size="24" transform="translate(302.075 627.749)">April</text><text fill="#2c3e50" font-family="'DMSans-Regular','DM Sans',sans-serif" font-size="24" transform="translate(403.319 627.749)">May</text><text fill="#2c3e50" font-family="'DMSans-Regular','DM Sans',sans-serif" font-size="24" transform="translate(502.223 627.749)">June</text><text fill="#2c3e50" font-family="'DMSans-Regular','DM Sans',sans-serif" font-size="24" transform="translate(605.578 627.749)">July</text><text fill="#2c3e50" font-family="'DMSans-Regular','DM Sans',sans-serif" font-size="24" transform="translate(691.398 627.749)">August</text><path d="M96.7 584.2V64.7m-.5 519.5h-10" fill="none" stroke="#2c3e50"/><text fill="#2c3e50" font-family="'DMSans-Regular','DM Sans',sans-serif" font-size="21" transform="translate(50.277 587.35)">0</text><text fill="#2c3e50" font-family="'DMSans-Regular','DM Sans',sans-serif" font-size="21" transform="translate(9.814 476.894)">10,000</text><text fill="#2c3e50" font-family="'DMSans-Regular','DM Sans',sans-serif" font-size="21" transform="translate(5.654 363.414)">20,000</text><text fill="#2c3e50" font-family="'DMSans-Regular','DM Sans',sans-serif" font-size="21" transform="translate(5.238 252.959)">30,000</text><text fill="#2c3e50" font-family="'DMSans-Regular','DM Sans',sans-serif" font-size="21" transform="translate(4.965 140.992)">40,000</text><g transform="translate(95 15)"><text fill="#f28e2c" font-family="'DMSans-Medium','DM Sans',sans-serif" font-size="32" font-weight="600" transform="translate(737.964 199.73)">Brazil</text><path d="M116.7 568.7h39.5l3.3-.1h6.6l3.3-.1 3.3-.2 3.3-.1 3.3-.4 3.3-.1 3.3-.4 3.3-.8 3.3-.5 3.3-.3 3.3-.4 3.3-.3 3.3-.4 3.3-.4 3.3.3 3.3.1 3.3-1.3 3.3-1.3 3.3-1.2 3.3-.9 3.3-1.3 3.3-.7 3.3-1.1 3.3-1.2 3.3-1.6 3.3-1.1 3.3-.9 3.3.3 3.3-1.1 3.3-.3 3.3.1 3.3-1.5 3.3-.3 3.3-2.7 3.3-3 3.3-.8 3.3-1.4 3.3-.8 3.3.6 3.3-3.5 3.3-1.2 3.3-3.7 3.3-2.8 3.3-3.6 3.3-5.5 3.3-6 3.3-5.2 3.3-1.6 3.3.6 3.3-1.5 3.3-3.9 3.3-1.7 3.3-7.5 3.3-2.7 3.3-9.8 3.3-6.8 3.3-3.1 3.3-.2 3.3-2.9 3.3-1.2 3.3-6.2 3.3-9.6 3.3-6.5 3.3-1.5 3.3-11.8 3.3-12.6 3.3-12.4 3.3-8.8 3.3-5.9 3.3-5.3 3.3-13.2 3.3 4.2 3.3.3 3.3-1.4 3.3-12.7 3.3-9.8 3.3-26.8 3.3-1 3.3.1 3.3-20.2 3.3-12.9 3.3-7.2 3.3-6.2 3.3 9.9 3.3-4 3.3-6.5 3.3-5 3.3-6.8 3.3.8 3.3 7.8 3.3 8.6 3.3 2.9 3.3-8 3.3-4.5 3.3 1.2 3.3 12.2 3.3-46 3.3 34.7 3.3-56 3.3-1.3 3.3-7.2 3.3-16.9 3.3-26.7 3.3 12.7 3.3-61.9 3.3 34.6 3.3-4.2 3.3 8.9 3.3-6.4 3.3-13.8 3.3 7.4 3.3 1.2 3.3 7.1 3.3 6.1 3.3-18.3 3.3 3.4 3.3 8.8 3.3-4.5 3.3-1.8 3.3 2 3.3-.1 3.3 5.5 3.3 7.4 3.3-4.5 3.3 17.4 3.3 16.8 3.3 2.1h3.3l3.3 1.4 3.3-44.7 3.3-23.3 3.3-34.7 3.3-36.2 3.3-1.7 3.3-4.8 3.3.3 3.3-1.9 3.3 3.4 3.3 5.6 3.3 9.2 3.3-2 3.3 10.6 3.3-17.3L638 78l3.3 7.5 3.3 3.4 3.3-7.3 3.3 4.5 3.3-8.6 3.3-.9 3.3 3.2 3.3-11.1 3.3-.7 3.3 13.4 3.3-.1 3.3 4.3 3.3 7 3.3 9.4 3.3 23.6 3.3 32.5 3.3-13.5 3.3-.5 3.3 3.7 3.3 1 3.3 3.4 3.3 15.1 3.3-12.3 3.3 36.6" fill="none" stroke="#f28e2c" stroke-width="6"/><circle fill="#f28e2c" cx="717" cy="191.4" r="7.5"/><path d="M30.9 568.7h59.4l3.3-.1 3.3-.1 3.3-.1 3.3-.1 3.3-.2 3.3-.3 3.3-.3 3.3-.3 3.3-.8 3.3-.4 3.3-.6 3.3-.7 3.3-.9 3.3-.9 3.3-1.6 3.3-1.5 3.3-2.3 3.3-.8 3.3-2.8 3.2 1.2 3.3-7.1 3.3-3.6 3.3-3.4 3.3-2.3 3.3-4.1 3.3-3 3.3-8.5 3.3-1.3 3.3-4.9 3.3-3.2 3.3-2.5 3.3-2.8 3.3-1.6 3.3-1.4 3.3.1 3.3.9 3.3.5 3.3 1.2 3.3 1.9 3.3.7 3.3 2.5 3.3 2.1 3.3 1.9 3.3 1.4 3.3.7 3.3 1.6 3.3 1.5 3.3.7 3.3 1 3.3.2 3.3.4 3.3.7 3.3.1 3.3 1.9 3.3.7 3.3.7 3.3 1.9 3.3 1.7 3.3 1.4 3.3.4 3.3-1.1 3.3 1.8 3.3.8 3.3 1.8 3.3 1.2 3.3.8 3.3 1 3.3 2.1 3.3 1.2 3.3 1.7 3.3.7 3.3 1.5 3.3.8 3.3 1.6 3.3 1 3.3.8 3.3 1 3.3 1.3 3.3.9 3.3.8 3.3-.5 3.3.9 3.3.7 3.3.9 3.3.3 3.3.2 3.3.5 3.3.9 3.3.4 3.3.6 3.3.2 3.3.3 3.3.2 3.3.2 3.3.7 3.3.1 3.3.1 3.3.2 3.3.4 3.3.3 3.3.2 3.3.1 3.3.4 3.3.7h3.3l3.3.2 3.3.2 3.3-.1 3.3.1 3.3.2 3.3-.3 3.3.6 3.3-.1 3.3-.2h3.3l3.3.1 3.3-.2 3.3.1 3.3-.2 3.3.2 3.3.2 3.3.1 3.3.2 3.3-.5 3.3.1h3.3l3.3.1 3.3.1 3.3.2h3.3l3.3.6 3.3.2 3.3.1 3.3-.1h3.3l3.3-.1h9.9l3.3-.1 3.3.1 3.3-.1 3.3.1h9.9l3.3.1 3.3-.1h9.9l3.3-.2 3.3-.1h6.6l3.3-.1h3.3l3.3-.1h3.3l3.3-.1 3.3-.2h13.2l3.3-.2h3.3l3.3-.3 3.3-.1 3.3-.4 3.3-.2 3.3-.4 3.3-.1 3.3-.2h3.3l3.3-.5h3.3l3.3-.1h3.3l3.3-.3 3.3-.5 3.3-.6 3.3-.7 3.3-1.2 3.3-1 3.3-.8 3.3-1.2 3.3-.4 3.3-.3 3.3-.1" fill="none" stroke="#507ea3" stroke-width="6"/><text fill="#507ea3" font-family="'DMSans-Medium','DM Sans',sans-serif" font-size="32" font-weight="600" transform="translate(737.965 549.77)">Italy</text><circle fill="#507ea3" cx="717" cy="556.3" r="7.5"/><text fill="#e15759" font-family="'DMSans-Medium','DM Sans',sans-serif" font-size="32" font-weight="600" transform="translate(737.965 583.657)">China</text><path d="m1.2 564.8 3.3-.7 3.3-.7 3.3-3.4h3.3l3.3-3.1 3.3-2.2 3.3-2.6 3.3-6.5 3.3-3.7 3.3-2.2 3.3-5 3.3-1.7 3.3-3 3.3-1 3.3 2.8 3.3.9 3.3 3.1 3.3 5.4 3.3-19.2 3.3-4.7 3.3 1 3.3 1.5 3.3 1 3.3.4 3.3-.1 3.3 23.5 3.3 9.6 3.3 1 3.3 3.3 3.3 2.7 3.3 2h6.6l3.3.2 3.3 1.6 3.3-.9h3.3l3.3.6 3.3.5 3.3.5 3.3.3 3.3.6 3.3.8 3.3.3 3.3.2 3.3.1 3.2.2 3.3.2 3.3.1h16.5l3.3-.1h6.6l3.3-.1 3.3-.1h3.3l3.3-.1h19.8l3.3.1h3.3l3.3.1h9.9l3.3-.1h6.6l3.3-.1 3.3-.1 3.3-.1 3.3-.1h6.6l3.3-.5 3.3.1 3.3.2 3.3.1 3.3.1 3.3.1 3.3.1 3.3.5h161.7l3.3-.1 3.3-.1 3.3-.1 3.3-.1h13.2l3.3.1H506l3.3.1h79.2l3.3-.2h3.3l3.3-.1 3.3-.1 3.3-.1 3.3-.1 3.3-.2h3.3l3.3-.2h9.9l3.3.1 3.3.1 3.3.1 3.3.1h75.9" fill="none" stroke="#e15759" stroke-width="6"/><circle fill="#e15759" cx="717" cy="568.5" r="7.5"/></g><path d="M129.7 588.7v16.2m95.7-16.2v16.2m102.1-16.2v16.2m99-16.2v16.2m102.3-16.2v16.2m99-16.2v16.2M730 588.7v16.2" fill="none" stroke="#2c3e50" stroke-width="1.647"/><path d="M96.2 472.2h-10m10-112h-10m10-111.9h-10m10-112h-10" fill="none" stroke="#2c3e50" stroke-width="1.286"/></svg>