<?xml version="1.0" encoding="utf-8"?>
<!-- Generator: Adobe Illustrator 24.2.3, SVG Export Plug-In . SVG Version: 6.00 Build 0)  -->
<svg version="1.1" id="Layer_1" xmlns="http://www.w3.org/2000/svg" xmlns:xlink="http://www.w3.org/1999/xlink" x="0px" y="0px"
	 viewBox="0 0 925 650" style="enable-background:new 0 0 925 650;" xml:space="preserve">
<style type="text/css">
	.st0{fill:#2D3F50;}
	.st1{font-family:'DMSans-Regular','DM Sans',sans-serif;}
	.st2{font-size:32px;}
	.st3{fill:#BCBCBB;}
	.st4{fill:#527EA3;}
	.st5{fill:#F28F2A;}
	.st6{fill:#E05859;}
	.st7{fill:#76B7B3;}
	.st8{fill:#5AA14E;}
	.st9{fill:#EDC94A;}
	.st10{fill:#B576A3;}
	.st11{fill:#F597A8;}
	.st12{font-size:24px;}
	.st13{font-size:21px;}
	.st14{fill:#010101;}
	.st15{font-size:18px;}
	.st16{fill:none;stroke:#2D3F50;stroke-width:0.9114;}
</style>
<g>
	<text transform="matrix(1 0 0 1 17.6814 42.5595)" class="st0 st1 st2">Cumulative cases worldwide</text>
	<g transform="translate(90,10)">
		<path class="st3" d="M21.1,584.9l3.6,0l3.6,0l3.6,0l3.6,0l3.6,0l3.6,0l3.6-0.1l3.6,0l3.6,0l3.6,0l3.6,0l3.6-0.1l3.6-0.1l3.6-0.1
			l3.6-0.1l3.6-0.1l3.6-0.1l3.6-0.1l3.6-0.1l3.6-0.1l3.6,0l3.6,0l3.6-0.3l3.6-0.1l3.6,0l3.6,0l3.6,0l3.6,0l3.6,0l3.6,0l3.6,0l3.6,0
			l3.6,0l3.6,0l3.6,0l3.6,0l3.6,0l3.6,0l3.6,0l3.6,0l3.6,0l3.6-0.1l3.6,0l3.6-0.1l3.6-0.1l3.6-0.1l3.6-0.1l3.5-0.1l3.6-0.1l3.6-0.1
			l3.6-0.1l3.6-0.3l3.6-0.2l3.6-0.2l3.6-0.3l3.6-0.3l3.6-0.4l3.6-0.5l3.6-0.6l3.6-0.7l3.6-0.7l3.6-0.8l3.6-0.8l3.6-1l3.6-1.2
			l3.6-1.3l3.6-1.4l3.6-1.2l3.6-1.3l3.6-1.5l3.6-1.6l3.6-1.6l3.6-1.7l3.6-2.1l3.6-1.5l3.6-1.5l3.6-1.7l3.6-1.7l3.6-1.8l3.6-1.9
			l3.6-1.7l3.6-1.5l3.6-1.4l3.6-1.2l3.6-1.6l3.6-2l3.6-1.8l3.6-1.5l3.6-1.7l3.6-1.5l3.6-1.5l3.6-1.5l3.6-1.8l3.6-2.1l3.6-1.8
			l3.6-1.5l3.6-1.4l3.6-1.5l3.6-1.6l3.6-1.3l3.6-1.8l3.6-1.7l3.6-1.6l3.6-1.5l3.6-1.6l3.6-1.9l3.6-1.8l3.6-1.9l3.6-1.7l3.6-1.6
			l3.6-1.5l3.6-1.7l3.6-1.7l3.6-1.9l3.6-2.1l3.6-1.8l3.6-1.6l3.6-1.8l3.6-1.9l3.6-2l3.6-2.2l3.6-2.2l3.6-2l3.6-2l3.6-1.8l3.6-1.9
			l3.6-2.1l3.6-2.4l3.6-2.3l3.6-2.7l3.6-2.2l3.6-2l3.6-2.4l3.6-2.5l3.6-2.5l3.6-2.8l3.6-2.6l3.6-2.3l3.6-2.2l3.6-2.5l3.6-2.4
			l3.6-3.1l3.6-2.4l3.6-2.7l3.6-2.7l3.6-2.7l3.6-2.8l3.6-3.6l3.6-2.8l3.6-3.6l3.6-2.5l3.6-3.3l3.6-2.9l3.6-3.3l3.6-3.4l3.6-3.6
			l3.6-3.9l3.6-3.6l3.6-3.4l3.6-3.1l3.6-3.6l3.6-4.4l3.6-3.6l3.6-4.2l3.6-4l3.6-3.6l3.6-3.4l3.6-4.1l3.6-4.3l3.6-4.5l3.6-4.7
			l3.6-4.4l3.6-3.9l3.6-4l3.6-4.4l3.6-4.7l3.6-5l3.6-5l3.6-4.8l3.6-4.3l3.6-4l3.6-4.9l3.6-5.7l3.6-5.7l3.6-5.7l3.6-5.2l3.6-4.1
			l3.6-4.8l3.6-4.1l3.6-6.7l3.6-5.7l3.6-5.9l3.6-5l3.6-4.7l3.6-4.1l3.6-5.1l3.6-5.5l3.6-5.7l3.6-5.7l3.6-5.2l3.6-4.6l3.6-4.6
			l3.6-5.3l3.6-5.8l3.6-5.6l3.6-6l3.6-5.1l3.6-4.3l3.6-4.3l3.6-5.1l3.6-5.5l3.6-5.4l3.6-5.5l3.6-5.2l3.6-4.3l3.6-4.6l3.6-4.9
			l3.6-5.8l3.6-5.6l3.6-5.7l3.6-5.2l0,0l-3.6,5.2l-3.6,5.7l-3.6,5.6l-3.6,5.8l-3.6,4.9l-3.6,4.6l-3.6,4.3l-3.6,5.2l-3.6,5.5
			l-3.6,5.4l-3.6,5.5l-3.6,5.1l-3.6,4.3l-3.6,4.3l-3.6,5.1l-3.6,6l-3.6,5.6l-3.6,5.8l-3.6,5.3l-3.6,4.6l-3.6,4.6l-3.6,5.2l-3.6,5.7
			l-3.6,5.7l-3.6,5.5l-3.6,5.1l-3.6,4.1l-3.6,4.7l-3.6,5l-3.6,5.9l-3.6,5.7l-3.6,6.7l-3.6,4.1l-3.6,4.8l-3.6,4.1l-3.6,5.2l-3.6,5.7
			l-3.6,5.7l-3.6,5.7l-3.6,4.9l-3.6,4l-3.6,4.3l-3.6,4.8l-3.6,5l-3.6,5l-3.6,4.7l-3.6,4.4l-3.6,4l-3.6,3.9l-3.6,4.4l-3.6,4.7
			l-3.6,4.5l-3.6,4.3l-3.6,4.1l-3.6,3.4l-3.6,3.6l-3.6,4l-3.6,4.2l-3.6,3.6l-3.6,4.4l-3.6,3.6l-3.6,3.1l-3.6,3.4l-3.6,3.6l-3.6,3.9
			l-3.6,3.6l-3.6,3.4l-3.6,3.3l-3.6,2.9l-3.6,3.3l-3.6,2.5l-3.6,3.6l-3.6,2.8l-3.6,3.6l-3.6,2.8l-3.6,2.7l-3.6,2.7l-3.6,2.7
			l-3.6,2.4l-3.6,3.1l-3.6,2.4l-3.6,2.5l-3.6,2.2l-3.6,2.3l-3.6,2.6l-3.6,2.8l-3.6,2.5l-3.6,2.5l-3.6,2.4l-3.6,2l-3.6,2.2l-3.6,2.7
			l-3.6,2.3l-3.6,2.4l-3.6,2.1l-3.6,1.9l-3.6,1.8l-3.6,2l-3.6,2l-3.6,2.2l-3.6,2.2l-3.6,2l-3.6,1.9l-3.6,1.8l-3.6,1.6l-3.6,1.8
			l-3.6,2.1l-3.6,1.9l-3.6,1.7l-3.6,1.7l-3.6,1.5l-3.6,1.6l-3.6,1.7l-3.6,1.9l-3.6,1.8l-3.6,1.9l-3.6,1.6l-3.6,1.5l-3.6,1.6
			l-3.6,1.7l-3.6,1.8l-3.6,1.3l-3.6,1.6l-3.6,1.5l-3.6,1.4l-3.6,1.5l-3.6,1.8l-3.6,2.1l-3.6,1.8l-3.6,1.5l-3.6,1.5l-3.6,1.5
			l-3.6,1.7l-3.6,1.5l-3.6,1.8l-3.6,2l-3.6,1.6l-3.6,1.2l-3.6,1.4l-3.6,1.5l-3.6,1.7l-3.6,1.9l-3.6,1.8l-3.6,1.7l-3.6,1.7l-3.6,1.5
			l-3.6,1.5l-3.6,2.1l-3.6,1.7l-3.6,1.6l-3.6,1.6l-3.6,1.5l-3.6,1.3l-3.6,1.2l-3.6,1.4l-3.6,1.3l-3.6,1.2l-3.6,1l-3.6,0.8l-3.6,0.8
			l-3.6,0.7l-3.6,0.7l-3.6,0.6l-3.6,0.5l-3.6,0.4l-3.6,0.3l-3.6,0.3l-3.6,0.2l-3.6,0.2l-3.6,0.3l-3.6,0.1l-3.6,0.1l-3.6,0.1
			l-3.5,0.1l-3.6,0.1l-3.6,0.1l-3.6,0.1l-3.6,0.1l-3.6,0l-3.6,0.1l-3.6,0l-3.6,0l-3.6,0l-3.6,0l-3.6,0l-3.6,0l-3.6,0l-3.6,0l-3.6,0
			l-3.6,0l-3.6,0l-3.6,0l-3.6,0l-3.6,0l-3.6,0l-3.6,0l-3.6,0l-3.6,0.1l-3.6,0.3l-3.6,0l-3.6,0l-3.6,0.1l-3.6,0.1l-3.6,0.1l-3.6,0.1
			l-3.6,0.1l-3.6,0.1l-3.6,0.1l-3.6,0.1l-3.6,0.1l-3.6,0l-3.6,0l-3.6,0l-3.6,0l-3.6,0.1l-3.6,0l-3.6,0l-3.6,0l-3.6,0l-3.6,0
			L21.1,584.9z"/>
		<path class="st4" d="M21.1,584.9l3.6,0l3.6,0l3.6,0l3.6,0l3.6,0l3.6,0l3.6-0.1l3.6,0l3.6,0l3.6,0l3.6,0l3.6-0.1l3.6-0.1l3.6-0.1
			l3.6-0.1l3.6-0.1l3.6-0.1l3.6-0.1l3.6-0.1l3.6-0.1l3.6,0l3.6,0l3.6-0.3l3.6-0.1l3.6,0l3.6,0l3.6,0l3.6,0l3.6,0l3.6,0l3.6,0l3.6,0
			l3.6,0l3.6,0l3.6,0l3.6,0l3.6,0l3.6,0l3.6,0l3.6,0l3.6,0l3.6-0.1l3.6,0l3.6-0.1l3.6-0.1l3.6-0.1l3.6-0.1l3.5-0.1l3.6-0.1l3.6-0.1
			l3.6-0.1l3.6-0.3l3.6-0.2l3.6-0.2l3.6-0.3l3.6-0.3l3.6-0.4l3.6-0.5l3.6-0.6l3.6-0.7l3.6-0.7l3.6-0.8l3.6-0.8l3.6-1l3.6-1.2
			l3.6-1.3l3.6-1.4l3.6-1.2l3.6-1.3l3.6-1.5l3.6-1.6l3.6-1.6l3.6-1.7l3.6-2.1l3.6-1.5l3.6-1.5l3.6-1.7l3.6-1.7l3.6-1.8l3.6-1.9
			l3.6-1.7l3.6-1.5l3.6-1.4l3.6-1.2l3.6-1.6l3.6-2l3.6-1.8l3.6-1.5l3.6-1.7l3.6-1.5l3.6-1.5l3.6-1.5l3.6-1.8l3.6-2.1l3.6-1.8
			l3.6-1.5l3.6-1.4l3.6-1.5l3.6-1.6l3.6-1.3l3.6-1.8l3.6-1.7l3.6-1.6l3.6-1.5l3.6-1.6l3.6-1.9l3.6-1.8l3.6-1.9l3.6-1.7l3.6-1.6
			l3.6-1.5l3.6-1.7l3.6-1.7l3.6-1.9l3.6-2.1l3.6-1.8l3.6-1.6l3.6-1.8l3.6-1.9l3.6-2l3.6-2.2l3.6-2.2l3.6-2l3.6-2l3.6-1.8l3.6-1.9
			l3.6-2.1l3.6-2.4l3.6-2.3l3.6-2.7l3.6-2.2l3.6-2l3.6-2.4l3.6-2.5l3.6-2.5l3.6-2.8l3.6-2.6l3.6-2.3l3.6-2.2l3.6-2.5l3.6-2.4
			l3.6-3.1l3.6-2.4l3.6-2.7l3.6-2.7l3.6-2.7l3.6-2.8l3.6-3.6l3.6-2.8l3.6-3.6l3.6-2.5l3.6-3.3l3.6-2.9l3.6-3.3l3.6-3.4l3.6-3.6
			l3.6-3.9l3.6-3.6l3.6-3.4l3.6-3.1l3.6-3.6l3.6-4.4l3.6-3.6l3.6-4.2l3.6-4l3.6-3.6l3.6-3.4l3.6-4.1l3.6-4.3l3.6-4.5l3.6-4.7
			l3.6-4.4l3.6-3.9l3.6-4l3.6-4.4l3.6-4.7l3.6-5l3.6-5l3.6-4.8l3.6-4.3l3.6-4l3.6-4.9l3.6-5.7l3.6-5.7l3.6-5.7l3.6-5.2l3.6-4.1
			l3.6-4.8l3.6-4.1l3.6-6.7l3.6-5.7l3.6-5.9l3.6-5l3.6-4.7l3.6-4.1l3.6-5.1l3.6-5.5l3.6-5.7l3.6-5.7l3.6-5.2l3.6-4.6l3.6-4.6
			l3.6-5.3l3.6-5.8l3.6-5.6l3.6-6l3.6-5.1l3.6-4.3l3.6-4.3l3.6-5.1l3.6-5.5l3.6-5.4l3.6-5.5l3.6-5.2l3.6-4.3l3.6-4.6l3.6-4.9
			l3.6-5.8l3.6-5.6l3.6-5.7l3.6-5.2v13.4l-3.6,5.1l-3.6,5.5l-3.6,5.4l-3.6,5.6l-3.6,4.8l-3.6,4.5l-3.6,4.2l-3.6,5l-3.6,5.3l-3.6,5.3
			l-3.6,5.3l-3.6,5l-3.6,4.2l-3.6,4.2l-3.6,5l-3.6,5.8l-3.6,5.5l-3.6,5.6l-3.6,5.1l-3.6,4.3l-3.6,4.4l-3.6,5.1l-3.6,5.6l-3.6,5.6
			l-3.6,5.3l-3.6,4.9l-3.6,4l-3.6,4.5l-3.6,4.9l-3.6,5.7l-3.6,5.5l-3.6,6.6l-3.6,4l-3.6,4.7l-3.6,4l-3.6,5.1l-3.6,5.6l-3.6,5.6
			l-3.6,5.6l-3.6,4.8l-3.6,3.9l-3.6,4.2l-3.6,4.7l-3.6,4.9l-3.6,4.9l-3.6,4.6l-3.6,4.3l-3.6,3.9l-3.6,3.8l-3.6,4.3l-3.6,4.6
			l-3.6,4.4l-3.6,4.2l-3.6,4l-3.6,3.4l-3.6,3.5l-3.6,3.9l-3.6,4.1l-3.6,3.6l-3.6,4.3l-3.6,3.5l-3.6,3.1l-3.6,3.3l-3.6,3.5l-3.6,3.8
			l-3.6,3.6l-3.6,3.4l-3.6,3.3l-3.6,2.8l-3.6,3.3l-3.6,2.4l-3.6,3.6l-3.6,2.8l-3.6,3.5l-3.6,2.8l-3.6,2.7l-3.6,2.7l-3.6,2.7
			l-3.6,2.3l-3.6,3.1l-3.6,2.4l-3.6,2.5l-3.6,2.2l-3.6,2.3l-3.6,2.5l-3.6,2.7l-3.6,2.5l-3.6,2.4l-3.6,2.4l-3.6,2l-3.6,2.2l-3.6,2.7
			l-3.6,2.3l-3.6,2.3l-3.6,2l-3.6,1.9l-3.6,1.7l-3.6,1.9l-3.6,2l-3.6,2.2l-3.6,2.1l-3.6,2l-3.6,1.9l-3.6,1.8l-3.6,1.6l-3.6,1.8
			l-3.6,2l-3.6,1.9l-3.6,1.7l-3.6,1.7l-3.6,1.5l-3.6,1.6l-3.6,1.7l-3.6,1.9l-3.6,1.8l-3.6,1.8l-3.6,1.6l-3.6,1.5l-3.6,1.6l-3.6,1.7
			l-3.6,1.7l-3.6,1.3l-3.6,1.5l-3.6,1.5l-3.6,1.4l-3.6,1.5l-3.6,1.7l-3.6,2l-3.6,1.8l-3.6,1.5l-3.6,1.5l-3.6,1.4l-3.6,1.6l-3.6,1.4
			l-3.6,1.7l-3.6,1.9l-3.6,1.6l-3.6,1.1l-3.6,1.4l-3.6,1.4l-3.6,1.6l-3.6,1.9l-3.6,1.7l-3.6,1.7l-3.6,1.6l-3.6,1.5l-3.6,1.4
			l-3.6,2.1l-3.6,1.6l-3.6,1.6l-3.6,1.5l-3.6,1.5l-3.6,1.2l-3.6,1.2l-3.6,1.4l-3.6,1.3l-3.6,1.2l-3.6,1l-3.6,0.8l-3.6,0.8l-3.6,0.6
			l-3.6,0.6l-3.6,0.6l-3.6,0.5l-3.6,0.4l-3.6,0.3l-3.6,0.3l-3.6,0.2l-3.6,0.2l-3.6,0.3l-3.6,0l-3.6,0.1l-3.6,0.1l-3.5,0.1l-3.6,0.1
			l-3.6,0.1l-3.6,0.1l-3.6,0l-3.6,0l-3.6,0l-3.6,0l-3.6,0l-3.6,0l-3.6,0l-3.6,0l-3.6,0l-3.6,0l-3.6,0l-3.6,0l-3.6,0l-3.6,0l-3.6,0
			l-3.6,0l-3.6,0l-3.6,0l-3.6,0l-3.6,0l-3.6,0h-3.6l-3.6,0h-3.6l-3.6,0l-3.6,0l-3.6,0l-3.6,0h-3.6l-3.6,0h-3.6l-3.6,0l-3.6,0l-3.6,0
			l-3.6,0l-3.6,0l-3.6,0l-3.6,0l-3.6,0l-3.6,0l-3.6,0l-3.6,0h-3.6H21.1z"/>
		<path class="st5" d="M21.1,584.9h3.6h3.6l3.6,0l3.6,0l3.6,0l3.6,0l3.6,0l3.6,0l3.6,0l3.6,0l3.6,0l3.6,0l3.6,0H72l3.6,0h3.6l3.6,0
			l3.6,0l3.6,0l3.6,0h3.6l3.6,0h3.6l3.6,0l3.6,0l3.6,0l3.6,0l3.6,0l3.6,0l3.6,0l3.6,0l3.6,0l3.6,0l3.6,0l3.6,0l3.6,0l3.6,0l3.6,0
			l3.6,0l3.6,0l3.6,0l3.6,0l3.6,0l3.6,0l3.6-0.1l3.6-0.1l3.6-0.1l3.5-0.1l3.6-0.1l3.6-0.1l3.6,0l3.6-0.3l3.6-0.2l3.6-0.2l3.6-0.3
			l3.6-0.3l3.6-0.4l3.6-0.5l3.6-0.6l3.6-0.6l3.6-0.6l3.6-0.8l3.6-0.8l3.6-1l3.6-1.2l3.6-1.3l3.6-1.4l3.6-1.2l3.6-1.2l3.6-1.5
			l3.6-1.5l3.6-1.6l3.6-1.6l3.6-2.1l3.6-1.4l3.6-1.5l3.6-1.6l3.6-1.7l3.6-1.7l3.6-1.9l3.6-1.6l3.6-1.4l3.6-1.4l3.6-1.1l3.6-1.6
			l3.6-1.9l3.6-1.7l3.6-1.4l3.6-1.6l3.6-1.4l3.6-1.5l3.6-1.5l3.6-1.8l3.6-2l3.6-1.7l3.6-1.5l3.6-1.4l3.6-1.5l3.6-1.5l3.6-1.3
			l3.6-1.7l3.6-1.7l3.6-1.6l3.6-1.5l3.6-1.6l3.6-1.8l3.6-1.8l3.6-1.9l3.6-1.7l3.6-1.6l3.6-1.5l3.6-1.7l3.6-1.7l3.6-1.9l3.6-2
			l3.6-1.8l3.6-1.6l3.6-1.8l3.6-1.9l3.6-2l3.6-2.1l3.6-2.2l3.6-2l3.6-1.9l3.6-1.7l3.6-1.9l3.6-2l3.6-2.3l3.6-2.3l3.6-2.7l3.6-2.2
			l3.6-2l3.6-2.4l3.6-2.4l3.6-2.5l3.6-2.7l3.6-2.5l3.6-2.3l3.6-2.2l3.6-2.5l3.6-2.4l3.6-3.1l3.6-2.3l3.6-2.7l3.6-2.7l3.6-2.7
			l3.6-2.8l3.6-3.5l3.6-2.8l3.6-3.6l3.6-2.4l3.6-3.3l3.6-2.8l3.6-3.3l3.6-3.4l3.6-3.6l3.6-3.8l3.6-3.5l3.6-3.3l3.6-3.1l3.6-3.5
			l3.6-4.3l3.6-3.6l3.6-4.1l3.6-3.9l3.6-3.5l3.6-3.4l3.6-4l3.6-4.2l3.6-4.4l3.6-4.6l3.6-4.3l3.6-3.8l3.6-3.9l3.6-4.3l3.6-4.6
			l3.6-4.9l3.6-4.9l3.6-4.7l3.6-4.2l3.6-3.9l3.6-4.8l3.6-5.6l3.6-5.6l3.6-5.6l3.6-5.1l3.6-4l3.6-4.7l3.6-4l3.6-6.6l3.6-5.5l3.6-5.7
			l3.6-4.9l3.6-4.5l3.6-4l3.6-4.9l3.6-5.3l3.6-5.6l3.6-5.6l3.6-5.1l3.6-4.4l3.6-4.3l3.6-5.1l3.6-5.6l3.6-5.5l3.6-5.8l3.6-5l3.6-4.2
			l3.6-4.2l3.6-5l3.6-5.3l3.6-5.3l3.6-5.3l3.6-5l3.6-4.2l3.6-4.5l3.6-4.8l3.6-5.6l3.6-5.4l3.6-5.5l3.6-5.1v123.6l-3.6,4.2l-3.6,4.6
			l-3.6,4.5l-3.6,4.7l-3.6,4l-3.6,3.6l-3.6,3.6l-3.6,4.1l-3.6,4.3L788,258l-3.6,4.4l-3.6,4.1l-3.6,3.4l-3.6,3.3l-3.6,3.9l-3.6,4.6
			l-3.6,4.3l-3.6,4.5l-3.6,4.1l-3.6,3.4l-3.6,3.4l-3.6,3.9l-3.6,4.3l-3.6,4.4l-3.6,4.2l-3.6,3.8l-3.6,3l-3.6,3.5l-3.6,3.7l-3.6,4.3
			l-3.6,4.1l-3.6,5.2l-3.6,2.7l-3.6,3.5l-3.6,2.9l-3.6,3.7l-3.6,4.1l-3.6,4.2l-3.6,4.2l-3.6,3.4l-3.6,2.7l-3.6,3l-3.6,3.4l-3.6,3.5
			l-3.6,3.4l-3.6,3.2l-3.6,3l-3.6,2.6l-3.6,2.6l-3.6,3.1l-3.6,3.2l-3.6,3.2l-3.6,3l-3.6,2.9l-3.6,2.4l-3.6,2.6l-3.6,2.9l-3.6,3
			l-3.6,2.4l-3.6,3.3l-3.6,2.5l-3.6,2.2l-3.6,2.5l-3.6,2.7l-3.6,2.9l-3.6,2.8l-3.6,2.6l-3.6,2.6l-3.6,2.2l-3.6,2.7l-3.6,1.8
			l-3.6,2.9l-3.6,2.2l-3.6,3l-3.6,2.3l-3.6,2.3l-3.6,2.3l-3.6,2.1l-3.6,1.8l-3.6,2.6l-3.6,1.9l-3.6,2.1l-3.6,1.8l-3.6,1.9l-3.6,2
			l-3.6,2.1l-3.6,2l-3.6,2l-3.6,2l-3.6,1.5l-3.6,1.7l-3.6,2.2l-3.6,1.8l-3.6,1.9l-3.6,1.6l-3.6,1.5l-3.6,1.3l-3.6,1.5l-3.6,1.5
			l-3.6,1.7l-3.6,1.6l-3.6,1.5l-3.6,1.5l-3.6,1.3l-3.6,1.2l-3.6,1.3l-3.6,1.5l-3.6,1.3l-3.6,1.2l-3.6,1.2l-3.6,1.1l-3.6,1.1
			l-3.6,1.2l-3.6,1.3l-3.6,1.2l-3.6,1.3l-3.6,1.1l-3.6,1l-3.6,1l-3.6,1l-3.6,1l-3.6,0.6l-3.6,1l-3.6,1l-3.6,0.9l-3.6,0.9l-3.6,1
			l-3.6,1.3l-3.6,1l-3.6,0.9l-3.6,0.9l-3.6,0.8l-3.6,1.1l-3.6,0.8l-3.6,1l-3.6,1.2l-3.6,1l-3.6,0.6l-3.6,0.8l-3.6,0.9l-3.6,1
			l-3.6,1.2l-3.6,1l-3.6,1l-3.6,1l-3.6,0.8l-3.6,0.9l-3.6,1.3l-3.6,1l-3.6,1l-3.6,1l-3.6,0.9l-3.6,0.8l-3.6,0.8l-3.6,0.9l-3.6,0.9
			l-3.6,0.8l-3.6,0.7l-3.6,0.6l-3.6,0.6l-3.6,0.5l-3.6,0.5l-3.6,0.5l-3.6,0.4l-3.6,0.3l-3.6,0.3l-3.6,0.3l-3.6,0.2l-3.6,0.2
			l-3.6,0.3l-3.6,0l-3.6,0.1l-3.6,0.1l-3.5,0.1l-3.6,0.1l-3.6,0.1l-3.6,0.1l-3.6,0l-3.6,0l-3.6,0l-3.6,0l-3.6,0l-3.6,0l-3.6,0
			l-3.6,0l-3.6,0l-3.6,0l-3.6,0l-3.6,0l-3.6,0l-3.6,0l-3.6,0l-3.6,0l-3.6,0l-3.6,0l-3.6,0l-3.6,0l-3.6,0h-3.6l-3.6,0l-3.6,0l-3.6,0
			l-3.6,0l-3.6,0l-3.6,0h-3.6H72l-3.6,0l-3.6,0l-3.6,0l-3.6,0l-3.6,0h-3.6l-3.6,0l-3.6,0l-3.6,0h-3.6h-3.6l-3.6,0h-3.6H21.1z"/>
		<path class="st6" d="M21.1,584.9h3.6h3.6l3.6,0h3.6h3.6l3.6,0l3.6,0l3.6,0h3.6l3.6,0l3.6,0l3.6,0l3.6,0l3.6,0h3.6h3.6l3.6,0l3.6,0
			l3.6,0l3.6,0l3.6,0l3.6,0h3.6l3.6,0l3.6,0l3.6,0l3.6,0l3.6,0l3.6,0l3.6,0l3.6,0l3.6,0l3.6,0l3.6,0l3.6,0l3.6,0l3.6,0l3.6,0l3.6,0
			l3.6,0l3.6,0l3.6,0l3.6,0l3.6,0l3.6-0.1l3.6-0.1l3.6-0.1l3.5-0.1l3.6-0.1l3.6-0.1l3.6,0l3.6-0.3l3.6-0.2l3.6-0.2l3.6-0.3l3.6-0.3
			l3.6-0.3l3.6-0.4l3.6-0.5l3.6-0.5l3.6-0.5l3.6-0.6l3.6-0.6l3.6-0.7l3.6-0.8l3.6-0.9l3.6-0.9l3.6-0.8l3.6-0.8l3.6-0.9l3.6-1l3.6-1
			l3.6-1l3.6-1.3l3.6-0.9l3.6-0.8l3.6-1l3.6-1l3.6-1l3.6-1.2l3.6-1l3.6-0.9l3.6-0.8l3.6-0.6l3.6-1l3.6-1.2l3.6-1l3.6-0.8l3.6-1.1
			l3.6-0.8l3.6-0.9l3.6-0.9l3.6-1l3.6-1.3l3.6-1l3.6-0.9l3.6-0.9l3.6-1l3.6-1l3.6-0.6l3.6-1l3.6-1l3.6-1l3.6-1l3.6-1.1l3.6-1.3
			l3.6-1.2l3.6-1.3l3.6-1.2l3.6-1.1l3.6-1.1l3.6-1.2l3.6-1.2l3.6-1.3l3.6-1.5l3.6-1.3l3.6-1.2l3.6-1.3l3.6-1.5l3.6-1.5l3.6-1.6
			l3.6-1.7l3.6-1.5l3.6-1.5l3.6-1.3l3.6-1.5l3.6-1.6l3.6-1.9l3.6-1.8l3.6-2.2l3.6-1.7l3.6-1.5l3.6-2l3.6-2l3.6-2l3.6-2.1l3.6-2
			l3.6-1.9l3.6-1.8l3.6-2.1l3.6-1.9l3.6-2.6l3.6-1.8l3.6-2.1l3.6-2.3l3.6-2.3l3.6-2.3l3.6-3l3.6-2.2l3.6-2.9l3.6-1.8l3.6-2.7
			l3.6-2.2l3.6-2.6l3.6-2.6l3.6-2.8l3.6-2.9l3.6-2.7l3.6-2.5l3.6-2.2l3.6-2.5l3.6-3.3l3.6-2.4l3.6-3l3.6-2.9l3.6-2.6l3.6-2.4
			l3.6-2.9l3.6-3l3.6-3.2l3.6-3.2l3.6-3.1l3.6-2.6l3.6-2.6l3.6-3l3.6-3.2l3.6-3.4l3.6-3.5l3.6-3.4l3.6-3l3.6-2.7l3.6-3.4l3.6-4.2
			l3.6-4.2l3.6-4.1l3.6-3.7l3.6-2.9l3.6-3.5l3.6-2.7l3.6-5.2l3.6-4.1l3.6-4.3l3.6-3.7l3.6-3.5l3.6-3l3.6-3.8l3.6-4.2l3.6-4.4
			l3.6-4.3l3.6-3.9l3.6-3.4l3.6-3.4l3.6-4.1l3.6-4.5l3.6-4.3l3.6-4.6l3.6-3.9l3.6-3.3l3.6-3.4l3.6-4.1l3.6-4.4l3.6-4.3l3.6-4.3
			l3.6-4.1l3.6-3.6l3.6-3.6l3.6-4l3.6-4.7l3.6-4.5l3.6-4.6l3.6-4.2v20.5l-3.6,4l-3.6,4.5l-3.6,4.4l-3.6,4.6l-3.6,3.9l-3.6,3.5
			l-3.6,3.4l-3.6,3.9l-3.6,4.1l-3.6,4.2l-3.6,4.2l-3.6,4l-3.6,3.3l-3.6,3.1l-3.6,3.7l-3.6,4.4l-3.6,4.2l-3.6,4.4l-3.6,3.9l-3.6,3.2
			l-3.6,3.2l-3.6,3.7l-3.6,4.1l-3.6,4.1l-3.6,4l-3.6,3.7l-3.6,2.8l-3.6,3.2l-3.6,3.4l-3.6,4l-3.6,3.8l-3.6,4.9l-3.6,2.4l-3.6,3.3
			l-3.6,2.6l-3.6,3.4l-3.6,3.7l-3.6,3.8l-3.6,3.8l-3.6,3.2l-3.6,2.4l-3.6,2.6l-3.6,3l-3.6,3.1l-3.6,3l-3.6,2.9l-3.6,2.7l-3.6,2.4
			l-3.6,2.3l-3.6,2.8l-3.6,2.9l-3.6,2.9l-3.6,2.7l-3.6,2.6l-3.6,2.2l-3.6,2.4l-3.6,2.6l-3.6,2.7l-3.6,2.2l-3.6,3.1l-3.6,2.3
			l-3.6,2.1l-3.6,2.3l-3.6,2.5l-3.6,2.7l-3.6,2.6l-3.6,2.5l-3.6,2.4l-3.6,2.1l-3.6,2.6l-3.6,1.6l-3.6,2.8l-3.6,2.1l-3.6,2.9
			l-3.6,2.2l-3.6,2.1l-3.6,2.1l-3.6,2l-3.6,1.7l-3.6,2.5l-3.6,1.8l-3.6,2l-3.6,1.7l-3.6,1.8l-3.6,1.9l-3.6,2l-3.6,1.9l-3.6,1.9
			l-3.6,1.9l-3.6,1.5l-3.6,1.7l-3.6,2.1l-3.6,1.7l-3.6,1.8l-3.6,1.6l-3.6,1.4l-3.6,1.3l-3.6,1.4l-3.6,1.5l-3.6,1.6l-3.6,1.5
			l-3.6,1.4l-3.6,1.4l-3.6,1.3l-3.6,1.1l-3.6,1.2l-3.6,1.4l-3.6,1.3l-3.6,1.2l-3.6,1.2l-3.6,1.1l-3.6,1.1l-3.6,1.1L410,538l-3.6,1.2
			l-3.6,1.3l-3.6,1l-3.6,1l-3.6,1l-3.6,1l-3.6,1l-3.6,0.6l-3.6,0.9l-3.6,0.9l-3.6,0.9l-3.6,0.9l-3.6,1l-3.6,1.2l-3.6,1l-3.6,0.8
			l-3.6,0.9l-3.6,0.8l-3.6,1.1l-3.6,0.8l-3.6,1l-3.6,1.2l-3.6,1l-3.6,0.6l-3.6,0.8l-3.6,0.9l-3.6,0.9l-3.6,1.2l-3.6,1l-3.6,1l-3.6,1
			l-3.6,0.8l-3.6,0.9l-3.6,1.3l-3.6,1l-3.6,0.9l-3.6,1l-3.6,0.9l-3.6,0.8l-3.6,0.8l-3.6,0.9l-3.6,0.9l-3.6,0.8l-3.6,0.7l-3.6,0.6
			l-3.6,0.6l-3.6,0.5l-3.6,0.5l-3.6,0.5l-3.6,0.4l-3.6,0.3l-3.6,0.3l-3.6,0.3l-3.6,0.2l-3.6,0.2l-3.6,0.3l-3.6,0l-3.6,0.1l-3.6,0.1
			l-3.5,0.1l-3.6,0.1l-3.6,0.1l-3.6,0.1l-3.6,0l-3.6,0l-3.6,0l-3.6,0l-3.6,0l-3.6,0l-3.6,0l-3.6,0l-3.6,0l-3.6,0l-3.6,0l-3.6,0
			l-3.6,0l-3.6,0l-3.6,0l-3.6,0l-3.6,0l-3.6,0l-3.6,0l-3.6,0l-3.6,0h-3.6l-3.6,0l-3.6,0l-3.6,0l-3.6,0l-3.6,0l-3.6,0h-3.6H72l-3.6,0
			l-3.6,0l-3.6,0l-3.6,0l-3.6,0h-3.6l-3.6,0l-3.6,0l-3.6,0h-3.6h-3.6l-3.6,0h-3.6H21.1z"/>
		<path class="st7" d="M21.1,584.9h3.6h3.6l3.6,0h3.6h3.6l3.6,0l3.6,0l3.6,0h3.6l3.6,0l3.6,0l3.6,0l3.6,0l3.6,0h3.6h3.6l3.6,0l3.6,0
			l3.6,0l3.6,0l3.6,0l3.6,0h3.6l3.6,0l3.6,0l3.6,0l3.6,0l3.6,0l3.6,0l3.6,0l3.6,0l3.6,0l3.6,0l3.6,0l3.6,0l3.6,0l3.6,0l3.6,0l3.6,0
			l3.6,0l3.6,0l3.6,0l3.6,0l3.6,0l3.6-0.1l3.6-0.1l3.6-0.1l3.5-0.1l3.6-0.1l3.6-0.1l3.6,0l3.6-0.3l3.6-0.2l3.6-0.2l3.6-0.3l3.6-0.3
			l3.6-0.3l3.6-0.4l3.6-0.5l3.6-0.5l3.6-0.5l3.6-0.6l3.6-0.6l3.6-0.7l3.6-0.8l3.6-0.9l3.6-0.9l3.6-0.8l3.6-0.8l3.6-0.9l3.6-1
			l3.6-0.9l3.6-1l3.6-1.3l3.6-0.9l3.6-0.8l3.6-1l3.6-1l3.6-1l3.6-1.2l3.6-0.9l3.6-0.9l3.6-0.8l3.6-0.6l3.6-1l3.6-1.2l3.6-1l3.6-0.8
			l3.6-1.1l3.6-0.8l3.6-0.9l3.6-0.8l3.6-1l3.6-1.2l3.6-1l3.6-0.9l3.6-0.9l3.6-0.9l3.6-0.9l3.6-0.6l3.6-1l3.6-1l3.6-1l3.6-1l3.6-1
			l3.6-1.3l3.6-1.2l3.6-1.2l3.6-1.1l3.6-1.1l3.6-1.1l3.6-1.2l3.6-1.2l3.6-1.3l3.6-1.4l3.6-1.2l3.6-1.1l3.6-1.3l3.6-1.4l3.6-1.4
			l3.6-1.5l3.6-1.6l3.6-1.5l3.6-1.4l3.6-1.3l3.6-1.4l3.6-1.6l3.6-1.8l3.6-1.7l3.6-2.1l3.6-1.7l3.6-1.5l3.6-1.9l3.6-1.9l3.6-1.9
			l3.6-2l3.6-1.9l3.6-1.8l3.6-1.7l3.6-2l3.6-1.8l3.6-2.5l3.6-1.7l3.6-2l3.6-2.1l3.6-2.1l3.6-2.2l3.6-2.9l3.6-2.1l3.6-2.8l3.6-1.6
			l3.6-2.6l3.6-2.1l3.6-2.4l3.6-2.5l3.6-2.6l3.6-2.7l3.6-2.5l3.6-2.3l3.6-2.1l3.6-2.3l3.6-3.1l3.6-2.2l3.6-2.7l3.6-2.6l3.6-2.4
			l3.6-2.2l3.6-2.6l3.6-2.7l3.6-2.9l3.6-2.9l3.6-2.8l3.6-2.3l3.6-2.4l3.6-2.7l3.6-2.9l3.6-3l3.6-3.1l3.6-3l3.6-2.6l3.6-2.4l3.6-3.2
			l3.6-3.8l3.6-3.8l3.6-3.7l3.6-3.4l3.6-2.6l3.6-3.3l3.6-2.4l3.6-4.9l3.6-3.8l3.6-4l3.6-3.4l3.6-3.2l3.6-2.8l3.6-3.7l3.6-4l3.6-4.1
			l3.6-4.1l3.6-3.7l3.6-3.2l3.6-3.2l3.6-3.9l3.6-4.4l3.6-4.2l3.6-4.4l3.6-3.7l3.6-3.1l3.6-3.3l3.6-4l3.6-4.2l3.6-4.2l3.6-4.1
			l3.6-3.9l3.6-3.4l3.6-3.5l3.6-3.9l3.6-4.6l3.6-4.4l3.6-4.5l3.6-4v82.9l-3.6,3.6l-3.6,3.7l-3.6,3.7l-3.6,3.9l-3.6,3.3l-3.6,2.7
			l-3.6,3l-3.6,3.4l-3.6,3.2l-3.6,3.6l-3.6,3.7l-3.6,3.5l-3.6,2.5l-3.6,2.8l-3.6,3.2l-3.6,3.8l-3.6,3.7l-3.6,3.8l-3.6,3.5l-3.6,2.6
			l-3.6,2.9l-3.6,3.3l-3.6,3.5l-3.6,3.6l-3.6,3.5l-3.6,3.1l-3.6,2.3l-3.6,2.9l-3.6,3l-3.6,3.5l-3.6,3.3l-3.6,4.5l-3.6,2l-3.6,2.7
			l-3.6,2.2l-3.6,3l-3.6,3.2l-3.6,3.4l-3.6,3.3l-3.6,2.8l-3.6,2l-3.6,2.2l-3.6,2.5l-3.6,2.7l-3.6,2.6l-3.6,2.5l-3.6,2.4l-3.6,1.9
			l-3.6,2l-3.6,2.4l-3.6,2.5l-3.6,2.4l-3.6,2.4l-3.6,2.3l-3.6,1.8l-3.6,2l-3.6,2.3l-3.6,2.3l-3.6,2.4l-3.6,2.3l-3.6,2l-3.6,1.7
			l-3.6,2l-3.6,2.1l-3.6,2.3l-3.6,2.2l-3.6,2.1l-3.6,2l-3.6,1.7l-3.6,2.2l-3.6,1.2l-3.6,2.4l-3.6,1.7l-3.6,2.5l-3.6,1.8l-3.6,1.7
			l-3.6,1.7l-3.6,1.6l-3.6,1.3l-3.6,2.1l-3.6,1.5l-3.6,1.6l-3.6,1.3l-3.6,1.4l-3.6,1.6l-3.6,1.6l-3.6,1.6l-3.6,1.5l-3.6,1.6
			l-3.6,1.1l-3.6,1.3l-3.6,1.7l-3.6,1.3l-3.6,1.3l-3.6,1.2l-3.6,1l-3.6,0.9l-3.6,1.1l-3.6,1.1l-3.6,1.2l-3.6,1.1l-3.6,1.1l-3.6,1
			l-3.6,0.9l-3.6,0.7l-3.6,0.8l-3.6,0.9l-3.6,0.8l-3.6,0.8l-3.6,0.7l-3.6,0.5l-3.6,0.6l-3.6,0.6l-3.6,0.6l-3.6,0.6l-3.6,0.6
			l-3.6,0.5l-3.6,0.5l-3.6,0.5l-3.6,0.4l-3.6,0.5l-3.6,0.5l-3.6,0.4l-3.6,0.4L370,577l-3.6,0.3l-3.6,0.4l-3.6,0.6l-3.6,0.4l-3.6,0.3
			l-3.6,0.3l-3.6,0.2l-3.6,0.3l-3.6,0.3l-3.6,0.3l-3.6,0.2l-3.6,0.2l-3.6,0.2l-3.6,0.2l-3.6,0.2l-3.6,0.2l-3.6,0.2l-3.6,0.2
			l-3.6,0.2l-3.6,0.2l-3.6,0.2l-3.6,0.2l-3.6,0.2l-3.6,0.1l-3.6,0.2l-3.6,0.2l-3.6,0.2l-3.6,0.1l-3.6,0.1l-3.6,0.1l-3.6,0.1
			l-3.6,0.1l-3.6,0.1l-3.6,0.1l-3.6,0.1l-3.6,0.1l-3.6,0.1l-3.6,0l-3.6,0l-3.6,0l-3.6,0l-3.6,0l-3.6,0l-3.6,0l-3.6,0l-3.6,0l-3.6,0
			l-3.6,0l-3.5,0l-3.6,0l-3.6,0l-3.6,0l-3.6,0l-3.6,0l-3.6,0l-3.6,0l-3.6,0l-3.6,0l-3.6,0l-3.6,0l-3.6,0l-3.6,0l-3.6,0l-3.6,0
			l-3.6,0l-3.6,0l-3.6,0l-3.6,0h-3.6h-3.6H112h-3.6h-3.6h-3.6h-3.6h-3.6l-3.6,0h-3.6l-3.6,0h-3.6h-3.6H72h-3.6h-3.6l-3.6,0h-3.6
			h-3.6h-3.6l-3.6,0H43l-3.6,0h-3.6h-3.6h-3.6h-3.6H21.1z"/>
		<path class="st8" d="M21.1,584.9h3.6h3.6h3.6h3.6h3.6l3.6,0h3.6l3.6,0h3.6h3.6h3.6l3.6,0h3.6H72h3.6h3.6h3.6l3.6,0h3.6l3.6,0h3.6
			h3.6h3.6h3.6h3.6h3.6h3.6h3.6l3.6,0l3.6,0l3.6,0l3.6,0l3.6,0l3.6,0l3.6,0l3.6,0l3.6,0l3.6,0l3.6,0l3.6,0l3.6,0l3.6,0l3.6,0l3.6,0
			l3.6,0l3.6,0l3.6,0l3.5,0l3.6,0l3.6,0l3.6,0l3.6,0l3.6,0l3.6,0l3.6,0l3.6,0l3.6,0l3.6,0l3.6,0l3.6-0.1l3.6-0.1l3.6-0.1l3.6-0.1
			l3.6-0.1l3.6-0.1l3.6-0.1l3.6-0.1l3.6-0.1l3.6-0.1l3.6-0.2l3.6-0.2l3.6-0.2l3.6-0.1l3.6-0.2l3.6-0.2l3.6-0.2l3.6-0.2l3.6-0.2
			l3.6-0.2l3.6-0.2l3.6-0.2l3.6-0.2l3.6-0.2l3.6-0.2l3.6-0.2l3.6-0.2l3.6-0.3l3.6-0.3l3.6-0.3l3.6-0.2l3.6-0.3l3.6-0.3l3.6-0.4
			l3.6-0.6l3.6-0.4l3.6-0.3l3.6-0.3l3.6-0.4l3.6-0.4l3.6-0.5l3.6-0.5l3.6-0.4l3.6-0.5l3.6-0.5l3.6-0.5l3.6-0.6l3.6-0.6l3.6-0.6
			l3.6-0.6l3.6-0.6l3.6-0.5l3.6-0.7l3.6-0.8l3.6-0.8l3.6-0.9l3.6-0.8l3.6-0.7l3.6-0.9l3.6-1l3.6-1.1l3.6-1.1l3.6-1.2l3.6-1.1
			l3.6-1.1l3.6-0.9l3.6-1l3.6-1.2l3.6-1.3l3.6-1.3l3.6-1.7l3.6-1.3l3.6-1.1l3.6-1.6l3.6-1.5l3.6-1.6l3.6-1.6l3.6-1.6l3.6-1.4
			l3.6-1.3l3.6-1.6l3.6-1.5l3.6-2.1l3.6-1.3l3.6-1.6l3.6-1.7l3.6-1.7l3.6-1.8l3.6-2.5l3.6-1.7l3.6-2.4l3.6-1.2l3.6-2.2l3.6-1.7
			l3.6-2l3.6-2.1l3.6-2.2l3.6-2.3l3.6-2.1l3.6-2l3.6-1.7l3.6-2l3.6-2.3l3.6-2.4l3.6-2.3l3.6-2.3l3.6-2l3.6-1.8l3.6-2.3l3.6-2.4
			l3.6-2.4l3.6-2.5l3.6-2.4l3.6-2l3.6-1.9l3.6-2.4l3.6-2.5l3.6-2.6l3.6-2.7l3.6-2.5l3.6-2.2l3.6-2l3.6-2.8l3.6-3.3l3.6-3.4l3.6-3.2
			l3.6-3l3.6-2.2l3.6-2.7l3.6-2l3.6-4.5l3.6-3.3l3.6-3.5l3.6-3l3.6-2.9l3.6-2.3l3.6-3.1l3.6-3.5l3.6-3.6l3.6-3.5l3.6-3.3l3.6-2.9
			l3.6-2.6l3.6-3.5l3.6-3.8l3.6-3.7l3.6-3.8l3.6-3.2l3.6-2.8l3.6-2.5l3.6-3.5l3.6-3.7l3.6-3.6l3.6-3.2l3.6-3.4l3.6-3l3.6-2.7
			l3.6-3.3l3.6-3.9l3.6-3.7l3.6-3.7l3.6-3.6v34.1l-3.6,3.4l-3.6,3.4l-3.6,3.4l-3.6,3.6l-3.6,3l-3.6,2.5l-3.6,2.7l-3.6,3.2l-3.6,3
			l-3.6,3.3l-3.6,3.4l-3.6,3.2l-3.6,2.3l-3.6,2.5l-3.6,2.9l-3.6,3.5l-3.6,3.4l-3.6,3.5l-3.6,3.3l-3.6,2.4l-3.6,2.7l-3.6,3.1
			l-3.6,3.2l-3.6,3.3l-3.6,3.2l-3.6,2.9l-3.6,2.1l-3.6,2.7l-3.6,2.8l-3.6,3.2l-3.6,3l-3.6,4.2l-3.6,1.7l-3.6,2.5l-3.6,2l-3.6,2.7
			l-3.6,2.9l-3.6,3.1l-3.6,3l-3.6,2.5l-3.6,1.7l-3.6,2l-3.6,2.2l-3.6,2.4l-3.6,2.3l-3.6,2.2l-3.6,2.1l-3.6,1.6l-3.6,1.7l-3.6,2.1
			l-3.6,2.2l-3.6,2.1l-3.6,2.1l-3.6,2l-3.6,1.5l-3.6,1.7l-3.6,2l-3.6,2l-3.6,2.1l-3.6,2l-3.6,1.7l-3.6,1.4l-3.6,1.7l-3.6,1.9l-3.6,2
			l-3.6,1.9l-3.6,1.8l-3.6,1.8l-3.6,1.4l-3.6,2l-3.6,1l-3.6,2.1l-3.6,1.4l-3.6,2.2l-3.6,1.5l-3.6,1.5l-3.6,1.5l-3.6,1.4l-3.6,1
			l-3.6,1.8l-3.6,1.2l-3.6,1.4l-3.6,1.1l-3.6,1.2l-3.6,1.3l-3.6,1.4l-3.6,1.4l-3.6,1.2l-3.6,1.3l-3.6,0.9l-3.6,1.1l-3.6,1.5
			l-3.6,1.1l-3.6,1.1l-3.6,1l-3.6,0.9l-3.6,0.8l-3.6,0.9l-3.6,0.9l-3.6,0.9l-3.6,0.9l-3.6,0.9l-3.6,0.8l-3.6,0.7l-3.6,0.5l-3.6,0.6
			l-3.6,0.8l-3.6,0.6l-3.6,0.6l-3.6,0.5l-3.6,0.4l-3.6,0.4l-3.6,0.5l-3.6,0.5l-3.6,0.4l-3.6,0.5l-3.6,0.4l-3.6,0.4l-3.6,0.4
			l-3.6,0.3l-3.6,0.4l-3.6,0.4l-3.6,0.3l-3.6,0.3l-3.6,0.2l-3.6,0.2l-3.6,0.3l-3.6,0.4l-3.6,0.3l-3.6,0.2l-3.6,0.2l-3.6,0.1
			l-3.6,0.2l-3.6,0.2l-3.6,0.2l-3.6,0.1l-3.6,0.2l-3.6,0.1l-3.6,0.1l-3.6,0.1l-3.6,0.1l-3.6,0.2l-3.6,0.1l-3.6,0.1l-3.6,0.1
			l-3.6,0.1l-3.6,0.1l-3.6,0.1l-3.6,0.1l-3.6,0.1l-3.6,0.1l-3.6,0.1l-3.6,0l-3.6,0l-3.6,0l-3.6,0l-3.6,0l-3.6,0l-3.6,0l-3.6,0
			l-3.6,0l-3.6,0l-3.6,0l-3.6,0l-3.6,0l-3.6,0l-3.6,0l-3.6,0l-3.6,0l-3.6,0l-3.6,0l-3.6,0l-3.6,0l-3.5,0l-3.6,0l-3.6,0l-3.6,0
			l-3.6,0l-3.6,0l-3.6,0h-3.6l-3.6,0l-3.6,0h-3.6H152l-3.6,0h-3.6h-3.6h-3.6h-3.6h-3.6h-3.6h-3.6h-3.6h-3.6H112h-3.6h-3.6h-3.6h-3.6
			h-3.6h-3.6h-3.6h-3.6h-3.6h-3.6H72h-3.6l-3.6,0h-3.6h-3.6h-3.6h-3.6h-3.6H43l-3.6,0h-3.6h-3.6h-3.6h-3.6H21.1z"/>
		<path class="st9" d="M21.1,584.9h3.6h3.6h3.6h3.6h3.6l3.6,0h3.6h3.6h3.6h3.6h3.6h3.6l3.6,0H72h3.6h3.6h3.6h3.6h3.6h3.6h3.6h3.6
			h3.6h3.6h3.6h3.6h3.6h3.6h3.6h3.6h3.6h3.6h3.6h3.6h3.6l3.6,0h3.6h3.6l3.6,0l3.6,0h3.6l3.6,0l3.6,0l3.6,0l3.6,0l3.6,0l3.6,0l3.5,0
			l3.6,0l3.6,0l3.6,0l3.6,0l3.6,0l3.6,0l3.6,0l3.6,0l3.6,0l3.6,0l3.6,0l3.6,0l3.6,0l3.6,0l3.6,0l3.6,0l3.6,0l3.6,0l3.6,0l3.6,0
			l3.6,0l3.6-0.1l3.6-0.1l3.6-0.1l3.6-0.1l3.6-0.1l3.6-0.1l3.6-0.1l3.6-0.1l3.6-0.1l3.6-0.1l3.6-0.2l3.6-0.1l3.6-0.1l3.6-0.1
			l3.6-0.1l3.6-0.2l3.6-0.1l3.6-0.2l3.6-0.2l3.6-0.2l3.6-0.1l3.6-0.2l3.6-0.2l3.6-0.3l3.6-0.4l3.6-0.3l3.6-0.2l3.6-0.2l3.6-0.3
			l3.6-0.3l3.6-0.4l3.6-0.4l3.6-0.3l3.6-0.4l3.6-0.4l3.6-0.4l3.6-0.5l3.6-0.4l3.6-0.5l3.6-0.5l3.6-0.4l3.6-0.4l3.6-0.5l3.6-0.6
			l3.6-0.6l3.6-0.8l3.6-0.6l3.6-0.5l3.6-0.7l3.6-0.8l3.6-0.9l3.6-0.9l3.6-0.9l3.6-0.9l3.6-0.9l3.6-0.8l3.6-0.9l3.6-1l3.6-1.1
			l3.6-1.1l3.6-1.5l3.6-1.1l3.6-0.9l3.6-1.3l3.6-1.2l3.6-1.4l3.6-1.4l3.6-1.3l3.6-1.2l3.6-1.1l3.6-1.4l3.6-1.2l3.6-1.8l3.6-1
			l3.6-1.4l3.6-1.5l3.6-1.5l3.6-1.5l3.6-2.2l3.6-1.4l3.6-2.1l3.6-1l3.6-2l3.6-1.4l3.6-1.8l3.6-1.8l3.6-1.9l3.6-2l3.6-1.9l3.6-1.7
			l3.6-1.4l3.6-1.7l3.6-2l3.6-2.1l3.6-2l3.6-2l3.6-1.7l3.6-1.5l3.6-2l3.6-2.1l3.6-2.1l3.6-2.2l3.6-2.1l3.6-1.7l3.6-1.6l3.6-2.1
			l3.6-2.2l3.6-2.3l3.6-2.4l3.6-2.2l3.6-2l3.6-1.7l3.6-2.5l3.6-3l3.6-3.1l3.6-2.9l3.6-2.7l3.6-2l3.6-2.5l3.6-1.7l3.6-4.2l3.6-3
			l3.6-3.2l3.6-2.8l3.6-2.7l3.6-2.1l3.6-2.9l3.6-3.2l3.6-3.3l3.6-3.2l3.6-3.1l3.6-2.7l3.6-2.4l3.6-3.3l3.6-3.5l3.6-3.4l3.6-3.5
			l3.6-2.9l3.6-2.5l3.6-2.3l3.6-3.2l3.6-3.4l3.6-3.3l3.6-3l3.6-3.2l3.6-2.7l3.6-2.5l3.6-3l3.6-3.6l3.6-3.4l3.6-3.4l3.6-3.4v145.5
			l-3.6,1.7l-3.6,1.6l-3.6,1.6l-3.6,1.8l-3.6,1.2l-3.6,1.3l-3.6,1.3l-3.6,1.5l-3.6,1.5l-3.6,1.5l-3.6,1.5l-3.6,1.4l-3.6,1.2
			l-3.6,1.2l-3.6,1.4l-3.6,1.4l-3.6,1.4l-3.6,1.5l-3.6,1.3l-3.6,1.2L748,529l-3.6,1.4l-3.6,1.3l-3.6,1.4l-3.6,1.2l-3.6,1.1l-3.6,1.1
			l-3.6,1.1l-3.6,1.2l-3.6,1.3l-3.6,1.2l-3.6,2.1l-3.6,0.2l-3.6,1l-3.6,1.1l-3.6,1.1l-3.6,1.1l-3.6,1.1l-3.6,1l-3.6,0.9l-3.6,0.8
			l-3.6,0.9l-3.6,0.9l-3.6,0.9l-3.6,0.8l-3.6,0.8l-3.6,0.7l-3.6,0.7l-3.6,0.7l-3.6,0.7l-3.6,0.7l-3.6,0.7l-3.6,0.7l-3.6,0.6
			l-3.6,0.6l-3.6,0.7l-3.6,0.7l-3.6,0.5l-3.6,0.6l-3.6,0.6l-3.6,0.5l-3.6,0.5l-3.6,0.6l-3.6,0.6l-3.6,0.5l-3.6,0.5l-3.6,0.5
			l-3.6,0.5l-3.6,0.5l-3.6,0.5l-3.6,0.5l-3.6,0.5l-3.6,0.5l-3.6,0.5l-3.6,0.4l-3.6,0.6l-3.6,0.6l-3.6,0.4l-3.6,0.1l-3.6,0.8
			l-3.6,0.1l-3.6,0.4l-3.6,0.4l-3.6,0.4l-3.6,0.4l-3.6,0.4l-3.6,0.4l-3.6,0.4l-3.6,0.3l-3.6,0.3l-3.6,0.3l-3.6,0.3l-3.6,0.3
			l-3.6,0.2l-3.6,0.2l-3.6,0.2l-3.6,0.2l-3.6,0.2l-3.6,0.2l-3.6,0.2l-3.6,0.2l-3.6,0.2l-3.6,0.2l-3.6,0.2l-3.6,0.2l-3.6,0.1
			l-3.6,0.2l-3.6,0.1l-3.6,0.1l-3.6,0.1l-3.6,0.1l-3.6,0.1l-3.6,0.1l-3.6,0.1l-3.6,0.1l-3.6,0.1l-3.6,0.1l-3.6,0.1l-3.6,0.1
			l-3.6,0.1l-3.6,0.1l-3.6,0.1l-3.6,0.1l-3.6,0.1l-3.6,0.1l-3.6,0.1l-3.6,0.1l-3.6,0.1l-3.6,0.1l-3.6,0l-3.6,0.1l-3.6,0l-3.6,0.1
			l-3.6,0l-3.6,0l-3.6,0l-3.6,0l-3.6,0l-3.6,0l-3.6,0l-3.6,0l-3.6,0l-3.6,0l-3.6,0l-3.6,0l-3.6,0l-3.6,0l-3.6,0l-3.6,0l-3.6,0
			l-3.6,0l-3.6,0l-3.6,0l-3.6,0l-3.6,0l-3.6,0l-3.6,0l-3.6,0l-3.6,0l-3.6,0l-3.6,0l-3.6,0l-3.6,0l-3.6,0l-3.6,0l-3.6,0l-3.6,0
			l-3.6,0l-3.6,0l-3.6,0l-3.6,0l-3.6,0l-3.6,0l-3.5,0l-3.6,0l-3.6,0l-3.6,0l-3.6,0l-3.6,0l-3.6,0l-3.6,0h-3.6h-3.6h-3.6H152l-3.6,0
			h-3.6h-3.6h-3.6h-3.6h-3.6h-3.6h-3.6h-3.6h-3.6H112h-3.6h-3.6h-3.6h-3.6h-3.6h-3.6h-3.6h-3.6h-3.6h-3.6H72h-3.6l-3.6,0h-3.6h-3.6
			h-3.6h-3.6h-3.6H43l-3.6,0h-3.6h-3.6h-3.6h-3.6H21.1z"/>
		<path class="st10" d="M21.1,584.9h3.6h3.6h3.6h3.6h3.6l3.6,0h3.6h3.6h3.6h3.6h3.6h3.6l3.6,0H72h3.6h3.6h3.6h3.6h3.6h3.6h3.6h3.6
			h3.6h3.6h3.6h3.6h3.6h3.6h3.6h3.6h3.6h3.6h3.6h3.6h3.6l3.6,0h3.6h3.6h3.6h3.6l3.6,0l3.6,0l3.6,0l3.6,0l3.6,0l3.6,0l3.6,0l3.5,0
			l3.6,0l3.6,0l3.6,0l3.6,0l3.6,0l3.6,0l3.6,0l3.6,0l3.6,0l3.6,0l3.6,0l3.6,0l3.6,0l3.6,0l3.6,0l3.6,0l3.6,0l3.6,0l3.6,0l3.6,0
			l3.6,0l3.6,0l3.6,0l3.6,0l3.6,0l3.6,0l3.6,0l3.6,0l3.6,0l3.6,0l3.6,0l3.6,0l3.6,0l3.6,0l3.6,0l3.6,0l3.6,0l3.6,0l3.6,0l3.6,0
			l3.6-0.1l3.6,0l3.6-0.1l3.6,0l3.6-0.1l3.6-0.1l3.6-0.1l3.6-0.1l3.6-0.1l3.6-0.1l3.6-0.1l3.6-0.1l3.6-0.1l3.6-0.1l3.6-0.1l3.6-0.1
			l3.6-0.1l3.6-0.1l3.6-0.1l3.6-0.1l3.6-0.1l3.6-0.1l3.6-0.1l3.6-0.1l3.6-0.1l3.6-0.1l3.6-0.2l3.6-0.1l3.6-0.2l3.6-0.2l3.6-0.2
			l3.6-0.2l3.6-0.2l3.6-0.2l3.6-0.2l3.6-0.2l3.6-0.2l3.6-0.2l3.6-0.2l3.6-0.2l3.6-0.3l3.6-0.3l3.6-0.3l3.6-0.3l3.6-0.3l3.6-0.4
			l3.6-0.4l3.6-0.4l3.6-0.4l3.6-0.4l3.6-0.4l3.6-0.4l3.6-0.1l3.6-0.8l3.6-0.1l3.6-0.4l3.6-0.6l3.6-0.6l3.6-0.4l3.6-0.5l3.6-0.5
			l3.6-0.5l3.6-0.5l3.6-0.5l3.6-0.5l3.6-0.5l3.6-0.5l3.6-0.5l3.6-0.5l3.6-0.6l3.6-0.6l3.6-0.5l3.6-0.5l3.6-0.6l3.6-0.6l3.6-0.5
			l3.6-0.7l3.6-0.7l3.6-0.6l3.6-0.6l3.6-0.7l3.6-0.7l3.6-0.7l3.6-0.7l3.6-0.7l3.6-0.7l3.6-0.7l3.6-0.8l3.6-0.8l3.6-0.9l3.6-0.9
			l3.6-0.9l3.6-0.8l3.6-0.9l3.6-1l3.6-1.1l3.6-1.1l3.6-1.1l3.6-1.1l3.6-1l3.6-0.2l3.6-2.1l3.6-1.2l3.6-1.3l3.6-1.2l3.6-1.1l3.6-1.1
			l3.6-1.1l3.6-1.2l3.6-1.4l3.6-1.3l3.6-1.4l3.6-1.3l3.6-1.2l3.6-1.3l3.6-1.5l3.6-1.4l3.6-1.4l3.6-1.4l3.6-1.2l3.6-1.2l3.6-1.4
			l3.6-1.5l3.6-1.5l3.6-1.5l3.6-1.5l3.6-1.3l3.6-1.3l3.6-1.2l3.6-1.8l3.6-1.6l3.6-1.6l3.6-1.7v85.7h-3.6h-3.6h-3.6h-3.6h-3.6h-3.6
			h-3.6h-3.6h-3.6H788h-3.6h-3.6h-3.6h-3.6h-3.6h-3.6h-3.6H759h-3.6h-3.6H748h-3.6h-3.6h-3.6h-3.6h-3.6h-3.6h-3.6H719h-3.6h-3.6
			h-3.6h-3.6h-3.6h-3.6h-3.6h-3.6h-3.6h-3.6H679h-3.6h-3.6h-3.6h-3.6h-3.6h-3.6h-3.6h-3.6h-3.6h-3.6H639h-3.6h-3.6h-3.6h-3.6h-3.6
			h-3.6h-3.6h-3.6h-3.6h-3.6H599h-3.6h-3.6h-3.6h-3.6h-3.6h-3.6h-3.6h-3.6h-3.6h-3.6H559h-3.6h-3.6h-3.6h-3.6h-3.6h-3.6h-3.6h-3.6
			h-3.6h-3.6H519h-3.6h-3.6h-3.6h-3.6h-3.6h-3.6h-3.6h-3.6h-3.6h-3.6H479h-3.6h-3.6h-3.6h-3.6h-3.6h-3.6h-3.6H450h-3.6h-3.6h-3.6
			h-3.6h-3.6h-3.6h-3.6h-3.6h-3.6h-3.6H410h-3.6h-3.6h-3.6h-3.6h-3.6h-3.6h-3.6h-3.6h-3.6h-3.6H370h-3.6h-3.6h-3.6h-3.6h-3.6h-3.6
			h-3.6h-3.6h-3.6h-3.6H330h-3.6h-3.6h-3.6h-3.6h-3.6h-3.6h-3.6h-3.6h-3.6h-3.6H290h-3.6h-3.6h-3.6h-3.6h-3.6h-3.6h-3.6h-3.6h-3.6
			h-3.6H250h-3.6h-3.6h-3.6h-3.6h-3.6h-3.6h-3.6h-3.6h-3.6h-3.6H210h-3.6h-3.6h-3.6h-3.6H192h-3.6h-3.6h-3.6h-3.6h-3.6h-3.6h-3.6
			h-3.6h-3.6h-3.6H152h-3.6h-3.6h-3.6h-3.6h-3.6h-3.6h-3.6h-3.6h-3.6h-3.6H112h-3.6h-3.6h-3.6h-3.6h-3.6h-3.6h-3.6h-3.6h-3.6h-3.6
			H72h-3.6h-3.6h-3.6h-3.6h-3.6h-3.6h-3.6H43h-3.6h-3.6h-3.6h-3.6h-3.6H21.1z"/>
		<path class="st11" d="M21.1,584.9h3.6h3.6h3.6h3.6h3.6H43h3.6h3.6h3.6h3.6h3.6h3.6h3.6H72h3.6h3.6h3.6h3.6h3.6h3.6h3.6h3.6h3.6
			h3.6h3.6h3.6h3.6h3.6h3.6h3.6h3.6h3.6h3.6h3.6h3.6h3.6h3.6h3.6h3.6h3.6h3.6h3.6h3.6h3.6h3.6h3.6h3.6h3.5h3.6h3.6h3.6h3.6h3.6h3.6
			h3.6h3.6h3.6h3.6h3.6h3.6h3.6h3.6h3.6h3.6h3.6h3.6h3.6h3.6h3.6h3.6h3.6h3.6h3.6h3.6h3.6h3.6h3.6h3.6h3.6h3.6h3.6h3.6h3.6h3.6h3.6
			h3.6h3.6h3.6h3.6h3.6h3.6h3.6h3.6h3.6h3.6h3.6h3.6h3.6h3.6h3.6h3.6h3.6h3.6h3.6h3.6h3.6h3.6h3.6h3.6h3.6h3.6h3.6h3.6h3.6h3.6h3.6
			h3.6h3.6h3.6h3.6h3.6h3.6h3.6h3.6h3.6h3.6h3.6h3.6h3.6h3.6h3.6h3.6h3.6h3.6h3.6h3.6h3.6h3.6h3.6h3.6h3.6h3.6h3.6h3.6h3.6h3.6h3.6
			h3.6h3.6h3.6h3.6h3.6h3.6h3.6h3.6h3.6h3.6h3.6h3.6h3.6h3.6h3.6h3.6h3.6h3.6h3.6h3.6h3.6h3.6h3.6h3.6h3.6h3.6h3.6h3.6h3.6h3.6h3.6
			h3.6h3.6h3.6h3.6h3.6h3.6h3.6h3.6h3.6h3.6h3.6h3.6h3.6h3.6h3.6h3.6h3.6h3.6h3.6h3.6h3.6h3.6h3.6h3.6h3.6h3.6h3.6h3.6h3.6h3.6h3.6
			h3.6h3.6h3.6h3.6h3.6h3.6h3.6h3.6h3.6h3.6h3.6h3.6l0,0h-3.6h-3.6h-3.6h-3.6h-3.6h-3.6h-3.6h-3.6h-3.6H788h-3.6h-3.6h-3.6h-3.6
			h-3.6h-3.6h-3.6H759h-3.6h-3.6H748h-3.6h-3.6h-3.6h-3.6h-3.6h-3.6h-3.6H719h-3.6h-3.6h-3.6h-3.6h-3.6h-3.6h-3.6h-3.6h-3.6h-3.6
			H679h-3.6h-3.6h-3.6h-3.6h-3.6h-3.6h-3.6h-3.6h-3.6h-3.6H639h-3.6h-3.6h-3.6h-3.6h-3.6h-3.6h-3.6h-3.6h-3.6h-3.6H599h-3.6h-3.6
			h-3.6h-3.6h-3.6h-3.6h-3.6h-3.6h-3.6h-3.6H559h-3.6h-3.6h-3.6h-3.6h-3.6h-3.6h-3.6h-3.6h-3.6h-3.6H519h-3.6h-3.6h-3.6h-3.6h-3.6
			h-3.6h-3.6h-3.6h-3.6h-3.6H479h-3.6h-3.6h-3.6h-3.6h-3.6h-3.6h-3.6H450h-3.6h-3.6h-3.6h-3.6h-3.6h-3.6h-3.6h-3.6h-3.6h-3.6H410
			h-3.6h-3.6h-3.6h-3.6h-3.6h-3.6h-3.6h-3.6h-3.6h-3.6H370h-3.6h-3.6h-3.6h-3.6h-3.6h-3.6h-3.6h-3.6h-3.6h-3.6H330h-3.6h-3.6h-3.6
			h-3.6h-3.6h-3.6h-3.6h-3.6h-3.6h-3.6H290h-3.6h-3.6h-3.6h-3.6h-3.6h-3.6h-3.6h-3.6h-3.6h-3.6H250h-3.6h-3.6h-3.6h-3.6h-3.6h-3.6
			h-3.6h-3.6h-3.6h-3.6H210h-3.6h-3.6h-3.6h-3.6H192h-3.6h-3.6h-3.6h-3.6h-3.6h-3.6h-3.6h-3.6h-3.6h-3.6H152h-3.6h-3.6h-3.6h-3.6
			h-3.6h-3.6h-3.6h-3.6h-3.6h-3.6H112h-3.6h-3.6h-3.6h-3.6h-3.6h-3.6h-3.6h-3.6h-3.6h-3.6H72h-3.6h-3.6h-3.6h-3.6h-3.6h-3.6h-3.6H43
			h-3.6h-3.6h-3.6h-3.6h-3.6H21.1z"/>
	</g>
	<text transform="matrix(1 0 0 1 102.3335 628.3763)" class="st0 st1 st12">February</text>
	<text transform="matrix(1 0 0 1 222.5277 628.3763)" class="st0 st1 st12">March</text>
	<text transform="matrix(1 0 0 1 344.1649 628.3763)" class="st0 st1 st12">April</text>
	<text transform="matrix(1 0 0 1 455.4667 628.3763)" class="st0 st1 st12">May</text>
	<text transform="matrix(1 0 0 1 564.7634 628.3763)" class="st0 st1 st12">June</text>
	<text transform="matrix(1 0 0 1 678.1768 628.3763)" class="st0 st1 st12">July</text>
	<text transform="matrix(1 0 0 1 774.4891 628.3763)" class="st0 st1 st12">August</text>
	<text transform="matrix(1 0 0 1 88.6322 601.5203)" class="st0 st1 st13">0</text>
	<text transform="matrix(1 0 0 1 90.3329 500.2508)" class="st0 st1 st13">5</text>
	<text transform="matrix(1 0 0 1 82.2904 398.9814)" class="st0 st1 st13">10</text>
	<text transform="matrix(1 0 0 1 83.9911 297.7117)" class="st0 st1 st13">15</text>
	<text transform="matrix(1 0 0 1 76.83 196.4422)" class="st0 st1 st13">20</text>
	<text transform="matrix(1 0 0 1 10.1566 95.1728)" class="st0 st1 st13">25 million</text>
	<g>
		<g>
			<rect x="130.7" y="71.7" class="st3" width="13.7" height="13.7"/>
			<text transform="matrix(1 0 0 1 151.7066 83.7946)" class="st14 st1 st15">East Asia &amp; Pacific: China</text>
		</g>
		<g>
			<rect x="130.7" y="98" class="st4" width="13.7" height="13.7"/>
			<text transform="matrix(1 0 0 1 151.7066 110.1107)" class="st14 st1 st15">East Asia &amp; Pacific</text>
		</g>
		<g>
			<rect x="130.7" y="124.3" class="st5" width="13.7" height="13.7"/>
			<text transform="matrix(1 0 0 1 151.7066 136.4272)" class="st14 st1 st15">North America</text>
		</g>
		<g>
			<rect x="130.7" y="150.6" class="st6" width="13.7" height="13.7"/>
			<text transform="matrix(1 0 0 1 151.7066 162.7438)" class="st14 st1 st15">Sub-Saharan Africa</text>
		</g>
		<g>
			<rect x="130.7" y="176.9" class="st7" width="13.7" height="13.7"/>
			<text transform="matrix(1 0 0 1 151.7066 189.0598)" class="st14 st1 st15">Europe &amp; Central Asia</text>
		</g>
		<g>
			<rect x="130.7" y="203.2" class="st8" width="13.7" height="13.7"/>
			<text transform="matrix(1 0 0 1 151.7066 215.3764)" class="st14 st1 st15">Middle East &amp; North Africa</text>
		</g>
		<g>
			<rect x="130.7" y="229.6" class="st9" width="13.7" height="13.7"/>
			<text transform="matrix(1 0 0 1 151.7066 241.6929)" class="st14 st1 st15">Latin America &amp; Caribbean</text>
		</g>
		<g>
			<rect x="130.7" y="255.9" class="st10" width="13.7" height="13.7"/>
			<text transform="matrix(1 0 0 1 151.7066 268.0095)" class="st14 st1 st15">South Asia</text>
		</g>
	</g>
	<path class="st16" d="M111.6,602.2v-5h803.2v5"/>
	<line class="st16" x1="151.6" y1="596.7" x2="151.6" y2="602.2"/>
	<line class="st16" x1="257" y1="596.7" x2="257" y2="602.2"/>
	<line class="st16" x1="369.6" y1="596.7" x2="369.6" y2="602.2"/>
	<line class="st16" x1="478.6" y1="596.7" x2="478.6" y2="602.2"/>
	<line class="st16" x1="591.3" y1="596.7" x2="591.3" y2="602.2"/>
	<line class="st16" x1="700.4" y1="596.7" x2="700.4" y2="602.2"/>
	<line class="st16" x1="813.1" y1="596.7" x2="813.1" y2="602.2"/>
	<path class="st16" d="M111.6,595.3V68.7"/>
	<line class="st16" x1="111.1" y1="595.3" x2="105.7" y2="595.3"/>
	<line class="st16" x1="111.1" y1="494.1" x2="105.7" y2="494.1"/>
	<line class="st16" x1="111.1" y1="392.8" x2="105.7" y2="392.8"/>
	<line class="st16" x1="111.1" y1="291.5" x2="105.7" y2="291.5"/>
	<line class="st16" x1="111.1" y1="190.3" x2="105.7" y2="190.3"/>
	<line class="st16" x1="111.1" y1="89" x2="105.7" y2="89"/>
</g>
</svg>
