<svg xmlns="http://www.w3.org/2000/svg" xml:space="preserve" x="0" y="0" version="1.1" viewBox="0 0 925 650"><text fill="#2d3f50" font-family="'DMSans-Regular','DM Sans',sans-serif" font-size="32" transform="translate(17.681 42.56)">Cumulative cases worldwide</text><path d="M111.1 594.9h21.6l3.6-.1h14.4l3.6-.1 3.6-.1 3.6-.1 3.6-.1 3.6-.1 3.6-.1 3.6-.1 3.6-.1 3.6-.1h7.2l3.6-.3 3.6-.1h61.2l3.6-.1h3.6l3.6-.1 3.6-.1 3.6-.1 3.6-.1 3.5-.1 3.6-.1 3.6-.1 3.6-.1 3.6-.3 3.6-.2 3.6-.2 3.6-.3 3.6-.3 3.6-.4 3.6-.5 3.6-.6 3.6-.7 3.6-.7 3.6-.8 3.6-.8 3.6-1 3.6-1.2 3.6-1.3 3.6-1.4 3.6-1.2 3.6-1.3 3.6-1.5 3.6-1.6 3.6-1.6 3.6-1.7 3.6-2.1 3.6-1.5 3.6-1.5 3.6-1.7 3.6-1.7 3.6-1.8 3.6-1.9 3.6-1.7 3.6-1.5 3.6-1.4 3.6-1.2 3.6-1.6 3.6-2 3.6-1.8 3.6-1.5 3.6-1.7 3.6-1.5 3.6-1.5 3.6-1.5 3.6-1.8 3.6-2.1 3.6-1.8 3.6-1.5 3.6-1.4 3.6-1.5 3.6-1.6 3.6-1.3 3.6-1.8 3.6-1.7 3.6-1.6 3.6-1.5 3.6-1.6 3.6-1.9 3.6-1.8 3.6-1.9 3.6-1.7 3.6-1.6 3.6-1.5 3.6-1.7 3.6-1.7 3.6-1.9 3.6-2.1 3.6-1.8 3.6-1.6 3.6-1.8 3.6-1.9 3.6-2 3.6-2.2 3.6-2.2 3.6-2 3.6-2 3.6-1.8 3.6-1.9 3.6-2.1 3.6-2.4 3.6-2.3 3.6-2.7 3.6-2.2 3.6-2 3.6-2.4 3.6-2.5 3.6-2.5 3.6-2.8 3.6-2.6 3.6-2.3 3.6-2.2 3.6-2.5 3.6-2.4 3.6-3.1 3.6-2.4 3.6-2.7 3.6-2.7 3.6-2.7 3.6-2.8 3.6-3.6 3.6-2.8 3.6-3.6 3.6-2.5 3.6-3.3 3.6-2.9 3.6-3.3 3.6-3.4 3.6-3.6 3.6-3.9 3.6-3.6 3.6-3.4 3.6-3.1 3.6-3.6 3.6-4.4 3.6-3.6 3.6-4.2 3.6-4 3.6-3.6 3.6-3.4 3.6-4.1 3.6-4.3 3.6-4.5 3.6-4.7 3.6-4.4 3.6-3.9 3.6-4 3.6-4.4 3.6-4.7 3.6-5 3.6-5 3.6-4.8 3.6-4.3 3.6-4 3.6-4.9 3.6-5.7 3.6-5.7 3.6-5.7 3.6-5.2 3.6-4.1 3.6-4.8 3.6-4.1 3.6-6.7 3.6-5.7 3.6-5.9 3.6-5 3.6-4.7 3.6-4.1 3.6-5.1 3.6-5.5 3.6-5.7 3.6-5.7 3.6-5.2 3.6-4.6 3.6-4.6 3.6-5.3 3.6-5.8 3.6-5.6 3.6-6 3.6-5.1 3.6-4.3 3.6-4.3 3.6-5.1 3.6-5.5 3.6-5.4 3.6-5.5 3.6-5.2 3.6-4.3 3.6-4.6 3.6-4.9 3.6-5.8 3.6-5.6 3.6-5.7 3.6-5.2-3.6 5.2-3.6 5.7-3.6 5.6-3.6 5.8-3.6 4.9-3.6 4.6-3.6 4.3-3.6 5.2-3.6 5.5-3.6 5.4-3.6 5.5-3.6 5.1-3.6 4.3-3.6 4.3-3.6 5.1-3.6 6-3.6 5.6-3.6 5.8-3.6 5.3-3.6 4.6-3.6 4.6-3.6 5.2-3.6 5.7-3.6 5.7-3.6 5.5-3.6 5.1-3.6 4.1-3.6 4.7-3.6 5-3.6 5.9-3.6 5.7-3.6 6.7-3.6 4.1-3.6 4.8-3.6 4.1-3.6 5.2-3.6 5.7-3.6 5.7-3.6 5.7-3.6 4.9-3.6 4-3.6 4.3-3.6 4.8-3.6 5-3.6 5-3.6 4.7-3.6 4.4-3.6 4-3.6 3.9-3.6 4.4-3.6 4.7-3.6 4.5-3.6 4.3-3.6 4.1-3.6 3.4-3.6 3.6-3.6 4-3.6 4.2-3.6 3.6-3.6 4.4-3.6 3.6-3.6 3.1-3.6 3.4-3.6 3.6-3.6 3.9-3.6 3.6-3.6 3.4-3.6 3.3-3.6 2.9-3.6 3.3-3.6 2.5-3.6 3.6-3.6 2.8-3.6 3.6-3.6 2.8-3.6 2.7-3.6 2.7-3.6 2.7-3.6 2.4-3.6 3.1-3.6 2.4-3.6 2.5-3.6 2.2-3.6 2.3-3.6 2.6-3.6 2.8-3.6 2.5-3.6 2.5-3.6 2.4-3.6 2-3.6 2.2-3.6 2.7-3.6 2.3-3.6 2.4-3.6 2.1-3.6 1.9-3.6 1.8-3.6 2-3.6 2-3.6 2.2-3.6 2.2-3.6 2-3.6 1.9-3.6 1.8-3.6 1.6-3.6 1.8-3.6 2.1-3.6 1.9-3.6 1.7-3.6 1.7-3.6 1.5-3.6 1.6-3.6 1.7-3.6 1.9-3.6 1.8-3.6 1.9-3.6 1.6-3.6 1.5-3.6 1.6-3.6 1.7-3.6 1.8-3.6 1.3-3.6 1.6-3.6 1.5-3.6 1.4-3.6 1.5-3.6 1.8-3.6 2.1-3.6 1.8-3.6 1.5-3.6 1.5-3.6 1.5-3.6 1.7-3.6 1.5-3.6 1.8-3.6 2-3.6 1.6-3.6 1.2-3.6 1.4-3.6 1.5-3.6 1.7-3.6 1.9-3.6 1.8-3.6 1.7-3.6 1.7-3.6 1.5-3.6 1.5-3.6 2.1-3.6 1.7-3.6 1.6-3.6 1.6-3.6 1.5-3.6 1.3-3.6 1.2-3.6 1.4-3.6 1.3-3.6 1.2-3.6 1-3.6.8-3.6.8-3.6.7-3.6.7-3.6.6-3.6.5-3.6.4-3.6.3-3.6.3-3.6.2-3.6.2-3.6.3-3.6.1-3.6.1-3.6.1-3.5.1-3.6.1-3.6.1-3.6.1-3.6.1h-3.6l-3.6.1h-61.2l-3.6.1-3.6.3h-7.2l-3.6.1-3.6.1-3.6.1-3.6.1-3.6.1-3.6.1-3.6.1-3.6.1-3.6.1h-14.4l-3.6.1h-21.6z" fill="#bcbcbb"/><path d="M111.1 594.9h21.6l3.6-.1h14.4l3.6-.1 3.6-.1 3.6-.1 3.6-.1 3.6-.1 3.6-.1 3.6-.1 3.6-.1 3.6-.1h7.2l3.6-.3 3.6-.1h61.2l3.6-.1h3.6l3.6-.1 3.6-.1 3.6-.1 3.6-.1 3.5-.1 3.6-.1 3.6-.1 3.6-.1 3.6-.3 3.6-.2 3.6-.2 3.6-.3 3.6-.3 3.6-.4 3.6-.5 3.6-.6 3.6-.7 3.6-.7 3.6-.8 3.6-.8 3.6-1 3.6-1.2 3.6-1.3 3.6-1.4 3.6-1.2 3.6-1.3 3.6-1.5 3.6-1.6 3.6-1.6 3.6-1.7 3.6-2.1 3.6-1.5 3.6-1.5 3.6-1.7 3.6-1.7 3.6-1.8 3.6-1.9 3.6-1.7 3.6-1.5 3.6-1.4 3.6-1.2 3.6-1.6 3.6-2 3.6-1.8 3.6-1.5 3.6-1.7 3.6-1.5 3.6-1.5 3.6-1.5 3.6-1.8 3.6-2.1 3.6-1.8 3.6-1.5 3.6-1.4 3.6-1.5 3.6-1.6 3.6-1.3 3.6-1.8 3.6-1.7 3.6-1.6 3.6-1.5 3.6-1.6 3.6-1.9 3.6-1.8 3.6-1.9 3.6-1.7 3.6-1.6 3.6-1.5 3.6-1.7 3.6-1.7 3.6-1.9 3.6-2.1 3.6-1.8 3.6-1.6 3.6-1.8 3.6-1.9 3.6-2 3.6-2.2 3.6-2.2 3.6-2 3.6-2 3.6-1.8 3.6-1.9 3.6-2.1 3.6-2.4 3.6-2.3 3.6-2.7 3.6-2.2 3.6-2 3.6-2.4 3.6-2.5 3.6-2.5 3.6-2.8 3.6-2.6 3.6-2.3 3.6-2.2 3.6-2.5 3.6-2.4 3.6-3.1 3.6-2.4 3.6-2.7 3.6-2.7 3.6-2.7 3.6-2.8 3.6-3.6 3.6-2.8 3.6-3.6 3.6-2.5 3.6-3.3 3.6-2.9 3.6-3.3 3.6-3.4 3.6-3.6 3.6-3.9 3.6-3.6 3.6-3.4 3.6-3.1 3.6-3.6 3.6-4.4 3.6-3.6 3.6-4.2 3.6-4 3.6-3.6 3.6-3.4 3.6-4.1 3.6-4.3 3.6-4.5 3.6-4.7 3.6-4.4 3.6-3.9 3.6-4 3.6-4.4 3.6-4.7 3.6-5 3.6-5 3.6-4.8 3.6-4.3 3.6-4 3.6-4.9 3.6-5.7 3.6-5.7 3.6-5.7 3.6-5.2 3.6-4.1 3.6-4.8 3.6-4.1 3.6-6.7 3.6-5.7 3.6-5.9 3.6-5 3.6-4.7 3.6-4.1 3.6-5.1 3.6-5.5 3.6-5.7 3.6-5.7 3.6-5.2 3.6-4.6 3.6-4.6 3.6-5.3 3.6-5.8 3.6-5.6 3.6-6 3.6-5.1 3.6-4.3 3.6-4.3 3.6-5.1 3.6-5.5 3.6-5.4 3.6-5.5 3.6-5.2 3.6-4.3 3.6-4.6 3.6-4.9 3.6-5.8 3.6-5.6 3.6-5.7 3.6-5.2V103l-3.6 5.1-3.6 5.5-3.6 5.4-3.6 5.6-3.6 4.8-3.6 4.5-3.6 4.2-3.6 5-3.6 5.3-3.6 5.3-3.6 5.3-3.6 5-3.6 4.2-3.6 4.2-3.6 5-3.6 5.8-3.6 5.5-3.6 5.6-3.6 5.1-3.6 4.3-3.6 4.4-3.6 5.1-3.6 5.6-3.6 5.6-3.6 5.3-3.6 4.9-3.6 4-3.6 4.5-3.6 4.9-3.6 5.7-3.6 5.5-3.6 6.6-3.6 4-3.6 4.7-3.6 4-3.6 5.1-3.6 5.6-3.6 5.6-3.6 5.6-3.6 4.8-3.6 3.9-3.6 4.2-3.6 4.7-3.6 4.9-3.6 4.9-3.6 4.6-3.6 4.3-3.6 3.9-3.6 3.8-3.6 4.3-3.6 4.6-3.6 4.4-3.6 4.2-3.6 4-3.6 3.4-3.6 3.5-3.6 3.9-3.6 4.1-3.6 3.6-3.6 4.3-3.6 3.5-3.6 3.1-3.6 3.3-3.6 3.5-3.6 3.8-3.6 3.6-3.6 3.4-3.6 3.3-3.6 2.8-3.6 3.3-3.6 2.4-3.6 3.6-3.6 2.8-3.6 3.5-3.6 2.8-3.6 2.7-3.6 2.7-3.6 2.7-3.6 2.3-3.6 3.1-3.6 2.4-3.6 2.5-3.6 2.2-3.6 2.3-3.6 2.5-3.6 2.7-3.6 2.5-3.6 2.4-3.6 2.4-3.6 2-3.6 2.2-3.6 2.7-3.6 2.3-3.6 2.3-3.6 2-3.6 1.9-3.6 1.7-3.6 1.9-3.6 2-3.6 2.2-3.6 2.1-3.6 2-3.6 1.9-3.6 1.8-3.6 1.6-3.6 1.8-3.6 2-3.6 1.9-3.6 1.7-3.6 1.7-3.6 1.5-3.6 1.6-3.6 1.7-3.6 1.9-3.6 1.8-3.6 1.8-3.6 1.6-3.6 1.5-3.6 1.6-3.6 1.7-3.6 1.7-3.6 1.3-3.6 1.5-3.6 1.5-3.6 1.4-3.6 1.5-3.6 1.7-3.6 2-3.6 1.8-3.6 1.5-3.6 1.5-3.6 1.4-3.6 1.6-3.6 1.4-3.6 1.7-3.6 1.9-3.6 1.6-3.6 1.1-3.6 1.4-3.6 1.4-3.6 1.6-3.6 1.9-3.6 1.7-3.6 1.7-3.6 1.6-3.6 1.5-3.6 1.4-3.6 2.1-3.6 1.6-3.6 1.6-3.6 1.5-3.6 1.5-3.6 1.2-3.6 1.2-3.6 1.4-3.6 1.3-3.6 1.2-3.6 1-3.6.8-3.6.8-3.6.6-3.6.6-3.6.6-3.6.5-3.6.4-3.6.3-3.6.3-3.6.2-3.6.2-3.6.3H291l-3.6.1-3.6.1-3.5.1-3.6.1-3.6.1-3.6.1H111.1z" fill="#527ea3"/><path d="M111.1 594.9H270l3.6-.1 3.6-.1 3.6-.1 3.5-.1 3.6-.1 3.6-.1h3.6l3.6-.3 3.6-.2 3.6-.2 3.6-.3 3.6-.3 3.6-.4 3.6-.5 3.6-.6 3.6-.6 3.6-.6 3.6-.8 3.6-.8 3.6-1 3.6-1.2 3.6-1.3 3.6-1.4 3.6-1.2 3.6-1.2 3.6-1.5 3.6-1.5 3.6-1.6 3.6-1.6 3.6-2.1 3.6-1.4 3.6-1.5 3.6-1.6 3.6-1.7 3.6-1.7 3.6-1.9 3.6-1.6 3.6-1.4 3.6-1.4 3.6-1.1 3.6-1.6 3.6-1.9 3.6-1.7 3.6-1.4 3.6-1.6 3.6-1.4 3.6-1.5 3.6-1.5 3.6-1.8 3.6-2 3.6-1.7 3.6-1.5 3.6-1.4 3.6-1.5 3.6-1.5 3.6-1.3 3.6-1.7 3.6-1.7 3.6-1.6 3.6-1.5 3.6-1.6 3.6-1.8 3.6-1.8 3.6-1.9 3.6-1.7 3.6-1.6 3.6-1.5 3.6-1.7 3.6-1.7 3.6-1.9 3.6-2 3.6-1.8 3.6-1.6 3.6-1.8 3.6-1.9 3.6-2 3.6-2.1 3.6-2.2 3.6-2 3.6-1.9 3.6-1.7 3.6-1.9 3.6-2 3.6-2.3 3.6-2.3 3.6-2.7 3.6-2.2 3.6-2 3.6-2.4 3.6-2.4 3.6-2.5 3.6-2.7 3.6-2.5 3.6-2.3 3.6-2.2 3.6-2.5 3.6-2.4 3.6-3.1 3.6-2.3 3.6-2.7 3.6-2.7 3.6-2.7 3.6-2.8 3.6-3.5 3.6-2.8 3.6-3.6 3.6-2.4 3.6-3.3 3.6-2.8 3.6-3.3 3.6-3.4 3.6-3.6 3.6-3.8 3.6-3.5 3.6-3.3 3.6-3.1 3.6-3.5 3.6-4.3 3.6-3.6 3.6-4.1 3.6-3.9 3.6-3.5 3.6-3.4 3.6-4 3.6-4.2 3.6-4.4 3.6-4.6 3.6-4.3 3.6-3.8 3.6-3.9 3.6-4.3 3.6-4.6 3.6-4.9 3.6-4.9 3.6-4.7 3.6-4.2 3.6-3.9 3.6-4.8 3.6-5.6 3.6-5.6 3.6-5.6 3.6-5.1 3.6-4 3.6-4.7 3.6-4 3.6-6.6 3.6-5.5 3.6-5.7 3.6-4.9 3.6-4.5 3.6-4 3.6-4.9 3.6-5.3 3.6-5.6 3.6-5.6 3.6-5.1 3.6-4.4 3.6-4.3 3.6-5.1 3.6-5.6 3.6-5.5 3.6-5.8 3.6-5 3.6-4.2 3.6-4.2 3.6-5 3.6-5.3 3.6-5.3 3.6-5.3 3.6-5 3.6-4.2 3.6-4.5 3.6-4.8 3.6-5.6 3.6-5.4 3.6-5.5 3.6-5.1v123.6l-3.6 4.2-3.6 4.6-3.6 4.5-3.6 4.7-3.6 4-3.6 3.6-3.6 3.6-3.6 4.1-3.6 4.3 3.3 4.2-3.6 4.4-3.6 4.1-3.6 3.4-3.6 3.3-3.6 3.9-3.6 4.6-3.6 4.3-3.6 4.5-3.6 4.1-3.6 3.4-3.6 3.4-3.6 3.9-3.6 4.3-3.6 4.4-3.6 4.2-3.6 3.8-3.6 3-3.6 3.5-3.6 3.7-3.6 4.3-3.6 4.1-3.6 5.2-3.6 2.7-3.6 3.5-3.6 2.9-3.6 3.7-3.6 4.1-3.6 4.2-3.6 4.2-3.6 3.4-3.6 2.7-3.6 3-3.6 3.4-3.6 3.5-3.6 3.4-3.6 3.2-3.6 3-3.6 2.6-3.6 2.6-3.6 3.1-3.6 3.2-3.6 3.2-3.6 3-3.6 2.9-3.6 2.4-3.6 2.6-3.6 2.9-3.6 3-3.6 2.4-3.6 3.3-3.6 2.5-3.6 2.2-3.6 2.5-3.6 2.7-3.6 2.9-3.6 2.8-3.6 2.6-3.6 2.6-3.6 2.2-3.6 2.7-3.6 1.8-3.6 2.9-3.6 2.2-3.6 3-3.6 2.3-3.6 2.3-3.6 2.3-3.6 2.1-3.6 1.8-3.6 2.6-3.6 1.9-3.6 2.1-3.6 1.8-3.6 1.9-3.6 2-3.6 2.1-3.6 2-3.6 2-3.6 2-3.6 1.5-3.6 1.7-3.6 2.2-3.6 1.8-3.6 1.9-3.6 1.6-3.6 1.5-3.6 1.3-3.6 1.5-3.6 1.5-3.6 1.7-3.6 1.6-3.6 1.5-3.6 1.5-3.6 1.3-3.6 1.2-3.6 1.3-3.6 1.5-3.6 1.3-3.6 1.2-3.6 1.2-3.6 1.1-3.6 1.1-3.6 1.2-3.6 1.3-3.6 1.2-3.6 1.3-3.6 1.1-3.6 1-3.6 1-3.6 1-3.6 1-3.6.6-3.6 1-3.6 1-3.6.9-3.6.9-3.6 1-3.6 1.3-3.6 1-3.6.9-3.6.9-3.6.8-3.6 1.1-3.6.8-3.6 1-3.6 1.2-3.6 1-3.6.6-3.6.8-3.6.9-3.6 1-3.6 1.2-3.6 1-3.6 1-3.6 1-3.6.8-3.6.9-3.6 1.3-3.6 1-3.6 1-3.6 1-3.6.9-3.6.8-3.6.8-3.6.9-3.6.9-3.6.8-3.6.7-3.6.6-3.6.6-3.6.5-3.6.5-3.6.5-3.6.4-3.6.3-3.6.3-3.6.3-3.6.2-3.6.2-3.6.3h-3.6l-3.6.1-3.6.1-3.5.1-3.6.1-3.6.1-3.6.1H111.1z" fill="#f28f2a"/><path d="M111.1 594.9h158.4l3.6-.1 3.6-.1 3.6-.1 3.5-.1 3.6-.1 3.6-.1h3.6l3.6-.3 3.6-.2 3.6-.2 3.6-.3 3.6-.3 3.6-.3 3.6-.4 3.6-.5 3.6-.5 3.6-.5 3.6-.6 3.6-.6 3.6-.7 3.6-.8 3.6-.9 3.6-.9 3.6-.8 3.6-.8 3.6-.9 3.6-1 3.6-1 3.6-1 3.6-1.3 3.6-.9 3.6-.8 3.6-1 3.6-1 3.6-1 3.6-1.2 3.6-1 3.6-.9 3.6-.8 3.6-.6 3.6-1 3.6-1.2 3.6-1 3.6-.8 3.6-1.1 3.6-.8 3.6-.9 3.6-.9 3.6-1 3.6-1.3 3.6-1 3.6-.9 3.6-.9 3.6-1 3.6-1 3.6-.6 3.6-1 3.6-1 3.6-1 3.6-1 3.6-1.1 3.6-1.3 3.6-1.2 3.6-1.3 3.6-1.2 3.6-1.1 3.6-1.1 3.6-1.2 3.6-1.2 3.6-1.3 3.6-1.5 3.6-1.3 3.6-1.2 3.6-1.3 3.6-1.5 3.6-1.5 3.6-1.6 3.6-1.7 3.6-1.5 3.6-1.5 3.6-1.3 3.6-1.5 3.6-1.6 3.6-1.9 3.6-1.8 3.6-2.2 3.6-1.7 3.6-1.5 3.6-2 3.6-2 3.6-2 3.6-2.1 3.6-2 3.6-1.9 3.6-1.8 3.6-2.1 3.6-1.9 3.6-2.6 3.6-1.8 3.6-2.1 3.6-2.3 3.6-2.3 3.6-2.3 3.6-3 3.6-2.2 3.6-2.9 3.6-1.8 3.6-2.7 3.6-2.2 3.6-2.6 3.6-2.6 3.6-2.8 3.6-2.9 3.6-2.7 3.6-2.5 3.6-2.2 3.6-2.5 3.6-3.3 3.6-2.4 3.6-3 3.6-2.9 3.6-2.6 3.6-2.4 3.6-2.9 3.6-3 3.6-3.2 3.6-3.2 3.6-3.1 3.6-2.6 3.6-2.6 3.6-3 3.6-3.2 3.6-3.4 3.6-3.5 3.6-3.4 3.6-3 3.6-2.7 3.6-3.4 3.6-4.2 3.6-4.2 3.6-4.1 3.6-3.7 3.6-2.9 3.6-3.5 3.6-2.7 3.6-5.2 3.6-4.1 3.6-4.3 3.6-3.7 3.6-3.5 3.6-3 3.6-3.8 3.6-4.2 3.6-4.4 3.6-4.3 3.6-3.9 3.6-3.4 3.6-3.4 3.6-4.1 3.6-4.5 3.6-4.3 3.6-4.6 3.6-3.9 3.6-3.3 3.6-3.4 3.6-4.1 3.6-4.4 3.6-4.3 3.6-4.3 3.6-4.1 3.6-3.6 3.6-3.6 3.6-4 3.6-4.7 3.6-4.5 3.6-4.6 3.6-4.2v20.5l-3.6 4-3.6 4.5-3.6 4.4-3.6 4.6-3.6 3.9-3.6 3.5-3.6 3.4-3.6 3.9-3.6 4.1-3.6 4.2-3.6 4.2-3.6 4-3.6 3.3-3.6 3.1-3.6 3.7-3.6 4.4-3.6 4.2-3.6 4.4-3.6 3.9-3.6 3.2-3.6 3.2-3.6 3.7-3.6 4.1-3.6 4.1-3.6 4-3.6 3.7-3.6 2.8-3.6 3.2-3.6 3.4-3.6 4-3.6 3.8-3.6 4.9-3.6 2.4-3.6 3.3-3.6 2.6-3.6 3.4-3.6 3.7-3.6 3.8-3.6 3.8-3.6 3.2-3.6 2.4-3.6 2.6-3.6 3-3.6 3.1-3.6 3-3.6 2.9-3.6 2.7-3.6 2.4-3.6 2.3-3.6 2.8-3.6 2.9-3.6 2.9-3.6 2.7-3.6 2.6-3.6 2.2-3.6 2.4-3.6 2.6-3.6 2.7-3.6 2.2-3.6 3.1-3.6 2.3-3.6 2.1-3.6 2.3-3.6 2.5-3.6 2.7-3.6 2.6-3.6 2.5-3.6 2.4-3.6 2.1-3.6 2.6-3.6 1.6-3.6 2.8-3.6 2.1-3.6 2.9-3.6 2.2-3.6 2.1-3.6 2.1-3.6 2-3.6 1.7-3.6 2.5-3.6 1.8-3.6 2-3.6 1.7-3.6 1.8-3.6 1.9-3.6 2-3.6 1.9-3.6 1.9-3.6 1.9-3.6 1.5-3.6 1.7-3.6 2.1-3.6 1.7-3.6 1.8-3.6 1.6-3.6 1.4-3.6 1.3-3.6 1.4-3.6 1.5-3.6 1.6-3.6 1.5-3.6 1.4-3.6 1.4-3.6 1.3-3.6 1.1-3.6 1.2-3.6 1.4-3.6 1.3-3.6 1.2-3.6 1.2-3.6 1.1-3.6 1.1-3.6 1.1.2.9-3.6 1.2-3.6 1.3-3.6 1-3.6 1-3.6 1-3.6 1-3.6 1-3.6.6-3.6.9-3.6.9-3.6.9-3.6.9-3.6 1-3.6 1.2-3.6 1-3.6.8-3.6.9-3.6.8-3.6 1.1-3.6.8-3.6 1-3.6 1.2-3.6 1-3.6.6-3.6.8-3.6.9-3.6.9-3.6 1.2-3.6 1-3.6 1-3.6 1-3.6.8-3.6.9-3.6 1.3-3.6 1-3.6.9-3.6 1-3.6.9-3.6.8-3.6.8-3.6.9-3.6.9-3.6.8-3.6.7-3.6.6-3.6.6-3.6.5-3.6.5-3.6.5-3.6.4-3.6.3-3.6.3-3.6.3-3.6.2-3.6.2-3.6.3h-3.6l-3.6.1-3.6.1-3.5.1-3.6.1-3.6.1-3.6.1H111.1z" fill="#e05859"/><path d="M111.1 594.9h158.4l3.6-.1 3.6-.1 3.6-.1 3.5-.1 3.6-.1 3.6-.1h3.6l3.6-.3 3.6-.2 3.6-.2 3.6-.3 3.6-.3 3.6-.3 3.6-.4 3.6-.5 3.6-.5 3.6-.5 3.6-.6 3.6-.6 3.6-.7 3.6-.8 3.6-.9 3.6-.9 3.6-.8 3.6-.8 3.6-.9 3.6-1 3.6-.9 3.6-1 3.6-1.3 3.6-.9 3.6-.8 3.6-1 3.6-1 3.6-1 3.6-1.2 3.6-.9 3.6-.9 3.6-.8 3.6-.6 3.6-1 3.6-1.2 3.6-1 3.6-.8 3.6-1.1 3.6-.8 3.6-.9 3.6-.8 3.6-1 3.6-1.2 3.6-1 3.6-.9 3.6-.9 3.6-.9 3.6-.9 3.6-.6 3.6-1 3.6-1 3.6-1 3.6-1 3.6-1 3.6-1.3 3.6-1.2 3.6-1.2 3.6-1.1 3.6-1.1 3.6-1.1 3.6-1.2 3.6-1.2 3.6-1.3 3.6-1.4 3.6-1.2 3.6-1.1 3.6-1.3 3.6-1.4 3.6-1.4 3.6-1.5 3.6-1.6 3.6-1.5 3.6-1.4 3.6-1.3 3.6-1.4 3.6-1.6 3.6-1.8 3.6-1.7 3.6-2.1 3.6-1.7 3.6-1.5 3.6-1.9 3.6-1.9 3.6-1.9 3.6-2 3.6-1.9 3.6-1.8 3.6-1.7 3.6-2 3.6-1.8 3.6-2.5 3.6-1.7 3.6-2 3.6-2.1 3.6-2.1 3.6-2.2 3.6-2.9 3.6-2.1 3.6-2.8 3.6-1.6 3.6-2.6 3.6-2.1 3.6-2.4 3.6-2.5 3.6-2.6 3.6-2.7 3.6-2.5 3.6-2.3 3.6-2.1 3.6-2.3 3.6-3.1 3.6-2.2 3.6-2.7 3.6-2.6 3.6-2.4 3.6-2.2 3.6-2.6 3.6-2.7 3.6-2.9 3.6-2.9 3.6-2.8 3.6-2.3 3.6-2.4 3.6-2.7 3.6-2.9 3.6-3 3.6-3.1 3.6-3 3.6-2.6 3.6-2.4 3.6-3.2 3.6-3.8 3.6-3.8 3.6-3.7 3.6-3.4 3.6-2.6 3.6-3.3 3.6-2.4 3.6-4.9 3.6-3.8 3.6-4 3.6-3.4 3.6-3.2 3.6-2.8 3.6-3.7 3.6-4 3.6-4.1 3.6-4.1 3.6-3.7 3.6-3.2 3.6-3.2 3.6-3.9 3.6-4.4 3.6-4.2 3.6-4.4 3.6-3.7 3.6-3.1 3.6-3.3 3.6-4 3.6-4.2 3.6-4.2 3.6-4.1 3.6-3.9 3.6-3.4 3.6-3.5 3.6-3.9 3.6-4.6 3.6-4.4 3.6-4.5 3.6-4v82.9l-3.6 3.6-3.6 3.7-3.6 3.7-3.6 3.9-3.6 3.3-3.6 2.7-3.6 3-3.6 3.4-3.6 3.2-3.6 3.6-3.6 3.7-3.6 3.5-3.6 2.5-3.6 2.8-3.6 3.2-3.6 3.8-3.6 3.7-3.6 3.8-3.6 3.5-3.6 2.6-3.6 2.9-3.6 3.3-3.6 3.5-3.6 3.6-3.6 3.5-3.6 3.1-3.6 2.3-3.6 2.9-3.6 3-3.6 3.5-3.6 3.3-3.6 4.5-3.6 2-3.6 2.7-3.6 2.2-3.6 3-3.6 3.2-3.6 3.4-3.6 3.3-3.6 2.8-3.6 2-3.6 2.2-3.6 2.5-3.6 2.7-3.6 2.6-3.6 2.5-3.6 2.4-3.6 1.9-3.6 2-3.6 2.4-3.6 2.5-3.6 2.4-3.6 2.4-3.6 2.3-3.6 1.8-3.6 2-3.6 2.3-3.6 2.3-3.6 2.4-3.6 2.3-3.6 2-3.6 1.7-3.6 2-3.6 2.1-3.6 2.3-3.6 2.2-3.6 2.1-3.6 2-3.6 1.7-3.6 2.2-3.6 1.2-3.6 2.4-3.6 1.7-3.6 2.5-3.6 1.8-3.6 1.7-3.6 1.7-3.6 1.6-3.6 1.3-3.6 2.1-3.6 1.5-3.6 1.6-3.6 1.3-3.6 1.4-3.6 1.6-3.6 1.6-3.6 1.6-3.6 1.5-3.6 1.6-3.6 1.1-3.6 1.3-3.6 1.7-3.6 1.3-3.6 1.3-3.6 1.2-3.6 1-3.6.9-3.6 1.1-3.6 1.1-3.6 1.2-3.6 1.1-3.6 1.1-3.6 1-3.6.9-3.6.7-3.6.8-3.6.9-3.6.8-3.6.8-3.6.7-3.6.5-3.6.6-3.6.6-3.6.6-3.6.6-3.6.6-3.6.5-3.6.5-3.6.5-3.6.4-3.6.5-3.6.5-3.6.4-3.6.4-.2 1.4-3.6.3-3.6.4-3.6.6-3.6.4-3.6.3-3.6.3-3.6.2-3.6.3-3.6.3-3.6.3-3.6.2-3.6.2-3.6.2-3.6.2-3.6.2-3.6.2-3.6.2-3.6.2-3.6.2-3.6.2-3.6.2-3.6.2-3.6.2-3.6.1-3.6.2-3.6.2-3.6.2-3.6.1-3.6.1-3.6.1-3.6.1-3.6.1-3.6.1-3.6.1-3.6.1-3.6.1-3.6.1H111.1z" fill="#76b7b3"/><path d="M111.1 594.9h212.8l3.6-.1 3.6-.1 3.6-.1 3.6-.1 3.6-.1 3.6-.1 3.6-.1 3.6-.1 3.6-.1 3.6-.1 3.6-.2 3.6-.2 3.6-.2 3.6-.1 3.6-.2 3.6-.2 3.6-.2 3.6-.2 3.6-.2 3.6-.2 3.6-.2 3.6-.2 3.6-.2 3.6-.2 3.6-.2 3.6-.2 3.6-.2 3.6-.3 3.6-.3 3.6-.3 3.6-.2 3.6-.3 3.6-.3 3.6-.4 3.6-.6 3.6-.4 3.6-.3 3.6-.3 3.6-.4 3.6-.4 3.6-.5 3.6-.5 3.6-.4 3.6-.5 3.6-.5 3.6-.5 3.6-.6 3.6-.6 3.6-.6 3.6-.6 3.6-.6 3.6-.5 3.6-.7 3.6-.8 3.6-.8 3.6-.9 3.6-.8 3.6-.7 3.6-.9 3.6-1 3.6-1.1 3.6-1.1 3.6-1.2 3.6-1.1 3.6-1.1 3.6-.9 3.6-1 3.6-1.2 3.6-1.3 3.6-1.3 3.6-1.7 3.6-1.3 3.6-1.1 3.6-1.6 3.6-1.5 3.6-1.6 3.6-1.6 3.6-1.6 3.6-1.4 3.6-1.3 3.6-1.6 3.6-1.5 3.6-2.1 3.6-1.3 3.6-1.6 3.6-1.7 3.6-1.7 3.6-1.8 3.6-2.5 3.6-1.7 3.6-2.4 3.6-1.2 3.6-2.2 3.6-1.7 3.6-2 3.6-2.1 3.6-2.2 3.6-2.3 3.6-2.1 3.6-2 3.6-1.7 3.6-2 3.6-2.3 3.6-2.4 3.6-2.3 3.6-2.3 3.6-2 3.6-1.8 3.6-2.3 3.6-2.4 3.6-2.4 3.6-2.5 3.6-2.4 3.6-2 3.6-1.9 3.6-2.4 3.6-2.5 3.6-2.6 3.6-2.7 3.6-2.5 3.6-2.2 3.6-2 3.6-2.8 3.6-3.3 3.6-3.4 3.6-3.2 3.6-3 3.6-2.2 3.6-2.7 3.6-2 3.6-4.5 3.6-3.3 3.6-3.5 3.6-3 3.6-2.9 3.6-2.3 3.6-3.1 3.6-3.5 3.6-3.6 3.6-3.5 3.6-3.3 3.6-2.9 3.6-2.6 3.6-3.5 3.6-3.8 3.6-3.7 3.6-3.8 3.6-3.2 3.6-2.8 3.6-2.5 3.6-3.5 3.6-3.7 3.6-3.6 3.6-3.2 3.6-3.4 3.6-3 3.6-2.7 3.6-3.3 3.6-3.9 3.6-3.7 3.6-3.7 3.6-3.6v34.1l-3.6 3.4-3.6 3.4-3.6 3.4-3.6 3.6-3.6 3-3.6 2.5-3.6 2.7-3.6 3.2-3.6 3-3.6 3.3-3.6 3.4-3.6 3.2-3.6 2.3-3.6 2.5-3.6 2.9-3.6 3.5-3.6 3.4-3.6 3.5-3.6 3.3-3.6 2.4-3.6 2.7-3.6 3.1-3.6 3.2-3.6 3.3-3.6 3.2-3.6 2.9-3.6 2.1-3.6 2.7-3.6 2.8-3.6 3.2-3.6 3-3.6 4.2-3.6 1.7-3.6 2.5-3.6 2-3.6 2.7-3.6 2.9-3.6 3.1-3.6 3-3.6 2.5-3.6 1.7-3.6 2-3.6 2.2-3.6 2.4-3.6 2.3-3.6 2.2-3.6 2.1-3.6 1.6-3.6 1.7-3.6 2.1-3.6 2.2-3.6 2.1-3.6 2.1-3.6 2-3.6 1.5-3.6 1.7-3.6 2-3.6 2-3.6 2.1-3.6 2-3.6 1.7-3.6 1.4-3.6 1.7-3.6 1.9-3.6 2-3.6 1.9-3.6 1.8-3.6 1.8-3.6 1.4-3.6 2-3.6 1-3.6 2.1-3.6 1.4-3.6 2.2-3.6 1.5-3.6 1.5-3.6 1.5-3.6 1.4-3.6 1-3.6 1.8-3.6 1.2-3.6 1.4-3.6 1.1-3.6 1.2-3.6 1.3-3.6 1.4-3.6 1.4-3.6 1.2-3.6 1.3-3.6.9-3.6 1.1-3.6 1.5-3.6 1.1-3.6 1.1-3.6 1-3.6.9-3.6.8-3.6.9-3.6.9-3.6.9-3.6.9-3.6.9-3.6.8-3.6.7-3.6.5-3.6.6-3.6.8-3.6.6-3.6.6-3.6.5-3.6.4-3.6.4-3.6.5-3.6.5-3.6.4-3.6.5-3.6.4-3.6.4-3.6.4-3.6.3-3.6.4-3.6.4-3.6.3-3.6.3-3.6.2-3.6.2-3.6.3-3.6.4-3.6.3-3.6.2-3.6.2-3.6.1-3.6.2-3.6.2-3.6.2-3.6.1-3.6.2-3.6.1-3.6.1-3.6.1-3.6.1-3.6.2-3.6.1-3.6.1-3.6.1-3.6.1-3.6.1-3.6.1-3.6.1-3.6.1-3.6.1-3.6.1H111.1z" fill="#5aa14e"/><path d="M111.1 594.9h248.8l3.6-.1 3.6-.1 3.6-.1 3.6-.1 3.6-.1 3.6-.1 3.6-.1 3.6-.1 3.6-.1 3.6-.1 3.6-.2 3.6-.1 3.6-.1 3.6-.1 3.6-.1 3.6-.2 3.6-.1 3.6-.2 3.6-.2 3.6-.2 3.6-.1 3.6-.2 3.6-.2 3.6-.3 3.6-.4 3.6-.3 3.6-.2 3.6-.2 3.6-.3 3.6-.3 3.6-.4 3.6-.4 3.6-.3 3.6-.4 3.6-.4 3.6-.4 3.6-.5 3.6-.4 3.6-.5 3.6-.5 3.6-.4 3.6-.4 3.6-.5 3.6-.6 3.6-.6 3.6-.8 3.6-.6 3.6-.5 3.6-.7 3.6-.8 3.6-.9 3.6-.9 3.6-.9 3.6-.9 3.6-.9 3.6-.8 3.6-.9 3.6-1 3.6-1.1 3.6-1.1 3.6-1.5 3.6-1.1 3.6-.9 3.6-1.3 3.6-1.2 3.6-1.4 3.6-1.4 3.6-1.3 3.6-1.2 3.6-1.1 3.6-1.4 3.6-1.2 3.6-1.8 3.6-1 3.6-1.4 3.6-1.5 3.6-1.5 3.6-1.5 3.6-2.2 3.6-1.4 3.6-2.1 3.6-1 3.6-2 3.6-1.4 3.6-1.8 3.6-1.8 3.6-1.9 3.6-2 3.6-1.9 3.6-1.7 3.6-1.4 3.6-1.7 3.6-2 3.6-2.1 3.6-2 3.6-2 3.6-1.7 3.6-1.5 3.6-2 3.6-2.1 3.6-2.1 3.6-2.2 3.6-2.1 3.6-1.7 3.6-1.6 3.6-2.1 3.6-2.2 3.6-2.3 3.6-2.4 3.6-2.2 3.6-2 3.6-1.7 3.6-2.5 3.6-3 3.6-3.1 3.6-2.9 3.6-2.7 3.6-2 3.6-2.5 3.6-1.7 3.6-4.2 3.6-3 3.6-3.2 3.6-2.8 3.6-2.7 3.6-2.1 3.6-2.9 3.6-3.2 3.6-3.3 3.6-3.2 3.6-3.1 3.6-2.7 3.6-2.4 3.6-3.3 3.6-3.5 3.6-3.4 3.6-3.5 3.6-2.9 3.6-2.5 3.6-2.3 3.6-3.2 3.6-3.4 3.6-3.3 3.6-3 3.6-3.2 3.6-2.7 3.6-2.5 3.6-3 3.6-3.6 3.6-3.4 3.6-3.4 3.6-3.4v145.5l-3.6 1.7-3.6 1.6-3.6 1.6-3.6 1.8-3.6 1.2-3.6 1.3-3.6 1.3-3.6 1.5-3.6 1.5-3.6 1.5-3.6 1.5-3.6 1.4-3.6 1.2-3.6 1.2-3.6 1.4-3.6 1.4-3.6 1.4-3.6 1.5-3.6 1.3-3.6 1.2 2.9 1.3-3.6 1.4-3.6 1.3-3.6 1.4-3.6 1.2-3.6 1.1-3.6 1.1-3.6 1.1-3.6 1.2-3.6 1.3-3.6 1.2-3.6 2.1-3.6.2-3.6 1-3.6 1.1-3.6 1.1-3.6 1.1-3.6 1.1-3.6 1-3.6.9-3.6.8-3.6.9-3.6.9-3.6.9-3.6.8-3.6.8-3.6.7-3.6.7-3.6.7-3.6.7-3.6.7-3.6.7-3.6.7-3.6.6-3.6.6-3.6.7-3.6.7-3.6.5-3.6.6-3.6.6-3.6.5-3.6.5-3.6.6-3.6.6-3.6.5-3.6.5-3.6.5-3.6.5-3.6.5-3.6.5-3.6.5-3.6.5-3.6.5-3.6.5-3.6.4-3.6.6-3.6.6-3.6.4-3.6.1-3.6.8-3.6.1-3.6.4-3.6.4-3.6.4-3.6.4-3.6.4-3.6.4-3.6.4-3.6.3-3.6.3-3.6.3-3.6.3-3.6.3-3.6.2-3.6.2-3.6.2-3.6.2-3.6.2-3.6.2-3.6.2-3.6.2-3.6.2-3.6.2-3.6.2-3.6.2-3.6.1-3.6.2-3.6.1-3.6.1-3.6.1-3.6.1-3.6.1-3.6.1-3.6.1-3.6.1-3.6.1-3.6.1-3.6.1-3.6.1-3.6.1-3.6.1-3.6.1-3.6.1-3.6.1-3.6.1-3.6.1-3.6.1-3.6.1-3.6.1h-3.6l-3.6.1h-3.6l-3.6.1H111.1z" fill="#edc94a"/><path d="M111.1 594.9h317.2l3.6-.1h3.6l3.6-.1h3.6l3.6-.1 3.6-.1 3.6-.1 3.6-.1 3.6-.1 3.6-.1 3.6-.1 3.6-.1 3.6-.1 3.6-.1 3.6-.1 3.6-.1 3.6-.1 3.6-.1 3.6-.1 3.6-.1 3.6-.1 3.6-.1 3.6-.1 3.6-.1 3.6-.1 3.6-.1 3.6-.2 3.6-.1 3.6-.2 3.6-.2 3.6-.2 3.6-.2 3.6-.2 3.6-.2 3.6-.2 3.6-.2 3.6-.2 3.6-.2 3.6-.2 3.6-.2 3.6-.3 3.6-.3 3.6-.3 3.6-.3 3.6-.3 3.6-.4 3.6-.4 3.6-.4 3.6-.4 3.6-.4 3.6-.4 3.6-.4 3.6-.1 3.6-.8 3.6-.1 3.6-.4 3.6-.6 3.6-.6 3.6-.4 3.6-.5 3.6-.5 3.6-.5 3.6-.5 3.6-.5 3.6-.5 3.6-.5 3.6-.5 3.6-.5 3.6-.5 3.6-.6 3.6-.6 3.6-.5 3.6-.5 3.6-.6 3.6-.6 3.6-.5 3.6-.7 3.6-.7 3.6-.6 3.6-.6 3.6-.7 3.6-.7 3.6-.7 3.6-.7 3.6-.7 3.6-.7 3.6-.7 3.6-.8 3.6-.8 3.6-.9 3.6-.9 3.6-.9 3.6-.8 3.6-.9 3.6-1 3.6-1.1 3.6-1.1 3.6-1.1 3.6-1.1 3.6-1 3.6-.2 3.6-2.1 3.6-1.2 3.6-1.3 3.6-1.2 3.6-1.1 3.6-1.1 3.6-1.1 3.6-1.2 3.6-1.4 3.6-1.3 3.6-1.4 3.6-1.3 3.6-1.2 3.6-1.3 3.6-1.5 3.6-1.4 3.6-1.4 3.6-1.4 3.6-1.2 3.6-1.2 3.6-1.4 3.6-1.5 3.6-1.5 3.6-1.5 3.6-1.5 3.6-1.3 3.6-1.3 3.6-1.2 3.6-1.8 3.6-1.6 3.6-1.6 3.6-1.7V595h-32.4 3.3-766.9z" fill="#b576a3"/><path d="M111.1 594.9h796-32.4 3.3-766.9z" fill="#f597a8"/><text fill="#2d3f50" font-family="'DMSans-Regular','DM Sans',sans-serif" font-size="24" transform="translate(102.334 628.376)">February</text><text fill="#2d3f50" font-family="'DMSans-Regular','DM Sans',sans-serif" font-size="24" transform="translate(222.528 628.376)">March</text><text fill="#2d3f50" font-family="'DMSans-Regular','DM Sans',sans-serif" font-size="24" transform="translate(344.165 628.376)">April</text><text fill="#2d3f50" font-family="'DMSans-Regular','DM Sans',sans-serif" font-size="24" transform="translate(455.467 628.376)">May</text><text fill="#2d3f50" font-family="'DMSans-Regular','DM Sans',sans-serif" font-size="24" transform="translate(564.763 628.376)">June</text><text fill="#2d3f50" font-family="'DMSans-Regular','DM Sans',sans-serif" font-size="24" transform="translate(678.177 628.376)">July</text><text fill="#2d3f50" font-family="'DMSans-Regular','DM Sans',sans-serif" font-size="24" transform="translate(774.49 628.376)">August</text><text fill="#2d3f50" font-family="'DMSans-Regular','DM Sans',sans-serif" font-size="21" transform="translate(88.632 601.52)">0</text><text fill="#2d3f50" font-family="'DMSans-Regular','DM Sans',sans-serif" font-size="21" transform="translate(90.333 500.25)">5</text><text fill="#2d3f50" font-family="'DMSans-Regular','DM Sans',sans-serif" font-size="21" transform="translate(82.29 398.981)">10</text><text fill="#2d3f50" font-family="'DMSans-Regular','DM Sans',sans-serif" font-size="21" transform="translate(83.991 297.712)">15</text><text fill="#2d3f50" font-family="'DMSans-Regular','DM Sans',sans-serif" font-size="21" transform="translate(76.83 196.442)">20</text><text fill="#2d3f50" font-family="'DMSans-Regular','DM Sans',sans-serif" font-size="21" transform="translate(10.157 95.173)">25 million</text><path d="M130.7 71.7h13.7v13.7h-13.7z" fill="#bcbcbb"/><text fill="#010101" font-family="'DMSans-Regular','DM Sans',sans-serif" font-size="18" transform="translate(151.707 83.795)">East Asia &amp; Pacific: China</text><path d="M130.7 98h13.7v13.7h-13.7z" fill="#527ea3"/><text fill="#010101" font-family="'DMSans-Regular','DM Sans',sans-serif" font-size="18" transform="translate(151.707 110.11)">East Asia &amp; Pacific</text><path d="M130.7 124.3h13.7V138h-13.7z" fill="#f28f2a"/><text fill="#010101" font-family="'DMSans-Regular','DM Sans',sans-serif" font-size="18" transform="translate(151.707 136.427)">North America</text><path d="M130.7 150.6h13.7v13.7h-13.7z" fill="#e05859"/><text fill="#010101" font-family="'DMSans-Regular','DM Sans',sans-serif" font-size="18" transform="translate(151.707 162.744)">Sub-Saharan Africa</text><path d="M130.7 176.9h13.7v13.7h-13.7z" fill="#76b7b3"/><text fill="#010101" font-family="'DMSans-Regular','DM Sans',sans-serif" font-size="18" transform="translate(151.707 189.06)">Europe &amp; Central Asia</text><path d="M130.7 203.2h13.7v13.7h-13.7z" fill="#5aa14e"/><text fill="#010101" font-family="'DMSans-Regular','DM Sans',sans-serif" font-size="18" transform="translate(151.707 215.376)">Middle East &amp; North Africa</text><path d="M130.7 229.6h13.7v13.7h-13.7z" fill="#edc94a"/><text fill="#010101" font-family="'DMSans-Regular','DM Sans',sans-serif" font-size="18" transform="translate(151.707 241.693)">Latin America &amp; Caribbean</text><path d="M130.7 255.9h13.7v13.7h-13.7z" fill="#b576a3"/><text fill="#010101" font-family="'DMSans-Regular','DM Sans',sans-serif" font-size="18" transform="translate(151.707 268.01)">South Asia</text><path d="M111.6 602.2v-5h803.2v5m-763.2-5.5v5.5m105.4-5.5v5.5m112.6-5.5v5.5m109-5.5v5.5m112.7-5.5v5.5m109.1-5.5v5.5m112.7-5.5v5.5m-701.5-6.9V68.7m-.5 526.6h-5.4m5.4-101.2h-5.4m5.4-101.3h-5.4m5.4-101.3h-5.4m5.4-101.2h-5.4M111.1 89h-5.4" fill="none" stroke="#2d3f50" stroke-width=".911"/></svg>