<svg xmlns="http://www.w3.org/2000/svg" xml:space="preserve" x="0" y="0" version="1.1" viewBox="0 0 396.4 396.4"><circle cx="198.2" cy="203" r="180"/><circle fill="#114068" cx="198.2" cy="204.7" r="151.6"/><linearGradient id="a" x1="195.224" x2="333.495" y1="53.705" y2="293.199" gradientUnits="userSpaceOnUse"><stop offset="0" stop-color="#39c2e2"/><stop offset=".678" stop-color="#39c2e2" stop-opacity="0"/></linearGradient><path d="m196.1 212.6 114.2 94c24.5-26.9 39.6-62.6 39.6-101.9 0-83.7-67.9-151.6-151.6-151.6-.7 0-1.4.1-2.1.1v159.4z" fill="url(#a)"/><path d="M198.2 272.2c-32.4 0-58.8-26.4-58.8-58.8s26.4-58.8 58.8-58.8S257 181 257 213.4s-26.4 58.8-58.8 58.8zm0-110.6c-28.5 0-51.7 23.2-51.7 51.7s23.2 51.7 51.7 51.7c28.5 0 51.7-23.2 51.7-51.7s-23.2-51.7-51.7-51.7z" fill="#fff"/><path d="M198.2 330.8c-64.7 0-117.4-52.7-117.4-117.4S133.5 95.9 198.2 95.9s117.4 52.7 117.4 117.4-52.7 117.5-117.4 117.5zm0-227.8c-60.8 0-110.3 49.5-110.3 110.3s49.5 110.3 110.3 110.3 110.3-49.5 110.3-110.3S259 103 198.2 103z" fill="#fff"/><circle fill="#d13b62" cx="269.7" cy="172.8" r="18.7"/><circle fill="#d13b62" cx="126.5" cy="259.3" r="9.4"/><circle fill="#d13b62" cx="225.3" cy="259.3" r="27.1"/><path d="M194.6 23c-.3.6 0 2.4 0 3.1v186.4c0 2.3 1.6 4.1 3.6 4.1s3.6-1.9 3.6-4.1V26.1c0-.7.3-2.5 0-3.1h-7.2z" fill="#fff"/></svg>