<svg xmlns="http://www.w3.org/2000/svg" width="1175.906" height="358.156" version="1.1"><path d="M176.965.012C78.38.012-.015 80.505-.015 178.555c0 99.123 78.394 179.636 176.981 179.636 99.107 0 176.449-80.498 176.449-179.604C353.432 80.537 276.073.012 176.965.012zm0 75.786c80.498 0 139.467 51.12 164.386 102.788-24.919 52.457-83.888 103.82-164.386 103.82-81.017 0-139.514-51.38-164.416-103.82C37.45 126.936 95.965 75.829 176.965 75.829v-.03zm0 8.125c-52.439 0-95.193 42.443-95.193 94.632 0 52.976 42.754 95.194 95.193 95.194 52.44 0 94.632-42.22 94.632-95.163 0-52.188-42.191-94.663-94.632-94.663zm345.648-62.66c-92.562 0-157.072 70.265-157.072 155.73v1.03c0 86.522 65.824 154.98 154.728 154.98 57.944 0 92.564-20.726 123.508-54.036l-42.222-42.44c-23.61 21.48-44.873 35.409-79.223 35.409-51.652 0-87.569-43.31-87.569-94.944v-.78c0-51.652 36.706-93.882 87.569-93.882 30.155 0 53.756 12.851 77.099 34.096l42.221-48.785c-28.059-27.52-62.137-46.378-119.04-46.378zm146.134 5.22V327.72h143.416c67.895 0 112.725-27.497 112.725-82.537v-1.062c0-40.375-21.474-60.585-56.378-73.943 21.513-12.049 39.596-30.922 39.596-65.004v-.781c0-20.742-6.825-37.516-20.72-51.41-17.284-17.033-44.294-26.501-78.661-26.501H668.747zm64.473 57.94h65.567c28.057 0 43.503 11.273 43.503 30.94v1.063c0 22.285-18.606 31.72-47.973 31.72l-61.097.032V84.424zm0 118.821h76.85c33.795 0 49.002 12.596 49.002 32.783v1.031c0 22.286-17.81 32.502-46.91 32.502l-78.942.031v-66.346zm321.646-181.2c-61.35 0-105.382 36.173-105.382 90.944v.812c0 59.807 39.303 76.597 99.881 92.07 50.343 13.088 60.817 21.47 60.817 38.252v1.062c0 17.553-16.534 28.315-43.534 28.315-34.619 0-62.927-14.187-89.943-36.472l-39.316 46.941c36.18 32.252 82.32 48.003 127.946 48.003v-.032c65.025 0 110.633-33.579 110.633-93.318v-.78c0-52.692-34.596-74.5-95.695-90.476-51.903-13.391-65.035-19.929-65.035-39.596v-.781c0-14.683 13.376-26.47 38.816-26.47 25.438 0 51.663 11.252 78.41 29.845l34.347-50.034c-30.424-24.383-67.896-38.284-111.945-38.284z"/></svg>