<?xml version="1.0" standalone="no"?>
<!DOCTYPE svg PUBLIC "-//W3C//DTD SVG 20010904//EN"
 "http://www.w3.org/TR/2001/REC-SVG-20010904/DTD/svg10.dtd">
<svg version="1.0" xmlns="http://www.w3.org/2000/svg"
 width="900.000000pt" height="300.000000pt" viewBox="0 0 900.000000 300.000000"
 preserveAspectRatio="xMidYMid meet">

<g transform="translate(0.000000,300.000000) scale(0.100000,-0.100000)"
fill="#000000" stroke="none">
<path d="M230 2605 c0 -63 2 -115 3 -115 2 0 39 9 83 21 112 30 296 30 416 1
277 -68 539 -240 709 -465 l59 -78 0 375 0 376 -635 0 -635 0 0 -115z"/>
<path d="M1870 2080 l0 -630 345 0 345 0 0 130 0 130 -195 0 -195 0 0 130 0
130 175 0 175 0 0 130 0 130 -175 0 -175 0 0 110 0 110 190 0 190 0 0 130 0
130 -340 0 -340 0 0 -630z"/>
<path d="M4620 2080 l0 -630 145 0 145 0 0 121 c0 106 3 126 22 160 12 22 24
39 27 39 3 0 37 -72 76 -160 l69 -160 267 0 267 0 11 88 c20 148 4 132 140
132 l118 0 12 -92 c7 -51 15 -101 17 -110 5 -16 21 -18 161 -18 148 0 155 1
150 19 -2 11 -65 294 -138 630 l-134 611 -187 0 -186 0 -16 -67 c-8 -38 -63
-288 -122 -558 -58 -269 -109 -493 -113 -497 -3 -3 -52 90 -108 209 l-102 215
119 196 119 197 -146 3 c-81 1 -150 -1 -155 -6 -5 -5 -42 -77 -82 -161 -41
-84 -77 -155 -80 -158 -3 -4 -6 136 -6 310 l0 317 -145 0 -145 0 0 -630z
m1215 91 c20 -134 34 -245 32 -248 -3 -2 -40 -3 -84 -1 l-79 3 40 264 c24 161
43 257 47 245 4 -10 24 -129 44 -263z"/>
<path d="M6260 2080 l0 -630 145 0 145 0 0 630 0 630 -145 0 -145 0 0 -630z"/>
<path d="M8490 2498 c0 -117 7 -307 15 -423 8 -115 15 -223 15 -238 l0 -28
108 3 107 3 17 230 c9 127 17 328 17 448 l1 217 -140 0 -140 0 0 -212z"/>
<path d="M7920 2560 l0 -130 -75 0 c-55 0 -86 -5 -114 -19 -44 -23 -52 -32
-91 -102 l-30 -54 0 78 0 77 -135 0 -135 0 0 -480 0 -480 139 0 140 0 3 298
c3 270 5 300 22 328 31 52 68 67 177 72 l97 5 4 -294 c3 -283 4 -296 26 -336
33 -62 67 -76 195 -81 59 -2 123 -1 142 2 l35 7 0 104 0 105 -38 0 c-70 0 -72
6 -72 263 l0 227 55 0 55 0 0 140 0 140 -55 0 -55 0 0 130 0 130 -145 0 -145
0 0 -130z"/>
<path d="M3755 2414 c-46 -24 -73 -53 -100 -108 l-24 -51 -1 78 0 77 -135 0
-135 0 0 -480 0 -480 139 0 140 0 3 298 c3 261 5 301 21 329 24 46 66 64 143
64 l64 0 0 145 0 144 -42 0 c-24 0 -56 -7 -73 -16z"/>
<path d="M4105 2416 c-159 -50 -220 -165 -232 -436 -11 -271 34 -435 141 -504
61 -39 110 -50 226 -50 87 0 113 4 155 22 103 47 159 135 172 269 l6 63 -125
0 -126 0 -6 -47 c-10 -71 -24 -100 -57 -113 -24 -10 -33 -10 -54 4 -37 24 -45
48 -52 151 l-6 95 217 0 216 0 0 104 c0 120 -19 233 -50 299 -30 64 -96 122
-161 141 -63 19 -207 20 -264 2z m182 -190 c26 -23 28 -31 32 -110 l3 -86 -87
0 -87 0 3 86 c4 79 6 87 32 110 15 13 39 24 52 24 13 0 37 -11 52 -24z"/>
<path d="M6818 2417 c-141 -40 -206 -146 -229 -374 -15 -139 0 -326 31 -420
29 -84 84 -145 158 -174 46 -18 78 -23 167 -23 105 -1 113 1 178 32 99 49 146
130 160 275 l5 47 -129 0 -129 0 -1 -37 c-1 -94 -49 -148 -106 -121 -42 20
-53 53 -53 156 l0 92 211 0 211 0 -5 148 c-5 165 -19 223 -70 298 -23 35 -48
57 -91 79 -52 26 -70 30 -160 32 -61 2 -120 -2 -148 -10z m171 -177 c28 -14
43 -61 44 -137 l2 -68 -85 0 -85 0 -3 40 c-11 128 50 207 127 165z"/>
<path d="M2602 1988 c3 -415 3 -424 25 -465 29 -53 69 -81 137 -95 103 -22
209 23 251 107 l15 30 0 -57 0 -58 140 0 140 0 0 480 0 481 -142 -3 -143 -3
-5 -356 c-4 -281 -8 -359 -19 -372 -19 -24 -74 -22 -97 4 -18 20 -19 43 -22
375 l-3 354 -140 0 -140 0 3 -422z"/>
<path d="M555 2346 c-120 -38 -247 -142 -299 -243 l-26 -52 0 -296 0 -295 392
0 c216 0 388 4 382 8 -5 4 -36 30 -68 57 -73 61 -138 146 -185 245 -34 71 -36
81 -36 176 0 99 1 102 37 160 50 80 99 108 185 101 85 -6 174 -50 254 -125
101 -94 150 -208 120 -279 -17 -41 -96 -88 -146 -87 -103 2 -234 128 -235 225
0 32 32 74 71 95 27 13 33 13 72 -4 60 -27 72 -44 47 -67 -20 -18 -22 -18 -64
3 -54 28 -56 27 -56 -3 0 -73 111 -175 191 -175 31 0 38 4 43 25 9 35 -8 91
-43 147 -72 113 -248 185 -326 134 -28 -18 -40 -68 -31 -126 25 -156 153 -312
325 -398 63 -31 87 -38 153 -41 89 -4 101 2 129 64 48 105 -4 292 -120 435
-121 149 -313 275 -483 315 -76 18 -228 18 -283 1z"/>
<path d="M8500 1585 l0 -135 135 0 135 0 0 135 0 135 -135 0 -135 0 0 -135z"/>
<path d="M5340 773 c0 -252 4 -451 9 -443 4 8 75 192 156 407 82 216 150 391
152 390 1 -2 -51 -173 -117 -381 -67 -209 -119 -380 -117 -382 2 -2 63 158
137 356 73 198 135 359 136 357 3 -2 -195 -651 -226 -742 -6 -16 -6 -25 -1
-20 5 6 64 161 131 345 68 184 127 339 132 345 5 5 4 -4 -2 -20 -29 -85 -199
-659 -197 -662 2 -1 34 63 72 143 54 115 66 147 55 154 -11 7 -2 40 46 169 32
88 60 157 62 153 1 -4 -18 -76 -42 -160 -33 -114 -40 -152 -30 -152 8 0 14 -3
14 -7 0 -5 -27 -75 -61 -156 -34 -81 -59 -150 -57 -153 3 -2 104 -3 226 -2
l221 3 -76 235 c-118 370 -211 607 -261 663 -13 15 -36 17 -189 17 l-173 0 0
-457z"/>
<path d="M5959 1158 c50 -94 131 -297 236 -595 l84 -238 1 453 0 452 -180 0
-179 0 38 -72z"/>
<path d="M6713 933 c-17 -43 -69 -186 -117 -318 -48 -132 -94 -249 -101 -259
-8 -10 -31 -24 -52 -31 -45 -17 -44 -17 75 -17 96 0 121 5 77 16 -33 8 -32 27
7 148 l32 99 105 -3 104 -3 43 -110 c23 -60 40 -118 38 -127 -6 -20 19 -22
226 -20 121 1 123 2 90 11 -37 10 -37 46 0 156 l32 95 103 0 103 0 17 -42 c57
-141 73 -196 62 -207 -8 -8 6 -11 53 -13 55 -1 265 0 280 2 3 0 -6 6 -20 13
-32 17 -30 45 11 160 l31 87 103 0 103 0 42 -114 c24 -63 40 -122 37 -130 -5
-12 1 -16 26 -17 18 0 57 -2 88 -5 61 -6 90 10 40 21 -55 12 -63 29 -206 400
-59 154 -110 282 -112 284 -10 12 -32 -40 -138 -329 -64 -173 -124 -323 -134
-334 -22 -21 -64 -24 -87 -5 -24 20 -40 55 -160 368 -63 162 -116 297 -119
300 -12 11 -28 -26 -124 -290 -129 -356 -129 -356 -158 -379 -35 -27 -77 -10
-105 44 -12 22 -72 171 -134 331 -61 159 -116 291 -122 293 -5 1 -23 -32 -39
-75z m71 -201 c20 -57 36 -108 36 -113 0 -5 -39 -9 -86 -9 -65 0 -85 3 -82 13
3 6 22 63 43 126 24 73 40 109 45 100 5 -8 24 -61 44 -117z m635 8 c23 -63 41
-118 41 -122 0 -5 -39 -8 -86 -8 -84 0 -85 0 -79 23 27 86 68 213 72 220 8 13
9 10 52 -113z m635 7 c21 -61 41 -118 44 -124 3 -10 -18 -13 -83 -13 -78 0
-87 2 -82 18 24 88 72 232 77 232 3 0 23 -51 44 -113z"/>
<path d="M8520 988 c-48 -25 -90 -89 -90 -138 0 -73 19 -103 136 -215 127
-122 144 -154 121 -223 -18 -52 -57 -77 -122 -77 -69 0 -104 25 -126 88 -8 26
-19 44 -22 40 -4 -3 -7 -37 -7 -73 0 -67 0 -68 33 -81 18 -8 65 -14 107 -14
63 0 83 5 120 27 59 34 93 93 93 162 0 70 -21 113 -84 171 -172 160 -179 169
-179 214 0 34 6 49 30 73 29 28 35 30 90 26 67 -5 95 -24 105 -69 11 -51 25
-31 25 35 l0 63 -46 7 c-86 11 -138 7 -184 -16z"/>
</g>
</svg>
