<?xml version="1.0" encoding="UTF-8" standalone="no"?>
<!DOCTYPE svg PUBLIC "-//W3C//DTD SVG 1.1//EN" "http://www.w3.org/Graphics/SVG/1.1/DTD/svg11.dtd">
<svg
   xmlns:svg="http://www.w3.org/2000/svg"
   xmlns="http://www.w3.org/2000/svg"
   version="1.1"
   width="883.17999"
   height="153.78999"
   id="svg10490">
  <defs
     id="defs10492" />
  <path
     d="M 12.44,94.17 V 49.25 H 0 V 36.97 L 12.44,35.3 V 19.98 l 26.84,-3.77 v 19.1 h 17.8 v 14 h -17.8 v 42.6 c 0,8 2.23,12.1 10.1,12.1 2.8,0 6.62,-0.3 8.57,-0.7 v 10.39 c -4.3,2.54 -13.5,4.7 -22,4.7 -16,0 -23.5,-7.05 -23.5,-24.23 z M 191.39,42.43 c 6.74,0 10.38,1.2 10.38,25.02 l -22.5,1.32 c 0.3,-21.6 3.56,-26.34 12.12,-26.34 z m -11.9,36.03 h 48.38 c 0,-34.06 -11.7,-44.92 -36.03,-44.92 -24.17,0 -40.03,15.56 -40.03,42.28 0,27.6 14.38,42.87 42.26,42.87 14.98,0 27.08,-6.7 30.84,-11.8 v -7.9 c -5.63,1.7 -11.42,2.8 -21.8,2.8 -14.65,0 -22.2,-7.6 -23.62,-23.4 z m -119.22,30.84 8.6,-3.96 v -88.3 l -9.05,-4.2 V 5.47 l 33.46,-5.4 h 2.27 v 44.18 h 0.9 c 7.3,-6.6 17.1,-10.72 28,-10.72 13.7,0 20.5,6.82 20.5,21.7 v 50.1 l 8.7,3.97 v 7.47 h -44.3 v -7.47 l 8.7,-3.97 V 61.3 c 0,-8.24 -3.6,-11.32 -10.9,-11.32 -4,0 -7.8,0.73 -11.1,2.06 v 53.3 l 8.7,3.98 v 7.47 H 60.34 v -7.5 z"
     id="path10468"
     style="fill:#a2c0d8" />
  <path
     d="m 647.44,38.83 v 7.38 l 9.04,4.2 v 55 l -8.62,4 v 7.5 h 44.23 v -7.4 l -8.62,-4 v -72 h -2.27 l -33.76,5.39 z m 91.7,62.25 V 79.15 l -6.28,0.6 c -6.25,0.6 -11.37,4.75 -11.37,12.52 0,8.95 4.92,11.9 10.1,11.9 3,0 6.05,-1.48 7.54,-3.1 z M 720.1,44.44 714.4,61 H 700.44 V 39.7 c 7.54,-2.34 16.73,-6.16 30.96,-6.16 21.65,0 34.66,6.4 34.66,24.6 v 47.2 l 8.6,4 v 6.12 c -2.64,1.42 -8.62,3.23 -15.15,3.23 -8.45,0 -16.03,-2.7 -17.28,-11.5 h -0.8 c -3.6,7.2 -13.2,11.6 -23.3,11.6 -14.4,0 -23.5,-9.3 -23.5,-22.8 0,-16.6 10.9,-19.3 28.7,-23 l 15.5,-2.7 V 59.7 c 0,-10.42 -3.2,-15.6 -13.5,-15.6 -1.4,0 -3.9,0.18 -5.5,0.34 z m 56.76,64.87 8.6,-3.9 v -55 l -9.05,-4.2 v -7.3 l 33.47,-5.3 h 2.27 v 10.8 h 0.9 c 7.3,-6.6 17.1,-10.7 28,-10.7 13.7,0 20.5,6.8 20.5,21.7 v 50.1 l 8.7,4 v 7.5 h -44.3 v -7.4 l 8.7,-3.92 V 61.3 c 0,-8.24 -3.6,-11.32 -10.9,-11.32 -4,0 -7.8,0.73 -11.1,2.06 v 53.3 l 8.6,3.98 v 7.47 h -44.2 v -7.5 z m -167,-92.2 -9.02,-4.1 v -7.4 l 33.74,-5.4 h 2.27 v 102.7 l 8.6,4.7 v 7 l -32,3.7 h -2.2 v -8.4 h -0.9 c -3.4,4.3 -10.3,8.8 -20.4,8.8 -14.8,0 -32.5,-9.4 -32.5,-40.5 0,-32.7 18.1,-44.5 39.6,-44.5 4.5,0 9.8,1 13.1,3.4 v -20 z m 0,85.4 V 47.6 c -2.1,-1.6 -4.3,-2.93 -9.2,-2.93 -8.44,0 -14.9,7.6 -14.9,30.5 0,20.06 5.1,28.8 15.78,28.8 4.15,0 6.48,-0.84 8.3,-1.58 z m -334.74,41.3 c -14.74,0 -19.8,-5.2 -19.8,-10.8 0,-3.9 1.04,-6.6 3.12,-9.1 h 28.53 c 6.67,0 9.7,2 9.7,6.2 0.02,8.4 -4.65,13.7 -21.55,13.7 z m 0.23,-100.8 c 5.9,0 9.7,2.6 9.7,18.8 0,16.2 -3.81,17.89 -9.61,17.89 -5.8,0 -9.54,-1.35 -9.54,-17.87 0,-16.5 3.7,-18.8 9.58,-18.8 z m 17.9,56.3 h -29 c -3.1,0 -5.7,-2.4 -5.7,-5.2 0,-2.2 1.6,-4.5 3.6,-6 4.4,1.3 8,1.7 13.4,1.7 20.9,0 35.2,-9.5 35.2,-27.2 0,-7.9 -3.3,-12.4 -8.5,-17 v -0.6 l 13.4,4.7 1.8,0.1 V 33.5 h -1.5 l -20.63,4.1 h -1.15 c -5.14,-1.9 -12.3,-3.9 -18.8,-3.9 -20.9,0 -35.36,10.37 -35.36,27.98 0,10.73 5.4,18.72 13.47,23.14 v 0.85 c -4.66,3.28 -13.6,10.02 -13.6,18.65 0,6.3 4.16,12.53 12.86,14.4 v 0.87 c -9.15,1.9 -19.4,4.9 -19.4,15.4 0,10.8 15.65,18.8 41.16,18.8 31.7,0 45.42,-12.2 45.42,-31.5 0,-15.9 -8.8,-23.3 -26.7,-23.3 z m 203.1,-60.4 v 7.4 l 9.1,4.2 v 55 l -8.6,4 v 7.5 h 46.59 v -7.4 l -11.1,-4 V 60.3 c 4.6,-2.2 10.65,-2.94 17.9,-2.94 2.38,0 5.2,0.3 6.83,0.73 V 34.4 c -0.9,-0.3 -2.67,-0.44 -4,-0.44 -8.9,0 -16.17,5.73 -20.92,16.6 h -0.8 V 33.44 h -2.3 l -32.7,5.38 z m -37.2,62.3 v -22 l -6.2,0.6 c -6.2,0.6 -11.3,4.8 -11.3,12.6 0,9 4.9,11.9 10.1,11.9 3,0 6.06,-1.5 7.54,-3.1 z m -19.1,-56.7 -5.7,16.6 h -14 V 39.7 c 7.6,-2.34 16.8,-6.16 31,-6.16 21.7,0 34.7,6.4 34.7,24.6 v 47.2 l 8.6,4 v 6.12 c -2.6,1.42 -8.6,3.23 -15.1,3.23 -8.4,0 -16,-2.7 -17.2,-11.5 h -0.8 c -3.6,7.2 -13.2,11.6 -23.24,11.6 -14.37,0 -23.4,-9.3 -23.4,-22.8 0,-16.6 10.97,-19.3 28.76,-23 l 15.58,-2.7 V 59.7 c 0,-10.42 -3.14,-15.6 -13.5,-15.6 -1.35,0 -3.9,0.18 -5.52,0.34 z m -111.4,5.9 -9,-4.2 v -7.3 l 33.8,-5.3 h 2.3 V 90.7 c 0,9.25 4.53,10.9 11.35,10.9 5,0 7,-0.9 9.7,-1.93 V 50.4 l -9.1,-4.2 v -7.37 l 33.7,-5.38 h 2.2 v 69.4 l 9,4.7 v 7.04 l -32.8,3.6 h -2.36 l -0.03,-10.8 h -0.9 c -5.18,6.4 -13.73,11.1 -24.7,11.1 -16.3,0 -23.27,-11.6 -23.27,-25.7 V 50.4 z M 669.44,0 c 8,0 14.45,6.47 14.45,14.46 0,7.98 -6.47,14.46 -14.46,14.46 -8,0 -14.5,-6.4 -14.5,-14.4 0,-8 6.5,-14.4 14.5,-14.4 z m 196.5,112.36 17.24,0.04"
     id="path10470"
     style="fill:#0a5787" />
</svg>
