<?xml version="1.0" encoding="UTF-8"?>
<!DOCTYPE svg PUBLIC "-//W3C//DTD SVG 1.1//EN" "http://www.w3.org/Graphics/SVG/1.1/DTD/svg11.dtd">
<!-- Creator: CorelDRAW 2017 -->
<svg xmlns="http://www.w3.org/2000/svg" xml:space="preserve" width="4.48999in" height="0.447917in" version="1.1" style="shape-rendering:geometricPrecision; text-rendering:geometricPrecision; image-rendering:optimizeQuality; fill-rule:evenodd; clip-rule:evenodd"
viewBox="0 0 4480 446.92"
 xmlns:xlink="http://www.w3.org/1999/xlink">
 <defs>
  <style type="text/css">
   <![CDATA[
    .fil0 {fill:black}
    .fil1 {fill:#FF1204}
   ]]>
  </style>
 </defs>
 <g id="Layer_x0020_1">
  <metadata id="CorelCorpID_0Corel-Layer"/>
  <path class="fil0" d="M718.6 41.98l-304.64 0 -31.58 113.23 13.76 0c46.36,-74.46 62.66,-96.17 104.94,-96.17l32.09 0 -61.64 293.67c-6.12,28.96 -14.77,32.06 -55.53,36.71l-3.06 15.52 155.88 0 3.56 -15.52c-36.17,-3.62 -47.37,-6.2 -40.75,-36.71l61.13 -293.67 37.7 0c42.28,0 33.3,21.72 46.04,96.17l13.25 0 28.85 -113.23z"/>
  <path class="fil0" d="M901.11 371.84c-4.58,0 -7.13,-2.58 -7.13,-7.75 0,-4.14 2.04,-12.93 4.58,-22.23l39.73 -150.97c1.53,-7.75 3.06,-17.06 3.06,-23.78 0,-23.78 -9.17,-38.26 -34.64,-38.26 -48.91,0 -105.96,68.77 -136.02,127.71l63.68 -256.45 -7.64 0 -89.15 20.68 -2.03 8.27 32.6 16.03 -88.13 359.86 55.53 0 18.34 -73.94c22.41,-91.51 92.71,-164.93 121.75,-164.93 6.62,0 9.17,3.62 9.17,10.86 0,4.14 -1.02,10.34 -2.55,16.55l-36.68 134.42c-5.09,19.13 -7.13,32.05 -7.13,43.95 0,22.75 12.74,38.26 35.15,38.26 28.02,0 48.91,-22.23 81,-69.8l-8.66 -6.72c-21.9,27.4 -35.15,38.26 -44.83,38.26z"/>
  <path class="fil0" d="M1176.91 181.06c0,-28.44 -19.87,-52.22 -63.68,-52.22 -82.52,0 -151.81,95.13 -151.81,185.61 0,57.39 31.58,95.65 84.05,95.65 44.83,0 79.47,-25.85 112.07,-74.45l-9.68 -7.76c-24.96,32.05 -48.9,49.12 -77.94,49.12 -33.11,0 -52.98,-26.37 -52.98,-72.9 0,-6.21 0.51,-12.93 1.02,-19.13 81.5,-16.55 158.94,-38.78 158.94,-103.92zm-72.34 -35.16c17.83,0 24.96,13.44 24.96,29.99 0,50.67 -36.68,79.11 -110.04,96.69 9.17,-62.56 44.32,-126.67 85.07,-126.67z"/>
  <path class="fil0" d="M1378.5 94.2c6.12,-28.95 12.74,-32.05 50.43,-36.71l3.57 -15.51 -146.21 0 -3.06 15.51c33.12,4.14 41.77,6.21 35.15,36.71l-54.51 258.51c-5.6,28.96 -12.74,32.06 -50.43,36.71l-3.57 15.52 146.21 0 3.56 -15.52c-33.62,-4.13 -42.28,-6.2 -35.66,-36.71l54.5 -258.51z"/>
  <path class="fil0" d="M1604.13 371.85c-4.58,0 -7.13,-2.59 -7.13,-7.76 0,-4.14 2.04,-12.92 4.58,-22.23l39.73 -150.97c1.53,-7.75 3.06,-17.06 3.06,-23.78 0,-23.79 -9.17,-38.26 -34.64,-38.26 -48.9,0 -105.96,69.28 -136.52,127.71l34.13 -127.71 -7.64 0 -88.64 22.23 -1.53 7.76 30.06 17.06 -56.55 229.05 55.53 0 18.34 -73.94c22.41,-91.52 92.71,-164.93 121.75,-164.93 6.62,0 9.17,3.62 9.17,10.85 0,4.14 -1.53,10.34 -3.06,16.55l-36.17 134.43c-5.09,19.13 -7.13,32.05 -7.13,43.95 0,22.75 12.74,38.26 35.15,38.26 28.02,0 48.91,-22.23 81,-69.8l-8.66 -6.72c-21.91,27.4 -35.15,38.26 -44.83,38.26z"/>
  <path class="fil0" d="M1883.52 371.84c-4.58,0 -7.13,-2.58 -7.13,-7.75 0,-4.14 2.04,-12.93 4.59,-22.23l83.04 -341.76 -7.13 0 -89.66 20.68 -1.53 8.27 32.6 16.03 -24.96 100.82c-13.24,-12.41 -25.98,-17.06 -47.37,-17.06 -79.47,0 -161.49,97.72 -161.49,204.23 0,47.56 20.38,77.04 55.53,77.04 41.77,0 92.21,-61.01 122.26,-127.19 -9.16,27.4 -20.38,73.94 -20.38,88.93 0,23.27 11.72,38.26 34.13,38.26 28.02,0 48.9,-22.23 81,-69.8l-8.66 -6.72c-21.9,27.4 -35.15,38.26 -44.83,38.26zm-139.58 -1.55c-16.81,0 -22.93,-18.09 -22.93,-43.95 0,-80.66 50.43,-181.48 110.04,-181.48 16.81,0 31.07,9.82 37.19,25.34 -29.55,122.02 -87.11,200.09 -124.3,200.09z"/>
  <path class="fil0" d="M2324.63 333.56c-22.41,27.4 -35.66,38.26 -44.83,38.26 -4.58,0 -7.13,-2.58 -7.13,-7.76 0,-4.14 2.03,-12.92 4.07,-22.23l37.7 -156.14 18.34 -60.5 -12.23 0 -41.77 25.34c-13.76,-13.96 -29.55,-21.72 -53.49,-21.72 -79.98,0 -158.94,97.72 -158.94,204.23 0,47.56 19.87,77.04 55.02,77.04 41.77,0 84.56,-55.33 115.13,-120.99 -9.68,26.88 -18.85,67.73 -18.85,82.72 0,23.26 12.22,38.26 34.64,38.26 27.51,0 48.9,-22.23 81,-69.8l-8.66 -6.72zm-179.32 36.71c-15.79,0 -22.93,-16.02 -22.93,-40.85 0,-86.86 50.43,-184.58 107.49,-184.58 16.81,0 30.06,9.82 36.17,25.33 -31.08,123.06 -83.55,200.09 -120.73,200.09z"/>
  <path class="fil0" d="M2554.4 371.85c-4.59,0 -7.13,-2.59 -7.13,-7.76 0,-4.14 2.04,-12.92 4.58,-22.23l39.73 -150.97c1.53,-7.75 3.06,-17.06 3.06,-23.78 0,-23.79 -9.17,-38.26 -34.64,-38.26 -48.9,0 -105.96,69.28 -136.52,127.71l34.13 -127.71 -7.64 0 -88.64 22.23 -1.53 7.76 30.06 17.06 -56.55 229.05 55.53 0 18.34 -73.94c22.41,-91.52 92.71,-164.93 121.75,-164.93 6.62,0 9.17,3.62 9.17,10.85 0,4.14 -1.53,10.34 -3.06,16.55l-36.17 134.43c-5.1,19.13 -7.13,32.05 -7.13,43.95 0,22.75 12.74,38.26 35.15,38.26 28.02,0 48.91,-22.23 81,-69.8l-8.66 -6.72c-21.91,27.4 -35.15,38.26 -44.83,38.26z"/>
  <path class="fil0" d="M2043.76 91.1c20.37,0 36.67,-17.06 36.67,-37.23 0,-18.09 -14.26,-33.09 -34.13,-33.09 -20.89,0 -36.68,16.54 -36.68,37.22 0,18.1 14.27,33.09 34.14,33.09z"/>
  <path class="fil0" d="M2006.06 371.85c-4.58,0 -7.13,-2.59 -7.13,-7.76 0,-4.14 2.04,-12.92 4.58,-22.23l52.47 -213.02 -7.64 0 -88.13 22.23 -2.04 7.76 30.06 17.06 -37.7 152.01c-5.09,19.65 -6.62,32.05 -6.62,43.95 0,22.75 12.23,38.26 34.64,38.26 27.51,0 48.9,-22.23 81,-69.8l-8.66 -6.72c-22.41,27.4 -35.15,38.26 -44.83,38.26z"/>
  <path class="fil1" d="M325.04 175.06l-143 -128.85c-18.75,-16.46 -6.4,-43.6 -6.4,-43.6l-2.94 -2.6 -29.91 37.39c-16.8,20.67 -13.85,51.77 6.21,69.35l143.01 128.85c18.74,16.46 6.4,43.6 6.4,43.6l2.94 2.61 29.91 -37.39c16.8,-20.68 13.85,-51.77 -6.21,-69.36z"/>
  <path class="fil1" d="M259.12 257.62l-143.01 -128.86c-18.74,-16.46 -6.4,-43.6 -6.4,-43.6l-2.95 -2.6 -29.91 37.39c-16.8,20.68 -13.85,51.77 6.21,69.35l143.01 128.85c18.74,16.46 6.4,43.61 6.4,43.61l2.95 2.6 29.91 -37.39c16.8,-20.68 13.85,-51.77 -6.21,-69.35z"/>
  <path class="fil1" d="M193.19 340.17l-143.01 -128.85c-18.74,-16.46 -6.4,-43.6 -6.4,-43.6l-2.94 -2.61 -29.91 37.39c-16.8,20.68 -13.85,51.77 6.21,69.36l143 128.85c18.75,16.46 6.4,43.6 6.4,43.6l2.94 2.61 29.91 -37.39c16.8,-20.68 13.85,-51.77 -6.21,-69.36z"/>
  <path class="fil0" d="M2672.87 405.34l217.46 0 0 -66.21 -132.92 0 0 -90.65 100.33 0 0 -61.62 -100.33 0 0 -79.45 125.79 0 0 -66.21 -210.33 0 0 364.14zm221.87 0l86.07 0 58.57 -133.43 59.08 133.43 95.23 0 -92.18 -189.96 81.49 -174.17 -85.56 0 -50.42 118.15 -51.44 -118.15 -94.73 0 86.07 176.72 -92.18 187.42zm307.61 0l84.54 0 0 -135.98 34.12 0c79.45,0 123.76,-34.12 123.76,-104.91l0 -15.28c0,-71.3 -40.74,-107.97 -126.3,-107.97l-116.12 0 0 364.14zm84.54 -195.05l0 -104.91 28.52 0c31.58,0 47.36,11.71 47.36,44.82l0 13.75c0,31.58 -15.79,46.35 -47.36,46.35l-28.52 0zm173.98 195.05l84.54 0 0 -143.11 25.46 0 64.17 143.11 89.12 0 -73.34 -158.39c33.61,-12.73 57.55,-37.69 57.55,-88.11l0 -13.24c0,-70.28 -44.31,-104.4 -128.34,-104.4l-119.17 0 0 364.14zm84.54 -199.64l0 -99.82 31.58 0c32.09,0 48.89,11.71 48.89,42.27l0 12.22c0,32.09 -16.3,45.33 -48.89,45.33l-31.58 0zm190.89 199.64l217.46 0 0 -66.21 -132.92 0 0 -90.65 100.33 0 0 -61.62 -100.33 0 0 -79.45 125.79 0 0 -66.21 -210.33 0 0 364.14zm356.83 5.6c78.43,0 124.26,-43.8 124.26,-111.53 0,-75.38 -45.32,-98.8 -112.55,-117.64 -42.78,-12.74 -54.49,-22.92 -54.49,-47.87 0,-21.9 13.24,-35.14 37.69,-35.14 24.96,0 40.23,11.71 42.27,43.29l79.44 0c-3.56,-72.32 -47.36,-105.93 -121.21,-105.93 -73.85,0 -119.17,41.76 -119.17,103.89 0,66.71 34.12,94.22 106.95,116.12 41.76,12.22 58.57,21.39 58.57,51.44 0,26.48 -15.28,40.74 -41.76,40.74 -35.65,0 -47.87,-17.32 -49.4,-52.46l-81.48 0c2.03,76.9 47.36,115.1 130.89,115.1zm262.61 0c78.43,0 124.26,-43.8 124.26,-111.53 0,-75.38 -45.32,-98.8 -112.55,-117.64 -42.78,-12.74 -54.49,-22.92 -54.49,-47.87 0,-21.9 13.24,-35.14 37.68,-35.14 24.96,0 40.23,11.71 42.27,43.29l79.45 0c-3.57,-72.32 -47.36,-105.93 -121.21,-105.93 -73.85,0 -119.17,41.76 -119.17,103.89 0,66.71 34.12,94.22 106.95,116.12 41.76,12.22 58.57,21.39 58.57,51.44 0,26.48 -15.28,40.74 -41.76,40.74 -35.65,0 -47.87,-17.32 -49.4,-52.46l-81.48 0c2.03,76.9 47.36,115.1 130.89,115.1z"/>
 </g>
</svg>
