<svg xmlns="http://www.w3.org/2000/svg" width="892.913" height="112.323" version="1.1"><defs><clipPath id="a"/><clipPath id="b"><path d="M.035-869.528h783.001V792H.035V-869.528z"/></clipPath><clipPath id="c"/></defs><g clip-path="url(#a)" transform="matrix(4.31635 0 0 -4.31635 -1243.346 6841.608)"><g fill="#231f20" fill-opacity="1" fill-rule="nonzero" clip-path="url(#b)" transform="translate(0 869.563)"><g stroke="none" clip-path="url(#c)"><path d="M472.612 697.348a96.023 96.023 0 0 1-3.379-2.947c-.702.609-2.153 1.72-3.055 2.352v.108c.261.086.433.32.433.893v6.758a69.922 69.922 0 0 1-2.677 1.757l-.784-.784v-8.056l1.217-.892s-1.708-1.43-2.46-2.136c-.676.633-1.666 1.371-2.568 2.028v.081c.261.085.432.346.432.919v7.083c-.726.511-1.871 1.217-2.649 1.703l-.945-.73v-8.056l1.216-.892s-1.66-1.336-2.46-2.109c-.752.657-1.566 1.256-2.568 2.001v.054c.282.111.459.45.459.838v8.137l-.918.784-1.001-.919-.459.46a87.795 87.795 0 0 1 3.433 3.001l2.298-2.001v-.568l3.108 2.569c.977-.682 3.865-2.461 3.865-2.461l2.974 2.461c.953-.73 3.123-2.049 4.325-2.731v-.108c-.401-.104-.432-.597-.432-.865v-7.326l1.189-.838.946.838.46-.406zM450.5 711.433c-.802-1.095-1.455-1.595-2.757-1.595-.878 0-1.353.254-2.055 1.081l-.973-.892-.433.514 3.379 2.947c.878-1.728 1.933-1.971 2.785-1.947l.054-.108m1.081-14.031c-.877-.73-2.606-2.228-3.406-3.001-.752.657-2.026 1.608-3.027 2.352v.082c.281.111.432.449.432.837v7.786l-.892.757-1.054-.919-.433.433c.752.608 2.382 2.057 3.461 3.055l2.73-2.352v-.109c-.326-.096-.433-.3-.433-1.027v-7.542l1.189-.784.973.865.46-.433zm-54.901 0c-.878-.73-2.634-2.228-3.434-3.001-.752.657-2.026 1.608-3.027 2.352v.082c.281.111.432.449.432.837v12.626l-.919.784-1-.866-.433.433c.752.608 2.194 1.949 3.271 2.947l2.893-2.352v-.108c-.326-.097-.46-.301-.46-1.028v-12.354l1.244-.811 1 .892.433-.433zm-31.061-.054c-.801-.657-2.654-2.241-3.405-2.947a46.848 46.848 0 0 1-3.028 2.352v.108c.261.086.46.32.46.893v6.758c-.727.511-1.9 1.244-2.677 1.73-.158-.114-.783-.56-.946-.703v-8.11l1.244-.892s-1.66-1.336-2.46-2.109c-.752.657-1.593 1.256-2.595 2.001v.054c.281.111.459.45.459.838v8.137l-.946.784-.946-.784-.405.433c.751.608 2.301 1.895 3.379 2.893l2.27-2.001v-.568l3.109 2.569c.952-.73 3.122-2.049 4.325-2.731v-.108c-.401-.104-.459-.597-.459-.865v-7.326l1.189-.811.973.838.459-.433zm124.618-.946v3.92c-.477.219-1.016.523-1.487.757l-3.785-3.893.136-.027c.588.311.824.703 2.027.703 1.228 0 2.467-.864 3.055-1.487l.054.027zm3.865 12.03c0-1.314-1.536-3.055-3.568-3.055-1.338 0-2.131.663-2.758 1.514l-.053-.027v-3.271l1.838-.865.838.838c.867-.533 2.664-1.467 3.622-1.865v-.081c-.188-.077-.405-.287-.405-.676v-2.298c0-.33.23-.549.405-.622v-.108c-1.954-.828-4.763-2.322-6.136-3.515-.702.657-1.647 1.271-2.866 1.271-1.142 0-1.648-.407-1.648-.784 0-.235.486-.203.486-.541a.342.342 0 0 0-.352-.324c-.267 0-.756.37-.756.838 0 .876.625 1.637 2.054 3.082l2.514 2.541c-1.034.514-2.539 1.16-3.379 1.514v.108c.244.068.406.315.406.595v2.082c0 .229-.105.578-.406.675v.109c2.105.729 4.77 2.198 6.299 3.243.342-.369 1.251-1.162 2.216-1.162.813 0 1.001.4 1.001.676 0 .157-.298.243-.298.486 0 .209.109.298.271.298.239 0 .675-.233.675-.676"/></g><path d="M479.532 703.133c-.702.949-1.953 2.504-2.73 3.623l-.081-.027v-5.326l2.811 1.73zm3.136 1.217-5.947-3.595v-2.46c.752-.317 2.307-1.004 3.108-1.514l1.271 1.27c.352.353.319.973.946.973.176 0 .352-.265.352-.459 0-.207-.168-.306-.271-.406l-3.866-3.758c-1.328.828-4.024 2.033-5.352 2.569v.108c.215.078.459.221.459.757v6.84c0 .559-.215.739-.459.783v.109c2.005.632 5.062 2.219 6.515 3.217 1.003-1.46 2.291-3.266 3.244-4.434zm-42.603-7.245v12.408c-.15-.01-.413-.026-.567-.026-.862 0-2.375.327-3.352.594-2.907-.51-6.272-2.9-6.272-7.38 0-3.842 2.811-6.299 6.812-6.299 1.353 0 2.548.223 3.379.703zm3.461 15.707c0-1.96-1.341-2.952-2.92-3.244v-12.166c2.03 1.095 2.325 2.217 2.325 2.785 0 .123-.27.291-.27.513 0 .173.221.325.378.325.229 0 .324-.203.324-.568 0-2.847-2.794-6.678-8.758-6.678-4.475 0-8.272 3.412-8.272 7.814 0 6.277 5.405 8.459 9.164 8.678-1.378.292-3.573.757-5.406.757-2.13 0-3.893-1.231-3.893-2.326 0-.413.352-.491.352-.783 0-.161-.069-.352-.298-.352-.351 0-.649.356-.649.622 0 2.385 1.76 5.785 5.461 5.785 3.752 0 6.54-1.324 9.461-1.324 1.931 0 2.481.662 2.406 1.757l.432-.135c.075-.171.163-.729.163-1.46zm-29.006-16.41v3.92c-.476.219-1.015.523-1.487.757l-3.784-3.893.135-.027c.588.311.825.703 2.028.703 1.228 0 2.467-.864 3.054-1.487l.054.027zm3.866 12.03c0-1.314-1.536-3.055-3.568-3.055-1.338 0-2.131.663-2.758 1.514l-.054-.027v-3.271l1.839-.865.837.838c.868-.533 2.665-1.467 3.623-1.865v-.081c-.188-.077-.406-.287-.406-.676v-2.298c0-.33.23-.549.406-.622v-.108c-1.955-.828-4.764-2.322-6.137-3.515-.701.657-1.646 1.271-2.865 1.271-1.143 0-1.649-.407-1.649-.784 0-.235.487-.203.487-.541a.342.342 0 0 0-.352-.324c-.267 0-.757.37-.757.838 0 .876.625 1.637 2.055 3.082l2.514 2.541c-1.035.514-2.54 1.16-3.379 1.514v.108c.244.068.405.315.405.595v2.082c0 .229-.105.578-.405.675v.109c2.105.729 4.77 2.198 6.298 3.243.343-.369 1.251-1.162 2.217-1.162.813 0 1 .4 1 .676 0 .157-.297.243-.297.486 0 .209.109.298.27.298.24 0 .676-.233.676-.676"/><path d="M403.897 703.133c-.702.949-1.954 2.504-2.73 3.623l-.082-.027v-5.326l2.812 1.73zm3.135 1.217-5.947-3.595v-2.46c.752-.317 2.307-1.004 3.109-1.514l1.271 1.27c.353.353.32.973.946.973.175 0 .351-.265.351-.459 0-.207-.167-.306-.27-.406l-3.866-3.758c-1.328.828-4.024 2.033-5.352 2.569v.108c.214.078.459.221.459.757v6.84c0 .559-.215.739-.459.783v.109c2.005.632 5.061 2.219 6.515 3.217 1.002-1.46 2.291-3.266 3.243-4.434zm-20.787-1.217c-.702.949-1.954 2.504-2.73 3.623l-.081-.027v-5.326l2.811 1.73zm3.136 1.217-5.947-3.595v-2.46c.752-.317 2.306-1.004 3.108-1.514l1.27 1.27c.353.353.32.973.947.973.175 0 .351-.265.351-.459 0-.207-.167-.306-.27-.406l-3.866-3.758c-1.328.828-4.024 2.033-5.352 2.569v.108c.215.078.46.221.46.757v6.84c0 .559-.216.739-.46.783v.109c2.005.632 5.061 2.219 6.515 3.217 1.002-1.46 2.291-3.266 3.244-4.434zm-15.679-7.597v7.651c-.977.535-2.599 1.614-3.676 2.514l-.054-.027v-8.543c.977-.437 2.598-1.356 3.325-1.892l.405.297zm4.704-1.27c-.081-3.09-1.678-5.218-4.65-5.218-2.325 0-4.024 1.162-6.136 1.162-1.23 0-1.896-.367-2.244-.783l-.162.081c.125 2.238 1.753 3.487 3.839 3.487 2.298 0 3.973-1.433 6.406-1.433 1.554 0 2.364.793 2.514 1.595l-.027.054c-.326-.194-.752-.432-1.378-.432-1.254 0-2.613.841-2.839 2.325a40.807 40.807 0 0 1-2.514-1.92c-1.468.922-3.849 2.071-5.001 2.569v.108c.24.076.406.365.406.649v6.975c0 .414-.139.704-.433.756v.109c2.13.754 4.847 2.152 6.326 3.271 1.281-.985 3.629-2.373 5.001-3.136v-.135c-.301-.122-.46-.317-.46-.973v-7.516c0-.965.092-1.622.811-1.622.114 0 .251.095.351.216l.19-.189zm-34.358 6.921-2.568 7.677-2.838-7.677h5.406zm7.65-4.921-3.406-3.082a56.045 56.045 0 0 1-2.973 1.92v.135c.272.096.402.362.405.676a1.41 1.41 0 0 1-.081.432l-.973 2.974h-6.731l-.892-2.487c1.392 0 2.106-.155 2.784-.432l.676 1.189.541-.27-2.325-4.164c-.912.504-1.943.893-3.109.893-1.374 0-2.411-.348-2.919-.812-.102-.093-.249-.068-.189.135.551 1.874 1.791 3.303 3.919 3.434l4.704 12.652c-.487 1.271-.958 1.784-2.136 1.784-1.103 0-2.189-.497-2.189-1.811 0-.608.621-.556.621-1a.342.342 0 0 0-.351-.325c-.401 0-.811.519-.811 1.541 0 2.312 1.94 3.677 3.92 3.677 1.804 0 2.53-.676 3.081-1.406.176.681.844 1.133 1.379 1.217l.162-.27c-.334-.403-.514-.76-.514-1.271 0-.266.114-.815.19-1.028l5.055-14.22.865-.513.919.838.378-.406zm-28.329-1.081v3.92c-.476.219-1.016.523-1.487.757l-3.784-3.893.135-.027c.588.311.824.703 2.027.703 1.228 0 2.467-.864 3.055-1.487l.054.027zm3.865 12.03c0-1.314-1.536-3.055-3.568-3.055-1.337 0-2.131.663-2.757 1.514l-.054-.027v-3.271l1.838-.865.838.838c.867-.533 2.664-1.467 3.622-1.865v-.081c-.187-.077-.405-.287-.405-.676v-2.298c0-.33.23-.549.405-.622v-.108c-1.954-.828-4.763-2.322-6.136-3.515-.702.657-1.646 1.271-2.865 1.271-1.143 0-1.649-.407-1.649-.784 0-.235.486-.203.486-.541a.341.341 0 0 0-.351-.324c-.268 0-.757.37-.757.838 0 .876.625 1.637 2.054 3.082l2.514 2.541c-1.034.514-2.539 1.16-3.379 1.514v.108c.244.068.406.315.406.595v2.082c0 .229-.105.578-.406.675v.109c2.105.729 4.77 2.198 6.299 3.243.342-.369 1.251-1.162 2.216-1.162.813 0 1 .4 1 .676 0 .157-.297.243-.297.486 0 .209.11.298.27.298.24 0 .676-.233.676-.676zm-15.678-12.057v8.029c-1.153.608-2.848 1.833-3.65 2.514l-.054-.027V698.7c1.103-.584 2.748-1.598 3.65-2.352l.054.027zm3.811 1.541c-1.676-.665-4.922-2.322-6.325-3.515-1.479 1.047-3.629 2.427-5.001 3.191v.08c.351.122.432.371.432.785v6.137c0 .564-.131.767-.432.864v.109c2.305.827 4.471 2.003 6.325 3.243 1.278-.924 3.523-2.284 5.001-3.135v-.108c-.267-.105-.459-.371-.459-.784V698.7c0-.438.184-.603.459-.676v-.108zm-17.895.838v11.381c-1.644.175-2.367 1.234-2.919 1.866l-1.595-1.244c.008-1.731.497-3.134 1.108-4.515.558-1.262 1.19-2.896 1.19-4.027 0-1.865-1.065-3.042-3.596-5.354l.081-.08c1.504 1.094 3.711 1.94 5.731 1.973zm6.19.027-2.459-4.461c-1.288.872-3.356 1.406-5.11 1.406-3.458 0-5.827-.597-7.055-1.352l-.162.162c1.097.933 2.947 2.43 2.947 5.84 0 1.437-.596 3.065-1.028 4.136-.499 1.24-.892 1.892-.892 3.623 0 3.014 1.677 4.716 4.298 6.001l.19-.243c-.905-.73-1.326-1.671-1.46-2.622l4.19 3.406c1.073-1.463 2.084-2.027 3.406-2.027 1.084 0 1.405.467 1.405.838 0 .268-.378.305-.378.567 0 .249.175.325.324.325.333 0 .649-.417.649-.73 0-2.052-1.905-3.569-3.784-3.569-.326 0-.55-.035-.757 0v-11.327c1.629 0 3.178-.446 4.406-1.055l.757 1.298.513-.216zm135.295 9.651c0-.17-.198-.297-.324-.297-.216 0-.399.405-1 .405-.885 0-1.623-.735-1.623-1.595 0-2.263 2.299-3.178 2.299-5.758 0-2.164-2.18-3.418-4.434-3.704l-.433.298c1.235.156 1.839.569 1.839 2.027 0 1.971-2.109 3.575-2.109 5.894 0 1.875 1.817 3.325 4.298 3.325.483 0 .955-.144 1.216-.27.151-.073.271-.179.271-.325"/></g></g></svg>