<svg xmlns="http://www.w3.org/2000/svg" width="163.4" height="40" viewBox="0 0 163.4 40"><path d="M10.5 6.9l.1 6.9h.2c1.4-3.9 4.9-7.1 10-7.1 6.6 0 8.6 3.3 8.6 9.6v12.4c0 3.8.2 7.7 1.1 10.6H19.8c.9-2.8 1-6.2 1-10.3V17.2c0-2.9-1.1-4.2-4.3-4.2-2.4 0-4.2.7-5.6 1.9v14.2c0 4.1.1 7.5 1 10.3H1.3c1-2.9 1.1-6.9 1.1-10.6V17.2c0-3.1-1.1-5.9-2.4-7.3l10.5-3M48.9 33.2V21.6c-.7 1-1.5 1.6-3.8 2.6-3 1.5-4.1 3.1-4.1 6.4 0 2.8 1.6 4.6 4 4.6 2.4.1 3.2-.8 3.9-2zM46.1 6.8c8.2 0 11.3 3.3 11.3 10v14c0 2.5 1 3.3 3 3.3.3 0 1.4-.2 1.7-.5-.2 1-.3 1.5-.5 2-1 2.8-2.7 4.4-6.1 4.4-4.1 0-6.1-2.9-6.2-5.8h-.1c-1.4 4.1-4 5.8-8.2 5.8-5.1 0-8.4-3.1-8.4-7.9 0-5.1 4.6-7.3 9.4-9.1 4.6-1.8 7-3.1 7-6.4v-.7c0-3.6-1.1-5.4-4.5-5.4-2.1 0-2.9 1-3.3 3-.7 3.1-1.9 4.2-3.9 4.2-1.8 0-3.5-1.2-3.5-3.5-.2-4.4 6-7.4 12.3-7.4zM80.7 35.8c-1.1 2.5-3.8 4.2-7.6 4.2-6.5 0-9.1-3.3-9.1-9.3V11.9h-3.1v-.2L72.2 0l.2.1v7.4h8.2l-.8 4.5h-7.3v17.4c0 3.3 1.4 4.7 4.4 4.7 2.3 0 3.5-.3 4.6-.9-.3 1.1-.4 1.7-.8 2.6M92.4 7.3v22c0 3.3 1.3 5.1 4.5 5.1 2.7 0 4.7-.9 5.9-2.4V17.1c0-3.3-.3-6-1.4-8.8l9.8-1v22.5c0 5 .5 7.2 1.3 9.6h-9.6V33h-.1c-1.4 4.1-4 7-9.5 7-6.9 0-9.5-4.2-9.5-10.4V17.1c0-3.3-.3-6-1.4-8.8l10-1M124.6 14.9c1.4-5.9 4.1-8.2 7.7-8.2 3.3 0 5 1.7 5 4.4 0 2.4-1.4 4.4-3.9 4.4-1.5 0-2.4-.7-3-1.3-.7-.7-1.2-1.4-2-1.4-1.7 0-3.6 2.9-3.6 7.7v8c0 3.9.3 7.8 1.1 10.8h-10.6c1-2.9 1.1-6.9 1.1-10.6V17.2c0-3.1-1.1-5.9-2.4-7.3l10.4-3 .1.1v8l.1-.1M144.7 19.6l10.7-1c-.1-5.1-.9-8.1-4.4-8.1-3.6.1-5.7 3-6.3 9.1zm6.4 20.4c-8.2 0-14.9-5.4-14.9-15.8 0-10.5 6.4-17.6 15.1-17.6 8.2 0 12.1 5.2 12.1 15.1h-18.7v1c0 7.9 4.1 11.1 9.7 11.1 5.1 0 7.3-2 8.8-3.5l.2.5c-1.4 4.8-5.2 9.2-12.3 9.2z"/></svg>