<?xml version="1.0" encoding="UTF-8" standalone="no"?>
<!-- Generator: Adobe Illustrator 16.0.0, SVG Export Plug-In . SVG Version: 6.00 Build 0)  -->

<svg
   xmlns:dc="http://purl.org/dc/elements/1.1/"
   xmlns:cc="http://creativecommons.org/ns#"
   xmlns:rdf="http://www.w3.org/1999/02/22-rdf-syntax-ns#"
   xmlns:svg="http://www.w3.org/2000/svg"
   xmlns="http://www.w3.org/2000/svg"
   xmlns:sodipodi="http://sodipodi.sourceforge.net/DTD/sodipodi-0.dtd"
   xmlns:inkscape="http://www.inkscape.org/namespaces/inkscape"
   version="1.1"
   id="Layer_1"
   x="0px"
   y="0px"
   width="788.72601"
   height="186.015"
   viewBox="0 0 788.72601 186.015"
   enable-background="new 0 0 792 612"
   xml:space="preserve"
   inkscape:version="0.91 r13725"
   sodipodi:docname="NYmag.svg"><metadata
   id="metadata13"><rdf:RDF><cc:Work
       rdf:about=""><dc:format>image/svg+xml</dc:format><dc:type
         rdf:resource="http://purl.org/dc/dcmitype/StillImage" /><dc:title></dc:title><dc:subject><rdf:Bag><rdf:li>New York Magazine</rdf:li><rdf:li>Logo</rdf:li></rdf:Bag></dc:subject><cc:license
         rdf:resource="http://creativecommons.org/licenses/by-sa/3.0/" /></cc:Work><cc:License
       rdf:about="http://creativecommons.org/licenses/by-sa/3.0/"><cc:permits
         rdf:resource="http://creativecommons.org/ns#Reproduction" /><cc:permits
         rdf:resource="http://creativecommons.org/ns#Distribution" /><cc:requires
         rdf:resource="http://creativecommons.org/ns#Notice" /><cc:requires
         rdf:resource="http://creativecommons.org/ns#Attribution" /><cc:permits
         rdf:resource="http://creativecommons.org/ns#DerivativeWorks" /><cc:requires
         rdf:resource="http://creativecommons.org/ns#ShareAlike" /></cc:License></rdf:RDF></metadata><defs
   id="defs11" /><sodipodi:namedview
   pagecolor="#ffffff"
   bordercolor="#666666"
   borderopacity="1"
   objecttolerance="10"
   gridtolerance="10"
   guidetolerance="10"
   inkscape:pageopacity="0"
   inkscape:pageshadow="2"
   inkscape:window-width="1280"
   inkscape:window-height="721"
   id="namedview9"
   showgrid="false"
   fit-margin-top="10"
   fit-margin-right="10"
   fit-margin-bottom="10"
   fit-margin-left="10"
   inkscape:zoom="1.4174758"
   inkscape:cx="394.36301"
   inkscape:cy="93.0075"
   inkscape:window-x="-4"
   inkscape:window-y="-4"
   inkscape:window-maximized="1"
   inkscape:current-layer="Layer_1" />
<g
   id="g3"
   style="fill:#000000"
   transform="translate(-2.805,-200.316)">
	<path
   d="m 504.521,213.219 -0.662,2.349 c 10.229,0.528 13.122,4.972 13.122,8.836 0,2.266 -0.911,4.891 -2.737,7.838 0,0 -50.335,78.841 -54.278,85.015 -0.227,-0.975 -20.892,-88.846 -20.892,-88.846 -0.369,-1.618 -0.554,-3.038 -0.554,-4.283 0,-6.095 4.683,-8.206 13.735,-8.543 l 0.667,-2.367 -39.962,0 -0.687,2.349 c 8.545,0.332 13.539,2.622 16.225,13.498 4.768,19.62 23.234,97.545 23.772,99.824 -19.33,28.264 -35.632,44.636 -61.69,44.636 -18.998,0 -33.321,-13.13 -33.321,-30.545 0,-17.374 13.888,-31.513 30.955,-31.513 10.616,0 16.347,5.408 16.347,10.505 0,2.929 -1.617,4.396 -2.83,5.249 -1.419,0.904 -2.736,2.043 -2.736,4.209 0,2.062 1.611,3.558 3.832,3.558 3.659,0 5.636,-4.414 5.636,-8.565 0,-10.687 -7.758,-17.33 -20.248,-17.33 -20.93,0 -33.888,17.882 -33.888,34.446 0,16.11 13.561,32.774 36.254,32.774 33.138,0 50.601,-26.264 69.091,-54.065 0,0 53.185,-82.775 58.823,-91.163 6.53,-9.72 14.982,-15.122 24.345,-15.506 l 0.672,-2.361 -38.991,0 z m -2.973,85.232 c 0,19.054 12.568,29.018 24.984,29.018 10.832,0 22.026,-5.549 30.719,-15.236 8.908,-9.93 14.019,-23.117 14.019,-36.181 0,-16.441 -9.759,-27.485 -24.285,-27.485 -22.506,-0.001 -45.437,25.174 -45.437,49.884 z m 8.637,2.924 c 0,-21.615 17.984,-50.631 36.384,-50.631 13.05,0 15.788,11.668 15.788,21.408 0,18.525 -12.354,53.138 -35.969,53.138 -10.144,0 -16.203,-8.972 -16.203,-23.915 z m 109.857,-51.558 c -0.003,0 -13.419,0.24 -13.419,0.24 -6.582,0.165 -13.525,0.329 -18.622,0.176 l -0.534,1.812 c 7.572,0.479 10.416,2.372 7.601,11.417 l -15.17,50.238 c -1.97,6.328 -6.247,9.63 -12.895,10.017 l -0.702,1.943 30.38,0 0.541,-1.943 c -5.684,-0.268 -9.947,-1.168 -9.947,-6.189 0,-1.145 0.229,-2.465 0.685,-3.983 0,0 7.378,-24.599 7.469,-24.896 0.305,0 13.511,0 13.764,0 0.046,0.092 0.099,0.19 0.099,0.19 6.021,12.056 13.517,27.045 17.93,36.698 l 0.055,0.123 40.796,0 0.531,-1.955 c -5.63,-0.121 -10.067,-1.327 -10.067,-6.235 0,-1.128 0.228,-2.432 0.671,-3.926 0,0 6.033,-20.107 6.244,-20.806 0.103,-0.083 10.062,-7.841 10.451,-8.15 13.913,28.073 37.161,74.753 82.455,74.753 12.997,0 23.173,-8.104 23.173,-18.443 0,-7.915 -5.917,-12.178 -11.482,-12.178 -5.499,0 -8.426,3.757 -8.426,6.471 0,1.625 1.333,2.718 2.58,2.718 1.475,0 2.446,-0.613 3.246,-2.058 0.808,-1.46 2.487,-2.845 4.814,-2.845 4.365,0 7.312,2.971 7.312,7.892 0,8.859 -9.269,16.066 -20.659,16.066 -28.691,0 -53.502,-25.356 -75.854,-77.507 0.267,-0.199 26.305,-20.074 26.305,-20.074 8.637,-6.383 12.853,-7.064 16.288,-7.331 l 0.554,-1.818 -25.479,0 -0.535,1.806 c 4.242,0.243 6.749,1.829 6.749,3.996 0,1.684 -1.446,3.716 -4.242,5.933 0,0 -31.914,24.086 -36.348,27.435 0.368,-1.197 8.018,-26.231 8.018,-26.231 -0.004,0.01 0.167,-0.484 0.167,-0.484 2.258,-6.512 3.66,-10.169 13.019,-10.648 l 0.534,-1.806 -28.831,0 -0.566,1.818 c 4.185,0.185 6.729,1.054 7.798,2.574 1.121,1.595 1.027,4.157 -0.32,8.843 l -15.027,50.23 c -1.952,6.265 -5.933,10.005 -10.65,10.005 -4.301,0 -7.155,-2.607 -10.522,-9.621 0,0 -11.752,-24 -12.96,-26.471 11.701,-2.2 25.223,-9.39 25.223,-22.557 -10e-4,-9.227 -6.418,-15.292 -22.195,-15.239 z m -2.365,1.814 c 13.507,0 16.343,6.775 16.343,12.454 0,10.313 -4.841,22.605 -27.896,22.605 0,0 -9.6,0 -10.148,0 0.167,-0.541 10.51,-34.378 10.59,-34.651 1.716,-0.146 6.809,-0.408 11.111,-0.408 z m 2.362,-1.814 0,0 c 0,0 0,0 0.003,0 -0.003,0 -0.003,0 -0.003,0 z"
   id="path5"
   style="fill:#000000"
   inkscape:connector-curvature="0" />
	<path
   d="m 189.545,306.835 c -12.098,-21.173 -28.198,-54.617 -36.75,-93.616 l -39.727,0 c -10.267,0 -27.491,2.196 -27.491,16.787 0,5.725 4.55,11.902 11.905,11.902 6.675,0 10.23,-4.407 10.23,-7.586 0,-1.984 -1.11,-4.114 -3.553,-4.114 -2.455,0 -3.552,2.065 -3.552,4.114 0,2.496 -1.686,4.24 -4.102,4.24 -4.87,0 -8.275,-3.635 -8.275,-8.832 0,-9.371 8.358,-14.122 24.837,-14.122 l 16.848,0 c 9.868,0 14.221,4.892 11.747,14.768 -16.882,59.517 -50.661,123.122 -94.833,123.122 -20.324,0 -30.957,-11.86 -30.957,-23.582 0,-8.478 5.768,-14.813 10.921,-14.813 3.414,0 4.671,2.264 5.883,4.451 1.137,2.055 2.314,4.175 5.247,4.175 2.061,0 4.251,-1.488 4.251,-4.244 0,-4.726 -5.355,-8.285 -12.459,-8.285 -8.167,0 -16.91,7.521 -16.91,18.717 0,15.363 14.309,26.514 34.025,26.514 23.64,0 45.71,-16.606 65.602,-49.359 19.003,-31.294 29.378,-66.643 32.373,-77.804 17.31,61.904 69.002,147.063 121.748,147.063 14.136,0 24.008,-7.871 24.008,-19.136 0,-6.987 -4.251,-12.438 -9.676,-12.438 -3.258,0 -5.363,1.427 -5.363,3.669 0,1.962 1.806,3.14 3.556,3.14 0.894,0 1.591,-0.303 2.266,-0.595 0.617,-0.27 1.204,-0.524 1.905,-0.524 2.859,0 4.935,3.015 4.935,7.166 0,9.471 -8.921,16.344 -21.214,16.344 -25.285,0 -50.061,-20.968 -75.746,-64.104 10.527,-33.993 31.686,-90.903 55.29,-90.903 4.31,0 6.992,1.077 9.358,2.029 1.862,0.746 3.62,1.449 5.814,1.449 5.107,0 6.47,-3.193 6.47,-5.084 0,-4.204 -4.169,-7.028 -10.369,-7.028 -34.444,-0.003 -55.43,54.937 -68.242,96.519 z m 181.627,-56.602 -0.552,1.788 c 6.459,0.452 8.391,3.884 8.391,6.718 0,1.541 -0.491,3.297 -1.468,5.252 l -27.482,52.676 -4.142,-57.074 c -0.446,-5.916 2.764,-7.487 9.147,-7.542 l 0.553,-1.818 -26.189,0 -0.548,1.788 c 6.485,0.54 8.466,2.804 8.466,5.44 0,1.26 -0.337,2.527 -1.271,4.442 -0.002,0 -26.801,54.515 -26.801,54.515 l -4.166,-56.697 c -0.328,-6.487 2.925,-7.445 8.919,-7.68 l 0.541,-1.809 -26.746,0 -0.561,1.809 c 7.536,0.44 9.85,2.619 10.384,9.553 l 5.302,65.375 3.252,0 32.253,-65.445 5.267,65.445 3.108,0 32.89,-62.785 c 4.393,-8.302 9.295,-11.743 15.708,-12.145 l 0.539,-1.806 -24.794,0 z m -90.012,0 -51.085,0 -0.54,1.794 c 4.174,0.297 6.787,1.157 7.881,2.728 1.069,1.538 1.069,3.883 -0.014,7.601 l -15.585,51.903 c -1.814,5.858 -6.218,9.077 -12.771,9.486 l -0.687,1.921 65.141,0 11.294,-22.306 -1.338,-0.573 c -9.275,14.752 -22.877,20.918 -46.686,20.918 0,0 -9.189,0 -9.729,0 0.161,-0.534 10.912,-36.287 11.003,-36.586 0.306,0 10.833,0 10.833,0 4.369,0 7.281,0.974 8.908,2.977 1.867,2.299 2.105,6.224 0.86,12.181 l 1.662,0.008 9.016,-30.039 -1.691,-0.012 c -3.182,8.332 -9.823,13.064 -18.612,13.064 0,0 -9.888,0 -10.428,0 0.161,-0.534 9.937,-32.952 10.029,-33.248 0.305,0 10.14,0 10.14,0 12.801,0 20.803,5.613 23.651,16.308 l 1.356,-0.197 -2.419,-17.929 -0.189,0 z"
   id="path7"
   style="fill:#000000"
   inkscape:connector-curvature="0" />
</g>
</svg>