<svg xmlns="http://www.w3.org/2000/svg" xml:space="preserve" width="788.726" height="186.015" x="0" y="0" version="1.1" viewBox="0 0 788.726 186.015"><g fill="#000"><path d="m501.716 12.903-.662 2.349c10.229.528 13.122 4.972 13.122 8.836 0 2.266-.911 4.891-2.737 7.838 0 0-50.335 78.841-54.278 85.015-.227-.975-20.892-88.846-20.892-88.846-.369-1.618-.554-3.038-.554-4.283 0-6.095 4.683-8.206 13.735-8.543l.667-2.367h-39.962l-.687 2.349c8.545.332 13.539 2.622 16.225 13.498 4.768 19.62 23.234 97.545 23.772 99.824-19.33 28.264-35.632 44.636-61.69 44.636-18.998 0-33.321-13.13-33.321-30.545 0-17.374 13.888-31.513 30.955-31.513 10.616 0 16.347 5.408 16.347 10.505 0 2.929-1.617 4.396-2.83 5.249-1.419.904-2.736 2.043-2.736 4.209 0 2.062 1.611 3.558 3.832 3.558 3.659 0 5.636-4.414 5.636-8.565 0-10.687-7.758-17.33-20.248-17.33-20.93 0-33.888 17.882-33.888 34.446 0 16.11 13.561 32.774 36.254 32.774 33.138 0 50.601-26.264 69.091-54.065 0 0 53.185-82.775 58.823-91.163 6.53-9.72 14.982-15.122 24.345-15.506l.672-2.361h-38.991zm-2.973 85.232c0 19.054 12.568 29.018 24.984 29.018 10.832 0 22.026-5.549 30.719-15.236 8.908-9.93 14.019-23.117 14.019-36.181 0-16.441-9.759-27.485-24.285-27.485-22.506-.001-45.437 25.174-45.437 49.884zm8.637 2.924c0-21.615 17.984-50.631 36.384-50.631 13.05 0 15.788 11.668 15.788 21.408 0 18.525-12.354 53.138-35.969 53.138-10.144 0-16.203-8.972-16.203-23.915zm109.857-51.558-13.419.24c-6.582.165-13.525.329-18.622.176l-.534 1.812c7.572.479 10.416 2.372 7.601 11.417l-15.17 50.238c-1.97 6.328-6.247 9.63-12.895 10.017l-.702 1.943h30.38l.541-1.943c-5.684-.268-9.947-1.168-9.947-6.189 0-1.145.229-2.465.685-3.983 0 0 7.378-24.599 7.469-24.896h13.764c.046.092.099.19.099.19 6.021 12.056 13.517 27.045 17.93 36.698l.055.123h40.796l.531-1.955c-5.63-.121-10.067-1.327-10.067-6.235 0-1.128.228-2.432.671-3.926 0 0 6.033-20.107 6.244-20.806.103-.083 10.062-7.841 10.451-8.15 13.913 28.073 37.161 74.753 82.455 74.753 12.997 0 23.173-8.104 23.173-18.443 0-7.915-5.917-12.178-11.482-12.178-5.499 0-8.426 3.757-8.426 6.471 0 1.625 1.333 2.718 2.58 2.718 1.475 0 2.446-.613 3.246-2.058.808-1.46 2.487-2.845 4.814-2.845 4.365 0 7.312 2.971 7.312 7.892 0 8.859-9.269 16.066-20.659 16.066-28.691 0-53.502-25.356-75.854-77.507.267-.199 26.305-20.074 26.305-20.074 8.637-6.383 12.853-7.064 16.288-7.331l.554-1.818h-25.479l-.535 1.806c4.242.243 6.749 1.829 6.749 3.996 0 1.684-1.446 3.716-4.242 5.933 0 0-31.914 24.086-36.348 27.435.368-1.197 8.018-26.231 8.018-26.231l.167-.484c2.258-6.512 3.66-10.169 13.019-10.648l.534-1.806h-28.831l-.566 1.818c4.185.185 6.729 1.054 7.798 2.574 1.121 1.595 1.027 4.157-.32 8.843l-15.027 50.23c-1.952 6.265-5.933 10.005-10.65 10.005-4.301 0-7.155-2.607-10.522-9.621 0 0-11.752-24-12.96-26.471 11.701-2.2 25.223-9.39 25.223-22.557-.001-9.227-6.418-15.292-22.195-15.239zm-2.365 1.814c13.507 0 16.343 6.775 16.343 12.454 0 10.313-4.841 22.605-27.896 22.605h-10.148c.167-.541 10.51-34.378 10.59-34.651 1.716-.146 6.809-.408 11.111-.408zm2.362-1.814h.003-.003z"/><path d="M186.74 106.519c-12.098-21.173-28.198-54.617-36.75-93.616h-39.727c-10.267 0-27.491 2.196-27.491 16.787 0 5.725 4.55 11.902 11.905 11.902 6.675 0 10.23-4.407 10.23-7.586 0-1.984-1.11-4.114-3.553-4.114-2.455 0-3.552 2.065-3.552 4.114 0 2.496-1.686 4.24-4.102 4.24-4.87 0-8.275-3.635-8.275-8.832 0-9.371 8.358-14.122 24.837-14.122h16.848c9.868 0 14.221 4.892 11.747 14.768-16.882 59.517-50.661 123.122-94.833 123.122-20.324 0-30.957-11.86-30.957-23.582 0-8.478 5.768-14.813 10.921-14.813 3.414 0 4.671 2.264 5.883 4.451 1.137 2.055 2.314 4.175 5.247 4.175 2.061 0 4.251-1.488 4.251-4.244 0-4.726-5.355-8.285-12.459-8.285-8.167 0-16.91 7.521-16.91 18.717 0 15.363 14.309 26.514 34.025 26.514 23.64 0 45.71-16.606 65.602-49.359C128.63 75.462 139.005 40.113 142 28.952c17.31 61.904 69.002 147.063 121.748 147.063 14.136 0 24.008-7.871 24.008-19.136 0-6.987-4.251-12.438-9.676-12.438-3.258 0-5.363 1.427-5.363 3.669 0 1.962 1.806 3.14 3.556 3.14.894 0 1.591-.303 2.266-.595.617-.27 1.204-.524 1.905-.524 2.859 0 4.935 3.015 4.935 7.166 0 9.471-8.921 16.344-21.214 16.344-25.285 0-50.061-20.968-75.746-64.104 10.527-33.993 31.686-90.903 55.29-90.903 4.31 0 6.992 1.077 9.358 2.029 1.862.746 3.62 1.449 5.814 1.449 5.107 0 6.47-3.193 6.47-5.084 0-4.204-4.169-7.028-10.369-7.028-34.444-.003-55.43 54.937-68.242 96.519zm181.627-56.602-.552 1.788c6.459.452 8.391 3.884 8.391 6.718 0 1.541-.491 3.297-1.468 5.252l-27.482 52.676-4.142-57.074c-.446-5.916 2.764-7.487 9.147-7.542l.553-1.818h-26.189l-.548 1.788c6.485.54 8.466 2.804 8.466 5.44 0 1.26-.337 2.527-1.271 4.442-.002 0-26.801 54.515-26.801 54.515l-4.166-56.697c-.328-6.487 2.925-7.445 8.919-7.68l.541-1.809h-26.746l-.561 1.809c7.536.44 9.85 2.619 10.384 9.553l5.302 65.375h3.252l32.253-65.445 5.267 65.445h3.108l32.89-62.785c4.393-8.302 9.295-11.743 15.708-12.145l.539-1.806h-24.794zm-90.012 0H227.27l-.54 1.794c4.174.297 6.787 1.157 7.881 2.728 1.069 1.538 1.069 3.883-.014 7.601l-15.585 51.903c-1.814 5.858-6.218 9.077-12.771 9.486l-.687 1.921h65.141l11.294-22.306-1.338-.573c-9.275 14.752-22.877 20.918-46.686 20.918h-9.729c.161-.534 10.912-36.287 11.003-36.586h10.833c4.369 0 7.281.974 8.908 2.977 1.867 2.299 2.105 6.224.86 12.181l1.662.008 9.016-30.039-1.691-.012c-3.182 8.332-9.823 13.064-18.612 13.064h-10.428c.161-.534 9.937-32.952 10.029-33.248h10.14c12.801 0 20.803 5.613 23.651 16.308l1.356-.197-2.419-17.929h-.189z"/></g></svg>