<?xml version="1.0" encoding="utf-8"?>
<!-- Generator: Adobe Illustrator 19.2.1, SVG Export Plug-In . SVG Version: 6.00 Build 0)  -->
<svg version="1.1" id="layer" xmlns="http://www.w3.org/2000/svg" xmlns:xlink="http://www.w3.org/1999/xlink" x="0px" y="0px"
	 viewBox="0 0 652 652" style="enable-background:new 0 0 652 652;" xml:space="preserve">
<style type="text/css">
	.st0{fill:#39393B;}
</style>
<path class="st0" d="M622.8,341.2v-0.3h-1.6c-0.1,6.7-1.8,9.7-5.5,9.7c-2.7,0-3.9-1.5-3.9-4.9v-32.3h8.5v-1.6h-8.5v-19.5h-1
	c-0.6,3.6-2.3,5.5-5.6,6.4h-0.1v13.1h-7.3v1.6h7.3v30.6c0,5.6,3.1,8.7,8.7,8.7C619.7,352.7,622.8,348.9,622.8,341.2 M586.8,336.5
	c0,9.4-3.3,15.1-8.4,15.1c-3.7,0-5.1-2.9-5.1-8.8c0-6.9,2-9.1,8.2-13.4c2.6-1.8,4.1-2.8,5.3-4.1V336.5z M601.5,343.2V343H600
	c0,5.4-1.5,8.3-4.1,8.3c-1.7,0-2.5-1-2.5-3.6v-24c0-8.3-4.6-13.2-12.5-13.2c-6.7,0-12.1,4.2-12.1,9.2c0,2.6,1.8,4.6,4.3,4.6
	c2.4,0,4.2-1.8,4.2-4.1c0-2.2-1.6-3.8-3.8-3.8c-0.3,0-0.4,0-0.7,0.1c1.1-2.8,3.8-4.4,7.7-4.4c4.7,0,6.6,3.6,6.6,6.9
	c0,5.8-4.7,7.7-9.7,10.4c-5.5,3-11.1,6.3-11.1,13c0,6.9,4.7,10.8,11.1,10.8c4.7,0,8.7-3.1,9.9-8c0.1,4.8,2.8,7.9,7.2,7.9
	C599.1,353,601.5,349.8,601.5,343.2 M566.3,317c0-3.4-3-6-6.8-6c-4.5,0-8.2,3.7-9.9,9.5v-8.6h-14v1.6h7.3v36.9h-7.3v1.6h21.5v-1.6
	h-7.5v-18.5c0-11.4,3.9-19.3,9.6-19.3c1.1,0,2,0.4,2.4,0.9c-2.3,0-3.8,1.6-3.8,3.8c0,2.3,1.8,4.2,4.2,4.2
	C564.4,321.5,566.3,319.5,566.3,317 M535.6,337.3h-1.7c-0.4,8.3-4.4,14.3-11.1,14.3c-7.2,0-9.9-5.8-9.8-19.7
	c0.1-10.7,1.5-19.8,10-19.8c5.1,0,8.9,3.4,9.3,7.3c-0.6-0.8-1.8-1.3-3-1.3c-2.6,0-4.3,2-4.3,4.5c0,2.5,2.1,4.5,4.7,4.5
	c2.9,0,5.1-2.5,5.1-5.8c0-5.9-5.1-10.9-11.8-10.9c-9.7,0-17.6,9.4-17.6,21.3c0,12.2,7.4,21.4,17.2,21.4
	C530.2,353.2,535.6,346,535.6,337.3 M494.7,331.9c-0.1,15.1-2.4,19.8-8.4,19.8c-6,0-8.3-7.1-8.4-19.8c-0.1-13.1,1.9-19.8,8.4-19.8
	C492.3,312,494.7,318.8,494.7,331.9 M502.2,332c0-11.4-7.4-21.5-16-21.5c-8.6,0-16,10.1-16,21.5c0,11.7,7.1,21.2,16,21.2
	C495.1,353.2,502.2,343.7,502.2,332 M474,351.8v-1.6h-6.9v-28c0-7.3-3.9-11.8-10.2-11.8c-6.1,0-10.4,4.3-12.1,12.5
	c-0.3-8-3.8-12.5-10-12.5c-5.6,0-9.9,4.7-11.4,11.7v-10.3h-14v1.6h7.3v36.9h-7.3v1.6h20.1v-1.6h-6.1v-17.5
	c0-11.8,4.7-20.7,10.2-20.7c3.4,0,5,2.6,5,8v30.1h-6.1v1.6h18.7v-1.6h-6.1v-17.7c0-11.8,4.3-20.4,10.1-20.4c3.5,0,5.1,2.5,5.1,8
	v30.1h-6.1v1.6H474z M404.1,329.6H388c0.5-13.4,2.9-17.6,8.6-17.6C402.1,312,404.1,316.3,404.1,329.6 M411.5,338.9l-1.7-0.3
	c-1.6,8.4-6,13-12.2,13c-7.2,0-9.5-4.8-9.5-20.5h23v-0.4c0-12.3-6.1-20.3-14.4-20.3c-8.7,0-16.2,10.1-16.2,21.8
	c0,11.6,7.9,20.9,17.2,20.9C404.7,353.2,409.8,347.7,411.5,338.9 M369.6,322c0,15.4-1.2,28.3-17,28.3h-6.8v-57.9h6.8
	C365.4,292.4,369.6,299.7,369.6,322 M378.7,321.6c0-18.6-9.8-30.7-26.2-30.7h-24.3v1.6h9.6v57.9h-9.6v1.6h24.3
	C370.6,351.8,378.7,337.9,378.7,321.6 M318.2,340.6c0-13.8-23.3-13.4-23.3-22.5c0-3.6,2.8-6.1,6.8-6.1c5.5,0,10.1,4.9,12.6,13.5h1.1
	V311h-1.1c-1.2,1.6-1.7,2.2-3.3,3.7c-2.6-2.7-5.8-4.1-9.7-4.1c-6.6,0-11.4,4.6-11.4,10.5c0,12.8,23.5,11.6,23.5,22.9
	c0,4.7-3.2,7.8-7.8,7.8c-6.4,0-12.4-6.5-14.1-15.1h-1.2v15.9h1.1c0.9-1.6,2-3.3,3.2-4.3c3.3,3.2,6.8,4.8,10.9,4.8
	C312.7,353.1,318.2,347.6,318.2,340.6 M288.9,340.6c0-13.8-23.3-13.4-23.3-22.5c0-3.6,2.8-6.1,6.8-6.1c5.5,0,10.1,4.9,12.6,13.5h1.1
	V311H285c-1.2,1.6-1.7,2.2-3.3,3.7c-2.6-2.7-5.8-4.1-9.7-4.1c-6.6,0-11.4,4.6-11.4,10.5c0,12.8,23.5,11.6,23.5,22.9
	c0,4.7-3.2,7.8-7.8,7.8c-6.4,0-12.4-6.5-14.1-15.1h-1.2v15.9h1.1c0.9-1.6,2-3.3,3.2-4.3c3.3,3.2,6.8,4.8,10.9,4.8
	C283.4,353.1,288.9,347.6,288.9,340.6 M252.3,329.6h-16.1c0.5-13.4,2.9-17.6,8.6-17.6C250.3,312,252.3,316.3,252.3,329.6
	 M259.7,338.9l-1.7-0.3c-1.6,8.4-6,13-12.2,13c-7.2,0-9.5-4.8-9.5-20.5h23v-0.4c0-12.3-6.1-20.3-14.4-20.3
	c-8.7,0-16.2,10.1-16.2,21.8c0,11.6,7.9,20.9,17.2,20.9C252.9,353.2,258,347.7,259.7,338.9 M230.7,317c0-3.4-3-6-6.8-6
	c-4.5,0-8.2,3.7-9.9,9.5v-8.6h-14v1.6h7.3v36.9h-7.3v1.6h21.5v-1.6H214v-18.5c0-11.4,3.9-19.3,9.6-19.3c1.1,0,2,0.4,2.4,0.9
	c-2.3,0-3.8,1.6-3.8,3.8c0,2.3,1.8,4.2,4.2,4.2S230.7,319.5,230.7,317 M190.4,306.9c0,10.1-3.6,14.2-12,14.2h-8.7v-28.7h8.7
	C187.2,292.4,190.4,296.2,190.4,306.9 M198.9,306.9c0-12.1-9.5-16.1-20.8-16.1h-25.7v1.6h9.4v57.9h-9.4v1.6h26.8v-1.6h-9.4v-27.7
	h8.3C189.2,322.6,198.9,318.9,198.9,306.9 M134.1,329.6h-16.1c0.5-13.4,2.9-17.6,8.6-17.6C132.1,312,134.1,316.3,134.1,329.6
	 M141.5,338.9l-1.7-0.3c-1.6,8.4-6,13-12.2,13c-7.2,0-9.5-4.8-9.5-20.5h23v-0.4c0-12.3-6.1-20.3-14.4-20.3
	c-8.7,0-16.2,10.1-16.2,21.8c0,11.6,7.9,20.9,17.2,20.9C134.8,353.2,139.9,347.7,141.5,338.9 M112.5,351.8v-1.6h-7.3v-27.9
	c0-7.5-3.8-11.9-10.4-11.9c-5.9,0-10.4,4.3-12.1,11.5v-31.2h-14v1.6h7.3v57.9h-7.3v1.6h20.4v-1.6h-6.4v-17.6
	c0-11.5,4.6-20.5,10.5-20.5c3.6,0,5.2,2.6,5.2,8v30h-6.4v1.6H112.5z M67.4,314.4v-23.6H22.8v23.6h1.4c1.4-10.6,3.9-22.4,17-22v57.9
	h-9.8v1.6h27.5v-1.6H49v-57.9c13.1-0.3,15.6,11.3,17,22H67.4z"/>
</svg>
