<svg xmlns="http://www.w3.org/2000/svg" width="400" height="110" version="1.1"><path d="m10.227 101.76-4.546 7.106H.851L0 73.336h3.409c5.965 16.202 14.772 31.551 32.386 31.551 12.499 0 18.749-7.674 18.749-19.044 0-9.38-4.546-16.202-13.92-20.181-7.954-3.41-13.352-5.4-21.306-9.095C8.807 51.734 2.557 43.207 2.557 29.849c0-16.202 12.5-28.14 29.26-28.14 7.103 0 16.194 3.127 21.307 7.39l4.261-6.822H62.5l.852 34.677h-3.41C54.262 19.615 47.444 6.54 28.978 6.54c-3.977 0-14.204 3.695-14.204 15.633 0 9.38 3.977 14.496 12.5 19.612 6.818 3.98 13.92 5.97 20.17 9.096 11.363 5.685 19.886 11.938 19.886 27.57 0 18.477-13.92 31.552-32.67 31.552-11.931-.853-20.17-4.548-24.431-8.243zm60.51-29.276c0-18.76 11.931-36.099 30.965-36.099 14.204 0 21.306 8.243 21.306 17.623 0 5.116-2.84 8.527-7.67 8.527-2.84 0-8.238-1.705-8.238-7.674 0-6.253 1.704-6.538 1.704-9.38-.852-4.548-2.84-5.4-7.386-5.4-8.239 0-15.909 7.958-15.909 30.981 0 18.475 6.534 31.266 18.465 31.266 9.375 0 15.056-4.832 19.318-13.644l3.125 2.274c-5.114 9.949-14.773 18.191-25.568 18.191-20.17 0-30.113-15.633-30.113-36.667zm63.918-62.817c0-5.116 3.977-9.664 9.09-9.664 5.682 0 9.375 3.98 9.375 9.096 0 5.4-3.977 9.948-9.375 9.948-5.113 0-9.09-4.264-9.09-9.38zm-6.534 94.367c2.273-.284 4.261-.568 6.25-1.137 2.557-.853 3.693-3.695 3.693-6.821V52.303c-.284-3.127-1.42-5.97-3.693-7.674-1.705-1.137-5.966-2.843-8.239-2.843v-2.842l24.715-1.706.852 1.137v56.848c0 3.126 1.421 5.684 3.694 7.106 1.988 1.136 4.545 1.705 6.25 1.705v3.127h-33.239v-3.127h-.284zm73.577-40.646c0-11.085-1.988-23.307-11.648-23.307-8.238 0-14.204 9.38-14.488 23.876l26.136-.568zM160.79 72.2c0-18.191 10.795-35.814 29.26-35.814 19.033 0 26.136 13.644 26.136 29.277v1.42h-40.624v1.706c0 19.612 5.682 33.54 19.886 33.54 10.227 0 13.92-4.263 19.033-13.644l2.841 1.706c-4.83 10.801-14.204 18.476-25.567 18.476-21.022.284-30.965-16.486-30.965-36.667zm57.095 31.169c2.252-.282 4.223-.563 6.193-1.125 2.533-.844 3.659-3.375 3.659-6.75V52.176c-.282-3.093-1.408-6.187-3.66-7.875-1.407-1.125-4.503-2.25-6.755-2.531v-2.813l22.8-1.688 1.126 1.125V48.52h.282c5.348-5.625 10.415-12.376 21.674-12.376 12.385 0 18.296 9.563 18.296 23.908V94.93c0 3.375 1.125 5.626 3.377 6.75 1.97.844 3.66 1.407 6.193 1.688v3.094h-33.214v-3.094c2.251-.281 4.503-.563 6.192-1.125 2.533-.844 3.66-3.375 3.66-6.75V59.772c0-10.407-5.067-16.032-10.697-16.032-9.288 0-14.637 6.188-16.044 9.844V94.65c0 3.375 1.126 5.626 3.378 6.75 1.689 1.125 4.222 1.688 6.193 1.688v3.094h-32.933v-2.813h.282zm70.65-31.22c0-18.564 11.822-35.721 30.681-35.721 14.074 0 21.111 8.156 21.111 17.439 0 5.063-2.815 8.438-7.6 8.438-2.814 0-8.162-1.688-8.162-7.594 0-6.188 1.689-6.47 1.689-9.282-.845-4.5-2.815-5.344-7.319-5.344-8.163 0-15.762 7.875-15.762 30.658 0 18.282 6.474 30.939 18.296 30.939 9.289 0 14.92-4.782 19.14-13.501l3.096 2.25c-5.066 9.844-14.637 18-25.333 18-19.985 0-29.837-15.47-29.837-36.283zm95.983-9.001c0-10.97-1.97-23.064-11.54-23.064-8.164 0-14.075 9.281-14.357 23.627l25.896-.563zm-40.533 8.72c0-18.002 10.696-35.44 28.992-35.44 18.86 0 25.895 13.5 25.895 28.97v1.407h-40.25v1.687c0 19.408 5.63 33.19 19.702 33.19 10.133 0 13.792-4.219 18.86-13.5l2.814 1.687c-4.785 10.688-14.074 18.283-25.333 18.283-21.111.281-30.681-16.313-30.681-36.284z"/></svg>