<?xml version="1.0" encoding="UTF-8"?>
<svg width="400" height="110" version="1.1" xmlns="http://www.w3.org/2000/svg">
  <path d="m10.227 101.76-4.5457 7.106h-4.8296l-0.85194-35.53h3.409c5.9656 16.202 14.772 31.551 32.386 31.551 12.499 0 18.749-7.6744 18.749-19.044 0-9.38-4.5453-16.202-13.92-20.181-7.9542-3.4104-13.352-5.4004-21.306-9.0953-10.511-4.8324-16.761-13.359-16.761-26.718 0-16.202 12.5-28.14 29.261-28.14 7.1019 0 16.193 3.1268 21.306 7.3904l4.2613-6.822h5.1136l0.85193 34.677h-3.4089c-5.6816-17.339-12.499-30.414-30.965-30.414-3.9769 0-14.204 3.6952-14.204 15.633 0 9.3796 3.9773 14.496 12.5 19.612 6.8179 3.9792 13.92 5.9692 20.17 9.0957 11.363 5.6848 19.886 11.938 19.886 27.571 0 18.476-13.92 31.551-32.67 31.551-11.931-0.85282-20.17-4.548-24.431-8.2428zm60.51-29.276c0-18.76 11.931-36.099 30.965-36.099 14.204 0 21.306 8.2428 21.306 17.623 0 5.1164-2.8406 8.5272-7.6702 8.5272-2.8406 0-8.2382-1.7056-8.2382-7.6744 0-6.2532 1.7047-6.5376 1.7047-9.3796-0.85236-4.548-2.841-5.4008-7.3863-5.4008-8.2386 0-15.909 7.9588-15.909 30.982 0 18.475 6.5339 31.266 18.465 31.266 9.3749 0 15.056-4.8324 19.318-13.644l3.125 2.274c-5.1136 9.9484-14.773 18.191-25.568 18.191-20.17 0-30.113-15.633-30.113-36.667zm63.918-62.817c0-5.1164 3.9773-9.664 9.0905-9.664 5.6816 0 9.3749 3.9792 9.3749 9.0956 0 5.4004-3.9773 9.948-9.3749 9.948-5.1132 0-9.0905-4.2636-9.0905-9.3796zm-6.5336 94.367c2.2722-0.28387 4.2609-0.5684 6.2496-1.1368 2.5566-0.85278 3.6929-3.6952 3.6929-6.8216v-43.773c-0.28395-3.1264-1.4203-5.9688-3.6929-7.674-1.7047-1.1368-5.9656-2.8424-8.2386-2.8424v-2.8424l24.715-1.7056 0.85196 1.1368v56.848c0 3.1264 1.4207 5.6844 3.6933 7.1056 1.9887 1.1368 4.5453 1.7052 6.2495 1.7052v3.1268h-33.238v-3.1268h-0.28394zm73.577-40.646c0-11.085-1.9887-23.307-11.648-23.307-8.2382 0-14.204 9.3796-14.488 23.876l26.136-0.56842zm-40.908 8.8116c0-18.191 10.795-35.814 29.26-35.814 19.033 0 26.136 13.644 26.136 29.277v1.4212h-40.624v1.7056c0 19.612 5.6816 33.54 19.886 33.54 10.227 0 13.92-4.2636 19.033-13.644l2.841 1.7056c-4.8296 10.801-14.204 18.476-25.567 18.476-21.022 0.28417-30.965-16.486-30.965-36.667zm57.095 31.169c2.2518-0.28111 4.2222-0.56247 6.1922-1.1249 2.5335-0.84387 3.6594-3.3752 3.6594-6.7503v-43.316c-0.2818-3.0938-1.4077-6.1875-3.6594-7.8753-1.4073-1.1249-4.5036-2.2499-6.7553-2.5313v-2.8127l22.8-1.6878 1.1259 1.1249v10.126h0.28149c5.3481-5.6254 10.415-12.376 21.674-12.376 12.385 0 18.296 9.5631 18.296 23.908v34.877c0 3.3748 1.1255 5.6254 3.3777 6.7503 1.9704 0.84391 3.659 1.4064 6.1926 1.6874v3.0942h-33.214v-3.0942c2.2514-0.28111 4.5031-0.56247 6.1922-1.1249 2.5332-0.84387 3.659-3.3752 3.659-6.7503v-35.721c0-10.407-5.0663-16.032-10.696-16.032-9.2885 0-14.637 6.1879-16.044 9.8445v41.065c0 3.3752 1.1263 5.6254 3.3781 6.7503 1.6886 1.1249 4.2222 1.6878 6.1926 1.6878v3.0937h-32.933v-2.8127h0.28181zm70.65-31.22c0-18.564 11.822-35.721 30.681-35.721 14.074 0 21.111 8.1567 21.111 17.439 0 5.063-2.8149 8.4381-7.5998 8.4381-2.8149 0-8.163-1.6878-8.163-7.5942 0-6.1879 1.689-6.4693 1.689-9.2816-0.84449-4.5005-2.8149-5.3444-7.3185-5.3444-8.1626 0-15.762 7.8757-15.762 30.658 0 18.282 6.4736 30.939 18.296 30.939 9.2889 0 14.919-4.7819 19.14-13.501l3.0963 2.2502c-5.0667 9.8445-14.637 18.001-25.333 18.001-19.985 0-29.837-15.47-29.837-36.284zm95.983-9.001c0-10.969-1.9708-23.064-11.541-23.064-8.163 0-14.074 9.2816-14.356 23.627l25.896-0.56247zm-40.533 8.7196c0-18.001 10.696-35.44 28.992-35.44 18.859 0 25.895 13.501 25.895 28.971v1.4063h-40.251v1.6878c0 19.408 5.6298 33.19 19.703 33.19 10.133 0 13.792-4.219 18.859-13.501l2.8145 1.6878c-4.7853 10.688-14.074 18.283-25.333 18.283-21.111 0.28111-30.681-16.313-30.681-36.284z"/>
</svg>
