<svg xmlns="http://www.w3.org/2000/svg" xml:space="preserve" width="260.353" height="71.768" version="1.1" viewBox="0 0 260.353 71.768"><defs><clipPath id="a" clipPathUnits="userSpaceOnUse"><path d="M0 0h195.265v53.825H0Z"/></clipPath></defs><g fill="#211d1d" fill-opacity="1" fill-rule="nonzero" clip-path="url(#a)" transform="matrix(1.33333 0 0 -1.33333 0 71.768)"><path d="M10.895 44.927c-3.763 1.283-5.809 2.26-5.809 4.887 0 2.049 1.874 3.157 3.849 3.157 3.644 0 5.794-2.619 6.609-6.768h.767v7.199h-.643l-1.124-2.25h-.103c-1.015 1.324-2.938 2.642-5.475 2.642-3.917 0-6.982-2.764-6.982-6.298 0-4.384 3.126-6.15 7.093-7.447 3.699-1.2 5.373-2.563 5.373-4.758 0-2.765-1.41-4.072-4.561-4.072-1.872 0-3.674.742-4.972 2.256-1.223 1.426-1.933 3.318-2.318 5.569h-.762v-8.318h.597l1.416 2.497h.102c1.234-1.514 3.275-2.842 5.934-2.842 4.814 0 7.742 3.108 7.742 7.148 0 4.039-2.792 6.042-6.733 7.398m181.753 5.864c-1.091 1.577-2.907 3.036-5.807 3.036-6.554 0-10.962-5.411-10.962-11.779 0-6.358 4.198-11.789 10.924-11.789 4.324 0 7.495 2.257 8.462 7.438l-.819.214c-.898-4.221-3.154-6.723-7.09-6.723-4.089 0-6.249 3.428-6.249 10.86 0 7.408 1.997 10.924 5.82 10.924 3.747 0 6.091-2.747 7.145-8.229h.849v8.691h-.535l-1.671-2.643m-155.387.081c-1.092 1.575-2.811 2.954-5.708 2.954-6.553 0-10.965-5.41-10.965-11.779 0-6.357 4.202-11.789 10.927-11.789 4.323 0 7.494 2.257 8.461 7.437l-.818.139c-1.035-4.144-2.974-6.646-7.092-6.646-4.086 0-6.249 3.428-6.249 10.859 0 7.409 2.061 10.923 5.7 10.923 3.745 0 6.09-2.743 7.142-8.227h.728v8.691h-.658l-1.401-2.562M53.37 31.535h-3.331v21.12h3.331v.792H42.04v-.792h3.333v-21.12H42.04v-.821h11.33m74.278.821v-.821h11.33v.821h-3.332v21.12h3.332v.792h-11.33v-.792h3.334v-21.12m31.697 21.12h3.332v-21.12h-3.332v-.821h11.33v.821h-3.332v21.12h3.332v.792h-11.33M76.733 39.183h-.519c-.71-2.404-1.667-4.454-2.897-5.89-1.271-1.478-2.514-1.744-4.878-1.744l-3.597-.004v10.184h1.688c1.314 0 2.264-.257 2.9-.947.799-.755 1.327-2.207 1.349-3.771h.611v10.266h-.611c-.022-1.58-.689-3.016-1.364-3.775-.613-.689-1.555-.941-2.885-.941h-1.688v10.086h4.024c1.884 0 3.162-.468 3.96-1.245 1.331-1.123 2.184-2.777 3.015-5.754h.526v7.799H56.836v-.8h3.335V31.54l-3.335-.004v-.821h19.897m7.834 19.303 14.12-19.302h1.34v19.982c0 1.283.545 1.95 1.671 1.95h1.462v.8h-7.339v-.8h1.513c1.138 0 1.67-.678 1.67-1.95V37.784h-.095L87.681 53.448h-8.312v-.8h.935c1.194 0 1.921-.305 2.49-.958.505-.5.693-.972.693-1.456V33.597c0-1.236-.509-2.054-1.667-2.054l-1.655.002v-.829h7.774v.829l-1.776-.002c-1.124.007-1.654.877-1.654 2.054v16.421m23.863 1.222c.792.786 1.742 1.359 3.273 1.359h.864V31.536h-3.423v-.82h11.502v.82h-3.416v21.063h.751c1.538 0 2.615-.516 3.383-1.321 1.303-1.236 2.08-3.129 2.789-5.943h.771v8.114h-20.028v-8.041h.764c.711 2.814 1.502 4.568 2.77 5.832m33.445-19.705v-.821h11.391v.821h-3.381v10.338h1.414c1.067 0 2.006-.306 2.62-.968.927-.828 1.403-2.471 1.428-3.796h.851v10.345h-.851c-.025-1.294-.534-2.803-1.31-3.652-.685-.752-1.671-1.098-2.738-1.098h-1.414v9.955h3.276c1.967 0 3.157-.475 4.142-1.447 1.005-.99 1.951-2.689 2.82-5.605h.724v7.84h-18.972v-.783h3.331V31.535m-9.49-30.533c-1.295 0-2.435.204-3.667.87-2.265 1.437-3.341 4.762-3.341 9.99 0 5.443 1.057 8.461 2.967 9.909.992.71 2.385 1.017 3.574 1.017 3.642 0 7.308-2.429 8.286-8.231h.799v8.691h-.659l-1.623-2.762h-.067c-1.09 1.578-3.875 3.158-6.776 3.158-6.552 0-11.731-5.41-11.731-11.782 0-6.359 4.862-11.786 12.091-11.786 4.323 0 8.14 2.254 9.108 7.437l-.855.215c-.899-4.226-3.608-6.726-8.106-6.726m-26.571 21.32h3.422V1.202h-3.422V.409h11.502v.793h-3.416v21.12h3.416v.796h-11.502m77.427-.798h1.871c1.137 0 1.67-.679 1.67-1.954V7.323h-.096l-12.08 15.794h-8.188v-.8l.936.002c1.192 0 1.837-.364 2.361-.912.505-.5.697-1.017.697-1.498V3.267c0-1.235-.507-2.051-1.663-2.051h-1.891V.414h8.121v.802h-1.89c-1.122.007-1.655.873-1.655 2.051v16.421h.059L189.738.2h1.339v20.166c0 1.288.544 1.954 1.673 1.954h1.819v.797h-8.055M73.88 3.18c-1.279-1.471-2.714-1.961-5.08-1.961l-3.94-.003v10.188h1.724c1.314 0 2.264-.258 2.9-.949.798-.754 1.328-2.225 1.35-3.789h.857v10.302h-.857c-.022-1.582-.679-3.044-1.363-3.794-.603-.695-1.557-.939-2.887-.939H64.86v10.089h4.225c1.883 0 3.256-.489 4.053-1.265 1.332-1.123 2.231-2.776 3.048-5.739h.755v7.798H56.745v-.794h3.442V1.212l-3.442-.002V.416h20.659v8.415h-.51c-.668-2.357-1.744-4.197-3.014-5.651M39.67 7.484h-.204l-6.31 15.634h-8.954v-.796h3.651V3.364c0-1.32-.557-2.132-1.697-2.14h-1.923V.41h8.238v.814h-1.938c-1.111.008-1.658.877-1.658 2.14V21.32h.095L37.27.334h.798l7.47 20.986h.088V1.205h-3.378V.41h11.484v.795h-3.451v21.117h3.458v.796h-8.495m58.757-21.565c-.87 0-1.35.292-1.649 1.324-.198.689-.332 2.136-.456 3.445-.331 3.496-2.649 4.989-5.822 5.511v.079c3.958.334 6.516 2.41 6.516 5.633 0 3.502-2.562 5.573-8.282 5.573H81.745v-.792l3.432-.004V1.206h-3.432V.411H93.16v.795h-3.31v10.472h3.585c2.145 0 3.46-.924 3.566-3.468.019-.209.115-2.722.136-2.93.162-3.647 2.096-5.278 4.852-5.278 3.457-.002 4.811 1.592 4.843 4.967l-.861.016c-.035-2.375-.763-3.432-1.97-3.432M89.85 22.322l3.487-.002c1.04 0 2.088-.22 2.676-.558 1.325-.756 1.793-2.259 1.793-4.237 0-1.948-.461-3.576-1.647-4.383-.585-.421-1.588-.608-2.582-.608H89.85m-70.119-9.58L12.29 23.147h-1.495L3.513 3.695c-.608-1.566-1.094-2.473-2.508-2.473H-.078V.411h7.081v.811H5.474c-1.442 0-1.447 1.131-.901 2.578L5.95 7.554h7.147l1.681-4.729c.32-.95.451-1.603-.669-1.603H12.36V.411h10.628v.812l-1.487-.001c-1.01 0-1.346.569-1.77 1.732M6.262 8.395l3.272 8.88h.104l3.159-8.88m152.412-5.441-7.441 20.193h-1.497l-7.282-19.452c-.607-1.566-1.105-2.463-2.509-2.473h-1.08V.411h7.078v.811h-1.532c-1.444.007-1.441 1.131-.898 2.578l1.38 3.754h7.145l1.682-4.729c.321-.95.424-1.597-.669-1.603h-1.75V.411h10.628v.811h-1.487c-1.008.006-1.345.569-1.768 1.732m-13.47 5.441 3.272 8.88h.103l3.159-8.88"/></g></svg>