<?xml version="1.0" encoding="UTF-8" standalone="no"?>
<svg
   xmlns:dc="http://purl.org/dc/elements/1.1/"
   xmlns:cc="http://creativecommons.org/ns#"
   xmlns:rdf="http://www.w3.org/1999/02/22-rdf-syntax-ns#"
   xmlns:svg="http://www.w3.org/2000/svg"
   xmlns="http://www.w3.org/2000/svg"
   viewBox="0 0 260.35333 71.767731"
   height="71.767731"
   width="260.35333"
   xml:space="preserve"
   id="svg2"
   version="1.1"><metadata
     id="metadata8"><rdf:RDF><cc:Work
         rdf:about=""><dc:format>image/svg+xml</dc:format><dc:type
           rdf:resource="http://purl.org/dc/dcmitype/StillImage" /></cc:Work></rdf:RDF></metadata><defs
     id="defs6"><clipPath
       id="clipPath18"
       clipPathUnits="userSpaceOnUse"><path
         id="path16"
         d="M 0,0 H 195.265 V 53.825 H 0 Z" /></clipPath></defs><g
     transform="matrix(1.3333333,0,0,-1.3333333,0,71.767733)"
     id="g10"><g
       id="g12"><g
         clip-path="url(#clipPath18)"
         id="g14"><g
           transform="translate(10.8953,44.9271)"
           id="g20"><path
             id="path22"
             style="fill:#211d1d;fill-opacity:1;fill-rule:nonzero;stroke:none"
             d="m 0,0 c -3.763,1.283 -5.809,2.26 -5.809,4.887 0,2.049 1.874,3.157 3.849,3.157 3.644,0 5.794,-2.619 6.609,-6.768 H 5.416 V 8.475 H 4.773 L 3.649,6.225 H 3.546 c -1.015,1.324 -2.938,2.642 -5.475,2.642 -3.917,0 -6.982,-2.764 -6.982,-6.298 0,-4.384 3.126,-6.15 7.093,-7.447 3.699,-1.2 5.373,-2.563 5.373,-4.758 0,-2.765 -1.41,-4.072 -4.561,-4.072 -1.872,0 -3.674,0.742 -4.972,2.256 -1.223,1.426 -1.933,3.318 -2.318,5.569 h -0.762 v -8.318 h 0.597 l 1.416,2.497 h 0.102 c 1.234,-1.514 3.275,-2.842 5.934,-2.842 4.814,0 7.742,3.108 7.742,7.148 C 6.733,-3.359 3.941,-1.356 0,0" /></g><g
           transform="translate(192.648,50.7911)"
           id="g24"><path
             id="path26"
             style="fill:#211d1d;fill-opacity:1;fill-rule:nonzero;stroke:none"
             d="m 0,0 c -1.091,1.577 -2.907,3.036 -5.807,3.036 -6.554,0 -10.962,-5.411 -10.962,-11.779 0,-6.358 4.198,-11.789 10.924,-11.789 4.324,0 7.495,2.257 8.462,7.438 l -0.819,0.214 c -0.898,-4.221 -3.154,-6.723 -7.09,-6.723 -4.089,0 -6.249,3.428 -6.249,10.86 0,7.408 1.997,10.924 5.82,10.924 3.747,0 6.091,-2.747 7.145,-8.229 H 2.273 V 2.643 H 1.738 L 0.067,0" /></g><g
           transform="translate(37.3281,50.8721)"
           id="g28"><path
             id="path30"
             style="fill:#211d1d;fill-opacity:1;fill-rule:nonzero;stroke:none"
             d="m 0,0 c -1.092,1.575 -2.811,2.954 -5.708,2.954 -6.553,0 -10.965,-5.41 -10.965,-11.779 0,-6.357 4.202,-11.789 10.927,-11.789 4.323,0 7.494,2.257 8.461,7.437 l -0.818,0.139 c -1.035,-4.144 -2.974,-6.646 -7.092,-6.646 -4.086,0 -6.249,3.428 -6.249,10.859 0,7.409 2.061,10.923 5.7,10.923 3.745,0 6.09,-2.743 7.142,-8.227 H 2.126 V 2.562 H 1.468 L 0.067,0" /></g><g
           transform="translate(53.37,31.535)"
           id="g32"><path
             id="path34"
             style="fill:#211d1d;fill-opacity:1;fill-rule:nonzero;stroke:none"
             d="M 0,0 H -3.331 V 21.12 H 0 v 0.792 H -11.33 V 21.12 h 3.333 V 0 H -11.33 V -0.821 H 0" /></g><g
           transform="translate(127.648,31.535)"
           id="g36"><path
             id="path38"
             style="fill:#211d1d;fill-opacity:1;fill-rule:nonzero;stroke:none"
             d="M 0,0 V -0.821 H 11.33 V 0 H 7.998 v 21.12 h 3.332 v 0.792 H 0 V 21.12 H 3.334 V 0" /></g><g
           transform="translate(162.679,52.655)"
           id="g40"><path
             id="path42"
             style="fill:#211d1d;fill-opacity:1;fill-rule:nonzero;stroke:none"
             d="M 0,0 H 3.332 V -21.12 H 0 v -0.821 h 11.33 v 0.821 H 7.998 V 0 H 11.33 V 0.792 H 0" /></g><g
           transform="translate(76.733,39.183)"
           id="g44"><path
             id="path46"
             style="fill:#211d1d;fill-opacity:1;fill-rule:nonzero;stroke:none"
             d="m 0,0 h -0.519 c -0.71,-2.404 -1.667,-4.454 -2.897,-5.89 -1.271,-1.478 -2.514,-1.744 -4.878,-1.744 l -3.597,-0.004 V 2.546 h 1.688 c 1.314,0 2.264,-0.257 2.9,-0.947 0.799,-0.755 1.327,-2.207 1.349,-3.771 h 0.611 V 8.094 H -5.954 C -5.976,6.514 -6.643,5.078 -7.318,4.319 -7.931,3.63 -8.873,3.378 -10.203,3.378 h -1.688 v 10.086 h 4.024 c 1.884,0 3.162,-0.468 3.96,-1.245 1.331,-1.123 2.184,-2.777 3.015,-5.754 h 0.526 v 7.799 h -19.531 v -0.8 h 3.335 V -7.643 l -3.335,-0.004 V -8.468 H 0" /></g><g
           transform="translate(84.567,50.0181)"
           id="g48"><path
             id="path50"
             style="fill:#211d1d;fill-opacity:1;fill-rule:nonzero;stroke:none"
             d="m 0,0 14.12,-19.302 h 1.34 V 0.68 c 0,1.283 0.545,1.95 1.671,1.95 h 1.462 v 0.8 h -7.339 v -0.8 h 1.513 c 1.138,0 1.67,-0.678 1.67,-1.95 V -12.234 H 14.342 L 3.114,3.43 h -8.312 v -0.8 h 0.935 c 1.194,0 1.921,-0.305 2.49,-0.958 0.505,-0.5 0.693,-0.972 0.693,-1.456 v -16.637 c 0,-1.236 -0.509,-2.054 -1.667,-2.054 l -1.655,0.002 v -0.829 h 7.774 v 0.829 l -1.776,-0.002 c -1.124,0.007 -1.654,0.877 -1.654,2.054 V 0" /></g><g
           transform="translate(108.372,51.2391)"
           id="g52"><path
             id="path54"
             style="fill:#211d1d;fill-opacity:1;fill-rule:nonzero;stroke:none"
             d="M 0,0 C 0.792,0.786 1.742,1.359 3.273,1.359 H 4.137 V -19.704 H 0.714 v -0.82 h 11.502 v 0.82 H 8.8 V 1.359 h 0.751 c 1.538,0 2.615,-0.516 3.383,-1.321 1.303,-1.236 2.08,-3.129 2.789,-5.943 h 0.771 V 2.209 H -3.534 V -5.832 H -2.77 C -2.059,-3.018 -1.268,-1.264 0,0" /></g><g
           transform="translate(141.817,31.535)"
           id="g56"><path
             id="path58"
             style="fill:#211d1d;fill-opacity:1;fill-rule:nonzero;stroke:none"
             d="M 0,0 V -0.821 H 11.391 V 0 H 8.01 v 10.338 h 1.414 c 1.067,0 2.006,-0.306 2.62,-0.968 0.927,-0.828 1.403,-2.471 1.428,-3.796 h 0.851 V 15.919 H 13.472 C 13.447,14.625 12.938,13.116 12.162,12.267 11.477,11.515 10.491,11.169 9.424,11.169 H 8.01 v 9.955 h 3.276 c 1.967,0 3.157,-0.475 4.142,-1.447 1.005,-0.99 1.951,-2.689 2.82,-5.605 h 0.724 v 7.84 H 0 V 21.129 H 3.331 V 0" /></g><g
           transform="translate(135.658,1.002)"
           id="g60"><path
             id="path62"
             style="fill:#211d1d;fill-opacity:1;fill-rule:nonzero;stroke:none"
             d="m 0,0 c -1.295,0 -2.435,0.204 -3.667,0.87 -2.265,1.437 -3.341,4.762 -3.341,9.99 0,5.443 1.057,8.461 2.967,9.909 0.992,0.71 2.385,1.017 3.574,1.017 3.642,0 7.308,-2.429 8.286,-8.231 h 0.799 v 8.691 H 7.959 L 6.336,19.484 H 6.269 c -1.09,1.578 -3.875,3.158 -6.776,3.158 -6.552,0 -11.731,-5.41 -11.731,-11.782 0,-6.359 4.862,-11.786 12.091,-11.786 4.323,0 8.14,2.254 9.108,7.437 L 8.106,6.726 C 7.207,2.5 4.498,0 0,0" /></g><g
           transform="translate(109.087,22.3221)"
           id="g64"><path
             id="path66"
             style="fill:#211d1d;fill-opacity:1;fill-rule:nonzero;stroke:none"
             d="M 0,0 H 3.422 V -21.12 H 0 v -0.793 h 11.502 v 0.793 H 8.086 V 0 h 3.416 V 0.796 H 0" /></g><g
           transform="translate(186.514,22.3201)"
           id="g68"><path
             id="path70"
             style="fill:#211d1d;fill-opacity:1;fill-rule:nonzero;stroke:none"
             d="m 0,0 h 1.871 c 1.137,0 1.67,-0.679 1.67,-1.954 V -14.997 H 3.445 L -8.635,0.797 h -8.188 v -0.8 l 0.936,0.002 c 1.192,0 1.837,-0.364 2.361,-0.912 0.505,-0.5 0.697,-1.017 0.697,-1.498 v -16.642 c 0,-1.235 -0.507,-2.051 -1.663,-2.051 h -1.891 v -0.802 h 8.121 v 0.802 h -1.89 c -1.122,0.007 -1.655,0.873 -1.655,2.051 v 16.421 h 0.059 L 3.224,-22.12 H 4.563 V -1.954 C 4.563,-0.666 5.107,0 6.236,0 H 8.055 V 0.797 H 0" /></g><g
           transform="translate(73.88,3.18)"
           id="g72"><path
             id="path74"
             style="fill:#211d1d;fill-opacity:1;fill-rule:nonzero;stroke:none"
             d="M 0,0 C -1.279,-1.471 -2.714,-1.961 -5.08,-1.961 L -9.02,-1.964 V 8.224 h 1.724 c 1.314,0 2.264,-0.258 2.9,-0.949 0.798,-0.754 1.328,-2.225 1.35,-3.789 h 0.857 V 13.788 H -3.046 C -3.068,12.206 -3.725,10.744 -4.409,9.994 -5.012,9.299 -5.966,9.055 -7.296,9.055 H -9.02 v 10.089 h 4.225 c 1.883,0 3.256,-0.489 4.053,-1.265 1.332,-1.123 2.231,-2.776 3.048,-5.739 h 0.755 v 7.798 h -20.196 v -0.794 h 3.442 V -1.968 L -17.135,-1.97 V -2.764 H 3.524 V 5.651 H 3.014 C 2.346,3.294 1.27,1.454 0,0" /></g><g
           transform="translate(39.6703,7.484)"
           id="g76"><path
             id="path78"
             style="fill:#211d1d;fill-opacity:1;fill-rule:nonzero;stroke:none"
             d="m 0,0 h -0.204 l -6.31,15.634 h -8.954 v -0.796 h 3.651 V -4.12 c 0,-1.32 -0.557,-2.132 -1.697,-2.14 h -1.923 v -0.814 h 8.238 v 0.814 h -1.938 c -1.111,0.008 -1.658,0.877 -1.658,2.14 V 13.836 H -10.7 L -2.4,-7.15 h 0.798 l 7.47,20.986 H 5.956 V -6.279 H 2.578 v -0.795 h 11.484 v 0.795 h -3.451 v 21.117 h 3.458 v 0.796 H 5.574" /></g><g
           transform="translate(104.001,1.553)"
           id="g80"><path
             id="path82"
             style="fill:#211d1d;fill-opacity:1;fill-rule:nonzero;stroke:none"
             d="M 0,0 C -0.87,0 -1.35,0.292 -1.649,1.324 -1.847,2.013 -1.981,3.46 -2.105,4.769 -2.436,8.265 -4.754,9.758 -7.927,10.28 v 0.079 c 3.958,0.334 6.516,2.41 6.516,5.633 0,3.502 -2.562,5.573 -8.282,5.573 h -12.563 v -0.792 l 3.432,-0.004 V -0.347 h -3.432 v -0.795 h 11.415 v 0.795 h -3.31 v 10.472 h 3.585 c 2.145,0 3.46,-0.924 3.566,-3.468 0.019,-0.209 0.115,-2.722 0.136,-2.93 0.162,-3.647 2.096,-5.278 4.852,-5.278 3.457,-0.002 4.811,1.592 4.843,4.967 L 1.97,3.432 C 1.935,1.057 1.207,0 0,0 m -14.151,20.769 3.487,-0.002 c 1.04,0 2.088,-0.22 2.676,-0.558 1.325,-0.756 1.793,-2.259 1.793,-4.237 0,-1.948 -0.461,-3.576 -1.647,-4.383 -0.585,-0.421 -1.588,-0.608 -2.582,-0.608 h -3.727" /></g><g
           transform="translate(19.7313,2.954)"
           id="g84"><path
             id="path86"
             style="fill:#211d1d;fill-opacity:1;fill-rule:nonzero;stroke:none"
             d="M 0,0 -7.441,20.193 H -8.936 L -16.218,0.741 c -0.608,-1.566 -1.094,-2.473 -2.508,-2.473 h -1.083 v -0.811 h 7.081 v 0.811 h -1.529 c -1.442,0 -1.447,1.131 -0.901,2.578 l 1.377,3.754 h 7.147 l 1.681,-4.729 c 0.32,-0.95 0.451,-1.603 -0.669,-1.603 H -7.371 V -2.543 H 3.257 v 0.812 L 1.77,-1.732 C 0.76,-1.732 0.424,-1.163 0,0 m -13.469,5.441 3.272,8.88 h 0.104 l 3.159,-8.88" /></g><g
           transform="translate(165.209,2.954)"
           id="g88"><path
             id="path90"
             style="fill:#211d1d;fill-opacity:1;fill-rule:nonzero;stroke:none"
             d="M 0,0 -7.441,20.193 H -8.938 L -16.22,0.741 c -0.607,-1.566 -1.105,-2.463 -2.509,-2.473 h -1.08 v -0.811 h 7.078 v 0.811 h -1.532 c -1.444,0.007 -1.441,1.131 -0.898,2.578 l 1.38,3.754 h 7.145 l 1.682,-4.729 c 0.321,-0.95 0.424,-1.597 -0.669,-1.603 h -1.75 V -2.543 H 3.255 v 0.811 H 1.768 C 0.76,-1.726 0.423,-1.163 0,0 m -13.47,5.441 3.272,8.88 h 0.103 l 3.159,-8.88" /></g></g></g></g></svg>