<svg xmlns="http://www.w3.org/2000/svg" width="727.053" height="167.112" version="1.1" viewBox="0 0 681.612 156.668"><g fill="#231f20" fill-opacity="1" fill-rule="nonzero" stroke="none"><path d="M635.492 141.681c-3.363 3.598-9.282 10.482-12.04 13.822-8.103-2.712-12.922-8.655-12.922-15.89v-38.627c-3.925-2.326-10.389-7.232-13.43-9.69h-.126v45.993c1.14 2.067 3.8 3.872 5.827 3.872 1.394 0 1.899-.385 3.804-2.325l1.136 1.034c-3.925 4.136-10.905 11.734-14.445 15.504-4.939-4.391-9.882-8.266-14.697-11.496v-.132c2.407-1.162 3.04-3.356 3.04-7.103V97.949c-1.013-1.806-2.917-3.645-4.185-3.645-1.14 0-2.08.58-3.472 2.25l-1.2-1.349c5.178-4.632 11.392-10.885 14.308-14.242l9.755 9.17c2.506-1.93 7.83-6.5 10.644-9.17 4.307 3.617 13.683 9.948 21.668 14.597v.131c-2.03 1.159-3.296 2.582-3.296 5.554v36.175c0 3.225 2.79 5.811 4.815 5.811 1.266 0 2.283-.905 3.676-2.583l1.14 1.033m-60.565-.52c-4.818 4.781-10.646 10.855-13.56 14.213l-9.756-9.173c-2.505 1.93-7.83 6.503-10.643 9.173-4.309-3.615-13.686-9.947-21.669-14.598v-.129c2.03-1.165 3.295-2.582 3.295-5.557V98.921c0-3.23-2.783-5.814-4.816-5.814-1.265 0-2.279.903-3.671 2.584l-1.141-1.034c3.362-3.601 9.278-10.483 12.036-13.826 8.11 2.714 12.925 8.659 12.925 15.893v38.623c3.929 2.328 10.39 7.237 13.431 9.693h.125V98.164c-1.231-2.123-2.62-3.668-4.261-3.668-1.136 0-2.02.709-3.41 2.124l-1.198-1.481c4.545-3.988 11.17-10.411 14.707-14.178 4.292 4.525 8.71 8.902 13.23 12.928v.131c-2.564.863-3.735 2.533-3.735 7.104v37.066c1.012 1.81 2.66 3.746 3.926 3.746 1.142 0 1.902-.256 3.422-1.678l.763.902zm-121.516-78.16c-4.308 3.748-8.234 8.271-12.417 12.404-4.815-4.78-7.22-7.363-9.25-7.363-1.395 0-2.155.258-3.418 1.549l-1.27-1.291c4.056-3.746 10.265-9.949 12.42-12.273 4.305 4.522 7.6 7.235 9.12 7.235 1.522 0 2.282-.388 3.55-1.421l1.265 1.16m8.615 76.869-14.442 15.505c-4.563-4.007-10.897-9.045-14.57-11.498v-.131c1.898-.774 2.912-2.97 2.912-7.491V98.273c-1.14-2.582-2.534-3.747-4.182-3.747-.887 0-2.026.389-3.547 2.067l-1.396-1.421c4.46-3.849 10.98-9.981 14.955-14.21 2.532 3.099 8.866 9.301 13.176 12.919v.129c-2.281.905-3.67 2.453-3.67 5.166v38.112c2.149 2.842 3.799 3.873 5.699 3.873 1.012 0 2.153-.126 3.927-2.325l1.138 1.034m-35.097-48.574c-2.786 2.714-6.461 7.235-9.504 15.244h-.125c-2.535-5.424-6.716-11.884-9.377-14.47h-.128v45.735c.637 1.551 2.917 4.264 5.325 4.264 2.015 0 3.675-2.068 5.574-3.878l1.139 1.165c-4.126 4.148-11.631 12.153-15.08 16.018-3.769-3.212-11.673-9.085-15.71-11.883v-.134c2.537-1.42 3.421-3.743 3.421-8.01V98.401c-.76-2.324-2.66-3.875-4.056-3.875-1.145 0-2.214.516-3.734 2.068l-1.331-1.422c3.974-3.408 11.322-10.516 14.824-14.21l9.125 9.43 11.273-9.69c1.395 2.198 4.817 6.72 8.364 10.594zM312.71 112.224c-3.8 4.263-8.237 9.3-12.036 13.565-4.437-2.585-13.305-7.363-15.84-7.363-1.772 0-2.914 1.163-5.32 3.618l-1.269-1.163c2.154-2.326 10.518-11.756 12.035-13.696 5.704 2.969 13.813 7.362 16.223 7.362 1.519 0 2.915-.9 4.94-3.485l1.267 1.162"/><path d="M282.932 141.681c-3.363 3.598-9.28 10.482-12.036 13.822-8.108-2.712-12.925-8.655-12.925-15.89v-38.627c-3.926-2.326-10.388-7.232-13.428-9.69h-.128v45.993c1.14 2.067 3.801 3.872 5.83 3.872 1.394 0 1.9-.385 3.8-2.325l1.139 1.034c-3.926 4.136-10.908 11.734-14.443 15.504-4.943-4.391-9.882-8.266-14.698-11.496v-.132c2.407-1.162 3.04-3.356 3.04-7.103V98.145c-1.012-1.81-2.993-3.712-4.26-3.712-1.14 0-2.014.703-3.535 2.12l-1.264-1.348c5.051-4.569 11.594-10.885 14.507-14.242l9.76 9.17c2.503-1.93 7.824-6.5 10.64-9.17 4.308 3.617 13.684 9.948 21.668 14.597v.131c-2.029 1.159-3.295 2.582-3.295 5.554v36.175c0 3.225 2.786 5.811 4.814 5.811 1.27 0 2.28-.905 3.675-2.583l1.14 1.033zm-119.358-78.68c-4.308 3.748-8.235 8.272-12.416 12.404-4.817-4.78-7.223-7.362-9.25-7.362-1.394 0-2.154.257-3.42 1.548l-1.27-1.291c4.056-3.746 10.266-9.949 12.42-12.272 4.306 4.52 7.6 7.235 9.12 7.235 1.522 0 2.282-.39 3.548-1.422l1.268 1.16m6.335 76.869-14.444 15.505c-4.561-4.007-10.769-8.914-14.442-11.37v-.26c1.9-.773 2.786-2.97 2.786-7.49V98.273c-1.14-2.582-2.535-3.747-4.181-3.747-.888 0-2.028.389-3.55 2.067l-1.204-1.421c4.457-3.849 10.789-9.981 14.764-14.21 2.533 3.099 8.868 9.301 13.176 12.919v.129c-2.28.905-3.674 2.84-3.674 5.166v38.112c2.154 2.842 3.8 3.873 5.701 3.873 1.013 0 2.28-.126 4.054-2.325l1.014 1.034m-31.169 1.811c-3.364 3.598-9.284 10.482-12.038 13.822-8.11-2.712-12.923-8.655-12.923-15.89v-38.627c-3.93-2.326-10.39-7.232-13.432-9.69h-.127v45.993c1.14 2.067 3.804 3.872 5.829 3.872 1.395 0 1.9-.385 3.8-2.325l1.142 1.034c-3.93 4.136-10.906 11.734-14.445 15.504-4.655-4.139-9.817-8.276-14.366-11.39v-.255c1.64-.71 2.714-2.255 2.711-6.888l-.002-38.696c-1.012-1.81-2.85-3.619-4.116-3.619-1.14 0-2.123.61-3.643 2.028l-1.198-1.349c5.112-4.44 11.49-10.885 14.405-14.242l9.756 9.17c2.507-1.93 7.832-6.5 10.644-9.17 4.31 3.617 13.687 9.948 21.667 14.597v.131c-2.026 1.159-3.292 2.582-3.292 5.554v36.175c0 3.225 2.785 5.811 4.815 5.811 1.266 0 2.278-.905 3.673-2.583l1.14 1.033zm542.872-42.505c-3.8 2.069-25.593 16.277-27.116 24.028v9.95c0 6.074 9.756 10.464 14.825 10.464 2.156 0 5.069-2.842 7.858-5.813l1.395 1.42-16.724 16.149c-14.575-2.841-22.684-11.111-22.684-19.636v-28.553c0-2.496-1.392-4.647-4.056-5.424v-.13c7.352-4.133 21.415-14.081 29.776-20.668 4.055 4.907 12.038 13.563 16.726 18.213zm-14.677 6.33c-3.926-4.131-9.629-10.98-12.29-14.34h-.125v25.838h.125c2.789-4.264 8.236-8.655 12.29-11.498"/><path d="M512.712 135.221c-8.237 5.295-20.273 13.439-27.243 20.282-7.223-5.038-16.473-9.687-22.175-11.885v-.128c1.902-.775 3.042-2.46 3.042-7.109v-63.56c-1.14-2.582-2.534-3.746-4.181-3.746-.888 0-2.026.388-3.545 2.068l-1.394-1.42c4.454-3.85 10.976-9.984 14.95-14.213 2.533 3.101 8.868 9.301 13.176 12.919v.13c-2.283.904-3.675 2.842-3.675 5.167v17.185c2.534-2.327 6.994-6.953 9.757-10.08 13.685 6.85 18.88 10.982 18.88 21.318v28.16c0 2.976 1.266 4.266 2.408 4.781v.131zm-17.74 9.433V104.86c0-4.612-3.548-9.43-13.178-13.047h-.127v45.345c3.55 1.678 9.883 5.168 13.178 7.496h.127zm-100.536-80.36c0 9.432-6.33 16.669-16.979 16.669-2.185 0-4.333-.257-6.462-.692v61.734c8.462-1.689 12.375-5.552 17.426-10.506l1.26 1.607c-6.436 11.199-16.914 23.562-33.51 23.562-22.305 0-38.392-15.507-38.392-39.404 0-21.834 15.078-34.88 31.045-43.538l1.266 1.164c-8.744 6.588-16.854 20.025-16.854 37.594 0 13.46 4.385 20.85 10.849 25.091 3.292-3.271 3.596-6.556 3.596-11.786v-25.578c0-9.446 8.678-16.02 17.12-21.681-10.796-3.744-21.341-10.487-33.466-10.487-11.156 0-16.47 3.486-16.47 9.43 0 4.523 3.165 7.107 6.461 7.107 2.154 0 3.8-.387 5.069-1.294l-.761 3.618c-1.014.259-2.28.389-3.294.389-5.955 0-10.011-3.748-10.011-11.37 0-12.922 9.503-22.223 25.218-22.223 20.093 0 33.13 14.859 46.245 14.859 5.45 0 7.858-1.679 7.858-5.296 0-3.23-2.029-5.04-5.449-5.945l2.914-2.068c2.66 1.293 5.321 4.653 5.321 9.044zm-25.341 78.002V79.831a49.422 49.422 0 0 1-2.146-.601c-4.37 3.996-5.33 7.614-5.33 14.78v25.835c0 8.735-5.1 12.331-15.964 18.863 5.204 2.782 11.502 3.876 18.627 3.876a38.86 38.86 0 0 0 4.813-.288zM218.694 93.881c-1.647.645-2.79 2.452-2.79 5.04v35.909c0 2.07.636 3.878 2.282 4.784v.13c-7.731 2.066-18.754 8.137-27.75 15.63-12.164-5.943-18.752-11.884-18.752-22.351v-26.997c0-2.071-.888-3.877-2.914-4.781v-.129c8.869-4.652 21.539-14.341 27.622-20.285 4.054 3.23 15.584 9.949 22.302 12.923v.127zm-18.122 51.935v-45.605c-3.547-1.81-11.022-6.33-13.432-8.526h-.124v39.533c0 6.847 7.603 11.882 13.43 14.598h.126zm-119.908-5.243s-10.48 11.636-13.508 15.187c-5.427-1.671-11.277-5.295-13.431-11.497L41.689 156.28c-16.22-4.264-28.257-11.5-28.257-26.359V73.726c0-4.651-1.9-7.232-5.195-7.232-3.04 0-5.996 1.419-5.996 5.424 0 2.325.801 4.133 1.814 5.943l-2.406-.128c-.762-1.422-1.65-3.68-1.65-6.204 0-10.08 6.97-15.631 16.728-15.631 8.235 0 13.43 6.33 13.43 15.503v55.553c0 4.587 1.447 7.404 4.943 10.125V66.621c0-2.726-.761-3.747-1.901-4.652 1.52-1.42 2.533-2.841 3.547-4.908H37v38.24c2.787 1.163 5.321 1.682 7.856 1.682 2.534 0 5.574-.52 7.983-1.682V75.149c-1.268-2.584-3.295-4.91-5.575-4.91-1.14 0-1.775.257-3.042 1.55l-1.14-.905 13.81-14.729 17.107 14.601v.128c-2.662.905-4.31 2.842-4.31 6.331v57.309c0 4.837 3.4 7.981 6.177 7.981.58 0 1.46-.579 2.148-1.301l1.576-1.66 1.074 1.029zm-27.825-32.87V97.111c-2.155.904-4.817 1.42-7.983 1.42-3.042 0-5.45-.516-7.856-1.42v10.592c2.406-.903 4.814-1.423 7.856-1.423 3.166 0 5.828.52 7.983 1.423zm.506 34.88c-.254-1.548-.506-3.6-.506-4.778v-28.294c-2.41-1.162-5.45-1.68-7.983-1.68-2.535 0-5.069.518-7.856 1.68v28.915c.665.43 1.381.865 2.154 1.318 3.853 2.231 8.49 3.356 11.657 3.356 1.013 0 1.774-.127 2.534-.516zM408.669 5.499c-1.648 1.424-3.147 3.14-4.742 4.711-1.84-1.816-2.76-2.799-3.535-2.799-.53 0-.82.102-1.3.59l-.49-.488c1.552-1.424 3.92-3.78 4.743-4.665 1.646 1.718 2.9 2.747 3.485 2.747.581 0 .866-.145 1.355-.54l.484.444m3.285 29.205-5.514 5.887c-1.739-1.521-4.16-3.434-5.562-4.366v-.05c.725-.293 1.113-1.128 1.113-2.846v-14.43c-.435-.983-.968-1.424-1.598-1.424-.338 0-.773.147-1.353.785l-.534-.539c1.7-1.474 4.21-3.78 5.71-5.399.967 1.175 3.384 3.533 5.033 4.907v.05c-.873.343-1.404.932-1.404 1.962v14.48c.824 1.08 1.45 1.473 2.176 1.473.387 0 .824-.05 1.5-.885l.433.395zm-51.374.687c-1.31 1.373-3.531 3.974-4.595 5.253-3.099-1.034-4.939-3.29-4.939-6.04V19.93c-1.5-.884-3.966-2.749-5.126-3.683h-.049v17.474c.438.785 1.452 1.473 2.225 1.473.533 0 .727-.147 1.45-.885l.438.395c-1.5 1.57-4.161 4.466-5.516 5.887-1.887-1.667-3.773-3.14-5.613-4.366v-.05c.921-.44 1.163-1.278 1.163-2.699V18.85c-.387-.689-1.015-1.424-1.5-1.424-.435 0-.724.099-1.305.639l-.292-.344c1.838-1.817 4.065-4.124 5.177-5.399l3.725 3.484c.968-.736 3-2.455 4.063-3.484 1.644 1.372 5.225 3.778 8.275 5.545v.049c-.775.442-1.257.982-1.257 2.111v13.744c0 1.225 1.062 2.209 1.835 2.209.485 0 .872-.344 1.402-.984l.44.395zm-99.109 0c-1.285 1.365-3.543 3.981-4.595 5.253-3.097-1.034-4.935-3.29-4.935-6.04V19.93c-1.5-.884-3.968-2.749-5.127-3.683h-.05v17.425c.436.784 1.355 1.522 2.127 1.522.68 0 .824-.147 1.55-.885l.435.395c-1.5 1.52-4.112 4.366-5.516 5.887-1.4-1.324-3.675-3.04-5.561-4.366v-.05c.87-.391 1.111-1.325 1.111-2.749V11.045c0-4.671 4.609-7.725 7.559-9.345l.375.51c-1.304.955-2.128 2.797-2.128 6.036v7.56c.957-.735 2.99-2.471 4.064-3.484 1.644 1.372 5.225 3.778 8.271 5.545v.049c-.773.442-1.257.982-1.257 2.111v13.744c0 1.225 1.065 2.209 1.839 2.209.483 0 .87-.344 1.403-.984l.435.395zm208.927-18.162c-.63.246-1.067.932-1.067 1.916v13.644c0 .786.244 1.472.873 1.816v.049c-2.954.786-7.159 3.093-10.595 5.937-4.645-2.255-7.16-4.515-7.16-8.49V21.844c0-.785-.336-1.473-1.111-1.817v-.048c3.383-1.768 8.222-5.45 10.546-7.707 1.546 1.225 5.95 3.78 8.514 4.91v.047zm-6.918 19.732V19.634c-1.359-.685-4.209-2.405-5.131-3.24h-.045v15.07c0 2.6 2.902 4.467 5.126 5.497h.05m-13.883 3.63c0 1.325-1.155 2.708-5.176 5.502-2.42 1.673-6.81 3.383-7.824 4.317-1.258-1.816-1.419-2.651-2.77-2.651-2.18 0-6.084.884-6.858 1.472l-.338-.343c.87-1.865 5.692-5.35 9.707-5.35 2.564 0 5.274 1.277 6.194 2.602 1.015-.932 1.69-1.571 1.69-2.896 0-2.355-1.643-2.898-2.128-6.038h-.046c-.969.784-3 2.552-4.015 3.385-3.291-2.5-6.239-4.465-8.274-5.545v-.05c.63-.342 1.26-1.08 1.26-2.256V21.844c0-.785-.342-1.473-1.113-1.816v-.05c3.382-1.767 8.22-5.448 10.546-7.705 1.549 1.225 5.947 3.78 8.514 4.908v.048c-.63.246-1.063.932-1.063 1.916v15.901c0 2.504 1.694 2.798 1.694 5.545zm-7.549-3.926V19.634c-1.352-.685-4.21-2.405-5.126-3.239h-.051v16.59c.967.491 3.095 2.061 5.13 3.68h.047M429.18 19.241c-1.45.786-9.77 6.184-10.353 9.133v3.776c0 2.311 3.726 3.976 5.657 3.976.821 0 1.936-1.08 3.001-2.209l.53.54-6.383 6.134c-5.563-1.079-8.658-4.219-8.658-7.46V22.284c0-.935-.534-1.765-1.552-2.06v-.05c2.807-1.57 8.18-5.35 11.37-7.852 1.55 1.865 4.595 5.153 6.388 6.92zm-5.612 2.405c-1.499-1.569-3.676-4.171-4.696-5.446h-.045v9.817h.045c1.067-1.622 3.147-3.292 4.696-4.37zm-25.835 10.7c-3.823 2.358-8.706 5.941-11.515 8.543-1.595-1.965-4.449-4.223-8.323-4.223-3.915 0-6.478 1.67-8.17 3.925l-.583-.44c3.676-4.515 4.98-5.889 4.98-8.982V19.192c0-3.738 2.47-5.547 6.97-8.492l.48.442c-1.788 1.572-2.123 2.895-2.123 5.695v11.19c0 2.21-1.161 4.025-2.419 5.055v.05c1.057-.505 2.92-1.05 4.932-1.06.46 0 .933.068 1.403.122V9.467c-2.236.274-4.61.743-7.353.743-3.385 0-5.66-2.061-5.66-5.103 0-3.34 2.08-5.007 5.516-5.107l.291 1.277c-1.404-.197-3.775 0-3.775 1.768 0 1.275 1.111 1.57 3.581 1.57 2.61 0 7.11-1.131 10.884-1.131 7.158 0 9.723 3.83 9.723 9.13v17.033c0 2.16.436 2.503 1.16 2.602v.097zm-7.595-14.577v-2.944c0-3.976-.725-5.546-3.725-5.546-.849 0-1.613.04-2.324.108v8.382c1.065.442 2.038.638 3.001.638.964 0 2.13-.196 3.048-.638zm0 4.712v-4.024c-.824.343-1.838.54-3.048.54a8.222 8.222 0 0 1-3-.54v4.024a8.222 8.222 0 0 1 3-.54c1.21 0 2.224.198 3.048.54zm0 12.958V23.167c-.918-.442-2.084-.636-3.048-.636-.963 0-1.936.194-3 .636v9.154c2.542.518 4.445 1.541 6 3.118h.048zm-51.959-.735c-5.127 5.447-5.515 5.887-5.515 5.887-1.402-1.274-3.387-2.844-4.45-3.581-1.452 1.374-1.985 2.012-3.436 3.581-4.401-.589-7.061-3.631-7.061-7.557 0-5.498 4.836-8.835 8.028-10.162-2.128-2.893-5.077-5.446-6.626-6.38v-.047l4.209-4.123c.725 1.175 2.03 2.158 3.095 2.158 1.549 0 2.999-1.03 3.772-2.158.87.98 3.823 3.632 5.275 4.86v.047c-1.016.638-1.4.786-1.4 2.798v13.694c.285.393 1.013 1.473 2.177 1.473.675 0 .966-.297 1.496-.885l.436.395zm-9.965-10.063v-6.92l-1.115-1.129c-1.21 1.227-3.096 1.373-4.401 1.423v.05c1.55 1.226 4.692 4.807 5.465 6.576h.051zm0 11.24v-7.116c0-1.67-.631-3.488-1.936-5.154-1.693 1.079-3.386 3.14-3.386 6.87 0 3.24 1.983 5.744 4.498 5.744.29 0 .532-.05.824-.344zm-10.645-12.27c0 6.576-7.644 13.006-12.82 17.67-1.354-1.571-4.74-4.026-8.272-4.026-4.257 0-6.095 1.522-7.837 3.68l-.34-.243c1.26-4.665 4.838-8.346 9.872-8.346 5.03 0 8.465 2.16 10.16 3.78 4.4-4.417 5.56-6.33 5.56-9.031 0-1.818-.388-4.126-4.547-6.056-1.293-.6-2.958-1.175-5.087-1.742l-.761 1.12c2.568.652 4.42 1.304 5.75 2.068 2.595 1.492 3.195 3.296 3.195 5.542 0 1.327-1.305 3.388-2.42 4.32h-.05c-.143-3.19-1.267-4.736-9.334-6.48l-.69-.147c-.445.669-.885 1.325-1.294 1.964-1.502 2.35-3.581 2.356-3.581 2.356-1.209 0-2.176-.771-2.176-1.768 0-1.276.822-1.865 1.937-1.865 1.055 0 1.846 1.27 2.465 1.27.176 0 .336-.065.484-.287l1.254-1.88c-3.598-.848-7.882-2.533-7.882-6.905 0-1.868.678-3.241 1.548-4.221h.05c.477 2.666 2.236 3.948 9.875 5.82l.769-1.127-.533-.128c-4.655-1.137-9.63-2.358-9.63-7.904 0-5.204 4.646-8.198 10.886-8.198 4.354 0 7.064 1.277 8.973 2.484l.896-1.207.63.442c-2.275 3.08-4.48 6.214-6.666 9.359.724.199 1.399.397 2.02.607 6.167 2.088 7.596 4.46 7.596 9.08zm-7.505-14.094c-1.534-1.7-4.734-3.773-7.975-3.773-4.547 0-6.095 1.325-6.095 3.043 0 2.552 3.694 3.07 9.143 4.418.697.172 1.356.335 1.98.497a562.685 562.685 0 0 1 2.947-4.185zm-31.176 9.724c-1.451.786-9.773 6.184-10.354 9.133v3.776c0 2.312 3.726 3.976 5.661 3.976.823 0 1.935-1.08 2.998-2.209l.532.54-6.385 6.134c-5.563-1.079-8.658-4.219-8.658-7.46V22.284c0-.95-.535-1.765-1.548-2.06v-.05c2.806-1.57 8.174-5.35 11.368-7.852 1.547 1.865 4.596 5.153 6.386 6.92zm-5.613 2.405c-1.498-1.569-3.676-4.171-4.693-5.446h-.048v9.817h.048c1.063-1.622 3.145-3.292 4.693-4.37zM240.717 6.089c0 3.582-2.37 6.233-6.435 6.233-.835 0-1.655-.097-2.468-.265v23.457c4.044-.738 5.911-2.91 7.37-5.373l.614.586c-2.316 5.052-6.183 10.355-13.644 10.355-8.515 0-14.66-5.888-14.66-14.968 0-8.295 5.759-13.254 11.855-16.544l.484.442c-3.339 2.505-6.436 7.61-6.436 14.287 0 5.112 1.545 8.042 4.012 9.655 1.254-1.242 1.504-2.614 1.504-4.6v-9.72c0-3.588 3.312-6.087 6.536-8.238-4.124-1.421-8.149-3.985-12.777-3.985-4.26 0-6.29 1.326-6.29 3.585 0 1.718 1.21 2.698 2.467 2.698.825 0 1.453-.147 1.935-.49l-.291 1.376a5.507 5.507 0 0 1-1.256.146c-2.275 0-3.822-1.422-3.822-4.32 0-5.255 3.624-8.441 9.628-8.441 7.675 0 12.646 5.642 17.657 5.642 2.08 0 3-.635 3-2.012 0-1.225-.775-1.913-2.08-2.256l1.113-.785c1.016.39 1.984 1.865 1.984 3.535zm-9.63 29.536V11.891a16.28 16.28 0 0 1-.818-.227c-1.667 1.517-2.036 2.892-2.036 5.615v9.816c0 3.319-2.03 4.759-6.178 7.241 1.99 1.056 4.474 1.398 7.197 1.398.646 0 1.258-.038 1.836-.11"/></g></svg>