<svg xmlns="http://www.w3.org/2000/svg" width="600" height="89.826" version="1.1" viewBox="0 0 158.75 23.767"><path d="M23.768 11.883c0 6.563-5.32 11.884-11.885 11.884C5.32 23.767 0 18.447 0 11.883 0 5.32 5.32 0 11.883 0c6.565 0 11.885 5.32 11.885 11.883" fill="#00abe6" fill-opacity="1" fill-rule="nonzero"/><path d="M34.874 16.983c-1.87 0-2.915-1.144-2.915-3.163V3.57h-4.636v10.222c0 4.489 2.74 7.053 7.55 7.053 4.812 0 7.552-2.564 7.552-7.053V3.571h-4.637V13.82c0 2.019-1.044 3.163-2.914 3.163zm15.735 3.863c4.064 0 6.73-2.167 6.73-5.383 0-2.295-1.373-4.065-5.013-5.061l-1.272-.35c-1.817-.498-2.49-1.044-2.49-1.844 0-.848.747-1.32 2.066-1.32 1.6 0 3.317.896 4.515 1.919l2.316-2.915a10.24 10.24 0 0 0-6.852-2.644c-3.916 0-6.656 2.12-6.656 5.384 0 2.517 1.643 4.165 4.685 4.96l1.049.276c2.268.598 3.042 1.049 3.042 1.944 0 .922-.8 1.394-2.146 1.394-1.993 0-3.641-.72-4.987-1.918l-2.241 2.819c1.87 1.743 4.488 2.74 7.254 2.74zm19.963-.323h4.716l-6.21-16.952h-5.384l-6.205 16.952h4.583l1.076-3.163h6.354zm-6.253-6.608 2.02-5.93 1.992 5.93Zm19.914 6.608h4.636V7.313h5.04V3.57h-14.71v3.741h5.034zm18.361.323c5.082 0 8.797-3.614 8.797-8.775 0-5.156-3.715-8.823-8.797-8.823-5.087 0-8.801 3.667-8.801 8.823 0 5.161 3.714 8.775 8.801 8.775zm0-3.836c-2.416 0-4.09-1.998-4.09-4.939 0-2.94 1.674-4.981 4.09-4.981 2.417 0 4.086 2.04 4.086 4.981s-1.67 4.939-4.086 4.939zm10.4 3.513h6.677c5.013 0 8.58-3.492 8.58-8.473 0-4.987-3.567-8.479-8.58-8.479h-6.677zm4.563-3.661V7.238h2.114c2.443 0 3.943 1.919 3.943 4.812 0 2.888-1.5 4.812-3.943 4.812zm22.921 3.661h4.716l-6.21-16.952H133.6l-6.205 16.952h4.583l1.076-3.163h6.354zm-6.253-6.608 2.02-5.93 1.992 5.93zm18.521.504L158.75 3.57h-5.23l-3.116 6.73-3.142-6.73h-5.236l6.01 10.848v6.104h4.71zm0 0" fill="#33261c" fill-opacity="1"/></svg>