<?xml version="1.0" encoding="UTF-8" standalone="no"?>
<!-- Created with Inkscape (http://www.inkscape.org/) -->

<svg
   xmlns:dc="http://purl.org/dc/elements/1.1/"
   xmlns:cc="http://creativecommons.org/ns#"
   xmlns:rdf="http://www.w3.org/1999/02/22-rdf-syntax-ns#"
   xmlns:svg="http://www.w3.org/2000/svg"
   xmlns="http://www.w3.org/2000/svg"
   xmlns:sodipodi="http://sodipodi.sourceforge.net/DTD/sodipodi-0.dtd"
   xmlns:inkscape="http://www.inkscape.org/namespaces/inkscape"
   width="600"
   height="89.826447"
   viewBox="0 0 158.75 23.766581"
   version="1.1"
   id="svg49687"
   inkscape:version="0.92.4 (5da689c313, 2019-01-14)"
   sodipodi:docname="USA Today (2020-01-29).svg">
  <defs
     id="defs49681" />
  <sodipodi:namedview
     id="base"
     pagecolor="#ffffff"
     bordercolor="#666666"
     borderopacity="1.0"
     inkscape:pageopacity="0.0"
     inkscape:pageshadow="2"
     inkscape:zoom="2.0066667"
     inkscape:cx="300"
     inkscape:cy="44.913225"
     inkscape:document-units="px"
     inkscape:current-layer="svg49687"
     showgrid="false"
     units="px"
     fit-margin-top="0"
     fit-margin-left="0"
     fit-margin-right="0"
     fit-margin-bottom="0"
     inkscape:pagecheckerboard="true"
     inkscape:window-width="1920"
     inkscape:window-height="1001"
     inkscape:window-x="-9"
     inkscape:window-y="-9"
     inkscape:window-maximized="1" />
  <metadata
     id="metadata49684">
    <rdf:RDF>
      <cc:Work
         rdf:about="">
        <dc:format>image/svg+xml</dc:format>
        <dc:type
           rdf:resource="http://purl.org/dc/dcmitype/StillImage" />
        <dc:title></dc:title>
      </cc:Work>
    </rdf:RDF>
  </metadata>
  <path
     inkscape:connector-curvature="0"
     id="path6918"
     d="m 23.76791,11.88329 c 0,6.56297 -5.32032,11.88329 -11.88462,11.88329 C 5.32032,23.76658 0,18.44626 0,11.88329 0,5.32032 5.32032,0 11.88329,0 c 6.5643,0 11.88462,5.32032 11.88462,11.88329"
     style="fill:#00abe6;fill-opacity:1;fill-rule:nonzero;stroke:none;stroke-width:0.33914411" />
  <path
     inkscape:connector-curvature="0"
     style="fill:#33261c;fill-opacity:1;stroke:none;stroke-width:0.33914408"
     d="m 34.87386,16.983412 c -1.87059,0 -2.91452,-1.14462 -2.91452,-3.16358 V 3.5713201 H 27.3226 V 13.793332 c 0,4.48836 2.73965,7.05314 7.55126,7.05314 4.81161,0 7.55126,-2.56478 7.55126,-7.05314 V 3.5713201 H 37.78838 V 13.819832 c 0,2.01896 -1.04393,3.16358 -2.91452,3.16358 z m 0,0"
     id="path42590" />
  <path
     inkscape:connector-curvature="0"
     style="fill:#33261c;fill-opacity:1;stroke:none;stroke-width:0.33914408"
     d="m 50.60903,20.846472 c 4.06443,0 6.729891,-2.16734 6.729891,-5.38391 0,-2.29452 -1.372471,-4.064431 -5.012971,-5.060662 l -1.27179,-0.34975 c -1.8176,-0.4981198 -2.49059,-1.0439299 -2.49059,-1.8441 0,-0.8478599 0.74717,-1.31948 2.06666,-1.31948 1.60034,0 3.317259,0.89555 4.51485,1.91829 L 57.460801,5.8923301 C 55.643201,4.2443001 53.2003,3.24807 50.60903,3.24807 c -3.91605,0 -6.6557,2.1196501 -6.6557,5.38392 0,2.517081 1.64272,4.165112 4.68443,4.959982 l 1.04923,0.27555 c 2.26802,0.5988 3.04169,1.04923 3.04169,1.94478 0,0.92205 -0.80016,1.39367 -2.14614,1.39367 -1.99248,0 -3.6405,-0.72068 -4.98649,-1.91828 l -2.24153,2.81914 c 1.8706,1.7434 4.48837,2.73964 7.25451,2.73964 z m 0,0"
     id="path42586" />
  <path
     inkscape:connector-curvature="0"
     style="fill:#33261c;fill-opacity:1;stroke:none;stroke-width:0.33914408"
     d="m 70.572069,20.523232 h 4.716212 L 69.077711,3.5713201 H 63.6938 L 57.488519,20.523232 h 4.58375 l 1.075711,-3.16359 h 6.353659 z M 64.3191,13.915212 66.338059,7.9854902 68.33054,13.915212 Z m 0,0"
     id="path42582" />
  <path
     inkscape:connector-curvature="0"
     style="fill:#33261c;fill-opacity:1;stroke:none;stroke-width:0.33914408"
     d="m 84.23257,20.523232 h 4.636736 V 7.3125 h 5.039471 V 3.5713201 H 79.198399 V 7.3125 h 5.034171 z m 0,0"
     id="path42578" />
  <path
     inkscape:connector-curvature="0"
     style="fill:#33261c;fill-opacity:1;stroke:none;stroke-width:0.33914408"
     d="m 102.59438,20.846472 c 5.08186,0 8.79655,-3.614 8.79655,-8.775361 0,-5.1560409 -3.71469,-8.823041 -8.79655,-8.823041 -5.087164,0 -8.801855,3.6670001 -8.801855,8.823041 0,5.161361 3.714691,8.775361 8.801855,8.775361 z m 0,-3.83657 c -2.4164,0 -4.090933,-1.99777 -4.090933,-4.938791 0,-2.9410108 1.674533,-4.9811709 4.090933,-4.9811709 2.4164,0 4.08562,2.0401601 4.08562,4.9811709 0,2.941021 -1.66922,4.938791 -4.08562,4.938791 z m 0,0"
     id="path42570" />
  <path
     inkscape:connector-curvature="0"
     style="fill:#33261c;fill-opacity:1;stroke:none;stroke-width:0.33914408"
     d="m 112.99441,20.523232 h 6.6769 c 5.01297,0 8.57928,-3.49213 8.57928,-8.473311 0,-4.986481 -3.56631,-8.4786009 -8.57928,-8.4786009 h -6.6769 z m 4.56255,-3.6617 V 7.23831 h 2.11435 c 2.44289,0 3.94255,1.9182901 3.94255,4.811611 0,2.888031 -1.49966,4.811611 -3.94255,4.811611 z m 0,0"
     id="path42566" />
  <path
     inkscape:connector-curvature="0"
     style="fill:#33261c;fill-opacity:1;stroke:none;stroke-width:0.33914408"
     d="m 140.47816,20.523232 h 4.71623 L 138.9838,3.5713201 h -5.3839 l -6.20528,16.9519119 h 4.58374 l 1.07572,-3.16359 h 6.35365 z m -6.25297,-6.60802 2.01897,-5.9297218 1.99247,5.9297218 z m 0,0"
     id="path42558" />
  <path
     inkscape:connector-curvature="0"
     style="fill:#33261c;fill-opacity:1;stroke:none;stroke-width:0.33914408"
     d="M 152.7461,14.418632 158.75,3.5713201 h -5.23023 L 150.40388,10.3012 147.2615,3.5713201 h -5.23554 l 6.00921,10.8473119 v 6.1046 h 4.71093 z m 0,0"
     id="path42562" />
</svg>
