<svg xmlns="http://www.w3.org/2000/svg" xmlns:xlink="http://www.w3.org/1999/xlink" xml:space="preserve" width="408" height="104" x="0" y="0" version="1.1" viewBox="0 0 408 104"><defs><path d="M4 4h400v96H4z" id="a"/></defs><clipPath id="b"><use xlink:href="#a" overflow="visible"/></clipPath><g clip-path="url(#b)"><path d="M-3.115-9.004h430.518V100H-3.115z" fill="#005ea6"/><path d="M-1.113 82.424h430.518v4.291H-1.113z" fill="#FFF"/><path d="M-3.115 86.715h430.518v50.596H-3.115z" fill="#C41623"/></g><path d="M404 4v96H4V4h400m4-4H0v104h408V0z" fill="#FFF"/><path d="M76.748 65.242V23.096h-13.23v40.318c0 6.277-5.355 10.016-12.926 10.016-8.645 0-13.391-3.738-13.391-10.094v-40.24H23.975v41.381c0 14.164 11.242 19.82 26.309 19.82 10.399 0 18.778-2.844 23.152-8.595v7.829h11.801V71.223h-9.428c.61-1.806.939-3.796.939-5.981zm63.242.852c0-10.334-6.27-15.307-18.285-17.604-1.379-.23-5.359-1.074-8.41-1.684-9.871-1.988-13.469-3.746-13.469-8.184 0-3.445 1.992-5.66 12.012-5.66 7.648 0 10.938 1.758 12.543 5.125.461.922.844 2.293.844 2.98h13.617c0-1.535-.609-3.82-1.379-5.812-3.055-7.648-10.172-12.926-25.32-12.926-17.746 0-26.004 6.879-26.004 17.137 0 10.023 7.262 15.453 19.047 17.67 2.676.531 7.113 1.379 8.875 1.688 9.781 1.836 12.312 3.59 12.312 8.566 0 3.98-3.211 6.496-12.398 6.496-8.027 0-12.004-1.523-13.688-5.043-.461-.914-.844-2.75-.844-3.824H85.826c0 1.219.23 4.207.852 6.191 2.438 7.652 9.016 13.16 27.297 13.16 11.484 0 19.128-3.223 23.008-8.555v7.715h11.797V71.223h-9.529c.478-1.603.739-3.311.739-5.129zm51.473-4.063-23.254-38.935h-15.375v60.435h12.621V42.6l24.328 40.931h14.301V23.096h-12.621zm41.848-24.135c-9.73 0-17.43 3.645-21.727 9.887-2.508 3.566-3.891 8.102-3.891 13.209 0 5.598 1.215 10.055 3.41 13.539 4.293 6.812 12.312 9.727 22.207 9.727 7.211 0 12.648-1.539 16.543-4.047 4.453-2.848 7.047-6.895 8.094-11.191H245.22c-.238.977-1.375 2.43-3.719 3.484-1.871.812-4.543 1.461-8.191 1.461-4.863 0-8.504-1.293-10.379-3.32-1.535-1.703-2.43-3.238-2.43-5.277h37.773c.727-6.719-.488-13.127-3.812-17.99-3.964-5.759-10.941-9.482-21.151-9.482zM220.42 56.863c0-1.303 1.219-3.971 2.758-5.35 2.191-1.945 5.598-3.168 10.211-3.168 4.867 0 7.945 1.547 9.816 3.41 1.617 1.703 2.172 3.805 2.172 5.107H220.42zm104.687-17.912-10.449 33.146-10.055-33.146h-14.422l-9.805 33.146-10.699-33.146h-13.535l15.953 44.58h15.414s8.758-25.613 8.836-27.158c.082-.488.559-3.129.559-3.129s.492 2.641.578 3.211c.156 1.463 8.918 27.076 8.918 27.076h15.316l16.129-44.58h-12.738zm43.516 17.504c-1.535-.242-7.777-1.141-10.371-1.535-6.32-.977-7.707-1.703-7.707-3.648 0-2.102 2.113-3.246 9.25-3.246 6.156 0 8.504 1.062 9.398 2.273.398.566.57 1.941.57 2.426h12.562c0-.891-.246-3.637-.812-5.348-2.266-6.398-9.977-9.559-22.207-9.559-14.352 0-21.477 5.188-21.477 13.121 0 8.521 4.699 12.814 14.508 14.189 2.672.406 8.023 1.219 9.719 1.461 6.566.973 9.246 1.535 9.246 4.055 0 2.59-2.27 3.887-9.645 3.887-7.055 0-10.457-.566-11.27-2.672a6.717 6.717 0 0 1-.402-2.273H337.1c0 1.461.078 2.68.48 4.461 1.867 7.297 8.996 10.289 24.078 10.289 15.398 0 22.367-4.699 22.367-13.938 0-8.347-4.707-12.32-15.402-13.943zM215.045 35.334c1.156 0 2.406-.195 3.344-.586.172.152.367.32.57.465h4.621a97.884 97.884 0 0 0-2.605-2.004c.973-.926 1.59-2.242 1.648-3.766h-3.406c-.035.695-.258 1.34-.656 1.844-.699-.574-1.398-1.199-1.945-1.645 1.211-.75 2.391-1.82 2.43-3.359 0-.082.016-.418 0-.527-.086-1.473-1.434-2.812-3.746-2.812-2.531 0-3.996 1.414-4.062 2.906v.617c.02.734.289 1.566.996 2.566-1.438.676-2.75 1.535-2.781 2.918 0 .156-.012.438 0 .629.104 2.227 2.705 2.754 5.592 2.754zm-.598-8.996c.051-.43.277-.797.816-.797.559 0 .75.352.77.754v.246c-.039.473-.473.875-1.094 1.242-.301-.395-.473-.781-.492-1.117a1.2 1.2 0 0 1 0-.328zm-.441 4.73c.512.516 1.234 1.078 1.93 1.676a4.643 4.643 0 0 1-1.062.121c-1.266 0-1.809-.223-1.809-.809-.001-.343.386-.675.941-.988zm20.062 4.145s1.859-6.984 1.879-7.391c.047.391 1.863 7.391 1.863 7.391h4.062l3.406-12.145h-3.605s-1.824 7.5-1.824 7.883c0-.383-1.844-7.883-1.844-7.883h-3.82s-1.797 7.5-1.797 7.883c0-.383-1.855-7.883-1.855-7.883h-3.973l3.477 12.145h4.031zm17.825.183c4.445 0 6.473-2.098 6.473-6.363 0-4.059-1.891-6.184-6.473-6.184-4.492 0-6.48 2.355-6.48 6.23-.001 4.15 2.023 6.317 6.48 6.317zm0-9.675c2.059 0 2.719.992 2.719 3.398 0 2.707-.992 3.43-2.699 3.43-1.777 0-2.707-.855-2.707-3.43-.001-2.441.706-3.398 2.687-3.398zm11.785 5.383h2.512l2.133 4.109h4.172l-2.84-4.863c.562-.125 1.109-.504 1.492-1.152.324-.539.535-1.312.535-2.289 0-1.137-.227-1.953-.699-2.566-.613-.809-1.664-1.273-3.281-1.273h-7.688v12.145h3.664v-4.111zm.035-5.176h3.133c.539 0 .895.117 1.074.508.105.18.133.508.133.781 0 .242-.047.566-.141.781-.137.301-.527.406-.984.406h-3.215v-2.476zm20.129 6.281h-5.832v-9.141h-3.758v12.145h9.59zm12.867 1.242c.672-1.008.855-1.957.855-4.547 0-2.211-.145-3.223-.891-4.254-.75-1.043-2.117-1.582-4.312-1.582h-6.664v12.145h6.844c2.184 0 3.438-.641 4.168-1.762zm-7.316-1.105v-6.438h2.344c.918 0 1.363.137 1.836.656.297.344.383 1.469.383 2.34 0 .988-.035 2.363-.352 2.75-.418.492-.918.691-1.867.691h-2.344zm18.015-1.242h2.508l2.145 4.109h4.164l-2.844-4.863c.559-.125 1.117-.504 1.496-1.152.32-.539.535-1.312.535-2.289 0-1.137-.227-1.953-.699-2.566-.613-.809-1.664-1.273-3.281-1.273h-7.684v12.145h3.66v-4.111zm.035-5.176h3.125c.535 0 .902.117 1.09.508.094.18.117.508.117.781 0 .242-.039.566-.133.781-.137.301-.539.406-.992.406h-3.207v-2.476zm21.082 6.453h-6.734v-1.805h6.422v-2.887h-6.422v-1.761h6.668v-2.86h-10.324v12.145h10.39zm6.125-.969s3.285.027 3.742.02c1.492-.031 2.656-.418 3.355-1.234.605-.645.898-1.598.898-2.945 0-1.508-.383-2.555-1.094-3.168-.664-.691-1.707-1.016-3.172-1.016h-7.473v12.145h3.742v-3.802zm-.046-5.519h2.965c.613 0 .965.188 1.172.574.113.164.164.477.164.855 0 .355-.031.582-.152.801-.176.336-.523.57-1.23.57h-2.918v-2.8zm15.832 9.503c4.438 0 6.469-2.098 6.469-6.363 0-4.059-1.895-6.184-6.469-6.184-4.5 0-6.488 2.355-6.488 6.23-.001 4.15 2.023 6.317 6.488 6.317zm0-9.675c2.059 0 2.711.992 2.711 3.398 0 2.707-.992 3.43-2.707 3.43-1.773 0-2.695-.855-2.695-3.43-.001-2.441.698-3.398 2.691-3.398zm11.82 5.383h2.512l2.141 4.109h4.16l-2.836-4.863c.57-.125 1.113-.504 1.504-1.152.312-.539.531-1.312.531-2.289 0-1.137-.238-1.953-.703-2.566-.617-.809-1.68-1.273-3.289-1.273h-7.684v12.145h3.664v-4.111zm.031-5.176h3.133c.531 0 .898.117 1.082.508.094.18.121.508.121.781 0 .242-.043.566-.133.781-.133.301-.539.406-.996.406h-3.207v-2.476zm12.926 9.285h3.785V25.99h3.883v-2.922h-11.52v2.922h3.852z" fill="#FFF"/></svg>