<?xml version="1.0" encoding="UTF-8"?>
<svg width="114px" height="32px" viewBox="0 0 114 32" version="1.1" xmlns="http://www.w3.org/2000/svg" xmlns:xlink="http://www.w3.org/1999/xlink">
    <title>Branding / Logo / Color</title>
    <g id="Symbols" stroke="none" stroke-width="1" fill="none" fill-rule="evenodd">
        <g id="Navigation/Global-Header/Unauthenticated/Search/Desktop" transform="translate(-132.000000, -39.000000)">
            <g id="Visual-Asset/Branding/Logo/Color" transform="translate(132.000000, 39.000000)">
                <g id="Content">
                    <path d="M30.7253785,16.3410286 L40.430468,31.4668698 L30.6747731,31.4668698 L20.9696835,16.3410286 L30.7253785,16.3410286 Z M19.4602785,16.3410286 L9.7536707,31.4668698 L-5.60549723e-14,31.4668698 L9.70508959,16.3410286 L19.4602785,16.3410286 Z" id="Mark-Bottom" fill="#B2B4B2"></path>
                    <polygon id="Mark-Top" fill="#C8102E" points="10.523985 0.000914285714 20.2285685 15.1257397 29.9837574 15.1257397 20.280692 0.000914285714"></polygon>
                    <path d="M105.80835,4.3160381 L108.588101,12.1951492 L108.628585,12.1951492 L111.387081,4.3160381 L113.861682,4.3160381 L109.277345,16.3074032 C108.567353,18.2009905 107.63419,19.3204825 105.504212,19.3204825 C104.226428,19.3204825 103.475445,19.1376254 102.948137,18.9948952 L103.515929,16.9794032 C103.821079,17.060673 104.469333,17.2034032 105.341769,17.2034032 C106.234447,17.2034032 106.701028,16.8574984 107.046156,15.9818159 L107.349788,15.1879111 L103.211791,4.3160381 L105.80835,4.3160381 Z M78.7671407,4.11260952 C80.8161504,4.11260952 82.0736927,4.70283175 83.1895402,5.63946667 L81.9922182,7.26791111 C81.201763,6.61673651 79.9229663,6.08746667 78.9498259,6.08746667 C77.5703247,6.08746667 77.1239857,6.57610159 77.1239857,7.18664127 C77.1239857,8.06232381 78.1988429,8.32695873 79.4776395,8.61191111 C81.3227097,9.01876825 83.5746467,9.48708571 83.5746467,12.0120381 C83.5746467,14.2916571 81.525637,15.3507048 79.0717847,15.3507048 C77.0835015,15.3507048 75.2986516,14.6380698 74.324499,13.6404825 L75.6842642,12.1136254 C76.4949615,12.8059429 77.6917775,13.3961651 79.0717847,13.3961651 C80.4102956,13.3961651 81.2220051,13.0502603 81.2220051,12.1542603 C81.2220051,11.2790857 80.1269058,11.0139429 78.8278671,10.708673 C76.9822908,10.2814984 74.770838,9.79235556 74.770838,7.28822857 C74.770838,5.39514921 76.3937508,4.11260952 78.7671407,4.11260952 Z M89.5797785,4.11296508 C92.1965799,4.11296508 94.8341295,5.74140952 94.8341295,9.73175873 C94.8341295,13.681473 92.1965799,15.3505524 89.5797785,15.3505524 C86.962977,15.3505524 84.3259334,13.681473 84.3259334,9.73175873 C84.3259334,5.74140952 86.9427349,4.11296508 89.5797785,4.11296508 Z M58.3192487,0.0614095238 L58.3192487,12.4799492 C58.3192487,13.7833143 58.4007232,14.577219 58.6436288,15.1268063 L56.0678177,15.1268063 C55.9251107,14.8215365 55.8244061,14.2109968 55.8244061,13.6609016 C55.0334448,14.577219 53.9985659,15.289854 52.3964012,15.289854 C49.9415368,15.289854 48.1364448,13.497854 48.1364448,9.75233016 C48.1364448,6.00629841 49.9825271,4.11271111 52.7405174,4.11271111 C53.8968492,4.11271111 55.0334448,4.58102857 55.8244061,5.47652063 L55.8244061,0.0614095238 L58.3192487,0.0614095238 Z M61.9506363,4.31593651 L64.5876799,12.2971429 L64.6286702,12.2971429 L67.2454717,4.31593651 L69.6593458,4.31593651 L65.7647598,15.1471746 L63.2289269,15.1471746 L59.3338349,4.31593651 L61.9506363,4.31593651 Z M42.5168751,3.44505569e-15 L47.8314465,15.1268571 L45.2348872,15.1268571 L44.0178291,11.543873 L38.317645,11.543873 L37.0803448,15.1268571 L34.706955,15.1268571 L40.0215264,3.44505569e-15 L42.5168751,3.44505569e-15 Z M73.0472206,4.31624127 L73.0472206,15.126654 L70.5316298,15.126654 L70.5316298,4.31624127 L73.0472206,4.31624127 Z M102.583273,4.11250794 L102.502304,6.41295238 C102.380345,6.39263492 101.974491,6.37231746 101.832796,6.37231746 C100.230125,6.37231746 99.2159942,7.1255873 98.5060015,8.28622222 L98.5060015,15.1266032 L96.0106528,15.1266032 L96.0106528,4.31619048 L98.5060015,4.31619048 L98.5060015,6.08736508 L98.5464857,6.08736508 C99.2159942,5.00850794 100.37182,4.11250794 102.42083,4.11250794 L102.583273,4.11250794 Z M89.5797785,6.2503619 C87.7746864,6.2503619 86.8415242,7.55321905 86.8415242,9.73175873 C86.8415242,11.7878857 87.6724637,13.2537905 89.5797785,13.2537905 C91.3848705,13.2537905 92.3185387,11.9509333 92.3185387,9.73175873 C92.3185387,7.71626667 91.465839,6.2503619 89.5797785,6.2503619 Z M53.2885731,6.18915556 C51.4020065,6.18915556 50.6307814,7.41074286 50.6307814,9.81328254 C50.6307814,12.0934095 51.6049339,13.233727 53.2076046,13.233727 C54.2424835,13.233727 55.2363722,12.5820444 55.8244061,11.8694095 L55.8244061,7.53315556 C55.1548976,6.65747302 54.1812511,6.18915556 53.2885731,6.18915556 Z M41.2183424,3.19644444 L41.1778581,3.19644444 L39.0888702,9.30438095 L43.2673521,9.30438095 L41.2183424,3.19644444 Z M73.0674627,0.264939683 L73.0674627,2.44347937 L70.5113877,2.44347937 L70.5113877,0.264939683 L73.0674627,0.264939683 Z" id="Advisory" fill="#C8102E"></path>
                    <path d="M61.9587332,20.489854 C64.5866678,20.489854 66.8057114,22.4931556 66.8057114,26.0903619 C66.8057114,29.6672508 64.5866678,31.6908698 61.9587332,31.6908698 C59.3328228,31.6908698 57.0925249,29.6672508 57.0925249,26.0903619 C57.0925249,22.4931556 59.3125806,20.489854 61.9587332,20.489854 Z M94.0781872,16.3409778 L94.0781872,28.8087873 C94.0781872,30.1167238 94.1601678,30.9141841 94.4040855,31.4658032 L92.917807,31.4658032 C92.7958482,31.0980571 92.6733833,30.4646603 92.6733833,29.8922159 C91.7979111,30.8324063 90.6982574,31.6501841 89.089514,31.6501841 C86.6255407,31.6501841 84.6706569,29.851581 84.6706569,26.0903111 C84.6706569,22.3300571 86.6457828,20.4903111 89.2114729,20.4903111 C90.5965407,20.4903111 91.8389015,21.2263111 92.6733833,22.1665016 L92.6733833,16.3409778 L94.0781872,16.3409778 Z M72.9726283,20.489854 C75.3758753,20.489854 76.4137906,21.777981 76.4137906,23.9240127 L76.4137906,28.8088381 C76.4137906,30.1172825 76.4947591,30.9142349 76.7189407,31.465854 L75.2731465,31.465854 C75.1304395,31.0163302 75.0292288,30.5464889 75.0292288,29.9329016 C73.7873741,31.057473 72.4023063,31.649727 70.793563,31.649727 C68.8791634,31.649727 67.7597736,30.6277587 67.7597736,28.9515683 C67.7597736,26.8263619 69.5719504,25.2730921 75.0292288,24.4349968 L75.0292288,23.8828698 C75.0292288,22.3905524 74.2554734,21.6758857 72.8496574,21.6758857 C71.1599455,21.6758857 69.958069,22.3905524 68.8386792,23.3718857 L68.0846598,22.4931556 C69.3680109,21.3076317 70.8542893,20.489854 72.9726283,20.489854 Z M50.4662128,16.3412317 C53.8673969,16.3412317 55.5778569,17.7517714 55.5778569,20.1426286 C55.5778569,22.187073 54.2742637,23.2903111 52.7267528,23.6377397 L52.7267528,23.6788825 C54.5996559,24.0263111 56.0667044,25.1910095 56.0667044,27.3578667 C56.0667044,29.7492317 54.3967286,31.4655492 50.914576,31.4655492 L45.2326099,31.4655492 L45.2326099,16.3412317 L50.4662128,16.3412317 Z M84.4060416,20.489854 L84.2638407,21.7982984 C84.2638407,21.7982984 83.8767099,21.777473 83.8362257,21.777473 C82.0847753,21.777473 80.6997075,22.7588063 79.8642136,24.4553143 L79.8642136,31.465854 L78.4599157,31.465854 L78.4599157,20.6945524 L79.8642136,20.6945524 L79.8642136,22.8202667 L79.9052039,22.8202667 C80.7406978,21.4915048 82.043785,20.489854 84.1616179,20.489854 L84.4060416,20.489854 Z M61.9587332,21.6956952 C59.781186,21.6956952 58.4973288,23.5354413 58.4973288,26.0700444 C58.4973288,28.4614095 59.658215,30.4845206 61.9587332,30.4845206 C64.1180625,30.4845206 65.4004015,28.6656 65.4004015,26.0700444 C65.4004015,23.7193143 64.2192731,21.6956952 61.9587332,21.6956952 Z M75.0292288,25.4361397 C70.4261683,26.2132825 69.1438293,27.3576635 69.1438293,28.7682032 C69.1438293,29.8922667 69.8973426,30.4845206 71.0987131,30.4845206 C72.6057397,30.4845206 73.929069,29.8511238 75.0292288,28.7885206 L75.0292288,25.4361397 Z M89.3339378,21.6758349 C87.4397804,21.6758349 86.0754608,23.0655492 86.0754608,26.1111365 C86.0754608,29.0744381 87.5420031,30.4438349 89.3339378,30.4438349 C90.6577731,30.4438349 91.6552041,29.7692952 92.6733833,28.6863746 L92.6733833,23.4541206 C91.6142138,22.3092317 90.5757925,21.6758349 89.3339378,21.6758349 Z M50.4459707,24.3325968 L46.658668,24.3325968 L46.658668,30.1784381 L50.8943339,30.1784381 C53.4802661,30.1784381 54.6406462,29.1356444 54.6406462,27.2964063 C54.6406462,25.2524698 53.032915,24.3325968 50.4459707,24.3325968 Z M50.3852443,17.6491683 L46.658668,17.6491683 L46.658668,23.0652952 L50.34476,23.0652952 C52.7469949,23.0652952 54.1517988,22.2073905 54.1517988,20.3265016 C54.1517988,18.4664381 52.9919247,17.6491683 50.3852443,17.6491683 Z" id="Board" fill="#333F48"></path>
                </g>
            </g>
        </g>
    </g>
</svg>