<svg xmlns="http://www.w3.org/2000/svg" xml:space="preserve" width="250" height="39" x="0" y="0" version="1.1" viewBox="0 0 250 39"><path d="M113.92 30.655c-1.812-1.661-4.077-2.717-6.645-2.566l4.833-5.134c3.472.754 1.358 5.737 1.812 7.7m23.709.454-4.077-2.266c-.301-3.926 0-9.363.15-13.139l4.229 2.417-.302 12.988zm-21.897-12.987c-1.358 1.661-2.718 2.868-4.378 4.53-.755 0-1.21-.905-1.965-1.358l.152-6.041c1.963 1.056 3.774 2.566 6.191 2.869zm9.363-3.927-.151-4.682c-2.114 1.662-4.079 4.38-6.343 6.041-2.567-.301-4.832-1.66-6.946-3.021-1.812 1.662-3.776 3.021-6.042 4.079.152 2.267-.301 4.076-.15 6.343l3.17 2.565c-1.66 2.268-4.983 4.079-4.68 6.948 0 .756 0 1.811.755 1.811-.454-.905-.755-2.87.904-3.322 2.417-.604 4.23.907 6.042 2.268 1.963-1.512 3.925-3.021 6.041-4.081l.149-6.643-3.02-2.265c1.662-1.511 3.02-2.869 4.682-4.531.454 0 1.208-.301 1.511.152l-.153 12.231-.754 1.812c1.509 1.057 3.325 2.718 4.984 3.474l3.926-3.474c1.965 1.209 4.079 2.568 6.191 3.773 2.114-1.961 4.079-3.47 6.495-4.53-.303-3.623-.303-9.36 0-12.835-1.813-1.206-3.776-2.265-5.74-3.171-1.961 1.813-4.076 3.171-6.342 4.229l-.15 11.325c-.906.451-1.058 1.661-2.265 1.963-1.059-.151-1.964-1.056-2.568-1.963.151-4.229 0-9.363.453-13.439 1.057.151 2.719.151 3.926 0 0-.303.151-.755-.15-.906l-3.775-.151zm-45.757 5.134-.151 9.967c1.208 1.661 2.568.153 3.926-.302l.151-7.247c-1.057-1.059-2.416-1.964-3.926-2.418zm107.37 2.418c1.208 2.265 1.51 5.587 0 7.853-1.511 1.51-3.775 2.113-6.041 1.963l-.303-13.139c2.569-1.057 5.136 1.056 6.344 3.323zm-12.836 4.377c-.303.755-.303 1.664-1.058 2.115-2.718-2.566-3.474-6.492-3.021-9.815.303-2.115 1.661-4.832 3.926-6.191l.153 13.891zm11.778-13.136c-1.359 1.811-3.625 3.321-5.135 4.68l-.151-7.248a19.032 19.032 0 0 1 5.286 2.568zm-6.04 18.421c-2.416-.149-4.531-1.358-6.342-2.717 1.962-1.059 3.623-2.568 4.227-4.681V9.816c.455-.756 1.51 0 2.115.15v21.443zm1.661-25.218c-4.53 3.776-9.512 6.191-13.892 10.269-2.115 3.323-2.115 6.948-.604 10.571 2.113 4.833 7.399 7.398 12.686 7.248 2.869-.905 5.586-2.265 8.002-4.529 1.359-1.812 4.684-3.474 3.776-6.646.151-3.775-3.172-6.796-6.343-8.002 1.813-1.965 4.681-4.381 6.494-6.192l-.454-.454-1.66 1.511c-2.72-1.057-5.437-2.114-8.005-3.776zm44.7 12.233-.151 12.686c-1.511.15-2.717-1.51-4.228-2.115V18.122a4.889 4.889 0 0 1 1.962-1.51c1.058 0 1.965 1.056 2.417 1.812zm-7.247-9.665c-.906-.152-1.661-1.208-2.72-.907.906.755 1.51 1.964 1.661 3.02v17.367l-.603 2.114 6.34 3.775c1.813-2.114 4.381-3.474 6.495-4.833-.303-3.322-.15-8.458 0-11.778-.604-1.661-2.265-3.475-3.927-3.775l-4.379 3.473c-.454-.908.151-2.266 0-3.473.151-2.266-1.058-6.192 1.962-7.249-1.81-.302-3.622.756-4.829 2.266zm-8.761 22.804c-1.661-.605-2.869-1.662-4.378-2.419 0-4.075-.153-9.211.152-12.835l4.226 2.265v12.989zM195.617 8.607c-.905-.151-1.662-1.057-2.417-1.057.152.604.755 1.208.905 1.962l.154 19.783-.907 1.813c1.359 1.056 2.719 2.115 4.229 3.02l3.775-3.322c2.114.756 4.075 2.418 6.342 3.473 1.813-1.811 3.927-3.624 6.344-4.529-.304-3.927-.304-9.063 0-12.987l-5.891-3.171c-1.963 2.113-4.229 3.471-6.645 4.53l.303 11.929c-.755.453-1.512 1.059-2.265 1.209-2.419-.303-1.662-2.718-1.814-3.926.152-5.587.152-10.271.152-15.707.15-2.114-.302-3.775 1.662-5.133-1.359 0-3.021.755-3.927 2.113zm45.304 11.629-4.076 2.868c.15-2.566 0-4.531.15-6.796 1.359.908 3.02 2.57 3.926 3.928zm3.774-1.812-5.134-4.983c-2.264 1.51-4.228 3.474-6.644 4.53l.15 2.266c-.302 2.868.454 7.098-.604 9.814 1.963 1.662 4.38 2.87 6.645 4.078 1.963-1.964 4.228-3.625 5.891-5.587-.152-.151 0-.453-.305-.303l-3.171 2.416c-1.66.454-3.171-.905-4.529-1.963l-.15-4.53 7.851-5.738zM51.703 19.48l-4.229 3.172.302-6.947c1.208 1.058 2.719 2.568 3.927 3.775zm-39.414 7.249-.453.604c-2.87-3.322-3.775-8.608-2.115-12.231l3.021-2.266c.302 5.134.453 8.911-.453 13.893zm6.795 3.775c-1.509 0-3.473-.754-4.983-1.51-.453-.604-1.208-.604-1.812-1.206 6.946-4.079 3.322-11.025 4.53-17.216l2.114.3.151 19.632zM29.353 7.097l-1.358-1.51c-.454 6.795-.454 14.951-.454 22.803l-.302.453c-2.265 1.36-5.134 2.719-7.551 1.66.302-6.645-.151-12.382.152-19.481 1.359.152 3.02.152 4.38-.151l3.02-5.285-.301-.151c-.454-.151-.454.755-.755 1.058-2.115 2.265-5.89.755-8.457.755-3.929-.151-8.761-2.114-11.328 2.115-.302 1.359-.604 3.323.906 4.38-.151-.755-.906-1.21-.604-2.116.151-.755.755-1.66 1.51-1.51 2.265-.3 5.587 0 7.703.604-3.172 1.812-6.646 3.474-9.514 5.89-1.813 3.321-1.813 6.493-.302 9.966 2.416 4.984 7.853 7.248 13.439 7.096l6.947-3.623 3.322 2.718c1.359 1.058 2.566-1.359 3.474-2.113l-1.812-1.812.15-11.326c.907-.906 1.813-1.813 3.021-1.813.755.152 1.51.907 1.51 1.662v13.288l.906 1.662c2.568 2.868 4.38-1.964 6.795-2.113l5.438 3.47c1.963-1.81 4.378-3.773 6.041-5.435-1.058-.301-1.663 1.21-2.568 1.812-1.207.604-1.962.453-3.02-.301-3.171-.606-2.266-3.776-2.266-6.041l7.854-5.587c-1.663-1.813-3.474-3.474-5.287-4.984-1.962 1.661-4.077 3.323-6.342 4.38v11.625l-.454.458c-.906.904-2.265 1.81-3.171.301-.151-3.624-.301-9.513 0-12.986l-.301-1.209c-.755-1.207-1.964-2.567-3.474-2.717-1.661 1.056-3.17 2.566-4.682 3.473.302-3.929-1.208-9.062 1.661-11.781-1.811 0-3.172.906-3.926 2.416zm69.164 23.558L94.44 28.39c-.303-4.229-.152-9.363.15-13.138l4.228 2.265-.301 13.138zm-1.36-18.122c-2.114 1.965-4.832 3.324-6.795 4.683.151 3.622.151 7.247-.15 11.023l-.604 1.057c1.964 1.359 4.229 2.719 6.342 3.929 2.265-1.815 4.379-3.324 6.796-4.532-.152-3.926-.301-9.363.301-12.987l-5.89-3.173zm50.136 1.059c-.905-.604-1.812 1.056-2.869 1.51-.906.906.756 1.509 1.058 2.416l-.302 11.326c-.152.756-.756 1.36-.907 1.812l3.774 3.019 2.569-2.265c0-.905-1.51-1.358-1.813-2.266l.454-11.476c.756-.452 1.51-1.51 2.718-1.51.755.151 1.662 1.059 1.813 1.813.151 3.625 0 8.608-.302 12.685.453 1.51 1.661 2.569 2.869 3.171 1.662-1.058 3.324-2.566 4.529-3.775-.301-.15-.754.303-1.056.604-.604 1.058-1.661.454-2.266-.151-.605-3.625.15-8.757 0-12.382.454-1.208-.454-2.417-1.358-3.324-2.266-3.623-4.531 1.51-6.797 2.116-.604-1.058-1.055-2.417-2.114-3.323zM79.791 7.853c-5.285 2.416-2.416 9.515-3.624 13.291-.906 2.112-3.322 3.774-5.134 4.83 2.718.303 4.983 1.511 7.249 2.719l.604-16.159c0-.3.453-.451.604-.151v6.496c1.51-.756 3.02-1.662 4.229-3.021.149-3.172-2.418-5.438-3.928-8.005zm-15.403-.604c-1.208 1.812-1.058 3.623 0 5.437h.151c0-.303-.151-.453-.151-.604-.604-.907-.151-2.115.303-2.871 2.415-1.057 5.285-.301 7.4.151-2.719 1.813-5.287 4.531-4.834 8.004h-2.869c-.755.452-1.813.906-1.962 1.962-.152.755-.302 1.814.453 2.266-.303-.757-.151-1.358.151-2.114.604-.453 1.51-.301 2.265-.453 1.662.301 2.567 1.51 1.962 3.02.151 1.511-1.056 2.719-1.962 3.473l1.812-.603c5.135-1.963 2.718-7.551 3.625-11.93.453-3.171 3.624-5.437 6.191-6.494-4.531.152-8.608-2.567-12.535.756zm23.256 6.343c-1.057 1.51-2.87 2.113-4.228 3.471 1.358 1.21 3.02 1.964 4.379 3.021-.755 2.568-.454 5.739-.604 8.155-3.171 1.057-6.645 1.965-8.91 4.682-4.229-2.114-9.061-5.587-13.742-2.87-1.057.906-1.209 3.021-.454 4.229-.755.304-.905-1.207-1.057-1.811-.454-1.512.755-2.869 1.51-4.229 2.265-3.321 7.551-.755 8.154-5.738.303-3.172-.453-6.947.755-9.968 2.417-3.623 6.041-4.982 9.363-7.549 1.663 2.716 3.928 5.435 4.834 8.607z"/></svg>