<?xml version="1.0" encoding="UTF-8"?>
<!DOCTYPE svg PUBLIC "-//W3C//DTD SVG 1.1//EN" "http://www.w3.org/Graphics/SVG/1.1/DTD/svg11.dtd">
<!-- Creator: CorelDRAW 2017 -->
<svg xmlns="http://www.w3.org/2000/svg" xml:space="preserve" width="3.45187in" height="0.40252in" version="1.1" style="shape-rendering:geometricPrecision; text-rendering:geometricPrecision; image-rendering:optimizeQuality; fill-rule:evenodd; clip-rule:evenodd"
viewBox="0 0 2062.21 240.47"
 xmlns:xlink="http://www.w3.org/1999/xlink">
 <defs>
  <style type="text/css">
   <![CDATA[
    .fil0 {fill:#005E8E;fill-rule:nonzero}
    .fil1 {fill:#C20410;fill-rule:nonzero}
    .fil2 {fill:#FF1204;fill-rule:nonzero}
   ]]>
  </style>
 </defs>
 <g id="Layer_x0020_1">
  <metadata id="CorelCorpID_0Corel-Layer"/>
  <path class="fil0" d="M263.65 9.33l-87.87 0 0 133.63 27.33 0 0 -50.82 49.61 0 0 -24.7 -49.61 0 0 -33.41 60.54 0 0 -24.7zm47.78 0l-27.33 0 0 133.63 27.33 0 0 -133.63zm117.03 0l0 79.77 -77.55 -82.2 -8.91 0 0 136.06 27.33 0 0 -80.18 77.34 82.61 9.11 0 0 -136.06 -27.33 0zm144.16 133.63l29.36 0 -59.53 -136.06 -9.11 0 -59.73 136.06 29.36 0 7.49 -17.41 54.67 0 7.49 17.41zm-17.01 -39.89l-35.64 0 17.82 -45.15 17.82 45.15zm151.05 -93.75l0 79.77 -77.55 -82.2 -8.91 0 0 136.06 27.33 0 0 -80.18 77.35 82.61 9.11 0 0 -136.06 -27.33 0zm121.48 -2.43c-39.89,0 -71.27,29.97 -71.27,69.25 0,39.28 31.38,69.24 71.07,69.24 25.92,0 47.58,-12.76 59.12,-33.2l-20.65 -14.58c-8.91,14.17 -21.46,22.47 -38.27,22.47 -24.9,0 -43.13,-18.02 -43.13,-43.73 0,-25.92 18.22,-44.14 43.13,-44.14 16.81,0 29.36,8.3 38.27,22.47l20.65 -14.58c-11.74,-20.45 -33.21,-33.21 -58.92,-33.21zm109.54 2.43l-27.33 0 0 133.63 27.33 0 0 -133.63zm116.83 133.63l29.36 0 -59.53 -136.06 -9.11 0 -59.73 136.06 29.36 0 7.49 -17.41 54.67 0 7.49 17.41zm-17.01 -39.89l-35.64 0 17.82 -45.15 17.82 45.15zm91.92 -93.75l-27.33 0 0 133.63 85.85 0 0 -24.7 -58.52 0 0 -108.93zm215.23 0l-89.9 0 0 133.63 92.33 0 0 -24.7 -64.99 0 0 -33.81 45.96 0 0 -23.28 -45.96 0 0 -27.13 62.56 0 0 -24.7zm132.22 133.63l-43.94 -68.03 41.1 -65.6 -30.98 0 -25.51 42.11 -25.71 -42.11 -31.18 0 41.71 65.6 -44.34 68.03 31.18 0 28.34 -44.34 28.35 44.34 30.98 0zm68.44 -133.63l-50.21 0 0 133.63 27.33 0 0 -47.17 22.88 0c28.14,0 48.19,-17.61 48.19,-43.33 0,-26.12 -20.05,-43.13 -48.19,-43.13zm0 24.09c12.76,0 20.25,7.9 20.25,19.03 0,11.54 -7.49,19.44 -20.25,19.44l-22.88 0 0 -38.47 22.88 0zm182.83 109.54l-37.86 -52.44c14.38,-7.09 23.49,-20.86 23.49,-38.07 0,-26.12 -20.04,-43.13 -48.19,-43.13l-50.21 0 0 133.63 27.33 0 0 -47.17 20.05 0 34.62 47.17 30.78 0zm-85.45 -109.54l22.88 0c12.76,0 20.25,7.9 20.25,19.03 0,11.54 -7.49,19.24 -20.25,19.24l-22.88 0 0 -38.27zm192.15 -24.09l-89.9 0 0 133.63 92.33 0 0 -24.7 -64.99 0 0 -33.81 45.96 0 0 -23.28 -45.96 0 0 -27.13 62.56 0 0 -24.7zm68.03 -2.43c-25.11,0 -44.34,14.78 -44.34,37.86 0,18.83 13.36,29.76 32.39,38.47l14.38 6.48c10.53,4.86 17.01,7.9 17.01,16.6 0,9.31 -7.29,14.78 -19.03,14.78 -15.99,0 -25.51,-9.31 -32.8,-19.44l-18.83 14.17c9.92,17.82 28.55,29.56 51.63,29.56 26.52,0 46.77,-15.18 46.77,-40.09 0,-19.03 -11.95,-29.76 -33,-39.08l-15.18 -6.68c-9.72,-4.45 -15.59,-7.69 -15.59,-15.39 0,-8.91 7.69,-12.96 16.6,-12.96 10.93,0 19.03,5.67 25.51,15.39l18.63 -14.37c-7.9,-14.58 -22.88,-25.31 -44.14,-25.31zm112.17 0c-25.11,0 -44.34,14.78 -44.34,37.86 0,18.83 13.36,29.76 32.39,38.47l14.38 6.48c10.53,4.86 17.01,7.9 17.01,16.6 0,9.31 -7.29,14.78 -19.03,14.78 -16,0 -25.51,-9.31 -32.8,-19.44l-18.83 14.17c9.92,17.82 28.55,29.56 51.63,29.56 26.52,0 46.77,-15.18 46.77,-40.09 0,-19.03 -11.95,-29.76 -33,-39.08l-15.19 -6.68c-9.72,-4.45 -15.59,-7.69 -15.59,-15.39 0,-8.91 7.69,-12.96 16.6,-12.96 10.93,0 19.03,5.67 25.51,15.39l18.63 -14.37c-7.9,-14.58 -22.88,-25.31 -44.14,-25.31z"/>
  <path class="fil1" d="M1611.53 239.25l-13.36 -22.22c5.13,-1.29 11.4,-5.61 11.4,-15.46 0,-9.7 -6.42,-15.89 -20.69,-15.89l-20.23 0 0 53.57 9.29 0 0 -21 10.27 0 12.53 21 10.8 0zm-12.38 -36.96c0,6.25 -4.08,9.56 -11.4,9.56l-9.82 0 0 -19.7 9.66 0c8.83,0 11.55,4.1 11.55,10.13zm56.93 15.53c0,-12.65 -6.8,-21.78 -19.33,-21.78 -12.23,0 -20.24,8.55 -20.24,21.21 0,12.22 6.65,23.23 22.43,23.23 5.29,0 11.55,-1.95 16.38,-6.55l-2.79 -4.17c-4.98,3.74 -8.76,4.89 -13.29,4.89 -8.76,0 -13.29,-5.97 -13.89,-14.52l30.58 0c0.15,-0.65 0.15,-1.37 0.15,-2.3zm-9.06 -2.37l-21.67 0c1.21,-8.7 4.61,-13.73 10.95,-13.73 7.4,0 10.04,5.25 10.72,13.73zm59.65 17.54c-1.06,0.21 -1.89,0.29 -2.79,0.29 -2.64,0 -4.08,-0.86 -4.08,-5.1l0 -18.62c0,-7.91 -4.61,-13.15 -16.46,-13.15 -7.32,0 -12.99,2.3 -17.89,5.32l2.72 5.89c4.08,-2.59 8.53,-4.46 13.74,-4.46 7.25,0 9.59,2.95 9.59,5.46l0 2.66c-20.16,1 -28.31,6.54 -28.31,15.67 0,8.2 6.19,12.95 14.19,12.95 5.66,0 10.95,-1.31 14.57,-6.56 0.6,3.67 1.89,6.63 6.95,6.63 3.02,0 5.89,-0.87 7.7,-1.95l0.08 -5.03zm-15.18 -4.03c-2.94,3.24 -7.17,4.82 -11.93,4.82 -5.96,0 -8.31,-3.02 -8.31,-7.33 0,-4.39 3.32,-9.35 20.23,-10.64l0 13.15zm60.4 10.29l0 -57.52 -8.46 0 0 18.84 0 2.44c-3.62,-4.74 -8.31,-6.47 -13.44,-6.47 -11.55,0 -18.04,7.98 -18.04,21.42 0,17.9 10.04,21.94 17.52,21.94 6.12,0 9.36,-1.31 14.27,-5.98l0.6 5.33 7.55 0zm-8.68 -10.51c-2.57,3.02 -7.02,5.03 -11.1,5.03 -6.42,0 -11.25,-4.17 -11.25,-15.82 0,-10.57 4.08,-15.53 11.1,-15.53 6.95,0 10.12,4.6 11.25,7.98l0 18.33zm66.14 -24.22l0 -5.97 -12.84 0 0 -12.87 -7.02 0 -1.59 12.87 -7.1 0 0 5.97 7.17 0 0 23.58c0,8.05 3.78,11.73 12.76,11.73 3.62,0 6.27,-0.5 8.23,-1.74l0 -5.25c-1.74,0.57 -3.32,0.57 -4.98,0.57 -5.96,0 -7.47,-2.23 -7.47,-6.83l0 -22.07 12.84 0zm47.19 13.66c0,-12.94 -8.23,-22.14 -20.77,-22.14 -12.31,0 -20.54,9.2 -20.54,22.21 0,12.94 8.23,22.22 20.54,22.22 12.38,0 20.77,-9.28 20.77,-22.3zm-8.53 0.21c0,9.49 -4.53,16.75 -12.23,16.75 -7.85,0 -12,-7.48 -12,-16.82 0,-9.56 4.23,-16.68 12,-16.68 7.93,0 12.23,7.19 12.23,16.75zm74.22 20.86l0 -7.35 -24.92 0 0 -46.22 -9.29 0 0 53.57 34.2 0zm44.17 -21.43c0,-12.65 -6.8,-21.78 -19.33,-21.78 -12.23,0 -20.23,8.55 -20.23,21.21 0,12.22 6.64,23.23 22.42,23.23 5.29,0 11.55,-1.95 16.38,-6.55l-2.79 -4.17c-4.98,3.74 -8.76,4.89 -13.29,4.89 -8.76,0 -13.29,-5.97 -13.89,-14.52l30.58 0c0.15,-0.65 0.15,-1.37 0.15,-2.3zm-9.06 -2.37l-21.67 0c1.21,-8.7 4.61,-13.73 10.95,-13.73 7.4,0 10.04,5.25 10.72,13.73zm59.65 17.54c-1.06,0.21 -1.89,0.29 -2.79,0.29 -2.64,0 -4.08,-0.86 -4.08,-5.1l0 -18.62c0,-7.91 -4.61,-13.15 -16.46,-13.15 -7.32,0 -12.99,2.3 -17.89,5.32l2.72 5.89c4.08,-2.59 8.53,-4.46 13.74,-4.46 7.25,0 9.59,2.95 9.59,5.46l0 2.66c-20.16,1 -28.31,6.54 -28.31,15.67 0,8.2 6.19,12.95 14.19,12.95 5.66,0 10.95,-1.31 14.57,-6.56 0.6,3.67 1.89,6.63 6.95,6.63 3.02,0 5.89,-0.87 7.7,-1.95l0.08 -5.03zm-15.18 -4.03c-2.94,3.24 -7.17,4.82 -11.93,4.82 -5.96,0 -8.31,-3.02 -8.31,-7.33 0,-4.39 3.32,-9.35 20.23,-10.64l0 13.15zm60.4 10.29l0 -57.52 -8.46 0 0 18.84 0 2.44c-3.62,-4.74 -8.31,-6.47 -13.44,-6.47 -11.55,0 -18.04,7.98 -18.04,21.42 0,17.9 10.04,21.94 17.52,21.94 6.12,0 9.36,-1.31 14.27,-5.98l0.6 5.33 7.55 0zm-8.68 -10.51c-2.57,3.02 -7.02,5.03 -11.1,5.03 -6.42,0 -11.25,-4.17 -11.25,-15.82 0,-10.57 4.08,-15.53 11.1,-15.53 6.94,0 10.12,4.6 11.25,7.98l0 18.33z"/>
  <g id="_2252088389120">
   <path class="fil2" d="M53.89 14.05c-6.35,7.75 -5.24,19.43 2.35,26.05l0 0 53.97 48.41c7.07,6.16 2.42,16.37 2.42,16.37l0 0 1.11 0.97 11.29 -14.03c2.76,-3.39 4.11,-7.51 4.13,-11.61l0 0 0 -0.21c-0.02,-5.29 -2.24,-10.56 -6.46,-14.24l0 0 -53.99 -48.4c-7.07,-6.19 -2.41,-16.39 -2.41,-16.39l0 0 -1.11 -0.98 -11.29 14.05z"/>
   <path class="fil2" d="M29.01 45.05c-6.35,7.77 -5.24,19.45 2.34,26.06l0 0 53.98 48.4c7.07,6.18 2.41,16.38 2.41,16.38l0 0 1.11 0.99 11.29 -14.05c6.34,-7.75 5.24,-19.44 -2.34,-26.05l0 0 -53.98 -48.41c-7.08,-6.18 -2.42,-16.37 -2.42,-16.37l0 0 -1.11 -0.97 -11.29 14.03z"/>
   <path class="fil2" d="M4.12 76.07c-2.74,3.35 -4.09,7.46 -4.12,11.56l0 0 0 0.3c0.03,5.27 2.25,10.52 6.47,14.19l0 0 53.98 48.41c7.08,6.19 2.42,16.39 2.42,16.39l0 0 1.11 0.98 11.29 -14.05c6.34,-7.78 5.23,-19.45 -2.34,-26.04l0 0 -53.98 -48.42c-7.08,-6.18 -2.42,-16.37 -2.42,-16.37l0 0 -1.11 -0.99 -11.29 14.05z"/>
  </g>
 </g>
</svg>
