<svg xmlns="http://www.w3.org/2000/svg" xml:space="preserve" width="3000" height="768.878" x="0" y="0" version="1.1" viewBox="-258 223.8 3000 768.878"><g><path d="M-387.126-47.283H52.71V65.444h-439.835z" fill="#ff0500" fill-opacity="1" fill-rule="evenodd" clip-rule="nonzero" color="#000" color-interpolation="sRGB" color-interpolation-filters="linearRGB" color-rendering="auto" display="inline" image-rendering="auto" opacity="1" overflow="visible" shape-rendering="auto" style="isolation:auto;mix-blend-mode:normal;solid-color:#000;solid-opacity:1" text-rendering="auto" transform="translate(2382.485 546.302) scale(6.82074)" visibility="visible"/><path d="M393.489 475.912h-34.083v297.227h-63.924L139.948 570.72v136.36h34.09v66.053H30.224V707.08h34.09V475.912h-34.09V409.86h109.725l144.88 188.56V475.911h-34.09V409.86H394.56c-1.071 0-1.071 66.052-1.071 66.052zm227.976 169.386v17.052H462.74c-4.263 51.128 14.91 66.045 43.673 66.045 24.507 0 42.616-15.98 42.616-41.545h68.18c-1.07 44.744-24.507 95.872-115.059 95.872-89.488 0-131.026-64.98-131.026-137.424 0-64.981 42.609-134.232 129.962-134.232 83.097 0 120.386 58.597 120.386 134.232zm392.036-64.981h-23.436l-58.59 197.078h-77.77l-36.218-107.59-33.026 107.59h-78.834l-64.982-197.078H617.21v-67.116h137.425v67.116h-34.09l36.218 104.398 46.872-171.514h42.616l57.526 171.514 30.898-104.398h-34.097v-67.116h115.052c-2.128 0-2.128 67.116-2.128 67.116zm96.943 2.128c0 9.59 7.455 15.981 33.026 23.436l37.282 11.718c34.09 11.718 75.642 36.218 75.642 83.097 0 54.327-40.487 80.962-91.623 80.962-40.48 0-71.372-19.173-79.898-28.763v22.372h-67.116v-91.616h66.052c2.135 29.827 28.763 45.808 52.2 45.808 19.18 0 28.762-8.526 28.762-18.109 0-11.718-7.455-19.18-40.48-29.827l-33.02-10.654c-33.026-10.654-70.315-35.154-70.315-79.898 0-54.334 47.943-80.962 88.424-80.962 42.61 0 62.853 11.718 73.507 23.436V513.2h67.116v82.033h-69.25c-1.065-22.372-22.373-31.962-44.745-31.962-18.109 1.064-25.564 8.526-25.564 19.173zm547.57-2.128h-23.437l-58.59 197.078h-77.77l-36.218-107.59-33.026 107.59h-78.834l-64.981-197.078h-23.443v-67.116h137.424v67.116h-34.083l36.218 104.398 45.808-171.514h42.61l57.525 171.514 30.898-104.398h-35.154v-67.116h115.052v67.116zm242.886 64.981v17.052h-157.655c-4.263 51.128 14.91 66.045 43.673 66.045 24.507 0 42.616-15.98 42.616-41.545h68.18c-1.063 44.744-25.57 95.872-115.052 95.872-90.552 0-132.097-64.98-132.097-137.424 0-64.981 43.673-134.232 131.026-134.232 83.098 0 119.316 57.533 119.316 134.232zm259.938-1.064v17.052H2003.17c-4.263 51.128 14.917 66.045 43.68 66.045 24.5 0 42.61-15.98 42.61-41.552h68.18c-1.065 44.744-25.565 95.88-115.053 95.88-90.552 0-132.097-64.982-132.097-137.425 0-64.981 43.68-134.232 131.026-134.232 83.097 0 119.322 57.533 119.322 134.232zm286.567 132.097h-78.834l-82.027-107.597-26.635 20.244v21.308h23.437v67.116h-122.508V711.35h23.436V476.983h-34.09v-67.116h109.725v210.931l55.399-40.481h-34.09v-67.116h145.943v67.116h-23.436l-57.526 42.61 66.052 86.288h34.09c1.064 1.071 1.064 67.116 1.064 67.116zm-444.235-157.66h86.29c0-37.29-24.5-52.207-41.54-52.207-21.314 0-43.686 17.052-44.743 52.206zm-259.938 0h86.296c0-37.29-24.5-52.207-42.616-52.207-20.238 1.071-42.61 18.116-43.674 52.206zm-1279.435 1.063h86.296c0-37.289-24.5-52.199-42.616-52.199-21.301 0-42.609 17.045-43.673 52.2z" fill="#fff"/></g></svg>