<svg xmlns="http://www.w3.org/2000/svg" xml:space="preserve" width="250" height="59" x="0" y="0" version="1.1" viewBox="0 0 250 59"><path d="M92.396 10.044s-4.766 0-7.919 2.766c-3.153 2.773-7.69 7.044-7.497 16.695.209 10.401 7.218 14.747 11.843 15.721 4.368.92 7.146.602 9.246 0 2.102-.601 0-.974 0-.974s-3.57 1.575-6.376.077c-2.8-1.501-6.234-5.315-7.216-10.635-1.257-6.818-.499-12.506 1.262-16.839 1.399-3.444 4.669-5.735 5.395-6.135.526-.293 1.262-.676 1.262-.676"/><path d="M89.451 16.107v17.512s-.139 1.35-.698 2.247c-.562.899-2.733 2.475-2.733 2.475l.211.895 6.026-4.115s1.749-1.501 2.452-2.991c.698-1.501.698-4.646.698-4.646V12.586l-.559-.668s-1.612 1.493-3.083 2.542a8573.956 8573.956 0 0 1-2.314 1.647"/><path d="M94.918 11.843s2.942-3.521 4.202-5.921c0 0 7.007 1.95 10.511 12.508 3.506 10.55-1.891 18.86-3.295 20.733-1.399 1.866-5.111 5.089-7.636 5.839l-.278-.75s2.241-.825 3.712-3.223c1.473-2.391 3.083-7.111 2.803-12.797-.278-5.69-2.202-11.007-5.745-13.85-1.96-1.573-3.431-2.316-3.923-1.722l-.351-.817"/><path d="M97.929 13.113h.912v31.664h-.912z"/><path d="M98.632 24.418h6.446v.972h-6.446zm-.071 5.161h6.868v.977h-6.868zm12.324-9.059s3.784-2.689 5.116-3.814c0 0 1.3 1.466 1.889 2.84 0 0 .422 1.274.492 2.997 0 0 1.682-.972 5.186-4.562 0 0 1.75 3.364 4.205 2.015 0 0-1.544 6.063-7.078 2.249-.002 0-2.522 1.69-2.522 2.023v13.249s.07.224.278.599c.211.376 1.963 2.394 2.244 2.394.278 0 1.26-1.272 1.26-1.272l.701.671-4.482 4.719s-2.736-1.946-4.977-4.645V21.869s.072-.298-.139-.673c-.208-.375-.208-.676-.559-.676-.353 0-1.123.676-1.123.676l-.491-.676"/><path d="M126.954 22.992s4.906-2.771 9.881-5.461c0 0 1.19 2.241 4.135 7.335 0 0-5.467 4.788-8.898 7.554v-1.268s2.522-2.023 4.764-3.968l-3.362-6.364s-.422-.599-.909-.3c-.492.3-.492.902-.492.902V34.37s0 .599.14 1.049c.142.447 4.624 5.313 4.975 5.313.42 0 3.014-2.241 3.014-2.241l.631.673s-4.064 3.516-6.587 5.539l-6.234-5.914s-.548-.306-.844-1.347c-.211-.748-.211-2.398-.211-2.398V22.992m23.771-5.911s-4.831 4.564-8.688 7.484c0 0-.071 7.263 0 15.041 0 0 4.625 3.973 6.796 5.697 0 0 3.573-3.297 3.924-3.297s2.944 5.909 2.944 6.286c0 .375-2.524 1.422-4.346.447-1.821-.974-3.258-2.36-7.216-1.048-4.098 1.361-4.301 3.523-4.344 4.122-.005.074 4.416-2.323 8.968 1.419 0 0 .634.596.634.071 0-.38.835-2.84 3.009-3.065 2.172-.224 7.946-.447 7.919-3.444-.021-2.092-2.732-5.3-2.872-9.127-.035-.901-.142-2.1-.142-2.1V23.593s.351-3.446 2.803-3.598v-3.364s-2.803 0-3.364 5.464l-4.482 2.547v15.789l-.281.449c-.246.191-.348.149-.77-.224-.42-.377-4.065-3.29-4.065-3.59V21.493s.211-.524.703-.298c.266.124 1.958 1.272 1.958 1.272l.912-5.386"/><path d="M150.728 17.155s4.415 3.665 6.236 5.089l-4.624 2.622s-.139-.447-.489-.673c-.353-.224-3.084-2.848-4.135-2.997l3.012-4.041m17.994 0c-.35 0-2.521 2.167-4.835 4.115-2.313 1.946-4.132 3.161-4.132 3.596v14.74c0 .375 6.726 5.396 7.004 5.396.281 0 3.435-4.646 3.435-4.646s-.281.152-.562.075c-.278-.075-4.622-3.591-4.622-3.591V21.494s.348-.447.698-.298c.353.149.843.521.843.521l2.171-4.562"/><path d="M168.794 17.155s2.378 1.866 3.782 3.066c1.398 1.2 2.941 2.246 3.014 2.472v14.672s-5.396 4.563-8.759 7.56L169 41.181s.751-.37 1.124-.673l.28-1.126V24.717s-1.963-1.647-2.942-2.321c-1.135-.78-1.612-1.126-1.893-1.275-.281-.151 1.189-.748 1.189-.748l2.036-3.218m11.587.525c-.423 0-4.485 3.891-4.485 3.891l.562.599s.768-.748 1.049-.676c.281.077 1.471 1.426 1.471 1.799 0 .375.07 15.423.07 15.423s-.278.743-.84 1.265l3.712 4.873 3.575-3.974c.209-.224-.77-.824-1.054-1.197-.28-.37-.211-.967-.211-.967V24.642s2.736-2.547 3.084-2.547c.351 0 2.594 2.097 2.594 2.396 0 .3-.069 15.041 0 15.416.069.373 3.504 4.796 3.504 4.796l4.201-4.572-.559-.748-1.051 1.126c-.209.224-1.263-1.049-1.263-1.345V22.621l-4.555-4.49-5.814 5.164s-.211-1.198-.489-1.647c-.281-.452-3.501-3.968-3.501-3.968M200.46 7.572s-2.032 1.948-3.292 3.598c0 0 1.683 1.491 3.081 3.138 0 0 2.103-2.39 3.226-3.662l-3.015-3.074m-4.833 13.85s2.522-2.1 4.274-3.591c0 0 3.573 3.29 3.503 3.886-.071.602 0 16.323 0 16.847 0 .52 1.121 1.943 1.472 1.943s1.051-.825 1.051-.825l.56.597-4.271 4.646s-2.714-2.438-3.437-3.444c-.611-.859-.487-.974-.487-1.352V22.542s-.634-1.198-1.123-1.049c-.489.152-1.051.676-1.051.676l-.491-.747m32.142-3.668c-.42 0-4.483 3.891-4.483 3.891l.56.599s.771-.75 1.051-.673c.278.075 1.538 1.573 1.538 1.946v15.271s-.275.743-.84 1.268l3.715 4.87 3.573-3.971c.211-.224-.771-.825-1.051-1.2-.281-.373-.212-.967-.212-.967V24.717s2.736-2.547 3.084-2.547c.351 0 2.594 2.097 2.594 2.395 0 .301-.069 15.041 0 15.416.067.375 3.501 4.796 3.501 4.796l4.201-4.57-.557-.748-1.054 1.12c-.208.227-1.26-1.048-1.26-1.344V22.693l-4.555-4.49-5.814 5.163s-.211-1.197-.489-1.65c-.283-.446-3.502-3.962-3.502-3.962"/><path d="M214.224 21.21s-2.172-1.267-3.784-3.141c0 0-1.821 2.54-3.504 4.264l6.868 5.164s.489.224.209.748c-.281.524-4.133 2.171-5.885 4.495-1.751 2.315-2.832 6.246 0 10.252 1.3 1.839 4.694 1.722 4.694 1.722l3.784-3.521s.069-.373.562-.373c.487 0 .629.373.629.373l.211-2.316c-.002 0-1.192.825-2.594 1.126s-3.643-.449-4.344-2.624c-.701-2.172-.631-5.163 1.332-6.736 1.96-1.573 3.153-2.773 3.153-2.773l-5.116-3.814s2.102-.822 3.712-2.398l.073-.448"/><path d="M217.516 40.893s1.19 1.498 3.924 3.75l3.852-4.189-.629-.676s-.629.892-.909.892c-.281 0-1.121-.743-1.263-1.044-.139-.298-.069-.972-.069-.972l-.211-15.196-.07-.453c-.142-.224-3.152-3.29-4.904-5.161 0 0-1.193 2.172-2.942 3.29l-.069.524s.912 1.051 2.872 2.624l.072.373c.067.378 0 4.341 0 4.341l-2.244-1.576-.42.602 2.731 1.945v10.036l.279.89M7.302 8.138c-1.829 1.623-1.61 5.837.142 7.484l.631.219s-1.121-2.766 1.19-3.963c2.313-1.2 4.704-.273 5.536-.075 2.873.673 7.355 2.696 10.299 3.444v23.427s-2.557 1.279-4.974.822c-4.44-.837-5.606-2.547-6.307-3.221 0 0-3.153-2.238-3.573-7.037-.42-4.788.979-11.599 6.165-14.516 0 0-7.124.383-10.228 8.379-3.076 7.929.157 17.9 6.093 21.337 3.146 1.823 18.079 5.983 21.372-13.326 0 0-2.733 5.441-7.427 7.111V15.247s3.715.594 5.606-2.172c1.891-2.771 1.329-5.911-.42-7.335-1.752-1.424-3.153-1.125-4.204-.748 0 0 3.595.706 2.38 3.221-.91 1.881-5.114.673-6.376.224-1.262-.448-10.511-5.095-15.905-.299"/><path d="M22.648 14.425s-2.873 1.717-6.237 4.713c0 0 .281 8.759.142 11.527-.142 2.771-1.262 4.793-2.664 5.536l.492.748s4.063-2.539 5.464-3.963c1.401-1.424 2.872-2.023 2.803-6.737-.072-4.713 0-11.824 0-11.824m10.516-3.447s1.401.748 2.383 1.948c0 0 2.731-6.662 5.675-7.41 0 0-1.541 3.22-1.051 16.618 0 0 3.292-2.323 5.255-4.045 0 0 4.833 4.487 5.044 5.086.209.601.142 16.397.142 16.397s.139 2.249-1.543 3.591c-1.682 1.347-5.046 1.973-4.974 3.146.069 1.123 3.846 1.784 4.204 3.591.293 1.483-1.332 3.521-3.784 4.42 0 0 1.821-2.323-.209-4.497-1.23-1.308-1.752-1.941-1.752-3.139 0-1.575 3.432-2.475 3.432-4.115V24.751l-3.081-2.989s-2.453 1.116-2.803 2.164c-.351 1.049-.07 12.125-.07 12.125s0 2.249 2.169 4.046l-4.063 4.49-4.483-5.092s1.19-1.421 1.401-2.022c.209-.599.234-22.438.07-23.049-.174-.649-2.102-3.146-2.102-3.146l.14-.3m19.172 11.825v12.73s.114.852.281 1.493c.42 1.647 7.427 7.111 7.427 7.111l6.515-5.539-.49-.676-3.014 2.476s-4.967-3.869-5.605-5.84c-.184-.579-.069-2.549-.069-2.549V19.514l-5.045 3.289"/><path d="m57.311 31.038 4.905-4.041s-3.573-6.51-3.993-6.734c-.42-.229-.631 0-.842.296v-1.046s2.803-1.874 4.413-2.475c0 0 2.241 2.997 4.766 7.564-.002 0-3.365 3.068-5.817 4.937-2.453 1.874-3.432 2.699-3.432 2.699v-1.2"/></svg>