<svg xmlns="http://www.w3.org/2000/svg" width="400" height="358.037" version="1.1" viewBox="0 0 105.833 94.731"><g fill-rule="evenodd"><path d="M-22.723 71.256c1.256 2.882 2.551 5.778 3.779 8.652h-1.718c-.086 1.102.17 2.385-.136 3.239-.301.845-1.17 1.044-2.331 1.035v4.44h2.456v-4.44c1.277.108 2.013-.225 2.373-1.014.191-.416.146-.968.146-1.557v-1.703h1.686c-1.258-2.898-2.523-5.79-3.788-8.682h-2.467c-.016.002-.007.023 0 .033zm-5.183-.033c-1.354 0-2.765-.062-3.852.178-1.232.271-2.246.792-3.06 1.504-1.073.94-1.883 2.213-2.122 3.971-.269 1.964.249 3.69 1.092 4.848.866 1.188 2.057 1.973 3.81 2.277v4.619h6.193v-4.44c1.238.083 2.045-.215 2.404-1.004.19-.42.155-.963.155-1.557v-1.713h1.676c-1.266-2.905-2.558-5.783-3.83-8.683zm.384-7.105h.833c3.687.155 6.42 1.308 8.68 2.936 2.253 1.623 4.043 3.764 5.205 6.426a15.962 15.962 0 0 1 1.228 4.597c.21 1.829.03 3.74-.333 5.318-.714 3.106-2.222 5.533-4.152 7.471-1.93 1.937-4.348 3.425-7.443 4.18-1.557.38-3.507.521-5.329.323a15.248 15.248 0 0 1-4.569-1.233 15.5 15.5 0 0 1-6.4-5.223c-1.623-2.27-2.763-5.038-2.915-8.715v-.815c.093-2.41.622-4.445 1.436-6.185a15.763 15.763 0 0 1 3.133-4.483 15.58 15.58 0 0 1 4.465-3.144c1.737-.814 3.756-1.366 6.161-1.453zm.708 11.442a1.536 1.536 0 0 0-1.04.532c-.233.274-.418.66-.396 1.14a1.5 1.5 0 0 0 .479 1.075 1.6 1.6 0 0 0 1.113.45c.802 0 1.531-.6 1.593-1.453a1.658 1.658 0 0 0-.301-1.107 1.6 1.6 0 0 0-1.448-.637zm-82.347 1.791h4.219c2.231 0 4.463-.774 4.463-3.462 0-2.973-3.003-3.38-5.436-3.38h-3.246zm-6.329-12.218h10.67c5.964 0 10.913 1.914 10.913 8.756 0 6.76-4.584 8.838-10.629 8.838h-4.625v11.24h-6.329zm30.793 23.458h5.68c1.988 0 4.22-.855 4.22-3.38 0-2.728-3.043-3.177-5.113-3.177h-4.787zm0-11.932h4.585c1.947 0 3.976-.815 3.976-3.136 0-2.403-2.272-3.014-4.26-3.014h-4.3zm-6.329-11.526h10.711c5.03 0 10.508 1.059 10.508 7.33 0 3.218-1.988 5.417-4.95 6.354v.082c3.773.488 6.289 3.299 6.289 7.045 0 6.028-5.68 8.024-10.792 8.024h-11.766zm40.206 7.046c-1.014-1.304-3.043-1.915-4.584-1.915-1.785 0-4.26.815-4.26 2.974 0 5.253 13.226 1.873 13.226 11.973 0 6.435-5.152 9.49-11.076 9.49-3.692 0-6.937-1.1-9.656-3.625l4.504-4.968c1.298 1.71 3.408 2.728 5.517 2.728 2.07 0 4.382-.978 4.382-3.014 0-5.294-13.47-2.444-13.47-12.055 0-6.15 5.315-9.367 10.955-9.367 3.245 0 6.37.855 8.804 3.014z" fill="#000" style="text-align:center" transform="translate(115.511 -64.118)"/><path d="M.299 1.216h6.443l9.148 15.01h.061V1.216h4.742v21.601h-6.201L5.101 7.439H5.04v15.378H.299zm23.129 0h14.62v4.393H28.17v4.027h9.33v4.394h-9.33v4.393h10.425v4.394H23.428zm31.063 6.651h-.061l-4.742 14.95h-4.072L39.233 1.216H44.4l3.434 13.851h.061l4.499-13.851H56.8l4.468 14.217h.061l3.617-14.217h4.802l-6.292 21.601h-4.224z" fill="#e20015" style="text-align:center" transform="translate(-.374 33.467) scale(1.2512)"/><path d="M-13.785 105.71c-.951-1.222-2.852-1.795-4.297-1.795-1.673 0-3.993.764-3.993 2.787 0 4.924 12.397 1.756 12.397 11.223 0 6.032-4.83 8.895-10.382 8.895-3.46 0-6.502-1.03-9.05-3.397l4.22-4.658c1.218 1.603 3.195 2.558 5.172 2.558 1.94 0 4.108-.916 4.108-2.825 0-4.963-12.626-2.29-12.626-11.3 0-5.764 4.982-8.78 10.268-8.78 3.042 0 5.97.802 8.252 2.825z" fill="#e20015" style="text-align:center" transform="translate(115.511 -64.118)"/><path d="M.299 26.814H5.04v8.054h9.209v-8.054h4.742v21.601h-4.742v-9.336H5.04v9.336H.299z" fill="#e20015" style="text-align:center" transform="translate(-.374 33.467) scale(1.2512)"/><path d="M-75.43 153.352c5.058 0 8.366-3.665 8.366-8.704 0-5.039-3.308-8.703-8.366-8.703s-8.366 3.664-8.366 8.703c0 5.04 3.308 8.704 8.366 8.704m0-22.905c8.404 0 14.527 5.536 14.527 14.201 0 8.666-6.123 14.2-14.527 14.2s-14.527-5.534-14.527-14.2c0-8.665 6.123-14.2 14.527-14.2m39.322 17.292c0 6.376-3.879 11.11-11.333 11.11-7.491 0-11.37-4.734-11.37-11.11v-16.605h5.933v16.376c0 3.321 2.281 5.841 5.437 5.841 3.119 0 5.4-2.52 5.4-5.84v-16.377h5.933zm9.127-5.42h3.499c2.167 0 4.981-.077 4.981-3.016 0-2.71-2.433-3.13-4.601-3.13h-3.879zm-5.932-11.185h10.42c5.514 0 10.153 1.908 10.153 8.207 0 3.78-2.016 6.719-5.818 7.406l6.845 11.414h-7.112l-5.628-10.803h-2.928v10.803h-5.932z" fill="#e20015" style="text-align:center" transform="translate(115.511 -64.118)"/></g></svg>