<svg xmlns="http://www.w3.org/2000/svg" xml:space="preserve" x="0" y="0" version="1.1" viewBox="0 0 652 652"><path d="M622.8 341.2v-.3h-1.6c-.1 6.7-1.8 9.7-5.5 9.7-2.7 0-3.9-1.5-3.9-4.9v-32.3h8.5v-1.6h-8.5v-19.5h-1c-.6 3.6-2.3 5.5-5.6 6.4h-.1v13.1h-7.3v1.6h7.3V344c0 5.6 3.1 8.7 8.7 8.7 5.9 0 9-3.8 9-11.5m-36-4.7c0 9.4-3.3 15.1-8.4 15.1-3.7 0-5.1-2.9-5.1-8.8 0-6.9 2-9.1 8.2-13.4 2.6-1.8 4.1-2.8 5.3-4.1v11.2zm14.7 6.7v-.2H600c0 5.4-1.5 8.3-4.1 8.3-1.7 0-2.5-1-2.5-3.6v-24c0-8.3-4.6-13.2-12.5-13.2-6.7 0-12.1 4.2-12.1 9.2 0 2.6 1.8 4.6 4.3 4.6 2.4 0 4.2-1.8 4.2-4.1 0-2.2-1.6-3.8-3.8-3.8-.3 0-.4 0-.7.1 1.1-2.8 3.8-4.4 7.7-4.4 4.7 0 6.6 3.6 6.6 6.9 0 5.8-4.7 7.7-9.7 10.4-5.5 3-11.1 6.3-11.1 13 0 6.9 4.7 10.8 11.1 10.8 4.7 0 8.7-3.1 9.9-8 .1 4.8 2.8 7.9 7.2 7.9 4.6-.1 7-3.3 7-9.9M566.3 317c0-3.4-3-6-6.8-6-4.5 0-8.2 3.7-9.9 9.5v-8.6h-14v1.6h7.3v36.9h-7.3v1.6h21.5v-1.6h-7.5v-18.5c0-11.4 3.9-19.3 9.6-19.3 1.1 0 2 .4 2.4.9-2.3 0-3.8 1.6-3.8 3.8 0 2.3 1.8 4.2 4.2 4.2 2.4 0 4.3-2 4.3-4.5m-30.7 20.3h-1.7c-.4 8.3-4.4 14.3-11.1 14.3-7.2 0-9.9-5.8-9.8-19.7.1-10.7 1.5-19.8 10-19.8 5.1 0 8.9 3.4 9.3 7.3-.6-.8-1.8-1.3-3-1.3-2.6 0-4.3 2-4.3 4.5s2.1 4.5 4.7 4.5c2.9 0 5.1-2.5 5.1-5.8 0-5.9-5.1-10.9-11.8-10.9-9.7 0-17.6 9.4-17.6 21.3 0 12.2 7.4 21.4 17.2 21.4 7.6.1 13-7.1 13-15.8m-40.9-5.4c-.1 15.1-2.4 19.8-8.4 19.8s-8.3-7.1-8.4-19.8c-.1-13.1 1.9-19.8 8.4-19.8 6-.1 8.4 6.7 8.4 19.8m7.5.1c0-11.4-7.4-21.5-16-21.5s-16 10.1-16 21.5c0 11.7 7.1 21.2 16 21.2s16-9.5 16-21.2M474 351.8v-1.6h-6.9v-28c0-7.3-3.9-11.8-10.2-11.8-6.1 0-10.4 4.3-12.1 12.5-.3-8-3.8-12.5-10-12.5-5.6 0-9.9 4.7-11.4 11.7v-10.3h-14v1.6h7.3v36.9h-7.3v1.6h20.1v-1.6h-6.1v-17.5c0-11.8 4.7-20.7 10.2-20.7 3.4 0 5 2.6 5 8v30.1h-6.1v1.6h18.7v-1.6h-6.1v-17.7c0-11.8 4.3-20.4 10.1-20.4 3.5 0 5.1 2.5 5.1 8v30.1h-6.1v1.6H474zm-69.9-22.2H388c.5-13.4 2.9-17.6 8.6-17.6 5.5 0 7.5 4.3 7.5 17.6m7.4 9.3-1.7-.3c-1.6 8.4-6 13-12.2 13-7.2 0-9.5-4.8-9.5-20.5h23v-.4c0-12.3-6.1-20.3-14.4-20.3-8.7 0-16.2 10.1-16.2 21.8 0 11.6 7.9 20.9 17.2 20.9 7 .1 12.1-5.4 13.8-14.2M369.6 322c0 15.4-1.2 28.3-17 28.3h-6.8v-57.9h6.8c12.8 0 17 7.3 17 29.6m9.1-.4c0-18.6-9.8-30.7-26.2-30.7h-24.3v1.6h9.6v57.9h-9.6v1.6h24.3c18.1-.2 26.2-14.1 26.2-30.4m-60.5 19c0-13.8-23.3-13.4-23.3-22.5 0-3.6 2.8-6.1 6.8-6.1 5.5 0 10.1 4.9 12.6 13.5h1.1V311h-1.1c-1.2 1.6-1.7 2.2-3.3 3.7-2.6-2.7-5.8-4.1-9.7-4.1-6.6 0-11.4 4.6-11.4 10.5 0 12.8 23.5 11.6 23.5 22.9 0 4.7-3.2 7.8-7.8 7.8-6.4 0-12.4-6.5-14.1-15.1h-1.2v15.9h1.1c.9-1.6 2-3.3 3.2-4.3 3.3 3.2 6.8 4.8 10.9 4.8 7.2 0 12.7-5.5 12.7-12.5m-29.3 0c0-13.8-23.3-13.4-23.3-22.5 0-3.6 2.8-6.1 6.8-6.1 5.5 0 10.1 4.9 12.6 13.5h1.1V311H285c-1.2 1.6-1.7 2.2-3.3 3.7-2.6-2.7-5.8-4.1-9.7-4.1-6.6 0-11.4 4.6-11.4 10.5 0 12.8 23.5 11.6 23.5 22.9 0 4.7-3.2 7.8-7.8 7.8-6.4 0-12.4-6.5-14.1-15.1H261v15.9h1.1c.9-1.6 2-3.3 3.2-4.3 3.3 3.2 6.8 4.8 10.9 4.8 7.2 0 12.7-5.5 12.7-12.5m-36.6-11h-16.1c.5-13.4 2.9-17.6 8.6-17.6 5.5 0 7.5 4.3 7.5 17.6m7.4 9.3-1.7-.3c-1.6 8.4-6 13-12.2 13-7.2 0-9.5-4.8-9.5-20.5h23v-.4c0-12.3-6.1-20.3-14.4-20.3-8.7 0-16.2 10.1-16.2 21.8 0 11.6 7.9 20.9 17.2 20.9 7 .1 12.1-5.4 13.8-14.2m-29-21.9c0-3.4-3-6-6.8-6-4.5 0-8.2 3.7-9.9 9.5v-8.6h-14v1.6h7.3v36.9H200v1.6h21.5v-1.6H214v-18.5c0-11.4 3.9-19.3 9.6-19.3 1.1 0 2 .4 2.4.9-2.3 0-3.8 1.6-3.8 3.8 0 2.3 1.8 4.2 4.2 4.2s4.3-2 4.3-4.5m-40.3-10.1c0 10.1-3.6 14.2-12 14.2h-8.7v-28.7h8.7c8.8 0 12 3.8 12 14.5m8.5 0c0-12.1-9.5-16.1-20.8-16.1h-25.7v1.6h9.4v57.9h-9.4v1.6h26.8v-1.6h-9.4v-27.7h8.3c11.1 0 20.8-3.7 20.8-15.7m-64.8 22.7H118c.5-13.4 2.9-17.6 8.6-17.6 5.5 0 7.5 4.3 7.5 17.6m7.4 9.3-1.7-.3c-1.6 8.4-6 13-12.2 13-7.2 0-9.5-4.8-9.5-20.5h23v-.4c0-12.3-6.1-20.3-14.4-20.3-8.7 0-16.2 10.1-16.2 21.8 0 11.6 7.9 20.9 17.2 20.9 7.1.1 12.2-5.4 13.8-14.2m-29 12.9v-1.6h-7.3v-27.9c0-7.5-3.8-11.9-10.4-11.9-5.9 0-10.4 4.3-12.1 11.5v-31.2h-14v1.6H76v57.9h-7.3v1.6h20.4v-1.6h-6.4v-17.6c0-11.5 4.6-20.5 10.5-20.5 3.6 0 5.2 2.6 5.2 8v30H92v1.6h20.5zm-45.1-37.4v-23.6H22.8v23.6h1.4c1.4-10.6 3.9-22.4 17-22v57.9h-9.8v1.6h27.5v-1.6H49v-57.9c13.1-.3 15.6 11.3 17 22h1.4z" fill="#39393b"/></svg>