<svg xmlns="http://www.w3.org/2000/svg" xml:space="preserve" width="175.6" height="47.547" x="0" y="0" version="1.1" viewBox="0 0 175.6 47.547"><path d="M25 36.8c.3-4.4-1.8-8.2-8.5-11l-5.1-2.1c-6.6-2.8-9-7.2-8.7-12.2.6-7.9 7-11.7 15-11.1 5.5.4 8.9 1.8 11.9 3.9l-.5 6.7h-.6c-2.1-6.5-6.1-8.5-10.9-8.8-5.1-.3-9.2 2.9-9.5 7.3-.3 3.8 1 6.8 6.3 9.1l4 1.7c5.3 2.2 12.6 5.5 12 14.4-.6 8.2-6.7 13.4-16.1 12.8-5.9-.4-10.7-2-14.3-4.9L.5 35h.6c3 9.4 8.1 10.1 12.6 10.4 7.3.4 11-3.5 11.3-8.6zm39.5 5.1c0 2.9 1 3.6 4 3.6h2.6v1.1h-19v-1.2h2.3c3.3 0 4.3-.7 4.3-3.5V3.4h-7.5c-5.6 0-8.3 2.4-9.2 7.7h-.6V1.3h40.2v9.8h-.5c-.8-5.3-3.5-7.7-9.2-7.7h-7.5v38.5zm94 0c0 2.9 1 3.6 4 3.6h2.6v1.1h-19v-1.2h2.3c3.3 0 4.3-.7 4.3-3.5V3.4h-7.5c-5.6 0-8.3 2.4-9.2 7.7h-.6V1.3h40.2v9.8h-.6c-.8-5.3-3.5-7.7-9.2-7.7h-7.5v38.5zM116.4 0h.7l7 42.2c.6 2.1 1.7 3.3 3.9 3.3h1.3l-.2 1.1h-15.8l.2-1.2h1.2c2.2 0 3.7-.7 3.3-2.7l-2-12.4H99.9l-4.7 7.5c-4.1 7-3.2 7.6.9 7.6h.9l-.1 1.2H83.6l.2-1.2h.6c3.1 0 4.2-1 8-6.9l24-38.5zm-14.1 26.6h13.2L112.8 10l-10.5 16.6Z" fill="#231f20"/></svg>