<?xml version="1.0" encoding="utf-8"?>
<!-- Generator: Adobe Illustrator 24.0.1, SVG Export Plug-In . SVG Version: 6.00 Build 0)  -->
<svg version="1.1" id="Layer_1" xmlns="http://www.w3.org/2000/svg" xmlns:xlink="http://www.w3.org/1999/xlink" x="0px" y="0px"
	 viewBox="0 0 1024 71" style="enable-background:new 0 0 1024 71;" xml:space="preserve">
<symbol  id="New_Symbol" viewBox="-64.2 -64.2 128.5 128.5">
	<g>
		<path d="M0,64.2c-0.1,0-0.2,0-0.2,0c-17.2-0.1-33.3-6.8-45.3-19C-57.7,33.1-64.3,16.9-64.2-0.2s6.8-33.3,19-45.3
			c12.1-12,28.2-18.6,45.2-18.6c0.1,0,0.2,0,0.2,0c17.2,0.1,33.3,6.8,45.3,19C57.7-33.1,64.3-16.9,64.2,0.2
			C64.1,35.6,35.3,64.2,0,64.2z M-1.4,0c0-0.8,0.6-1.4,1.4-1.4c0.8,0,1.4,0.6,1.4,1.4L1.3,19.8c10.3-0.7,18.5-9.2,18.5-19.7
			c0-10.9-8.8-19.9-19.7-19.9c-10.9,0-19.9,8.8-19.9,19.7c0,10.5,8.1,19.1,18.4,19.8L-1.4,0z M-22.5-0.1c0-12.4,10.2-22.5,22.6-22.5
			S22.6-12.3,22.5,0.1c0,12-9.5,21.7-21.3,22.4L1.2,42.2c22.7-0.6,41-19.2,41.1-42.1c0.1-23.3-18.8-42.3-42.1-42.4
			c-23.3-0.1-42.3,18.8-42.4,42.1c-0.1,22.9,18.1,41.6,40.8,42.4l0.1-19.8C-13.2,21.7-22.6,11.9-22.5-0.1z M43.2-42.9
			c-11.5-11.5-26.7-17.9-43-18c-0.1,0-0.2,0-0.2,0c-16.2,0-31.4,6.3-42.9,17.7c-11.5,11.5-17.9,26.7-18,43
			c-0.1,16.3,6.2,31.6,17.7,43.1c11.1,11.2,25.9,17.5,41.6,17.9L-1.5,45C-25.7,44.1-45.1,24.2-45-0.2C-44.9-25-24.6-45.1,0.2-45
			C25-44.9,45.1-24.6,45,0.2C44.9,24.5,25.4,44.3,1.2,45L1.1,60.9c32.9-0.6,59.6-27.5,59.7-60.6C60.9-16,54.7-31.4,43.2-42.9z"/>
	</g>
</symbol>
<polygon style="fill:#126B93;" points="734,71 0,71 0,0 783,0 "/>
<polygon style="fill:#114068;" points="464,71 0,71 0,0 495,0 "/>
</svg>
