<svg xmlns="http://www.w3.org/2000/svg" xml:space="preserve" x="0" y="0" version="1.1" viewBox="0 0 150.7 59"><path d="M101.4 49h3.8c1.2 0 1.9.2 2.5.7s.8 1.1.8 1.8-.2 1.3-.7 1.7c-.3.3-.5.4-.9.5 1.4.4 2 1.2 2 2.6 0 1.4-.9 2.7-2.7 2.8h-4.9l.1-10.1zm2 1.7V53h1.6c.5 0 .7 0 .9-.1.3-.1.5-.6.5-1s-.2-.8-.6-1c-.2-.1-.4-.1-.8-.1h-1.6v-.1zm0 4v2.7h1.7c.4 0 .7-.1.9-.2.3-.2.5-.7.5-1.2 0-.6-.3-1.1-.7-1.2-.2-.1-.3-.1-.8-.1h-1.6zm16-2.9v.7c.3-.4.6-.7 1-.9.2-.1.4-.1.6-.1.3 0 .4 0 .7.2l-.4 1.6c-.2-.1-.3-.1-.6-.1-.4 0-.8.2-1.2.6v5.3h-2v-7.3h1.9zm8.2 5.3.8 1.2c-.9.7-1.8 1-2.8 1-2.1 0-3.5-1.5-3.5-3.9 0-1.3.3-2.2.9-3 .6-.7 1.4-1 2.3-1s1.7.3 2.2.8c.7.7 1 1.7 1 3.3v.5h-4.3v.1c0 1.2.6 1.8 1.6 1.8.6 0 1.2-.3 1.8-.8zm-3.4-2.5h2.3v-.1c0-.6-.1-.8-.2-1.1-.2-.3-.5-.4-.9-.4-.8-.1-1.2.5-1.2 1.6zm9.8 4.5v-.5c-.3.3-.3.3-.5.4-.4.3-.9.4-1.5.4-1.7 0-2.6-.8-2.6-2.3 0-1.8 1.2-2.6 3.6-2.6h.4v-.3c0-.8-.2-1.1-.9-1.1-.6 0-1.4.3-2.2.8l-.8-1.4c.5-.3.7-.4 1.2-.6.7-.3 1.4-.4 2-.4 1.3 0 2.1.5 2.4 1.3.1.3.1.5.1 1.3V59l-1.2.1zm-.6-3.2c-1.4 0-1.9.2-1.9 1.1 0 .6.4 1 .9 1 .4 0 .7-.2 1-.5v-1.6zm7.8 3.2v-.5c-.5.5-1.2.7-2 .7-1 0-2-.5-2.2-1.2-.1-.3-.2-.7-.2-1.5v-4.8h1.9v4.4c0 .7 0 1 .2 1.2.1.2.4.3.7.3.5 0 1.1-.3 1.2-.7v-5.3h1.9V59l-1.5.1zM22.7 17.6c-1.9-1.3-3.8-1.9-5.9-1.9-2.5 0-5 1.1-6.3 3-1.4 2-2.1 4.9-2.1 8.9 0 4.7.4 7.4 1.5 9.3 1.5 2.5 3.9 3.9 7.1 3.9 2 0 3.8-.5 5.6-1.7.2-.1.5-.3.7-.5l3 4.7c-2.8 2-5.9 2.9-9.9 2.9-5.1 0-9.1-1.5-12.1-4.8C1.5 38.1 0 34 0 28.9c0-4.3.8-7.8 2.5-10.7 2.9-5 8.2-8 14.2-8 3.4 0 6.8.9 8.9 2.4l-2.9 5zm24.1 20.8 2.6 3.9c-2.9 2.4-6 3.5-9.5 3.5-7.2 0-11.9-5.1-11.9-13.1 0-4.5.9-7.5 3.2-10 2.1-2.3 4.6-3.4 7.9-3.4 2.9 0 5.7 1 7.3 2.7 2.3 2.4 3.3 5.8 3.3 11v1.5H35v.2c0 3.9 1.9 6.1 5.3 6.1 2.3.1 4.5-.7 6.5-2.4zm-11.7-8.6h7.6v-.3c0-1.9-.2-2.9-.8-3.8-.6-1-1.6-1.5-2.9-1.5-2.4 0-3.9 2-3.9 5.6zm23.6-10.2.6 2.8c1.5-1.1 1.8-1.3 2.9-1.9 1.3-.7 3.1-1.1 4.5-1.1 2.8 0 5.3 1.5 6.1 3.6.3.9.5 2 .5 3.6V45h-6.5V28.7c0-2.9-.5-3.7-2.2-3.7-1.3 0-3.1.9-4.6 2.3v17.8h-6.6V19.6h5.3z" fill="#205493"/><path d="M59.3 19.6v2.8c1.5-1.1 1.8-1.3 2.9-1.9 1.3-.7 3.1-1.1 4.5-1.1 2.8 0 5.3 1.5 6.1 3.6.3.9.5 2 .5 3.6V45h-6.5V28.7c0-2.9-.5-3.7-2.2-3.7-1.3 0-3.1.9-4.6 2.3v17.8h-6.6V19.6h5.9zM93.9 26c-2.5-1.3-4.3-1.8-6.2-1.8-1.9 0-3.2 1-3.2 2.5 0 1.3.8 2 3.2 2.6l3.1.8c3.1.8 4.1 1.7 5 2.9.9 1.2 1.4 2.6 1.4 4.3 0 5.2-4.3 8.8-10.8 8.8-3 0-6.3-.9-9.9-2.8l2.1-5c2 1.2 5.5 2.9 8.4 2.9 1.9 0 3.4-1.2 3.4-2.9s-1.2-2.6-3.9-3.1l-3-.5c-1.7-.3-3.7-1.5-4.6-2.6-.9-1.1-1.4-2.9-1.4-4.5 0-4.9 3.9-8.2 9.7-8.2 3.8 0 6.4 1.1 8.6 2.2L93.9 26zm20.7 19.1v-2.8c-1.5 1.1-1.8 1.3-2.9 1.9-1.3.7-3.1 1.1-4.5 1.1-2.8 0-5.3-1.5-6.1-3.6-.3-.9-.5-2-.5-3.6V19.6h6.5V36c0 2.9.5 3.7 2.2 3.7 1.3 0 3.1-.9 4.6-2.3V19.6h6.6v25.5h-5.9zM40.7 3v6.6c0 3.7-1.8 5.7-5 5.7-3.3 0-4.9-2.1-4.9-5.7V3h-1.5V1.3h5.1V3h-1.5v6.8c0 2.4 1 3.7 2.9 3.7 2 0 2.9-1.3 2.9-3.6V3h-1.5V1.3h5.1V3h-1.6m8 12.1v-1.6h1.2V8.7c0-2-.6-2.5-1.7-2.5-1 0-1.7.5-2.2 1.3v6h1.2v1.6h-4.4v-1.6H44V6.4h-1.2V4.7H46v1.1c.7-.8 1.5-1.3 2.8-1.3 2.1 0 3.2 1.2 3.2 4.1v4.9h1.2v1.6h-4.5M56.4 3c-.7 0-1.3-.6-1.3-1.3S55.7.4 56.4.4s1.3.6 1.3 1.3S57.1 3 56.4 3m-2.1 12.1v-1.6h1.3V6.4h-1.3V4.7h3.3v8.7h1.3V15h-4.6v.1zm10.9-.3c-.5.3-1.1.5-1.9.5-1.4 0-2.2-.9-2.2-2.7V6.4h-1.4V4.7h1.4v-3l2-1.1v4h2.3v1.6h-2.3v6c0 1 .3 1.2 1 1.2.2 0 .4 0 .6-.1l.5 1.5zm9.6-4.2h-6.4c.2 1.9.9 2.9 2.6 2.9 1.2 0 1.9-.3 2.8-1l.9 1.4c-1.1.9-2.3 1.4-3.8 1.4-2.5 0-4.4-2-4.4-5.4 0-3.5 1.8-5.4 4.3-5.4 2.8 0 4.1 2.4 4.1 5.2 0 .4-.1.7-.1.9m-4.2-4.4c-1.3 0-2 1-2.2 2.8h4.4c-.1-1.5-.6-2.8-2.2-2.8m12.1 8.9V14c-.7.8-1.5 1.3-2.6 1.3-2.2 0-3.8-1.6-3.8-5.6 0-3.5 1.7-5.2 3.7-5.2 1.2 0 2 .5 2.7 1.2V2.1h-1.2V.5h3.2v13h1.1v1.6h-3.1m.1-7.6c-.4-.6-1.3-1.4-2.3-1.4-1.4 0-2.1 1.2-2.1 3.5 0 2.9.8 4 2.2 4 .8 0 1.4-.4 2.2-1.3V7.5zm14.3 7.8c-1.3 0-2.3-.5-3-1.3v1.1h-1.8v-4.2H94c.5 1.7 1.4 2.7 3.1 2.7 1.5 0 2.3-.7 2.3-2.1 0-1.2-.4-1.8-2.9-2.5-2.7-.8-4.1-1.7-4.1-4.1 0-2.3 1.6-3.8 3.9-3.8 1.6 0 2.5.6 2.9 1.3V1.3h1.8v4.2h-1.7c-.3-1.6-1.2-2.7-2.9-2.7-1.5 0-2 .8-2 1.8 0 1.1.8 1.8 2.8 2.3 2.8.8 4.2 1.7 4.2 4.2.1 2.8-1.7 4.2-4.3 4.2m18.4-.2V14c-.6.8-1.6 1.3-2.8 1.3-1.8 0-3.3-.9-3.3-3.4 0-2.3 1.6-3.4 3.8-3.4 1 0 1.7.2 2.3.5V8c0-1.1-.7-1.8-1.9-1.8-1 0-1.8.2-2.6.6l-.7-1.4c.9-.6 2-.9 3.4-.9 2.2 0 3.7 1.1 3.7 3.5v5.5h1.1v1.6h-3m0-4.6c-.5-.3-1.1-.5-2.3-.5-1.1 0-1.9.6-1.9 1.7 0 1.3.6 1.8 1.8 1.8 1 0 1.9-.5 2.4-1.3v-1.7zm18.8.1h-6.4c.2 1.9 1 2.9 2.6 2.9 1.2 0 1.9-.3 2.8-1l.9 1.4c-1.1.9-2.3 1.4-3.8 1.4-2.5 0-4.4-2-4.4-5.4 0-3.5 1.8-5.4 4.3-5.4 2.8 0 4.1 2.4 4.1 5.2-.1.4-.1.7-.1.9m-4.2-4.4c-1.3 0-2 1-2.2 2.8h4.4c-.1-1.5-.7-2.8-2.2-2.8m9.9 9c-1.2 0-1.8-.3-2.3-1v.8h-1.6v-3.2h1.4c.6 1.2 1.3 1.8 2.4 1.8.8 0 1.3-.5 1.3-1.2 0-.8-.3-1.2-1.8-1.6-2.5-.7-3.4-1.5-3.4-3.4 0-1.5 1.1-2.9 3.2-2.9.9 0 1.6.2 2.2.8v-.6h1.6V8h-1.4c-.5-1.2-1.1-1.8-2.2-1.8-.9 0-1.3.4-1.3 1.1 0 .6.2 1.1 1.8 1.6 2.4.7 3.4 1.5 3.4 3.4-.1 1.6-1.3 2.9-3.3 2.9m-25.5 43.9v-.5c-.5.5-1.2.7-2 .7-1 0-2-.5-2.2-1.2-.1-.3-.2-.7-.2-1.5v-4.8h1.9v4.4c0 .7 0 1 .2 1.2.1.2.4.3.7.3.5 0 1.1-.3 1.2-.7v-5.3h1.9V59l-1.5.1zM141.2 26c-2.5-1.3-4.3-1.8-6.2-1.8s-3.2 1-3.2 2.5c0 1.3.8 2 3.2 2.6l3 .7c3.1.8 4.1 1.7 5 2.9s1.4 2.6 1.4 4.3c0 5.2-4.3 8.8-10.8 8.8-3 0-6.3-.9-9.9-2.8l2.1-5c2 1.2 5.5 2.9 8.4 2.9 1.9 0 3.4-1.2 3.4-2.9s-1.2-2.6-3.9-3.1l-3-.5c-1.7-.3-3.7-1.5-4.6-2.6-.9-1.1-1.4-2.9-1.4-4.5 0-4.9 3.9-8.2 9.8-8.2 3.8 0 6.4 1.1 8.6 2.2l-1.9 4.5zM3.8 52.4h89.8c1.9 0 3.4 1.5 3.4 3.4s-1.5 3.4-3.4 3.4H3.8c-1.9 0-3.4-1.5-3.4-3.4s1.5-3.4 3.4-3.4zm104.3-37.6c-.5.3-1.1.5-1.9.5-1.4 0-2.2-.9-2.2-2.7V6.4h-1.4V4.7h1.4v-3l2-1.1v4h2.3v1.6H106v6c0 1 .3 1.2 1 1.2.2 0 .4 0 .6-.1l.5 1.5zm16.6 0c-.5.3-1.1.5-1.9.5-1.4 0-2.2-.9-2.2-2.7V6.4h-1.4V4.7h1.4v-3l2-1.1v4h2.3v1.6h-2.3v6c0 1 .3 1.2 1 1.2.2 0 .4 0 .6-.1l.5 1.5zm21.5-8.5V3.7h-.9v-.3h2.3v.3h-.9v2.5h-.5v.1zm1.8 0V3.4h.6l.7 2c.1.2.1.3.1.4 0-.1.1-.3.2-.5l.7-2h.5v2.9h-.4V3.9l-.8 2.4h-.3l-.8-2.4v2.4h-.5z" fill="#205493"/></svg>