<?xml version="1.0" encoding="utf-8"?>
<!-- Generator: Adobe Illustrator 24.1.2, SVG Export Plug-In . SVG Version: 6.00 Build 0)  -->
<svg version="1.1" id="Layer_1" xmlns="http://www.w3.org/2000/svg" xmlns:xlink="http://www.w3.org/1999/xlink" x="0px" y="0px"
	 viewBox="0 0 150.7 59" style="enable-background:new 0 0 150.7 59;" xml:space="preserve">
<style type="text/css">
	.st0{fill:#205493;}
</style>
<g>
	<g>
		<path class="st0" d="M101.4,49h3.8c1.2,0,1.9,0.2,2.5,0.7s0.8,1.1,0.8,1.8s-0.2,1.3-0.7,1.7c-0.3,0.3-0.5,0.4-0.9,0.5
			c1.4,0.4,2,1.2,2,2.6c0,1.4-0.9,2.7-2.7,2.8c-0.3,0-0.7,0-1.3,0h-3.6L101.4,49L101.4,49z M103.4,50.7V53h1.6c0.5,0,0.7,0,0.9-0.1
			c0.3-0.1,0.5-0.6,0.5-1s-0.2-0.8-0.6-1c-0.2-0.1-0.4-0.1-0.8-0.1h-1.6V50.7z M103.4,54.7v2.7h1.7c0.4,0,0.7-0.1,0.9-0.2
			c0.3-0.2,0.5-0.7,0.5-1.2c0-0.6-0.3-1.1-0.7-1.2c-0.2-0.1-0.3-0.1-0.8-0.1H103.4z"/>
		<path class="st0" d="M119.4,51.8v0.7c0.3-0.4,0.6-0.7,1-0.9c0.2-0.1,0.4-0.1,0.6-0.1c0.3,0,0.4,0,0.7,0.2l-0.4,1.6
			c-0.2-0.1-0.3-0.1-0.6-0.1c-0.4,0-0.8,0.2-1.2,0.6v5.3h-2v-7.3H119.4z"/>
		<path class="st0" d="M127.6,57.1l0.8,1.2c-0.9,0.7-1.8,1-2.8,1c-2.1,0-3.5-1.5-3.5-3.9c0-1.3,0.3-2.2,0.9-3c0.6-0.7,1.4-1,2.3-1
			s1.7,0.3,2.2,0.8c0.7,0.7,1,1.7,1,3.3c0,0.2,0,0.2,0,0.5h-4.3v0.1c0,1.2,0.6,1.8,1.6,1.8C126.4,57.9,127,57.6,127.6,57.1z
			 M124.2,54.6h2.3v-0.1c0-0.6-0.1-0.8-0.2-1.1c-0.2-0.3-0.5-0.4-0.9-0.4C124.6,52.9,124.2,53.5,124.2,54.6L124.2,54.6z"/>
		<path class="st0" d="M134,59.1v-0.5c-0.3,0.3-0.3,0.3-0.5,0.4c-0.4,0.3-0.9,0.4-1.5,0.4c-1.7,0-2.6-0.8-2.6-2.3
			c0-1.8,1.2-2.6,3.6-2.6c0.1,0,0.2,0,0.4,0v-0.3c0-0.8-0.2-1.1-0.9-1.1c-0.6,0-1.4,0.3-2.2,0.8l-0.8-1.4c0.5-0.3,0.7-0.4,1.2-0.6
			c0.7-0.3,1.4-0.4,2-0.4c1.3,0,2.1,0.5,2.4,1.3c0.1,0.3,0.1,0.5,0.1,1.3v2.5v0.1V59L134,59.1z M133.4,55.9L133.4,55.9
			c-1.4,0-1.9,0.2-1.9,1.1c0,0.6,0.4,1,0.9,1c0.4,0,0.7-0.2,1-0.5V55.9z"/>
		<path class="st0" d="M141.2,59.1v-0.5c-0.5,0.5-1.2,0.7-2,0.7c-1,0-2-0.5-2.2-1.2c-0.1-0.3-0.2-0.7-0.2-1.5v-4.8h1.9v4.4
			c0,0.7,0,1,0.2,1.2c0.1,0.2,0.4,0.3,0.7,0.3c0.5,0,1.1-0.3,1.2-0.7v-5.3h1.9V59L141.2,59.1L141.2,59.1z"/>
	</g>
	<path class="st0" d="M22.7,17.6c-1.9-1.3-3.8-1.9-5.9-1.9c-2.5,0-5,1.1-6.3,3c-1.4,2-2.1,4.9-2.1,8.9c0,4.7,0.4,7.4,1.5,9.3
		c1.5,2.5,3.9,3.9,7.1,3.9c2,0,3.8-0.5,5.6-1.7c0.2-0.1,0.5-0.3,0.7-0.5l3,4.7c-2.8,2-5.9,2.9-9.9,2.9c-5.1,0-9.1-1.5-12.1-4.8
		C1.5,38.1,0,34,0,28.9c0-4.3,0.8-7.8,2.5-10.7c2.9-5,8.2-8,14.2-8c3.4,0,6.8,0.9,8.9,2.4L22.7,17.6z"/>
	<path class="st0" d="M46.8,38.4l2.6,3.9c-2.9,2.4-6,3.5-9.5,3.5c-7.2,0-11.9-5.1-11.9-13.1c0-4.5,0.9-7.5,3.2-10
		c2.1-2.3,4.6-3.4,7.9-3.4c2.9,0,5.7,1,7.3,2.7c2.3,2.4,3.3,5.8,3.3,11c0,0.5,0,0.7,0,1.5H35v0.2c0,3.9,1.9,6.1,5.3,6.1
		C42.6,40.9,44.8,40.1,46.8,38.4z M35.1,29.8h7.6v-0.3c0-1.9-0.2-2.9-0.8-3.8c-0.6-1-1.6-1.5-2.9-1.5C36.6,24.2,35.1,26.2,35.1,29.8
		L35.1,29.8z"/>
	<path class="st0" d="M58.7,19.6l0.6,2.8c1.5-1.1,1.8-1.3,2.9-1.9c1.3-0.7,3.1-1.1,4.5-1.1c2.8,0,5.3,1.5,6.1,3.6
		c0.3,0.9,0.5,2,0.5,3.6V45h-6.5V28.7c0-2.9-0.5-3.7-2.2-3.7c-1.3,0-3.1,0.9-4.6,2.3v17.8h-6.6V19.6H58.7z"/>
	<path class="st0" d="M59.3,19.6v2.8c1.5-1.1,1.8-1.3,2.9-1.9c1.3-0.7,3.1-1.1,4.5-1.1c2.8,0,5.3,1.5,6.1,3.6c0.3,0.9,0.5,2,0.5,3.6
		V45h-6.5V28.7c0-2.9-0.5-3.7-2.2-3.7c-1.3,0-3.1,0.9-4.6,2.3v17.8h-6.6V19.6H59.3z"/>
	<path class="st0" d="M93.9,26c-2.5-1.3-4.3-1.8-6.2-1.8c-1.9,0-3.2,1-3.2,2.5c0,1.3,0.8,2,3.2,2.6l3.1,0.8c3.1,0.8,4.1,1.7,5,2.9
		c0.9,1.2,1.4,2.6,1.4,4.3c0,5.2-4.3,8.8-10.8,8.8c-3,0-6.3-0.9-9.9-2.8l2.1-5c2,1.2,5.5,2.9,8.4,2.9c1.9,0,3.4-1.2,3.4-2.9
		s-1.2-2.6-3.9-3.1l-3-0.5c-1.7-0.3-3.7-1.5-4.6-2.6c-0.9-1.1-1.4-2.9-1.4-4.5c0-4.9,3.9-8.2,9.7-8.2c3.8,0,6.4,1.1,8.6,2.2L93.9,26
		z"/>
	<path class="st0" d="M114.6,45.1v-2.8c-1.5,1.1-1.8,1.3-2.9,1.9c-1.3,0.7-3.1,1.1-4.5,1.1c-2.8,0-5.3-1.5-6.1-3.6
		c-0.3-0.9-0.5-2-0.5-3.6V19.6h6.5V36c0,2.9,0.5,3.7,2.2,3.7c1.3,0,3.1-0.9,4.6-2.3V19.6h6.6v25.5H114.6z"/>
	<g>
		<path class="st0" d="M40.7,3v6.6c0,3.7-1.8,5.7-5,5.7c-3.3,0-4.9-2.1-4.9-5.7V3h-1.5V1.3h5.1V3h-1.5v6.8c0,2.4,1,3.7,2.9,3.7
			c2,0,2.9-1.3,2.9-3.6V3h-1.5V1.3h5.1V3H40.7"/>
	</g>
	<g>
		<path class="st0" d="M48.7,15.1v-1.6h1.2V8.7c0-2-0.6-2.5-1.7-2.5c-1,0-1.7,0.5-2.2,1.3v6h1.2v1.6h-4.4v-1.6H44V6.4h-1.2V4.7H46
			v1.1c0.7-0.8,1.5-1.3,2.8-1.3c2.1,0,3.2,1.2,3.2,4.1v4.9h1.2v1.6H48.7"/>
	</g>
	<g>
		<path class="st0" d="M56.4,3c-0.7,0-1.3-0.6-1.3-1.3s0.6-1.3,1.3-1.3s1.3,0.6,1.3,1.3S57.1,3,56.4,3 M54.3,15.1v-1.6h1.3V6.4h-1.3
			V4.7h3.3v8.7h1.3V15h-4.6V15.1z"/>
	</g>
	<g>
		<path class="st0" d="M65.2,14.8"/>
		<path class="st0" d="M65.2,14.8c-0.5,0.3-1.1,0.5-1.9,0.5c-1.4,0-2.2-0.9-2.2-2.7V6.4h-1.4V4.7h1.4v-3l2-1.1v4h2.3v1.6h-2.3v6
			c0,1,0.3,1.2,1,1.2c0.2,0,0.4,0,0.6-0.1L65.2,14.8z"/>
	</g>
	<g>
		<path class="st0" d="M74.8,10.6h-6.4c0.2,1.9,0.9,2.9,2.6,2.9c1.2,0,1.9-0.3,2.8-1l0.9,1.4c-1.1,0.9-2.3,1.4-3.8,1.4
			c-2.5,0-4.4-2-4.4-5.4c0-3.5,1.8-5.4,4.3-5.4c2.8,0,4.1,2.4,4.1,5.2C74.9,10.1,74.8,10.4,74.8,10.6 M70.6,6.2c-1.3,0-2,1-2.2,2.8
			h4.4C72.7,7.5,72.2,6.2,70.6,6.2"/>
	</g>
	<g>
		<path class="st0" d="M82.7,15.1V14c-0.7,0.8-1.5,1.3-2.6,1.3c-2.2,0-3.8-1.6-3.8-5.6c0-3.5,1.7-5.2,3.7-5.2c1.2,0,2,0.5,2.7,1.2
			V2.1h-1.2V0.5h3.2v13h1.1v1.6H82.7 M82.8,7.5c-0.4-0.6-1.3-1.4-2.3-1.4c-1.4,0-2.1,1.2-2.1,3.5c0,2.9,0.8,4,2.2,4
			c0.8,0,1.4-0.4,2.2-1.3C82.8,12.3,82.8,7.5,82.8,7.5z"/>
	</g>
	<g>
		<path class="st0" d="M97.1,15.3c-1.3,0-2.3-0.5-3-1.3v1.1h-1.8v-4.2H94c0.5,1.7,1.4,2.7,3.1,2.7c1.5,0,2.3-0.7,2.3-2.1
			c0-1.2-0.4-1.8-2.9-2.5c-2.7-0.8-4.1-1.7-4.1-4.1c0-2.3,1.6-3.8,3.9-3.8c1.6,0,2.5,0.6,2.9,1.3V1.3h1.8v4.2h-1.7
			c-0.3-1.6-1.2-2.7-2.9-2.7c-1.5,0-2,0.8-2,1.8c0,1.1,0.8,1.8,2.8,2.3c2.8,0.8,4.2,1.7,4.2,4.2C101.5,13.9,99.7,15.3,97.1,15.3"/>
	</g>
	<g>
		<path class="st0" d="M115.5,15.1V14c-0.6,0.8-1.6,1.3-2.8,1.3c-1.8,0-3.3-0.9-3.3-3.4c0-2.3,1.6-3.4,3.8-3.4c1,0,1.7,0.2,2.3,0.5
			V8c0-1.1-0.7-1.8-1.9-1.8c-1,0-1.8,0.2-2.6,0.6l-0.7-1.4c0.9-0.6,2-0.9,3.4-0.9c2.2,0,3.7,1.1,3.7,3.5v5.5h1.1v1.6H115.5
			 M115.5,10.5c-0.5-0.3-1.1-0.5-2.3-0.5c-1.1,0-1.9,0.6-1.9,1.7c0,1.3,0.6,1.8,1.8,1.8c1,0,1.9-0.5,2.4-1.3V10.5z"/>
	</g>
	<g>
		<path class="st0" d="M134.3,10.6h-6.4c0.2,1.9,1,2.9,2.6,2.9c1.2,0,1.9-0.3,2.8-1l0.9,1.4c-1.1,0.9-2.3,1.4-3.8,1.4
			c-2.5,0-4.4-2-4.4-5.4c0-3.5,1.8-5.4,4.3-5.4c2.8,0,4.1,2.4,4.1,5.2C134.3,10.1,134.3,10.4,134.3,10.6 M130.1,6.2
			c-1.3,0-2,1-2.2,2.8h4.4C132.2,7.5,131.6,6.2,130.1,6.2"/>
	</g>
	<g>
		<path class="st0" d="M140,15.2c-1.2,0-1.8-0.3-2.3-1V15h-1.6v-3.2h1.4c0.6,1.2,1.3,1.8,2.4,1.8c0.8,0,1.3-0.5,1.3-1.2
			c0-0.8-0.3-1.2-1.8-1.6c-2.5-0.7-3.4-1.5-3.4-3.4c0-1.5,1.1-2.9,3.2-2.9c0.9,0,1.6,0.2,2.2,0.8V4.7h1.6V8h-1.4
			c-0.5-1.2-1.1-1.8-2.2-1.8c-0.9,0-1.3,0.4-1.3,1.1c0,0.6,0.2,1.1,1.8,1.6c2.4,0.7,3.4,1.5,3.4,3.4C143.2,13.9,142,15.2,140,15.2"
			/>
	</g>
	<path class="st0" d="M114.5,59.1v-0.5c-0.5,0.5-1.2,0.7-2,0.7c-1,0-2-0.5-2.2-1.2c-0.1-0.3-0.2-0.7-0.2-1.5v-4.8h1.9v4.4
		c0,0.7,0,1,0.2,1.2c0.1,0.2,0.4,0.3,0.7,0.3c0.5,0,1.1-0.3,1.2-0.7v-5.3h1.9V59L114.5,59.1L114.5,59.1z"/>
	<path class="st0" d="M141.2,26c-2.5-1.3-4.3-1.8-6.2-1.8s-3.2,1-3.2,2.5c0,1.3,0.8,2,3.2,2.6l3,0.7c3.1,0.8,4.1,1.7,5,2.9
		s1.4,2.6,1.4,4.3c0,5.2-4.3,8.8-10.8,8.8c-3,0-6.3-0.9-9.9-2.8l2.1-5c2,1.2,5.5,2.9,8.4,2.9c1.9,0,3.4-1.2,3.4-2.9
		s-1.2-2.6-3.9-3.1l-3-0.5c-1.7-0.3-3.7-1.5-4.6-2.6c-0.9-1.1-1.4-2.9-1.4-4.5c0-4.9,3.9-8.2,9.8-8.2c3.8,0,6.4,1.1,8.6,2.2
		L141.2,26z"/>
	<g>
		<path class="st0" d="M3.8,52.4h89.8c1.9,0,3.4,1.5,3.4,3.4s-1.5,3.4-3.4,3.4H3.8c-1.9,0-3.4-1.5-3.4-3.4
			C0.4,53.9,1.9,52.4,3.8,52.4L3.8,52.4z"/>
	</g>
	<path class="st0" d="M108.1,14.8c-0.5,0.3-1.1,0.5-1.9,0.5c-1.4,0-2.2-0.9-2.2-2.7V6.4h-1.4V4.7h1.4v-3l2-1.1v4h2.3v1.6H106v6
		c0,1,0.3,1.2,1,1.2c0.2,0,0.4,0,0.6-0.1L108.1,14.8z"/>
	<path class="st0" d="M124.7,14.8c-0.5,0.3-1.1,0.5-1.9,0.5c-1.4,0-2.2-0.9-2.2-2.7V6.4h-1.4V4.7h1.4v-3l2-1.1v4h2.3v1.6h-2.3v6
		c0,1,0.3,1.2,1,1.2c0.2,0,0.4,0,0.6-0.1L124.7,14.8z"/>
	<g>
		<path class="st0" d="M146.2,6.3V3.7h-0.9V3.4h2.3v0.3h-0.9v2.5h-0.5V6.3z"/>
		<path class="st0" d="M148,6.3V3.4h0.6l0.7,2c0.1,0.2,0.1,0.3,0.1,0.4c0-0.1,0.1-0.3,0.2-0.5l0.7-2h0.5v2.9h-0.4V3.9l-0.8,2.4h-0.3
			l-0.8-2.4v2.4H148z"/>
	</g>
</g>
</svg>
