<svg xmlns="http://www.w3.org/2000/svg" xml:space="preserve" x="0" y="0" version="1.1" viewBox="0 0 360.88 322"><path d="M203.03 318.96c-87.1 0-157.96-70.86-157.96-157.96S115.93 3.04 203.03 3.04h4v45.24c17.41.62 34.53 5.27 49.76 13.54a113.291 113.291 0 0 1 33.27 27.43c3.45 4.18 6.62 8.64 9.43 13.26 1.88 3.1 3.63 6.32 5.21 9.59a111.906 111.906 0 0 1 10.54 37.37c.39 3.81.58 7.68.58 11.53 0 60.85-48.44 110.6-108.79 112.72v45.24h-4z" fill="#fff"/><path d="M203.03 314.96C118 314.96 49.07 246.03 49.07 161S118 7.04 203.03 7.04" fill="#4a7d8f"/><circle fill="#fff" cx="203.03" cy="161" r="108.79"/><path d="M202.35 115.9V84.05c-42.5 0-76.95 34.45-76.95 76.95s34.45 76.95 76.95 76.95V206.1c-19.86 0-36.69-12.86-42.7-30.69h42.7v-26.09h-43.51c5.15-19.24 22.65-33.42 43.51-33.42z" fill="#b1b1b5"/><path d="M203.03 52.21v31.92c42.45 0 76.87 34.42 76.87 76.87s-34.42 76.87-76.87 76.87v31.92c60.08 0 108.79-48.71 108.79-108.79S263.11 52.21 203.03 52.21z" fill="#63296b"/></svg>