<?xml version="1.0" encoding="utf-8"?>
<!-- Generator: Adobe Illustrator 23.0.1, SVG Export Plug-In . SVG Version: 6.00 Build 0)  -->
<svg version="1.1" id="Layer_1" xmlns="http://www.w3.org/2000/svg" xmlns:xlink="http://www.w3.org/1999/xlink" x="0px" y="0px"
	 viewBox="0 0 360.88 322" style="enable-background:new 0 0 360.88 322;" xml:space="preserve">
<style type="text/css">
	.st0{fill:#FFFFFF;}
	.st1{fill:#4A7D8F;}
	.st2{fill:#B1B1B5;}
	.st3{fill:#63296B;}
</style>
<g>
	<path class="st0" d="M203.03,318.96c-87.1,0-157.96-70.86-157.96-157.96S115.93,3.04,203.03,3.04h4v45.24
		c17.41,0.62,34.53,5.27,49.76,13.54c6.35,3.45,12.4,7.53,17.98,12.14c5.56,4.58,10.7,9.73,15.29,15.29
		c3.45,4.18,6.62,8.64,9.43,13.26c1.88,3.1,3.63,6.32,5.21,9.59c1.59,3.29,3.03,6.7,4.28,10.12c3.21,8.76,5.32,17.93,6.26,27.25
		c0.39,3.81,0.58,7.68,0.58,11.53c0,60.85-48.44,110.6-108.79,112.72v45.24H203.03z"/>
</g>
<path class="st1" d="M203.03,314.96C118,314.96,49.07,246.03,49.07,161S118,7.04,203.03,7.04"/>
<circle class="st0" cx="203.03" cy="161" r="108.79"/>
<path class="st2" d="M202.35,115.9V84.05c-42.5,0-76.95,34.45-76.95,76.95s34.45,76.95,76.95,76.95V206.1
	c-19.86,0-36.69-12.86-42.7-30.69h42.7v-26.09h-43.51C163.99,130.08,181.49,115.9,202.35,115.9z"/>
<path class="st3" d="M203.03,52.21v31.92c42.45,0,76.87,34.42,76.87,76.87s-34.42,76.87-76.87,76.87v31.92
	c60.08,0,108.79-48.71,108.79-108.79S263.11,52.21,203.03,52.21z"/>
</svg>
