<?xml version="1.0" encoding="utf-8"?>
<!-- Generator: Adobe Illustrator 24.2.3, SVG Export Plug-In . SVG Version: 6.00 Build 0)  -->
<svg version="1.1" id="Layer_1" xmlns="http://www.w3.org/2000/svg" xmlns:xlink="http://www.w3.org/1999/xlink" x="0px" y="0px"
	 viewBox="0 0 972.6 143.5" style="enable-background:new 0 0 972.6 143.5;" xml:space="preserve">
<style type="text/css">
	.st0{fill:url(#SVGID_1_);}
	.st1{fill:url(#SVGID_2_);}
	.st2{fill:url(#SVGID_3_);}
	.st3{fill:url(#SVGID_4_);}
	.st4{fill:url(#SVGID_5_);}
	.st5{fill:url(#SVGID_6_);}
	.st6{fill:url(#SVGID_7_);}
	.st7{fill:url(#SVGID_8_);}
	.st8{fill:url(#SVGID_9_);}
	.st9{fill:url(#SVGID_10_);}
	.st10{fill:url(#SVGID_11_);}
	.st11{fill:url(#SVGID_12_);}
	.st12{fill:url(#SVGID_13_);}
	.st13{fill:url(#SVGID_14_);}
	.st14{fill:url(#SVGID_15_);}
	.st15{fill:url(#SVGID_16_);}
	.st16{fill:url(#SVGID_17_);}
	.st17{fill:url(#SVGID_18_);}
	.st18{fill:url(#SVGID_19_);}
	.st19{fill:#FFFFFF;}
	.st20{fill:#4B7D8F;}
	.st21{fill:#B2B1B5;}
	.st22{fill:#64296B;}
</style>
<g>
	<g>
		<g>
			<linearGradient id="SVGID_1_" gradientUnits="userSpaceOnUse" x1="154.5575" y1="71.3556" x2="952.0203" y2="71.3556">
				<stop  offset="0" style="stop-color:#4B7D8F"/>
				<stop  offset="1" style="stop-color:#64296B"/>
			</linearGradient>
			<path class="st0" d="M154.6,95.2v-48h12.4c6.6,0,12.5,2.7,16.8,7c4.2,4.4,6.9,10.4,6.9,17s-2.7,12.6-6.9,16.9
				c-4.3,4.4-10.2,7.1-16.8,7.1H154.6z M161,53.7v35h5.9c4.7,0,9.1-1.9,12.2-5.1c3.1-3.2,5-7.6,5-12.4s-1.9-9.2-5-12.4
				c-3.2-3.2-7.6-5.1-12.2-5.1H161z"/>
			<linearGradient id="SVGID_2_" gradientUnits="userSpaceOnUse" x1="154.5575" y1="71.3556" x2="952.0203" y2="71.3556">
				<stop  offset="0" style="stop-color:#4B7D8F"/>
				<stop  offset="1" style="stop-color:#64296B"/>
			</linearGradient>
			<path class="st1" d="M229.7,95.2l-5.9-16.8h-15l-5.9,16.8H196l16.6-47.8h7.2l16.6,47.8H229.7z M216.3,56.7l-5.5,15.6h10.9
				L216.3,56.7z"/>
			<linearGradient id="SVGID_3_" gradientUnits="userSpaceOnUse" x1="154.5575" y1="71.3556" x2="952.0203" y2="71.3556">
				<stop  offset="0" style="stop-color:#4B7D8F"/>
				<stop  offset="1" style="stop-color:#64296B"/>
			</linearGradient>
			<path class="st2" d="M259.8,53.4v41.8h-6.3V53.4h-11.6v-6.1h29.5v6.1H259.8z"/>
			<linearGradient id="SVGID_4_" gradientUnits="userSpaceOnUse" x1="154.5575" y1="71.3556" x2="952.0203" y2="71.3556">
				<stop  offset="0" style="stop-color:#4B7D8F"/>
				<stop  offset="1" style="stop-color:#64296B"/>
			</linearGradient>
			<path class="st3" d="M310.4,95.2l-5.9-16.8h-15l-5.9,16.8h-6.8l16.6-47.8h7.2l16.6,47.8H310.4z M297,56.7l-5.5,15.6h10.9
				L297,56.7z"/>
			<linearGradient id="SVGID_5_" gradientUnits="userSpaceOnUse" x1="154.5575" y1="71.3556" x2="952.0203" y2="71.3556">
				<stop  offset="0" style="stop-color:#4B7D8F"/>
				<stop  offset="1" style="stop-color:#64296B"/>
			</linearGradient>
			<path class="st4" d="M359.4,95.2v-48h12.4c6.6,0,12.5,2.7,16.8,7c4.2,4.4,6.9,10.4,6.9,17s-2.7,12.6-6.9,16.9
				c-4.3,4.4-10.2,7.1-16.8,7.1H359.4z M365.9,53.7v35h5.9c4.7,0,9.1-1.9,12.2-5.1c3.1-3.2,5-7.6,5-12.4s-1.9-9.2-5-12.4
				c-3.2-3.2-7.6-5.1-12.2-5.1H365.9z"/>
			<linearGradient id="SVGID_6_" gradientUnits="userSpaceOnUse" x1="154.5575" y1="71.3556" x2="952.0203" y2="71.3556">
				<stop  offset="0" style="stop-color:#4B7D8F"/>
				<stop  offset="1" style="stop-color:#64296B"/>
			</linearGradient>
			<path class="st5" d="M401.9,95.2V47.3h6v47.9H401.9z"/>
			<linearGradient id="SVGID_7_" gradientUnits="userSpaceOnUse" x1="154.5575" y1="71.3556" x2="952.0203" y2="71.3556">
				<stop  offset="0" style="stop-color:#4B7D8F"/>
				<stop  offset="1" style="stop-color:#64296B"/>
			</linearGradient>
			<path class="st6" d="M439.2,57.5c-1.7-2.5-4-3.7-8.1-3.7c-3.2,0-5.5,0.7-6.8,2.1c-1.7,1.7-1.9,4-1.9,5.4c0,2.8,0.9,4.3,2.3,5.3
				c1.4,1,3.4,1.4,5.7,1.6c5.4,0.5,8.9,1.4,11.7,3.2c3.5,2.2,5.3,5.7,5.3,10.4c0,3.7-1.5,7.1-4.1,9.6c-3.2,3.2-7.7,4.4-12,4.4
				c-5.1,0-9.1-1.4-12.2-4.3c-2.5-2.5-4.1-5.8-4.7-10.4l0.1-0.1h6.3c0.4,2.8,1.3,4.5,2.6,5.7c1.9,1.8,4.8,2.8,8.9,2.5
				c5.4-0.3,8.6-3.4,8.6-7.4c0-1.8-0.4-3.4-1.9-4.6c-1.5-1.2-4.2-2-9.1-2.4c-9-0.8-13.9-5.2-13.9-13.5c0-4,1.3-7.5,3.8-10
				c2.7-2.7,6.4-4,11.2-4c5.3,0,9.1,1.7,11.7,4.5c2.6,2.8,4,6.4,4.5,10.4h-6.5C440.5,60.4,440,58.8,439.2,57.5z"/>
			<linearGradient id="SVGID_8_" gradientUnits="userSpaceOnUse" x1="154.5575" y1="71.3556" x2="952.0203" y2="71.3556">
				<stop  offset="0" style="stop-color:#4B7D8F"/>
				<stop  offset="1" style="stop-color:#64296B"/>
			</linearGradient>
			<path class="st7" d="M460.1,88.3c-4.4-4.3-7.1-10.4-7.1-17.1c0-6.7,2.7-12.7,7.1-17.1c4.3-4.3,10.4-7.1,17-7.1
				c7.1,0,13.7,3,18.9,9.1l-4.9,4.2c-4-4.6-8.8-6.8-14-6.8c-4.8,0-9.2,2-12.4,5.2c-3.2,3.2-5.2,7.6-5.2,12.5c0,4.9,2,9.3,5.2,12.5
				c3.2,3.2,7.6,5.2,12.4,5.2c5.2,0,9.9-2.2,14-6.8l4.9,4.2c-5.2,6-11.7,9.1-18.9,9.1C470.5,95.5,464.4,92.7,460.1,88.3z"/>
			<linearGradient id="SVGID_9_" gradientUnits="userSpaceOnUse" x1="154.5575" y1="71.3556" x2="952.0203" y2="71.3556">
				<stop  offset="0" style="stop-color:#4B7D8F"/>
				<stop  offset="1" style="stop-color:#64296B"/>
			</linearGradient>
			<path class="st8" d="M508.4,88.5c-4.4-4.3-7.1-10.4-7.1-17.1s2.7-12.6,7.1-17c4.3-4.3,10.3-7.1,16.9-7.1s12.7,2.7,17,7.1
				s7.1,10.4,7.1,17s-2.7,12.7-7.1,17.1c-4.3,4.4-10.4,7.1-17,7.1S512.8,92.9,508.4,88.5z M513,59c-3.2,3.2-5.1,7.6-5.1,12.4
				c0,4.8,1.9,9.4,5.1,12.5c3.2,3.2,7.6,5.1,12.4,5.1s9.2-1.9,12.4-5.1c3.2-3.2,5.1-7.7,5.1-12.5c0-4.8-1.9-9.2-5.1-12.4
				c-3.2-3.2-7.6-5.1-12.4-5.1S516.1,55.9,513,59z"/>
			<linearGradient id="SVGID_10_" gradientUnits="userSpaceOnUse" x1="154.5575" y1="71.3556" x2="952.0203" y2="71.3556">
				<stop  offset="0" style="stop-color:#4B7D8F"/>
				<stop  offset="1" style="stop-color:#64296B"/>
			</linearGradient>
			<path class="st9" d="M578.6,95.1h-7.3l-16.6-47.9h6.8L575,85.8l13.4-38.5h6.8L578.6,95.1z"/>
			<linearGradient id="SVGID_11_" gradientUnits="userSpaceOnUse" x1="154.5575" y1="71.3556" x2="952.0203" y2="71.3556">
				<stop  offset="0" style="stop-color:#4B7D8F"/>
				<stop  offset="1" style="stop-color:#64296B"/>
			</linearGradient>
			<path class="st10" d="M601.3,95.2V47.3h26.2v6.5h-19.9v14.5H621v5.9h-13.4v14.5h19.9v6.5H601.3z"/>
			<linearGradient id="SVGID_12_" gradientUnits="userSpaceOnUse" x1="154.5575" y1="71.3556" x2="952.0203" y2="71.3556">
				<stop  offset="0" style="stop-color:#4B7D8F"/>
				<stop  offset="1" style="stop-color:#64296B"/>
			</linearGradient>
			<path class="st11" d="M663.3,95.2h-8.5l-13.8-16.3v16.3h-6.3V47.4H647c4.2,0,8.1,1.7,10.8,4.5c2.7,2.9,4.4,6.8,4.4,11.1
				c0,4-1.4,7.7-3.9,10.4c-2.4,2.7-5.9,4.7-9.6,5L663.3,95.2z M641.1,53.9v18.3h6c2.4,0,4.8-1,6.3-2.7c1.6-1.7,2.6-4,2.6-6.5
				c0-2.5-1-4.8-2.6-6.5c-1.6-1.7-4-2.7-6.3-2.7H641.1z"/>
			<linearGradient id="SVGID_13_" gradientUnits="userSpaceOnUse" x1="154.5575" y1="71.3556" x2="952.0203" y2="71.3556">
				<stop  offset="0" style="stop-color:#4B7D8F"/>
				<stop  offset="1" style="stop-color:#64296B"/>
			</linearGradient>
			<path class="st12" d="M688.5,77.5v17.6h-6.4V77.7l-14.6-30.4h7.1l10.7,22.2l10.7-22.2h7.1L688.5,77.5z"/>
			<linearGradient id="SVGID_14_" gradientUnits="userSpaceOnUse" x1="154.5575" y1="71.3556" x2="952.0203" y2="71.3556">
				<stop  offset="0" style="stop-color:#4B7D8F"/>
				<stop  offset="1" style="stop-color:#64296B"/>
			</linearGradient>
			<path class="st13" d="M745,95.2V47.3h26.2v6.5h-19.9v14.5h13.4v5.9h-13.4v14.5h19.9v6.5H745z"/>
			<linearGradient id="SVGID_15_" gradientUnits="userSpaceOnUse" x1="154.5575" y1="71.3556" x2="952.0203" y2="71.3556">
				<stop  offset="0" style="stop-color:#4B7D8F"/>
				<stop  offset="1" style="stop-color:#64296B"/>
			</linearGradient>
			<path class="st14" d="M806.4,95.2l-21.6-35.1v35.1h-6.4V47.3h6.3L807,83.5V47.3h6.3v47.9H806.4z"/>
			<linearGradient id="SVGID_16_" gradientUnits="userSpaceOnUse" x1="154.5575" y1="71.3556" x2="952.0203" y2="71.3556">
				<stop  offset="0" style="stop-color:#4B7D8F"/>
				<stop  offset="1" style="stop-color:#64296B"/>
			</linearGradient>
			<path class="st15" d="M855,92.7c-5.8,3.1-12.4,3.5-18.2,1.7c-5.8-1.7-11-5.8-14.1-11.7c-2-3.7-3.2-8.5-2.6-13.9
				c0.6-5.4,2.9-10.2,6.3-13.8c3.4-3.6,7.9-6.2,13.1-7.2c5.2-1,10.7-0.3,15.8,2.6c2.6,1.5,5,3.5,7.3,6.1l-5,4.2
				c-2.5-2.8-4.8-4.5-7.4-5.5c-4.6-1.7-9.9-1.7-14.6,0.8c-3.2,1.7-5.7,4.4-7.3,7.8c-1.9,3.7-2.4,8.2-1.2,12.3c0.9,3.7,3,6.8,6.2,9.3
				c3,2.3,6.8,3.6,10.6,3.6c5.1,0,9.7-2.2,13.1-5.9v-4.8h-6.6v-6.5h13v13.7c-1.5,2.1-3.2,3.8-5,5.2C857.2,91.4,856.2,92,855,92.7z"
				/>
			<linearGradient id="SVGID_17_" gradientUnits="userSpaceOnUse" x1="154.5575" y1="71.3556" x2="952.0203" y2="71.3556">
				<stop  offset="0" style="stop-color:#4B7D8F"/>
				<stop  offset="1" style="stop-color:#64296B"/>
			</linearGradient>
			<path class="st16" d="M870.4,95.2V47.3h6v47.9H870.4z"/>
			<linearGradient id="SVGID_18_" gradientUnits="userSpaceOnUse" x1="154.5575" y1="71.3556" x2="952.0203" y2="71.3556">
				<stop  offset="0" style="stop-color:#4B7D8F"/>
				<stop  offset="1" style="stop-color:#64296B"/>
			</linearGradient>
			<path class="st17" d="M911.7,95.2l-21.6-35.1v35.1h-6.4V47.3h6.3l22.3,36.1V47.3h6.3v47.9H911.7z"/>
			<linearGradient id="SVGID_19_" gradientUnits="userSpaceOnUse" x1="154.5575" y1="71.3556" x2="952.0203" y2="71.3556">
				<stop  offset="0" style="stop-color:#4B7D8F"/>
				<stop  offset="1" style="stop-color:#64296B"/>
			</linearGradient>
			<path class="st18" d="M925.8,95.2V47.3H952v6.5h-19.9v14.5h13.4v5.9h-13.4v14.5H952v6.5H925.8z"/>
		</g>
	</g>
	<g>
		<g>
			<path class="st19" d="M71.8,143.5C32.2,143.5,0,111.4,0,71.8S32.2,0,71.8,0h1.8v20.6c7.9,0.3,15.7,2.4,22.6,6.2
				c2.9,1.6,5.6,3.4,8.2,5.5c2.5,2.1,4.9,4.4,6.9,6.9c1.6,1.9,3,3.9,4.3,6c0.9,1.4,1.6,2.9,2.4,4.4c0.7,1.5,1.4,3,1.9,4.6
				c1.5,4,2.4,8.1,2.8,12.4c0.2,1.7,0.3,3.5,0.3,5.2c0,27.6-22,50.3-49.4,51.2v20.6H71.8z"/>
		</g>
		<path class="st20" d="M71.8,141.7c-38.6,0-70-31.3-70-70s31.3-70,70-70"/>
		<circle class="st19" cx="71.8" cy="71.8" r="49.4"/>
		<path class="st21" d="M71.5,51.3V36.8c-19.3,0-35,15.7-35,35s15.7,35,35,35V92.3c-9,0-16.7-5.8-19.4-13.9h19.4V66.5H51.7
			C54,57.7,62,51.3,71.5,51.3z"/>
		<path class="st22" d="M71.8,22.3v14.5c19.3,0,34.9,15.6,34.9,34.9s-15.6,34.9-34.9,34.9v14.5c27.3,0,49.4-22.1,49.4-49.4
			S99.1,22.3,71.8,22.3z"/>
	</g>
</g>
</svg>
