<svg xmlns="http://www.w3.org/2000/svg" xml:space="preserve" x="0" y="0" version="1.1" viewBox="0 0 972.6 143.5"><linearGradient id="a" x1="154.558" x2="952.02" y1="71.356" y2="71.356" gradientUnits="userSpaceOnUse"><stop offset="0" stop-color="#4b7d8f"/><stop offset="1" stop-color="#64296b"/></linearGradient><path d="M154.6 95.2v-48H167c6.6 0 12.5 2.7 16.8 7 4.2 4.4 6.9 10.4 6.9 17s-2.7 12.6-6.9 16.9c-4.3 4.4-10.2 7.1-16.8 7.1h-12.4zm6.4-41.5v35h5.9c4.7 0 9.1-1.9 12.2-5.1 3.1-3.2 5-7.6 5-12.4s-1.9-9.2-5-12.4c-3.2-3.2-7.6-5.1-12.2-5.1H161z" fill="url(#a)"/><linearGradient id="b" x1="154.558" x2="952.02" y1="71.356" y2="71.356" gradientUnits="userSpaceOnUse"><stop offset="0" stop-color="#4b7d8f"/><stop offset="1" stop-color="#64296b"/></linearGradient><path d="m229.7 95.2-5.9-16.8h-15l-5.9 16.8H196l16.6-47.8h7.2l16.6 47.8h-6.7zm-13.4-38.5-5.5 15.6h10.9l-5.4-15.6z" fill="url(#b)"/><linearGradient id="c" x1="154.558" x2="952.02" y1="71.356" y2="71.356" gradientUnits="userSpaceOnUse"><stop offset="0" stop-color="#4b7d8f"/><stop offset="1" stop-color="#64296b"/></linearGradient><path d="M259.8 53.4v41.8h-6.3V53.4h-11.6v-6.1h29.5v6.1h-11.6z" fill="url(#c)"/><linearGradient id="d" x1="154.558" x2="952.02" y1="71.356" y2="71.356" gradientUnits="userSpaceOnUse"><stop offset="0" stop-color="#4b7d8f"/><stop offset="1" stop-color="#64296b"/></linearGradient><path d="m310.4 95.2-5.9-16.8h-15l-5.9 16.8h-6.8l16.6-47.8h7.2l16.6 47.8h-6.8zM297 56.7l-5.5 15.6h10.9L297 56.7z" fill="url(#d)"/><linearGradient id="e" x1="154.558" x2="952.02" y1="71.356" y2="71.356" gradientUnits="userSpaceOnUse"><stop offset="0" stop-color="#4b7d8f"/><stop offset="1" stop-color="#64296b"/></linearGradient><path d="M359.4 95.2v-48h12.4c6.6 0 12.5 2.7 16.8 7 4.2 4.4 6.9 10.4 6.9 17s-2.7 12.6-6.9 16.9c-4.3 4.4-10.2 7.1-16.8 7.1h-12.4zm6.5-41.5v35h5.9c4.7 0 9.1-1.9 12.2-5.1 3.1-3.2 5-7.6 5-12.4s-1.9-9.2-5-12.4c-3.2-3.2-7.6-5.1-12.2-5.1h-5.9z" fill="url(#e)"/><linearGradient id="f" x1="154.558" x2="952.02" y1="71.356" y2="71.356" gradientUnits="userSpaceOnUse"><stop offset="0" stop-color="#4b7d8f"/><stop offset="1" stop-color="#64296b"/></linearGradient><path d="M401.9 95.2V47.3h6v47.9h-6z" fill="url(#f)"/><linearGradient id="g" x1="154.558" x2="952.02" y1="71.356" y2="71.356" gradientUnits="userSpaceOnUse"><stop offset="0" stop-color="#4b7d8f"/><stop offset="1" stop-color="#64296b"/></linearGradient><path d="M439.2 57.5c-1.7-2.5-4-3.7-8.1-3.7-3.2 0-5.5.7-6.8 2.1-1.7 1.7-1.9 4-1.9 5.4 0 2.8.9 4.3 2.3 5.3s3.4 1.4 5.7 1.6c5.4.5 8.9 1.4 11.7 3.2 3.5 2.2 5.3 5.7 5.3 10.4 0 3.7-1.5 7.1-4.1 9.6-3.2 3.2-7.7 4.4-12 4.4-5.1 0-9.1-1.4-12.2-4.3-2.5-2.5-4.1-5.8-4.7-10.4l.1-.1h6.3c.4 2.8 1.3 4.5 2.6 5.7 1.9 1.8 4.8 2.8 8.9 2.5 5.4-.3 8.6-3.4 8.6-7.4 0-1.8-.4-3.4-1.9-4.6-1.5-1.2-4.2-2-9.1-2.4-9-.8-13.9-5.2-13.9-13.5 0-4 1.3-7.5 3.8-10 2.7-2.7 6.4-4 11.2-4 5.3 0 9.1 1.7 11.7 4.5 2.6 2.8 4 6.4 4.5 10.4h-6.5c-.2-1.8-.7-3.4-1.5-4.7z" fill="url(#g)"/><linearGradient id="h" x1="154.558" x2="952.02" y1="71.356" y2="71.356" gradientUnits="userSpaceOnUse"><stop offset="0" stop-color="#4b7d8f"/><stop offset="1" stop-color="#64296b"/></linearGradient><path d="M460.1 88.3c-4.4-4.3-7.1-10.4-7.1-17.1 0-6.7 2.7-12.7 7.1-17.1 4.3-4.3 10.4-7.1 17-7.1 7.1 0 13.7 3 18.9 9.1l-4.9 4.2c-4-4.6-8.8-6.8-14-6.8-4.8 0-9.2 2-12.4 5.2-3.2 3.2-5.2 7.6-5.2 12.5s2 9.3 5.2 12.5c3.2 3.2 7.6 5.2 12.4 5.2 5.2 0 9.9-2.2 14-6.8l4.9 4.2c-5.2 6-11.7 9.1-18.9 9.1-6.6.1-12.7-2.7-17-7.1z" fill="url(#h)"/><linearGradient id="i" x1="154.558" x2="952.02" y1="71.356" y2="71.356" gradientUnits="userSpaceOnUse"><stop offset="0" stop-color="#4b7d8f"/><stop offset="1" stop-color="#64296b"/></linearGradient><path d="M508.4 88.5c-4.4-4.3-7.1-10.4-7.1-17.1s2.7-12.6 7.1-17c4.3-4.3 10.3-7.1 16.9-7.1s12.7 2.7 17 7.1 7.1 10.4 7.1 17-2.7 12.7-7.1 17.1c-4.3 4.4-10.4 7.1-17 7.1s-12.5-2.7-16.9-7.1zM513 59c-3.2 3.2-5.1 7.6-5.1 12.4 0 4.8 1.9 9.4 5.1 12.5 3.2 3.2 7.6 5.1 12.4 5.1s9.2-1.9 12.4-5.1c3.2-3.2 5.1-7.7 5.1-12.5s-1.9-9.2-5.1-12.4c-3.2-3.2-7.6-5.1-12.4-5.1s-9.3 2-12.4 5.1z" fill="url(#i)"/><linearGradient id="j" x1="154.558" x2="952.02" y1="71.356" y2="71.356" gradientUnits="userSpaceOnUse"><stop offset="0" stop-color="#4b7d8f"/><stop offset="1" stop-color="#64296b"/></linearGradient><path d="M578.6 95.1h-7.3l-16.6-47.9h6.8L575 85.8l13.4-38.5h6.8l-16.6 47.8z" fill="url(#j)"/><linearGradient id="k" x1="154.558" x2="952.02" y1="71.356" y2="71.356" gradientUnits="userSpaceOnUse"><stop offset="0" stop-color="#4b7d8f"/><stop offset="1" stop-color="#64296b"/></linearGradient><path d="M601.3 95.2V47.3h26.2v6.5h-19.9v14.5H621v5.9h-13.4v14.5h19.9v6.5h-26.2z" fill="url(#k)"/><linearGradient id="l" x1="154.558" x2="952.02" y1="71.356" y2="71.356" gradientUnits="userSpaceOnUse"><stop offset="0" stop-color="#4b7d8f"/><stop offset="1" stop-color="#64296b"/></linearGradient><path d="M663.3 95.2h-8.5L641 78.9v16.3h-6.3V47.4H647c4.2 0 8.1 1.7 10.8 4.5 2.7 2.9 4.4 6.8 4.4 11.1 0 4-1.4 7.7-3.9 10.4-2.4 2.7-5.9 4.7-9.6 5l14.6 16.8zm-22.2-41.3v18.3h6c2.4 0 4.8-1 6.3-2.7 1.6-1.7 2.6-4 2.6-6.5s-1-4.8-2.6-6.5c-1.6-1.7-4-2.7-6.3-2.7h-6z" fill="url(#l)"/><linearGradient id="m" x1="154.558" x2="952.02" y1="71.356" y2="71.356" gradientUnits="userSpaceOnUse"><stop offset="0" stop-color="#4b7d8f"/><stop offset="1" stop-color="#64296b"/></linearGradient><path d="M688.5 77.5v17.6h-6.4V77.7l-14.6-30.4h7.1l10.7 22.2L696 47.3h7.1l-14.6 30.2z" fill="url(#m)"/><linearGradient id="n" x1="154.558" x2="952.02" y1="71.356" y2="71.356" gradientUnits="userSpaceOnUse"><stop offset="0" stop-color="#4b7d8f"/><stop offset="1" stop-color="#64296b"/></linearGradient><path d="M745 95.2V47.3h26.2v6.5h-19.9v14.5h13.4v5.9h-13.4v14.5h19.9v6.5H745z" fill="url(#n)"/><linearGradient id="o" x1="154.558" x2="952.02" y1="71.356" y2="71.356" gradientUnits="userSpaceOnUse"><stop offset="0" stop-color="#4b7d8f"/><stop offset="1" stop-color="#64296b"/></linearGradient><path d="m806.4 95.2-21.6-35.1v35.1h-6.4V47.3h6.3L807 83.5V47.3h6.3v47.9h-6.9z" fill="url(#o)"/><linearGradient id="p" x1="154.558" x2="952.02" y1="71.356" y2="71.356" gradientUnits="userSpaceOnUse"><stop offset="0" stop-color="#4b7d8f"/><stop offset="1" stop-color="#64296b"/></linearGradient><path d="M855 92.7c-5.8 3.1-12.4 3.5-18.2 1.7-5.8-1.7-11-5.8-14.1-11.7-2-3.7-3.2-8.5-2.6-13.9.6-5.4 2.9-10.2 6.3-13.8 3.4-3.6 7.9-6.2 13.1-7.2 5.2-1 10.7-.3 15.8 2.6 2.6 1.5 5 3.5 7.3 6.1l-5 4.2c-2.5-2.8-4.8-4.5-7.4-5.5-4.6-1.7-9.9-1.7-14.6.8-3.2 1.7-5.7 4.4-7.3 7.8-1.9 3.7-2.4 8.2-1.2 12.3.9 3.7 3 6.8 6.2 9.3 3 2.3 6.8 3.6 10.6 3.6 5.1 0 9.7-2.2 13.1-5.9v-4.8h-6.6v-6.5h13v13.7c-1.5 2.1-3.2 3.8-5 5.2-1.2.7-2.2 1.3-3.4 2z" fill="url(#p)"/><linearGradient id="q" x1="154.558" x2="952.02" y1="71.356" y2="71.356" gradientUnits="userSpaceOnUse"><stop offset="0" stop-color="#4b7d8f"/><stop offset="1" stop-color="#64296b"/></linearGradient><path d="M870.4 95.2V47.3h6v47.9h-6z" fill="url(#q)"/><linearGradient id="r" x1="154.558" x2="952.02" y1="71.356" y2="71.356" gradientUnits="userSpaceOnUse"><stop offset="0" stop-color="#4b7d8f"/><stop offset="1" stop-color="#64296b"/></linearGradient><path d="m911.7 95.2-21.6-35.1v35.1h-6.4V47.3h6.3l22.3 36.1V47.3h6.3v47.9h-6.9z" fill="url(#r)"/><linearGradient id="s" x1="154.558" x2="952.02" y1="71.356" y2="71.356" gradientUnits="userSpaceOnUse"><stop offset="0" stop-color="#4b7d8f"/><stop offset="1" stop-color="#64296b"/></linearGradient><path d="M925.8 95.2V47.3H952v6.5h-19.9v14.5h13.4v5.9h-13.4v14.5H952v6.5h-26.2z" fill="url(#s)"/><path d="M71.8 143.5C32.2 143.5 0 111.4 0 71.8S32.2 0 71.8 0h1.8v20.6c7.9.3 15.7 2.4 22.6 6.2 2.9 1.6 5.6 3.4 8.2 5.5 2.5 2.1 4.9 4.4 6.9 6.9 1.6 1.9 3 3.9 4.3 6 .9 1.4 1.6 2.9 2.4 4.4.7 1.5 1.4 3 1.9 4.6 1.5 4 2.4 8.1 2.8 12.4.2 1.7.3 3.5.3 5.2 0 27.6-22 50.3-49.4 51.2v20.6h-1.8z" fill="#fff"/><path d="M71.8 141.7c-38.6 0-70-31.3-70-70s31.3-70 70-70" fill="#4b7d8f"/><circle fill="#fff" cx="71.8" cy="71.8" r="49.4"/><path d="M71.5 51.3V36.8c-19.3 0-35 15.7-35 35s15.7 35 35 35V92.3c-9 0-16.7-5.8-19.4-13.9h19.4V66.5H51.7C54 57.7 62 51.3 71.5 51.3z" fill="#b2b1b5"/><path d="M71.8 22.3v14.5c19.3 0 34.9 15.6 34.9 34.9s-15.6 34.9-34.9 34.9v14.5c27.3 0 49.4-22.1 49.4-49.4S99.1 22.3 71.8 22.3z" fill="#64296b"/></svg>