<?xml version="1.0" encoding="utf-8"?>
<!-- Generator: Adobe Illustrator 26.5.0, SVG Export Plug-In . SVG Version: 6.00 Build 0)  -->
<svg version="1.1" id="white_outlined" xmlns:svg="http://www.w3.org/2000/svg"
	 xmlns="http://www.w3.org/2000/svg" xmlns:xlink="http://www.w3.org/1999/xlink" x="0px" y="0px" viewBox="0 0 465 123.5"
	 style="enable-background:new 0 0 465 123.5;" xml:space="preserve">
<style type="text/css">
	.st0{fill:#21335B;}
	.st1{fill:#7986CB;}
	.st2{fill:#FFFFFF;}
	.st3{fill:#C5CAE9;}
</style>
<rect x="0.1" y="-1" class="st0" width="464.7" height="124"/>
<g id="g48" transform="translate(-8.08,-9.54)">
	<g id="g26">
		<polygon id="polygon4" class="st1" points="38,41 88,22.6 88,118.5 38,100 		"/>
		<polygon id="polygon6" class="st1" points="92.7,22.6 177.3,44.5 177.3,96.6 92.7,118.5 		"/>
		<path id="path8" class="st2" d="M68.4,77.3c-0.6,0-1.2,0-1.7,0.1l-5.5-21.9C63.4,54,65,51,65,47.8c0-4.3-2.8-7-6-6.1
			c-3.1,0.9-5.4,4.6-5.4,8.5c0,2.1,0.7,3.9,1.9,5l-9.2,19c-0.4-0.2-0.8-0.4-1.2-0.4c-1.7-0.1-3,1.9-3,4.3s1.3,4.7,3,4.9
			c1.2,0.2,2.2-0.7,2.8-2.1L58.6,86c-0.1,0.7-0.2,1.5-0.2,2.3c0,6.4,4.2,12.8,9.9,14.5c6.3,1.9,12-2.8,12.1-10.6
			C80.4,84.4,74.7,77.7,68.4,77.3z M48.2,79.3c0-0.2,0-0.4,0-0.7c0-1.2-0.3-2.4-0.8-3.2l9.4-19.3c0.7,0.3,1.4,0.4,2.2,0.3
			c0.3,0,0.6-0.1,0.8-0.2l5.4,21.5c-2.9,1-5.1,3.4-6.1,6.7L48.2,79.3z"/>
		<path id="path10" class="st3" d="M110.4,100.5c-0.8,0-1.5-0.7-1.5-1.5V39.8c0-0.8,0.7-1.5,1.5-1.5s1.5,0.6,1.5,1.5V99
			C111.9,99.9,111.2,100.5,110.4,100.5z"/>
		<path id="path12" class="st3" d="M123.1,98.3c-0.8,0-1.5-0.7-1.5-1.5V42.1c0-0.8,0.7-1.5,1.5-1.5s1.5,0.6,1.5,1.5v54.7
			C124.5,97.6,123.9,98.3,123.1,98.3z"/>
		<path id="path14" class="st3" d="M133.9,96.4c-0.8,0-1.5-0.7-1.5-1.5V44c0-0.8,0.7-1.5,1.5-1.5s1.5,0.6,1.5,1.5v50.9
			C135.4,95.7,134.7,96.4,133.9,96.4z"/>
		<path id="path16" class="st3" d="M143.4,94.8c-0.8,0-1.5-0.7-1.5-1.5V45.8c0-0.8,0.7-1.5,1.5-1.5s1.5,0.6,1.5,1.5v47.6
			C144.9,94.2,144.2,94.8,143.4,94.8z"/>
		<path id="path18" class="st3" d="M151.7,93.4c-0.8,0-1.5-0.7-1.5-1.5V47.3c0-0.8,0.7-1.5,1.5-1.5s1.5,0.7,1.5,1.5V92
			C153.1,92.8,152.5,93.4,151.7,93.4z"/>
		<path id="path20" class="st3" d="M159,92.2c-0.8,0-1.5-0.7-1.5-1.5v-42c0-0.8,0.7-1.5,1.5-1.5s1.5,0.7,1.5,1.5v42
			C160.5,91.5,159.8,92.2,159,92.2z"/>
		<path id="path22" class="st3" d="M165.5,91.1c-0.8,0-1.5-0.7-1.5-1.5V49.9c0-0.8,0.7-1.5,1.5-1.5s1.5,0.7,1.5,1.5v39.7
			C167,90.4,166.3,91.1,165.5,91.1z"/>
		<path id="path24" class="st3" d="M171.4,90.1c-0.8,0-1.5-0.7-1.5-1.5V51c0-0.8,0.7-1.5,1.5-1.5s1.5,0.7,1.5,1.5v37.7
			C172.8,89.4,172.2,90.1,171.4,90.1z"/>
	</g>
	<g id="g46">
		<path id="path28" class="st2" d="M190.6,53.3h13.6c11,0,18.6,7.5,18.6,17.4v0.1c0,9.8-7.6,17.5-18.6,17.5h-13.6V53.3z M204.2,81.3
			c6.3,0,10.6-4.2,10.6-10.4v-0.1c0-6.2-4.2-10.5-10.6-10.5h-5.9v21.1L204.2,81.3L204.2,81.3z"/>
		<path id="path30" class="st2" d="M227.6,75L227.6,75c0-7.8,6.2-14,14.6-14c8.3,0,14.4,6.2,14.4,13.8v0.1c0,7.7-6.2,13.9-14.6,13.9
			C233.7,88.9,227.6,82.7,227.6,75z M249.1,75L249.1,75c0-4-2.9-7.5-7.1-7.5c-4.4,0-6.9,3.3-6.9,7.3v0.1c0,3.9,2.9,7.4,7.1,7.4
			C246.5,82.3,249.1,79,249.1,75z"/>
		<path id="path32" class="st2" d="M260.8,75L260.8,75c0-7.8,5.9-14,14.1-14c5.1,0,8.2,1.7,10.7,4.5l-4.6,5c-1.7-1.8-3.4-3-6.1-3
			c-3.8,0-6.5,3.3-6.5,7.3v0.1c0,4.1,2.7,7.4,6.8,7.4c2.6,0,4.3-1.1,6.1-2.8l4.5,4.5c-2.6,2.8-5.6,4.9-11,4.9
			C266.7,88.9,260.8,82.7,260.8,75z"/>
		<path id="path34" class="st2" d="M290.6,51.8h7.6v19.5l8.9-9.8h9.1L306,72l10.5,16.2h-8.7l-7-10.9l-2.6,2.8v8.2h-7.6V51.8z"/>
		<path id="path36" class="st2" d="M318.1,84.7l3.2-5c2.9,2.1,6,3.2,8.5,3.2c2.2,0,3.2-0.8,3.2-2v-0.1c0-1.7-2.6-2.2-5.5-3.1
			c-3.8-1.1-8-2.8-8-8v-0.1c0-5.5,4.4-8.5,9.8-8.5c3.4,0,7.1,1.2,10,3.1l-2.9,5.2c-2.6-1.6-5.3-2.5-7.2-2.5c-1.9,0-2.8,0.8-2.8,1.8
			v0.1c0,1.5,2.5,2.2,5.5,3.2c3.8,1.2,8.1,3.1,8.1,7.9V80c0,5.9-4.5,8.7-10.2,8.7C325.9,88.8,321.7,87.5,318.1,84.7L318.1,84.7z"/>
		<path id="path38" class="st2" d="M346.1,80.7V68h-3.2v-6.5h3.2v-6.8h7.6v6.8h6.3V68h-6.3v11.4c0,1.8,0.8,2.6,2.5,2.6
			c1.4,0,2.6-0.3,3.8-0.9v6.1c-1.6,0.9-3.5,1.6-6,1.6C349.2,88.7,346.1,86.9,346.1,80.7L346.1,80.7z"/>
		<path id="path40" class="st2" d="M363.5,75L363.5,75c0-7.8,6.2-14,14.5-14s14.5,6.2,14.5,13.8v0.1c0,7.7-6.2,13.9-14.5,13.9
			C369.7,88.9,363.5,82.7,363.5,75z M385,75L385,75c0-4-2.9-7.5-7-7.5c-4.4,0-7,3.3-7,7.3v0.1c0,3.9,2.9,7.4,7,7.4
			C382.4,82.3,385,79,385,75z"/>
		<path id="path42" class="st2" d="M398,61.5h7.6v5.4c1.5-3.7,4-6.1,8.5-5.9v7.9h-0.3c-5,0-8.1,3.1-8.1,9.4v9.9h-7.6L398,61.5
			L398,61.5z"/>
		<path id="path44" class="st2" d="M416.9,75L416.9,75c0-7.8,5.5-14,13.2-14c9,0,13,6.9,13,14.5c0,0.6,0,1.3-0.1,2h-18.6
			c0.8,3.4,3.1,5.2,6.5,5.2c2.5,0,4.4-0.8,6.5-2.8l4.4,3.8c-2.5,3.1-6.1,5-11,5C422.8,88.9,416.9,83.2,416.9,75L416.9,75z
			 M435.8,72.8c-0.5-3.4-2.5-5.7-5.6-5.7s-5.2,2.2-5.8,5.7H435.8z"/>
	</g>
</g>
</svg>
