<svg xmlns="http://www.w3.org/2000/svg" xml:space="preserve" x="0" y="0" version="1.1" viewBox="0 0 95 95"><path d="M73.5 17.8c-1.2 1.6-3.4 2-5 .8s-2-3.4-.8-5 3.4-2 5-.8c1.6 1.1 2.1 3.4.8 5m-13.7-1.3c.8-1.5 2.6-2.1 4.1-1.3 1.5.8 2.1 2.6 1.3 4.1-.8 1.5-2.6 2.1-4.1 1.3-1.4-.7-2.1-2.6-1.3-4.1M58.4 22c-.4 1.3-1.9 2.1-3.2 1.6-1.3-.4-2.1-1.9-1.6-3.2.4-1.3 1.9-2.1 3.2-1.6 1.4.4 2 1.9 1.6 3.2m-5.2 3c-.2 1.2-1.3 1.9-2.4 1.8-1.1-.2-1.9-1.3-1.8-2.4.2-1.2 1.3-1.9 2.4-1.8 1.1.2 1.9 1.3 1.8 2.4m-4 3.5c0 1-.8 1.7-1.8 1.7s-1.8-.8-1.8-1.7c0-1 .8-1.7 1.8-1.7 1-.1 1.8.7 1.8 1.7m-2.8 3.3c.1.8-.4 1.5-1.2 1.6-.8.1-1.5-.4-1.6-1.2s.4-1.5 1.2-1.6c.7-.1 1.5.4 1.6 1.2" fill="#566471"/><path d="M27.3 81.4c-1.2 1.6-3.4 2-5 .8s-2-3.4-.8-5 3.4-2 5-.8c1.6 1.1 1.9 3.4.8 5m2.3-5.8c.8-1.5 2.6-2.1 4.1-1.3 1.5.8 2.1 2.6 1.3 4.1-.8 1.5-2.6 2.1-4.1 1.3-1.3-.7-2-2.6-1.3-4.1m11.7-1.1c-.4 1.3-1.9 2.1-3.2 1.6-1.3-.4-2.1-1.9-1.6-3.2.4-1.3 1.9-2.1 3.2-1.6s2.1 1.9 1.6 3.2m4.6-4c-.2 1.2-1.3 1.9-2.4 1.8-1.2-.2-1.9-1.3-1.8-2.4.2-1.2 1.3-1.9 2.4-1.8 1.2.2 2.1 1.3 1.8 2.4m3.3-4c0 1-.8 1.7-1.8 1.7s-1.8-.8-1.8-1.7c0-1 .8-1.7 1.8-1.7s1.8.7 1.8 1.7m2.1-3.7c.1.8-.4 1.5-1.2 1.6-.8.1-1.5-.4-1.6-1.2-.1-.8.4-1.5 1.2-1.6.8-.1 1.5.4 1.6 1.2M11.1 31.9c1.9.6 2.9 2.7 2.3 4.6-.6 1.9-2.7 2.9-4.5 2.3-1.9-.6-2.9-2.7-2.3-4.5.7-1.9 2.7-3.1 4.5-2.4m4 7.4c1.7.3 2.8 1.8 2.5 3.5s-1.8 2.8-3.5 2.5-2.8-1.8-2.5-3.5c.3-1.7 2-2.8 3.5-2.5m4.8 5.7c1.4 0 2.5 1.1 2.5 2.5S21.3 50 19.9 50s-2.5-1.1-2.5-2.5c-.1-1.5 1-2.5 2.5-2.5m4.5 4c1.2-.2 2.2.6 2.4 1.8.2 1.2-.6 2.2-1.8 2.4-1.2.2-2.2-.6-2.4-1.8-.2-1.1.7-2.3 1.8-2.4m4.5 2.8c.9-.3 1.9.2 2.2 1.1s-.2 1.9-1.1 2.1c-.9.3-1.9-.2-2.2-1.1-.4-.9.1-1.9 1.1-2.1m3.9 1.6c.7-.4 1.6-.1 1.9.6.4.7.1 1.6-.6 1.9-.7.4-1.6.1-1.9-.6-.3-.8 0-1.7.6-1.9" fill="#a3cd3d"/><path d="M86 56.3c1.9.6 2.9 2.6 2.3 4.5s-2.7 2.9-4.5 2.3c-1.9-.6-2.9-2.7-2.3-4.6.7-1.9 2.7-3 4.5-2.2m-5.2-6.7c1.7.3 2.8 1.8 2.5 3.5s-1.8 2.8-3.5 2.5-2.8-1.8-2.5-3.5c.2-1.6 1.9-2.6 3.5-2.5M75.2 45c1.4 0 2.5 1.1 2.5 2.5S76.6 50 75.2 50s-2.5-1.1-2.5-2.5 1.1-2.5 2.5-2.5m-5.3-3.2c1.2-.2 2.2.6 2.4 1.8.2 1.2-.6 2.2-1.8 2.4-1.2.2-2.2-.6-2.4-1.8-.2-1.2.7-2.2 1.8-2.4M65 40c.9-.3 1.9.2 2.2 1.1.3.9-.2 1.9-1.1 2.2-.9.3-1.9-.2-2.2-1.1-.2-.9.3-1.9 1.1-2.2m-4.2-1c.7-.4 1.6-.1 1.9.6.4.7.1 1.6-.6 1.9-.7.4-1.6.1-1.9-.6-.4-.5-.2-1.4.6-1.9M27.3 13.5c1.2 1.6.8 3.9-.8 5-1.6 1.2-3.9.8-5-.8-1.2-1.6-.8-3.9.8-5 1.6-1.2 3.8-.8 5 .8m-1.2 8.4c1.2 1.2 1.2 3.1 0 4.3s-3.1 1.2-4.3 0-1.2-3.1 0-4.3 3.1-1.2 4.3 0m.5 7.3c1.1.8 1.4 2.4.6 3.5-.8 1.1-2.4 1.4-3.5.6-1.1-.8-1.4-2.4-.6-3.5.8-1.3 2.3-1.4 3.5-.6m1.3 6c1 .5 1.5 1.8.9 2.8-.5 1-1.8 1.5-2.8.9-1-.5-1.5-1.8-.9-2.8.5-1.1 1.8-1.6 2.8-.9m2 4.8c.9.3 1.4 1.3 1.1 2.2-.3.9-1.3 1.4-2.2 1.1-.9-.3-1.4-1.3-1.2-2.3s1.3-1.4 2.3-1m2.3 3.6c.8.1 1.3.9 1.2 1.7-.1.8-.9 1.3-1.6 1.2-.8-.1-1.3-.9-1.2-1.6.2-.9.8-1.4 1.6-1.3" fill="#566471"/><path d="M73.5 77.1c1.2 1.6.8 3.9-.8 5-1.6 1.2-3.9.8-5-.8-1.2-1.6-.8-3.9.8-5 1.7-1.1 3.8-.8 5 .8m-.3-8.3c1.2 1.2 1.2 3.1 0 4.3-1.2 1.2-3.1 1.2-4.3 0-1.2-1.2-1.2-3.1 0-4.3s3-1.2 4.3 0m-1.9-7.2c1.1.8 1.4 2.4.6 3.5s-2.4 1.4-3.5.6-1.4-2.4-.6-3.5 2.4-1.3 3.5-.6M68.9 56c1 .5 1.5 1.8.9 2.8-.5 1-1.8 1.5-2.8.9-1-.5-1.5-1.8-.9-2.8.6-.9 1.8-1.4 2.8-.9m-2.7-4.2c.9.3 1.4 1.3 1.1 2.2-.3.9-1.3 1.4-2.2 1.1-.9-.3-1.4-1.3-1.1-2.2.2-.9 1.2-1.4 2.2-1.1m-3-3.3c.8.1 1.3.9 1.2 1.6-.1.8-.9 1.3-1.6 1.2-.8-.1-1.3-.9-1.2-1.7.1-.6.8-1.2 1.6-1.1m20.6-16.6c1.9-.6 3.9.4 4.5 2.3.6 1.9-.4 3.9-2.3 4.5s-3.9-.4-4.5-2.3c-.7-1.9.4-3.9 2.3-4.5m-8.1-2.2c1.5-.8 3.3-.2 4.1 1.3.8 1.5.2 3.3-1.3 4.1s-3.3.2-4.1-1.3c-.9-1.6-.2-3.3 1.3-4.1m-7.4-.5c1.1-.8 2.7-.6 3.5.6.8 1.1.6 2.7-.6 3.5-1.1.8-2.7.6-3.5-.6-.8-1.2-.5-2.7.6-3.5m-6.1.5c.8-.8 2.2-.8 3 0s.8 2.2 0 3-2.2.8-3 0-.8-2.2 0-3m-2 3.3c-.6.8-1.7 1-2.4.4-.8-.6-1-1.7-.4-2.4.6-.8 1.7-1 2.4-.4s.9 1.8.4 2.4m-4.4 1.2c-.4.7-1.2 1-1.9.6s-1-1.2-.6-1.9 1.2-1 1.9-.6c.7.2 1 1.2.6 1.9" fill="#a3cd3d"/><path d="M8.9 56.3c1.9-.6 3.9.4 4.5 2.3s-.4 3.9-2.3 4.6c-1.9.6-3.9-.4-4.5-2.3-.5-2 .5-4 2.3-4.6m7.7 3.6c1.5-.8 3.3-.2 4.1 1.3s.2 3.3-1.3 4.1c-1.5.8-3.3.2-4.1-1.3-.9-1.5-.2-3.4 1.3-4.1m7 1.7c1.1-.8 2.7-.6 3.5.6.8 1.1.6 2.7-.6 3.5-1.1.8-2.7.6-3.5-.6-.7-1-.6-2.6.6-3.5m6 .7c.8-.8 2.2-.8 3 0 .8.8.8 2.2 0 3-.8.8-2.2.8-3 0-.7-.9-.7-2.2 0-3m8.1 1.7c-.6.8-1.7 1-2.4.4-.8-.6-1-1.7-.4-2.4.6-.8 1.7-1 2.4-.4.7.4.9 1.5.4 2.4m4-1.9c-.4.7-1.2 1-1.9.6s-1-1.2-.6-1.9 1.2-1 1.9-.6c.7.3.9 1.2.6 1.9" fill="#566471"/><path d="M51.2 8.2c0 2-1.6 3.6-3.6 3.6S44 10.2 44 8.2s1.6-3.6 3.6-3.6c1.8 0 3.6 1.6 3.6 3.6m-12 7c-.3-1.7.9-3.2 2.5-3.5 1.7-.3 3.2.9 3.5 2.5.3 1.7-.9 3.2-2.5 3.5s-3.2-.8-3.5-2.5m2.1 5.2c.4 1.3-.3 2.8-1.6 3.2-1.3.4-2.8-.3-3.2-1.6-.4-1.3.3-2.8 1.6-3.2s2.8.2 3.2 1.6M38.9 26c.5 1 .1 2.3-.9 2.9-1 .5-2.3.1-2.8-.9s-.1-2.3.9-2.8c1.1-.7 2.2-.2 2.8.8m-1.2 5c.6.8.4 1.9-.4 2.4-.8.6-1.9.4-2.4-.4-.6-.8-.4-1.9.4-2.4.7-.6 1.9-.4 2.4.4m-.3 4.4c.6.6.6 1.5 0 2-.6.6-1.5.6-2 0-.6-.6-.6-1.5 0-2 .5-.5 1.4-.5 2 0" fill="#a3cd3d"/><path d="M51.2 86.8c0 2-1.6 3.6-3.6 3.6S44 88.8 44 86.8s1.6-3.6 3.6-3.6c1.8 0 3.6 1.6 3.6 3.6m-1.5-6c-.3-1.7.9-3.2 2.5-3.5 1.7-.3 3.2.9 3.5 2.5.3 1.7-.9 3.2-2.5 3.5-1.8.2-3.3-.9-3.5-2.5m8.7-7.8c.4 1.3-.3 2.8-1.6 3.2-1.3.4-2.8-.3-3.2-1.6-.4-1.3.3-2.8 1.6-3.2 1.3-.5 2.8.2 3.2 1.6m1.4-6c.5 1 .1 2.3-.9 2.8s-2.3.1-2.9-.9c-.5-1-.1-2.3.9-2.8 1.1-.5 2.4-.1 2.9.9m.4-5.1c.6.8.4 1.9-.4 2.4-.8.6-1.9.4-2.4-.4-.6-.8-.4-1.9.4-2.4.6-.5 1.7-.5 2.4.4m-.7-4.4c.6.6.6 1.5 0 2-.6.6-1.5.6-2 0-.6-.6-.6-1.5 0-2 .7-.5 1.5-.5 2 0" fill="#566471"/><path d="M63 11.2c-.6 1.9-2.7 2.9-4.6 2.3-1.9-.6-2.9-2.7-2.3-4.5.6-2 2.6-3 4.5-2.3 2.1.5 3.2 2.5 2.4 4.5m-13.3 3c.3-1.7 1.8-2.8 3.5-2.5s2.8 1.8 2.5 3.5-1.8 2.8-3.5 2.5c-1.7-.2-2.8-1.8-2.5-3.5m.3 5.7c0 1.4-1.1 2.5-2.5 2.5S45 21.3 45 19.9s1.1-2.5 2.5-2.5c1.3-.2 2.5 1.1 2.5 2.5m-4.1 4.5c.2 1.2-.6 2.2-1.8 2.4-1.2.2-2.2-.6-2.4-1.8-.2-1.2.6-2.2 1.8-2.4 1.3-.1 2.3.6 2.4 1.8m-2.7 4.5c.3.9-.2 1.9-1.1 2.2s-1.9-.2-2.1-1.1c-.3-.9.2-1.9 1.1-2.2.8-.4 1.8.1 2.1 1.1m-1.5 4c.4.7.1 1.6-.6 1.9-.7.4-1.6.1-1.9-.6-.4-.7-.1-1.6.6-1.9.6-.4 1.4-.1 1.9.6" fill="#c54d58"/><path d="M38.8 86c-.6 1.9-2.7 2.9-4.6 2.3s-2.9-2.7-2.3-4.5c.6-1.9 2.7-2.9 4.5-2.3 1.9.5 2.9 2.6 2.4 4.5m.4-6.2c.3-1.7 1.8-2.8 3.5-2.5s2.8 1.8 2.5 3.5-1.8 2.8-3.5 2.5c-1.5-.3-2.7-1.9-2.5-3.5M50 75.1c0 1.4-1.1 2.5-2.5 2.5S45 76.5 45 75.1s1.1-2.5 2.5-2.5c1.3 0 2.5 1.2 2.5 2.5m3.2-5.2c.2 1.2-.6 2.2-1.8 2.4-1.2.2-2.2-.6-2.4-1.8-.2-1.2.6-2.2 1.8-2.4 1.1-.2 2.2.7 2.4 1.8M55 65c.3.9-.2 1.9-1.1 2.2-.9.3-1.9-.2-2.1-1.1-.3-.9.2-1.9 1.1-2.2.9-.3 1.9.2 2.1 1.1m.8-4.2c.4.7.1 1.6-.6 1.9-.7.4-1.6.1-1.9-.6-.4-.7-.1-1.6.6-1.9.8-.3 1.6-.2 1.9.6M8.1 43.9c2 0 3.6 1.6 3.6 3.6S10.1 51 8.1 51s-3.6-1.6-3.6-3.6 1.6-3.5 3.6-3.5m6.2 5.7c1.7-.3 3.2.9 3.5 2.5.3 1.7-.9 3.2-2.5 3.5-1.7.3-3.2-.9-3.5-2.5-.4-1.6.8-3.1 2.5-3.5m6.1 4c1.3-.4 2.8.3 3.2 1.6.4 1.3-.3 2.8-1.6 3.2-1.3.4-2.8-.3-3.2-1.6-.4-1.3.3-2.8 1.6-3.2m5.5 2.4c1-.5 2.3-.1 2.8.9s.1 2.3-.9 2.8-2.3.1-2.8-.9c-.4-.9-.1-2.3.9-2.8m5.2 1.3c.8-.6 1.9-.4 2.4.4.6.8.4 1.9-.4 2.4-.8.6-1.9.4-2.4-.4-.6-.7-.4-1.8.4-2.4m4.2.2c.6-.6 1.5-.6 2 0 .6.6.6 1.5 0 2-.6.6-1.5.6-2 0-.5-.5-.5-1.4 0-2" fill="#5ac4bc"/><path d="M86.8 43.9c2 0 3.6 1.6 3.6 3.6S88.8 51 86.8 51s-3.6-1.6-3.6-3.6 1.6-3.5 3.6-3.5m-7-4.6c1.7-.3 3.2.9 3.5 2.5.3 1.7-.9 3.2-2.5 3.5-1.7.3-3.2-.9-3.5-2.5-.3-1.7.9-3.3 2.5-3.5M73 36.5c1.3-.4 2.8.3 3.2 1.6.4 1.3-.3 2.8-1.6 3.2-1.3.4-2.8-.3-3.2-1.6-.5-1.3.3-2.7 1.6-3.2m-6-1.3c1-.5 2.3-.1 2.8.9s.1 2.3-.9 2.8-2.3.1-2.8-.9c-.4-1-.1-2.3.9-2.8m-5.2-.3c.8-.6 1.9-.4 2.4.4.6.8.4 1.9-.4 2.4-.8.6-1.9.4-2.4-.4s-.2-1.8.4-2.4m-4.3.5c.6-.6 1.5-.6 2 0 .6.6.6 1.5 0 2-.6.6-1.5.6-2 0-.6-.5-.6-1.4 0-2M17.8 21.5c1.6 1.2 2 3.4.8 5s-3.4 2-5 .8-2-3.4-.8-5c1.1-1.6 3.3-2.1 5-.8m1.5 8.2c1.5.8 2.1 2.6 1.3 4.1s-2.6 2-4.1 1.2-2.1-2.6-1.3-4.1c.7-1.4 2.6-1.9 4.1-1.2m2.6 6.8c1.3.4 2.1 1.9 1.6 3.2-.4 1.3-1.9 2.1-3.2 1.6-1.3-.4-2.1-1.9-1.6-3.2.4-1.2 1.9-2.1 3.2-1.6m3.2 5.3c1.2.2 1.9 1.3 1.8 2.4-.2 1.2-1.3 1.9-2.4 1.8-1.1-.2-1.9-1.3-1.8-2.4.2-1.2 1.2-2.1 2.4-1.8m3.3 4c1 0 1.7.8 1.7 1.7s-.8 1.7-1.7 1.7c-1 0-1.8-.8-1.8-1.7s.8-1.7 1.8-1.7m3.4 2.7c.8-.1 1.5.4 1.6 1.2.1.8-.4 1.5-1.2 1.7-.8.1-1.5-.4-1.6-1.2-.2-.8.3-1.6 1.2-1.7" fill="#c54d58"/><path d="M81.4 67.6c1.6 1.2 2 3.4.8 5s-3.4 2-5 .8-2-3.4-.8-5c1.1-1.6 3.4-1.9 5-.8m-3-7.7c1.5.8 2.1 2.6 1.3 4.1-.8 1.5-2.6 2.1-4.1 1.3-1.5-.8-2.1-2.6-1.3-4.1.9-1.6 2.6-2.2 4.1-1.3m-3.9-6.3c1.3.4 2.1 1.9 1.6 3.2-.4 1.3-1.9 2.1-3.2 1.6-1.3-.4-2.1-1.9-1.6-3.2s1.9-2.1 3.2-1.6m-4-4.6c1.2.2 1.9 1.3 1.8 2.4-.2 1.2-1.3 1.9-2.4 1.8-1.2-.2-1.9-1.3-1.8-2.4.2-1.2 1.3-1.9 2.4-1.8m-4-3.2c1 0 1.7.8 1.7 1.7s-.8 1.7-1.7 1.7c-1 0-1.7-.8-1.7-1.7s.7-1.7 1.7-1.7m-3.7-2.2c.8-.1 1.5.4 1.6 1.2.1.8-.4 1.5-1.2 1.6-.8.1-1.5-.4-1.6-1.2-.2-.7.3-1.4 1.2-1.6m14.4-22.1c1.6-1.2 3.9-.8 5 .8 1.2 1.6.8 3.9-.8 5-1.6 1.2-3.9.8-5-.8-1.2-1.6-.9-3.8.8-5m-8.4.4c1.2-1.2 3.1-1.2 4.3 0 1.2 1.2 1.2 3.1 0 4.3s-3.1 1.2-4.3 0c-1.1-1.2-1.1-3.2 0-4.3m-3 4.6c-.8 1.1-2.4 1.4-3.5.6-1.1-.8-1.4-2.4-.6-3.5s2.4-1.4 3.5-.6 1.5 2.5.6 3.5m-6 1.4c-.5 1-1.8 1.5-2.8.9-1-.5-1.5-1.8-.9-2.8.5-1 1.8-1.5 2.8-.9 1 .4 1.4 1.8.9 2.8m-4.8 2c-.3.9-1.3 1.4-2.2 1.1-.9-.3-1.4-1.3-1.1-2.2s1.3-1.4 2.2-1.1c.9.3 1.4 1.3 1.1 2.2m-3.7 2.3c-.1.8-.9 1.3-1.7 1.2-.8-.1-1.3-.9-1.2-1.6.1-.8.9-1.3 1.7-1.2.8.1 1.3.9 1.2 1.6" fill="#5ac4bc"/><path d="M13.6 67.6c1.6-1.2 3.9-.8 5 .8 1.2 1.6.8 3.9-.8 5-1.6 1.2-3.9.8-5-.8-1.2-1.5-.9-3.8.8-5m8.3 1.2c1.2-1.2 3.1-1.2 4.3 0s1.2 3.1 0 4.3c-1.2 1.2-3.1 1.2-4.3 0-1.3-1.2-1.3-3.2 0-4.3m11.3 2.5c-.8 1.1-2.4 1.4-3.6.6-1.1-.8-1.4-2.4-.6-3.5.8-1.1 2.4-1.4 3.5-.6 1.3.8 1.7 2.4.7 3.5m5.7-2.4c-.5 1-1.8 1.5-2.9.9-1-.5-1.5-1.8-.9-2.8.5-1 1.8-1.5 2.8-.9 1.1.5 1.5 1.8 1 2.8m4.3-2.8c-.3.9-1.3 1.4-2.2 1.1-.9-.3-1.4-1.3-1.1-2.2.3-.9 1.3-1.4 2.2-1.1.9.3 1.4 1.3 1.1 2.2m3.2-3c-.1.8-.9 1.3-1.6 1.2-.8-.1-1.3-.9-1.2-1.6.1-.8.9-1.3 1.7-1.2.7.1 1.2 1 1.1 1.6" fill="#c54d58"/><path d="M38.8 8.9c.6 1.9-.4 3.9-2.3 4.5s-3.9-.4-4.5-2.3c-.6-1.9.4-3.9 2.3-4.5 1.9-.6 3.9.4 4.5 2.3m-3.6 7.6c.8 1.5.2 3.3-1.3 4.1s-3.3.2-4.1-1.3-.2-3.3 1.3-4.1c1.4-.8 3.2-.2 4.1 1.3m-2 7.2c.8 1.1.6 2.7-.6 3.5-1.1.8-2.7.6-3.5-.6-.8-1.1-.6-2.7.6-3.5 1.2-.9 2.7-.6 3.5.6m-.5 6c.8.8.8 2.2 0 3-.8.8-2.2.8-3 0s-.8-2.2 0-3c.9-.8 2.2-.8 3 0m.3 5.2c.8.6 1 1.7.4 2.4-.6.8-1.7 1-2.4.4-.8-.6-.9-1.7-.4-2.4.7-.8 1.7-1.1 2.4-.4m1.2 4.1c.7.4 1 1.2.6 1.9s-1.2 1-1.9.6-1-1.2-.6-1.9c.2-.6 1.1-.8 1.9-.6" fill="#5ac4bc"/><path d="M63 83.8c.6 1.9-.4 3.9-2.3 4.5s-3.9-.4-4.5-2.3.4-3.9 2.3-4.5 3.9.3 4.5 2.3m2.2-8.2c.8 1.5.2 3.3-1.3 4.1-1.5.8-3.3.2-4.1-1.3-.8-1.5-.2-3.3 1.3-4.1s3.4-.2 4.1 1.3m.6-7.3c.8 1.1.6 2.7-.6 3.5-1.1.8-2.7.6-3.5-.6-.8-1.1-.6-2.7.6-3.5 1-.8 2.6-.5 3.5.6m-.6-6c.8.8.8 2.2 0 3s-2.2.8-3 0-.8-2.2 0-3c1-.8 2.2-.8 3 0m-1.3-5c.8.6 1 1.7.4 2.4-.6.8-1.7 1-2.4.4-.8-.6-1-1.7-.4-2.4.5-.8 1.7-.9 2.4-.4m-1.7-3.9c.7.4 1 1.2.6 1.9s-1.2 1-1.9.6-1-1.2-.6-1.9c.2-.7 1.1-1 1.9-.6" fill="#c54d58"/></svg>