<?xml version="1.0" encoding="utf-8"?>
<!-- Generator: Adobe Illustrator 24.0.3, SVG Export Plug-In . SVG Version: 6.00 Build 0)  -->
<svg version="1.1" id="Full_Colour" xmlns="http://www.w3.org/2000/svg" xmlns:xlink="http://www.w3.org/1999/xlink" x="0px"
	 y="0px" viewBox="0 0 322 103" style="enable-background:new 0 0 322 103;" xml:space="preserve">
<style type="text/css">
	.st0{fill:#566471;}
	.st1{fill:#A3CD3D;}
	.st2{fill:#C54D58;}
	.st3{fill:#5AC4BC;}
</style>
<g>
	<path class="st0" d="M79.2,19.8c-1.2,1.6-3.4,2-5,0.8s-2-3.4-0.8-5s3.4-2,5-0.8C80,15.9,80.4,18.2,79.2,19.8"/>
	<path class="st0" d="M65.5,18.6c0.8-1.5,2.6-2.1,4.1-1.3s2.1,2.6,1.3,4.1c-0.8,1.5-2.6,2.1-4.1,1.3C65.3,21.9,64.7,20.1,65.5,18.6"
		/>
	<path class="st0" d="M64.1,24c-0.4,1.3-1.9,2.1-3.2,1.6c-1.3-0.4-2.1-1.9-1.6-3.2c0.4-1.3,1.9-2.1,3.2-1.6
		C63.8,21.2,64.5,22.7,64.1,24"/>
	<path class="st0" d="M58.8,27.1c-0.2,1.2-1.3,1.9-2.4,1.8c-1.1-0.2-1.9-1.3-1.8-2.4c0.2-1.2,1.3-1.9,2.4-1.8
		C58.2,24.8,59,25.9,58.8,27.1"/>
	<path class="st0" d="M54.9,30.5c0,1-0.8,1.7-1.8,1.7s-1.8-0.8-1.8-1.7c0-1,0.8-1.7,1.8-1.7C54.1,28.7,54.9,29.5,54.9,30.5"/>
	<path class="st0" d="M52.1,33.8c0.1,0.8-0.4,1.5-1.2,1.6c-0.8,0.1-1.5-0.4-1.6-1.2s0.4-1.5,1.2-1.6C51.2,32.5,52,33,52.1,33.8"/>
	<path class="st1" d="M32.9,83.5c-1.2,1.6-3.4,2-5,0.8s-2-3.4-0.8-5s3.4-2,5-0.8C33.7,79.6,34.1,81.9,32.9,83.5"/>
	<path class="st1" d="M35.3,77.7c0.8-1.5,2.6-2.1,4.1-1.3c1.5,0.8,2.1,2.6,1.3,4.1c-0.8,1.5-2.6,2.1-4.1,1.3
		C35.2,81.1,34.6,79.2,35.3,77.7"/>
	<path class="st1" d="M47,76.6c-0.4,1.3-1.9,2.1-3.2,1.6c-1.3-0.4-2.1-1.9-1.6-3.2c0.4-1.3,1.9-2.1,3.2-1.6S47.4,75.3,47,76.6"/>
	<path class="st1" d="M51.6,72.6c-0.2,1.2-1.3,1.9-2.4,1.8c-1.2-0.2-1.9-1.3-1.8-2.4c0.2-1.2,1.3-1.9,2.4-1.8
		C51,70.4,51.8,71.5,51.6,72.6"/>
	<path class="st1" d="M54.9,68.6c0,1-0.8,1.7-1.8,1.7s-1.8-0.8-1.8-1.7c0-1,0.8-1.7,1.8-1.7C54.1,66.8,54.9,67.6,54.9,68.6"/>
	<path class="st1" d="M57,64.8c0.1,0.8-0.4,1.5-1.2,1.6c-0.8,0.1-1.5-0.4-1.6-1.2c-0.1-0.8,0.4-1.5,1.2-1.6
		C56.2,63.5,56.9,64,57,64.8"/>
	<path class="st1" d="M16.8,33.9c1.9,0.6,2.9,2.7,2.3,4.6c-0.6,1.9-2.7,2.9-4.5,2.3c-1.9-0.6-2.9-2.7-2.3-4.5
		C12.9,34.4,14.9,33.3,16.8,33.9"/>
	<path class="st1" d="M20.8,41.3c1.7,0.3,2.8,1.8,2.5,3.5s-1.8,2.8-3.5,2.5s-2.8-1.8-2.5-3.5C17.6,42.2,19.2,41.1,20.8,41.3"/>
	<path class="st1" d="M25.5,47c1.4,0,2.5,1.1,2.5,2.5S26.9,52,25.5,52S23,50.9,23,49.5C22.9,48.1,24.1,47,25.5,47"/>
	<path class="st1" d="M30,51c1.2-0.2,2.2,0.6,2.4,1.8c0.2,1.2-0.6,2.2-1.8,2.4c-1.2,0.2-2.2-0.6-2.4-1.8C28.1,52.3,28.9,51.2,30,51"
		/>
	<path class="st1" d="M34.5,53.8c0.9-0.3,1.9,0.2,2.2,1.1s-0.2,1.9-1.1,2.2c-0.9,0.3-1.9-0.2-2.2-1.1C33,55,33.6,54.1,34.5,53.8"/>
	<path class="st1" d="M38.5,55.4c0.7-0.4,1.6-0.1,1.9,0.6c0.4,0.7,0.1,1.6-0.6,1.9c-0.7,0.4-1.6,0.1-1.9-0.6
		C37.5,56.6,37.8,55.7,38.5,55.4"/>
	<path class="st0" d="M91.7,58.3c1.9,0.6,2.9,2.6,2.3,4.5s-2.7,2.9-4.5,2.3c-1.9-0.6-2.9-2.7-2.3-4.6C87.8,58.7,89.8,57.6,91.7,58.3
		"/>
	<path class="st0" d="M86.4,51.7c1.7,0.3,2.8,1.8,2.5,3.5s-1.8,2.8-3.5,2.5s-2.8-1.8-2.5-3.5C83.2,52.6,84.8,51.5,86.4,51.7"/>
	<path class="st0" d="M80.8,47c1.4,0,2.5,1.1,2.5,2.5S82.2,52,80.8,52s-2.5-1.1-2.5-2.5S79.4,47,80.8,47"/>
	<path class="st0" d="M75.6,43.8c1.2-0.2,2.2,0.6,2.4,1.8c0.2,1.2-0.6,2.2-1.8,2.4c-1.2,0.2-2.2-0.6-2.4-1.8
		C73.6,45.1,74.4,44,75.6,43.8"/>
	<path class="st0" d="M70.7,42c0.9-0.3,1.9,0.2,2.2,1.1c0.3,0.9-0.2,1.9-1.1,2.2c-0.9,0.3-1.9-0.2-2.2-1.1
		C69.3,43.3,69.8,42.3,70.7,42"/>
	<path class="st0" d="M66.5,41.1c0.7-0.4,1.6-0.1,1.9,0.6c0.4,0.7,0.1,1.6-0.6,1.9c-0.7,0.4-1.6,0.1-1.9-0.6
		C65.5,42.4,65.7,41.5,66.5,41.1"/>
	<path class="st0" d="M32.9,15.6c1.2,1.6,0.8,3.9-0.8,5c-1.6,1.2-3.9,0.8-5-0.8c-1.2-1.6-0.8-3.9,0.8-5C29.5,13.6,31.8,14,32.9,15.6
		"/>
	<path class="st0" d="M31.8,23.9c1.2,1.2,1.2,3.1,0,4.3s-3.1,1.2-4.3,0s-1.2-3.1,0-4.3S30.6,22.7,31.8,23.9"/>
	<path class="st0" d="M32.2,31.2c1.1,0.8,1.4,2.4,0.6,3.5c-0.8,1.1-2.4,1.4-3.5,0.6c-1.1-0.8-1.4-2.4-0.6-3.5
		C29.5,30.6,31.1,30.4,32.2,31.2"/>
	<path class="st0" d="M33.6,37.2c1,0.5,1.5,1.8,0.9,2.8c-0.5,1-1.8,1.5-2.8,0.9c-1-0.5-1.5-1.8-0.9-2.8
		C31.2,37.1,32.5,36.6,33.6,37.2"/>
	<path class="st0" d="M35.5,42c0.9,0.3,1.4,1.3,1.1,2.2c-0.3,0.9-1.3,1.4-2.2,1.1C33.6,45,33,44,33.3,43.1S34.6,41.7,35.5,42"/>
	<path class="st0" d="M37.9,45.7c0.8,0.1,1.3,0.9,1.2,1.7c-0.1,0.8-0.9,1.3-1.6,1.2c-0.8-0.1-1.3-0.9-1.2-1.6
		C36.4,46.1,37.1,45.5,37.9,45.7"/>
	<path class="st1" d="M79.2,79.2c1.2,1.6,0.8,3.9-0.8,5c-1.6,1.2-3.9,0.8-5-0.8c-1.2-1.6-0.8-3.9,0.8-5C75.8,77.3,78,77.6,79.2,79.2
		"/>
	<path class="st1" d="M78.8,70.9c1.2,1.2,1.2,3.1,0,4.3c-1.2,1.2-3.1,1.2-4.3,0c-1.2-1.2-1.2-3.1,0-4.3S77.6,69.7,78.8,70.9"/>
	<path class="st1" d="M77,63.7c1.1,0.8,1.4,2.4,0.6,3.5s-2.4,1.4-3.5,0.6s-1.4-2.4-0.6-3.5S75.9,62.9,77,63.7"/>
	<path class="st1" d="M74.6,58.1c1,0.5,1.5,1.8,0.9,2.8c-0.5,1-1.8,1.5-2.8,0.9c-1-0.5-1.5-1.8-0.9-2.8C72.3,58,73.6,57.6,74.6,58.1
		"/>
	<path class="st1" d="M71.8,53.8c0.9,0.3,1.4,1.3,1.1,2.2c-0.3,0.9-1.3,1.4-2.2,1.1c-0.9-0.3-1.4-1.3-1.1-2.2
		C69.9,54,70.9,53.5,71.8,53.8"/>
	<path class="st1" d="M68.9,50.6c0.8,0.1,1.3,0.9,1.2,1.6c-0.1,0.8-0.9,1.3-1.6,1.2c-0.8-0.1-1.3-0.9-1.2-1.7
		C67.3,51,68.1,50.4,68.9,50.6"/>
	<path class="st1" d="M89.5,33.9c1.9-0.6,3.9,0.4,4.5,2.3c0.6,1.9-0.4,3.9-2.3,4.5s-3.9-0.4-4.5-2.3C86.5,36.6,87.6,34.6,89.5,33.9"
		/>
	<path class="st1" d="M81.3,31.7c1.5-0.8,3.3-0.2,4.1,1.3c0.8,1.5,0.2,3.3-1.3,4.1s-3.3,0.2-4.1-1.3C79.2,34.3,79.8,32.5,81.3,31.7"
		/>
	<path class="st1" d="M74,31.2c1.1-0.8,2.7-0.6,3.5,0.6c0.8,1.1,0.6,2.7-0.6,3.5c-1.1,0.8-2.7,0.6-3.5-0.6
		C72.6,33.6,72.9,32,74,31.2"/>
	<path class="st1" d="M67.9,31.7c0.8-0.8,2.2-0.8,3,0s0.8,2.2,0,3s-2.2,0.8-3,0S67.1,32.6,67.9,31.7"/>
	<path class="st1" d="M65.8,35.1c-0.6,0.8-1.7,1-2.4,0.4c-0.8-0.6-1-1.7-0.4-2.4c0.6-0.8,1.7-1,2.4-0.4
		C66.2,33.3,66.3,34.4,65.8,35.1"/>
	<path class="st1" d="M61.5,36.2c-0.4,0.7-1.2,1-1.9,0.6c-0.7-0.4-1-1.2-0.6-1.9s1.2-1,1.9-0.6C61.6,34.6,61.9,35.5,61.5,36.2"/>
	<path class="st0" d="M14.6,58.3c1.9-0.6,3.9,0.4,4.5,2.3s-0.4,3.9-2.3,4.6c-1.9,0.6-3.9-0.4-4.5-2.3C11.7,60.9,12.7,58.9,14.6,58.3
		"/>
	<path class="st0" d="M22.2,61.9c1.5-0.8,3.3-0.2,4.1,1.3s0.2,3.3-1.3,4.1c-1.5,0.8-3.3,0.2-4.1-1.3C20.1,64.5,20.7,62.7,22.2,61.9"
		/>
	<path class="st0" d="M29.3,63.7c1.1-0.8,2.7-0.6,3.5,0.6c0.8,1.1,0.6,2.7-0.6,3.5c-1.1,0.8-2.7,0.6-3.5-0.6
		C27.9,66.2,28.1,64.6,29.3,63.7"/>
	<path class="st0" d="M35.3,64.3c0.8-0.8,2.2-0.8,3,0s0.8,2.2,0,3s-2.2,0.8-3,0C34.5,66.5,34.5,65.2,35.3,64.3"/>
	<path class="st0" d="M43.3,66c-0.6,0.8-1.7,1-2.4,0.4c-0.8-0.6-1-1.7-0.4-2.4c0.6-0.8,1.7-1,2.4-0.4C43.7,64.1,43.9,65.2,43.3,66"
		/>
	<path class="st0" d="M47.3,64.2c-0.4,0.7-1.2,1-1.9,0.6c-0.7-0.4-1-1.2-0.6-1.9c0.4-0.7,1.2-1,1.9-0.6
		C47.4,62.6,47.7,63.4,47.3,64.2"/>
	<path class="st1" d="M56.8,10.2c0,2-1.6,3.6-3.6,3.6s-3.6-1.6-3.6-3.6s1.6-3.6,3.6-3.6C55.1,6.6,56.8,8.2,56.8,10.2"/>
	<path class="st1" d="M44.9,17.2c-0.3-1.7,0.9-3.2,2.5-3.5c1.7-0.3,3.2,0.9,3.5,2.5c0.3,1.7-0.9,3.2-2.5,3.5S45.2,18.9,44.9,17.2"/>
	<path class="st1" d="M47,22.4c0.4,1.3-0.3,2.8-1.6,3.2c-1.3,0.4-2.8-0.3-3.2-1.6c-0.4-1.3,0.3-2.8,1.6-3.2S46.6,21.1,47,22.4"/>
	<path class="st1" d="M44.6,28c0.5,1,0.1,2.3-0.9,2.9c-1,0.5-2.3,0.1-2.8-0.9s-0.1-2.3,0.9-2.8C42.8,26.6,44,27,44.6,28"/>
	<path class="st1" d="M43.3,33.1c0.6,0.8,0.4,1.9-0.4,2.4c-0.8,0.6-1.9,0.4-2.4-0.4c-0.6-0.8-0.4-1.9,0.4-2.4
		C41.7,32.1,42.8,32.3,43.3,33.1"/>
	<path class="st1" d="M43.1,37.4c0.6,0.6,0.6,1.5,0,2c-0.6,0.6-1.5,0.6-2,0c-0.6-0.6-0.6-1.5,0-2C41.6,36.9,42.5,36.9,43.1,37.4"/>
	<path class="st0" d="M56.8,88.9c0,2-1.6,3.6-3.6,3.6s-3.6-1.6-3.6-3.6s1.6-3.6,3.6-3.6C55.1,85.3,56.8,86.9,56.8,88.9"/>
	<path class="st0" d="M55.3,82.8c-0.3-1.7,0.9-3.2,2.5-3.5c1.7-0.3,3.2,0.9,3.5,2.5c0.3,1.7-0.9,3.2-2.5,3.5
		C57.1,85.6,55.6,84.5,55.3,82.8"/>
	<path class="st0" d="M64.1,75.1c0.4,1.3-0.3,2.8-1.6,3.2c-1.3,0.4-2.8-0.3-3.2-1.6c-0.4-1.3,0.3-2.8,1.6-3.2
		C62.2,73,63.7,73.7,64.1,75.1"/>
	<path class="st0" d="M65.5,69.1c0.5,1,0.1,2.3-0.9,2.8S62.3,72,61.7,71c-0.5-1-0.1-2.3,0.9-2.8C63.7,67.7,65,68.1,65.5,69.1"/>
	<path class="st0" d="M65.8,63.9c0.6,0.8,0.4,1.9-0.4,2.4c-0.8,0.6-1.9,0.4-2.4-0.4c-0.6-0.8-0.4-1.9,0.4-2.4
		C64.1,63,65.2,63.1,65.8,63.9"/>
	<path class="st0" d="M65.2,59.6c0.6,0.6,0.6,1.5,0,2c-0.6,0.6-1.5,0.6-2,0c-0.6-0.6-0.6-1.5,0-2C63.8,59,64.7,59,65.2,59.6"/>
	<path class="st2" d="M68.7,13.2c-0.6,1.9-2.7,2.9-4.6,2.3c-1.9-0.6-2.9-2.7-2.3-4.5c0.6-1.9,2.6-2.9,4.5-2.3
		C68.3,9.3,69.4,11.3,68.7,13.2"/>
	<path class="st2" d="M55.3,16.3c0.3-1.7,1.8-2.8,3.5-2.5s2.8,1.8,2.5,3.5s-1.8,2.8-3.5,2.5C56.2,19.5,55.1,17.9,55.3,16.3"/>
	<path class="st2" d="M55.7,21.9c0,1.4-1.1,2.5-2.5,2.5s-2.5-1.1-2.5-2.5s1.1-2.5,2.5-2.5C54.5,19.3,55.7,20.5,55.7,21.9"/>
	<path class="st2" d="M51.6,26.4c0.2,1.2-0.6,2.2-1.8,2.4c-1.2,0.2-2.2-0.6-2.4-1.8c-0.2-1.2,0.6-2.2,1.8-2.4
		C50.4,24.5,51.4,25.3,51.6,26.4"/>
	<path class="st2" d="M48.9,30.9c0.3,0.9-0.2,1.9-1.1,2.2s-1.9-0.2-2.2-1.1c-0.3-0.9,0.2-1.9,1.1-2.2C47.6,29.4,48.6,29.9,48.9,30.9
		"/>
	<path class="st2" d="M47.3,34.9c0.4,0.7,0.1,1.6-0.6,1.9c-0.7,0.4-1.6,0.1-1.9-0.6c-0.4-0.7-0.1-1.6,0.6-1.9
		C46.1,33.9,46.9,34.2,47.3,34.9"/>
	<path class="st3" d="M44.4,88.1c-0.6,1.9-2.7,2.9-4.6,2.3s-2.9-2.7-2.3-4.5c0.6-1.9,2.7-2.9,4.5-2.3C44,84.1,45,86.2,44.4,88.1"/>
	<path class="st3" d="M44.9,81.9c0.3-1.7,1.8-2.8,3.5-2.5s2.8,1.8,2.5,3.5s-1.8,2.8-3.5,2.5C45.8,85.1,44.7,83.5,44.9,81.9"/>
	<path class="st3" d="M55.7,77.2c0,1.4-1.1,2.5-2.5,2.5s-2.5-1.1-2.5-2.5s1.1-2.5,2.5-2.5C54.5,74.7,55.7,75.8,55.7,77.2"/>
	<path class="st3" d="M58.8,72c0.2,1.2-0.6,2.2-1.8,2.4c-1.2,0.2-2.2-0.6-2.4-1.8c-0.2-1.2,0.6-2.2,1.8-2.4
		C57.6,70,58.7,70.8,58.8,72"/>
	<path class="st3" d="M60.7,67.1c0.3,0.9-0.2,1.9-1.1,2.2c-0.9,0.3-1.9-0.2-2.2-1.1c-0.3-0.9,0.2-1.9,1.1-2.2
		C59.4,65.7,60.4,66.2,60.7,67.1"/>
	<path class="st3" d="M61.5,62.8c0.4,0.7,0.1,1.6-0.6,1.9c-0.7,0.4-1.6,0.1-1.9-0.6c-0.4-0.7-0.1-1.6,0.6-1.9
		C60.3,61.9,61.2,62.1,61.5,62.8"/>
	<path class="st3" d="M13.8,45.9c2,0,3.6,1.6,3.6,3.6s-1.6,3.6-3.6,3.6s-3.6-1.6-3.6-3.6S11.8,45.9,13.8,45.9"/>
	<path class="st3" d="M19.9,51.7c1.7-0.3,3.2,0.9,3.5,2.5c0.3,1.7-0.9,3.2-2.5,3.5c-1.7,0.3-3.2-0.9-3.5-2.5
		C17.1,53.5,18.2,52,19.9,51.7"/>
	<path class="st3" d="M26,55.7c1.3-0.4,2.8,0.3,3.2,1.6c0.4,1.3-0.3,2.8-1.6,3.2c-1.3,0.4-2.8-0.3-3.2-1.6
		C24,57.5,24.7,56.1,26,55.7"/>
	<path class="st3" d="M31.6,58.1c1-0.5,2.3-0.1,2.8,0.9s0.1,2.3-0.9,2.8s-2.3,0.1-2.8-0.9C30.2,59.9,30.6,58.6,31.6,58.1"/>
	<path class="st3" d="M36.7,59.3c0.8-0.6,1.9-0.4,2.4,0.4c0.6,0.8,0.4,1.9-0.4,2.4c-0.8,0.6-1.9,0.4-2.4-0.4
		C35.7,61,35.9,59.9,36.7,59.3"/>
	<path class="st3" d="M41,59.6c0.6-0.6,1.5-0.6,2,0c0.6,0.6,0.6,1.5,0,2c-0.6,0.6-1.5,0.6-2,0C40.5,61.1,40.5,60.2,41,59.6"/>
	<path class="st2" d="M92.5,45.9c2,0,3.6,1.6,3.6,3.6s-1.6,3.6-3.6,3.6s-3.6-1.6-3.6-3.6S90.5,45.9,92.5,45.9"/>
	<path class="st2" d="M85.5,41.3c1.7-0.3,3.2,0.9,3.5,2.5c0.3,1.7-0.9,3.2-2.5,3.5c-1.7,0.3-3.2-0.9-3.5-2.5
		C82.7,43.2,83.8,41.6,85.5,41.3"/>
	<path class="st2" d="M78.7,38.6c1.3-0.4,2.8,0.3,3.2,1.6c0.4,1.3-0.3,2.8-1.6,3.2c-1.3,0.4-2.8-0.3-3.2-1.6
		C76.6,40.4,77.3,39,78.7,38.6"/>
	<path class="st2" d="M72.7,37.2c1-0.5,2.3-0.1,2.8,0.9c0.5,1,0.1,2.3-0.9,2.8S72.3,41,71.8,40C71.3,39,71.7,37.7,72.7,37.2"/>
	<path class="st2" d="M67.5,36.9c0.8-0.6,1.9-0.4,2.4,0.4c0.6,0.8,0.4,1.9-0.4,2.4c-0.8,0.6-1.9,0.4-2.4-0.4
		C66.6,38.6,66.8,37.5,67.5,36.9"/>
	<path class="st2" d="M63.2,37.4c0.6-0.6,1.5-0.6,2,0c0.6,0.6,0.6,1.5,0,2c-0.6,0.6-1.5,0.6-2,0C62.6,38.9,62.6,38,63.2,37.4"/>
	<path class="st2" d="M23.4,23.5c1.6,1.2,2,3.4,0.8,5s-3.4,2-5,0.8s-2-3.4-0.8-5C19.5,22.7,21.8,22.3,23.4,23.5"/>
	<path class="st2" d="M24.9,31.7c1.5,0.8,2.1,2.6,1.3,4.1s-2.6,2.1-4.1,1.3S20,34.5,20.8,33C21.6,31.6,23.4,31,24.9,31.7"/>
	<path class="st2" d="M27.6,38.6c1.3,0.4,2.1,1.9,1.6,3.2c-0.4,1.3-1.9,2.1-3.2,1.6c-1.3-0.4-2.1-1.9-1.6-3.2
		C24.8,38.9,26.3,38.1,27.6,38.6"/>
	<path class="st2" d="M30.7,43.8c1.2,0.2,1.9,1.3,1.8,2.4c-0.2,1.2-1.3,1.9-2.4,1.8c-1.1-0.2-1.9-1.3-1.8-2.4
		C28.5,44.4,29.5,43.6,30.7,43.8"/>
	<path class="st2" d="M34.1,47.8c1,0,1.7,0.8,1.7,1.7s-0.8,1.7-1.7,1.7c-1,0-1.8-0.8-1.8-1.7S33.1,47.8,34.1,47.8"/>
	<path class="st2" d="M37.4,50.6c0.8-0.1,1.5,0.4,1.6,1.2c0.1,0.8-0.4,1.5-1.2,1.7c-0.8,0.1-1.5-0.4-1.6-1.2
		C36.1,51.4,36.6,50.7,37.4,50.6"/>
	<path class="st3" d="M87.1,69.7c1.6,1.2,2,3.4,0.8,5s-3.4,2-5,0.8s-2-3.4-0.8-5C83.2,68.9,85.5,68.6,87.1,69.7"/>
	<path class="st3" d="M84.1,61.9c1.5,0.8,2.1,2.6,1.3,4.1c-0.8,1.5-2.6,2.1-4.1,1.3c-1.5-0.8-2.1-2.6-1.3-4.1
		C80.8,61.7,82.6,61.1,84.1,61.9"/>
	<path class="st3" d="M80.2,55.7c1.3,0.4,2.1,1.9,1.6,3.2c-0.4,1.3-1.9,2.1-3.2,1.6c-1.3-0.4-2.1-1.9-1.6-3.2S78.9,55.2,80.2,55.7"
		/>
	<path class="st3" d="M76.2,51c1.2,0.2,1.9,1.3,1.8,2.4c-0.2,1.2-1.3,1.9-2.4,1.8c-1.2-0.2-1.9-1.3-1.8-2.4
		C74,51.7,75.1,50.9,76.2,51"/>
	<path class="st3" d="M72.2,47.8c1,0,1.7,0.8,1.7,1.7s-0.8,1.7-1.7,1.7c-1,0-1.7-0.8-1.7-1.7S71.2,47.8,72.2,47.8"/>
	<path class="st3" d="M68.4,45.7c0.8-0.1,1.5,0.4,1.6,1.2c0.1,0.8-0.4,1.5-1.2,1.6c-0.8,0.1-1.5-0.4-1.6-1.2
		C67.1,46.5,67.6,45.8,68.4,45.7"/>
	<path class="st3" d="M82.9,23.5c1.6-1.2,3.9-0.8,5,0.8c1.2,1.6,0.8,3.9-0.8,5c-1.6,1.2-3.9,0.8-5-0.8
		C80.9,26.9,81.2,24.7,82.9,23.5"/>
	<path class="st3" d="M74.5,23.9c1.2-1.2,3.1-1.2,4.3,0c1.2,1.2,1.2,3.1,0,4.3s-3.1,1.2-4.3,0C73.3,27,73.3,25.1,74.5,23.9"/>
	<path class="st3" d="M71.5,28.6c-0.8,1.1-2.4,1.4-3.5,0.6c-1.1-0.8-1.4-2.4-0.6-3.5s2.4-1.4,3.5-0.6S72.3,27.5,71.5,28.6"/>
	<path class="st3" d="M65.5,29.9c-0.5,1-1.8,1.5-2.8,0.9c-1-0.5-1.5-1.8-0.9-2.8c0.5-1,1.8-1.5,2.8-0.9C65.6,27.6,66,28.9,65.5,29.9
		"/>
	<path class="st3" d="M60.7,31.9c-0.3,0.9-1.3,1.4-2.2,1.1c-0.9-0.3-1.4-1.3-1.1-2.2s1.3-1.4,2.2-1.1C60.5,30,61,31,60.7,31.9"/>
	<path class="st3" d="M57,34.3c-0.1,0.8-0.9,1.3-1.7,1.2c-0.8-0.1-1.3-0.9-1.2-1.6c0.1-0.8,0.9-1.3,1.7-1.2
		C56.6,32.7,57.1,33.5,57,34.3"/>
	<path class="st2" d="M19.2,69.7c1.6-1.2,3.9-0.8,5,0.8c1.2,1.6,0.8,3.9-0.8,5c-1.6,1.2-3.9,0.8-5-0.8
		C17.2,73.2,17.6,70.9,19.2,69.7"/>
	<path class="st2" d="M27.5,70.9c1.2-1.2,3.1-1.2,4.3,0s1.2,3.1,0,4.3c-1.2,1.2-3.1,1.2-4.3,0C26.3,74,26.3,72,27.5,70.9"/>
	<path class="st2" d="M38.9,73.4c-0.8,1.1-2.4,1.4-3.6,0.6c-1.1-0.8-1.4-2.4-0.6-3.5c0.8-1.1,2.4-1.4,3.5-0.6
		C39.5,70.7,39.8,72.3,38.9,73.4"/>
	<path class="st2" d="M44.6,71c-0.5,1-1.8,1.5-2.9,0.9c-1-0.5-1.5-1.8-0.9-2.8c0.5-1,1.8-1.5,2.8-0.9C44.7,68.7,45.1,70,44.6,71"/>
	<path class="st2" d="M48.9,68.2c-0.3,0.9-1.3,1.4-2.2,1.1c-0.9-0.3-1.4-1.3-1.1-2.2c0.3-0.9,1.3-1.4,2.2-1.1S49.2,67.3,48.9,68.2"
		/>
	<path class="st2" d="M52.1,65.2c-0.1,0.8-0.9,1.3-1.6,1.2c-0.8-0.1-1.3-0.9-1.2-1.6c0.1-0.8,0.9-1.3,1.7-1.2
		C51.7,63.7,52.2,64.5,52.1,65.2"/>
	<path class="st3" d="M44.4,11c0.6,1.9-0.4,3.9-2.3,4.5s-3.9-0.4-4.5-2.3C37,11.3,38,9.3,39.9,8.7C41.8,8.1,43.8,9.1,44.4,11"/>
	<path class="st3" d="M40.8,18.6c0.8,1.5,0.2,3.3-1.3,4.1s-3.3,0.2-4.1-1.3s-0.2-3.3,1.3-4.1C38.2,16.5,40,17.1,40.8,18.6"/>
	<path class="st3" d="M38.9,25.7c0.8,1.1,0.6,2.7-0.6,3.5c-1.1,0.8-2.7,0.6-3.5-0.6c-0.8-1.1-0.6-2.7,0.6-3.5
		C36.5,24.3,38.1,24.5,38.9,25.7"/>
	<path class="st3" d="M38.3,31.7c0.8,0.8,0.8,2.2,0,3s-2.2,0.8-3,0s-0.8-2.2,0-3C36.2,30.9,37.5,30.9,38.3,31.7"/>
	<path class="st3" d="M38.7,36.9c0.8,0.6,1,1.7,0.4,2.4c-0.6,0.8-1.7,1-2.4,0.4c-0.8-0.6-0.9-1.7-0.4-2.4
		C36.9,36.5,38,36.3,38.7,36.9"/>
	<path class="st3" d="M39.8,41.1c0.7,0.4,1,1.2,0.6,1.9c-0.4,0.7-1.2,1-1.9,0.6c-0.7-0.4-1-1.2-0.6-1.9C38.2,41,39.1,40.8,39.8,41.1
		"/>
	<path class="st2" d="M68.7,85.8c0.6,1.9-0.4,3.9-2.3,4.5s-3.9-0.4-4.5-2.3s0.4-3.9,2.3-4.5S68.1,83.9,68.7,85.8"/>
	<path class="st2" d="M70.9,77.7c0.8,1.5,0.2,3.3-1.3,4.1c-1.5,0.8-3.3,0.2-4.1-1.3c-0.8-1.5-0.2-3.3,1.3-4.1S70.2,76.2,70.9,77.7"
		/>
	<path class="st2" d="M71.5,70.4c0.8,1.1,0.6,2.7-0.6,3.5c-1.1,0.8-2.7,0.6-3.5-0.6c-0.8-1.1-0.6-2.7,0.6-3.5
		C69,69,70.6,69.3,71.5,70.4"/>
	<path class="st2" d="M70.9,64.3c0.8,0.8,0.8,2.2,0,3s-2.2,0.8-3,0s-0.8-2.2,0-3C68.8,63.5,70.1,63.5,70.9,64.3"/>
	<path class="st2" d="M69.6,59.3c0.8,0.6,1,1.7,0.4,2.4c-0.6,0.8-1.7,1-2.4,0.4c-0.8-0.6-1-1.7-0.4-2.4
		C67.7,58.9,68.8,58.8,69.6,59.3"/>
	<path class="st2" d="M67.8,55.4c0.7,0.4,1,1.2,0.6,1.9c-0.4,0.7-1.2,1-1.9,0.6c-0.7-0.4-1-1.2-0.6-1.9C66.2,55.3,67.1,55,67.8,55.4
		"/>
</g>
<path class="st0" d="M138.5,33.9c-0.8-0.5-1.8-0.7-2.8-0.7c-3,0-4.4,1.9-4.4,5.6v4.1h6.2v3.6h-6.2v22.8h-4.2V46.5h-4.5v-3.6h4.5
	v-4.3c0-2.8,0.8-5,2.4-6.6c1.6-1.6,3.6-2.4,6-2.4c1.3,0,2.3,0.2,3.1,0.5v3.8H138.5z M144.2,36.1c-0.8,0-1.4-0.3-1.9-0.8
	s-0.8-1.2-0.8-2s0.3-1.5,0.8-2s1.2-0.8,1.9-0.8c0.8,0,1.4,0.3,2,0.8c0.5,0.5,0.8,1.2,0.8,2s-0.3,1.4-0.8,1.9
	C145.6,35.9,145,36.1,144.2,36.1z M146.3,69.3H142V42.9h4.2v26.4H146.3z M177.4,67.2c0,9.7-4.6,14.6-13.9,14.6
	c-3.3,0-6.1-0.6-8.6-1.9v-4.2c3,1.7,5.8,2.5,8.5,2.5c6.5,0,9.8-3.5,9.8-10.4v-2.9h-0.1c-2,3.4-5,5.1-9.1,5.1c-3.3,0-5.9-1.2-7.9-3.5
	s-3-5.5-3-9.5c0-4.5,1.1-8.1,3.2-10.7s5.1-4,8.9-4c3.6,0,6.2,1.4,7.9,4.3h0.1v-3.7h4.2L177.4,67.2L177.4,67.2z M173.2,57.3v-3.9
	c0-2.1-0.7-3.9-2.1-5.4c-1.4-1.5-3.2-2.2-5.3-2.2c-2.6,0-4.7,1-6.1,2.9c-1.5,1.9-2.2,4.6-2.2,8c0,2.9,0.7,5.3,2.1,7.1
	c1.4,1.8,3.3,2.6,5.6,2.6c2.4,0,4.3-0.8,5.8-2.5C172.4,62.1,173.2,60,173.2,57.3z M183.4,68.6V62c1.3,0.8,2.7,1.4,4,1.8
	s2.6,0.6,3.8,0.6c1.4,0,2.6-0.2,3.4-0.6c0.8-0.4,1.3-1,1.3-1.8c0-0.5-0.2-0.9-0.6-1.3c-0.4-0.3-0.9-0.6-1.5-0.9s-1.2-0.5-1.9-0.7
	s-1.4-0.4-2-0.7c-1.1-0.4-2-0.8-2.8-1.3s-1.5-1-2-1.6s-1-1.3-1.2-2.1c-0.3-0.8-0.4-1.7-0.4-2.8c0-1.5,0.3-2.8,1-3.8
	c0.6-1.1,1.5-1.9,2.6-2.6s2.3-1.2,3.7-1.5s2.8-0.5,4.3-0.5c1.2,0,2.4,0.1,3.6,0.3c1.2,0.2,2.4,0.4,3.6,0.8v6.3
	c-1-0.6-2.1-1.1-3.3-1.4s-2.3-0.5-3.5-0.5c-0.5,0-1,0-1.5,0.1s-0.9,0.2-1.3,0.4c-0.4,0.2-0.6,0.4-0.9,0.7c-0.2,0.3-0.3,0.6-0.3,1
	c0,0.5,0.2,0.9,0.5,1.2c0.3,0.3,0.7,0.6,1.2,0.9c0.5,0.2,1.1,0.5,1.7,0.7c0.6,0.2,1.2,0.4,1.8,0.6c1.1,0.4,2.1,0.8,2.9,1.2
	c0.9,0.4,1.6,1,2.3,1.6c0.6,0.6,1.1,1.3,1.4,2.1c0.3,0.8,0.5,1.8,0.5,2.9c0,1.6-0.3,2.9-1,4s-1.6,2-2.7,2.7
	c-1.1,0.7-2.4,1.2-3.9,1.5s-3,0.5-4.6,0.5C188.6,69.9,185.9,69.5,183.4,68.6z M233.8,69.3h-8.1v-15c0-3.9-1.4-5.8-4.2-5.8
	c-1.4,0-2.6,0.5-3.5,1.6s-1.3,2.5-1.3,4.1v15.1h-8.2V30.2h8.2v16.6h0.1c2-3,4.7-4.6,8.1-4.6c6,0,9,3.6,9,10.8v16.3H233.8z
	 M262.2,69.3h-7.7v-3.8h-0.1c-1.8,3-4.4,4.4-7.9,4.4c-2.6,0-4.6-0.7-6.1-2.2s-2.2-3.4-2.2-5.8c0-5.1,3-8.1,9.1-8.9l7.2-1
	c0-2.9-1.6-4.3-4.7-4.3c-3.2,0-6.1,0.9-9,2.8v-6.1c1.1-0.6,2.7-1.1,4.7-1.5s3.8-0.7,5.4-0.7c7.5,0,11.3,3.8,11.3,11.3L262.2,69.3
	L262.2,69.3z M254.6,58.6v-1.8l-4.8,0.6c-2.7,0.3-4,1.5-4,3.6c0,0.9,0.3,1.7,1,2.3s1.5,0.9,2.6,0.9c1.5,0,2.8-0.5,3.7-1.6
	C254.1,61.5,254.6,60.2,254.6,58.6z M285.9,50.2c-1-0.5-2.1-0.8-3.4-0.8c-1.8,0-3.2,0.6-4.2,1.9s-1.5,3.1-1.5,5.3v12.6h-8.2V42.9
	h8.2v4.9h0.1c1.3-3.6,3.6-5.4,7-5.4c0.9,0,1.5,0.1,2,0.3V50.2z M313.5,58.4h-17.2c0.3,3.8,2.7,5.8,7.3,5.8c2.9,0,5.5-0.7,7.7-2.1V68
	c-2.4,1.3-5.6,2-9.5,2c-4.3,0-7.6-1.2-9.9-3.6c-2.4-2.4-3.5-5.7-3.5-9.9c0-4.4,1.3-7.9,3.8-10.4c2.5-2.6,5.7-3.8,9.4-3.8
	c3.9,0,6.8,1.1,8.9,3.4s3.2,5.4,3.2,9.3v3.4H313.5z M305.9,53.4c0-3.8-1.5-5.7-4.6-5.7c-1.3,0-2.4,0.5-3.4,1.6s-1.5,2.4-1.7,4.1
	H305.9z"/>
</svg>
