<?xml version="1.0" encoding="utf-8"?>
<!-- Generator: Adobe Illustrator 24.0.3, SVG Export Plug-In . SVG Version: 6.00 Build 0)  -->
<svg version="1.1" id="Full_Colour" xmlns="http://www.w3.org/2000/svg" xmlns:xlink="http://www.w3.org/1999/xlink" x="0px"
	 y="0px" viewBox="0 0 95 95" style="enable-background:new 0 0 95 95;" xml:space="preserve">
<style type="text/css">
	.st0{fill:#566471;}
	.st1{fill:#A3CD3D;}
	.st2{fill:#C54D58;}
	.st3{fill:#5AC4BC;}
</style>
<g>
	<path class="st0" d="M73.5,17.8c-1.2,1.6-3.4,2-5,0.8s-2-3.4-0.8-5s3.4-2,5-0.8C74.3,13.9,74.8,16.2,73.5,17.8"/>
	<path class="st0" d="M59.8,16.5c0.8-1.5,2.6-2.1,4.1-1.3c1.5,0.8,2.1,2.6,1.3,4.1c-0.8,1.5-2.6,2.1-4.1,1.3
		C59.7,19.9,59,18,59.8,16.5"/>
	<path class="st0" d="M58.4,22c-0.4,1.3-1.9,2.1-3.2,1.6c-1.3-0.4-2.1-1.9-1.6-3.2c0.4-1.3,1.9-2.1,3.2-1.6
		C58.2,19.2,58.8,20.7,58.4,22"/>
	<path class="st0" d="M53.2,25c-0.2,1.2-1.3,1.9-2.4,1.8c-1.1-0.2-1.9-1.3-1.8-2.4c0.2-1.2,1.3-1.9,2.4-1.8
		C52.5,22.8,53.3,23.9,53.2,25"/>
	<path class="st0" d="M49.2,28.5c0,1-0.8,1.7-1.8,1.7s-1.8-0.8-1.8-1.7c0-1,0.8-1.7,1.8-1.7C48.4,26.7,49.2,27.5,49.2,28.5"/>
	<path class="st0" d="M46.4,31.8c0.1,0.8-0.4,1.5-1.2,1.6c-0.8,0.1-1.5-0.4-1.6-1.2s0.4-1.5,1.2-1.6C45.5,30.5,46.3,31,46.4,31.8"/>
	<path class="st1" d="M27.3,81.4c-1.2,1.6-3.4,2-5,0.8s-2-3.4-0.8-5s3.4-2,5-0.8C28.1,77.5,28.4,79.8,27.3,81.4"/>
	<path class="st1" d="M29.6,75.6c0.8-1.5,2.6-2.1,4.1-1.3c1.5,0.8,2.1,2.6,1.3,4.1c-0.8,1.5-2.6,2.1-4.1,1.3
		C29.6,79,28.9,77.1,29.6,75.6"/>
	<path class="st1" d="M41.3,74.5c-0.4,1.3-1.9,2.1-3.2,1.6c-1.3-0.4-2.1-1.9-1.6-3.2c0.4-1.3,1.9-2.1,3.2-1.6S41.8,73.2,41.3,74.5"
		/>
	<path class="st1" d="M45.9,70.5c-0.2,1.2-1.3,1.9-2.4,1.8c-1.2-0.2-1.9-1.3-1.8-2.4c0.2-1.2,1.3-1.9,2.4-1.8
		C45.3,68.3,46.2,69.4,45.9,70.5"/>
	<path class="st1" d="M49.2,66.5c0,1-0.8,1.7-1.8,1.7s-1.8-0.8-1.8-1.7c0-1,0.8-1.7,1.8-1.7C48.4,64.8,49.2,65.5,49.2,66.5"/>
	<path class="st1" d="M51.3,62.8c0.1,0.8-0.4,1.5-1.2,1.6c-0.8,0.1-1.5-0.4-1.6-1.2c-0.1-0.8,0.4-1.5,1.2-1.6
		C50.5,61.5,51.2,62,51.3,62.8"/>
	<path class="st1" d="M11.1,31.9c1.9,0.6,2.9,2.7,2.3,4.6c-0.6,1.9-2.7,2.9-4.5,2.3C7,38.2,6,36.1,6.6,34.3
		C7.3,32.4,9.3,31.2,11.1,31.9"/>
	<path class="st1" d="M15.1,39.3c1.7,0.3,2.8,1.8,2.5,3.5s-1.8,2.8-3.5,2.5s-2.8-1.8-2.5-3.5C11.9,40.1,13.6,39,15.1,39.3"/>
	<path class="st1" d="M19.9,45c1.4,0,2.5,1.1,2.5,2.5S21.3,50,19.9,50s-2.5-1.1-2.5-2.5C17.3,46,18.4,45,19.9,45"/>
	<path class="st1" d="M24.4,49c1.2-0.2,2.2,0.6,2.4,1.8C27,52,26.2,53,25,53.2c-1.2,0.2-2.2-0.6-2.4-1.8
		C22.4,50.3,23.3,49.1,24.4,49"/>
	<path class="st1" d="M28.9,51.8c0.9-0.3,1.9,0.2,2.2,1.1S30.9,54.8,30,55c-0.9,0.3-1.9-0.2-2.2-1.1C27.4,53,27.9,52,28.9,51.8"/>
	<path class="st1" d="M32.8,53.4c0.7-0.4,1.6-0.1,1.9,0.6c0.4,0.7,0.1,1.6-0.6,1.9c-0.7,0.4-1.6,0.1-1.9-0.6
		C31.9,54.5,32.2,53.6,32.8,53.4"/>
	<path class="st0" d="M86,56.3c1.9,0.6,2.9,2.6,2.3,4.5s-2.7,2.9-4.5,2.3c-1.9-0.6-2.9-2.7-2.3-4.6C82.2,56.6,84.2,55.5,86,56.3"/>
	<path class="st0" d="M80.8,49.6c1.7,0.3,2.8,1.8,2.5,3.5s-1.8,2.8-3.5,2.5s-2.8-1.8-2.5-3.5C77.5,50.5,79.2,49.5,80.8,49.6"/>
	<path class="st0" d="M75.2,45c1.4,0,2.5,1.1,2.5,2.5S76.6,50,75.2,50s-2.5-1.1-2.5-2.5S73.8,45,75.2,45"/>
	<path class="st0" d="M69.9,41.8c1.2-0.2,2.2,0.6,2.4,1.8c0.2,1.2-0.6,2.2-1.8,2.4c-1.2,0.2-2.2-0.6-2.4-1.8
		C67.9,43,68.8,42,69.9,41.8"/>
	<path class="st0" d="M65,40c0.9-0.3,1.9,0.2,2.2,1.1c0.3,0.9-0.2,1.9-1.1,2.2c-0.9,0.3-1.9-0.2-2.2-1.1C63.7,41.3,64.2,40.3,65,40"
		/>
	<path class="st0" d="M60.8,39c0.7-0.4,1.6-0.1,1.9,0.6c0.4,0.7,0.1,1.6-0.6,1.9c-0.7,0.4-1.6,0.1-1.9-0.6
		C59.8,40.4,60,39.5,60.8,39"/>
	<path class="st0" d="M27.3,13.5c1.2,1.6,0.8,3.9-0.8,5c-1.6,1.2-3.9,0.8-5-0.8c-1.2-1.6-0.8-3.9,0.8-5
		C23.9,11.5,26.1,11.9,27.3,13.5"/>
	<path class="st0" d="M26.1,21.9c1.2,1.2,1.2,3.1,0,4.3s-3.1,1.2-4.3,0s-1.2-3.1,0-4.3S24.9,20.7,26.1,21.9"/>
	<path class="st0" d="M26.6,29.2c1.1,0.8,1.4,2.4,0.6,3.5c-0.8,1.1-2.4,1.4-3.5,0.6c-1.1-0.8-1.4-2.4-0.6-3.5
		C23.9,28.5,25.4,28.4,26.6,29.2"/>
	<path class="st0" d="M27.9,35.2c1,0.5,1.5,1.8,0.9,2.8c-0.5,1-1.8,1.5-2.8,0.9c-1-0.5-1.5-1.8-0.9-2.8C25.6,35,26.9,34.5,27.9,35.2
		"/>
	<path class="st0" d="M29.9,40c0.9,0.3,1.4,1.3,1.1,2.2c-0.3,0.9-1.3,1.4-2.2,1.1C27.9,43,27.4,42,27.6,41S28.9,39.6,29.9,40"/>
	<path class="st0" d="M32.2,43.6c0.8,0.1,1.3,0.9,1.2,1.7c-0.1,0.8-0.9,1.3-1.6,1.2c-0.8-0.1-1.3-0.9-1.2-1.6
		C30.8,44,31.4,43.5,32.2,43.6"/>
	<path class="st1" d="M73.5,77.1c1.2,1.6,0.8,3.9-0.8,5c-1.6,1.2-3.9,0.8-5-0.8c-1.2-1.6-0.8-3.9,0.8-5
		C70.2,75.2,72.3,75.5,73.5,77.1"/>
	<path class="st1" d="M73.2,68.8c1.2,1.2,1.2,3.1,0,4.3c-1.2,1.2-3.1,1.2-4.3,0c-1.2-1.2-1.2-3.1,0-4.3S71.9,67.6,73.2,68.8"/>
	<path class="st1" d="M71.3,61.6c1.1,0.8,1.4,2.4,0.6,3.5s-2.4,1.4-3.5,0.6s-1.4-2.4-0.6-3.5S70.2,60.9,71.3,61.6"/>
	<path class="st1" d="M68.9,56c1,0.5,1.5,1.8,0.9,2.8c-0.5,1-1.8,1.5-2.8,0.9c-1-0.5-1.5-1.8-0.9-2.8C66.7,56,67.9,55.5,68.9,56"/>
	<path class="st1" d="M66.2,51.8c0.9,0.3,1.4,1.3,1.1,2.2c-0.3,0.9-1.3,1.4-2.2,1.1c-0.9-0.3-1.4-1.3-1.1-2.2
		C64.2,52,65.2,51.5,66.2,51.8"/>
	<path class="st1" d="M63.2,48.5c0.8,0.1,1.3,0.9,1.2,1.6c-0.1,0.8-0.9,1.3-1.6,1.2c-0.8-0.1-1.3-0.9-1.2-1.7
		C61.7,49,62.4,48.4,63.2,48.5"/>
	<path class="st1" d="M83.8,31.9c1.9-0.6,3.9,0.4,4.5,2.3c0.6,1.9-0.4,3.9-2.3,4.5s-3.9-0.4-4.5-2.3C80.8,34.5,81.9,32.5,83.8,31.9"
		/>
	<path class="st1" d="M75.7,29.7c1.5-0.8,3.3-0.2,4.1,1.3c0.8,1.5,0.2,3.3-1.3,4.1s-3.3,0.2-4.1-1.3C73.5,32.2,74.2,30.5,75.7,29.7"
		/>
	<path class="st1" d="M68.3,29.2c1.1-0.8,2.7-0.6,3.5,0.6c0.8,1.1,0.6,2.7-0.6,3.5c-1.1,0.8-2.7,0.6-3.5-0.6
		C66.9,31.5,67.2,30,68.3,29.2"/>
	<path class="st1" d="M62.2,29.7c0.8-0.8,2.2-0.8,3,0s0.8,2.2,0,3s-2.2,0.8-3,0S61.4,30.5,62.2,29.7"/>
	<path class="st1" d="M60.2,33c-0.6,0.8-1.7,1-2.4,0.4c-0.8-0.6-1-1.7-0.4-2.4c0.6-0.8,1.7-1,2.4-0.4C60.5,31.2,60.7,32.4,60.2,33"
		/>
	<path class="st1" d="M55.8,34.2c-0.4,0.7-1.2,1-1.9,0.6c-0.7-0.4-1-1.2-0.6-1.9s1.2-1,1.9-0.6C55.9,32.5,56.2,33.5,55.8,34.2"/>
	<path class="st0" d="M8.9,56.3c1.9-0.6,3.9,0.4,4.5,2.3s-0.4,3.9-2.3,4.6c-1.9,0.6-3.9-0.4-4.5-2.3C6.1,58.9,7.1,56.9,8.9,56.3"/>
	<path class="st0" d="M16.6,59.9c1.5-0.8,3.3-0.2,4.1,1.3s0.2,3.3-1.3,4.1c-1.5,0.8-3.3,0.2-4.1-1.3C14.4,62.5,15.1,60.6,16.6,59.9"
		/>
	<path class="st0" d="M23.6,61.6c1.1-0.8,2.7-0.6,3.5,0.6c0.8,1.1,0.6,2.7-0.6,3.5c-1.1,0.8-2.7,0.6-3.5-0.6
		C22.3,64.1,22.4,62.5,23.6,61.6"/>
	<path class="st0" d="M29.6,62.3c0.8-0.8,2.2-0.8,3,0c0.8,0.8,0.8,2.2,0,3c-0.8,0.8-2.2,0.8-3,0C28.9,64.4,28.9,63.1,29.6,62.3"/>
	<path class="st0" d="M37.7,64c-0.6,0.8-1.7,1-2.4,0.4c-0.8-0.6-1-1.7-0.4-2.4c0.6-0.8,1.7-1,2.4-0.4C38,62,38.2,63.1,37.7,64"/>
	<path class="st0" d="M41.7,62.1c-0.4,0.7-1.2,1-1.9,0.6c-0.7-0.4-1-1.2-0.6-1.9c0.4-0.7,1.2-1,1.9-0.6C41.8,60.5,42,61.4,41.7,62.1
		"/>
	<path class="st1" d="M51.2,8.2c0,2-1.6,3.6-3.6,3.6S44,10.2,44,8.2s1.6-3.6,3.6-3.6C49.4,4.6,51.2,6.2,51.2,8.2"/>
	<path class="st1" d="M39.2,15.2c-0.3-1.7,0.9-3.2,2.5-3.5c1.7-0.3,3.2,0.9,3.5,2.5c0.3,1.7-0.9,3.2-2.5,3.5S39.5,16.9,39.2,15.2"/>
	<path class="st1" d="M41.3,20.4c0.4,1.3-0.3,2.8-1.6,3.2c-1.3,0.4-2.8-0.3-3.2-1.6c-0.4-1.3,0.3-2.8,1.6-3.2S40.9,19,41.3,20.4"/>
	<path class="st1" d="M38.9,26c0.5,1,0.1,2.3-0.9,2.9c-1,0.5-2.3,0.1-2.8-0.9s-0.1-2.3,0.9-2.8C37.2,24.5,38.3,25,38.9,26"/>
	<path class="st1" d="M37.7,31c0.6,0.8,0.4,1.9-0.4,2.4c-0.8,0.6-1.9,0.4-2.4-0.4c-0.6-0.8-0.4-1.9,0.4-2.4C36,30,37.2,30.2,37.7,31
		"/>
	<path class="st1" d="M37.4,35.4c0.6,0.6,0.6,1.5,0,2c-0.6,0.6-1.5,0.6-2,0c-0.6-0.6-0.6-1.5,0-2C35.9,34.9,36.8,34.9,37.4,35.4"/>
	<path class="st0" d="M51.2,86.8c0,2-1.6,3.6-3.6,3.6S44,88.8,44,86.8s1.6-3.6,3.6-3.6C49.4,83.2,51.2,84.8,51.2,86.8"/>
	<path class="st0" d="M49.7,80.8c-0.3-1.7,0.9-3.2,2.5-3.5c1.7-0.3,3.2,0.9,3.5,2.5c0.3,1.7-0.9,3.2-2.5,3.5
		C51.4,83.5,49.9,82.4,49.7,80.8"/>
	<path class="st0" d="M58.4,73c0.4,1.3-0.3,2.8-1.6,3.2c-1.3,0.4-2.8-0.3-3.2-1.6c-0.4-1.3,0.3-2.8,1.6-3.2
		C56.5,70.9,58,71.6,58.4,73"/>
	<path class="st0" d="M59.8,67c0.5,1,0.1,2.3-0.9,2.8s-2.3,0.1-2.9-0.9c-0.5-1-0.1-2.3,0.9-2.8C58,65.6,59.3,66,59.8,67"/>
	<path class="st0" d="M60.2,61.9c0.6,0.8,0.4,1.9-0.4,2.4c-0.8,0.6-1.9,0.4-2.4-0.4c-0.6-0.8-0.4-1.9,0.4-2.4
		C58.4,61,59.5,61,60.2,61.9"/>
	<path class="st0" d="M59.5,57.5c0.6,0.6,0.6,1.5,0,2c-0.6,0.6-1.5,0.6-2,0c-0.6-0.6-0.6-1.5,0-2C58.2,57,59,57,59.5,57.5"/>
	<path class="st2" d="M63,11.2c-0.6,1.9-2.7,2.9-4.6,2.3c-1.9-0.6-2.9-2.7-2.3-4.5C56.7,7,58.7,6,60.6,6.7
		C62.7,7.2,63.8,9.2,63,11.2"/>
	<path class="st2" d="M49.7,14.2c0.3-1.7,1.8-2.8,3.5-2.5s2.8,1.8,2.5,3.5s-1.8,2.8-3.5,2.5C50.5,17.5,49.4,15.9,49.7,14.2"/>
	<path class="st2" d="M50,19.9c0,1.4-1.1,2.5-2.5,2.5S45,21.3,45,19.9s1.1-2.5,2.5-2.5C48.8,17.2,50,18.5,50,19.9"/>
	<path class="st2" d="M45.9,24.4c0.2,1.2-0.6,2.2-1.8,2.4c-1.2,0.2-2.2-0.6-2.4-1.8c-0.2-1.2,0.6-2.2,1.8-2.4
		C44.8,22.5,45.8,23.2,45.9,24.4"/>
	<path class="st2" d="M43.2,28.9c0.3,0.9-0.2,1.9-1.1,2.2S40.2,30.9,40,30c-0.3-0.9,0.2-1.9,1.1-2.2C41.9,27.4,42.9,27.9,43.2,28.9"
		/>
	<path class="st2" d="M41.7,32.9c0.4,0.7,0.1,1.6-0.6,1.9c-0.7,0.4-1.6,0.1-1.9-0.6c-0.4-0.7-0.1-1.6,0.6-1.9
		C40.4,31.9,41.2,32.2,41.7,32.9"/>
	<path class="st3" d="M38.8,86c-0.6,1.9-2.7,2.9-4.6,2.3s-2.9-2.7-2.3-4.5c0.6-1.9,2.7-2.9,4.5-2.3C38.3,82,39.3,84.1,38.8,86"/>
	<path class="st3" d="M39.2,79.8c0.3-1.7,1.8-2.8,3.5-2.5s2.8,1.8,2.5,3.5s-1.8,2.8-3.5,2.5C40.2,83,39,81.4,39.2,79.8"/>
	<path class="st3" d="M50,75.1c0,1.4-1.1,2.5-2.5,2.5S45,76.5,45,75.1s1.1-2.5,2.5-2.5C48.8,72.6,50,73.8,50,75.1"/>
	<path class="st3" d="M53.2,69.9c0.2,1.2-0.6,2.2-1.8,2.4c-1.2,0.2-2.2-0.6-2.4-1.8c-0.2-1.2,0.6-2.2,1.8-2.4
		C51.9,67.9,53,68.8,53.2,69.9"/>
	<path class="st3" d="M55,65c0.3,0.9-0.2,1.9-1.1,2.2C53,67.5,52,67,51.8,66.1c-0.3-0.9,0.2-1.9,1.1-2.2C53.8,63.6,54.8,64.1,55,65"
		/>
	<path class="st3" d="M55.8,60.8c0.4,0.7,0.1,1.6-0.6,1.9c-0.7,0.4-1.6,0.1-1.9-0.6c-0.4-0.7-0.1-1.6,0.6-1.9
		C54.7,59.9,55.5,60,55.8,60.8"/>
	<path class="st3" d="M8.1,43.9c2,0,3.6,1.6,3.6,3.6S10.1,51,8.1,51s-3.6-1.6-3.6-3.6S6.1,43.9,8.1,43.9"/>
	<path class="st3" d="M14.3,49.6c1.7-0.3,3.2,0.9,3.5,2.5c0.3,1.7-0.9,3.2-2.5,3.5c-1.7,0.3-3.2-0.9-3.5-2.5
		C11.4,51.5,12.6,50,14.3,49.6"/>
	<path class="st3" d="M20.4,53.6c1.3-0.4,2.8,0.3,3.2,1.6c0.4,1.3-0.3,2.8-1.6,3.2c-1.3,0.4-2.8-0.3-3.2-1.6
		C18.4,55.5,19.1,54,20.4,53.6"/>
	<path class="st3" d="M25.9,56c1-0.5,2.3-0.1,2.8,0.9s0.1,2.3-0.9,2.8s-2.3,0.1-2.8-0.9C24.6,57.9,24.9,56.5,25.9,56"/>
	<path class="st3" d="M31.1,57.3c0.8-0.6,1.9-0.4,2.4,0.4c0.6,0.8,0.4,1.9-0.4,2.4c-0.8,0.6-1.9,0.4-2.4-0.4
		C30.1,59,30.3,57.9,31.1,57.3"/>
	<path class="st3" d="M35.3,57.5c0.6-0.6,1.5-0.6,2,0c0.6,0.6,0.6,1.5,0,2c-0.6,0.6-1.5,0.6-2,0C34.8,59,34.8,58.1,35.3,57.5"/>
	<path class="st2" d="M86.8,43.9c2,0,3.6,1.6,3.6,3.6S88.8,51,86.8,51s-3.6-1.6-3.6-3.6S84.8,43.9,86.8,43.9"/>
	<path class="st2" d="M79.8,39.3c1.7-0.3,3.2,0.9,3.5,2.5c0.3,1.7-0.9,3.2-2.5,3.5c-1.7,0.3-3.2-0.9-3.5-2.5
		C77,41.1,78.2,39.5,79.8,39.3"/>
	<path class="st2" d="M73,36.5c1.3-0.4,2.8,0.3,3.2,1.6c0.4,1.3-0.3,2.8-1.6,3.2c-1.3,0.4-2.8-0.3-3.2-1.6
		C70.9,38.4,71.7,37,73,36.5"/>
	<path class="st2" d="M67,35.2c1-0.5,2.3-0.1,2.8,0.9c0.5,1,0.1,2.3-0.9,2.8S66.6,39,66.1,38C65.7,37,66,35.7,67,35.2"/>
	<path class="st2" d="M61.8,34.9c0.8-0.6,1.9-0.4,2.4,0.4c0.6,0.8,0.4,1.9-0.4,2.4c-0.8,0.6-1.9,0.4-2.4-0.4
		C60.9,36.5,61.2,35.5,61.8,34.9"/>
	<path class="st2" d="M57.5,35.4c0.6-0.6,1.5-0.6,2,0c0.6,0.6,0.6,1.5,0,2c-0.6,0.6-1.5,0.6-2,0C56.9,36.9,56.9,36,57.5,35.4"/>
	<path class="st2" d="M17.8,21.5c1.6,1.2,2,3.4,0.8,5s-3.4,2-5,0.8s-2-3.4-0.8-5C13.9,20.7,16.1,20.2,17.8,21.5"/>
	<path class="st2" d="M19.3,29.7c1.5,0.8,2.1,2.6,1.3,4.1S18,35.8,16.5,35s-2.1-2.6-1.3-4.1C15.9,29.5,17.8,29,19.3,29.7"/>
	<path class="st2" d="M21.9,36.5c1.3,0.4,2.1,1.9,1.6,3.2c-0.4,1.3-1.9,2.1-3.2,1.6c-1.3-0.4-2.1-1.9-1.6-3.2
		C19.1,36.9,20.6,36,21.9,36.5"/>
	<path class="st2" d="M25.1,41.8c1.2,0.2,1.9,1.3,1.8,2.4c-0.2,1.2-1.3,1.9-2.4,1.8c-1.1-0.2-1.9-1.3-1.8-2.4
		C22.9,42.4,23.9,41.5,25.1,41.8"/>
	<path class="st2" d="M28.4,45.8c1,0,1.7,0.8,1.7,1.7s-0.8,1.7-1.7,1.7c-1,0-1.8-0.8-1.8-1.7S27.4,45.8,28.4,45.8"/>
	<path class="st2" d="M31.8,48.5c0.8-0.1,1.5,0.4,1.6,1.2c0.1,0.8-0.4,1.5-1.2,1.7c-0.8,0.1-1.5-0.4-1.6-1.2
		C30.4,49.4,30.9,48.6,31.8,48.5"/>
	<path class="st3" d="M81.4,67.6c1.6,1.2,2,3.4,0.8,5s-3.4,2-5,0.8s-2-3.4-0.8-5C77.5,66.8,79.8,66.5,81.4,67.6"/>
	<path class="st3" d="M78.4,59.9c1.5,0.8,2.1,2.6,1.3,4.1c-0.8,1.5-2.6,2.1-4.1,1.3c-1.5-0.8-2.1-2.6-1.3-4.1
		C75.2,59.6,76.9,59,78.4,59.9"/>
	<path class="st3" d="M74.5,53.6c1.3,0.4,2.1,1.9,1.6,3.2c-0.4,1.3-1.9,2.1-3.2,1.6c-1.3-0.4-2.1-1.9-1.6-3.2S73.2,53.1,74.5,53.6"
		/>
	<path class="st3" d="M70.5,49c1.2,0.2,1.9,1.3,1.8,2.4c-0.2,1.2-1.3,1.9-2.4,1.8c-1.2-0.2-1.9-1.3-1.8-2.4
		C68.3,49.6,69.4,48.9,70.5,49"/>
	<path class="st3" d="M66.5,45.8c1,0,1.7,0.8,1.7,1.7s-0.8,1.7-1.7,1.7c-1,0-1.7-0.8-1.7-1.7S65.5,45.8,66.5,45.8"/>
	<path class="st3" d="M62.8,43.6c0.8-0.1,1.5,0.4,1.6,1.2c0.1,0.8-0.4,1.5-1.2,1.6c-0.8,0.1-1.5-0.4-1.6-1.2
		C61.4,44.5,61.9,43.8,62.8,43.6"/>
	<path class="st3" d="M77.2,21.5c1.6-1.2,3.9-0.8,5,0.8c1.2,1.6,0.8,3.9-0.8,5c-1.6,1.2-3.9,0.8-5-0.8
		C75.2,24.9,75.5,22.7,77.2,21.5"/>
	<path class="st3" d="M68.8,21.9c1.2-1.2,3.1-1.2,4.3,0c1.2,1.2,1.2,3.1,0,4.3s-3.1,1.2-4.3,0C67.7,25,67.7,23,68.8,21.9"/>
	<path class="st3" d="M65.8,26.5c-0.8,1.1-2.4,1.4-3.5,0.6c-1.1-0.8-1.4-2.4-0.6-3.5s2.4-1.4,3.5-0.6S66.7,25.5,65.8,26.5"/>
	<path class="st3" d="M59.8,27.9c-0.5,1-1.8,1.5-2.8,0.9c-1-0.5-1.5-1.8-0.9-2.8c0.5-1,1.8-1.5,2.8-0.9
		C59.9,25.5,60.3,26.9,59.8,27.9"/>
	<path class="st3" d="M55,29.9c-0.3,0.9-1.3,1.4-2.2,1.1c-0.9-0.3-1.4-1.3-1.1-2.2s1.3-1.4,2.2-1.1C54.8,28,55.3,29,55,29.9"/>
	<path class="st3" d="M51.3,32.2c-0.1,0.8-0.9,1.3-1.7,1.2c-0.8-0.1-1.3-0.9-1.2-1.6c0.1-0.8,0.9-1.3,1.7-1.2
		C50.9,30.7,51.4,31.5,51.3,32.2"/>
	<path class="st2" d="M13.6,67.6c1.6-1.2,3.9-0.8,5,0.8c1.2,1.6,0.8,3.9-0.8,5c-1.6,1.2-3.9,0.8-5-0.8
		C11.6,71.1,11.9,68.8,13.6,67.6"/>
	<path class="st2" d="M21.9,68.8c1.2-1.2,3.1-1.2,4.3,0s1.2,3.1,0,4.3c-1.2,1.2-3.1,1.2-4.3,0C20.6,71.9,20.6,69.9,21.9,68.8"/>
	<path class="st2" d="M33.2,71.3c-0.8,1.1-2.4,1.4-3.6,0.6c-1.1-0.8-1.4-2.4-0.6-3.5c0.8-1.1,2.4-1.4,3.5-0.6
		C33.8,68.6,34.2,70.2,33.2,71.3"/>
	<path class="st2" d="M38.9,68.9c-0.5,1-1.8,1.5-2.9,0.9c-1-0.5-1.5-1.8-0.9-2.8c0.5-1,1.8-1.5,2.8-0.9C39,66.6,39.4,67.9,38.9,68.9
		"/>
	<path class="st2" d="M43.2,66.1c-0.3,0.9-1.3,1.4-2.2,1.1c-0.9-0.3-1.4-1.3-1.1-2.2c0.3-0.9,1.3-1.4,2.2-1.1
		C43,64.2,43.5,65.2,43.2,66.1"/>
	<path class="st2" d="M46.4,63.1c-0.1,0.8-0.9,1.3-1.6,1.2c-0.8-0.1-1.3-0.9-1.2-1.6c0.1-0.8,0.9-1.3,1.7-1.2
		C46,61.6,46.5,62.5,46.4,63.1"/>
	<path class="st3" d="M38.8,8.9c0.6,1.9-0.4,3.9-2.3,4.5s-3.9-0.4-4.5-2.3c-0.6-1.9,0.4-3.9,2.3-4.5C36.2,6,38.2,7,38.8,8.9"/>
	<path class="st3" d="M35.2,16.5c0.8,1.5,0.2,3.3-1.3,4.1s-3.3,0.2-4.1-1.3s-0.2-3.3,1.3-4.1C32.5,14.4,34.3,15,35.2,16.5"/>
	<path class="st3" d="M33.2,23.7c0.8,1.1,0.6,2.7-0.6,3.5c-1.1,0.8-2.7,0.6-3.5-0.6c-0.8-1.1-0.6-2.7,0.6-3.5
		C30.9,22.2,32.4,22.5,33.2,23.7"/>
	<path class="st3" d="M32.7,29.7c0.8,0.8,0.8,2.2,0,3c-0.8,0.8-2.2,0.8-3,0s-0.8-2.2,0-3C30.6,28.9,31.9,28.9,32.7,29.7"/>
	<path class="st3" d="M33,34.9c0.8,0.6,1,1.7,0.4,2.4c-0.6,0.8-1.7,1-2.4,0.4c-0.8-0.6-0.9-1.7-0.4-2.4C31.3,34.5,32.3,34.2,33,34.9
		"/>
	<path class="st3" d="M34.2,39c0.7,0.4,1,1.2,0.6,1.9c-0.4,0.7-1.2,1-1.9,0.6c-0.7-0.4-1-1.2-0.6-1.9C32.5,39,33.4,38.8,34.2,39"/>
	<path class="st2" d="M63,83.8c0.6,1.9-0.4,3.9-2.3,4.5s-3.9-0.4-4.5-2.3s0.4-3.9,2.3-4.5S62.4,81.8,63,83.8"/>
	<path class="st2" d="M65.2,75.6c0.8,1.5,0.2,3.3-1.3,4.1c-1.5,0.8-3.3,0.2-4.1-1.3c-0.8-1.5-0.2-3.3,1.3-4.1S64.5,74.1,65.2,75.6"
		/>
	<path class="st2" d="M65.8,68.3c0.8,1.1,0.6,2.7-0.6,3.5c-1.1,0.8-2.7,0.6-3.5-0.6c-0.8-1.1-0.6-2.7,0.6-3.5
		C63.3,66.9,64.9,67.2,65.8,68.3"/>
	<path class="st2" d="M65.2,62.3c0.8,0.8,0.8,2.2,0,3s-2.2,0.8-3,0s-0.8-2.2,0-3C63.2,61.5,64.4,61.5,65.2,62.3"/>
	<path class="st2" d="M63.9,57.3c0.8,0.6,1,1.7,0.4,2.4c-0.6,0.8-1.7,1-2.4,0.4c-0.8-0.6-1-1.7-0.4-2.4C62,56.9,63.2,56.8,63.9,57.3
		"/>
	<path class="st2" d="M62.2,53.4c0.7,0.4,1,1.2,0.6,1.9c-0.4,0.7-1.2,1-1.9,0.6c-0.7-0.4-1-1.2-0.6-1.9C60.5,53.3,61.4,53,62.2,53.4
		"/>
</g>
</svg>
