<?xml version="1.0" encoding="utf-8"?>
<!-- Generator: Adobe Illustrator 24.1.2, SVG Export Plug-In . SVG Version: 6.00 Build 0)  -->
<svg version="1.1" id="Layer_1" xmlns="http://www.w3.org/2000/svg" xmlns:xlink="http://www.w3.org/1999/xlink" x="0px" y="0px"
	 viewBox="0 0 175 50" style="enable-background:new 0 0 175 50;" xml:space="preserve">
<style type="text/css">
	.st0{fill-rule:evenodd;clip-rule:evenodd;fill:#5667AD;}
	.st1{fill:#5667AD;}
</style>
<path class="st0" d="M25,45.5C13.7,45.5,4.5,36.3,4.5,25S13.7,4.5,25,4.5V0C11.2,0,0,11.2,0,25s11.2,25,25,25V45.5z"/>
<circle class="st1" cx="25" cy="25" r="16"/>
<path class="st1" d="M53,13.1h-3.3v-2.1h8.7v2.1h-3.2v9.6H53C53,22.7,53,13.1,53,13.1z"/>
<path class="st1" d="M59.6,10.1h2.2v5c0.6-0.8,1.5-1.2,2.5-1.2c2,0,3.4,1.3,3.4,3.6v5.2h-2.3v-4.9c0.2-0.9-0.5-1.8-1.4-2
	c-0.1,0-0.2,0-0.3,0c-1,0-1.9,0.8-1.9,1.9c0,0.1,0,0.2,0,0.2v4.8h-2.2V10.1z"/>
<path class="st1" d="M68.8,18.4c0-2.5,1.9-4.5,4.4-4.5c0,0,0.1,0,0.1,0c2.4-0.1,4.4,1.8,4.5,4.1c0,0.1,0,0.2,0,0.3v0.8h-6.9
	c0.3,1.1,1.3,1.9,2.5,1.8c0.9,0,1.7-0.4,2.2-1.1l1.8,1.1c-0.9,1.3-2.4,2.1-4,2c-2.4,0.1-4.4-1.7-4.6-4.1
	C68.8,18.7,68.8,18.6,68.8,18.4z M71,17.4h4.6c-0.2-1-1.2-1.7-2.3-1.7C72.2,15.8,71.3,16.5,71,17.4L71,17.4z"/>
<path class="st1" d="M82.8,16.9c-0.1-3.2,2.5-5.9,5.8-6c0.1,0,0.2,0,0.2,0c2.1,0,4.1,1.1,5.2,2.9l-2,1.2c-0.6-1.2-1.8-2-3.2-2
	c-2,0-3.7,1.6-3.7,3.6c0,0,0,0.1,0,0.1c0,2,1.6,3.7,3.6,3.8c0,0,0.1,0,0.1,0c1.4,0,2.8-0.8,3.3-2.2l2.1,1.1
	c-1.5,2.9-5.1,4.1-8.1,2.6C84.1,21.1,82.9,19.1,82.8,16.9z"/>
<path class="st1" d="M94.7,16.9c0-3.3,2.7-6,6-6s6,2.7,6,6s-2.7,6-6,6S94.7,20.2,94.7,16.9z M104.4,16.9c0-2-1.7-3.7-3.8-3.6
	c-2,0-3.7,1.7-3.6,3.8c0,2,1.7,3.6,3.7,3.6C102.7,20.7,104.4,19,104.4,16.9C104.4,16.9,104.4,16.9,104.4,16.9z"/>
<path class="st1" d="M106.2,11.1h2.4l3.1,8.7l3.2-8.7h2.4l-4.4,11.7h-2.2L106.2,11.1z"/>
<path class="st1" d="M118.3,11.1h2.3v11.7h-2.3V11.1z"/>
<path class="st1" d="M122.5,11.1h3.8c3.2-0.2,5.9,2.2,6.1,5.3c0,0.2,0,0.3,0,0.5c0,3.2-2.6,5.8-5.8,5.8c-0.1,0-0.2,0-0.3,0h-3.8
	C122.5,22.7,122.5,11.1,122.5,11.1z M124.8,13.2v7.5h1.4c2,0.1,3.8-1.4,3.9-3.4c0-0.1,0-0.2,0-0.3c0.1-2-1.5-3.7-3.4-3.8
	c-0.2,0-0.4,0-0.6,0L124.8,13.2L124.8,13.2z"/>
<path class="st1" d="M53,29.1h-3.3v-2.1h8.7v2.1h-3.2v9.6H53C53,38.7,53,29.1,53,29.1z"/>
<path class="st1" d="M57.9,30.1h2.2v1.3c0.4-1,1.4-1.6,2.4-1.5c0.5,0,1,0.1,1.5,0.3l-0.8,2.2c-0.3-0.2-0.7-0.3-1.2-0.3
	c-1-0.1-1.8,0.6-1.9,1.6c0,0.1,0,0.3,0,0.4v4.6h-2.2V30.1z"/>
<path class="st1" d="M63.9,36.3c0-1.8,1.5-2.9,3.9-2.9h2.3v-0.1c0-0.9-0.7-1.6-1.6-1.6c-0.1,0-0.2,0-0.3,0c-0.8,0-1.6,0.4-2,1.1
	l-2-1c0.9-1.3,2.5-2.1,4.1-2c2.6,0,4,1.3,4,3.5v5.3h-2.2v-1.3c-0.8,1-1.9,1.5-3.2,1.5C65,38.9,63.9,37.9,63.9,36.3z M70.1,35.5v-0.5
	h-2c-1.3,0-1.8,0.4-1.8,1.1s0.4,0.9,1.3,0.9C68.7,37.1,69.6,36.5,70.1,35.5z"/>
<path class="st1" d="M73.3,34.4c0-2.5,2.1-4.5,4.6-4.5c1.8,0,3.4,1.1,4.1,2.7l-2,0.8c-0.3-0.9-1.2-1.5-2.2-1.5
	c-1.3,0.1-2.3,1.2-2.3,2.6c0.1,1.2,1,2.2,2.3,2.3c1,0,1.8-0.6,2.2-1.5l2.1,0.8c-0.7,1.7-2.4,2.8-4.2,2.8c-2.5,0-4.5-1.9-4.5-4.4
	C73.3,34.5,73.3,34.5,73.3,34.4z"/>
<path class="st1" d="M86.6,35.2l-1.3,1.5v2.1h-2.2V26.1h2.2v8l3.5-4h2.6l-3.2,3.7l3.4,5h-2.5L86.6,35.2z"/>
<path class="st1" d="M93.7,26.2c0.8,0,1.4,0.6,1.4,1.3c0,0,0,0.1,0,0.1C95,28.5,94.3,29,93.6,29c-0.7-0.1-1.2-0.6-1.3-1.3
	C92.2,26.9,92.8,26.3,93.7,26.2C93.6,26.2,93.6,26.2,93.7,26.2z M92.6,30.1h2.3v8.6h-2.3V30.1z"/>
<path class="st1" d="M96.5,30.1h2.2v1.1c0.6-0.8,1.5-1.3,2.5-1.3c2,0,3.3,1.3,3.3,3.6v5.2h-2.3v-4.9c0.2-0.9-0.5-1.8-1.4-2
	c-0.1,0-0.2,0-0.3,0c-1,0-1.9,0.8-1.9,1.9c0,0.1,0,0.2,0,0.3v4.8h-2.2V30.1z"/>
<path class="st1" d="M105.6,34.4c-0.1-2.3,1.7-4.3,4-4.5c0.1,0,0.1,0,0.2,0c1.1,0,2.1,0.5,2.7,1.3v-1.1h2.2v8c0,2.4-1.8,4.3-4.2,4.3
	c-0.1,0-0.2,0-0.3,0c-1.6,0.1-3.1-0.5-4.2-1.7l1.8-1.4c0.5,0.8,1.4,1.2,2.3,1.2c1.2,0.1,2.3-0.9,2.4-2.1c0-0.1,0-0.1,0-0.2v-0.7
	c-0.6,0.9-1.6,1.4-2.7,1.4c-2.4,0-4.2-2-4.2-4.3C105.6,34.5,105.6,34.5,105.6,34.4z M112.6,34.4c0-1.3-1.1-2.4-2.4-2.4
	c-1.3,0-2.4,1.1-2.4,2.4c0,1.3,1.1,2.4,2.4,2.4C111.6,36.8,112.6,35.8,112.6,34.4C112.6,34.4,112.6,34.4,112.6,34.4L112.6,34.4z"/>
<path class="st1" d="M120.4,27.1h4.6c2.3,0,4.3,1.9,4.3,4.2c0,2.3-1.9,4.3-4.2,4.3c0,0,0,0,0,0h-2.3v3.2h-2.3L120.4,27.1L120.4,27.1
	z M122.6,29.1v4.3h2.2c1.2,0,2.2-1,2.2-2.2s-1-2.2-2.2-2.2c0,0,0,0,0,0H122.6z"/>
<path class="st1" d="M130.2,30.1h2.2v1.3c0.4-1,1.4-1.6,2.4-1.5c0.5,0,1,0.1,1.5,0.3l-0.8,2.2c-0.3-0.2-0.7-0.3-1.1-0.3
	c-1-0.1-1.8,0.6-1.9,1.6c0,0.1,0,0.3,0,0.4v4.6h-2.2L130.2,30.1L130.2,30.1z"/>
<path class="st1" d="M135.8,34.4c0-2.5,2-4.6,4.5-4.6c2.5,0,4.6,2,4.6,4.5s-2,4.6-4.5,4.6c0,0-0.1,0-0.1,0c-2.5,0-4.5-1.9-4.6-4.4
	C135.8,34.5,135.7,34.5,135.8,34.4z M142.7,34.4c0-1.3-1.1-2.3-2.4-2.3c-1.3,0-2.3,1.1-2.3,2.4c0,1.3,1.1,2.3,2.4,2.3
	C141.6,36.8,142.7,35.8,142.7,34.4C142.7,34.4,142.7,34.4,142.7,34.4L142.7,34.4z"/>
<path class="st1" d="M144.3,40.1c1.5,0,1.7-0.2,1.7-1.7v-8.4h2.3v8.4c0,2.8-0.9,3.7-3.6,3.7h-0.3L144.3,40.1L144.3,40.1z
	 M147.1,26.2c0.8,0,1.4,0.6,1.4,1.3c0,0,0,0.1,0,0.1c-0.1,0.8-0.8,1.4-1.5,1.3c-0.7-0.1-1.2-0.6-1.3-1.3
	C145.7,26.9,146.3,26.3,147.1,26.2C147.1,26.2,147.1,26.2,147.1,26.2z"/>
<path class="st1" d="M149.4,34.4c0-2.5,1.9-4.5,4.4-4.5c0,0,0.1,0,0.1,0c2.4-0.1,4.4,1.8,4.5,4.1c0,0.1,0,0.2,0,0.3v0.8h-6.9
	c0.3,1.1,1.3,1.9,2.5,1.8c0.9,0,1.7-0.4,2.1-1.2l1.9,1.1c-0.9,1.3-2.4,2.1-4,2c-2.4,0.1-4.5-1.7-4.6-4.1
	C149.4,34.7,149.4,34.6,149.4,34.4z M151.6,33.4h4.6c-0.2-1-1.2-1.7-2.3-1.7C152.9,31.8,151.9,32.4,151.6,33.4L151.6,33.4z"/>
<path class="st1" d="M159.3,34.4c0-2.5,2.1-4.5,4.6-4.5c1.8,0,3.4,1.1,4.1,2.7l-2,0.8c-0.3-0.9-1.2-1.5-2.2-1.5
	c-1.3,0.1-2.3,1.2-2.3,2.6c0.1,1.2,1,2.2,2.3,2.3c1,0,1.8-0.6,2.1-1.5l2,0.8c-0.7,1.7-2.4,2.8-4.2,2.8
	C161.3,38.9,159.3,37,159.3,34.4C159.3,34.5,159.3,34.5,159.3,34.4z"/>
<path class="st1" d="M168.5,30.1h1.6v-1.9l2.2-1.2v3.1h2.3v2h-2.3v3.5c0,0.9,0.4,1.2,0.9,1.2c0.3,0,0.6-0.1,0.8-0.3l1,1.7
	c-0.6,0.4-1.3,0.7-2.1,0.7c-1.8,0-2.9-0.9-2.9-3.2v-3.7h-1.6L168.5,30.1L168.5,30.1z"/>
</svg>
