<?xml version="1.0" encoding="utf-8"?>
<!-- Generator: Adobe Illustrator 25.2.3, SVG Export Plug-In . SVG Version: 6.00 Build 0)  -->
<svg version="1.1" id="Layer_1" xmlns="http://www.w3.org/2000/svg" xmlns:xlink="http://www.w3.org/1999/xlink" x="0px" y="0px"
	 viewBox="0 0 233 196.1" style="enable-background:new 0 0 233 196.1;" xml:space="preserve">
<style type="text/css">
	.st0{fill:#0093D5;}
</style>
<g id="Layer_2_1_">
	<g id="ENGLISH">
		<path class="st0" d="M179.7,41.7c3.9,4.6,10.6,7.3,14.6,11.9c-2.8-13.6-13.4-24.8-25.8-27.4C174.5,30.7,175.8,37.1,179.7,41.7z
			 M30.2,76.2c8.6-18.7,21.4-14.7,26.8-32.5c-3,5.5-17,7.8-23.5,21.7c3.3-8.3,1.7-21,7.2-27.8C23.9,50,31.1,69.9,30.2,76.2z
			 M45.7,120.9c1.5,7.3-3,17.7,4.2,27.8c-7.4-8.3-23.2-10.5-29.6-23.1c8,31,29,24.6,38.4,31.3C50.9,145.7,57.2,138.3,45.7,120.9z
			 M43.3,140.4c-4.6-17.3,3.6-23.3-2.7-39.9c-0.7,9.4-6.9,13.9-2.7,31C30.5,117,19,111.6,15.7,101.7
			C15.9,128.9,37.8,132.9,43.3,140.4z M76.8,169.4c-6.4-8.9-2-13.9-20.1-30.1c3.8,5.9-0.1,13.3,12.1,24.9c-11.9-7-28.4-4-36.3-13.4
			C46.1,176.8,70,166.2,76.8,169.4L76.8,169.4z M164.2,164.2c12.2-11.5,8.2-19,12.1-24.9c-18.1,16.2-13.7,21.2-20.1,30.1
			c6.8-3.2,30.7,7.4,44.3-18.6C192.6,160.2,176.1,157.2,164.2,164.2L164.2,164.2z M183.1,148.7c7.2-10,2.7-20.5,4.2-27.8
			c-11.6,17.4-5.2,24.8-13,36c9.4-6.7,30.4-0.4,38.4-31.3C206.3,138.2,190.6,140.4,183.1,148.7L183.1,148.7z M154.3,170.6
			c-6.5-1.7-13.1-2.7-19.8-3c-6.1-0.1-12.3,0.9-18,3.1c-5.7-2.2-11.9-3.2-18-3.1c-6.7,0.3-13.3,1.3-19.8,3
			c-10.9,2.9-20.3,5.1-28.5,1c7.8,7,17,9.4,30.2,8c11-1.2,19.9-6.7,30.3-6.6h0.4c-6.5,3.3-12.3,7.8-17.1,13.3l5,0.7
			c0,0,5.3-10.6,17.4-13.4c12.1,2.8,17.4,13.4,17.4,13.4l5-0.7c-4.8-5.5-10.6-10-17.1-13.2h0.4c10.4-0.1,19.3,5.4,30.3,6.6
			c13.2,1.4,22.4-1.1,30.2-8C174.5,175.8,165.1,173.5,154.3,170.6L154.3,170.6z M41.3,81.7c-4.5,8.6-11.4,10.6-10.7,28.4
			C26.9,94.3,17.9,88.4,18,78.3c-6.2,26.3,10.4,29.4,14.7,40.4C32.1,103,42.2,99.8,41.3,81.7z M47.6,61.4c-1.6,2.2-2.7,3.1-6.8,6.5
			c-6.2,5-10.5,12-12.1,19.8c0.4-9.6-5.5-23.5-1.6-33.6C11.8,75.8,28,88.7,28.6,96.6C32.5,81.5,41.7,81.4,47.6,61.4z M204.3,87.7
			c-1.6-7.8-5.9-14.8-12.1-19.8c-4.2-3.4-5.2-4.4-6.8-6.5c5.9,20,15.1,20.1,19,35.2c0.6-7.8,16.8-20.8,1.4-42.5
			C209.8,64.2,203.9,78.1,204.3,87.7z M217.3,101.7c-3.3,9.9-14.8,15.3-22.2,29.8c4.2-17.1-2-21.7-2.7-31c-6.2,16.6,2,22.6-2.7,39.9
			C195.2,132.9,217.1,128.9,217.3,101.7L217.3,101.7z M191.7,81.7c-0.9,18.1,9.2,21.2,8.6,37c4.3-11,21-14.1,14.7-40.4
			c0.1,10.1-8.9,16-12.6,31.7C203.1,92.3,196.1,90.3,191.7,81.7z M53.3,41.7c3.9-4.6,5.2-10.9,11.2-15.5
			c-12.4,2.7-23,13.8-25.8,27.4C42.7,49,49.4,46.3,53.3,41.7L53.3,41.7z M176.1,43.8c5.4,17.8,18.2,13.8,26.8,32.5
			C202,70,209.1,50,192.4,37.7c5.6,6.9,3.9,19.5,7.2,27.8C193.1,51.5,179.1,49.2,176.1,43.8L176.1,43.8z M132.7,53.8
			c-3.3-1.3-6.7-2.3-10.2-2.8c0,0.8,0,1.5,0,2.3c3.2,0.5,6.4,1.3,9.4,2.6C132.3,55.3,132.5,54.6,132.7,53.8z M130.1,31.8l0.7-0.6
			l-1.3-0.5l-3.4-0.1l-0.9,0.6l-2-0.2v0.5c1.2,0.1,2.4,0.2,3.5,0.4l1.7-0.1L130.1,31.8z M123.5,105.6c0-0.6-0.8-1.2-1.9-1.7h-0.2
			c0,0.5,0,2.8-0.1,3.9C122.7,107.2,123.5,106.5,123.5,105.6z M83.8,62.1c0.1-0.4,0.2-0.8,0.3-1.2c-0.5,0.1-0.9,0.2-1.4,0.1
			L83.8,62.1z M116.6,162.7c38.5-0.1,69.6-31.5,69.5-70c-0.1-35.6-27-65.4-62.4-69.1c0,0.1,0,0.3-0.1,0.4c-0.1,0.7-0.3,1.3-0.4,1.8
			c15.3,1.5,29.7,8.2,40.6,19l-7.7,7.7l0.3-1.4l-1-0.4l-1.4-0.1l0.3-0.9l-0.9-3.2l-1.9-2.1l-6-3.2l-0.5,0.5l-1.1,0.3
			c2.1,3,3.2,6.5,3.2,10.1c0,0.5,0,0.9,0,1.4l3,3.8l-1.4,0.3l0.9,1.4l-2.6,2.6l-1.1-2c-0.5,1.4-1.2,2.7-2,3.9l0.6,0.5l-8.1,8.1
			c-0.5-0.5-1-0.9-1.5-1.3c-0.8,0.4-1.6,0.7-2.4,1l0.7,0.5l-0.4,0.4l-1,0.5l-0.3,1l-0.6-0.6l-1.7,0.6l0.5,0.8l1.2-0.3l0.8,0.1
			l0.1-0.4l0.6-0.3l0.2-0.3l1.1-0.3h0.8c0.2,0.1,0.3,0.3,0.5,0.4l-3.3,3.1l-0.2-0.3l-3.4,0.6l-0.8,0.8l-0.7,0.1l2.1-2l-0.7-0.4
			l-1.9,2.6l0.6-0.1v1l0.7,0.3l0.1,1l-1.2-0.2l-1.2,0.2l-3-1.5c0,0-0.2,7.9-0.2,11.9c7,2.3,14.3,5.7,14.3,14.6
			c0.1,3.8-1.8,7.3-5,9.4l0,0l-0.1,0.1l0,0l-0.2,0.2c-2.8,1.9-6.4,2.9-9.6,3.8l-0.1,6.2c5,2.5,11.1,6.1,10.5,16.4
			c-0.1,2.5-1.1,3.2-1.9,3.5l0,0c-3,0.7-6,1.2-9,1.4c0,0.8,0,1.6,0,2.3c13-0.9,25.3-6.3,34.8-15.4l8.1,8.1
			c-26,25.1-67.2,25.2-93.3,0.2l8.1-8.1c9.3,8.9,21.5,14.2,34.3,15.2c0-0.7,0-1.5,0-2.3c-12.2-0.9-23.8-6-32.7-14.5l2.2-2.2l3,0.3
			l1.6-1.7l4.1,0.1l0.6-1.4l-0.2-0.6c6.1,4.7,13.4,7.6,21.1,8.4c0-0.9,0-1.6,0-2.3c-8.5-1-16.5-4.6-22.7-10.4l8.1-8.1
			c2,1.8,4.2,3.2,6.6,4.4c0.2-0.7,0.4-1.5,0.8-2.1c-2.1-1-4-2.3-5.8-3.9l8.1-8.1c1.3,1,2.8,1.9,4.3,2.4c0-0.8,0-1.7,0-2.4
			c-1-0.4-1.9-1-2.7-1.6l2.3-2.3c-0.8-0.2-1.6-0.5-2.4-0.8l-1.5,1.5c-0.8-0.9-1.4-1.8-1.9-2.9c-1.4-0.6-2.7-1.3-4-2.1
			c-4.8-2.9-7.7-8.2-7.6-13.8c-0.1-3.8,1-7.5,3.3-10.5L88.9,64c5.9-5.7,13.5-9.4,21.6-10.6c0-0.8,0-1.5-0.1-2.3
			c-8.7,1.3-16.8,5.2-23.2,11.3L86,61.1c-0.3,0.5-0.7,1.2-1.1,2.1l0.9,0.9c-7.2,7.6-11.3,17.7-11.5,28.2H62.8
			c0.2-13.6,5.5-26.5,14.9-36.3l3.6,3.7c0.2,0,0.3,0,0.5,0c0.7-0.1,1.4-0.3,2.1-0.6l-4.6-4.6c2.5-2.4,5.1-4.5,8-6.4
			c0.2-0.6,0.3-1.1,0.6-1.7c0.5-0.8,1.1-1.6,1.8-2.3c-4.3,2.4-8.4,5.3-11.9,8.8l-8.1-8.1c10.9-10.6,25-17.2,40.1-18.8
			c-0.1-0.3-0.1-0.5-0.1-0.5c-0.1-0.5-0.2-1.1-0.3-1.7c-38.3,4.1-66.1,38.4-62,76.7C51,135.8,80.9,162.7,116.6,162.7L116.6,162.7z
			 M131.7,114.5L131.7,114.5L131.7,114.5L131.7,114.5z M165.5,46.4c11.8,12.4,18.5,28.7,18.6,45.8h-11.5c-0.1-8.5-2.2-16.9-6-24.5
			l0.1-0.2l0.8,0.4l0.2-0.6l-2-3.6l-2.4-3.4l-2.9-2.3c-1-1.2-2-2.4-3.1-3.5L165.5,46.4z M150.8,61.1l2.8,0.1l0.7,0.8l-0.3,1.2
			l3.8,2.4l0.8-0.1l4.9,5.6l2-0.7c3.2,6.9,4.9,14.3,5,21.9h-11.5c0-2.9-0.4-5.9-1.1-8.7l0.5-0.7l0.7-3.6l-0.5-3.9l-1.4-4.4l-3.2-4.7
			l0.8,0.4l0.4-0.4l-2.6-1.7l-0.2,0.6l2.6,3.7l1.4,3l1,3l0.3,2l0.5,3.4l-1,0.1c0,0-1.1-2.1-1.5-2.9l0.5-0.8l-1-1.4v-1.4l-0.7-0.9
			l-0.9,0.1c-0.3-0.6-0.6-1.1-1-1.7l0.6,0.3l0.2-0.2l-0.3-0.7l0.8-0.4l-0.3-0.4l-1.1,0.4l0.4-1.7l-0.7-0.4l-0.6,1.4
			c-1.2-1.9-2.6-3.6-4.2-5.3L150.8,61.1z M148.5,87.9l2.1-1.1l2.1-0.3l0.5-1l1.2-0.7l0.4-1l0.4-1.7c0.2,0.6,0.3,1.2,0.5,1.8
			l-1.1,3.3v1.1l1.6-2.2c0.3,2,0.5,4,0.6,6h-10l-0.2-0.9l1.2-0.9l0.2-0.6l0.5-0.4l1.4-0.1l0.1-0.6L148.5,87.9z M134.8,80.1l1-0.2
			v-0.2l-1-0.7l0.4-2.2l1.2-1.2c0.8,0.9,1.5,1.8,2.1,2.8l-0.4,1.3l-1.1-0.8l-0.9,0.2l0.4,0.8h0.4l-0.5,1.2l-0.3-0.5L134.8,80.1z
			 M139.1,118.1l-2.5-0.7l-0.7,0.3l-1.4-1.1l-1.3-0.5c0.7-0.5,1.3-1,1.9-1.5l2,1.4l1.6,0.8l0.8,0.8L139.1,118.1z M137.9,73.9
			l8.1-8.1c1.9,2.1,3.6,4.3,5,6.7l-1,0.3l0.1,1.8l3,1.9c0.8,1.7,1.4,3.4,1.9,5.1l-0.5,0.8l-1.1,0.7l-0.3,1.7l-0.8,0.4l-0.6,0.7
			l-0.6-0.2h-1.1l0.6-0.9l0.5-2.3l0.7-0.5l-2.1-2.1l-1.6,0.6l-0.4,1.5l-1,1.1l-1.1-0.9l-0.4-0.9l0.6-0.4l0.3,0.6l0.5-0.2l-0.2-1
			h-0.7l0,0.4l-0.5,0.1l-2.5-3l-0.9-0.7l0.3-0.4l0.8-0.3l-0.7-0.3c0,0-0.9,0.2-1,0.2l0.5,0.6h-1.3C139.7,76.1,138.8,75,137.9,73.9z
			 M142,117.1l-1.1-1.1l0.8-1.1l1.1-2.2l-0.4-0.6l0.7-1.6l-0.1-1.4l-0.4-1.5l-1-0.3l-0.4,0.8l-0.6-0.2c0.9-1.3,1.7-2.7,2.4-4.2
			l1-0.4l0.6-0.8l0.3,0.3l0.7-0.8l-0.6-0.7l0.5-0.1l0.9,0.4h1.8l1.1-0.6l2.8-0.7l-0.5-0.9l-0.2-1.1l1.5,0.7l0.6-0.3l-0.3-1.2
			l-1.8,0.7l-2-0.4l-1.5-3.2h8.8c-0.4,9.8-4.3,19-11.1,26.1l-1.2-1.2l0.5-1.6l-0.9-3.6L142,117.1z M143.6,139.4l1.1-2.3l-0.4-1
			l1.6-1.4v-0.8l-1.4-0.9l1.1-2.2l1.7-2.2l-1.7-1.8h-1.3l-0.8-1.3c0.7-0.6,1.3-1.1,2-1.7l8.1,8.1
			C150.6,134.8,147.2,137.3,143.6,139.4L143.6,139.4z M153.7,128.7l0.9-1l-0.9-4.4l-0.6-0.2l0.4-0.8l-1.9-0.6l-0.4,1.6l-0.2,2
			l-0.4,0.4l-3.5-3.5c7.2-7.5,11.4-17.3,11.7-27.7h11.5c-0.4,13.4-5.8,26.2-15.1,35.8L153.7,128.7z M156.8,131.9
			c9.8-10,15.4-23.4,15.8-37.4h11.5c-0.4,17-7.2,33.3-19.1,45.5L156.8,131.9z M87.8,120.8c-0.8-0.9-1.6-1.8-2.4-2.7l0.3-2.9
			l-1.2-2.8l-0.3-4.3l-1.4-2.6l0.3-1.6l-1.6-3.2l-1.4-0.7l0.6-1.7l-0.6-1.3l0.6-1.5h1.6l0.6-0.9h2.7l0.4,0.8l-0.5,2.8l-0.3,0.5
			l1,2.2l-0.7,0.4l-0.5-0.6l-0.2,0.2l0.5,1.3l0.8,1.5h0.4l0.3-1.5l-0.4-0.5v-0.9l-0.1-1.9l0.5-3.3l-0.5-0.9h1.9
			c0.4,6.8,3.2,13.3,7.9,18.2L87.8,120.8z M80.2,98.4l-1.1,1.7h-1.9l-0.2-0.1c-0.3-1.8-0.5-3.6-0.6-5.4H80l-0.8,2.8L80.2,98.4z
			 M84,90.5l0.2-2.3l1.4-0.8l2.4,0.4l0.4,0.4c-0.2,1.3-0.3,2.6-0.4,3.9h-2.7L84,90.5z M95.7,99.1l0.6-0.3l1.4,1.1l-0.7,0.5l1.7,1.1
			l0-1.2l0.9-1.5l0.9,1l1,1.4l-1.8,0.4l0.8,1.6l1.2-0.6l-0.1-0.5l0.9-0.6L103,99c0.7,1.5,1.5,2.8,2.6,4l-8.1,8.1
			c-4-4.2-6.5-9.5-7.1-15.2l1.7,1.8h1.6L95.7,99.1z M87.3,65.6l8.1,8.1c-1.7,1.9-3.1,3.9-4.3,6.2h-0.6l-1.1,0.3H89l-1.2,1.1l1.5-0.3
			l1.4-0.3l-0.2,0.5L89.3,82h-0.6l-1.8,1.4l-1.7-0.1l-2.5,4.6l0.5,0.9l-1.3,1.5l-0.2,2h-5.1C76.7,82.4,80.5,72.8,87.3,65.6z
			 M76.9,126.8l2.6,1.5l0.5,0.4l-1.9,1.9c-0.9-0.9-1.7-1.8-2.5-2.8L76.9,126.8z M74.3,94.5c0,1.1,0.1,2.2,0.3,3.3l-1.4,0.3l-0.3,1.4
			l-2.9,3.7l0.1,5.1l-3,1h-1.6c-1.6-4.8-2.4-9.8-2.6-14.9L74.3,94.5z M63,109.3l-0.7-0.1l-0.6-0.7l-3.2-0.3l1,1.3l-3-0.6l0.8-0.7
			l-0.7-0.7l-2.2,0.9l-0.8,1.4l0.3,3.3l2.5,5.9l1.2,1.9l0.7,0.2l-1.9-3.6l-0.4-1.8l0.4-0.4l-0.3-1l1.1,0.2l1.7,2.6l0.4,0.2v-1.9
			l0.7,0.4l0.2,1l1.8,0.5l0.8-0.5l0.3,0.2v1.4l0.8,1l1,0.2l2.1,3.6l1.3,0.4l0.4-1.7c2.2,3.7,4.9,7.1,7.9,10.2l-8.1,8.1
			c-12-12.2-19-28.5-19.4-45.6h11.5C60.7,99.5,61.5,104.5,63,109.3z M68,46.2l8.1,8.1c-9.8,10.2-15.4,23.8-15.5,37.9H49.1
			C49.3,75,56,58.6,68,46.2L68,46.2z M151,42l-0.7-1.1l-1.5-0.8l-1.2,0.9l1.5,0.8l1.6,1.2L151,42z M144,74.4v0.9l2-0.6l0.6-1.2
			l-1.4-1.8l0.7-1.1l1.9,1.3l0.3-0.3l-0.4-0.3l-0.4-0.8l0.8-0.4l-0.7-1l-1.7,0.9l-0.6,1.1l-0.4,1l0.8,1.3l-0.3,0.6L144,74.4z
			 M61.1,125.8l0.2-0.5l-1-2.2l-1.2-0.4L61.1,125.8z M107.9,82.7c0,1.9,1.2,3.3,3.3,4.4c0,0,0-0.3,0-0.9l-1.3-1.3l0.7-1.3l0.6-0.2
			c0-2.2-0.1-4.8-0.1-5.1H111C109,79.5,107.9,80.8,107.9,82.7z"/>
		<path class="st0" d="M120.8,132.4c3.6,1.8,6.9,4.3,8.3,9.1c0.6-7.9-3.8-11.3-8.2-13.6C120.8,127.9,120.8,132.4,120.8,132.4z"/>
		<path class="st0" d="M144.7,52.3c0-7.2-5.2-15.1-17.9-17.9c-1.3-0.2-2.6-0.4-3.9-0.5c0,1.1-0.1,3.6-0.1,3.6c0,0.8-0.1,3.7-0.1,4.3
			c0.8,0.1,1.6,0.2,2.4,0.3c7.4,1.8,10.1,6,10.1,10.2c0,6.8-5.8,9.4-13,11.3l-2.4,0.6c-2.2,0.5-4.4,1.1-6.6,1.7
			c-0.8,0.2-1.6,0.4-2.3,0.7l0,0c-7.9,2.4-14.8,6.2-14.8,16s7.8,13.3,15.4,15.7c0-2.8-0.1-5.6-0.2-8.4c-3.3-1.6-5.7-3.6-5.7-7.1
			s2.2-5.5,5.4-7c0.7-0.3,1.5-0.6,2.3-0.9c1.9-0.6,4-1.2,6.2-1.7l2.4-0.6l0,0C132.7,70,144.7,66.6,144.7,52.3z"/>
		<path class="st0" d="M106.2,120.7c0,3.9,2.9,6,5.8,7.7c0-0.7-0.1-6.7-0.1-6.8c0.1-1.2,1.2-1.9,2.2-2.4c1.5-0.7,3-1.2,4.6-1.8
			c0.9-0.3,1.6-0.6,2.4-0.8l0,0c5.8-1.8,12.5-4,12.5-11s-5.8-10-12-12.1c0,2.2-0.1,5.5-0.2,7.8c2.7,1,4.4,2.3,4.4,4.3
			c0,2.5-2.7,4-4.6,4.7c-0.8,0.3-2,0.7-2.3,0.8c-1.5,0.5-3.2,1-4.8,1.6c-0.8,0.3-1.6,0.6-2.3,1C109,115.1,106.2,117.2,106.2,120.7z"
			/>
		<path class="st0" d="M110.2,35c-2.4,0.8-4.7,1.7-7,2.8c-2.5,0.8-6,1-9.7,4.9c-1.2,1.4-2.3,2.8-3.3,4.3c-1.1,1.6-1.2,4.1-2,5.5
			c-1.2,2-0.9,3.1-0.9,3.1v0.1c-0.2,0.9-0.7,1.8-1.3,2.5c-1.1,1.4-2.9,2.1-4.7,1.9c1.7,0.8,4-0.3,4-0.3c-0.4,1.1-0.6,2.2-0.9,3.3
			c1.9-4.2,3.6-5.8,4.1-6.2c0.8,0.2,2.5,0.1,5.5-1.7c3.5-2,8.7-5.2,10.2-7.3c1.6-2.1,3.7-3.7,6.2-4.7
			C110.3,40.1,110.2,37.3,110.2,35z M95.5,48.2l-1.8,0.4l2.2-3.5l2.5,0.1L95.5,48.2z"/>
		<path class="st0" d="M117.4,120.3c-0.3,0.1-1.2,0.5-1.8,0.7s-1.3,0.5-1.3,0.7s0.6,30.4,0.6,31.1c0,6.2,3.2,6.3,3.2,0
			c0-0.4,0.6-32.9,0.6-32.9S117.9,120.1,117.4,120.3z"/>
		<path class="st0" d="M114.1,110.2c1-0.3,2-0.6,2.9-0.9l1.9-0.6c0-1.9,0.6-28.3,0.7-33.1c-2.1,0.5-4.1,1.1-6.2,1.8
			C113.5,80.9,114,107.4,114.1,110.2z"/>
		<path class="st0" d="M116.7,9.1c-8.9,0-5.1,13.3-4.4,17.6c0,0.2,0.7,30,0.9,36.8c1.4-0.4,2.7-0.7,4-1l2.7-0.7
			c0.1-6.6,0.8-35,0.8-35.2C121.2,22,125.9,9.1,116.7,9.1z"/>
	</g>
</g>
</svg>
