<svg xmlns="http://www.w3.org/2000/svg" xml:space="preserve" x="0" y="0" version="1.1" viewBox="0 0 233 196.1"><g fill="#0093d5"><path d="M179.7 41.7c3.9 4.6 10.6 7.3 14.6 11.9-2.8-13.6-13.4-24.8-25.8-27.4 6 4.5 7.3 10.9 11.2 15.5zM30.2 76.2C38.8 57.5 51.6 61.5 57 43.7c-3 5.5-17 7.8-23.5 21.7 3.3-8.3 1.7-21 7.2-27.8C23.9 50 31.1 69.9 30.2 76.2zm15.5 44.7c1.5 7.3-3 17.7 4.2 27.8-7.4-8.3-23.2-10.5-29.6-23.1 8 31 29 24.6 38.4 31.3-7.8-11.2-1.5-18.6-13-36zm-2.4 19.5c-4.6-17.3 3.6-23.3-2.7-39.9-.7 9.4-6.9 13.9-2.7 31-7.4-14.5-18.9-19.9-22.2-29.8.2 27.2 22.1 31.2 27.6 38.7zm33.5 29c-6.4-8.9-2-13.9-20.1-30.1 3.8 5.9-.1 13.3 12.1 24.9-11.9-7-28.4-4-36.3-13.4 13.6 26 37.5 15.4 44.3 18.6zm87.4-5.2c12.2-11.5 8.2-19 12.1-24.9-18.1 16.2-13.7 21.2-20.1 30.1 6.8-3.2 30.7 7.4 44.3-18.6-7.9 9.4-24.4 6.4-36.3 13.4zm18.9-15.5c7.2-10 2.7-20.5 4.2-27.8-11.6 17.4-5.2 24.8-13 36 9.4-6.7 30.4-.4 38.4-31.3-6.4 12.6-22.1 14.8-29.6 23.1zm-28.8 21.9c-6.5-1.7-13.1-2.7-19.8-3-6.1-.1-12.3.9-18 3.1-5.7-2.2-11.9-3.2-18-3.1-6.7.3-13.3 1.3-19.8 3-10.9 2.9-20.3 5.1-28.5 1 7.8 7 17 9.4 30.2 8 11-1.2 19.9-6.7 30.3-6.6h.4c-6.5 3.3-12.3 7.8-17.1 13.3l5 .7s5.3-10.6 17.4-13.4c12.1 2.8 17.4 13.4 17.4 13.4l5-.7c-4.8-5.5-10.6-10-17.1-13.2h.4c10.4-.1 19.3 5.4 30.3 6.6 13.2 1.4 22.4-1.1 30.2-8-8.1 4.1-17.5 1.8-28.3-1.1zm-113-88.9c-4.5 8.6-11.4 10.6-10.7 28.4C26.9 94.3 17.9 88.4 18 78.3c-6.2 26.3 10.4 29.4 14.7 40.4-.6-15.7 9.5-18.9 8.6-37zm6.3-20.3c-1.6 2.2-2.7 3.1-6.8 6.5-6.2 5-10.5 12-12.1 19.8.4-9.6-5.5-23.5-1.6-33.6-15.3 21.7.9 34.6 1.5 42.5 3.9-15.1 13.1-15.2 19-35.2zm156.7 26.3c-1.6-7.8-5.9-14.8-12.1-19.8-4.2-3.4-5.2-4.4-6.8-6.5 5.9 20 15.1 20.1 19 35.2.6-7.8 16.8-20.8 1.4-42.5 4 10.1-1.9 24-1.5 33.6zm13 14c-3.3 9.9-14.8 15.3-22.2 29.8 4.2-17.1-2-21.7-2.7-31-6.2 16.6 2 22.6-2.7 39.9 5.5-7.5 27.4-11.5 27.6-38.7zm-25.6-20c-.9 18.1 9.2 21.2 8.6 37 4.3-11 21-14.1 14.7-40.4.1 10.1-8.9 16-12.6 31.7.7-17.7-6.3-19.7-10.7-28.3zm-138.4-40c3.9-4.6 5.2-10.9 11.2-15.5-12.4 2.7-23 13.8-25.8 27.4 4-4.6 10.7-7.3 14.6-11.9zm122.8 2.1c5.4 17.8 18.2 13.8 26.8 32.5-.9-6.3 6.2-26.3-10.5-38.6 5.6 6.9 3.9 19.5 7.2 27.8-6.5-14-20.5-16.3-23.5-21.7zm-43.4 10c-3.3-1.3-6.7-2.3-10.2-2.8v2.3c3.2.5 6.4 1.3 9.4 2.6.4-.6.6-1.3.8-2.1zm-2.6-22 .7-.6-1.3-.5-3.4-.1-.9.6-2-.2v.5c1.2.1 2.4.2 3.5.4l1.7-.1h1.7zm-6.6 73.8c0-.6-.8-1.2-1.9-1.7h-.2c0 .5 0 2.8-.1 3.9 1.4-.6 2.2-1.3 2.2-2.2zM83.8 62.1l.3-1.2c-.5.1-.9.2-1.4.1l1.1 1.1zm32.8 100.6c38.5-.1 69.6-31.5 69.5-70-.1-35.6-27-65.4-62.4-69.1 0 .1 0 .3-.1.4-.1.7-.3 1.3-.4 1.8 15.3 1.5 29.7 8.2 40.6 19l-7.7 7.7.3-1.4-1-.4-1.4-.1.3-.9-.9-3.2-1.9-2.1-6-3.2-.5.5-1.1.3c2.1 3 3.2 6.5 3.2 10.1v1.4l3 3.8-1.4.3.9 1.4-2.6 2.6-1.1-2c-.5 1.4-1.2 2.7-2 3.9l.6.5-8.1 8.1c-.5-.5-1-.9-1.5-1.3-.8.4-1.6.7-2.4 1l.7.5-.4.4-1 .5-.3 1-.6-.6-1.7.6.5.8 1.2-.3.8.1.1-.4.6-.3.2-.3 1.1-.3h.8c.2.1.3.3.5.4l-3.3 3.1-.2-.3-3.4.6-.8.8-.7.1 2.1-2-.7-.4-1.9 2.6.6-.1v1l.7.3.1 1-1.2-.2-1.2.2-3-1.5s-.2 7.9-.2 11.9c7 2.3 14.3 5.7 14.3 14.6.1 3.8-1.8 7.3-5 9.4l-.1.1-.2.2c-2.8 1.9-6.4 2.9-9.6 3.8l-.1 6.2c5 2.5 11.1 6.1 10.5 16.4-.1 2.5-1.1 3.2-1.9 3.5-3 .7-6 1.2-9 1.4v2.3c13-.9 25.3-6.3 34.8-15.4l8.1 8.1c-26 25.1-67.2 25.2-93.3.2l8.1-8.1c9.3 8.9 21.5 14.2 34.3 15.2v-2.3c-12.2-.9-23.8-6-32.7-14.5l2.2-2.2 3 .3 1.6-1.7 4.1.1.6-1.4-.2-.6c6.1 4.7 13.4 7.6 21.1 8.4v-2.3c-8.5-1-16.5-4.6-22.7-10.4l8.1-8.1c2 1.8 4.2 3.2 6.6 4.4.2-.7.4-1.5.8-2.1-2.1-1-4-2.3-5.8-3.9l8.1-8.1c1.3 1 2.8 1.9 4.3 2.4v-2.4c-1-.4-1.9-1-2.7-1.6l2.3-2.3c-.8-.2-1.6-.5-2.4-.8l-1.5 1.5c-.8-.9-1.4-1.8-1.9-2.9-1.4-.6-2.7-1.3-4-2.1-4.8-2.9-7.7-8.2-7.6-13.8-.1-3.8 1-7.5 3.3-10.5l-8.5-8c5.9-5.7 13.5-9.4 21.6-10.6 0-.8 0-1.5-.1-2.3-8.7 1.3-16.8 5.2-23.2 11.3L86 61.1c-.3.5-.7 1.2-1.1 2.1l.9.9c-7.2 7.6-11.3 17.7-11.5 28.2H62.8C63 78.7 68.3 65.8 77.7 56l3.6 3.7h.5c.7-.1 1.4-.3 2.1-.6l-4.6-4.6c2.5-2.4 5.1-4.5 8-6.4.2-.6.3-1.1.6-1.7.5-.8 1.1-1.6 1.8-2.3-4.3 2.4-8.4 5.3-11.9 8.8l-8.1-8.1c10.9-10.6 25-17.2 40.1-18.8-.1-.3-.1-.5-.1-.5-.1-.5-.2-1.1-.3-1.7-38.3 4.1-66.1 38.4-62 76.7 3.6 35.3 33.5 62.2 69.2 62.2zm15.1-48.2zm33.8-68.1c11.8 12.4 18.5 28.7 18.6 45.8h-11.5c-.1-8.5-2.2-16.9-6-24.5l.1-.2.8.4.2-.6-2-3.6-2.4-3.4-2.9-2.3c-1-1.2-2-2.4-3.1-3.5l8.2-8.1zm-14.7 14.7 2.8.1.7.8-.3 1.2 3.8 2.4.8-.1 4.9 5.6 2-.7c3.2 6.9 4.9 14.3 5 21.9H159c0-2.9-.4-5.9-1.1-8.7l.5-.7.7-3.6-.5-3.9-1.4-4.4-3.2-4.7.8.4.4-.4-2.6-1.7-.2.6 2.6 3.7 1.4 3 1 3 .3 2 .5 3.4-1 .1s-1.1-2.1-1.5-2.9l.5-.8-1-1.4v-1.4l-.7-.9-.9.1c-.3-.6-.6-1.1-1-1.7l.6.3.2-.2-.3-.7.8-.4-.3-.4-1.1.4.4-1.7-.7-.4-.6 1.4c-1.2-1.9-2.6-3.6-4.2-5.3l3.4-3.3zm-2.3 26.8 2.1-1.1 2.1-.3.5-1 1.2-.7.4-1 .4-1.7c.2.6.3 1.2.5 1.8l-1.1 3.3v1.1l1.6-2.2c.3 2 .5 4 .6 6h-10l-.2-.9 1.2-.9.2-.6.5-.4 1.4-.1.1-.6-1.5-.7zm-13.7-7.8 1-.2v-.2l-1-.7.4-2.2 1.2-1.2c.8.9 1.5 1.8 2.1 2.8l-.4 1.3-1.1-.8-.9.2.4.8h.4l-.5 1.2-.3-.5-1.3-.5zm4.3 38-2.5-.7-.7.3-1.4-1.1-1.3-.5c.7-.5 1.3-1 1.9-1.5l2 1.4 1.6.8.8.8-.4.5zm-1.2-44.2 8.1-8.1c1.9 2.1 3.6 4.3 5 6.7l-1 .3.1 1.8 3 1.9c.8 1.7 1.4 3.4 1.9 5.1l-.5.8-1.1.7-.3 1.7-.8.4-.6.7-.6-.2H150l.6-.9.5-2.3.7-.5-2.1-2.1-1.6.6-.4 1.5-1 1.1-1.1-.9-.4-.9.6-.4.3.6.5-.2-.2-1h-.7v.4l-.5.1-2.5-3-.9-.7.3-.4.8-.3-.7-.3s-.9.2-1 .2l.5.6h-1.3c-.7-.8-1.6-1.9-2.5-3zm4.1 43.2-1.1-1.1.8-1.1 1.1-2.2-.4-.6.7-1.6-.1-1.4-.4-1.5-1-.3-.4.8-.6-.2c.9-1.3 1.7-2.7 2.4-4.2l1-.4.6-.8.3.3.7-.8-.6-.7.5-.1.9.4h1.8l1.1-.6 2.8-.7-.5-.9-.2-1.1 1.5.7.6-.3-.3-1.2-1.8.7-2-.4-1.5-3.2h8.8c-.4 9.8-4.3 19-11.1 26.1l-1.2-1.2.5-1.6-.9-3.6-2 2.8zm1.6 22.3 1.1-2.3-.4-1 1.6-1.4v-.8l-1.4-.9 1.1-2.2 1.7-2.2-1.7-1.8h-1.3l-.8-1.3c.7-.6 1.3-1.1 2-1.7l8.1 8.1c-3 2.9-6.4 5.4-10 7.5zm10.1-10.7.9-1-.9-4.4-.6-.2.4-.8-1.9-.6-.4 1.6-.2 2-.4.4-3.5-3.5c7.2-7.5 11.4-17.3 11.7-27.7h11.5c-.4 13.4-5.8 26.2-15.1 35.8l-1.5-1.6zm3.1 3.2c9.8-10 15.4-23.4 15.8-37.4h11.5c-.4 17-7.2 33.3-19.1 45.5l-8.2-8.1zm-69-11.1-2.4-2.7.3-2.9-1.2-2.8-.3-4.3-1.4-2.6.3-1.6-1.6-3.2-1.4-.7.6-1.7-.6-1.3.6-1.5h1.6l.6-.9h2.7l.4.8-.5 2.8-.3.5 1 2.2-.7.4-.5-.6-.2.2.5 1.3.8 1.5h.4l.3-1.5-.4-.5v-.9l-.1-1.9.5-3.3-.5-.9h1.9c.4 6.8 3.2 13.3 7.9 18.2l-8.3 7.9zm-7.6-22.4-1.1 1.7h-1.9l-.2-.1c-.3-1.8-.5-3.6-.6-5.4H80l-.8 2.8 1 1zm3.8-7.9.2-2.3 1.4-.8 2.4.4.4.4c-.2 1.3-.3 2.6-.4 3.9h-2.7L84 90.5zm11.7 8.6.6-.3 1.4 1.1-.7.5 1.7 1.1v-1.2l.9-1.5.9 1 1 1.4-1.8.4.8 1.6 1.2-.6-.1-.5.9-.6.5-2.5c.7 1.5 1.5 2.8 2.6 4l-8.1 8.1c-4-4.2-6.5-9.5-7.1-15.2l1.7 1.8h1.6l2 1.4zm-8.4-33.5 8.1 8.1c-1.7 1.9-3.1 3.9-4.3 6.2h-.6l-1.1.3H89l-1.2 1.1 1.5-.3 1.4-.3-.2.5-1.2.8h-.6l-1.8 1.4-1.7-.1-2.5 4.6.5.9-1.3 1.5-.2 2h-5.1c.1-9.9 3.9-19.5 10.7-26.7zm-10.4 61.2 2.6 1.5.5.4-1.9 1.9c-.9-.9-1.7-1.8-2.5-2.8l1.3-1zm-2.6-32.3c0 1.1.1 2.2.3 3.3l-1.4.3-.3 1.4-2.9 3.7.1 5.1-3 1h-1.6c-1.6-4.8-2.4-9.8-2.6-14.9l11.4.1zM63 109.3l-.7-.1-.6-.7-3.2-.3 1 1.3-3-.6.8-.7-.7-.7-2.2.9-.8 1.4.3 3.3 2.5 5.9 1.2 1.9.7.2-1.9-3.6-.4-1.8.4-.4-.3-1 1.1.2 1.7 2.6.4.2v-1.9l.7.4.2 1 1.8.5.8-.5.3.2v1.4l.8 1 1 .2 2.1 3.6 1.3.4.4-1.7c2.2 3.7 4.9 7.1 7.9 10.2l-8.1 8.1c-12-12.2-19-28.5-19.4-45.6h11.5c.1 4.9.9 9.9 2.4 14.7zm5-63.1 8.1 8.1c-9.8 10.2-15.4 23.8-15.5 37.9H49.1C49.3 75 56 58.6 68 46.2zm83-4.2-.7-1.1-1.5-.8-1.2.9 1.5.8 1.6 1.2.3-1zm-7 32.4v.9l2-.6.6-1.2-1.4-1.8.7-1.1 1.9 1.3.3-.3-.4-.3-.4-.8.8-.4-.7-1-1.7.9-.6 1.1-.4 1 .8 1.3-.3.6-1.2.4zm-82.9 51.4.2-.5-1-2.2-1.2-.4 2 3.1zm46.8-43.1c0 1.9 1.2 3.3 3.3 4.4v-.9l-1.3-1.3.7-1.3.6-.2c0-2.2-.1-4.8-.1-5.1h-.1c-2 1.2-3.1 2.5-3.1 4.4z"/><path d="M120.8 132.4c3.6 1.8 6.9 4.3 8.3 9.1.6-7.9-3.8-11.3-8.2-13.6-.1 0-.1 4.5-.1 4.5zm23.9-80.1c0-7.2-5.2-15.1-17.9-17.9-1.3-.2-2.6-.4-3.9-.5 0 1.1-.1 3.6-.1 3.6 0 .8-.1 3.7-.1 4.3l2.4.3c7.4 1.8 10.1 6 10.1 10.2 0 6.8-5.8 9.4-13 11.3l-2.4.6c-2.2.5-4.4 1.1-6.6 1.7-.8.2-1.6.4-2.3.7-7.9 2.4-14.8 6.2-14.8 16s7.8 13.3 15.4 15.7c0-2.8-.1-5.6-.2-8.4-3.3-1.6-5.7-3.6-5.7-7.1s2.2-5.5 5.4-7c.7-.3 1.5-.6 2.3-.9 1.9-.6 4-1.2 6.2-1.7l2.4-.6c10.8-2.6 22.8-6 22.8-20.3zm-38.5 68.4c0 3.9 2.9 6 5.8 7.7 0-.7-.1-6.7-.1-6.8.1-1.2 1.2-1.9 2.2-2.4 1.5-.7 3-1.2 4.6-1.8.9-.3 1.6-.6 2.4-.8 5.8-1.8 12.5-4 12.5-11s-5.8-10-12-12.1c0 2.2-.1 5.5-.2 7.8 2.7 1 4.4 2.3 4.4 4.3 0 2.5-2.7 4-4.6 4.7-.8.3-2 .7-2.3.8-1.5.5-3.2 1-4.8 1.6-.8.3-1.6.6-2.3 1-2.8 1.4-5.6 3.5-5.6 7zm4-85.7c-2.4.8-4.7 1.7-7 2.8-2.5.8-6 1-9.7 4.9-1.2 1.4-2.3 2.8-3.3 4.3-1.1 1.6-1.2 4.1-2 5.5-1.2 2-.9 3.1-.9 3.1v.1c-.2.9-.7 1.8-1.3 2.5-1.1 1.4-2.9 2.1-4.7 1.9 1.7.8 4-.3 4-.3-.4 1.1-.6 2.2-.9 3.3 1.9-4.2 3.6-5.8 4.1-6.2.8.2 2.5.1 5.5-1.7 3.5-2 8.7-5.2 10.2-7.3 1.6-2.1 3.7-3.7 6.2-4.7-.1-3.1-.2-5.9-.2-8.2zM95.5 48.2l-1.8.4 2.2-3.5 2.5.1-2.9 3z"/><path d="M117.4 120.3c-.3.1-1.2.5-1.8.7s-1.3.5-1.3.7.6 30.4.6 31.1c0 6.2 3.2 6.3 3.2 0 0-.4.6-32.9.6-32.9s-.8.2-1.3.4zm-3.3-10.1c1-.3 2-.6 2.9-.9l1.9-.6c0-1.9.6-28.3.7-33.1-2.1.5-4.1 1.1-6.2 1.8.1 3.5.6 30 .7 32.8zm2.6-101.1c-8.9 0-5.1 13.3-4.4 17.6 0 .2.7 30 .9 36.8 1.4-.4 2.7-.7 4-1l2.7-.7c.1-6.6.8-35 .8-35.2.5-4.6 5.2-17.5-4-17.5z"/></g></svg>