<?xml version="1.0" encoding="utf-8"?>
<!-- Generator: Adobe Illustrator 24.0.1, SVG Export Plug-In . SVG Version: 6.00 Build 0)  -->
<svg version="1.1" id="Layer_1" xmlns="http://www.w3.org/2000/svg" xmlns:xlink="http://www.w3.org/1999/xlink" x="0px" y="0px"
	 viewBox="0 0 163 57.1" style="enable-background:new 0 0 163 57.1;" xml:space="preserve">
<style type="text/css">
	.st0{fill:url(#SVGID_1_);}
	.st1{fill:#FFFFFF;}
</style>
<linearGradient id="SVGID_1_" gradientUnits="userSpaceOnUse" x1="0" y1="28.5647" x2="162.9933" y2="28.5647">
	<stop  offset="0" style="stop-color:#0047A8"/>
	<stop  offset="1" style="stop-color:#2BBCFF"/>
</linearGradient>
<rect class="st0" width="163" height="57.1"/>
<g>
	<g>
		<g>
			<path class="st1" d="M153.6,22.5c-0.7-1.6-1.7-3-2.8-4.2c-1.2-1.2-2.6-2.1-4.2-2.8c-1.6-0.7-3.3-1-5.1-1c-1.8,0-3.6,0.3-5.1,1
				c-0.8,0.3-1.5,0.7-2.2,1.2c-0.7,0.5-1.4,1-2,1.6c-0.4,0.4-0.7,0.8-1.1,1.2c-0.4,0.5-0.8,1.1-1,1.4c-0.3,0.5-1,1.9-1.3,2.8
				c0-1.6,0.3-4.1,1.3-5.5V6.4c0-0.8-0.3-1.4-0.8-2c-0.6-0.5-1.2-0.8-1.9-0.8c-0.8,0-1.4,0.3-2,0.8c-0.5,0.5-0.8,1.2-0.8,2v10.6
				c-1.1-0.8-2.3-1.4-3.6-1.8c-1.3-0.4-2.6-0.7-4-0.7c-1.8,0-3.5,0.3-5.1,1c-1.6,0.7-3,1.6-4.2,2.8c-1.2,1.2-2.1,2.6-2.8,4.2
				c-0.1,0.1-0.1,0.2-0.2,0.4c0-0.1-0.1-0.2-0.1-0.4c-0.7-1.6-1.7-3-2.8-4.2c-1.2-1.2-2.6-2.1-4.2-2.8c-1.6-0.7-3.3-1-5.1-1
				c-1.8,0-3.6,0.3-5.1,1c-1.6,0.7-3,1.6-4.2,2.8c-1.2,1.2-2.2,2.6-2.8,4.2c0,0.1-0.1,0.2-0.1,0.3c0-0.1-0.1-0.2-0.1-0.3
				c-0.7-1.6-1.7-3-2.8-4.2c-1.2-1.2-2.6-2.1-4.2-2.8c-1.6-0.7-3.3-1-5.1-1c-1.8,0-3.6,0.3-5.1,1c-1.6,0.7-3,1.6-4.2,2.8
				c-1.2,1.2-2.2,2.6-2.8,4.2c0,0.1-0.1,0.2-0.1,0.3c0-0.1-0.1-0.2-0.1-0.3c-0.7-1.6-1.7-3-2.8-4.2c-1.2-1.2-2.6-2.1-4.2-2.8
				c-1.6-0.7-3.3-1-5.1-1c-1.8,0-3.6,0.3-5.1,1c-1.5,0.6-2.8,1.5-3.9,2.6v-0.4c0-1.6-1.3-2.8-2.8-2.8H11.6c-1.6,0-2.8,1.3-2.8,2.8
				c0,1.6,1.3,2.8,2.8,2.8h15.5L8.9,44.9c-0.4,0.5-0.6,1.1-0.6,1.7v1.8c0,1.6,1.3,2.8,2.8,2.8h21c1.5,0,2.7-1.2,2.8-2.6
				c0.9,0.7,2,1.4,3.1,1.8c1.6,0.7,3.3,1,5.1,1c2.7,0,5.2-0.7,7.3-2.2c1.7-1.2,3.1-2.6,4.1-4.4v3.8c0,0.8,0.3,1.4,0.8,2
				c0.5,0.5,1.2,0.8,2,0.8c0.7,0,1.4-0.3,1.9-0.8c0.6-0.5,0.8-1.2,0.8-2v-9.9h0c0,0,0,0,0,0s-6.1,0-6.9,0c-0.6,0-1.1,0.2-1.6,0.5
				c-0.5,0.3-0.8,0.7-1,1.3l-0.5,0.9c-0.6,1.4-1.6,2.4-2.8,3.2c-1.2,0.8-2.6,1.2-4.2,1.2c-1,0-2-0.2-3-0.6c-0.9-0.4-1.8-0.9-2.4-1.6
				c-0.7-0.7-1.2-1.5-1.6-2.4c-0.4-0.9-0.6-1.9-0.6-2.9v-2.5h17.7h1.3h5.5v-8.4c0-1,0.2-2,0.6-2.9c0.4-0.9,0.9-1.7,1.6-2.4
				c0.7-0.7,1.5-1.2,2.4-1.6c0.9-0.4,1.9-0.6,3-0.6c1,0,2,0.2,3,0.6c0.9,0.4,1.8,0.9,2.4,1.6c0.7,0.7,1.2,1.5,1.6,2.4
				c0.4,0.9,0.6,1.9,0.6,2.9v21.2c0,0.8,0.3,1.4,0.8,2c0.5,0.5,1.2,0.8,2,0.8c0.7,0,1.4-0.3,1.9-0.8c0.6-0.5,0.8-1.2,0.8-2V45
				c0.6,1,1.3,1.9,2.1,2.7c1.2,1.2,2.6,2.1,4.2,2.8c1.6,0.7,3.3,1,5.1,1c1.8,0,3.5-0.3,5.1-1c1.6-0.7,3-1.6,4.2-2.8
				c1.2-1.2,2.2-2.6,2.8-4.2c0-0.1,0.1-0.2,0.1-0.3c0,0.1,0.1,0.2,0.1,0.3c0.7,1.6,1.6,3,2.8,4.2c1.2,1.2,2.6,2.1,4.2,2.8
				c1.6,0.7,3.3,1,5.1,1c1.8,0,3.5-0.3,5.1-1c1.6-0.7,3-1.6,4.2-2.8c1.2-1.2,2.1-2.6,2.8-4.2c0.1-0.1,0.1-0.2,0.1-0.4
				c0,0.1,0.1,0.2,0.1,0.4c0.7,1.6,1.7,3,2.8,4.2c1.2,1.2,2.6,2.1,4.2,2.8c1.6,0.7,3.3,1,5.1,1c1.8,0,3.5-0.3,5.1-1
				c1.6-0.7,3-1.6,4.2-2.8c1.2-1.2,2.2-2.6,2.8-4.2c0.7-1.6,1-3.3,1-5.1V27.6C154.7,25.8,154.3,24.1,153.6,22.5z M15.4,45.6
				l14.8-19.9C30.1,26.4,30,27,30,27.6v10.9c0,1.8,0.4,3.5,1.1,5.1c0.3,0.8,0.7,1.5,1.2,2.1c0,0,0,0,0,0L15.4,45.6L15.4,45.6z
				 M50.9,30.4H35.6v-2.8c0-1,0.2-2,0.6-2.9c0.4-0.9,0.9-1.7,1.6-2.4c0.7-0.7,1.5-1.2,2.4-1.6c0.9-0.4,1.9-0.6,3-0.6
				c1,0,2,0.2,2.9,0.6c0.9,0.4,1.8,0.9,2.4,1.6c0.7,0.7,1.2,1.5,1.6,2.4c0.4,0.9,0.6,1.9,0.6,2.9C50.9,27.6,50.9,30.4,50.9,30.4z
				 M100,38.4c0,1-0.2,2-0.6,2.9c-0.4,0.9-0.9,1.7-1.6,2.4c-0.7,0.7-1.5,1.2-2.4,1.6c-0.9,0.4-1.9,0.6-3,0.6c-1,0-2-0.2-3-0.6
				c-0.9-0.4-1.8-0.9-2.4-1.6c-0.7-0.7-1.2-1.5-1.6-2.4s-0.6-1.9-0.6-2.9V27.6c0-1,0.2-2,0.6-2.9c0.4-0.9,0.9-1.7,1.6-2.4
				c0.7-0.7,1.5-1.2,2.4-1.6c0.9-0.4,1.9-0.6,3-0.6c1,0,2,0.2,2.9,0.6c1,0.4,1.8,0.9,2.4,1.6c0.7,0.7,1.2,1.5,1.6,2.4
				c0.4,0.9,0.6,1.9,0.6,2.9C100,27.6,100,38.4,100,38.4z M124.6,38.4c0,1-0.2,2-0.6,2.9c-0.4,0.9-1,1.7-1.6,2.4
				c-0.7,0.7-1.5,1.2-2.4,1.6c-0.9,0.4-1.9,0.6-2.9,0.6c-1.1,0-2.1-0.2-3-0.6c-0.9-0.4-1.7-0.9-2.4-1.6c-0.7-0.7-1.3-1.5-1.6-2.4
				s-0.6-1.9-0.6-2.9V27.6c0-1,0.2-2,0.6-2.9c0.4-0.9,1-1.7,1.6-2.4c0.7-0.7,1.5-1.2,2.4-1.6c1-0.4,1.9-0.6,3-0.6
				c1.1,0,2.1,0.2,3,0.6c0.9,0.4,1.7,0.9,2.4,1.6c0.7,0.7,1.3,1.5,1.6,2.4c0.4,0.9,0.6,1.9,0.6,2.9L124.6,38.4L124.6,38.4z
				 M149.1,38.4c0,1-0.2,2-0.6,2.9c-0.4,0.9-0.9,1.7-1.6,2.4c-0.7,0.7-1.5,1.2-2.4,1.6c-0.9,0.4-1.9,0.6-3,0.6c-1,0-2-0.2-3-0.6
				c-0.9-0.4-1.8-0.9-2.4-1.6c-0.7-0.7-1.2-1.5-1.6-2.4s-0.6-1.9-0.6-2.9V27.6c0-1,0.2-2,0.6-2.9c0.4-0.9,0.9-1.7,1.6-2.4
				c0.7-0.7,1.5-1.2,2.4-1.6c0.9-0.4,1.9-0.6,3-0.6c1,0,2,0.2,2.9,0.6c0.9,0.4,1.8,0.9,2.4,1.6c0.7,0.7,1.2,1.5,1.6,2.4
				c0.4,0.9,0.6,1.9,0.6,2.9L149.1,38.4L149.1,38.4z"/>
		</g>
	</g>
</g>
</svg>
