<?xml version="1.0" encoding="utf-8"?>
<!-- Generator: Adobe Illustrator 25.0.0, SVG Export Plug-In . SVG Version: 6.00 Build 0)  -->
<svg version="1.1" id="Layer_1" xmlns="http://www.w3.org/2000/svg" xmlns:xlink="http://www.w3.org/1999/xlink" x="0px" y="0px"
	 viewBox="0 0 1280 1024" style="enable-background:new 0 0 1280 1024;" xml:space="preserve">
<style type="text/css">
	.st0{fill:#1E4065;}
	.st1{fill:#295378;}
	.st2{fill:#D0EAFC;}
	.st3{fill:#C14663;}
</style>
<g>
	<path class="st0" d="M1228.3,831.7c-0.3-4-2.7-6.5-7.1-7c-6.3-0.6-12.6-1.3-19-1.4c-49.1-0.7-98.2,0.1-147.4-1.4
		c-36.4-1.1-72.9-0.2-109.3-0.3c-5.2,0-10.3,0-15.5,0.9c-3.5,0.6-7.1,0.9-10.4-0.9c-9.5-5.1-18.9-10.2-28.3-15.5
		c-4-2.2-3.9-3.2-0.3-6.5c0.5-0.5,1.1-1,1.7-1.4c14.7-11,28.4-23.4,41.8-36.2c18.9-18,36.7-37.4,52.8-58.3
		c25-32.3,46.2-67.4,62.2-106c9.6-23.1,17.3-46.8,22.6-71.4c4-18.7,5.9-37.6,7.2-56.7c1.8-25.6,0.1-51-4.3-76
		c-5.6-30.9-14.9-60.3-29.7-87.8c-13.3-24.9-29.2-47.5-47.7-67.9c-15.6-17.3-33.2-32.3-51.8-45.8c-2.6-1.9-5.1-3.6-4.3-7.8
		c2.8-14.5-3.5-24.1-14.1-32.1c-34.6-26-73.8-38.6-114.7-46.4c-15.5-3-31.2-4.6-46.7-7c-28.9-4.5-58-5.7-87.1-6.6
		c-12.2-0.4-24.4,0.8-36.6,1c-25.9,0.4-51.5,4.3-77.2,7.5c-19.1,2.4-38.1,6.3-56.9,10.8c-23.8,5.8-46.6,14.1-68.1,26.5
		c-10.8,6.2-21.5,12.6-30.2,22.3c-5.2,5.9-7.8,12.8-6.3,20.9c1.1,5.4-0.6,8.4-4.6,11.4c-26.8,20.1-51.1,43-71.7,70.7
		c-21.5,28.9-38.2,60.4-48.5,95.8c-15.1,51.4-16.6,103.6-7.3,156.3c6.9,39.1,20.2,75.7,37.7,110.7c19.2,38.4,43.7,72.4,71.1,104.1
		c21,24.2,44.3,45.5,69,65.2c1.5,1.2,3,2.4,4.5,3.7c4.5,3.9,4.5,4.5-0.8,7.8c-1.6,1-3.4,1.8-5,2.7c-5.6,3.1-11.5,6-16.9,9.5
		c-4.9,3.2-9.9,4.5-15.5,3.5c-5.8-1.1-11.7-1-17.6-1c-50.3,0-100.6,0-150.9,1.1c-33.4,0.8-66.8,0.3-100.1,0.5
		c-7.3,0.1-14.5,0.7-21.8,1.3c-4.6,0.4-7.8,3.5-7.9,7.2c-0.1,3.7,2.6,7.1,6.9,8.6c3.2,1.1,6.5,1,9.8,1c23.7,0.1,47.5-0.5,71.2-0.9
		c44.9-0.8,89.8-0.5,134.7-0.6c18.1-0.1,36.1-2,54.2-1.3c2.4,0.1,5.1-0.9,7.1,1.2c-0.2,2.1-1.5,3-2.4,4.1c-5.5,7-5.3,8.8,1.5,14.7
		c13.7,11.9,29.3,20.2,45.3,27.6c23,10.6,46.9,18.1,70.9,25.5c45.6,14,92.2,19,139.4,20.1c21.1,0.5,42.3,0.1,63.4-1.5
		c18.1-1.3,36.1-2.6,54-5.7c28.8-4.9,57.1-12.9,84.9-22.2c23.1-7.8,45.8-17,67.1-29.7c7.4-4.4,14.5-9.6,21.3-14.9
		c5.3-4.2,5.4-7,1-12.6c-1.3-1.7-3.4-2.8-3.9-5.8c2.6-1.4,5-0.9,7.3-0.9c15.3,0.1,30.5,0.8,45.8,1.1c53.8,1.2,107.6-0.6,161.4,1.6
		c17.4,0.7,34.8,0.1,52.2,0.1c3.8,0,7.5-0.4,11.2-1.3C1226.5,839,1228.6,836,1228.3,831.7z M898.5,196.9c-8.1-2.4-16.3-4.9-23.6-9.9
		c-3.7-2.5-7.7-2.6-11.2,0.4c-7.9,6.6-17.2,7.8-26.6,8.7c-20,1.8-37.9-5.7-55.1-15.7c-2.1-1.2-4.3-2.3-6-4
		c-5.4-5.1-11.1-4.4-17.1-1.7c-1.5,0.7-3.2,1.1-4.6,2c-11.1,7-22.9,6.5-34.9,3.8c-13.6-3.1-27.2-6.5-39.1-14.7
		c-5-3.4-9.4-3.7-14.4-0.3c-14.5,9.7-30.8,13.6-47.4,16.3c-7.5,1.2-14.9,1.2-22-2.8c-4.1-2.4-8.7-3.7-13.1-5.5
		c-4.6-1.9-8.4-0.9-12.5,2.2c-13.7,10.2-28.8,17.1-45.3,19.9c-10.8,1.8-21.6,0.9-32.2-2.1c-3.9-1.1-7.5-2.8-10.8-5.5
		c-4-3.3-8.2-3.4-12.5-0.7c-12.9,8.1-26.9,11.7-41.6,13.1c-4.7,0.5-9.2-0.6-14.8-1.7c3.9-5,8.3-7.3,12.7-9.1
		c8.3-3.4,16.8-6.7,25.3-9.5c36.2-12.3,73-21.3,110.4-28.1c23.9-4.3,47.9-7.2,72-9.3c14.1-1.2,28-3,42.2-2.9
		c10.4,0.1,20.6,1.3,30.9,2.5c12.9,1.4,25.8,2,38.6,3.8c31.7,4.4,63.2,10,94.3,18.1c23.1,6,46.1,12.3,68.5,21
		c5.5,2.2,11.1,4.3,16.2,7.4c2.2,1.3,4.8,2.2,6.2,6.2C919.5,201.5,908.9,200,898.5,196.9z M415.4,170.6c3.1-4.5,6.8-8.5,11-11.7
		c17.3-13.1,36-23,56.2-29.5c36-11.4,72.7-18.2,110-21.8c17.3-1.7,34.6-3.8,52-4.2c7.3-0.6,14.5,0.9,21.8,1.1
		c9.2,0.3,18.3-0.5,27.5-1c17.4-1,34.7,1.4,52,3.2c15,1.6,29.9,3.3,44.8,5.7c31,5,61.6,11.5,90.8,24.2c14.7,6.4,28.5,14.5,41.1,25
		c3.9,3.3,7.7,6.8,9.3,12.2c0.6,2.2,1.5,4.5-0.1,6.6c-1.9,2.4-3.9,0.6-5.8-0.2c-3.3-1.3-6.6-2.6-9.8-4.3
		c-19.3-9.8-40.1-14.7-60.5-20.4c-18.4-5.2-36.9-10.3-55.7-13.7c-22.7-4.2-45.4-8.4-68.4-10.1c-25.3-1.9-50.7-3.5-76-2.4
		c-25.6,1.1-51.1,2.6-76.5,6.5c-44.6,6.9-88.1,18.5-131.2,32.4c-9,2.9-17.6,7.2-26.2,11.3c-2.4,1.1-5.3,4.2-7.6,1.1
		C411.8,177.4,413.4,173.5,415.4,170.6z M929.5,858.2c-24.7,14-51.2,22.8-77.8,31.4c-25.7,8.3-51.7,15.3-78.2,19.7
		c-20.4,3.3-40.9,6.5-61.6,7.3c-12.9,0.5-25.8,1.9-38.4,2.8c-23.7-2-47.2-2.7-70.5-5.6c-24.8-3-49.3-7.5-73.5-14
		c-28.1-7.5-55.8-16.2-82.9-27.2c-10.6-4.3-20.7-9.7-30.9-14.8c-5.7-2.9-5.9-4.9-0.5-8.8c6.4-4.7,13-9.1,19.7-13.4
		c12.8-8.2,25.8-15.8,40-20.7c4-1.4,7.7-1.6,11.7-0.5c28,7.7,56.3,14.3,84.9,18.9c20.2,3.3,40.5,5.7,60.9,7.1
		c24.2,1.8,48.4,1.7,72.6,0.7c19-0.7,37.9-3,56.8-5.9c18.4-2.9,36.7-5.9,54.8-10.3c14.4-3.5,29.1-6,43.3-10.6
		c3.8-1.2,7.2-0.8,10.9,0.5c21.2,7.1,39.4,20.2,58.1,32.5c0.6,0.4,1.2,0.9,1.7,1.3C936.2,853.5,936.1,854.5,929.5,858.2z"/>
	<path class="st1" d="M929.5,858.2c-24.7,14-51.2,22.8-77.8,31.4c-25.7,8.3-51.7,15.3-78.2,19.7c-20.4,3.3-40.9,6.5-61.6,7.3
		c-12.9,0.5-25.8,1.9-38.4,2.8c-23.7-2-47.2-2.7-70.5-5.6c-24.8-3-49.3-7.5-73.5-14c-28.1-7.5-55.8-16.2-82.9-27.2
		c-10.6-4.3-20.7-9.7-30.9-14.8c-5.7-2.9-5.9-4.9-0.5-8.8c6.4-4.7,13-9.1,19.7-13.4c12.8-8.2,25.8-15.8,40-20.7
		c4-1.4,7.7-1.6,11.7-0.5c28,7.7,56.3,14.3,84.9,18.9c20.2,3.3,40.5,5.7,60.9,7.1c24.2,1.8,48.4,1.7,72.6,0.7
		c19-0.7,37.9-3,56.8-5.9c18.4-2.9,36.7-5.9,54.8-10.3c14.4-3.5,29.1-6,43.3-10.6c3.8-1.2,7.2-0.8,10.9,0.5
		c21.2,7.1,39.4,20.2,58.1,32.5c0.6,0.4,1.2,0.9,1.7,1.3C936.2,853.5,936.1,854.5,929.5,858.2z"/>
	<path class="st2" d="M1062.9,472.8c-2.2,36.6-10.8,71.8-23.6,105.7c-13.9,36.8-32.9,70.4-55.5,101.5c-15.3,21-32,40.6-50.2,58.7
		c-17,16.9-34.8,32.5-53.4,47.4c-8.9,7.1-18.5,11.7-29,14.9c-22.4,6.9-45.2,12-67.9,17.2c-36.8,8.4-74,10.4-111.1,9.3
		c-12.8,0-25.2,0.2-37.7,0c-22.4-0.5-44.5-3.6-66.4-8.2c-18.7-3.9-37.3-8-55.8-13.1c-10.2-2.8-20.3-6.2-30.4-9.6
		c-7.4-2.4-13-8-19.1-12.8c-29.2-22.6-55.8-48.4-79.8-77.2c-32.6-39.2-59.5-82.6-77.7-132c-11-29.8-18.4-60.5-21.4-92.3
		c-5.1-52.5,2.6-102.9,22.9-151.1c16.1-38.4,38.3-71.7,66.8-100.2c6.2-6.2,12.9-11.8,19.3-17.8c4.3-4,9.2-3.5,14.1-2.4
		c5.1,1.1,10.1,2.3,15.3,2.5c14.7,0.8,28.5-3.3,41.7-9.5c7.6-3.6,14.1-4.5,22.5-1c25,10.4,50.2,8.4,74.8-2.8
		c5.3-2.4,9.9-5.8,14.3-9.6c2.4-2.1,4.8-3,7.8-1.7c21.8,10,43.3,6.3,64.6-1.8c7.3-2.8,14.6-5.8,20.9-10.9c3.1-2.5,5.5-2.2,8.9,0.1
		c15.3,10.7,32.3,16.5,50.3,18.3c11.5,1.1,23-0.2,33.9-5.1c3.4-1.5,6.2-1.3,9.1,1.3c11.6,10.5,25.6,15,40,17.5
		c19.5,3.5,38.4,0.7,56.3-8.4c3.2-1.6,5.3-0.2,7.8,1.1c15.8,7.8,31.9,13.6,49.6,12.5c4.5-0.3,8.9-0.8,13.2-2.2
		c6.9-2.1,12.6-0.7,18.2,4.5c18.5,17,35.9,35.1,50.6,56.1c18.2,26,31.7,54.5,42,85.2C1061.3,394.6,1065.2,433.3,1062.9,472.8z"/>
	<path class="st3" d="M505.5,565.5c-2.9-1.3-4.8,0-6.7,0.7c-9.9,3.5-19.7,2-28.9-2.4c-14.1-6.7-17.1-23.6-7-36.9
		c6-7.9,14-12.7,22.7-16.2c2.4-1,5.1-1,7.1-3.2c-0.5-2.5-2.5-2.9-4.1-3.7c-11.3-5.4-21.5-12.6-30.7-21.4
		c-11.3-10.9-19.7-23.9-23.1-40.2c-1.8-8.9-0.4-17.1,4.4-24.7c5.3-8.4,12.1-14.8,20.6-19.1c15.8-8.2,32.3-9.8,49.5-6.9
		c23.6,4,42.6,16.5,57.9,36.1c3,3.9,4.4,4.1,8,0.3c4.3-4.4,8.4-8.9,13.2-12.6c6.9-5.4,14.2-9.9,22.1-13.3c7-3,7-3,3.1-9.7
		c-4.1-6.9-7.8-13.9-7.6-22.6c0.3-13.4,9.1-21.8,21.3-19.7c2.1,0.4,4.1,1,6.1,1.7c6.7,2.6,6.8,2.6,6.4-5.4
		c-0.6-12.6-0.2-24.9,5.6-36.4c6.2-12.3,19.6-17.6,31.3-11.8c3.9,1.9,7.5,4.4,10.3,7.9c11.1,13.9,17.9,29.8,18.2,48.5
		c0.2,9.9,0.4,19.8-1.2,29.7c-1.1,7,0.2,8.6,6.4,9.8c19.2,3.8,36.8,12,52.1,25.5c5.9,5.2,10.9,11.2,15,18.1c1.8,3.1,3.9,5.6,6.5,7.9
		c12.2,10.6,21.6,23.7,25.9,40c4.4,16.6,4.9,33.1-4.8,48.3c-3.8,6-9,9.6-15.1,11.9c-4.5,1.7-7.4,4.6-9.4,9.4
		c-2.9,7-7.2,13-12.9,17.9c-5.4,4.6-5.5,6.3-0.9,11.7c6.9,8.1,9.7,17.9,10.8,28.4c0.9,9.2-6.1,14.8-14.1,11.5
		c-3.9-1.6-6.7-4.5-9.2-8.1c-4.4-6.5-6.6-14-8.6-21.6c-1.5-5.4-2.4-6-7-4c-20,8.6-40.8,11.2-62.2,10.6c-14.8-0.4-29.6,0.7-44.2-2.7
		c-8.1-1.9-15.9-4.4-23.7-7.2c-6.9-2.4-6.8-2.4-9,5.3c-1,3.7-2.2,7.3-3.5,10.8c-2.1,5.5-5.3,10.2-9.5,14.1c-4.4,4-9.8,5-13.7,2.5
		c-4.6-2.9-5.2-7.6-4.7-12.6c1-9.9,4.3-18.7,10.1-26.4c0.9-1.2,1.9-2.3,2.8-3.4c1.9-2.3,2.1-4.4-0.4-6.5c-4.4-3.8-8.4-8.2-11.8-13
		c-2.4-3.4-3.5-3.2-5.2,1.2c-2.4,6.1-5.9,11.5-9.3,17c-3.2,5.2-7.5,9.2-12.2,12.6c-4.6,3.3-9.6,5.2-15.2,5.3
		c-13.9,0.1-23-10.1-22.2-25.1C504.9,570.9,505.2,568.4,505.5,565.5z M538.6,506.7c0,1.5-0.1,3.1,0,4.6c1.8,19.2,10.7,29.4,29,28.5
		c12-0.6,23.7-4.1,33.1-13.2c9.8-9.4,17.4-20.7,22.1-34c2.4-6.6,4.5-13.6,4.3-20.8c-1-26.4-13.8-39.6-38.5-34.1
		C558.8,444.4,538.6,480.3,538.6,506.7z M748.3,436.5c-5.6-0.3-10.7,1.3-15.7,3.7c-2.8,1.4-5.1,3.4-6.8,6.3
		c-6.4,11.2-8.2,23-5.5,35.9c3.6,16.7,11.7,30.3,23,42c11.1,11.5,24.6,15.5,39.3,15.4c9.9-0.1,17.5-5.4,21.8-15.4
		c3.2-7.6,4.2-15.5,2.8-23.9c-2.8-17.6-10-32.9-21.5-45.4C775.4,444,763.2,436.9,748.3,436.5z M672.9,579.7c4.2,0,8.4,0.1,12.5-1.5
		c6.2-2.4,9.4-7.3,9.4-14.4c0-6-3.2-9.9-6.8-13.7c-10.8-11.4-28-8.4-35.1,6.1c-4.7,9.7-0.4,20,9.4,22.5
		C665.9,579.7,669.4,579.7,672.9,579.7z"/>
	<path class="st0" d="M565.2,733c-1-6.5-2.3-12.9-3-19.4c-2.1-19.8-2.6-39.6,1.9-59.2c1-4.2,2.2-8.4,4.4-12
		c4.6-7.4,13.4-7.7,18.4-0.5c2.4,3.5,4.3,7.3,5.2,11.6c3.2,14.9,4.8,30,6,45.3c1.7,22.6,1.4,45.3,4,67.8c1,8.6,1.6,9.6,9.7,9.1
		c30.8-1.7,61.5-1.9,92.3-1.2c18.1,0.4,36.1,1.4,54.1,3.8c10.2,1.4,10.8-0.1,7.2-9.5c-6.5-17.1-9.8-35.1-9.5-53.7
		c0.1-8.6,0.9-17.3,3.5-25.6c0.5-1.7,1-3.4,1.8-5c4.2-8.2,10.9-9.2,16.4-2c6.2,8.3,11.5,17.4,14.1,28c0.7,2.8,0.5,6.1,2.9,8.3
		c2.4-1.2,2.5-3.8,3.5-5.7c2.4-4.7,4.7-9.5,8.2-13.3c4.5-4.8,9.4-4.4,13.3,0.9c1.6,2.2,2.9,4.7,3.4,7.5c1.1,7.3,2.5,14.5,1.5,22
		c-1,7-0.8,14.2-2,21.3c-0.7,4.3,0.6,5.3,4.1,3.4c3.6-2,6.6-2.1,9.5,1.4c2.9,3.4,3.6,7,1.9,11.2c-1.7,4.2-3.8,8.2-6.7,11.6
		c-2.3,2.7-5,5.2-6.7,9.1c5.3,3.1,11.8,2.3,16,7.1c-1,2.6-2.9,2.3-4.4,2.2c-4.2-0.3-8.4-0.7-12.6-1.2c-3.7-0.5-7,0-9.7,3.2
		c-7,8.3-16.4,7.8-25.6,7.7c-3.9,0-6.5-3-7.8-6.8c-2-5.9-5.8-7.5-11.4-7.9c-26.5-1.9-53.1-0.7-79.6-1.5c-24.9-0.8-49.8,0.7-74.7,0.3
		c-7-0.1-7,0.1-9.5,7.1c-2.6,7.1-14.1,10.9-18.9,5.4c-8.3-9.6-18.1-12.5-29.8-10.9c-12.8,1.7-25.7,2.6-38.6,4
		c-3.9,0.4-7.8,1.5-12.2-0.3c1-4.2,4.4-4.6,7-5.2c10.6-2.4,21.2-4.4,31.8-6.5c4.9-1,9.8-1.6,14.6-2.7c3.6-0.8,4.1-2.2,1.6-5.1
		c-6-7.1-11.8-14.5-17.1-22.3c-10.7-15.9-20.8-32.1-25.2-51.6c-0.7-3-1.5-5.9-1.2-9c0.7-8,6.4-11.5,13.1-8.2
		c4.4,2.2,7.6,5.8,10.6,9.9c7.1,9.9,13.5,20.2,18.9,31.3C561.1,729.3,562.1,731.9,565.2,733z"/>
	<path class="st1" d="M837.9,271.5c-0.4,27.4-16.1,50.1-46.8,50.9c-29.7,0.8-46.4-27-46.3-51c0.1-30.1,22.7-48.4,46.6-48.7
		C818.3,222.4,838.5,246.9,837.9,271.5z M791.9,311c20.3,1.6,37-19.6,36.8-38.9c-0.2-23.7-14.8-41.7-36.4-41.9
		c-21.2-0.2-37.6,15.6-37.3,43.9C755.4,297,773.7,311.7,791.9,311z"/>
	<path class="st1" d="M813,330.5c16-0.1,28.6,13,28.5,30c0,15.4-13.8,30.3-27.5,30.1c-15.8-0.2-28.7-13.4-28.7-30.2
		C785.4,343.1,797,330.6,813,330.5z M813.6,381.4c10.4,1.1,20.3-8.5,20.6-21.1c0.4-12.3-8.8-22-20.7-21.9c-12,0-19.8,9-19.7,22.5
		C794,373.3,801.8,381.5,813.6,381.4z"/>
	<path class="st1" d="M881.5,313.9c-0.1,8.2-7.6,15.6-15.5,15.3c-7.7-0.3-14.5-7.9-14.3-15.8c0.3-8.1,7.3-15.8,14.5-15.9
		C874.7,297.5,881.6,304.9,881.5,313.9z M866.7,304.9c-5.1-0.1-8.8,3.5-8.7,8.7c0.1,5,4.1,9.3,8.6,9.2c4.4-0.1,7.6-3.9,7.7-9.1
		C874.4,308,871.8,305,866.7,304.9z"/>
	<path class="st0" d="M712.2,812.6c-3.6,0-7-0.7-10-3c-5.4-4.2-4.8-10.8,1.1-13.9c5.3-2.7,10.5-1.8,15.6,0.8
		c2.8,1.4,4.3,3.9,4.4,7.2c0.1,3.5-1.7,5.6-4.4,7.2C716.8,812.1,714.6,812.6,712.2,812.6z"/>
	<path class="st0" d="M633.9,812.6c-2.9,0-5.6-0.8-8-2.4c-4.7-3.3-5-9-0.5-12.5c4.8-3.8,10.3-4.6,16-2.6c2.8,1,5,2.9,5.5,6.3
		c0.6,3.7-1.2,6.3-3.8,8.4C640.4,811.9,637.3,812.7,633.9,812.6z"/>
	<path class="st0" d="M680.4,798.9c0.2,3-3.7,6.5-7.3,6.6c-3.5,0.2-7.3-3.2-7.4-6.5c-0.1-3.4,2.7-6.2,6.5-6.4
		C676.4,792.2,680.2,795.1,680.4,798.9z"/>
	<path class="st0" d="M662.4,820.6c-3.8-0.1-6.5-2.2-6.6-5.2c-0.1-3.4,3.2-6.1,7.4-6.1c3.9,0,6.3,2,6.5,5.3
		C669.9,818.1,666.8,820.7,662.4,820.6z"/>
	<path class="st0" d="M683.3,820.4c-4,0.1-7.2-2.3-7.3-5.4c-0.1-3.2,2.9-5.6,7-5.7c4.1,0,7.3,2.3,7.4,5.4
		C690.4,817.8,687.3,820.3,683.3,820.4z"/>
	<path class="st0" d="M557.3,806.9c-2.4-0.1-3.9-1.4-4.1-4.1c-0.3-2.5,1.9-5.1,4.2-5c2.6,0.1,3.8,1.9,3.8,4.5
		C561.1,804.9,559.8,806.6,557.3,806.9z"/>
	<path class="st1" d="M545.3,493.9c0.5-13.3,5.8-24.5,15.5-33.2c2.7-2.4,6-3.9,9.4-4.9c7.4-2.1,14.5,1.9,17.9,9.4
		c5.7,12.5,1,37-11,46.3c-6.2,4.8-13,5.8-20,4c-6.7-1.7-9.7-7.5-11.2-14.3C545.4,498.9,545.5,496.6,545.3,493.9z"/>
	<path class="st0" d="M755.6,478.3c-0.2-6.7,0.7-13.3,5.8-18.5c3.9-3.9,8.2-5.4,13.5-4.2c9,2,14.8,8.4,19.3,16.4
		c6.1,10.9,9.1,22.2,3.8,34.7c-2.4,5.6-6.3,8.6-11.9,9.3c-10.3,1.2-18.3-2.7-24-12.1C757.5,496.2,755.3,487.8,755.6,478.3z"/>
	<path class="st0" d="M673,566.4c-1.9,0-3.7,0.1-5.6,0c-5.6-0.5-7.3-3.6-5.3-9.3c1.9-5.5,7.4-8.7,13.1-7.6c5.4,1,9.1,5.6,9.4,11.5
		c0.2,3.2-1.2,4.9-3.9,5.1c-2.5,0.3-5.1,0.1-7.7,0.1C673,566.3,673,566.3,673,566.4z"/>
</g>
</svg>
