<svg xmlns="http://www.w3.org/2000/svg" xml:space="preserve" x="0" y="0" version="1.1" viewBox="0 0 1280 1024"><path d="M1228.3 831.7c-.3-4-2.7-6.5-7.1-7-6.3-.6-12.6-1.3-19-1.4-49.1-.7-98.2.1-147.4-1.4-36.4-1.1-72.9-.2-109.3-.3-5.2 0-10.3 0-15.5.9-3.5.6-7.1.9-10.4-.9-9.5-5.1-18.9-10.2-28.3-15.5-4-2.2-3.9-3.2-.3-6.5.5-.5 1.1-1 1.7-1.4 14.7-11 28.4-23.4 41.8-36.2 18.9-18 36.7-37.4 52.8-58.3 25-32.3 46.2-67.4 62.2-106 9.6-23.1 17.3-46.8 22.6-71.4 4-18.7 5.9-37.6 7.2-56.7 1.8-25.6.1-51-4.3-76-5.6-30.9-14.9-60.3-29.7-87.8-13.3-24.9-29.2-47.5-47.7-67.9-15.6-17.3-33.2-32.3-51.8-45.8-2.6-1.9-5.1-3.6-4.3-7.8 2.8-14.5-3.5-24.1-14.1-32.1-34.6-26-73.8-38.6-114.7-46.4-15.5-3-31.2-4.6-46.7-7-28.9-4.5-58-5.7-87.1-6.6-12.2-.4-24.4.8-36.6 1-25.9.4-51.5 4.3-77.2 7.5-19.1 2.4-38.1 6.3-56.9 10.8-23.8 5.8-46.6 14.1-68.1 26.5-10.8 6.2-21.5 12.6-30.2 22.3-5.2 5.9-7.8 12.8-6.3 20.9 1.1 5.4-.6 8.4-4.6 11.4-26.8 20.1-51.1 43-71.7 70.7-21.5 28.9-38.2 60.4-48.5 95.8-15.1 51.4-16.6 103.6-7.3 156.3 6.9 39.1 20.2 75.7 37.7 110.7 19.2 38.4 43.7 72.4 71.1 104.1 21 24.2 44.3 45.5 69 65.2 1.5 1.2 3 2.4 4.5 3.7 4.5 3.9 4.5 4.5-.8 7.8-1.6 1-3.4 1.8-5 2.7-5.6 3.1-11.5 6-16.9 9.5-4.9 3.2-9.9 4.5-15.5 3.5-5.8-1.1-11.7-1-17.6-1-50.3 0-100.6 0-150.9 1.1-33.4.8-66.8.3-100.1.5-7.3.1-14.5.7-21.8 1.3-4.6.4-7.8 3.5-7.9 7.2-.1 3.7 2.6 7.1 6.9 8.6 3.2 1.1 6.5 1 9.8 1 23.7.1 47.5-.5 71.2-.9 44.9-.8 89.8-.5 134.7-.6 18.1-.1 36.1-2 54.2-1.3 2.4.1 5.1-.9 7.1 1.2-.2 2.1-1.5 3-2.4 4.1-5.5 7-5.3 8.8 1.5 14.7 13.7 11.9 29.3 20.2 45.3 27.6 23 10.6 46.9 18.1 70.9 25.5 45.6 14 92.2 19 139.4 20.1 21.1.5 42.3.1 63.4-1.5 18.1-1.3 36.1-2.6 54-5.7 28.8-4.9 57.1-12.9 84.9-22.2 23.1-7.8 45.8-17 67.1-29.7 7.4-4.4 14.5-9.6 21.3-14.9 5.3-4.2 5.4-7 1-12.6-1.3-1.7-3.4-2.8-3.9-5.8 2.6-1.4 5-.9 7.3-.9 15.3.1 30.5.8 45.8 1.1 53.8 1.2 107.6-.6 161.4 1.6 17.4.7 34.8.1 52.2.1 3.8 0 7.5-.4 11.2-1.3 4.9-.9 7-3.9 6.7-8.2zM898.5 196.9c-8.1-2.4-16.3-4.9-23.6-9.9-3.7-2.5-7.7-2.6-11.2.4-7.9 6.6-17.2 7.8-26.6 8.7-20 1.8-37.9-5.7-55.1-15.7-2.1-1.2-4.3-2.3-6-4-5.4-5.1-11.1-4.4-17.1-1.7-1.5.7-3.2 1.1-4.6 2-11.1 7-22.9 6.5-34.9 3.8-13.6-3.1-27.2-6.5-39.1-14.7-5-3.4-9.4-3.7-14.4-.3-14.5 9.7-30.8 13.6-47.4 16.3-7.5 1.2-14.9 1.2-22-2.8-4.1-2.4-8.7-3.7-13.1-5.5-4.6-1.9-8.4-.9-12.5 2.2-13.7 10.2-28.8 17.1-45.3 19.9-10.8 1.8-21.6.9-32.2-2.1-3.9-1.1-7.5-2.8-10.8-5.5-4-3.3-8.2-3.4-12.5-.7-12.9 8.1-26.9 11.7-41.6 13.1-4.7.5-9.2-.6-14.8-1.7 3.9-5 8.3-7.3 12.7-9.1 8.3-3.4 16.8-6.7 25.3-9.5 36.2-12.3 73-21.3 110.4-28.1 23.9-4.3 47.9-7.2 72-9.3 14.1-1.2 28-3 42.2-2.9 10.4.1 20.6 1.3 30.9 2.5 12.9 1.4 25.8 2 38.6 3.8 31.7 4.4 63.2 10 94.3 18.1 23.1 6 46.1 12.3 68.5 21 5.5 2.2 11.1 4.3 16.2 7.4 2.2 1.3 4.8 2.2 6.2 6.2-11.5 2.7-22.1 1.2-32.5-1.9zm-483.1-26.3c3.1-4.5 6.8-8.5 11-11.7 17.3-13.1 36-23 56.2-29.5 36-11.4 72.7-18.2 110-21.8 17.3-1.7 34.6-3.8 52-4.2 7.3-.6 14.5.9 21.8 1.1 9.2.3 18.3-.5 27.5-1 17.4-1 34.7 1.4 52 3.2 15 1.6 29.9 3.3 44.8 5.7 31 5 61.6 11.5 90.8 24.2 14.7 6.4 28.5 14.5 41.1 25 3.9 3.3 7.7 6.8 9.3 12.2.6 2.2 1.5 4.5-.1 6.6-1.9 2.4-3.9.6-5.8-.2-3.3-1.3-6.6-2.6-9.8-4.3-19.3-9.8-40.1-14.7-60.5-20.4-18.4-5.2-36.9-10.3-55.7-13.7-22.7-4.2-45.4-8.4-68.4-10.1-25.3-1.9-50.7-3.5-76-2.4-25.6 1.1-51.1 2.6-76.5 6.5-44.6 6.9-88.1 18.5-131.2 32.4-9 2.9-17.6 7.2-26.2 11.3-2.4 1.1-5.3 4.2-7.6 1.1-2.3-3.2-.7-7.1 1.3-10zm514.1 687.6c-24.7 14-51.2 22.8-77.8 31.4-25.7 8.3-51.7 15.3-78.2 19.7-20.4 3.3-40.9 6.5-61.6 7.3-12.9.5-25.8 1.9-38.4 2.8-23.7-2-47.2-2.7-70.5-5.6-24.8-3-49.3-7.5-73.5-14-28.1-7.5-55.8-16.2-82.9-27.2-10.6-4.3-20.7-9.7-30.9-14.8-5.7-2.9-5.9-4.9-.5-8.8 6.4-4.7 13-9.1 19.7-13.4 12.8-8.2 25.8-15.8 40-20.7 4-1.4 7.7-1.6 11.7-.5 28 7.7 56.3 14.3 84.9 18.9 20.2 3.3 40.5 5.7 60.9 7.1 24.2 1.8 48.4 1.7 72.6.7 19-.7 37.9-3 56.8-5.9 18.4-2.9 36.7-5.9 54.8-10.3 14.4-3.5 29.1-6 43.3-10.6 3.8-1.2 7.2-.8 10.9.5 21.2 7.1 39.4 20.2 58.1 32.5.6.4 1.2.9 1.7 1.3 5.6 4.9 5.5 5.9-1.1 9.6z" fill="#1e4065"/><path d="M929.5 858.2c-24.7 14-51.2 22.8-77.8 31.4-25.7 8.3-51.7 15.3-78.2 19.7-20.4 3.3-40.9 6.5-61.6 7.3-12.9.5-25.8 1.9-38.4 2.8-23.7-2-47.2-2.7-70.5-5.6-24.8-3-49.3-7.5-73.5-14-28.1-7.5-55.8-16.2-82.9-27.2-10.6-4.3-20.7-9.7-30.9-14.8-5.7-2.9-5.9-4.9-.5-8.8 6.4-4.7 13-9.1 19.7-13.4 12.8-8.2 25.8-15.8 40-20.7 4-1.4 7.7-1.6 11.7-.5 28 7.7 56.3 14.3 84.9 18.9 20.2 3.3 40.5 5.7 60.9 7.1 24.2 1.8 48.4 1.7 72.6.7 19-.7 37.9-3 56.8-5.9 18.4-2.9 36.7-5.9 54.8-10.3 14.4-3.5 29.1-6 43.3-10.6 3.8-1.2 7.2-.8 10.9.5 21.2 7.1 39.4 20.2 58.1 32.5.6.4 1.2.9 1.7 1.3 5.6 4.9 5.5 5.9-1.1 9.6z" fill="#295378"/><path d="M1062.9 472.8c-2.2 36.6-10.8 71.8-23.6 105.7-13.9 36.8-32.9 70.4-55.5 101.5-15.3 21-32 40.6-50.2 58.7-17 16.9-34.8 32.5-53.4 47.4-8.9 7.1-18.5 11.7-29 14.9-22.4 6.9-45.2 12-67.9 17.2-36.8 8.4-74 10.4-111.1 9.3-12.8 0-25.2.2-37.7 0-22.4-.5-44.5-3.6-66.4-8.2-18.7-3.9-37.3-8-55.8-13.1-10.2-2.8-20.3-6.2-30.4-9.6-7.4-2.4-13-8-19.1-12.8-29.2-22.6-55.8-48.4-79.8-77.2-32.6-39.2-59.5-82.6-77.7-132-11-29.8-18.4-60.5-21.4-92.3-5.1-52.5 2.6-102.9 22.9-151.1 16.1-38.4 38.3-71.7 66.8-100.2 6.2-6.2 12.9-11.8 19.3-17.8 4.3-4 9.2-3.5 14.1-2.4 5.1 1.1 10.1 2.3 15.3 2.5 14.7.8 28.5-3.3 41.7-9.5 7.6-3.6 14.1-4.5 22.5-1 25 10.4 50.2 8.4 74.8-2.8 5.3-2.4 9.9-5.8 14.3-9.6 2.4-2.1 4.8-3 7.8-1.7 21.8 10 43.3 6.3 64.6-1.8 7.3-2.8 14.6-5.8 20.9-10.9 3.1-2.5 5.5-2.2 8.9.1 15.3 10.7 32.3 16.5 50.3 18.3 11.5 1.1 23-.2 33.9-5.1 3.4-1.5 6.2-1.3 9.1 1.3 11.6 10.5 25.6 15 40 17.5 19.5 3.5 38.4.7 56.3-8.4 3.2-1.6 5.3-.2 7.8 1.1 15.8 7.8 31.9 13.6 49.6 12.5 4.5-.3 8.9-.8 13.2-2.2 6.9-2.1 12.6-.7 18.2 4.5 18.5 17 35.9 35.1 50.6 56.1 18.2 26 31.7 54.5 42 85.2 12.5 37.7 16.4 76.4 14.1 115.9z" fill="#d0eafc"/><path d="M505.5 565.5c-2.9-1.3-4.8 0-6.7.7-9.9 3.5-19.7 2-28.9-2.4-14.1-6.7-17.1-23.6-7-36.9 6-7.9 14-12.7 22.7-16.2 2.4-1 5.1-1 7.1-3.2-.5-2.5-2.5-2.9-4.1-3.7-11.3-5.4-21.5-12.6-30.7-21.4-11.3-10.9-19.7-23.9-23.1-40.2-1.8-8.9-.4-17.1 4.4-24.7 5.3-8.4 12.1-14.8 20.6-19.1 15.8-8.2 32.3-9.8 49.5-6.9 23.6 4 42.6 16.5 57.9 36.1 3 3.9 4.4 4.1 8 .3 4.3-4.4 8.4-8.9 13.2-12.6 6.9-5.4 14.2-9.9 22.1-13.3 7-3 7-3 3.1-9.7-4.1-6.9-7.8-13.9-7.6-22.6.3-13.4 9.1-21.8 21.3-19.7 2.1.4 4.1 1 6.1 1.7 6.7 2.6 6.8 2.6 6.4-5.4-.6-12.6-.2-24.9 5.6-36.4 6.2-12.3 19.6-17.6 31.3-11.8 3.9 1.9 7.5 4.4 10.3 7.9 11.1 13.9 17.9 29.8 18.2 48.5.2 9.9.4 19.8-1.2 29.7-1.1 7 .2 8.6 6.4 9.8 19.2 3.8 36.8 12 52.1 25.5 5.9 5.2 10.9 11.2 15 18.1 1.8 3.1 3.9 5.6 6.5 7.9 12.2 10.6 21.6 23.7 25.9 40 4.4 16.6 4.9 33.1-4.8 48.3-3.8 6-9 9.6-15.1 11.9-4.5 1.7-7.4 4.6-9.4 9.4-2.9 7-7.2 13-12.9 17.9-5.4 4.6-5.5 6.3-.9 11.7 6.9 8.1 9.7 17.9 10.8 28.4.9 9.2-6.1 14.8-14.1 11.5-3.9-1.6-6.7-4.5-9.2-8.1-4.4-6.5-6.6-14-8.6-21.6-1.5-5.4-2.4-6-7-4-20 8.6-40.8 11.2-62.2 10.6-14.8-.4-29.6.7-44.2-2.7-8.1-1.9-15.9-4.4-23.7-7.2-6.9-2.4-6.8-2.4-9 5.3-1 3.7-2.2 7.3-3.5 10.8-2.1 5.5-5.3 10.2-9.5 14.1-4.4 4-9.8 5-13.7 2.5-4.6-2.9-5.2-7.6-4.7-12.6 1-9.9 4.3-18.7 10.1-26.4.9-1.2 1.9-2.3 2.8-3.4 1.9-2.3 2.1-4.4-.4-6.5-4.4-3.8-8.4-8.2-11.8-13-2.4-3.4-3.5-3.2-5.2 1.2-2.4 6.1-5.9 11.5-9.3 17-3.2 5.2-7.5 9.2-12.2 12.6-4.6 3.3-9.6 5.2-15.2 5.3-13.9.1-23-10.1-22.2-25.1.1-2.5.4-5 .7-7.9zm33.1-58.8c0 1.5-.1 3.1 0 4.6 1.8 19.2 10.7 29.4 29 28.5 12-.6 23.7-4.1 33.1-13.2 9.8-9.4 17.4-20.7 22.1-34 2.4-6.6 4.5-13.6 4.3-20.8-1-26.4-13.8-39.6-38.5-34.1-29.8 6.7-50 42.6-50 69zm209.7-70.2c-5.6-.3-10.7 1.3-15.7 3.7-2.8 1.4-5.1 3.4-6.8 6.3-6.4 11.2-8.2 23-5.5 35.9 3.6 16.7 11.7 30.3 23 42 11.1 11.5 24.6 15.5 39.3 15.4 9.9-.1 17.5-5.4 21.8-15.4 3.2-7.6 4.2-15.5 2.8-23.9-2.8-17.6-10-32.9-21.5-45.4-10.3-11.1-22.5-18.2-37.4-18.6zm-75.4 143.2c4.2 0 8.4.1 12.5-1.5 6.2-2.4 9.4-7.3 9.4-14.4 0-6-3.2-9.9-6.8-13.7-10.8-11.4-28-8.4-35.1 6.1-4.7 9.7-.4 20 9.4 22.5 3.6 1 7.1 1 10.6 1z" fill="#c14663"/><path d="M565.2 733c-1-6.5-2.3-12.9-3-19.4-2.1-19.8-2.6-39.6 1.9-59.2 1-4.2 2.2-8.4 4.4-12 4.6-7.4 13.4-7.7 18.4-.5 2.4 3.5 4.3 7.3 5.2 11.6 3.2 14.9 4.8 30 6 45.3 1.7 22.6 1.4 45.3 4 67.8 1 8.6 1.6 9.6 9.7 9.1 30.8-1.7 61.5-1.9 92.3-1.2 18.1.4 36.1 1.4 54.1 3.8 10.2 1.4 10.8-.1 7.2-9.5-6.5-17.1-9.8-35.1-9.5-53.7.1-8.6.9-17.3 3.5-25.6.5-1.7 1-3.4 1.8-5 4.2-8.2 10.9-9.2 16.4-2 6.2 8.3 11.5 17.4 14.1 28 .7 2.8.5 6.1 2.9 8.3 2.4-1.2 2.5-3.8 3.5-5.7 2.4-4.7 4.7-9.5 8.2-13.3 4.5-4.8 9.4-4.4 13.3.9 1.6 2.2 2.9 4.7 3.4 7.5 1.1 7.3 2.5 14.5 1.5 22-1 7-.8 14.2-2 21.3-.7 4.3.6 5.3 4.1 3.4 3.6-2 6.6-2.1 9.5 1.4 2.9 3.4 3.6 7 1.9 11.2-1.7 4.2-3.8 8.2-6.7 11.6-2.3 2.7-5 5.2-6.7 9.1 5.3 3.1 11.8 2.3 16 7.1-1 2.6-2.9 2.3-4.4 2.2-4.2-.3-8.4-.7-12.6-1.2-3.7-.5-7 0-9.7 3.2-7 8.3-16.4 7.8-25.6 7.7-3.9 0-6.5-3-7.8-6.8-2-5.9-5.8-7.5-11.4-7.9-26.5-1.9-53.1-.7-79.6-1.5-24.9-.8-49.8.7-74.7.3-7-.1-7 .1-9.5 7.1-2.6 7.1-14.1 10.9-18.9 5.4-8.3-9.6-18.1-12.5-29.8-10.9-12.8 1.7-25.7 2.6-38.6 4-3.9.4-7.8 1.5-12.2-.3 1-4.2 4.4-4.6 7-5.2 10.6-2.4 21.2-4.4 31.8-6.5 4.9-1 9.8-1.6 14.6-2.7 3.6-.8 4.1-2.2 1.6-5.1-6-7.1-11.8-14.5-17.1-22.3-10.7-15.9-20.8-32.1-25.2-51.6-.7-3-1.5-5.9-1.2-9 .7-8 6.4-11.5 13.1-8.2 4.4 2.2 7.6 5.8 10.6 9.9 7.1 9.9 13.5 20.2 18.9 31.3 1.2 2.1 2.2 4.7 5.3 5.8z" fill="#1e4065"/><path d="M837.9 271.5c-.4 27.4-16.1 50.1-46.8 50.9-29.7.8-46.4-27-46.3-51 .1-30.1 22.7-48.4 46.6-48.7 26.9-.3 47.1 24.2 46.5 48.8zm-46 39.5c20.3 1.6 37-19.6 36.8-38.9-.2-23.7-14.8-41.7-36.4-41.9-21.2-.2-37.6 15.6-37.3 43.9.4 22.9 18.7 37.6 36.9 36.9zm21.1 19.5c16-.1 28.6 13 28.5 30 0 15.4-13.8 30.3-27.5 30.1-15.8-.2-28.7-13.4-28.7-30.2.1-17.3 11.7-29.8 27.7-29.9zm.6 50.9c10.4 1.1 20.3-8.5 20.6-21.1.4-12.3-8.8-22-20.7-21.9-12 0-19.8 9-19.7 22.5.2 12.4 8 20.6 19.8 20.5zm67.9-67.5c-.1 8.2-7.6 15.6-15.5 15.3-7.7-.3-14.5-7.9-14.3-15.8.3-8.1 7.3-15.8 14.5-15.9 8.5 0 15.4 7.4 15.3 16.4zm-14.8-9c-5.1-.1-8.8 3.5-8.7 8.7.1 5 4.1 9.3 8.6 9.2 4.4-.1 7.6-3.9 7.7-9.1.1-5.7-2.5-8.7-7.6-8.8z" fill="#295378"/><path d="M712.2 812.6c-3.6 0-7-.7-10-3-5.4-4.2-4.8-10.8 1.1-13.9 5.3-2.7 10.5-1.8 15.6.8 2.8 1.4 4.3 3.9 4.4 7.2.1 3.5-1.7 5.6-4.4 7.2-2.1 1.2-4.3 1.7-6.7 1.7zm-78.3 0c-2.9 0-5.6-.8-8-2.4-4.7-3.3-5-9-.5-12.5 4.8-3.8 10.3-4.6 16-2.6 2.8 1 5 2.9 5.5 6.3.6 3.7-1.2 6.3-3.8 8.4-2.7 2.1-5.8 2.9-9.2 2.8zm46.5-13.7c.2 3-3.7 6.5-7.3 6.6-3.5.2-7.3-3.2-7.4-6.5-.1-3.4 2.7-6.2 6.5-6.4 4.2-.4 8 2.5 8.2 6.3zm-18 21.7c-3.8-.1-6.5-2.2-6.6-5.2-.1-3.4 3.2-6.1 7.4-6.1 3.9 0 6.3 2 6.5 5.3.2 3.5-2.9 6.1-7.3 6zm20.9-.2c-4 .1-7.2-2.3-7.3-5.4-.1-3.2 2.9-5.6 7-5.7 4.1 0 7.3 2.3 7.4 5.4 0 3.1-3.1 5.6-7.1 5.7zm-126-13.5c-2.4-.1-3.9-1.4-4.1-4.1-.3-2.5 1.9-5.1 4.2-5 2.6.1 3.8 1.9 3.8 4.5-.1 2.6-1.4 4.3-3.9 4.6z" fill="#1e4065"/><path d="M545.3 493.9c.5-13.3 5.8-24.5 15.5-33.2 2.7-2.4 6-3.9 9.4-4.9 7.4-2.1 14.5 1.9 17.9 9.4 5.7 12.5 1 37-11 46.3-6.2 4.8-13 5.8-20 4-6.7-1.7-9.7-7.5-11.2-14.3-.5-2.3-.4-4.6-.6-7.3z" fill="#295378"/><path d="M755.6 478.3c-.2-6.7.7-13.3 5.8-18.5 3.9-3.9 8.2-5.4 13.5-4.2 9 2 14.8 8.4 19.3 16.4 6.1 10.9 9.1 22.2 3.8 34.7-2.4 5.6-6.3 8.6-11.9 9.3-10.3 1.2-18.3-2.7-24-12.1-4.6-7.7-6.8-16.1-6.5-25.6zM673 566.4c-1.9 0-3.7.1-5.6 0-5.6-.5-7.3-3.6-5.3-9.3 1.9-5.5 7.4-8.7 13.1-7.6 5.4 1 9.1 5.6 9.4 11.5.2 3.2-1.2 4.9-3.9 5.1-2.5.3-5.1.1-7.7.1v.2z" fill="#1e4065"/></svg>