<svg xmlns="http://www.w3.org/2000/svg" xml:space="preserve" x="0" y="0" version="1.1" viewBox="0 0 462.8 277.5"><path d="M0 277.5h59.3l4.9-11.6h29.7l4.9 4.1h9.9l5-14.2h14.8l4.9 7.5h9.9l5 14.2 4.9-3.6 4.9-6.7 5-13.3h19.8l4.9-14.4 4.9-12.7 5 1.9 4.9-11 5-10.3 4.9-14.2h4.9l5 7.8 4.9-2.1 5 5.4 4.9 11 5-9.5 4.9-13.9 4.9-8.2 5 10.1 4.9 12.9 5 1.9 4.9-15.8 5-.8 4.9 28 4.9-25.2 5-25.8 4.9 8.6 5-12.3 4.9 4.9 4.9-6.7h5l4.9 21.7 5-20.6 4.9-36.4 5 16.4 4.9-9.2 4.9-20.3 5-12.9 4.9 11.7 5 18.4 4.9-10.9 5-22.4 4.9-16.1 4.9 20 5-40.7 4.9-43.7 5 2.2 4.9 32.1 4.9-15.1 5 13.1 4.9-13.3 5 3.4 4.9 2.6 5 4.1 4.9 15.4 4.9-20.7 5-14" fill="none" stroke="#d6d0cd" stroke-linecap="square" stroke-linejoin="round" stroke-miterlimit="10" stroke-width="3"/><path d="m153.2 238.3 4.9-1.3 5-1.4 4.9-1.5 5-1.5 4.9-1.5 5-1.6 4.9-1.7 4.9-1.7 5-1.7 4.9-1.9 5-1.8 4.9-2 4.9-2 5-2.1 4.9-2.1 5-2.3 4.9-2.3 5-2.4 4.9-2.4 4.9-2.6 5-2.6 4.9-2.7 5-2.8 4.9-2.9 5-3 4.9-3.1 4.9-3.2 5-3.3 4.9-3.4 5-3.5 4.9-3.7 4.9-3.7 5-3.9 4.9-4 5-4.2 4.9-4.2 5-4.5 4.9-4.5 4.9-4.7 5-4.9 4.9-5 5-5.2 4.9-5.3 5-5.5 4.9-5.7 4.9-5.9 5-6 4.9-6.3 5-6.4 4.9-6.6 4.9-6.9 5-7.1 4.9-7.2 5-7.5 4.9-7.8 5-7.9 4.9-8.2 4.9-8.5 5-8.7" fill="none" stroke="#bab0ab" stroke-linecap="round" stroke-linejoin="round" stroke-miterlimit="10" stroke-width="10" opacity=".5"/></svg>