<?xml version="1.0" encoding="utf-8"?>
<!-- Generator: Adobe Illustrator 25.2.0, SVG Export Plug-In . SVG Version: 6.00 Build 0)  -->
<svg version="1.1" id="Layer_1" xmlns="http://www.w3.org/2000/svg" xmlns:xlink="http://www.w3.org/1999/xlink" x="0px" y="0px"
	 viewBox="0 0 462.8 277.5" style="enable-background:new 0 0 462.8 277.5;" xml:space="preserve">
<style type="text/css">
	.st0{fill:none;stroke:#D6D0CD;stroke-width:3;stroke-linecap:square;stroke-linejoin:round;stroke-miterlimit:10;}
	.st1{opacity:0.5;fill:none;stroke:#BAB0AB;stroke-width:10;stroke-linecap:round;stroke-linejoin:round;stroke-miterlimit:10;}
</style>
<polyline class="st0" points="0,277.5 4.9,277.5 9.9,277.5 14.8,277.5 19.8,277.5 24.7,277.5 29.7,277.5 34.6,277.5 39.5,277.5 
	44.5,277.5 49.4,277.5 54.4,277.5 59.3,277.5 64.2,265.9 69.2,265.9 74.1,265.9 79.1,265.9 84,265.9 89,265.9 93.9,265.9 98.8,270 
	103.8,270 108.7,270 113.7,255.8 118.6,255.8 123.6,255.8 128.5,255.8 133.4,263.3 138.4,263.3 143.3,263.3 148.3,277.5 
	153.2,273.9 158.1,267.2 163.1,253.9 168,253.9 173,253.9 177.9,253.9 182.9,253.9 187.8,239.5 192.7,226.8 197.7,228.7 
	202.6,217.7 207.6,207.4 212.5,193.2 217.4,193.2 222.4,201 227.3,198.9 232.3,204.3 237.2,215.3 242.2,205.8 247.1,191.9 
	252,183.7 257,193.8 261.9,206.7 266.9,208.6 271.8,192.8 276.8,192 281.7,220 286.6,194.8 291.6,169 296.5,177.6 301.5,165.3 
	306.4,170.2 311.3,163.5 316.3,163.5 321.2,185.2 326.2,164.6 331.1,128.2 336.1,144.6 341,135.4 345.9,115.1 350.9,102.2 
	355.8,113.9 360.8,132.3 365.7,121.4 370.7,99 375.6,82.9 380.5,102.9 385.5,62.2 390.4,18.5 395.4,20.7 400.3,52.8 405.2,37.7 
	410.2,50.8 415.1,37.5 420.1,40.9 425,43.5 430,47.6 434.9,63 439.8,42.3 444.8,28.3 "/>
<polyline class="st1" points="153.2,238.3 158.1,237 163.1,235.6 168,234.1 173,232.6 177.9,231.1 182.9,229.5 187.8,227.8 
	192.7,226.1 197.7,224.4 202.6,222.5 207.6,220.7 212.5,218.7 217.4,216.7 222.4,214.6 227.3,212.5 232.3,210.2 237.2,207.9 
	242.2,205.5 247.1,203.1 252,200.5 257,197.9 261.9,195.2 266.9,192.4 271.8,189.5 276.8,186.5 281.7,183.4 286.6,180.2 
	291.6,176.9 296.5,173.5 301.5,170 306.4,166.3 311.3,162.6 316.3,158.7 321.2,154.7 326.2,150.5 331.1,146.3 336.1,141.8 
	341,137.3 345.9,132.6 350.9,127.7 355.8,122.7 360.8,117.5 365.7,112.2 370.7,106.7 375.6,101 380.5,95.1 385.5,89.1 390.4,82.8 
	395.4,76.4 400.3,69.8 405.2,62.9 410.2,55.8 415.1,48.6 420.1,41.1 425,33.3 430,25.4 434.9,17.2 439.8,8.7 444.8,0 "/>
</svg>
