<svg xmlns="http://www.w3.org/2000/svg" xml:space="preserve" x="0" y="0" version="1.1" viewBox="0 0 1024 209.6"><path d="M372.9 88c3.3-2.6 6.2-5.3 9.6-7.2 7.5-4.2 15.4-4.8 23.7-3.3 12.9 2.4 21.5 10 26 21.9 5.4 14.1 3.8 34.2-9.7 45.7-8.9 7.5-19.3 9.6-30.5 7.8-7.6-1.2-14-4.7-18.9-11.1-.5 2.8-.9 5.2-1.2 7.6-.2 1.5-.8 2.2-2.3 2.1-2.5-.1-5.1-.1-7.6 0-1.7 0-2.5-.6-2.4-2.3V50c0-3.8 0-3.8 3.8-3.8 2.2 0 4.4.1 6.6 0 2.3-.1 3.1.7 3.1 3-.1 12 0 24 0 36-.2.9-.2 1.8-.2 2.8zm24.9 53.3c4.2.4 8.3-.8 11.9-3.3 11.7-7.9 13.9-22.3 9.5-33.9-3.6-9.5-12-15.8-23.1-15.2-7.4.4-13 3.5-17.5 9.2-4.9 6.3-5.6 13.5-5 21.1.9 11.3 11 23.1 24.2 22.1zm234.3-.4c-1.6 1.9-2.6 3.2-3.7 4.4-7.8 8.4-17.6 9.2-28.1 7.5-5.8-.9-10.9-3.4-14.7-7.9-8.2-9.8-7.2-28.6 9-34.7 5-1.9 10-3 15.4-3 6.1 0 12.3-.1 18.4 0 2.1 0 2.7-.8 2.7-2.8-.1-8.4-5.9-14.7-14.4-15.5-5-.5-9.8.1-14.1 2.8-3 1.9-5.1 4.6-6 8-.5 1.9-1.5 2.8-3.5 2.8h-8.4c-1.9 0-2.7-.8-2.4-3 1.5-9.6 7.7-15.6 16-19.3 10.5-4.6 21.2-4.9 31.9 0 6.7 3.1 10.8 8.5 13.1 15.3 1.3 3.9 1.8 8 1.8 12.1-.1 13.5 0 26.9 0 40.4 0 3.5-.1 3.5-3.5 3.5H635c-1.4 0-2.1-.6-2.2-2-.5-2.6-.9-5.2-.7-8.6zm-11.8-23.1c-2.5 0-4.9-.1-7.3.1-4.3.4-8.7.4-12.7 2.7-7 4.2-7.4 14-.6 18.6 2.3 1.5 4.8 1.9 7.4 2.3 14.3 2 22.9-10.1 23.9-21.1.2-2-.7-2.6-2.6-2.6-2.7.1-5.4 0-8.1 0zm-80.6.6h-25.5c-2.8 0-3.3.5-2.8 3.2 1.8 9.2 6.6 16.2 15.8 18.9 9.1 2.7 18.9 1.1 24.5-8.8 1.2-2.2 2.7-3.2 5.2-3 2.2.1 4.4 0 6.6 0 2.8.1 3.3.7 2.3 3.4-3.6 9.2-9.6 16.1-19.1 19.3-19.6 6.6-42.6-1.8-48-26-2.9-12.9-1.1-25.2 7.3-36 6.1-7.9 14.6-11.7 24.3-12.5 11.9-1.1 22.4 2.2 30.4 11.6 6.8 8.1 8.8 17.7 8 28-.1 2-1.6 2-3.1 2-8.8-.1-17.3-.1-25.9-.1zm-7-10.7c6.4 0 12.8-.1 19.2 0 2.5.1 3.2-1.1 2.7-3.2-.8-3.2-2-6.1-4.1-8.7-5.1-6-11.7-7.5-19.2-7-9.4.6-17.1 7-19.3 16.1-.6 2.5.3 2.8 2.4 2.8h18.3zm143.2 8.9c-.8 1.3-.5 2.3-.5 3.2 0 9.5-.1 19.1 0 28.6 0 2.3-.6 3.4-3.1 3.2-2.6-.2-5.3-.1-7.9 0-1.7 0-2.5-.6-2.4-2.3V50.1c0-3.8 0-3.8 3.7-3.8h5.8c3.8 0 3.8 0 3.8 3.7v52.7c0 1.3-.8 3.2.6 3.8 1.1.4 2-1.4 2.9-2.3 7.6-7.8 15.1-15.6 22.6-23.4 1.4-1.4 2.8-2.1 4.9-2 3.5.1 7 0 10.5.1.8 0 1.9-.4 2.3.7.3.8-.6 1.4-1.1 1.9-8.2 8.4-16.4 16.7-24.7 25.1-5 5.1-5.1 5.1-.4 10.3 9.6 10.6 19.3 21.2 29 31.9.6.7 1.8 1.2 1.2 2.4-.5.9-1.6.5-2.4.5-3.4 0-6.8-.1-10.3.1-2.5.1-4.2-.8-5.9-2.7-8.7-10-17.6-20-26.4-29.9-.5-1-1.3-1.7-2.2-2.6z" fill="#fff"/><path d="M960.6 153.5c-19.8 0-34.2-12.9-36.6-32-1.3-10.2 0-19.9 5.7-28.6 5.4-8.3 13.1-13.3 22.9-15.3 10.1-2 19.6-.6 28.2 5 9.4 6.1 14.3 15 15.7 26 1.1 8.9.4 17.5-3.8 25.5-5.2 10-13.3 16.2-24.4 18.5-2.7.6-5.5 1-7.7.9zm-.6-12.2c10 .6 17.5-6.2 20.4-12.9 3.3-7.8 3.4-15.8 1.1-23.8-2.4-8.4-10-14.9-17.4-15.6-12.6-1.2-19.8 4.6-23.5 12.1-3.1 6.3-3.5 13-2.6 19.9 1.3 10.2 9.8 21 22 20.3z" fill="#a0a0a0"/><path d="M271.4 140.9c-4.9 6.8-10.9 10.7-18.4 12-15 2.6-30.4-3.8-33.6-21.7-.7-3.9-1-7.8-.9-11.7V84.1c0-5.4 0-5.4 5.2-5.4h4.2c4.3 0 4.3 0 4.3 4.2v34.6c0 3.8.1 7.7 1 11.5 1.9 7.8 7.1 11.8 15.1 12.4 13.9 1 22.1-10.1 22.2-21.3.1-11.5.1-22.9.1-34.4v-2.9c.2-3.8.5-4.1 4.3-4.1h5.5c4 0 4 0 4 3.8v64.3c0 4.6 0 4.6-4.8 4.6-1.5 0-3-.1-4.5 0-2.4.3-3.4-.9-3.5-3.1.1-2.1-.1-4.4-.2-7.4z" fill="#fff"/><path d="M811.6 88.7c3.2-4.2 6.8-7.1 11.1-9.2 11.7-5.6 28.8-2.8 36.2 8.4 2.4 3.7 3.8 7.6 4.5 11.9.9 5.3 1.1 10.6 1 15.9-.1 10.7 0 21.3 0 32 0 3.5-.2 3.7-3.7 3.7-2.4 0-4.7-.1-7.1 0-2.3.1-3.1-.8-3.1-3.1.1-6.7 0-13.5 0-20.2 0-6.6-.1-13.3 0-19.9 0-3.5-.8-6.8-2-9.9-2.4-6.1-7.1-8.9-13.6-9.5-14.6-1.3-22 10.3-22.7 20.4-.9 12.8-.2 25.5-.5 38.3-.1 3.9 0 3.9-4 3.9-2 0-4-.2-6 0-2.8.3-3.6-.9-3.4-3.5.1-1.4 0-2.8 0-4.2V82.3c0-3.7 0-3.7 3.8-3.7 2 0 4 .1 6.1 0 1.7-.1 2.4.7 2.4 2.3.1 2.5.1 4.9 1 7.8zm73.5 32.2c0-9.3-.1-18.5 0-27.8 0-2.3-.7-3.2-3-3-1.8.1-3.7 0-5.5 0-1.5 0-2.4-.6-2.4-2.1v-7.1c0-1.5.8-2.2 2.4-2.1 1.8 0 3.7-.1 5.5 0 2.3.2 3.2-.5 3-2.9-.2-3.5-.1-7 0-10.5.1-11.7 6.8-18.6 18.5-19.1 2.5-.1 5.1 0 7.6-.1 2.3-.1 3.2.9 3.1 3.1-.1 1.6 0 3.1 0 4.7 0 3.6-.3 3.8-3.9 3.8-2.1 0-4.2.1-6.3.6-3 .7-4.9 2.6-5 5.6-.2 4.2-.1 8.4-.1 12.6 0 1.7.9 2.1 2.3 2.1 4.1 0 8.2.1 12.4 0 2.1-.1 2.8.8 2.8 2.8-.1 1.9-.1 3.9 0 5.8.1 2-.8 2.9-2.8 2.8-3.9-.1-7.7.1-11.6-.1-2.5-.1-3.1.9-3.1 3.2.1 17.9 0 35.9 0 53.8 0 4.5 0 4.5-4.6 4.5-2.1 0-4.2-.1-6.3 0-2.4.2-3-.9-3-3.1.1-9.1 0-18.3 0-27.5z" fill="#a0a0a0"/><path d="M310.6 112.8c0-6.6-.1-13.1 0-19.7 0-2.2-.6-3.2-3-3.1-2.3.2-4.6 0-6.8 0-1.7.1-2.7-.6-2.7-2.4v-6.8c0-1.5.7-2.2 2.3-2.2 2.5.1 5.1-.1 7.6 0 1.7.1 2.5-.5 2.6-2.4.2-3.9 1.1-7.8 1-11.7-.1-2.2.9-3.4 3.3-3.3 2 .1 4 .1 6 0 2.1-.1 3 .7 2.9 2.9-.1 3.7 0 7.3 0 11 0 3.4 0 3.5 3.6 3.5 5 0 10 .1 15 0 2.1 0 2.9.8 2.8 2.8v6c0 1.9-.9 2.6-2.7 2.6-5.1-.1-10.2.1-15.3-.1-2.5-.1-3.5.7-3.4 3.3.1 11.3 0 22.6.1 33.9 0 2.1.3 4.2.6 6.3.6 3.6 3.4 6 7.4 6.2 3.1.2 6.1.2 9.2.2 2.2 0 3.2 1 3.2 3.2-.1 2 0 4 0 6 0 1.2-.3 2.4-1.8 2.4-5.8-.1-11.6.7-17.3-.5-10.2-2.2-14.1-8.8-14.5-18.5-.4-6.5-.1-13.1-.1-19.6zm153.5-23.2c1.8-2 3.2-3.7 4.8-5.2 5.3-5.1 11.9-7.1 19.1-7.6 2.2-.2 3.2.7 3.1 3-.1 2.6 0 5.2 0 7.9 0 1.9-.6 2.9-2.8 3.1-3.6.4-7.3.7-10.8 1.8-6.7 2.2-11.7 8.4-12.5 15.4-1.3 12.6-.4 25.2-.6 37.8-.1 6.8 0 5.6-5.6 5.7h-3.4c-4.6 0-4.6 0-4.6-4.7V83c0-4.3 0-4.3 4.4-4.3 1.8 0 3.7.1 5.5 0 1.8-.1 2.6.7 2.7 2.4.1 1.4.3 2.8.4 4.2 0 1.3.1 2.5.3 4.3z" fill="#fff"/><path d="M778.5 115.4v32.2c0 3.7-.2 3.9-3.8 3.9-2.2 0-4.4-.1-6.6 0-2.6.2-3.6-.7-3.5-3.4.2-4.5 0-9.1 0-13.6V82.9c0-4.2 0-4.2 4.3-4.2h5.5c4 0 4.1.1 4.1 4.2v32.5zm-7-51.6c-5.4 0-9-3.6-9-9.1 0-5 3.7-8.6 8.9-8.5 5.4 0 9 3.5 8.9 8.8.1 5.2-3.6 8.8-8.8 8.8zm-40.6 79.8c0-5.2 3.7-8.8 9-8.8 5 0 8.9 3.7 9 8.6.1 4.9-4.1 9.1-9 9.1-5 0-9-3.9-9-8.9z" fill="#a0a0a0"/><path d="M121.9 19.1c-48.3 0-87.4 39.1-87.4 87.4s39.1 87.4 87.4 87.4c48.3 0 87.4-39.1 87.4-87.4s-39.1-87.4-87.4-87.4zm0 161.9c-40.7 0-73.6-33-73.6-73.6 0-40.7 33-73.6 73.6-73.6 40.7 0 73.6 33 73.6 73.6 0 40.6-32.9 73.6-73.6 73.6z" fill="#fff"/><linearGradient id="a" x1="120.462" x2="187.595" y1="34.032" y2="150.309" gradientUnits="userSpaceOnUse"><stop offset="0" stop-color="#39c2e2"/><stop offset=".678" stop-color="#39c2e2" stop-opacity="0"/></linearGradient><path d="m120.9 111.2 55.4 45.7c11.9-13.1 19.2-30.4 19.2-49.5 0-40.7-33-73.6-73.6-73.6-.3 0-.7 0-1 .1v77.3z" fill="url(#a)"/><path d="M121.9 140.1c-15.7 0-28.6-12.8-28.6-28.6S106.2 83 121.9 83s28.6 12.8 28.6 28.6-12.8 28.5-28.6 28.5zm0-53.7c-13.8 0-25.1 11.3-25.1 25.1s11.3 25.1 25.1 25.1 25.1-11.3 25.1-25.1-11.3-25.1-25.1-25.1z" fill="#fff"/><path d="M121.9 168.5c-31.4 0-57-25.6-57-57s25.6-57 57-57 57 25.6 57 57-25.6 57-57 57zm0-110.5c-29.5 0-53.6 24-53.6 53.6s24 53.6 53.6 53.6 53.6-24 53.6-53.6S151.4 58 121.9 58z" fill="#fff"/><circle fill="#d13b62" cx="156.6" cy="91.9" r="9.1"/><circle fill="#d13b62" cx="87.1" cy="133.8" r="4.5"/><circle fill="#d13b62" cx="135.1" cy="133.8" r="13.2"/><path d="M120.2 19.1c-.1.3 0 1.2 0 1.5v90.5c0 1.1.8 2 1.7 2s1.7-.9 1.7-2V20.6c0-.3.1-1.2 0-1.5h-3.4z" fill="#fff"/></svg>