<?xml version="1.0" encoding="utf-8"?>
<!-- Generator: Adobe Illustrator 24.0.1, SVG Export Plug-In . SVG Version: 6.00 Build 0)  -->
<svg version="1.1" id="Layer_1" xmlns="http://www.w3.org/2000/svg" xmlns:xlink="http://www.w3.org/1999/xlink" x="0px" y="0px"
	 viewBox="0 0 1024 209.6" style="enable-background:new 0 0 1024 209.6;" xml:space="preserve">
<path style="fill:#FFFFFF;" d="M372.9,88c3.3-2.6,6.2-5.3,9.6-7.2c7.5-4.2,15.4-4.8,23.7-3.3c12.9,2.4,21.5,10,26,21.9
	c5.4,14.1,3.8,34.2-9.7,45.7c-8.9,7.5-19.3,9.6-30.5,7.8c-7.6-1.2-14-4.7-18.9-11.1c-0.5,2.8-0.9,5.2-1.2,7.6
	c-0.2,1.5-0.8,2.2-2.3,2.1c-2.5-0.1-5.1-0.1-7.6,0c-1.7,0-2.5-0.6-2.4-2.3c0-0.5,0-1,0-1.6c0-32.5,0-65.1,0-97.6
	c0-3.8,0-3.8,3.8-3.8c2.2,0,4.4,0.1,6.6,0c2.3-0.1,3.1,0.7,3.1,3c-0.1,12,0,24,0,36C372.9,86.1,372.9,87,372.9,88z M397.8,141.3
	c4.2,0.4,8.3-0.8,11.9-3.3c11.7-7.9,13.9-22.3,9.5-33.9c-3.6-9.5-12-15.8-23.1-15.2c-7.4,0.4-13,3.5-17.5,9.2
	c-4.9,6.3-5.6,13.5-5,21.1C374.5,130.5,384.6,142.3,397.8,141.3z"/>
<path style="fill:#FFFFFF;" d="M632.1,140.9c-1.6,1.9-2.6,3.2-3.7,4.4c-7.8,8.4-17.6,9.2-28.1,7.5c-5.8-0.9-10.9-3.4-14.7-7.9
	c-8.2-9.8-7.2-28.6,9-34.7c5-1.9,10-3,15.4-3c6.1,0,12.3-0.1,18.4,0c2.1,0,2.7-0.8,2.7-2.8c-0.1-8.4-5.9-14.7-14.4-15.5
	c-5-0.5-9.8,0.1-14.1,2.8c-3,1.9-5.1,4.6-6,8c-0.5,1.9-1.5,2.8-3.5,2.8c-2.8,0-5.6,0-8.4,0c-1.9,0-2.7-0.8-2.4-3
	c1.5-9.6,7.7-15.6,16-19.3c10.5-4.6,21.2-4.9,31.9,0c6.7,3.1,10.8,8.5,13.1,15.3c1.3,3.9,1.8,8,1.8,12.1c-0.1,13.5,0,26.9,0,40.4
	c0,3.5-0.1,3.5-3.5,3.5c-2.2,0-4.4,0-6.6,0c-1.4,0-2.1-0.6-2.2-2C632.3,146.9,631.9,144.3,632.1,140.9z M620.3,117.8
	C620.3,117.8,620.3,117.8,620.3,117.8c-2.5,0-4.9-0.1-7.3,0.1c-4.3,0.4-8.7,0.4-12.7,2.7c-7,4.2-7.4,14-0.6,18.6
	c2.3,1.5,4.8,1.9,7.4,2.3c14.3,2,22.9-10.1,23.9-21.1c0.2-2-0.7-2.6-2.6-2.6C625.7,117.9,623,117.8,620.3,117.8z"/>
<path style="fill:#FFFFFF;" d="M539.7,118.4c-8.5,0-17,0-25.5,0c-2.8,0-3.3,0.5-2.8,3.2c1.8,9.2,6.6,16.2,15.8,18.9
	c9.1,2.7,18.9,1.1,24.5-8.8c1.2-2.2,2.7-3.2,5.2-3c2.2,0.1,4.4,0,6.6,0c2.8,0.1,3.3,0.7,2.3,3.4c-3.6,9.2-9.6,16.1-19.1,19.3
	c-19.6,6.6-42.6-1.8-48-26c-2.9-12.9-1.1-25.2,7.3-36c6.1-7.9,14.6-11.7,24.3-12.5c11.9-1.1,22.4,2.2,30.4,11.6
	c6.8,8.1,8.8,17.7,8,28c-0.1,2-1.6,2-3.1,2C556.8,118.4,548.3,118.4,539.7,118.4z M532.7,107.7c6.4,0,12.8-0.1,19.2,0
	c2.5,0.1,3.2-1.1,2.7-3.2c-0.8-3.2-2-6.1-4.1-8.7c-5.1-6-11.7-7.5-19.2-7c-9.4,0.6-17.1,7-19.3,16.1c-0.6,2.5,0.3,2.8,2.4,2.8
	C520.4,107.7,526.6,107.7,532.7,107.7z"/>
<path style="fill:#FFFFFF;" d="M675.9,116.6c-0.8,1.3-0.5,2.3-0.5,3.2c0,9.5-0.1,19.1,0,28.6c0,2.3-0.6,3.4-3.1,3.2
	c-2.6-0.2-5.3-0.1-7.9,0c-1.7,0-2.5-0.6-2.4-2.3c0-0.5,0-1,0-1.6c0-32.5,0-65.1,0-97.6c0-3.8,0-3.8,3.7-3.8c1.9,0,3.9,0,5.8,0
	c3.8,0,3.8,0,3.8,3.7c0,17.6,0,35.2,0,52.7c0,1.3-0.8,3.2,0.6,3.8c1.1,0.4,2-1.4,2.9-2.3c7.6-7.8,15.1-15.6,22.6-23.4
	c1.4-1.4,2.8-2.1,4.9-2c3.5,0.1,7,0,10.5,0.1c0.8,0,1.9-0.4,2.3,0.7c0.3,0.8-0.6,1.4-1.1,1.9c-8.2,8.4-16.4,16.7-24.7,25.1
	c-5,5.1-5.1,5.1-0.4,10.3c9.6,10.6,19.3,21.2,29,31.9c0.6,0.7,1.8,1.2,1.2,2.4c-0.5,0.9-1.6,0.5-2.4,0.5c-3.4,0-6.8-0.1-10.3,0.1
	c-2.5,0.1-4.2-0.8-5.9-2.7c-8.7-10-17.6-20-26.4-29.9C677.6,118.2,676.8,117.5,675.9,116.6z"/>
<path style="fill:#A0A0A0;" d="M960.6,153.5c-19.8,0-34.2-12.9-36.6-32c-1.3-10.2,0-19.9,5.7-28.6c5.4-8.3,13.1-13.3,22.9-15.3
	c10.1-2,19.6-0.6,28.2,5c9.4,6.1,14.3,15,15.7,26c1.1,8.9,0.4,17.5-3.8,25.5c-5.2,10-13.3,16.2-24.4,18.5
	C965.6,153.2,962.8,153.6,960.6,153.5z M960,141.3c10,0.6,17.5-6.2,20.4-12.9c3.3-7.8,3.4-15.8,1.1-23.8c-2.4-8.4-10-14.9-17.4-15.6
	c-12.6-1.2-19.8,4.6-23.5,12.1c-3.1,6.3-3.5,13-2.6,19.9C939.3,131.2,947.8,142,960,141.3z"/>
<path style="fill:#FFFFFF;" d="M271.4,140.9c-4.9,6.8-10.9,10.7-18.4,12c-15,2.6-30.4-3.8-33.6-21.7c-0.7-3.9-1-7.8-0.9-11.7
	c0-11.8,0-23.6,0-35.4c0-5.4,0-5.4,5.2-5.4c1.4,0,2.8,0,4.2,0c4.3,0,4.3,0,4.3,4.2c0,11.5,0,23.1,0,34.6c0,3.8,0.1,7.7,1,11.5
	c1.9,7.8,7.1,11.8,15.1,12.4c13.9,1,22.1-10.1,22.2-21.3c0.1-11.5,0.1-22.9,0.1-34.4c0-1,0-1.9,0-2.9c0.2-3.8,0.5-4.1,4.3-4.1
	c1.8,0,3.7,0,5.5,0c4,0,4,0,4,3.8c0,5.1,0,10.1,0,15.2c0,16.4,0,32.7,0,49.1c0,4.6,0,4.6-4.8,4.6c-1.5,0-3-0.1-4.5,0
	c-2.4,0.3-3.4-0.9-3.5-3.1C271.7,146.2,271.5,143.9,271.4,140.9z"/>
<path style="fill:#A0A0A0;" d="M811.6,88.7c3.2-4.2,6.8-7.1,11.1-9.2c11.7-5.6,28.8-2.8,36.2,8.4c2.4,3.7,3.8,7.6,4.5,11.9
	c0.9,5.3,1.1,10.6,1,15.9c-0.1,10.7,0,21.3,0,32c0,3.5-0.2,3.7-3.7,3.7c-2.4,0-4.7-0.1-7.1,0c-2.3,0.1-3.1-0.8-3.1-3.1
	c0.1-6.7,0-13.5,0-20.2c0-6.6-0.1-13.3,0-19.9c0-3.5-0.8-6.8-2-9.9c-2.4-6.1-7.1-8.9-13.6-9.5c-14.6-1.3-22,10.3-22.7,20.4
	c-0.9,12.8-0.2,25.5-0.5,38.3c-0.1,3.9,0,3.9-4,3.9c-2,0-4-0.2-6,0c-2.8,0.3-3.6-0.9-3.4-3.5c0.1-1.4,0-2.8,0-4.2
	c0-20.5,0-40.9,0-61.4c0-3.7,0-3.7,3.8-3.7c2,0,4,0.1,6.1,0c1.7-0.1,2.4,0.7,2.4,2.3C810.7,83.4,810.7,85.8,811.6,88.7z"/>
<path style="fill:#A0A0A0;" d="M885.1,120.9c0-9.3-0.1-18.5,0-27.8c0-2.3-0.7-3.2-3-3c-1.8,0.1-3.7,0-5.5,0c-1.5,0-2.4-0.6-2.4-2.1
	c0-2.4,0-4.7,0-7.1c0-1.5,0.8-2.2,2.4-2.1c1.8,0,3.7-0.1,5.5,0c2.3,0.2,3.2-0.5,3-2.9c-0.2-3.5-0.1-7,0-10.5
	c0.1-11.7,6.8-18.6,18.5-19.1c2.5-0.1,5.1,0,7.6-0.1c2.3-0.1,3.2,0.9,3.1,3.1c-0.1,1.6,0,3.1,0,4.7c0,3.6-0.3,3.8-3.9,3.8
	c-2.1,0-4.2,0.1-6.3,0.6c-3,0.7-4.9,2.6-5,5.6c-0.2,4.2-0.1,8.4-0.1,12.6c0,1.7,0.9,2.1,2.3,2.1c4.1,0,8.2,0.1,12.4,0
	c2.1-0.1,2.8,0.8,2.8,2.8c-0.1,1.9-0.1,3.9,0,5.8c0.1,2-0.8,2.9-2.8,2.8c-3.9-0.1-7.7,0.1-11.6-0.1c-2.5-0.1-3.1,0.9-3.1,3.2
	c0.1,17.9,0,35.9,0,53.8c0,4.5,0,4.5-4.6,4.5c-2.1,0-4.2-0.1-6.3,0c-2.4,0.2-3-0.9-3-3.1C885.2,139.3,885.1,130.1,885.1,120.9z"/>
<path style="fill:#FFFFFF;" d="M310.6,112.8c0-6.6-0.1-13.1,0-19.7c0-2.2-0.6-3.2-3-3.1c-2.3,0.2-4.6,0-6.8,0
	c-1.7,0.1-2.7-0.6-2.7-2.4c0-2.3,0-4.5,0-6.8c0-1.5,0.7-2.2,2.3-2.2c2.5,0.1,5.1-0.1,7.6,0c1.7,0.1,2.5-0.5,2.6-2.4
	c0.2-3.9,1.1-7.8,1-11.7c-0.1-2.2,0.9-3.4,3.3-3.3c2,0.1,4,0.1,6,0c2.1-0.1,3,0.7,2.9,2.9c-0.1,3.7,0,7.3,0,11c0,3.4,0,3.5,3.6,3.5
	c5,0,10,0.1,15,0c2.1,0,2.9,0.8,2.8,2.8c0,2,0,4,0,6c0,1.9-0.9,2.6-2.7,2.6c-5.1-0.1-10.2,0.1-15.3-0.1c-2.5-0.1-3.5,0.7-3.4,3.3
	c0.1,11.3,0,22.6,0.1,33.9c0,2.1,0.3,4.2,0.6,6.3c0.6,3.6,3.4,6,7.4,6.2c3.1,0.2,6.1,0.2,9.2,0.2c2.2,0,3.2,1,3.2,3.2
	c-0.1,2,0,4,0,6c0,1.2-0.3,2.4-1.8,2.4c-5.8-0.1-11.6,0.7-17.3-0.5c-10.2-2.2-14.1-8.8-14.5-18.5
	C310.3,125.9,310.6,119.3,310.6,112.8C310.6,112.8,310.6,112.8,310.6,112.8z"/>
<path style="fill:#FFFFFF;" d="M464.1,89.6c1.8-2,3.2-3.7,4.8-5.2c5.3-5.1,11.9-7.1,19.1-7.6c2.2-0.2,3.2,0.7,3.1,3
	c-0.1,2.6,0,5.2,0,7.9c0,1.9-0.6,2.9-2.8,3.1c-3.6,0.4-7.3,0.7-10.8,1.8c-6.7,2.2-11.7,8.4-12.5,15.4c-1.3,12.6-0.4,25.2-0.6,37.8
	c-0.1,6.8,0,5.6-5.6,5.7c-1.1,0-2.3,0-3.4,0c-4.6,0-4.6,0-4.6-4.7c0-21.3,0-42.5,0-63.8c0-4.3,0-4.3,4.4-4.3c1.8,0,3.7,0.1,5.5,0
	c1.8-0.1,2.6,0.7,2.7,2.4c0.1,1.4,0.3,2.8,0.4,4.2C463.8,86.6,463.9,87.8,464.1,89.6z"/>
<path style="fill:#A0A0A0;" d="M778.5,115.4c0,10.7,0,21.5,0,32.2c0,3.7-0.2,3.9-3.8,3.9c-2.2,0-4.4-0.1-6.6,0
	c-2.6,0.2-3.6-0.7-3.5-3.4c0.2-4.5,0-9.1,0-13.6c0-17.2,0-34.4,0-51.6c0-4.2,0-4.2,4.3-4.2c1.8,0,3.7,0,5.5,0c4,0,4.1,0.1,4.1,4.2
	c0,7.3,0,14.5,0,21.8C778.5,108.2,778.5,111.8,778.5,115.4z"/>
<path style="fill:#A0A0A0;" d="M771.5,63.8c-5.4,0-9-3.6-9-9.1c0-5,3.7-8.6,8.9-8.5c5.4,0,9,3.5,8.9,8.8
	C780.4,60.2,776.7,63.8,771.5,63.8z"/>
<path style="fill:#A0A0A0;" d="M730.9,143.6c0-5.2,3.7-8.8,9-8.8c5,0,8.9,3.7,9,8.6c0.1,4.9-4.1,9.1-9,9.1
	C734.9,152.5,730.9,148.6,730.9,143.6z"/>
<path style="fill:#FFFFFF;" d="M121.9,19.1c-48.3,0-87.4,39.1-87.4,87.4s39.1,87.4,87.4,87.4c48.3,0,87.4-39.1,87.4-87.4
	S170.2,19.1,121.9,19.1z M121.9,181c-40.7,0-73.6-33-73.6-73.6c0-40.7,33-73.6,73.6-73.6c40.7,0,73.6,33,73.6,73.6
	C195.5,148,162.6,181,121.9,181z"/>
<linearGradient id="SVGID_1_" gradientUnits="userSpaceOnUse" x1="120.4624" y1="34.0316" x2="187.5949" y2="150.3085">
	<stop  offset="0" style="stop-color:#39C2E2"/>
	<stop  offset="0.6781" style="stop-color:#39C2E2;stop-opacity:0"/>
</linearGradient>
<path style="fill:url(#SVGID_1_);" d="M120.9,111.2l55.4,45.7c11.9-13.1,19.2-30.4,19.2-49.5c0-40.7-33-73.6-73.6-73.6
	c-0.3,0-0.7,0-1,0.1V111.2z"/>
<g>
	<path style="fill:#FFFFFF;" d="M121.9,140.1c-15.7,0-28.6-12.8-28.6-28.6S106.2,83,121.9,83s28.6,12.8,28.6,28.6
		S137.7,140.1,121.9,140.1z M121.9,86.4c-13.8,0-25.1,11.3-25.1,25.1s11.3,25.1,25.1,25.1c13.8,0,25.1-11.3,25.1-25.1
		S135.7,86.4,121.9,86.4z"/>
</g>
<g>
	<path style="fill:#FFFFFF;" d="M121.9,168.5c-31.4,0-57-25.6-57-57s25.6-57,57-57c31.4,0,57,25.6,57,57S153.3,168.5,121.9,168.5z
		 M121.9,58c-29.5,0-53.6,24-53.6,53.6s24,53.6,53.6,53.6s53.6-24,53.6-53.6S151.4,58,121.9,58z"/>
</g>
<g>
	<circle style="fill:#D13B62;" cx="156.6" cy="91.9" r="9.1"/>
</g>
<g>
	<circle style="fill:#D13B62;" cx="87.1" cy="133.8" r="4.5"/>
</g>
<g>
	<circle style="fill:#D13B62;" cx="135.1" cy="133.8" r="13.2"/>
</g>
<path style="fill:#FFFFFF;" d="M120.2,19.1c-0.1,0.3,0,1.2,0,1.5v90.5c0,1.1,0.8,2,1.7,2s1.7-0.9,1.7-2V20.6c0-0.3,0.1-1.2,0-1.5
	c-0.4,0-1,0-1.4,0C121.6,19.1,120.7,19.1,120.2,19.1z"/>
</svg>
