<svg xmlns="http://www.w3.org/2000/svg" xmlns:xlink="http://www.w3.org/1999/xlink" xml:space="preserve" x="0" y="0" opacity=".8" version="1.1" viewBox="0 0 679.1 267.9"><pattern id="b" width="100" height="100" x="-120.9" y="267.9" overflow="visible" patternUnits="userSpaceOnUse" viewBox="175.6 -223.7 100 100"><path d="M450.9-73.3c-.1-.3-.3-.4-.6-.3-28.6 9-57 18.5-85.3 28.4-28.3 9.9-56.4 20.3-84.4 31.1-7.9 3-15.7 6.2-23.5 9.2-7.2 2.8-15.2 5.4-22.9 3.2 6.9-9.4 15.9-17 25.4-23.6 10.4-7.3 21.4-13.9 32.2-20.5C315-60 338.4-73.7 361.7-87.6c13.3-7.9 26.6-15.8 40-23.7.6-.3.1-1.1-.5-.9-26.5 13-52.9 25.9-79.4 38.9l-78.9 38.7c-7.3 3.6-14.6 7.2-22 10.8-3.7 1.8-7.5 3.7-11.2 5.5-2.4 1.2-6.2 2.8-8.5.7C219-38.3 239.6-56.3 261.1-73c21.9-16.9 44.7-32.5 67.2-48.5 12.5-8.9 25.8-17.6 35.6-29.6.3-.3 0-1-.5-.8-16.1 6.7-32 13.6-47.8 20.9-16 7.3-31.9 15-47.6 22.9-8.8 4.5-17.6 9-26.3 13.6-.6.3-.1 1.2.5.9 15.4-8.2 31-16.1 46.7-23.7 15.7-7.6 31.5-14.9 47.5-21.9 8.5-3.7 17-7.4 25.5-10.9-8.8 10.1-20 17.8-30.9 25.6l-33.6 23.7c-22.3 15.8-44.4 32-64.9 50.2-11.5 10.2-22.4 21-32.4 32.6-.2.2-.2.5 0 .7 1.5 1.8 4 1.9 6.2 1.3 2.9-.7 5.7-2.4 8.3-3.7 6.8-3.3 13.6-6.7 20.4-10 13.5-6.6 26.9-13.2 40.4-19.8 27-13.2 54-26.4 80.9-39.6 11.3-5.5 22.6-11.1 33.9-16.6-20.2 12-40.4 23.9-60.6 35.9-11.8 7-23.7 14.1-35.4 21.3-11 6.7-22 13.4-32.7 20.6-10.7 7.3-21 15.6-28.6 26.2-.2.3 0 .6.3.7 6.7 2.1 13.7.7 20.2-1.6 7-2.4 13.7-5.3 20.6-8 14.1-5.5 28.3-10.9 42.5-16.1 28.4-10.5 57-20.6 85.7-30.2 15.9-5.3 31.9-10.5 47.8-15.6.7 3.4-2.6 6.2-5.2 7.9-3.4 2.3-6.9 4.4-10.3 6.5-7 4.3-14 8.6-21.1 12.8-14.3 8.5-28.7 16.7-43.3 24.6-8.2 4.4-16.5 8.8-24.8 13-.6.3-.1 1.2.5.9 15.3-7.8 30.4-15.9 45.4-24.4 14.9-8.4 29.7-17.2 44.3-26.3 3.8-2.4 7.9-4.6 11.4-7.4 2.5-2 5-4.9 4-8.4z" fill="#bab0ab" opacity=".35"/><path d="M350.9-73.3c-.1-.3-.3-.4-.6-.3-28.6 9-57 18.5-85.3 28.4-28.3 9.9-56.4 20.3-84.4 31.1-7.9 3-15.7 6.2-23.5 9.2-7.2 2.8-15.2 5.4-22.9 3.2 6.9-9.4 15.9-17 25.4-23.6 10.4-7.3 21.4-13.9 32.2-20.5C215-60 238.4-73.7 261.7-87.6c13.3-7.9 26.6-15.8 40-23.7.6-.3.1-1.1-.5-.9-26.5 13-52.9 25.9-79.4 38.9l-78.9 38.7c-7.3 3.6-14.6 7.2-22 10.8-3.7 1.8-7.5 3.7-11.2 5.5-2.4 1.2-6.2 2.8-8.5.7C119-38.3 139.6-56.3 161.1-73c21.9-16.9 44.7-32.5 67.2-48.5 12.5-8.9 25.8-17.6 35.6-29.6.3-.3 0-1-.5-.8-16.1 6.7-32 13.6-47.8 20.9-16 7.3-31.9 15-47.6 22.9-8.8 4.5-17.6 9-26.3 13.6-.6.3-.1 1.2.5.9 15.4-8.2 31-16.1 46.7-23.7 15.7-7.6 31.5-14.9 47.5-21.9 8.5-3.7 17-7.4 25.5-10.9-8.8 10.1-20 17.8-30.9 25.6l-33.6 23.7c-22.3 15.8-44.4 32-64.9 50.2-11.5 10.2-22.4 21-32.4 32.6-.2.2-.2.5 0 .7 1.5 1.8 4 1.9 6.2 1.3 2.9-.7 5.7-2.4 8.3-3.7 6.8-3.3 13.6-6.7 20.4-10 13.5-6.6 26.9-13.2 40.4-19.8 27-13.2 54-26.4 80.9-39.6 11.3-5.5 22.6-11.1 33.9-16.6-20.2 12-40.4 23.9-60.6 35.9-11.8 7-23.7 14.1-35.4 21.3-11 6.7-22 13.4-32.7 20.6-10.7 7.3-21 15.6-28.6 26.2-.2.3 0 .6.3.7 6.7 2.1 13.7.7 20.2-1.6 7-2.4 13.7-5.3 20.6-8 14.1-5.5 28.3-10.9 42.5-16.1 28.4-10.5 57-20.6 85.7-30.2 15.9-5.3 31.9-10.5 47.8-15.6.7 3.4-2.6 6.2-5.2 7.9-3.4 2.3-6.9 4.4-10.3 6.5-7 4.3-14 8.6-21.1 12.8-14.3 8.5-28.7 16.7-43.3 24.6-8.2 4.4-16.5 8.8-24.8 13-.6.3-.1 1.2.5.9 15.3-7.8 30.4-15.9 45.4-24.4 14.9-8.4 29.7-17.2 44.3-26.3 3.8-2.4 7.9-4.6 11.4-7.4 2.5-2 5-4.9 4-8.4z" fill="#bab0ab" opacity=".35"/><path d="M250.9-73.3c-.1-.3-.3-.4-.6-.3-28.6 9-57 18.5-85.3 28.4-28.3 9.9-56.4 20.3-84.4 31.1C72.7-11.2 64.9-8 57-5 49.8-2.2 41.8.4 34.1-1.8c6.9-9.4 15.9-17 25.4-23.6 10.4-7.3 21.4-13.9 32.2-20.5 23.2-14.2 46.6-27.9 69.9-41.8 13.3-7.9 26.6-15.8 40-23.7.6-.3.1-1.1-.5-.9-26.5 13-52.9 25.9-79.4 38.9-26.3 13-52.6 25.8-78.9 38.7-7.3 3.6-14.6 7.2-22 10.8-3.7 1.8-7.5 3.7-11.2 5.5-2.4 1.2-6.2 2.8-8.5.7C19-38.3 39.6-56.3 61.1-73c21.9-16.9 44.7-32.5 67.2-48.5 12.5-8.9 25.8-17.6 35.6-29.6.3-.3 0-1-.5-.8-16.1 6.7-32 13.6-47.8 20.9-16 7.3-31.9 15-47.6 22.9-8.8 4.5-17.6 9-26.3 13.6-.6.3-.1 1.2.5.9 15.4-8.2 31-16.1 46.7-23.7 15.7-7.6 31.5-14.9 47.5-21.9 8.5-3.7 17-7.4 25.5-10.9-8.8 10.1-20 17.8-30.9 25.6l-33.6 23.7C75.2-85.1 53-68.9 32.6-50.7 21.1-40.5 10.2-29.7.2-18.1c-.2.2-.2.5 0 .7 1.5 1.8 4 1.9 6.2 1.3 2.9-.7 5.7-2.4 8.3-3.7 6.8-3.3 13.6-6.7 20.4-10C48.6-36.4 62-43 75.5-49.6c27-13.2 54-26.4 80.9-39.6 11.3-5.5 22.6-11.1 33.9-16.6-20.2 12-40.4 23.9-60.6 35.9-11.8 7-23.7 14.1-35.4 21.3-11 6.7-22 13.4-32.7 20.6-10.7 7.3-21 15.6-28.6 26.2-.2.3 0 .6.3.7C40 1 47-.4 53.5-2.7c7-2.4 13.7-5.3 20.6-8 14.1-5.5 28.3-10.9 42.5-16.1 28.4-10.5 57-20.6 85.7-30.2 15.9-5.3 31.9-10.5 47.8-15.6.7 3.4-2.6 6.2-5.2 7.9-3.4 2.3-6.9 4.4-10.3 6.5-7 4.3-14 8.6-21.1 12.8-14.3 8.5-28.7 16.7-43.3 24.6-8.2 4.4-16.5 8.8-24.8 13-.6.3-.1 1.2.5.9 15.3-7.8 30.4-15.9 45.4-24.4 14.9-8.4 29.7-17.2 44.3-26.3 3.8-2.4 7.9-4.6 11.4-7.4 2.4-1.9 4.9-4.8 3.9-8.3z" fill="#bab0ab" opacity=".35"/></pattern><defs><path d="m130.7 265.7-2.6 1.6-6.3-1.2 1.6-4.7 3.6-.7 3.7 5zm524.5-25.1 5.4-5.8 4.8 1.8-6.2 5.5-4.7 5.3-5.9-.9.8-2.5 5.8-3.4zm-48.7-6.1 1.5 2.8-5.1 3.3-3-5.3 6.6-.8zm64.7-1.6-1.9 2.7-4.8-4 1.9-4.7 8.5.7-3.7 5.3zm-521.6-13.7 2.7 3.1 1 3.6-2.1 2.9-3.3 1.2-6.9.2.4 4.1-6.6.9 1.6 4-2.6 4.8-4.5 2.8 4.3 2.1-7.8 7.8 1.3 3.5-8.8 2.7-5.3-2.8-1.5-12.4 2.1-2 2.2-12.9 1.1-6.2 3.8-10.4-.1-7.9 1.3-2.7 1.8-13.8-.6-6.8-2.4-2.2-10.1-6-2.4-5.4-5.9-11.1L99 158l-.4-3.1 2.5-3-1.4-5.2 1.9-4.1 2.7-1.4.9-2.8 2.9-2.7-.8-6.3-3.6-5.1-3 2-5.5-.3-1.5-1.8-4.8-2.4.2-2.1-4.6-5.1-1.5.5-6.1-1.7-7.7-5-4.1 1.2-9.5-3.4-5.9-2.5-3.3-2.3-2.3-7.7-7.2-8.1-6.5-5.6-2-4.9-3.4 2.2 6.8 7.8-1.5 1.4-4.8-2.5.7-3.2-3-2.2-3.9-7.7-2.7-2.2-4.1-.9-7.4-10-1.5-3-.3-5.4 1.4-6.1-1.8-5.9L7 35.6l-10.2-4.1-6.9-8.8-3.2-1.5-4.7-5.8-8.2-.8-4.6-2.3-9.1-1-7-2-2 2-13.8 4.1-7.7 1.3-9.2-4.6-4.3-.4-5.1-3.8 3.5-3.7 8-2.4-12.1-1-3.7-2.2 8.1-2-2-3.2 7.7-5.1 11.8-2.3 9.6 1.7 19.2 1 15.7 2.8L-3.4-12l3.8 2 9.5-.7 16.8 3.1 8.8.9 8.4-1.8 4 1.7 13.1.5 9.3-2.9-5-2.3 2.8-4.1L84-8.1l5.5-2.8L99-9.3l-.2 4.5-10.4 2.4L83 1.9 72.6 6.6l-3.3 4.2 5.2 6.7 3.1-.4 13.1 4.4 6.1.3 1.9 6.6 6.2-.9-1.2-3.5 5.7-5.3-4.4-5 2.6-2.3-1.6-5.5 9.5-.3 9.4 3.1.7 4.7 6.8.4 3.6-3.5 11.1 11.4 5 1.3 3.7 5.5-9.6 4.2h-14.1l3 2.2 1.3 6.6 7.6 2.2-9.6 3.8-3.9-3.5-6.6 3.2-1.2 4.9-7.4 1.9-3.9 6v5.3L105 69l-6.2 5.4-.3 1.6 3.2 8.5-2.5 3.7-3.7-6-1.9-4.5-3.1.7-2.9-1.7-6.2.2-.5 2.6-4.9-1.3-6.8.4-5.9 4.7.5 3.3-1.6 7.6 1.5 4 2.9 4 3.3 1.5 8.1-2.5 1.1-3.8 7.2-1.2.5 1.5-4.6 11 10.1.1 2.7 1.9-1.6 8 3.7 5.3 5.8-1.4 6.1 2.2 2.6-1.8.4-2.6 2.8-1.5 6.2.8 5.6-1.1 1.5 2 12.1.3 4.2 2.3 8.2 7.5 4.7-.1 4.8 1.4 3.5 2.7 3 7-1 2.5 3.9.4 8.2 2.9 1.1 1.3 6.5 1.7 3.3-.1 6.1 4.3 4.4 1.4 1.1 4.2-.9 3.7-4.2 4.5-4.2 6.1.2 4.1-2 8.7-2.6 5.2-2.3 2.3-5.9.8-4 1.6-4.5 4-.9 6.2-4 5.1-3.4 2.8-3.4 4.8-2.5 1.2-8-2.2zm409.2-3.8-4.3 1.7-1.2 2.1-8.3.2-4.1 2.4-6.6-1.9 1.7-4.4-1.7-6.1-1.9-3-1.7-8.3 2.8-5.7 4.6-2.5 9.2-2.2 3.1-3.3.2-2.1 7.5-6.7 3.1-.9 2.9 2.3 2.3-1 2.7-4.2 6.5-1.7 7.5 1.3-3.4 5.2 8.5 5.9h3.6l1.8-5.2v-5.8l1.8-3.9 3.1 8.6 3.2 1 2.2 8.8 5.5 3.2 1.8 4.3 7 6.5 1.6 6.3-1.5 7.8-2.6 3.1-3.6 7.5-8.3 5.8-4.1-2.1-1.9 1.6-6.6-1.8-2.4-4.2-3.2-1.2-8.5-6.6-6.5-2.5-11.8 1.7zm-206.9-12.1-.8 3.5-9.4 9.9-5.4 2.6-7.1-.2-6.6 2.1-3-2.1v-4.9l-6.7-10.1-2.1-11-5.5-9V179l2.1-5.9 2-2.4-.9-7.7-2.9-7.8-6.9-8.7 2.2-9.3-2.9-3.8-5.8 1.1-3.5-4.4-7.2.8-6.7 2.7-4.5-1-8.2 1.8-2.9-1-8.7-6.6-.7-2.5-7.6-7.7-1.1-5.6 1.6-2.7.4-8.8-1.7-2 2.4-6 3.4-5.6 4-4 2.1-.2 4.7-4-.6-2.8 2.6-4.6 3.9-1.9 2.2-3.6 8.3 1.3 8.1-3.2 17.8-1.7 3.2 3.7-1.8 3 3 2.6 8.3 1.9 1 2 7.5 2.5 3.9-5.4 17.9 4.1 4.6-1.5 7.3.7 3.8-7.6.3-2.6-3.2-2.2-4.9 1.5-4.2-1.3-2.1 1.2-4.6-1.1-2.9-3.4-.3-2.8 6.8-3.9 4.2.3 5.2-2.1h3.7l7 2.4 7.1-1.3-.2-2.4-8.7-4.5.3-4.4-9.4 1.5-6-1.4-4.2 3.7-2.6 5.2L343 53l-8.6.2-4.6 2.8 2.6 4.4-5.2 1.8L326 59l-3.8-4.3-.1-3.6-7.4-3.6-2.5-3.5-3.9-1.5-1.2 3.7 7.3 5.7 3.6 1.5-2.4 2.4-9.6-4.2-7.1-5.9-5.2 2.7-7.6.1-.1 2.6-4.9 2-3.3 7.5-3.2 2.1-15-.4-1.4-4.1 1.7-4.5-.5-4.1 2.2-2.6 13.5.7 1.6-5.7-3.9-3.4 4.4-3.9 5.2-1.7 5.5-3.3 1.9-3.3 11.6-3.3 9.3 1.9 7.8-2.4 4.5.9 3.6-1.7-.4-3.5 5-5.3 10.3-.6.2-2.3-11.5 1.5-3.4-1.9-.6-4.2 9.6-5.6-7.1-1.3-1.8 2.9-7.8 3.7-1.6 3.1 3.7 2.8-4.3 3-2.1 5.8-7.2-.5-5-7-4.4 2.6-6-.6-1.5-7.5L303 1.3l9.4-7.4 9.8-4.4 19.9-3L354-9.6l14.4 3 1.8 2.5-6.1 1.8-7.8.3.3 3.3 20-3.7 21.7-6.2 8 .9 13.7-2.4 7.6.2-.5-3.5 7.2-4.5 12.7 1.6h8.8l1.9-3 14-.6.8-2.6 26.1-2.9 12-2.8 14.9 2.2 6.2 3.1.2 3.8 28.8.1 3.3 3.5 12 1.3 13.3-.2 1.3-3 20 1.4 7.7 3 9-.4 8.7 3.5 15.3-.3 17.5-.6 9.5 2V0l-1.4 4.4-12.6 3-6.6 2.9-9.8 1.2-6.1-.2-3.4 3.6 2.6 1.4-2.4 6.1-11.9 8.6-3-9.7 3.1-5.4 3.4-.5 3.9-5.5-1.8-2.7-5.7.8-5.6 3.7-6.5 2.2-12.8-1.2-7.3.6-15.7 9.6 4.6 1.7 6-.5 3.2 2.4-2.9 10.3-4.1 4.7-7.4 6.5-5.7.2-5.8 3.7.1 1.6-4.8 2.5 4.3 6.6-.8 3.8-5.8 1.5-.7-7.4-3.2-.8-1-4-4.7 1.7-1.7-1.3-8.5 2.2 4.8 3.5 2.5-1.6 3.4.9-7.1 5.6 2.4 1.2 3.7 5.9.4 4.1-7.6 11.7-6.1 3.9-9 2.7-7.4-.4-4 2.3-2.3 3.6 3.8 5.2 3.4 3.2 1 4.1-.3 3.9-9 6.8-.2-2.9-3.5-1.6-2-3.5-3.6-2.7-2.1 2.5-1.9 5.2 2.9 5.6 6.5 5.7.3 8.1-4.7-3.4-2.7-5.7.2-1.6-4-5.2v-10.5l-3-8.4-4 2.7-2.6-.7.3-4.8-4.3-5.4-2.1-4.6-2.5 2.1-7.3.8-1.1 3-5.7 4.1-8 5.3-.1 6.4-.9 5.9-5.1 5.3-2.1-2.1-3.8-8.5-.9-4.2-2-3-2-11.9-4.8 1.1-2.5-4.4-4.2-2.4-2.4-3.3-10.8.8-9.1-1.5-2-3.1-3.9 1.5-7.1-3.1-3.1-5.1-4.8.4 1.9 5.1 3 2.2 3.2 5.4 5.4.3 4.6-4.3 3 4.8 2.9.7 2.4 2.8-4.5 7.2-5.6 4.1-6.4 1.9-.5 1.7-8.1 3.3-11.5 3-1.6-8.2-4.1-7-4-4-1.4-5.3-7.5-9.7-4 .8 7.8 12.6 1.4 7.5 2.1 1.4 1.9 4.6 9 7.8 1.8 4.3 5.6-.8 9.9-2.7-.1 3.1-3.5 8.5-6.4 8.8-7.6 5.7-3.4 4.4-2.9 2-3.4 7.4 1.6 2.1-.6 3.6 2.9 5.1.7 8.7-2.9 4.5-4.5 1.9-5.8 4.9 1.7 5.1-.2 4.5-6.4 3.6.3 2.1zm34.9-151.9 2.3 2.7-1.6 5 4.3 3.2 6.6-.2.1-4.4-2.6-2.4 4.5-2-2.2-2.6-5.3-2.2-.1-4.7h3.8v-3.5l-4.1-.4-7.8 3.1-2.2 2.3 4.3 6.1zm2.2 120.3 2.1 6.1-2.2 4.2-2.1 7.5-3.2 9.8-3.7 1.5-3-1.4-1.7-6.5 2.5-4.4-.9-5.9 1.1-2.6 4.1-1 7-7.3zm202.7-21.9 7.9 2.8 5.3 6.3 6.2 8.1-4.2-.6-4.1-4.6-2.9-1-3.2 1.4-1.5 2.4-3.5-.5-5.2-4-1.6-4.3-6.1-2.1-7-3.6.9-5.4 3.6.9 1 4.4 2.3 1.3 1.9-2.4 4.5-1.3 5.7 2.2zm-72.1 8.5 9.2 1.2 1.9 3.1-11.5-1.3-6.5-2 1.5-2.1 5.4 1.1zm32-16.2-6.1 1.4-.3 1.7 3.2 3.1 3.7 6.2-1.2 2.1-5.2-6 .3 5.8-2.4-.3.3-4.2-1.6-1.5 2.8-7.5 1.9-1.7 4.6.9zm-11.1-7.2.4 4.1-1.2 6.9-2.1 1.5-1.2 4.8-2.5 1-3.6-2.2-6.7-.4-.3-3-2.3-2.6 1.3-5.5 7.4-2.4 7.2-6.7 6.6 1.6-3 2.9zm-30 11.5 1.2 2.8 2.7 1.6-.7 6.2h-2.5l-4.7-3.7-8.8-13.4-7.1-7 4.7-.6 7 7h2.2l6 7.1zm48.8-21 .3 2.7-5.1 2.3-2-2.8.4-2.8 6.1-1.3.3 1.9zm-98.9 2-.3 2.3-2.9 1.1-1.5-4.9 2.5-2.4 2.2 3.9zm89.9-23.8.4 2.5-1.9 2.6.1 3.5-3.7-1.4 1.4-7.8 3.7.6zm-430.1.4-2.4-3.2 4.4-.9 5.5 2.8-7.5 1.3zM96.8 92.6l8.7 1.5 4 2.9 2 2.9h-4.7l-2.1-3.9-6.9-1.3-1-2.1zm496.9-35.4-2 2.2-.4 5.2-4 2.6-8.6.2-6.5 1.5-1.8 5.4-4.3-4.1 7.1-4.7 6.8-.2 8.3-6 1-5.2 3.3-1.8 1.1 4.9zm6-10.6-3.2 4.4-4-3.1 1.3-4.8 5.9 3.5zM155.9 30.3l-.5 3.8 5.2.8.9 5.8-7-2.2-6.7.1 5.6-8.2 2.5-.1zm109.5-5.7-1.3 3.6-3.9 1.3-2.5-4.9 4.7-2.8 3 2.8zm6.9 1.1-1.2-2.7-4.3-1.5-1.2-3.3 2.5-4.1 6.8 2.1-.3 3.9 5.7 6.6.2 4.8-9.2 1.2-3.7-3.9 4.7-3.1zm-206-60.3 18.2.6 4.4 2.2-15.7 2.2-6.9-5zM-108.6-4.9l6.8.7-4.5 5.8-9.9-2.5-3.6.9v-8.8l11.2 3.9zM247-3.3l2 3-11.2 3.6-9.1-1-2-5.1 6.8 1.2L247-3.3zM43-18l4.6 4.6 7.7 2.1-3.2 2.8-7.8-.9L28-7.9l-6.2-1.4-7.3-5.3 9.3-3.9L43-18zm61.5 1.6 2.1-.9 24.1 7.9 10.7 6.7-7 3.9-1.9 5.4-10.8-2.2-15.2-5.3 8-1.1 3.6-3.3-10.3-5.5-17-.4L80.7-13l-1.5-3.3 17.5-3.4 7.8 3.3zm293.3-3 7.6 6.9-7.2-.3-4.9-2.8 4.5-3.8zM175.5-39.1l43.6-2 33 4.9-16.6 5.6 2.7 3.9-2 6-9 4.9 2.4 4.3-12 3.7-11.2 1.6-7.8 3.9-7.7 1.2-7.9 11.9-10.8-1.7-7.5-6.1-5.2-7.9 2.2-2.6-3.8-2.8 1.5-4.3-10.1-8.8-22-1.2-10.3-5.2 23.3-7.4 35.2-1.9zM9.7-21l13.4 2.2-16.8 5.7L0-15.3 9.7-21zm74 .1-10.5-3.3 28.9 2.1-18.4 1.2zm-43.6-3.2-9.8 3.2-12.2-1.8 5.1-2.8 16.9 1.4zm36-13.4 27.2-2.7 38.6 1.7-20.6 5.7-19 5.7-1.8 2.3-19.8-.6 9.7-6.4-14.3-5.7z" id="a"/></defs><clipPath id="c"><use xlink:href="#a" overflow="visible"/></clipPath><path d="M-68.9-41.1h783v323h-783z" fill="url(#b)" clip-path="url(#c)"/></svg>