<?xml version="1.0" encoding="utf-8"?>
<!-- Generator: Adobe Illustrator 25.2.0, SVG Export Plug-In . SVG Version: 6.00 Build 0)  -->
<svg version="1.1" id="Layer_1" opacity="0.8" xmlns="http://www.w3.org/2000/svg" xmlns:xlink="http://www.w3.org/1999/xlink"
	 x="0px" y="0px" viewBox="0 0 679.1 267.9" style="enable-background:new 0 0 679.1 267.9;" xml:space="preserve">
<style type="text/css">
	.st0{fill:none;}
	.st1{opacity:0.35;fill:#BAB0AB;}
	.st2{opacity:0.5;fill:#BAB0AB;}
	.st3{clip-path:url(#_x30__1_);fill:url(#New_Pattern_10);}
</style>
<pattern  x="-120.9" y="267.9" width="100" height="100" patternUnits="userSpaceOnUse" id="New_Pattern_10" viewBox="175.6 -223.7 100 100" style="overflow:visible;">
	<g>
		<rect x="175.6" y="-223.7" class="st0" width="100" height="100"/>
		<g>
			<path class="st1" d="M450.9-73.3c-0.1-0.3-0.3-0.4-0.6-0.3c-28.6,9-57,18.5-85.3,28.4c-28.3,9.9-56.4,20.3-84.4,31.1
				c-7.9,3-15.7,6.2-23.5,9.2c-7.2,2.8-15.2,5.4-22.9,3.2c6.9-9.4,15.9-17,25.4-23.6c10.4-7.3,21.4-13.9,32.2-20.5
				c23.2-14.2,46.6-27.9,69.9-41.8c13.3-7.9,26.6-15.8,40-23.7c0.6-0.3,0.1-1.1-0.5-0.9c-26.5,13-52.9,25.9-79.4,38.9
				c-26.3,12.9-52.6,25.8-78.9,38.7c-7.3,3.6-14.6,7.2-22,10.8c-3.7,1.8-7.5,3.7-11.2,5.5c-2.4,1.2-6.2,2.8-8.5,0.7
				C219-38.3,239.6-56.3,261.1-73c21.9-16.9,44.7-32.5,67.2-48.5c12.5-8.9,25.8-17.6,35.6-29.6c0.3-0.3,0-1-0.5-0.8
				c-16.1,6.7-32,13.6-47.8,20.9c-16,7.3-31.9,15-47.6,22.9c-8.8,4.5-17.6,9-26.3,13.6c-0.6,0.3-0.1,1.2,0.5,0.9
				c15.4-8.2,31-16.1,46.7-23.7c15.7-7.6,31.5-14.9,47.5-21.9c8.5-3.7,17-7.4,25.5-10.9c-8.8,10.1-20,17.8-30.9,25.6
				c-11.2,7.9-22.4,15.8-33.6,23.7c-22.3,15.8-44.4,32-64.9,50.2c-11.5,10.2-22.4,21-32.4,32.6c-0.2,0.2-0.2,0.5,0,0.7
				c1.5,1.8,4,1.9,6.2,1.3c2.9-0.7,5.7-2.4,8.3-3.7c6.8-3.3,13.6-6.7,20.4-10c13.5-6.6,26.9-13.2,40.4-19.8
				c27-13.2,54-26.4,80.9-39.6c11.3-5.5,22.6-11.1,33.9-16.6c-20.2,12-40.4,23.9-60.6,35.9c-11.8,7-23.7,14.1-35.4,21.3
				c-11,6.7-22,13.4-32.7,20.6c-10.7,7.3-21,15.6-28.6,26.2c-0.2,0.3,0,0.6,0.3,0.7c6.7,2.1,13.7,0.7,20.2-1.6
				c7-2.4,13.7-5.3,20.6-8c14.1-5.5,28.3-10.9,42.5-16.1c28.4-10.5,57-20.6,85.7-30.2c15.9-5.3,31.9-10.5,47.8-15.6
				c0.7,3.4-2.6,6.2-5.2,7.9c-3.4,2.3-6.9,4.4-10.3,6.5c-7,4.3-14,8.6-21.1,12.8c-14.3,8.5-28.7,16.7-43.3,24.6
				c-8.2,4.4-16.5,8.8-24.8,13c-0.6,0.3-0.1,1.2,0.5,0.9c15.3-7.8,30.4-15.9,45.4-24.4c14.9-8.4,29.7-17.2,44.3-26.3
				c3.8-2.4,7.9-4.6,11.4-7.4C449.4-66.9,451.9-69.8,450.9-73.3z"/>
			<path class="st2" d="M378.1-127.5c-30.7,6.4-60.8,15.6-89.9,27.4c-8.2,3.3-16.3,6.7-24.9,8.8c-1.9,0.5-1.1,3.3,0.8,2.9
				c7.7-1.8,15-4.7,22.3-7.7c7.2-2.9,14.4-5.8,21.7-8.4c14.7-5.3,29.7-10,44.9-14c6-1.6,12-3,18.1-4.4c-5.2,3.2-10.6,5.9-16.1,8.6
				c-8.1,3.9-16.2,7.9-24.2,12c-16.1,8.3-31.9,17.2-47.4,26.6c-8.8,5.3-17.4,10.8-26,16.4c-1.2,0.8-0.8,2.9,0.8,2.8
				c6.4-0.4,12.4-2.5,18.4-4.6c6.4-2.3,12.7-4.6,19.1-6.9c12.7-4.6,25.4-9.4,38.1-14.1c0.8-0.3,1.5-0.6,2.3-0.9
				c-21.5,12-42.9,24.2-63.6,37.7c-3.6,2.4-7.2,4.7-10.7,7.2c-3.3,2.3-6.6,4.7-9.3,7.8c-0.8,0.9-0.4,2.7,1.1,2.6
				c4-0.3,7.8-1.5,11.6-2.9c3.7-1.3,7.4-2.7,11.1-4.1c7.6-2.8,15.1-5.6,22.7-8.3c15-5.4,30.2-10.5,45.6-14.4c4.4-1.1,8.7-2.1,13.2-3
				c4-0.8,8.1-1.6,12.2-1.6c-0.4,0.7-1.3,1.3-1.9,1.7c-1.3,0.9-2.7,1.8-4.1,2.6c-2.7,1.7-5.4,3.4-8.2,5c-5.4,3.2-10.8,6.3-16.2,9.4
				c-11,6.2-22,12.4-32.5,19.4c-5.9,3.9-11.7,8.1-17.2,12.5c-1.3,1,0.2,2.7,1.5,2.5c14.8-2.5,28.3-9.1,42.6-13.3
				c3.2-0.9,6.4-1.7,9.6-2.3c-1.4,3-3.7,5.6-6.1,8c-3.5,3.4-7,6.8-10.5,10.2c-1.4,1.3,0.7,3.5,2.1,2.1c3.7-3.6,7.5-7.1,11.1-10.8
				c3.1-3.2,6-6.7,7.2-11c0.3-1.2-0.8-2-1.8-1.8c-14.8,2.2-28.4,8.8-42.7,13.1c-2,0.6-3.9,1.1-5.9,1.6
				c19.2-14.5,40.9-25.3,61.5-37.7c3.2-1.9,6.3-3.9,9.5-5.9c2.5-1.6,5.9-3.7,5.1-7.2c-0.2-0.7-0.8-1.1-1.4-1.1
				c-4.1-0.2-8.1,0.4-12,1.1c-3.9,0.7-7.7,1.6-11.6,2.5c-7.8,1.9-15.6,4-23.3,6.4c-15.3,4.7-30.2,10.3-45.2,15.8
				c-4.2,1.6-8.5,3.1-12.7,4.7c-2.9,1.1-5.9,2.2-8.9,2.9c1.6-1.4,3.3-2.6,5-3.8c3.1-2.2,6.3-4.3,9.5-6.4c6.5-4.3,13.1-8.5,19.8-12.6
				c13.2-8.1,26.7-15.8,40.2-23.3c7.7-4.3,15.4-8.5,23.1-12.8c1.5-0.8,0.5-3.4-1.2-2.7c-25,9.4-50,18.8-75.2,27.9
				c-4.6,1.7-9.3,3.5-14.1,4.6c13.2-8.6,26.7-16.7,40.4-24.5c15.7-8.9,31.8-17.3,48.1-25.1c8.9-4.3,17.8-8.7,25.8-14.5
				C380.6-125.7,379.8-127.8,378.1-127.5z"/>
		</g>
		<g>
			<path class="st1" d="M350.9-73.3c-0.1-0.3-0.3-0.4-0.6-0.3c-28.6,9-57,18.5-85.3,28.4c-28.3,9.9-56.4,20.3-84.4,31.1
				c-7.9,3-15.7,6.2-23.5,9.2c-7.2,2.8-15.2,5.4-22.9,3.2c6.9-9.4,15.9-17,25.4-23.6c10.4-7.3,21.4-13.9,32.2-20.5
				c23.2-14.2,46.6-27.9,69.9-41.8c13.3-7.9,26.6-15.8,40-23.7c0.6-0.3,0.1-1.1-0.5-0.9c-26.5,13-52.9,25.9-79.4,38.9
				c-26.3,12.9-52.6,25.8-78.9,38.7c-7.3,3.6-14.6,7.2-22,10.8c-3.7,1.8-7.5,3.7-11.2,5.5c-2.4,1.2-6.2,2.8-8.5,0.7
				C119-38.3,139.6-56.3,161.1-73c21.9-16.9,44.7-32.5,67.2-48.5c12.5-8.9,25.8-17.6,35.6-29.6c0.3-0.3,0-1-0.5-0.8
				c-16.1,6.7-32,13.6-47.8,20.9c-16,7.3-31.9,15-47.6,22.9c-8.8,4.5-17.6,9-26.3,13.6c-0.6,0.3-0.1,1.2,0.5,0.9
				c15.4-8.2,31-16.1,46.7-23.7c15.7-7.6,31.5-14.9,47.5-21.9c8.5-3.7,17-7.4,25.5-10.9c-8.8,10.1-20,17.8-30.9,25.6
				c-11.2,7.9-22.4,15.8-33.6,23.7c-22.3,15.8-44.4,32-64.9,50.2c-11.5,10.2-22.4,21-32.4,32.6c-0.2,0.2-0.2,0.5,0,0.7
				c1.5,1.8,4,1.9,6.2,1.3c2.9-0.7,5.7-2.4,8.3-3.7c6.8-3.3,13.6-6.7,20.4-10c13.5-6.6,26.9-13.2,40.4-19.8
				c27-13.2,54-26.4,80.9-39.6c11.3-5.5,22.6-11.1,33.9-16.6c-20.2,12-40.4,23.9-60.6,35.9c-11.8,7-23.7,14.1-35.4,21.3
				c-11,6.7-22,13.4-32.7,20.6c-10.7,7.3-21,15.6-28.6,26.2c-0.2,0.3,0,0.6,0.3,0.7c6.7,2.1,13.7,0.7,20.2-1.6
				c7-2.4,13.7-5.3,20.6-8c14.1-5.5,28.3-10.9,42.5-16.1c28.4-10.5,57-20.6,85.7-30.2c15.9-5.3,31.9-10.5,47.8-15.6
				c0.7,3.4-2.6,6.2-5.2,7.9c-3.4,2.3-6.9,4.4-10.3,6.5c-7,4.3-14,8.6-21.1,12.8c-14.3,8.5-28.7,16.7-43.3,24.6
				c-8.2,4.4-16.5,8.8-24.8,13c-0.6,0.3-0.1,1.2,0.5,0.9c15.3-7.8,30.4-15.9,45.4-24.4c14.9-8.4,29.7-17.2,44.3-26.3
				c3.8-2.4,7.9-4.6,11.4-7.4C349.4-66.9,351.9-69.8,350.9-73.3z"/>
			<path class="st2" d="M278.1-127.5c-30.7,6.4-60.8,15.6-89.9,27.4c-8.2,3.3-16.3,6.7-24.9,8.8c-1.9,0.5-1.1,3.3,0.8,2.9
				c7.7-1.8,15-4.7,22.3-7.7c7.2-2.9,14.4-5.8,21.7-8.4c14.7-5.3,29.7-10,44.9-14c6-1.6,12-3,18.1-4.4c-5.2,3.2-10.6,5.9-16.1,8.6
				c-8.1,3.9-16.2,7.9-24.2,12c-16.1,8.3-31.9,17.2-47.4,26.6c-8.8,5.3-17.4,10.8-26,16.4c-1.2,0.8-0.8,2.9,0.8,2.8
				c6.4-0.4,12.4-2.5,18.4-4.6c6.4-2.3,12.7-4.6,19.1-6.9c12.7-4.6,25.4-9.4,38.1-14.1c0.8-0.3,1.5-0.6,2.3-0.9
				c-21.5,12-42.9,24.2-63.6,37.7c-3.6,2.4-7.2,4.7-10.7,7.2c-3.3,2.3-6.6,4.7-9.3,7.8c-0.8,0.9-0.4,2.7,1.1,2.6
				c4-0.3,7.8-1.5,11.6-2.9c3.7-1.3,7.4-2.7,11.1-4.1c7.6-2.8,15.1-5.6,22.7-8.3c15-5.4,30.2-10.5,45.6-14.4c4.4-1.1,8.7-2.1,13.2-3
				c4-0.8,8.1-1.6,12.2-1.6c-0.4,0.7-1.3,1.3-1.9,1.7c-1.3,0.9-2.7,1.8-4.1,2.6c-2.7,1.7-5.4,3.4-8.2,5c-5.4,3.2-10.8,6.3-16.2,9.4
				c-11,6.2-22,12.4-32.5,19.4c-5.9,3.9-11.7,8.1-17.2,12.5c-1.3,1,0.2,2.7,1.5,2.5c14.8-2.5,28.3-9.1,42.6-13.3
				c3.2-0.9,6.4-1.7,9.6-2.3c-1.4,3-3.7,5.6-6.1,8c-3.5,3.4-7,6.8-10.5,10.2c-1.4,1.3,0.7,3.5,2.1,2.1c3.7-3.6,7.5-7.1,11.1-10.8
				c3.1-3.2,6-6.7,7.2-11c0.3-1.2-0.8-2-1.8-1.8c-14.8,2.2-28.4,8.8-42.7,13.1c-2,0.6-3.9,1.1-5.9,1.6
				c19.2-14.5,40.9-25.3,61.5-37.7c3.2-1.9,6.3-3.9,9.5-5.9c2.5-1.6,5.9-3.7,5.1-7.2c-0.2-0.7-0.8-1.1-1.4-1.1
				c-4.1-0.2-8.1,0.4-12,1.1c-3.9,0.7-7.7,1.6-11.6,2.5c-7.8,1.9-15.6,4-23.3,6.4c-15.3,4.7-30.2,10.3-45.2,15.8
				c-4.2,1.6-8.5,3.1-12.7,4.7c-2.9,1.1-5.9,2.2-8.9,2.9c1.6-1.4,3.3-2.6,5-3.8c3.1-2.2,6.3-4.3,9.5-6.4c6.5-4.3,13.1-8.5,19.8-12.6
				c13.2-8.1,26.7-15.8,40.2-23.3c7.7-4.3,15.4-8.5,23.1-12.8c1.5-0.8,0.5-3.4-1.2-2.7c-25,9.4-50,18.8-75.2,27.9
				c-4.6,1.7-9.3,3.5-14.1,4.6c13.2-8.6,26.7-16.7,40.4-24.5c15.7-8.9,31.8-17.3,48.1-25.1c8.9-4.3,17.8-8.7,25.8-14.5
				C280.6-125.7,279.8-127.8,278.1-127.5z"/>
		</g>
		<g>
			<path class="st1" d="M250.9-73.3c-0.1-0.3-0.3-0.4-0.6-0.3c-28.6,9-57,18.5-85.3,28.4c-28.3,9.9-56.4,20.3-84.4,31.1
				C72.7-11.2,64.9-8,57-5c-7.2,2.8-15.2,5.4-22.9,3.2c6.9-9.4,15.9-17,25.4-23.6c10.4-7.3,21.4-13.9,32.2-20.5
				c23.2-14.2,46.6-27.9,69.9-41.8c13.3-7.9,26.6-15.8,40-23.7c0.6-0.3,0.1-1.1-0.5-0.9c-26.5,13-52.9,25.9-79.4,38.9
				C95.4-60.4,69.1-47.6,42.8-34.7c-7.3,3.6-14.6,7.2-22,10.8c-3.7,1.8-7.5,3.7-11.2,5.5c-2.4,1.2-6.2,2.8-8.5,0.7
				C19-38.3,39.6-56.3,61.1-73c21.9-16.9,44.7-32.5,67.2-48.5c12.5-8.9,25.8-17.6,35.6-29.6c0.3-0.3,0-1-0.5-0.8
				c-16.1,6.7-32,13.6-47.8,20.9c-16,7.3-31.9,15-47.6,22.9c-8.8,4.5-17.6,9-26.3,13.6c-0.6,0.3-0.1,1.2,0.5,0.9
				c15.4-8.2,31-16.1,46.7-23.7c15.7-7.6,31.5-14.9,47.5-21.9c8.5-3.7,17-7.4,25.5-10.9c-8.8,10.1-20,17.8-30.9,25.6
				c-11.2,7.9-22.4,15.8-33.6,23.7C75.2-85.1,53-68.9,32.6-50.7c-11.5,10.2-22.4,21-32.4,32.6c-0.2,0.2-0.2,0.5,0,0.7
				c1.5,1.8,4,1.9,6.2,1.3c2.9-0.7,5.7-2.4,8.3-3.7c6.8-3.3,13.6-6.7,20.4-10c13.5-6.6,26.9-13.2,40.4-19.8
				c27-13.2,54-26.4,80.9-39.6c11.3-5.5,22.6-11.1,33.9-16.6c-20.2,12-40.4,23.9-60.6,35.9c-11.8,7-23.7,14.1-35.4,21.3
				c-11,6.7-22,13.4-32.7,20.6c-10.7,7.3-21,15.6-28.6,26.2c-0.2,0.3,0,0.6,0.3,0.7c6.7,2.1,13.7,0.7,20.2-1.6
				c7-2.4,13.7-5.3,20.6-8c14.1-5.5,28.3-10.9,42.5-16.1c28.4-10.5,57-20.6,85.7-30.2c15.9-5.3,31.9-10.5,47.8-15.6
				c0.7,3.4-2.6,6.2-5.2,7.9c-3.4,2.3-6.9,4.4-10.3,6.5c-7,4.3-14,8.6-21.1,12.8c-14.3,8.5-28.7,16.7-43.3,24.6
				c-8.2,4.4-16.5,8.8-24.8,13c-0.6,0.3-0.1,1.2,0.5,0.9c15.3-7.8,30.4-15.9,45.4-24.4c14.9-8.4,29.7-17.2,44.3-26.3
				c3.8-2.4,7.9-4.6,11.4-7.4C249.4-66.9,251.9-69.8,250.9-73.3z"/>
			<path class="st2" d="M178.1-127.5c-30.7,6.4-60.8,15.6-89.9,27.4c-8.2,3.3-16.3,6.7-24.9,8.8c-1.9,0.5-1.1,3.3,0.8,2.9
				c7.7-1.8,15-4.7,22.3-7.7c7.2-2.9,14.4-5.8,21.7-8.4c14.7-5.3,29.7-10,44.9-14c6-1.6,12-3,18.1-4.4c-5.2,3.2-10.6,5.9-16.1,8.6
				c-8.1,3.9-16.2,7.9-24.2,12C114.7-94,98.9-85.1,83.4-75.7c-8.8,5.3-17.4,10.8-26,16.4c-1.2,0.8-0.8,2.9,0.8,2.8
				c6.4-0.4,12.4-2.5,18.4-4.6c6.4-2.3,12.7-4.6,19.1-6.9c12.7-4.6,25.4-9.4,38.1-14.1c0.8-0.3,1.5-0.6,2.3-0.9
				c-21.5,12-42.9,24.2-63.6,37.7c-3.6,2.4-7.2,4.7-10.7,7.2c-3.3,2.3-6.6,4.7-9.3,7.8c-0.8,0.9-0.4,2.7,1.1,2.6
				c4-0.3,7.8-1.5,11.6-2.9c3.7-1.3,7.4-2.7,11.1-4.1c7.6-2.8,15.1-5.6,22.7-8.3c15-5.4,30.2-10.5,45.6-14.4c4.4-1.1,8.7-2.1,13.2-3
				c4-0.8,8.1-1.6,12.2-1.6c-0.4,0.7-1.3,1.3-1.9,1.7c-1.3,0.9-2.7,1.8-4.1,2.6c-2.7,1.7-5.4,3.4-8.2,5c-5.4,3.2-10.8,6.3-16.2,9.4
				c-11,6.2-22,12.4-32.5,19.4c-5.9,3.9-11.7,8.1-17.2,12.5c-1.3,1,0.2,2.7,1.5,2.5c14.8-2.5,28.3-9.1,42.6-13.3
				c3.2-0.9,6.4-1.7,9.6-2.3c-1.4,3-3.7,5.6-6.1,8c-3.5,3.4-7,6.8-10.5,10.2c-1.4,1.3,0.7,3.5,2.1,2.1c3.7-3.6,7.5-7.1,11.1-10.8
				c3.1-3.2,6-6.7,7.2-11c0.3-1.2-0.8-2-1.8-1.8c-14.8,2.2-28.4,8.8-42.7,13.1c-2,0.6-3.9,1.1-5.9,1.6
				c19.2-14.5,40.9-25.3,61.5-37.7c3.2-1.9,6.3-3.9,9.5-5.9c2.5-1.6,5.9-3.7,5.1-7.2c-0.2-0.7-0.8-1.1-1.4-1.1
				c-4.1-0.2-8.1,0.4-12,1.1c-3.9,0.7-7.7,1.6-11.6,2.5c-7.8,1.9-15.6,4-23.3,6.4c-15.3,4.7-30.2,10.3-45.2,15.8
				c-4.2,1.6-8.5,3.1-12.7,4.7c-2.9,1.1-5.9,2.2-8.9,2.9c1.6-1.4,3.3-2.6,5-3.8c3.1-2.2,6.3-4.3,9.5-6.4c6.5-4.3,13.1-8.5,19.8-12.6
				c13.2-8.1,26.7-15.8,40.2-23.3c7.7-4.3,15.4-8.5,23.1-12.8c1.5-0.8,0.5-3.4-1.2-2.7c-25,9.4-50,18.8-75.2,27.9
				c-4.6,1.7-9.3,3.5-14.1,4.6c13.2-8.6,26.7-16.7,40.4-24.5c15.7-8.9,31.8-17.3,48.1-25.1c8.9-4.3,17.8-8.7,25.8-14.5
				C180.6-125.7,179.8-127.8,178.1-127.5z"/>
		</g>
		<g>
			<path class="st1" d="M450.9-173.3c-0.1-0.3-0.3-0.4-0.6-0.3c-28.6,9-57,18.5-85.3,28.4c-28.3,9.9-56.4,20.3-84.4,31.1
				c-7.9,3-15.7,6.2-23.5,9.2c-7.2,2.8-15.2,5.4-22.9,3.2c6.9-9.4,15.9-17,25.4-23.6c10.4-7.3,21.4-13.9,32.2-20.5
				c23.2-14.2,46.6-27.9,69.9-41.8c13.3-7.9,26.6-15.8,40-23.7c0.6-0.3,0.1-1.1-0.5-0.9c-26.5,13-52.9,25.9-79.4,38.9
				c-26.3,12.9-52.6,25.8-78.9,38.7c-7.3,3.6-14.6,7.2-22,10.8c-3.7,1.8-7.5,3.7-11.2,5.5c-2.4,1.2-6.2,2.8-8.5,0.7
				c17.9-20.6,38.4-38.6,59.9-55.2c21.9-16.9,44.7-32.5,67.2-48.5c12.5-8.9,25.8-17.6,35.6-29.6c0.3-0.3,0-1-0.5-0.8
				c-16.1,6.7-32,13.6-47.8,20.9c-16,7.3-31.9,15-47.6,22.9c-8.8,4.5-17.6,9-26.3,13.6c-0.6,0.3-0.1,1.2,0.5,0.9
				c15.4-8.2,31-16.1,46.7-23.7c15.7-7.6,31.5-14.9,47.5-21.9c8.5-3.7,17-7.4,25.5-10.9c-8.8,10.1-20,17.8-30.9,25.6
				c-11.2,7.9-22.4,15.8-33.6,23.7c-22.3,15.8-44.4,32-64.9,50.2c-11.5,10.2-22.4,21-32.4,32.6c-0.2,0.2-0.2,0.5,0,0.7
				c1.5,1.8,4,1.9,6.2,1.3c2.9-0.7,5.7-2.4,8.3-3.7c6.8-3.3,13.6-6.7,20.4-10c13.5-6.6,26.9-13.2,40.4-19.8
				c27-13.2,54-26.4,80.9-39.6c11.3-5.5,22.6-11.1,33.9-16.6c-20.2,12-40.4,23.9-60.6,35.9c-11.8,7-23.7,14.1-35.4,21.3
				c-11,6.7-22,13.4-32.7,20.6c-10.7,7.3-21,15.6-28.6,26.2c-0.2,0.3,0,0.6,0.3,0.7c6.7,2.1,13.7,0.7,20.2-1.6
				c7-2.4,13.7-5.3,20.6-8c14.1-5.5,28.3-10.9,42.5-16.1c28.4-10.5,57-20.6,85.7-30.2c15.9-5.3,31.9-10.5,47.8-15.6
				c0.7,3.4-2.6,6.2-5.2,7.9c-3.4,2.3-6.9,4.4-10.3,6.5c-7,4.3-14,8.6-21.1,12.8c-14.3,8.5-28.7,16.7-43.3,24.6
				c-8.2,4.4-16.5,8.8-24.8,13c-0.6,0.3-0.1,1.2,0.5,0.9c15.3-7.8,30.4-15.9,45.4-24.4c14.9-8.4,29.7-17.2,44.3-26.3
				c3.8-2.4,7.9-4.6,11.4-7.4C449.4-166.9,451.9-169.8,450.9-173.3z"/>
			<path class="st2" d="M378.1-227.5c-30.7,6.4-60.8,15.6-89.9,27.4c-8.2,3.3-16.3,6.7-24.9,8.8c-1.9,0.5-1.1,3.3,0.8,2.9
				c7.7-1.8,15-4.7,22.3-7.7c7.2-2.9,14.4-5.8,21.7-8.4c14.7-5.3,29.7-10,44.9-14c6-1.6,12-3,18.1-4.4c-5.2,3.2-10.6,5.9-16.1,8.6
				c-8.1,3.9-16.2,7.9-24.2,12c-16.1,8.3-31.9,17.2-47.4,26.6c-8.8,5.3-17.4,10.8-26,16.4c-1.2,0.8-0.8,2.9,0.8,2.8
				c6.4-0.4,12.4-2.5,18.4-4.6c6.4-2.3,12.7-4.6,19.1-6.9c12.7-4.6,25.4-9.4,38.1-14.1c0.8-0.3,1.5-0.6,2.3-0.9
				c-21.5,12-42.9,24.2-63.6,37.7c-3.6,2.4-7.2,4.7-10.7,7.2c-3.3,2.3-6.6,4.7-9.3,7.8c-0.8,0.9-0.4,2.7,1.1,2.6
				c4-0.3,7.8-1.5,11.6-2.9c3.7-1.3,7.4-2.7,11.1-4.1c7.6-2.8,15.1-5.6,22.7-8.3c15-5.4,30.2-10.5,45.6-14.4c4.4-1.1,8.7-2.1,13.2-3
				c4-0.8,8.1-1.6,12.2-1.6c-0.4,0.7-1.3,1.3-1.9,1.7c-1.3,0.9-2.7,1.8-4.1,2.6c-2.7,1.7-5.4,3.4-8.2,5c-5.4,3.2-10.8,6.3-16.2,9.4
				c-11,6.2-22,12.4-32.5,19.4c-5.9,3.9-11.7,8.1-17.2,12.5c-1.3,1,0.2,2.7,1.5,2.5c14.8-2.5,28.3-9.1,42.6-13.3
				c3.2-0.9,6.4-1.7,9.6-2.3c-1.4,3-3.7,5.6-6.1,8c-3.5,3.4-7,6.8-10.5,10.2c-1.4,1.3,0.7,3.5,2.1,2.1c3.7-3.6,7.5-7.1,11.1-10.8
				c3.1-3.2,6-6.7,7.2-11c0.3-1.2-0.8-2-1.8-1.8c-14.8,2.2-28.4,8.8-42.7,13.1c-2,0.6-3.9,1.1-5.9,1.6
				c19.2-14.5,40.9-25.3,61.5-37.7c3.2-1.9,6.3-3.9,9.5-5.9c2.5-1.6,5.9-3.7,5.1-7.2c-0.2-0.7-0.8-1.1-1.4-1.1
				c-4.1-0.2-8.1,0.4-12,1.1c-3.9,0.7-7.7,1.6-11.6,2.5c-7.8,1.9-15.6,4-23.3,6.4c-15.3,4.7-30.2,10.3-45.2,15.8
				c-4.2,1.6-8.5,3.1-12.7,4.7c-2.9,1.1-5.9,2.2-8.9,2.9c1.6-1.4,3.3-2.6,5-3.8c3.1-2.2,6.3-4.3,9.5-6.4c6.5-4.3,13.1-8.5,19.8-12.6
				c13.2-8.1,26.7-15.8,40.2-23.3c7.7-4.3,15.4-8.5,23.1-12.8c1.5-0.8,0.5-3.4-1.2-2.7c-25,9.4-50,18.8-75.2,27.9
				c-4.6,1.7-9.3,3.5-14.1,4.6c13.2-8.6,26.7-16.7,40.4-24.5c15.7-8.9,31.8-17.3,48.1-25.1c8.9-4.3,17.8-8.7,25.8-14.5
				C380.6-225.7,379.8-227.8,378.1-227.5z"/>
			<path class="st2" d="M377.2-151c-29.4,6.6-57.9,16.6-86.8,25c-4,1.2-8,2.3-12,3.4c-2.9,0.8-5.7,1.5-8.6,1.7c0.9-1.1,2-2,2.9-2.8
				c2-1.9,4-3.7,6-5.4c4.1-3.5,8.3-6.7,12.7-9.9c8.8-6.4,18-12.3,26.7-18.8c5-3.7,9.9-7.6,14.5-11.7c1.8-1.6-0.1-5.1-2.4-4.2
				c-8.5,3.5-17.1,6.9-25.7,10.3c-4.3,1.7-8.6,3.4-12.9,5.1c-2.1,0.8-4.5,2-6.9,2.7c7.9-8.2,17.6-14.4,27-20.8
				c12.6-8.5,25.2-17,37.8-25.6c3.5-2.4,7-4.7,10.5-7.1c3-2.1,5.6-4.3,7.1-7.8c0.7-1.8-1.4-3.6-3.1-3.1
				c-17.8,5.3-35.3,11.9-52.5,18.9c-17.3,7.1-34.4,14.7-51.6,22.1c-7.3,3.2-14.6,6.3-22,9.4c1.7-1.4,3.6-2.7,5.3-4
				c4.6-3.4,9.2-6.9,13.7-10.3c9-6.8,18-13.6,27.1-20.3c5.2-3.9,10.3-7.8,15.5-11.7c1.1-0.8,1.6-2.2,0.9-3.4
				c-0.7-1.2-2.2-1.6-3.4-0.9c-13.6,7.7-27.6,14.6-42.1,20.4c-4.1,1.6-8.3,3.2-12.5,4.7c-1.3,0.5-2.1,1.7-1.7,3.1
				c0.3,1.2,1.8,2.2,3.1,1.7c10-3.6,19.9-7.6,29.5-12c-11.1,8.4-22.2,16.7-33.3,25.1c-4.2,3.2-11.1,6.8-10.8,13
				c0.1,1.5,1.6,3.1,3.2,2.4c17.3-7,34.4-14.6,51.6-22.1c17-7.4,34.1-14.7,51.5-21.1c6.6-2.5,13.3-4.8,20-6.9
				c-2.8,1.9-5.6,3.8-8.4,5.7c-6.2,4.2-12.3,8.3-18.5,12.5c-6.2,4.2-12.3,8.3-18.5,12.5c-5.7,3.8-11.4,7.6-16.9,11.7
				c-5.9,4.4-11.5,9.3-16.1,15.1c-1,1.3-1,3.9,1.1,4.2c4.8,0.7,9-0.9,13.4-2.6c4.4-1.7,8.9-3.5,13.3-5.3c3.9-1.5,7.8-3.1,11.7-4.7
				c-13.7,10.3-28.4,19.2-41.5,30.3c-2.3,2-4.6,4-6.8,6.2c-2.4,2.3-4.5,4.7-4.8,8.1c-0.1,1.4,1.3,2.4,2.5,2.5
				c3.8,0.3,7.7-0.4,11.4-1.3c3.7-0.9,7.4-2,11.1-3c7.2-2.1,14.5-4.2,21.7-6.4c14.6-4.5,29.1-9.1,43.7-13.2
				c5.3-1.5,10.7-2.9,16.1-4.2c-4.5,4.1-9.3,7.8-14.1,11.5c-3.5,2.8-7.1,5.6-10.4,8.6c-1.6,1.5-3.2,3-4.7,4.6
				c-1.5,1.6-3.4,3.4-4.6,5.4c-0.7,1.1-0.3,2.9-0.5,4.2c-0.2,1.3-0.5,2.5-0.8,3.7c-0.7,2.3-1.9,4.6-3.4,6.5c-0.8,1.1-1,2.5,0,3.5
				c0.9,0.9,2.7,1.1,3.5,0c3.6-4.6,5.7-10,5.8-15.8c8.5-10.6,20.2-17.9,30.4-26.7c3-2.6,5.8-5.3,8.5-8.3
				C381.3-148.7,379.7-151.6,377.2-151z"/>
			<path class="st1" d="M370.2-187.8c-15.8,0.2-31.6,2.4-47.1,5.2c-15.6,2.8-31.1,6.2-46.8,8.7c-9,1.4-18,2.5-27.1,3
				c-1.3,0.1-1.3,2.1,0,2c15.8-0.9,31.5-3.6,47.1-6.5c15.6-3,31.2-6.3,47-8.4c7.5-1,15-1.7,22.5-1.9c-5.8,3-11.3,6.3-16.7,9.9
				c-6.6,4.5-12.9,9.5-19.2,14.5c-13.1,10.4-26.3,20.6-39.7,30.7c-7.5,5.6-15,11.2-22.6,16.7c-0.7,0.5-0.7,1.6,0.2,1.8
				c5.2,1.4,11-0.2,16.1-1.3c5.6-1.2,11.2-2.7,16.8-4.1c11.2-2.9,22.5-5.8,33.6-9c6.3-1.8,12.7-3.8,18.9-5.9
				c1.2-0.4,0.7-2.3-0.5-1.9c-10.8,3.6-21.8,6.8-32.9,9.7c-10.9,2.9-21.9,5.9-32.9,8.4c-3.1,0.7-6.2,1.4-9.3,1.9
				c-2.4,0.4-4.8,0.8-7.2,0.6c12.7-9.4,25.4-18.8,37.9-28.4c6.5-5,13-10,19.4-15.2c6.4-5.2,12.9-10.3,19.6-15.1
				c7.3-5.2,15-9.7,23.1-13.6C371.6-186.4,371.2-187.8,370.2-187.8z"/>
			<path class="st2" d="M375.3-157.3c-26.5,5.6-52.8,11.7-79.1,18.1c-7.4,1.8-14.7,3.7-22.1,5.5c-1.2,0.3-0.7,2.2,0.5,1.9
				c26.2-6.7,52.5-12.9,78.9-18.8c7.4-1.6,14.8-3.3,22.2-4.8C377.1-155.7,376.6-157.6,375.3-157.3z"/>
			<path class="st1" d="M358.9-195.6c-11.2,2.9-22.4,5.7-33.6,8.4c-5.6,1.3-11.2,2.6-16.7,3.9c-5.5,1.3-11.1,2.5-16.6,3.6
				c-6.3,1.2-12.8,2-19.2,2.1c-0.6,0-0.6,1,0,1c11.4-0.2,22.6-2.7,33.7-5.2c11.3-2.5,22.6-5.2,33.8-8c6.3-1.6,12.6-3.2,18.9-4.8
				C359.8-194.8,359.5-195.8,358.9-195.6z"/>
			<path class="st1" d="M343.5-194.4c-9.1,0.2-18.1,0.2-27.2,0.1c-9.1-0.1-18.2-0.3-27.3-0.7c-5.1-0.2-10.2-0.4-15.3-0.7
				c-0.6,0-0.6,1,0,1c9,0.5,18.1,0.9,27.1,1.1c9.1,0.2,18.2,0.4,27.3,0.4c5.1,0,10.2-0.1,15.3-0.1
				C344.2-193.4,344.2-194.4,343.5-194.4z"/>
		</g>
		<g>
			<path class="st1" d="M350.9-173.3c-0.1-0.3-0.3-0.4-0.6-0.3c-28.6,9-57,18.5-85.3,28.4c-28.3,9.9-56.4,20.3-84.4,31.1
				c-7.9,3-15.7,6.2-23.5,9.2c-7.2,2.8-15.2,5.4-22.9,3.2c6.9-9.4,15.9-17,25.4-23.6c10.4-7.3,21.4-13.9,32.2-20.5
				c23.2-14.2,46.6-27.9,69.9-41.8c13.3-7.9,26.6-15.8,40-23.7c0.6-0.3,0.1-1.1-0.5-0.9c-26.5,13-52.9,25.9-79.4,38.9
				c-26.3,12.9-52.6,25.8-78.9,38.7c-7.3,3.6-14.6,7.2-22,10.8c-3.7,1.8-7.5,3.7-11.2,5.5c-2.4,1.2-6.2,2.8-8.5,0.7
				c17.9-20.6,38.4-38.6,59.9-55.2c21.9-16.9,44.7-32.5,67.2-48.5c12.5-8.9,25.8-17.6,35.6-29.6c0.3-0.3,0-1-0.5-0.8
				c-16.1,6.7-32,13.6-47.8,20.9c-16,7.3-31.9,15-47.6,22.9c-8.8,4.5-17.6,9-26.3,13.6c-0.6,0.3-0.1,1.2,0.5,0.9
				c15.4-8.2,31-16.1,46.7-23.7c15.7-7.6,31.5-14.9,47.5-21.9c8.5-3.7,17-7.4,25.5-10.9c-8.8,10.1-20,17.8-30.9,25.6
				c-11.2,7.9-22.4,15.8-33.6,23.7c-22.3,15.8-44.4,32-64.9,50.2c-11.5,10.2-22.4,21-32.4,32.6c-0.2,0.2-0.2,0.5,0,0.7
				c1.5,1.8,4,1.9,6.2,1.3c2.9-0.7,5.7-2.4,8.3-3.7c6.8-3.3,13.6-6.7,20.4-10c13.5-6.6,26.9-13.2,40.4-19.8
				c27-13.2,54-26.4,80.9-39.6c11.3-5.5,22.6-11.1,33.9-16.6c-20.2,12-40.4,23.9-60.6,35.9c-11.8,7-23.7,14.1-35.4,21.3
				c-11,6.7-22,13.4-32.7,20.6c-10.7,7.3-21,15.6-28.6,26.2c-0.2,0.3,0,0.6,0.3,0.7c6.7,2.1,13.7,0.7,20.2-1.6
				c7-2.4,13.7-5.3,20.6-8c14.1-5.5,28.3-10.9,42.5-16.1c28.4-10.5,57-20.6,85.7-30.2c15.9-5.3,31.9-10.5,47.8-15.6
				c0.7,3.4-2.6,6.2-5.2,7.9c-3.4,2.3-6.9,4.4-10.3,6.5c-7,4.3-14,8.6-21.1,12.8c-14.3,8.5-28.7,16.7-43.3,24.6
				c-8.2,4.4-16.5,8.8-24.8,13c-0.6,0.3-0.1,1.2,0.5,0.9c15.3-7.8,30.4-15.9,45.4-24.4c14.9-8.4,29.7-17.2,44.3-26.3
				c3.8-2.4,7.9-4.6,11.4-7.4C349.4-166.9,351.9-169.8,350.9-173.3z"/>
			<path class="st2" d="M278.1-227.5c-30.7,6.4-60.8,15.6-89.9,27.4c-8.2,3.3-16.3,6.7-24.9,8.8c-1.9,0.5-1.1,3.3,0.8,2.9
				c7.7-1.8,15-4.7,22.3-7.7c7.2-2.9,14.4-5.8,21.7-8.4c14.7-5.3,29.7-10,44.9-14c6-1.6,12-3,18.1-4.4c-5.2,3.2-10.6,5.9-16.1,8.6
				c-8.1,3.9-16.2,7.9-24.2,12c-16.1,8.3-31.9,17.2-47.4,26.6c-8.8,5.3-17.4,10.8-26,16.4c-1.2,0.8-0.8,2.9,0.8,2.8
				c6.4-0.4,12.4-2.5,18.4-4.6c6.4-2.3,12.7-4.6,19.1-6.9c12.7-4.6,25.4-9.4,38.1-14.1c0.8-0.3,1.5-0.6,2.3-0.9
				c-21.5,12-42.9,24.2-63.6,37.7c-3.6,2.4-7.2,4.7-10.7,7.2c-3.3,2.3-6.6,4.7-9.3,7.8c-0.8,0.9-0.4,2.7,1.1,2.6
				c4-0.3,7.8-1.5,11.6-2.9c3.7-1.3,7.4-2.7,11.1-4.1c7.6-2.8,15.1-5.6,22.7-8.3c15-5.4,30.2-10.5,45.6-14.4c4.4-1.1,8.7-2.1,13.2-3
				c4-0.8,8.1-1.6,12.2-1.6c-0.4,0.7-1.3,1.3-1.9,1.7c-1.3,0.9-2.7,1.8-4.1,2.6c-2.7,1.7-5.4,3.4-8.2,5c-5.4,3.2-10.8,6.3-16.2,9.4
				c-11,6.2-22,12.4-32.5,19.4c-5.9,3.9-11.7,8.1-17.2,12.5c-1.3,1,0.2,2.7,1.5,2.5c14.8-2.5,28.3-9.1,42.6-13.3
				c3.2-0.9,6.4-1.7,9.6-2.3c-1.4,3-3.7,5.6-6.1,8c-3.5,3.4-7,6.8-10.5,10.2c-1.4,1.3,0.7,3.5,2.1,2.1c3.7-3.6,7.5-7.1,11.1-10.8
				c3.1-3.2,6-6.7,7.2-11c0.3-1.2-0.8-2-1.8-1.8c-14.8,2.2-28.4,8.8-42.7,13.1c-2,0.6-3.9,1.1-5.9,1.6
				c19.2-14.5,40.9-25.3,61.5-37.7c3.2-1.9,6.3-3.9,9.5-5.9c2.5-1.6,5.9-3.7,5.1-7.2c-0.2-0.7-0.8-1.1-1.4-1.1
				c-4.1-0.2-8.1,0.4-12,1.1c-3.9,0.7-7.7,1.6-11.6,2.5c-7.8,1.9-15.6,4-23.3,6.4c-15.3,4.7-30.2,10.3-45.2,15.8
				c-4.2,1.6-8.5,3.1-12.7,4.7c-2.9,1.1-5.9,2.2-8.9,2.9c1.6-1.4,3.3-2.6,5-3.8c3.1-2.2,6.3-4.3,9.5-6.4c6.5-4.3,13.1-8.5,19.8-12.6
				c13.2-8.1,26.7-15.8,40.2-23.3c7.7-4.3,15.4-8.5,23.1-12.8c1.5-0.8,0.5-3.4-1.2-2.7c-25,9.4-50,18.8-75.2,27.9
				c-4.6,1.7-9.3,3.5-14.1,4.6c13.2-8.6,26.7-16.7,40.4-24.5c15.7-8.9,31.8-17.3,48.1-25.1c8.9-4.3,17.8-8.7,25.8-14.5
				C280.6-225.7,279.8-227.8,278.1-227.5z"/>
			<path class="st2" d="M277.2-151c-29.4,6.6-57.9,16.6-86.8,25c-4,1.2-8,2.3-12,3.4c-2.9,0.8-5.7,1.5-8.6,1.7c0.9-1.1,2-2,2.9-2.8
				c2-1.9,4-3.7,6-5.4c4.1-3.5,8.3-6.7,12.7-9.9c8.8-6.4,18-12.3,26.7-18.8c5-3.7,9.9-7.6,14.5-11.7c1.8-1.6-0.1-5.1-2.4-4.2
				c-8.5,3.5-17.1,6.9-25.7,10.3c-4.3,1.7-8.6,3.4-12.9,5.1c-2.1,0.8-4.5,2-6.9,2.7c7.9-8.2,17.6-14.4,27-20.8
				c12.6-8.5,25.2-17,37.8-25.6c3.5-2.4,7-4.7,10.5-7.1c3-2.1,5.6-4.3,7.1-7.8c0.7-1.8-1.4-3.6-3.1-3.1
				c-17.8,5.3-35.3,11.9-52.5,18.9c-17.3,7.1-34.4,14.7-51.6,22.1c-7.3,3.2-14.6,6.3-22,9.4c1.7-1.4,3.6-2.7,5.3-4
				c4.6-3.4,9.2-6.9,13.7-10.3c9-6.8,18-13.6,27.1-20.3c5.2-3.9,10.3-7.8,15.5-11.7c1.1-0.8,1.6-2.2,0.9-3.4
				c-0.7-1.2-2.2-1.6-3.4-0.9c-13.6,7.7-27.6,14.6-42.1,20.4c-4.1,1.6-8.3,3.2-12.5,4.7c-1.3,0.5-2.1,1.7-1.7,3.1
				c0.3,1.2,1.8,2.2,3.1,1.7c10-3.6,19.9-7.6,29.5-12c-11.1,8.4-22.2,16.7-33.3,25.1c-4.2,3.2-11.1,6.8-10.8,13
				c0.1,1.5,1.6,3.1,3.2,2.4c17.3-7,34.4-14.6,51.6-22.1c17-7.4,34.1-14.7,51.5-21.1c6.6-2.5,13.3-4.8,20-6.9
				c-2.8,1.9-5.6,3.8-8.4,5.7c-6.2,4.2-12.3,8.3-18.5,12.5c-6.2,4.2-12.3,8.3-18.5,12.5c-5.7,3.8-11.4,7.6-16.9,11.7
				c-5.9,4.4-11.5,9.3-16.1,15.1c-1,1.3-1,3.9,1.1,4.2c4.8,0.7,9-0.9,13.4-2.6c4.4-1.7,8.9-3.5,13.3-5.3c3.9-1.5,7.8-3.1,11.7-4.7
				c-13.7,10.3-28.4,19.2-41.5,30.3c-2.3,2-4.6,4-6.8,6.2c-2.4,2.3-4.5,4.7-4.8,8.1c-0.1,1.4,1.3,2.4,2.5,2.5
				c3.8,0.3,7.7-0.4,11.4-1.3c3.7-0.9,7.4-2,11.1-3c7.2-2.1,14.5-4.2,21.7-6.4c14.6-4.5,29.1-9.1,43.7-13.2
				c5.3-1.5,10.7-2.9,16.1-4.2c-4.5,4.1-9.3,7.8-14.1,11.5c-3.5,2.8-7.1,5.6-10.4,8.6c-1.6,1.5-3.2,3-4.7,4.6
				c-1.5,1.6-3.4,3.4-4.6,5.4c-0.7,1.1-0.3,2.9-0.5,4.2c-0.2,1.3-0.5,2.5-0.8,3.7c-0.7,2.3-1.9,4.6-3.4,6.5c-0.8,1.1-1,2.5,0,3.5
				c0.9,0.9,2.7,1.1,3.5,0c3.6-4.6,5.7-10,5.8-15.8c8.5-10.6,20.2-17.9,30.4-26.7c3-2.6,5.8-5.3,8.5-8.3
				C281.3-148.7,279.7-151.6,277.2-151z"/>
			<path class="st1" d="M270.2-187.8c-15.8,0.2-31.6,2.4-47.1,5.2c-15.6,2.8-31.1,6.2-46.8,8.7c-9,1.4-18,2.5-27.1,3
				c-1.3,0.1-1.3,2.1,0,2c15.8-0.9,31.5-3.6,47.1-6.5c15.6-3,31.2-6.3,47-8.4c7.5-1,15-1.7,22.5-1.9c-5.8,3-11.3,6.3-16.7,9.9
				c-6.6,4.5-12.9,9.5-19.2,14.5c-13.1,10.4-26.3,20.6-39.7,30.7c-7.5,5.6-15,11.2-22.6,16.7c-0.7,0.5-0.7,1.6,0.2,1.8
				c5.2,1.4,11-0.2,16.1-1.3c5.6-1.2,11.2-2.7,16.8-4.1c11.2-2.9,22.5-5.8,33.6-9c6.3-1.8,12.7-3.8,18.9-5.9
				c1.2-0.4,0.7-2.3-0.5-1.9c-10.8,3.6-21.8,6.8-32.9,9.7c-10.9,2.9-21.9,5.9-32.9,8.4c-3.1,0.7-6.2,1.4-9.3,1.9
				c-2.4,0.4-4.8,0.8-7.2,0.6c12.7-9.4,25.4-18.8,37.9-28.4c6.5-5,13-10,19.4-15.2c6.4-5.2,12.9-10.3,19.6-15.1
				c7.3-5.2,15-9.7,23.1-13.6C271.6-186.4,271.2-187.8,270.2-187.8z"/>
			<path class="st2" d="M275.3-157.3c-26.5,5.6-52.8,11.7-79.1,18.1c-7.4,1.8-14.7,3.7-22.1,5.5c-1.2,0.3-0.7,2.2,0.5,1.9
				c26.2-6.7,52.5-12.9,78.9-18.8c7.4-1.6,14.8-3.3,22.2-4.8C277.1-155.7,276.6-157.6,275.3-157.3z"/>
			<path class="st1" d="M258.9-195.6c-11.2,2.9-22.4,5.7-33.6,8.4c-5.6,1.3-11.2,2.6-16.7,3.9c-5.5,1.3-11.1,2.5-16.6,3.6
				c-6.3,1.2-12.8,2-19.2,2.1c-0.6,0-0.6,1,0,1c11.4-0.2,22.6-2.7,33.7-5.2c11.3-2.5,22.6-5.2,33.8-8c6.3-1.6,12.6-3.2,18.9-4.8
				C259.8-194.8,259.5-195.8,258.9-195.6z"/>
			<path class="st1" d="M243.5-194.4c-9.1,0.2-18.1,0.2-27.2,0.1c-9.1-0.1-18.2-0.3-27.3-0.7c-5.1-0.2-10.2-0.4-15.3-0.7
				c-0.6,0-0.6,1,0,1c9,0.5,18.1,0.9,27.1,1.1c9.1,0.2,18.2,0.4,27.3,0.4c5.1,0,10.2-0.1,15.3-0.1
				C244.2-193.4,244.2-194.4,243.5-194.4z"/>
		</g>
		<g>
			<path class="st1" d="M250.9-173.3c-0.1-0.3-0.3-0.4-0.6-0.3c-28.6,9-57,18.5-85.3,28.4c-28.3,9.9-56.4,20.3-84.4,31.1
				c-7.9,3-15.7,6.2-23.5,9.2c-7.2,2.8-15.2,5.4-22.9,3.2c6.9-9.4,15.9-17,25.4-23.6c10.4-7.3,21.4-13.9,32.2-20.5
				c23.2-14.2,46.6-27.9,69.9-41.8c13.3-7.9,26.6-15.8,40-23.7c0.6-0.3,0.1-1.1-0.5-0.9c-26.5,13-52.9,25.9-79.4,38.9
				c-26.3,12.9-52.6,25.8-78.9,38.7c-7.3,3.6-14.6,7.2-22,10.8c-3.7,1.8-7.5,3.7-11.2,5.5c-2.4,1.2-6.2,2.8-8.5,0.7
				C19-138.3,39.6-156.3,61.1-173c21.9-16.9,44.7-32.5,67.2-48.5c12.5-8.9,25.8-17.6,35.6-29.6c0.3-0.3,0-1-0.5-0.8
				c-16.1,6.7-32,13.6-47.8,20.9c-16,7.3-31.9,15-47.6,22.9c-8.8,4.5-17.6,9-26.3,13.6c-0.6,0.3-0.1,1.2,0.5,0.9
				c15.4-8.2,31-16.1,46.7-23.7c15.7-7.6,31.5-14.9,47.5-21.9c8.5-3.7,17-7.4,25.5-10.9c-8.8,10.1-20,17.8-30.9,25.6
				c-11.2,7.9-22.4,15.8-33.6,23.7c-22.3,15.8-44.4,32-64.9,50.2c-11.5,10.2-22.4,21-32.4,32.6c-0.2,0.2-0.2,0.5,0,0.7
				c1.5,1.8,4,1.9,6.2,1.3c2.9-0.7,5.7-2.4,8.3-3.7c6.8-3.3,13.6-6.7,20.4-10c13.5-6.6,26.9-13.2,40.4-19.8
				c27-13.2,54-26.4,80.9-39.6c11.3-5.5,22.6-11.1,33.9-16.6c-20.2,12-40.4,23.9-60.6,35.9c-11.8,7-23.7,14.1-35.4,21.3
				c-11,6.7-22,13.4-32.7,20.6c-10.7,7.3-21,15.6-28.6,26.2c-0.2,0.3,0,0.6,0.3,0.7c6.7,2.1,13.7,0.7,20.2-1.6
				c7-2.4,13.7-5.3,20.6-8c14.1-5.5,28.3-10.9,42.5-16.1c28.4-10.5,57-20.6,85.7-30.2c15.9-5.3,31.9-10.5,47.8-15.6
				c0.7,3.4-2.6,6.2-5.2,7.9c-3.4,2.3-6.9,4.4-10.3,6.5c-7,4.3-14,8.6-21.1,12.8c-14.3,8.5-28.7,16.7-43.3,24.6
				c-8.2,4.4-16.5,8.8-24.8,13c-0.6,0.3-0.1,1.2,0.5,0.9c15.3-7.8,30.4-15.9,45.4-24.4c14.9-8.4,29.7-17.2,44.3-26.3
				c3.8-2.4,7.9-4.6,11.4-7.4C249.4-166.9,251.9-169.8,250.9-173.3z"/>
			<path class="st2" d="M178.1-227.5c-30.7,6.4-60.8,15.6-89.9,27.4c-8.2,3.3-16.3,6.7-24.9,8.8c-1.9,0.5-1.1,3.3,0.8,2.9
				c7.7-1.8,15-4.7,22.3-7.7c7.2-2.9,14.4-5.8,21.7-8.4c14.7-5.3,29.7-10,44.9-14c6-1.6,12-3,18.1-4.4c-5.2,3.2-10.6,5.9-16.1,8.6
				c-8.1,3.9-16.2,7.9-24.2,12c-16.1,8.3-31.9,17.2-47.4,26.6c-8.8,5.3-17.4,10.8-26,16.4c-1.2,0.8-0.8,2.9,0.8,2.8
				c6.4-0.4,12.4-2.5,18.4-4.6c6.4-2.3,12.7-4.6,19.1-6.9c12.7-4.6,25.4-9.4,38.1-14.1c0.8-0.3,1.5-0.6,2.3-0.9
				c-21.5,12-42.9,24.2-63.6,37.7c-3.6,2.4-7.2,4.7-10.7,7.2c-3.3,2.3-6.6,4.7-9.3,7.8c-0.8,0.9-0.4,2.7,1.1,2.6
				c4-0.3,7.8-1.5,11.6-2.9c3.7-1.3,7.4-2.7,11.1-4.1c7.6-2.8,15.1-5.6,22.7-8.3c15-5.4,30.2-10.5,45.6-14.4c4.4-1.1,8.7-2.1,13.2-3
				c4-0.8,8.1-1.6,12.2-1.6c-0.4,0.7-1.3,1.3-1.9,1.7c-1.3,0.9-2.7,1.8-4.1,2.6c-2.7,1.7-5.4,3.4-8.2,5c-5.4,3.2-10.8,6.3-16.2,9.4
				c-11,6.2-22,12.4-32.5,19.4c-5.9,3.9-11.7,8.1-17.2,12.5c-1.3,1,0.2,2.7,1.5,2.5c14.8-2.5,28.3-9.1,42.6-13.3
				c3.2-0.9,6.4-1.7,9.6-2.3c-1.4,3-3.7,5.6-6.1,8c-3.5,3.4-7,6.8-10.5,10.2c-1.4,1.3,0.7,3.5,2.1,2.1c3.7-3.6,7.5-7.1,11.1-10.8
				c3.1-3.2,6-6.7,7.2-11c0.3-1.2-0.8-2-1.8-1.8c-14.8,2.2-28.4,8.8-42.7,13.1c-2,0.6-3.9,1.1-5.9,1.6
				c19.2-14.5,40.9-25.3,61.5-37.7c3.2-1.9,6.3-3.9,9.5-5.9c2.5-1.6,5.9-3.7,5.1-7.2c-0.2-0.7-0.8-1.1-1.4-1.1
				c-4.1-0.2-8.1,0.4-12,1.1c-3.9,0.7-7.7,1.6-11.6,2.5c-7.8,1.9-15.6,4-23.3,6.4c-15.3,4.7-30.2,10.3-45.2,15.8
				c-4.2,1.6-8.5,3.1-12.7,4.7c-2.9,1.1-5.9,2.2-8.9,2.9c1.6-1.4,3.3-2.6,5-3.8c3.1-2.2,6.3-4.3,9.5-6.4c6.5-4.3,13.1-8.5,19.8-12.6
				c13.2-8.1,26.7-15.8,40.2-23.3c7.7-4.3,15.4-8.5,23.1-12.8c1.5-0.8,0.5-3.4-1.2-2.7c-25,9.4-50,18.8-75.2,27.9
				c-4.6,1.7-9.3,3.5-14.1,4.6c13.2-8.6,26.7-16.7,40.4-24.5c15.7-8.9,31.8-17.3,48.1-25.1c8.9-4.3,17.8-8.7,25.8-14.5
				C180.6-225.7,179.8-227.8,178.1-227.5z"/>
			<path class="st2" d="M177.2-151c-29.4,6.6-57.9,16.6-86.8,25c-4,1.2-8,2.3-12,3.4c-2.9,0.8-5.7,1.5-8.6,1.7c0.9-1.1,2-2,2.9-2.8
				c2-1.9,4-3.7,6-5.4c4.1-3.5,8.3-6.7,12.7-9.9c8.8-6.4,18-12.3,26.7-18.8c5-3.7,9.9-7.6,14.5-11.7c1.8-1.6-0.1-5.1-2.4-4.2
				c-8.5,3.5-17.1,6.9-25.7,10.3c-4.3,1.7-8.6,3.4-12.9,5.1c-2.1,0.8-4.5,2-6.9,2.7c7.9-8.2,17.6-14.4,27-20.8
				c12.6-8.5,25.2-17,37.8-25.6c3.5-2.4,7-4.7,10.5-7.1c3-2.1,5.6-4.3,7.1-7.8c0.7-1.8-1.4-3.6-3.1-3.1
				c-17.8,5.3-35.3,11.9-52.5,18.9C94.2-194,77.1-186.4,59.9-179c-7.3,3.2-14.6,6.3-22,9.4c1.7-1.4,3.6-2.7,5.3-4
				c4.6-3.4,9.2-6.9,13.7-10.3c9-6.8,18-13.6,27.1-20.3c5.2-3.9,10.3-7.8,15.5-11.7c1.1-0.8,1.6-2.2,0.9-3.4
				c-0.7-1.2-2.2-1.6-3.4-0.9c-13.6,7.7-27.6,14.6-42.1,20.4c-4.1,1.6-8.3,3.2-12.5,4.7c-1.3,0.5-2.1,1.7-1.7,3.1
				c0.3,1.2,1.8,2.2,3.1,1.7c10-3.6,19.9-7.6,29.5-12C62.1-194,51-185.7,39.9-177.3c-4.2,3.2-11.1,6.8-10.8,13
				c0.1,1.5,1.6,3.1,3.2,2.4c17.3-7,34.4-14.6,51.6-22.1c17-7.4,34.1-14.7,51.5-21.1c6.6-2.5,13.3-4.8,20-6.9
				c-2.8,1.9-5.6,3.8-8.4,5.7c-6.2,4.2-12.3,8.3-18.5,12.5c-6.2,4.2-12.3,8.3-18.5,12.5c-5.7,3.8-11.4,7.6-16.9,11.7
				c-5.9,4.4-11.5,9.3-16.1,15.1c-1,1.3-1,3.9,1.1,4.2c4.8,0.7,9-0.9,13.4-2.6c4.4-1.7,8.9-3.5,13.3-5.3c3.9-1.5,7.8-3.1,11.7-4.7
				c-13.7,10.3-28.4,19.2-41.5,30.3c-2.3,2-4.6,4-6.8,6.2c-2.4,2.3-4.5,4.7-4.8,8.1c-0.1,1.4,1.3,2.4,2.5,2.5
				c3.8,0.3,7.7-0.4,11.4-1.3c3.7-0.9,7.4-2,11.1-3c7.2-2.1,14.5-4.2,21.7-6.4c14.6-4.5,29.1-9.1,43.7-13.2
				c5.3-1.5,10.7-2.9,16.1-4.2c-4.5,4.1-9.3,7.8-14.1,11.5c-3.5,2.8-7.1,5.6-10.4,8.6c-1.6,1.5-3.2,3-4.7,4.6
				c-1.5,1.6-3.4,3.4-4.6,5.4c-0.7,1.1-0.3,2.9-0.5,4.2c-0.2,1.3-0.5,2.5-0.8,3.7c-0.7,2.3-1.9,4.6-3.4,6.5c-0.8,1.1-1,2.5,0,3.5
				c0.9,0.9,2.7,1.1,3.5,0c3.6-4.6,5.7-10,5.8-15.8c8.5-10.6,20.2-17.9,30.4-26.7c3-2.6,5.8-5.3,8.5-8.3
				C181.3-148.7,179.7-151.6,177.2-151z"/>
			<path class="st2" d="M175.3-157.3c-26.5,5.6-52.8,11.7-79.1,18.1c-7.4,1.8-14.7,3.7-22.1,5.5c-1.2,0.3-0.7,2.2,0.5,1.9
				c26.2-6.7,52.5-12.9,78.9-18.8c7.4-1.6,14.8-3.3,22.2-4.8C177.1-155.7,176.6-157.6,175.3-157.3z"/>
		</g>
		<g>
			<path class="st1" d="M450.9-273.3c-0.1-0.3-0.3-0.4-0.6-0.3c-28.6,9-57,18.5-85.3,28.4c-28.3,9.9-56.4,20.3-84.4,31.1
				c-7.9,3-15.7,6.2-23.5,9.2c-7.2,2.8-15.2,5.4-22.9,3.2c6.9-9.4,15.9-17,25.4-23.6c10.4-7.3,21.4-13.9,32.2-20.5
				c23.2-14.2,46.6-27.9,69.9-41.8c13.3-7.9,26.6-15.8,40-23.7c0.6-0.3,0.1-1.1-0.5-0.9c-26.5,13-52.9,25.9-79.4,38.9
				c-26.3,12.9-52.6,25.8-78.9,38.7c-7.3,3.6-14.6,7.2-22,10.8c-3.7,1.8-7.5,3.7-11.2,5.5c-2.4,1.2-6.2,2.8-8.5,0.7
				c17.9-20.6,38.4-38.6,59.9-55.2c21.9-16.9,44.7-32.5,67.2-48.5c12.5-8.9,25.8-17.6,35.6-29.6c0.3-0.3,0-1-0.5-0.8
				c-16.1,6.7-32,13.6-47.8,20.9c-16,7.3-31.9,15-47.6,22.9c-8.8,4.5-17.6,9-26.3,13.6c-0.6,0.3-0.1,1.2,0.5,0.9
				c15.4-8.2,31-16.1,46.7-23.7c15.7-7.6,31.5-14.9,47.5-21.9c8.5-3.7,17-7.4,25.5-10.9c-8.8,10.1-20,17.8-30.9,25.6
				c-11.2,7.9-22.4,15.8-33.6,23.7c-22.3,15.8-44.4,32-64.9,50.2c-11.5,10.2-22.4,21-32.4,32.6c-0.2,0.2-0.2,0.5,0,0.7
				c1.5,1.8,4,1.9,6.2,1.3c2.9-0.7,5.7-2.4,8.3-3.7c6.8-3.3,13.6-6.7,20.4-10c13.5-6.6,26.9-13.2,40.4-19.8
				c27-13.2,54-26.4,80.9-39.6c11.3-5.5,22.6-11.1,33.9-16.6c-20.2,12-40.4,23.9-60.6,35.9c-11.8,7-23.7,14.1-35.4,21.3
				c-11,6.7-22,13.4-32.7,20.6c-10.7,7.3-21,15.6-28.6,26.2c-0.2,0.3,0,0.6,0.3,0.7c6.7,2.1,13.7,0.7,20.2-1.6
				c7-2.4,13.7-5.3,20.6-8c14.1-5.5,28.3-10.9,42.5-16.1c28.4-10.5,57-20.6,85.7-30.2c15.9-5.3,31.9-10.5,47.8-15.6
				c0.7,3.4-2.6,6.2-5.2,7.9c-3.4,2.3-6.9,4.4-10.3,6.5c-7,4.3-14,8.6-21.1,12.8c-14.3,8.5-28.7,16.7-43.3,24.6
				c-8.2,4.4-16.5,8.8-24.8,13c-0.6,0.3-0.1,1.2,0.5,0.9c15.3-7.8,30.4-15.9,45.4-24.4c14.9-8.4,29.7-17.2,44.3-26.3
				c3.8-2.4,7.9-4.6,11.4-7.4C449.4-266.9,451.9-269.8,450.9-273.3z"/>
			<path class="st2" d="M378.1-327.5c-30.7,6.4-60.8,15.6-89.9,27.4c-8.2,3.3-16.3,6.7-24.9,8.8c-1.9,0.5-1.1,3.3,0.8,2.9
				c7.7-1.8,15-4.7,22.3-7.7c7.2-2.9,14.4-5.8,21.7-8.4c14.7-5.3,29.7-10,44.9-14c6-1.6,12-3,18.1-4.4c-5.2,3.2-10.6,5.9-16.1,8.6
				c-8.1,3.9-16.2,7.9-24.2,12c-16.1,8.3-31.9,17.2-47.4,26.6c-8.8,5.3-17.4,10.8-26,16.4c-1.2,0.8-0.8,2.9,0.8,2.8
				c6.4-0.4,12.4-2.5,18.4-4.6c6.4-2.3,12.7-4.6,19.1-6.9c12.7-4.6,25.4-9.4,38.1-14.1c0.8-0.3,1.5-0.6,2.3-0.9
				c-21.5,12-42.9,24.2-63.6,37.7c-3.6,2.4-7.2,4.7-10.7,7.2c-3.3,2.3-6.6,4.7-9.3,7.8c-0.8,0.9-0.4,2.7,1.1,2.6
				c4-0.3,7.8-1.5,11.6-2.9c3.7-1.3,7.4-2.7,11.1-4.1c7.6-2.8,15.1-5.6,22.7-8.3c15-5.4,30.2-10.5,45.6-14.4c4.4-1.1,8.7-2.1,13.2-3
				c4-0.8,8.1-1.6,12.2-1.6c-0.4,0.7-1.3,1.3-1.9,1.7c-1.3,0.9-2.7,1.8-4.1,2.6c-2.7,1.7-5.4,3.4-8.2,5c-5.4,3.2-10.8,6.3-16.2,9.4
				c-11,6.2-22,12.4-32.5,19.4c-5.9,3.9-11.7,8.1-17.2,12.5c-1.3,1,0.2,2.7,1.5,2.5c14.8-2.5,28.3-9.1,42.6-13.3
				c3.2-0.9,6.4-1.7,9.6-2.3c-1.4,3-3.7,5.6-6.1,8c-3.5,3.4-7,6.8-10.5,10.2c-1.4,1.3,0.7,3.5,2.1,2.1c3.7-3.6,7.5-7.1,11.1-10.8
				c3.1-3.2,6-6.7,7.2-11c0.3-1.2-0.8-2-1.8-1.8c-14.8,2.2-28.4,8.8-42.7,13.1c-2,0.6-3.9,1.1-5.9,1.6
				c19.2-14.5,40.9-25.3,61.5-37.7c3.2-1.9,6.3-3.9,9.5-5.9c2.5-1.6,5.9-3.7,5.1-7.2c-0.2-0.7-0.8-1.1-1.4-1.1
				c-4.1-0.2-8.1,0.4-12,1.1c-3.9,0.7-7.7,1.6-11.6,2.5c-7.8,1.9-15.6,4-23.3,6.4c-15.3,4.7-30.2,10.3-45.2,15.8
				c-4.2,1.6-8.5,3.1-12.7,4.7c-2.9,1.1-5.9,2.2-8.9,2.9c1.6-1.4,3.3-2.6,5-3.8c3.1-2.2,6.3-4.3,9.5-6.4c6.5-4.3,13.1-8.5,19.8-12.6
				c13.2-8.1,26.7-15.8,40.2-23.3c7.7-4.3,15.4-8.5,23.1-12.8c1.5-0.8,0.5-3.4-1.2-2.7c-25,9.4-50,18.8-75.2,27.9
				c-4.6,1.7-9.3,3.5-14.1,4.6c13.2-8.6,26.7-16.7,40.4-24.5c15.7-8.9,31.8-17.3,48.1-25.1c8.9-4.3,17.8-8.7,25.8-14.5
				C380.6-325.7,379.8-327.8,378.1-327.5z"/>
			<path class="st2" d="M377.2-251c-29.4,6.6-57.9,16.6-86.8,25c-4,1.2-8,2.3-12,3.4c-2.9,0.8-5.7,1.5-8.6,1.7c0.9-1.1,2-2,2.9-2.8
				c2-1.9,4-3.7,6-5.4c4.1-3.5,8.3-6.7,12.7-9.9c8.8-6.4,18-12.3,26.7-18.8c5-3.7,9.9-7.6,14.5-11.7c1.8-1.6-0.1-5.1-2.4-4.2
				c-8.5,3.5-17.1,6.9-25.7,10.3c-4.3,1.7-8.6,3.4-12.9,5.1c-2.1,0.8-4.5,2-6.9,2.7c7.9-8.2,17.6-14.4,27-20.8
				c12.6-8.5,25.2-17,37.8-25.6c3.5-2.4,7-4.7,10.5-7.1c3-2.1,5.6-4.3,7.1-7.8c0.7-1.8-1.4-3.6-3.1-3.1
				c-17.8,5.3-35.3,11.9-52.5,18.9c-17.3,7.1-34.4,14.7-51.6,22.1c-7.3,3.2-14.6,6.3-22,9.4c1.7-1.4,3.6-2.7,5.3-4
				c4.6-3.4,9.2-6.9,13.7-10.3c9-6.8,18-13.6,27.1-20.3c5.2-3.9,10.3-7.8,15.5-11.7c1.1-0.8,1.6-2.2,0.9-3.4
				c-0.7-1.2-2.2-1.6-3.4-0.9c-13.6,7.7-27.6,14.6-42.1,20.4c-4.1,1.6-8.3,3.2-12.5,4.7c-1.3,0.5-2.1,1.7-1.7,3.1
				c0.3,1.2,1.8,2.2,3.1,1.7c10-3.6,19.9-7.6,29.5-12c-11.1,8.4-22.2,16.7-33.3,25.1c-4.2,3.2-11.1,6.8-10.8,13
				c0.1,1.5,1.6,3.1,3.2,2.4c17.3-7,34.4-14.6,51.6-22.1c17-7.4,34.1-14.7,51.5-21.1c6.6-2.5,13.3-4.8,20-6.9
				c-2.8,1.9-5.6,3.8-8.4,5.7c-6.2,4.2-12.3,8.3-18.5,12.5c-6.2,4.2-12.3,8.3-18.5,12.5c-5.7,3.8-11.4,7.6-16.9,11.7
				c-5.9,4.4-11.5,9.3-16.1,15.1c-1,1.3-1,3.9,1.1,4.2c4.8,0.7,9-0.9,13.4-2.6c4.4-1.7,8.9-3.5,13.3-5.3c3.9-1.5,7.8-3.1,11.7-4.7
				c-13.7,10.3-28.4,19.2-41.5,30.3c-2.3,2-4.6,4-6.8,6.2c-2.4,2.3-4.5,4.7-4.8,8.1c-0.1,1.4,1.3,2.4,2.5,2.5
				c3.8,0.3,7.7-0.4,11.4-1.3c3.7-0.9,7.4-2,11.1-3c7.2-2.1,14.5-4.2,21.7-6.4c14.6-4.5,29.1-9.1,43.7-13.2
				c5.3-1.5,10.7-2.9,16.1-4.2c-4.5,4.1-9.3,7.8-14.1,11.5c-3.5,2.8-7.1,5.6-10.4,8.6c-1.6,1.5-3.2,3-4.7,4.6
				c-1.5,1.6-3.4,3.4-4.6,5.4c-0.7,1.1-0.3,2.9-0.5,4.2c-0.2,1.3-0.5,2.5-0.8,3.7c-0.7,2.3-1.9,4.6-3.4,6.5c-0.8,1.1-1,2.5,0,3.5
				c0.9,0.9,2.7,1.1,3.5,0c3.6-4.6,5.7-10,5.8-15.8c8.5-10.6,20.2-17.9,30.4-26.7c3-2.6,5.8-5.3,8.5-8.3
				C381.3-248.7,379.7-251.6,377.2-251z"/>
			<path class="st1" d="M370.2-287.8c-15.8,0.2-31.6,2.4-47.1,5.2c-15.6,2.8-31.1,6.2-46.8,8.7c-9,1.4-18,2.5-27.1,3
				c-1.3,0.1-1.3,2.1,0,2c15.8-0.9,31.5-3.6,47.1-6.5c15.6-3,31.2-6.3,47-8.4c7.5-1,15-1.7,22.5-1.9c-5.8,3-11.3,6.3-16.7,9.9
				c-6.6,4.5-12.9,9.5-19.2,14.5c-13.1,10.4-26.3,20.6-39.7,30.7c-7.5,5.6-15,11.2-22.6,16.7c-0.7,0.5-0.7,1.6,0.2,1.8
				c5.2,1.4,11-0.2,16.1-1.3c5.6-1.2,11.2-2.7,16.8-4.1c11.2-2.9,22.5-5.8,33.6-9c6.3-1.8,12.7-3.8,18.9-5.9
				c1.2-0.4,0.7-2.3-0.5-1.9c-10.8,3.6-21.8,6.8-32.9,9.7c-10.9,2.9-21.9,5.9-32.9,8.4c-3.1,0.7-6.2,1.4-9.3,1.9
				c-2.4,0.4-4.8,0.8-7.2,0.6c12.7-9.4,25.4-18.8,37.9-28.4c6.5-5,13-10,19.4-15.2c6.4-5.2,12.9-10.3,19.6-15.1
				c7.3-5.2,15-9.7,23.1-13.6C371.6-286.4,371.2-287.8,370.2-287.8z"/>
		</g>
		<g>
			<path class="st1" d="M350.9-273.3c-0.1-0.3-0.3-0.4-0.6-0.3c-28.6,9-57,18.5-85.3,28.4c-28.3,9.9-56.4,20.3-84.4,31.1
				c-7.9,3-15.7,6.2-23.5,9.2c-7.2,2.8-15.2,5.4-22.9,3.2c6.9-9.4,15.9-17,25.4-23.6c10.4-7.3,21.4-13.9,32.2-20.5
				c23.2-14.2,46.6-27.9,69.9-41.8c13.3-7.9,26.6-15.8,40-23.7c0.6-0.3,0.1-1.1-0.5-0.9c-26.5,13-52.9,25.9-79.4,38.9
				c-26.3,12.9-52.6,25.8-78.9,38.7c-7.3,3.6-14.6,7.2-22,10.8c-3.7,1.8-7.5,3.7-11.2,5.5c-2.4,1.2-6.2,2.8-8.5,0.7
				c17.9-20.6,38.4-38.6,59.9-55.2c21.9-16.9,44.7-32.5,67.2-48.5c12.5-8.9,25.8-17.6,35.6-29.6c0.3-0.3,0-1-0.5-0.8
				c-16.1,6.7-32,13.6-47.8,20.9c-16,7.3-31.9,15-47.6,22.9c-8.8,4.5-17.6,9-26.3,13.6c-0.6,0.3-0.1,1.2,0.5,0.9
				c15.4-8.2,31-16.1,46.7-23.7c15.7-7.6,31.5-14.9,47.5-21.9c8.5-3.7,17-7.4,25.5-10.9c-8.8,10.1-20,17.8-30.9,25.6
				c-11.2,7.9-22.4,15.8-33.6,23.7c-22.3,15.8-44.4,32-64.9,50.2c-11.5,10.2-22.4,21-32.4,32.6c-0.2,0.2-0.2,0.5,0,0.7
				c1.5,1.8,4,1.9,6.2,1.3c2.9-0.7,5.7-2.4,8.3-3.7c6.8-3.3,13.6-6.7,20.4-10c13.5-6.6,26.9-13.2,40.4-19.8
				c27-13.2,54-26.4,80.9-39.6c11.3-5.5,22.6-11.1,33.9-16.6c-20.2,12-40.4,23.9-60.6,35.9c-11.8,7-23.7,14.1-35.4,21.3
				c-11,6.7-22,13.4-32.7,20.6c-10.7,7.3-21,15.6-28.6,26.2c-0.2,0.3,0,0.6,0.3,0.7c6.7,2.1,13.7,0.7,20.2-1.6
				c7-2.4,13.7-5.3,20.6-8c14.1-5.5,28.3-10.9,42.5-16.1c28.4-10.5,57-20.6,85.7-30.2c15.9-5.3,31.9-10.5,47.8-15.6
				c0.7,3.4-2.6,6.2-5.2,7.9c-3.4,2.3-6.9,4.4-10.3,6.5c-7,4.3-14,8.6-21.1,12.8c-14.3,8.5-28.7,16.7-43.3,24.6
				c-8.2,4.4-16.5,8.8-24.8,13c-0.6,0.3-0.1,1.2,0.5,0.9c15.3-7.8,30.4-15.9,45.4-24.4c14.9-8.4,29.7-17.2,44.3-26.3
				c3.8-2.4,7.9-4.6,11.4-7.4C349.4-266.9,351.9-269.8,350.9-273.3z"/>
			<path class="st2" d="M278.1-327.5c-30.7,6.4-60.8,15.6-89.9,27.4c-8.2,3.3-16.3,6.7-24.9,8.8c-1.9,0.5-1.1,3.3,0.8,2.9
				c7.7-1.8,15-4.7,22.3-7.7c7.2-2.9,14.4-5.8,21.7-8.4c14.7-5.3,29.7-10,44.9-14c6-1.6,12-3,18.1-4.4c-5.2,3.2-10.6,5.9-16.1,8.6
				c-8.1,3.9-16.2,7.9-24.2,12c-16.1,8.3-31.9,17.2-47.4,26.6c-8.8,5.3-17.4,10.8-26,16.4c-1.2,0.8-0.8,2.9,0.8,2.8
				c6.4-0.4,12.4-2.5,18.4-4.6c6.4-2.3,12.7-4.6,19.1-6.9c12.7-4.6,25.4-9.4,38.1-14.1c0.8-0.3,1.5-0.6,2.3-0.9
				c-21.5,12-42.9,24.2-63.6,37.7c-3.6,2.4-7.2,4.7-10.7,7.2c-3.3,2.3-6.6,4.7-9.3,7.8c-0.8,0.9-0.4,2.7,1.1,2.6
				c4-0.3,7.8-1.5,11.6-2.9c3.7-1.3,7.4-2.7,11.1-4.1c7.6-2.8,15.1-5.6,22.7-8.3c15-5.4,30.2-10.5,45.6-14.4c4.4-1.1,8.7-2.1,13.2-3
				c4-0.8,8.1-1.6,12.2-1.6c-0.4,0.7-1.3,1.3-1.9,1.7c-1.3,0.9-2.7,1.8-4.1,2.6c-2.7,1.7-5.4,3.4-8.2,5c-5.4,3.2-10.8,6.3-16.2,9.4
				c-11,6.2-22,12.4-32.5,19.4c-5.9,3.9-11.7,8.1-17.2,12.5c-1.3,1,0.2,2.7,1.5,2.5c14.8-2.5,28.3-9.1,42.6-13.3
				c3.2-0.9,6.4-1.7,9.6-2.3c-1.4,3-3.7,5.6-6.1,8c-3.5,3.4-7,6.8-10.5,10.2c-1.4,1.3,0.7,3.5,2.1,2.1c3.7-3.6,7.5-7.1,11.1-10.8
				c3.1-3.2,6-6.7,7.2-11c0.3-1.2-0.8-2-1.8-1.8c-14.8,2.2-28.4,8.8-42.7,13.1c-2,0.6-3.9,1.1-5.9,1.6
				c19.2-14.5,40.9-25.3,61.5-37.7c3.2-1.9,6.3-3.9,9.5-5.9c2.5-1.6,5.9-3.7,5.1-7.2c-0.2-0.7-0.8-1.1-1.4-1.1
				c-4.1-0.2-8.1,0.4-12,1.1c-3.9,0.7-7.7,1.6-11.6,2.5c-7.8,1.9-15.6,4-23.3,6.4c-15.3,4.7-30.2,10.3-45.2,15.8
				c-4.2,1.6-8.5,3.1-12.7,4.7c-2.9,1.1-5.9,2.2-8.9,2.9c1.6-1.4,3.3-2.6,5-3.8c3.1-2.2,6.3-4.3,9.5-6.4c6.5-4.3,13.1-8.5,19.8-12.6
				c13.2-8.1,26.7-15.8,40.2-23.3c7.7-4.3,15.4-8.5,23.1-12.8c1.5-0.8,0.5-3.4-1.2-2.7c-25,9.4-50,18.8-75.2,27.9
				c-4.6,1.7-9.3,3.5-14.1,4.6c13.2-8.6,26.7-16.7,40.4-24.5c15.7-8.9,31.8-17.3,48.1-25.1c8.9-4.3,17.8-8.7,25.8-14.5
				C280.6-325.7,279.8-327.8,278.1-327.5z"/>
			<path class="st2" d="M277.2-251c-29.4,6.6-57.9,16.6-86.8,25c-4,1.2-8,2.3-12,3.4c-2.9,0.8-5.7,1.5-8.6,1.7c0.9-1.1,2-2,2.9-2.8
				c2-1.9,4-3.7,6-5.4c4.1-3.5,8.3-6.7,12.7-9.9c8.8-6.4,18-12.3,26.7-18.8c5-3.7,9.9-7.6,14.5-11.7c1.8-1.6-0.1-5.1-2.4-4.2
				c-8.5,3.5-17.1,6.9-25.7,10.3c-4.3,1.7-8.6,3.4-12.9,5.1c-2.1,0.8-4.5,2-6.9,2.7c7.9-8.2,17.6-14.4,27-20.8
				c12.6-8.5,25.2-17,37.8-25.6c3.5-2.4,7-4.7,10.5-7.1c3-2.1,5.6-4.3,7.1-7.8c0.7-1.8-1.4-3.6-3.1-3.1
				c-17.8,5.3-35.3,11.9-52.5,18.9c-17.3,7.1-34.4,14.7-51.6,22.1c-7.3,3.2-14.6,6.3-22,9.4c1.7-1.4,3.6-2.7,5.3-4
				c4.6-3.4,9.2-6.9,13.7-10.3c9-6.8,18-13.6,27.1-20.3c5.2-3.9,10.3-7.8,15.5-11.7c1.1-0.8,1.6-2.2,0.9-3.4
				c-0.7-1.2-2.2-1.6-3.4-0.9c-13.6,7.7-27.6,14.6-42.1,20.4c-4.1,1.6-8.3,3.2-12.5,4.7c-1.3,0.5-2.1,1.7-1.7,3.1
				c0.3,1.2,1.8,2.2,3.1,1.7c10-3.6,19.9-7.6,29.5-12c-11.1,8.4-22.2,16.7-33.3,25.1c-4.2,3.2-11.1,6.8-10.8,13
				c0.1,1.5,1.6,3.1,3.2,2.4c17.3-7,34.4-14.6,51.6-22.1c17-7.4,34.1-14.7,51.5-21.1c6.6-2.5,13.3-4.8,20-6.9
				c-2.8,1.9-5.6,3.8-8.4,5.7c-6.2,4.2-12.3,8.3-18.5,12.5c-6.2,4.2-12.3,8.3-18.5,12.5c-5.7,3.8-11.4,7.6-16.9,11.7
				c-5.9,4.4-11.5,9.3-16.1,15.1c-1,1.3-1,3.9,1.1,4.2c4.8,0.7,9-0.9,13.4-2.6c4.4-1.7,8.9-3.5,13.3-5.3c3.9-1.5,7.8-3.1,11.7-4.7
				c-13.7,10.3-28.4,19.2-41.5,30.3c-2.3,2-4.6,4-6.8,6.2c-2.4,2.3-4.5,4.7-4.8,8.1c-0.1,1.4,1.3,2.4,2.5,2.5
				c3.8,0.3,7.7-0.4,11.4-1.3c3.7-0.9,7.4-2,11.1-3c7.2-2.1,14.5-4.2,21.7-6.4c14.6-4.5,29.1-9.1,43.7-13.2
				c5.3-1.5,10.7-2.9,16.1-4.2c-4.5,4.1-9.3,7.8-14.1,11.5c-3.5,2.8-7.1,5.6-10.4,8.6c-1.6,1.5-3.2,3-4.7,4.6
				c-1.5,1.6-3.4,3.4-4.6,5.4c-0.7,1.1-0.3,2.9-0.5,4.2c-0.2,1.3-0.5,2.5-0.8,3.7c-0.7,2.3-1.9,4.6-3.4,6.5c-0.8,1.1-1,2.5,0,3.5
				c0.9,0.9,2.7,1.1,3.5,0c3.6-4.6,5.7-10,5.8-15.8c8.5-10.6,20.2-17.9,30.4-26.7c3-2.6,5.8-5.3,8.5-8.3
				C281.3-248.7,279.7-251.6,277.2-251z"/>
			<path class="st1" d="M270.2-287.8c-15.8,0.2-31.6,2.4-47.1,5.2c-15.6,2.8-31.1,6.2-46.8,8.7c-9,1.4-18,2.5-27.1,3
				c-1.3,0.1-1.3,2.1,0,2c15.8-0.9,31.5-3.6,47.1-6.5c15.6-3,31.2-6.3,47-8.4c7.5-1,15-1.7,22.5-1.9c-5.8,3-11.3,6.3-16.7,9.9
				c-6.6,4.5-12.9,9.5-19.2,14.5c-13.1,10.4-26.3,20.6-39.7,30.7c-7.5,5.6-15,11.2-22.6,16.7c-0.7,0.5-0.7,1.6,0.2,1.8
				c5.2,1.4,11-0.2,16.1-1.3c5.6-1.2,11.2-2.7,16.8-4.1c11.2-2.9,22.5-5.8,33.6-9c6.3-1.8,12.7-3.8,18.9-5.9
				c1.2-0.4,0.7-2.3-0.5-1.9c-10.8,3.6-21.8,6.8-32.9,9.7c-10.9,2.9-21.9,5.9-32.9,8.4c-3.1,0.7-6.2,1.4-9.3,1.9
				c-2.4,0.4-4.8,0.8-7.2,0.6c12.7-9.4,25.4-18.8,37.9-28.4c6.5-5,13-10,19.4-15.2c6.4-5.2,12.9-10.3,19.6-15.1
				c7.3-5.2,15-9.7,23.1-13.6C271.6-286.4,271.2-287.8,270.2-287.8z"/>
		</g>
		<g>
			<path class="st1" d="M250.9-273.3c-0.1-0.3-0.3-0.4-0.6-0.3c-28.6,9-57,18.5-85.3,28.4c-28.3,9.9-56.4,20.3-84.4,31.1
				c-7.9,3-15.7,6.2-23.5,9.2c-7.2,2.8-15.2,5.4-22.9,3.2c6.9-9.4,15.9-17,25.4-23.6c10.4-7.3,21.4-13.9,32.2-20.5
				c23.2-14.2,46.6-27.9,69.9-41.8c13.3-7.9,26.6-15.8,40-23.7c0.6-0.3,0.1-1.1-0.5-0.9c-26.5,13-52.9,25.9-79.4,38.9
				c-26.3,12.9-52.6,25.8-78.9,38.7c-7.3,3.6-14.6,7.2-22,10.8c-3.7,1.8-7.5,3.7-11.2,5.5c-2.4,1.2-6.2,2.8-8.5,0.7
				C19-238.3,39.6-256.3,61.1-273c21.9-16.9,44.7-32.5,67.2-48.5c12.5-8.9,25.8-17.6,35.6-29.6c0.3-0.3,0-1-0.5-0.8
				c-16.1,6.7-32,13.6-47.8,20.9c-16,7.3-31.9,15-47.6,22.9c-8.8,4.5-17.6,9-26.3,13.6c-0.6,0.3-0.1,1.2,0.5,0.9
				c15.4-8.2,31-16.1,46.7-23.7c15.7-7.6,31.5-14.9,47.5-21.9c8.5-3.7,17-7.4,25.5-10.9c-8.8,10.1-20,17.8-30.9,25.6
				c-11.2,7.9-22.4,15.8-33.6,23.7c-22.3,15.8-44.4,32-64.9,50.2c-11.5,10.2-22.4,21-32.4,32.6c-0.2,0.2-0.2,0.5,0,0.7
				c1.5,1.8,4,1.9,6.2,1.3c2.9-0.7,5.7-2.4,8.3-3.7c6.8-3.3,13.6-6.7,20.4-10c13.5-6.6,26.9-13.2,40.4-19.8
				c27-13.2,54-26.4,80.9-39.6c11.3-5.5,22.6-11.1,33.9-16.6c-20.2,12-40.4,23.9-60.6,35.9c-11.8,7-23.7,14.1-35.4,21.3
				c-11,6.7-22,13.4-32.7,20.6c-10.7,7.3-21,15.6-28.6,26.2c-0.2,0.3,0,0.6,0.3,0.7c6.7,2.1,13.7,0.7,20.2-1.6
				c7-2.4,13.7-5.3,20.6-8c14.1-5.5,28.3-10.9,42.5-16.1c28.4-10.5,57-20.6,85.7-30.2c15.9-5.3,31.9-10.5,47.8-15.6
				c0.7,3.4-2.6,6.2-5.2,7.9c-3.4,2.3-6.9,4.4-10.3,6.5c-7,4.3-14,8.6-21.1,12.8c-14.3,8.5-28.7,16.7-43.3,24.6
				c-8.2,4.4-16.5,8.8-24.8,13c-0.6,0.3-0.1,1.2,0.5,0.9c15.3-7.8,30.4-15.9,45.4-24.4c14.9-8.4,29.7-17.2,44.3-26.3
				c3.8-2.4,7.9-4.6,11.4-7.4C249.4-266.9,251.9-269.8,250.9-273.3z"/>
			<path class="st2" d="M178.1-327.5c-30.7,6.4-60.8,15.6-89.9,27.4c-8.2,3.3-16.3,6.7-24.9,8.8c-1.9,0.5-1.1,3.3,0.8,2.9
				c7.7-1.8,15-4.7,22.3-7.7c7.2-2.9,14.4-5.8,21.7-8.4c14.7-5.3,29.7-10,44.9-14c6-1.6,12-3,18.1-4.4c-5.2,3.2-10.6,5.9-16.1,8.6
				c-8.1,3.9-16.2,7.9-24.2,12c-16.1,8.3-31.9,17.2-47.4,26.6c-8.8,5.3-17.4,10.8-26,16.4c-1.2,0.8-0.8,2.9,0.8,2.8
				c6.4-0.4,12.4-2.5,18.4-4.6c6.4-2.3,12.7-4.6,19.1-6.9c12.7-4.6,25.4-9.4,38.1-14.1c0.8-0.3,1.5-0.6,2.3-0.9
				c-21.5,12-42.9,24.2-63.6,37.7c-3.6,2.4-7.2,4.7-10.7,7.2c-3.3,2.3-6.6,4.7-9.3,7.8c-0.8,0.9-0.4,2.7,1.1,2.6
				c4-0.3,7.8-1.5,11.6-2.9c3.7-1.3,7.4-2.7,11.1-4.1c7.6-2.8,15.1-5.6,22.7-8.3c15-5.4,30.2-10.5,45.6-14.4c4.4-1.1,8.7-2.1,13.2-3
				c4-0.8,8.1-1.6,12.2-1.6c-0.4,0.7-1.3,1.3-1.9,1.7c-1.3,0.9-2.7,1.8-4.1,2.6c-2.7,1.7-5.4,3.4-8.2,5c-5.4,3.2-10.8,6.3-16.2,9.4
				c-11,6.2-22,12.4-32.5,19.4c-5.9,3.9-11.7,8.1-17.2,12.5c-1.3,1,0.2,2.7,1.5,2.5c14.8-2.5,28.3-9.1,42.6-13.3
				c3.2-0.9,6.4-1.7,9.6-2.3c-1.4,3-3.7,5.6-6.1,8c-3.5,3.4-7,6.8-10.5,10.2c-1.4,1.3,0.7,3.5,2.1,2.1c3.7-3.6,7.5-7.1,11.1-10.8
				c3.1-3.2,6-6.7,7.2-11c0.3-1.2-0.8-2-1.8-1.8c-14.8,2.2-28.4,8.8-42.7,13.1c-2,0.6-3.9,1.1-5.9,1.6
				c19.2-14.5,40.9-25.3,61.5-37.7c3.2-1.9,6.3-3.9,9.5-5.9c2.5-1.6,5.9-3.7,5.1-7.2c-0.2-0.7-0.8-1.1-1.4-1.1
				c-4.1-0.2-8.1,0.4-12,1.1c-3.9,0.7-7.7,1.6-11.6,2.5c-7.8,1.9-15.6,4-23.3,6.4c-15.3,4.7-30.2,10.3-45.2,15.8
				c-4.2,1.6-8.5,3.1-12.7,4.7c-2.9,1.1-5.9,2.2-8.9,2.9c1.6-1.4,3.3-2.6,5-3.8c3.1-2.2,6.3-4.3,9.5-6.4c6.5-4.3,13.1-8.5,19.8-12.6
				c13.2-8.1,26.7-15.8,40.2-23.3c7.7-4.3,15.4-8.5,23.1-12.8c1.5-0.8,0.5-3.4-1.2-2.7c-25,9.4-50,18.8-75.2,27.9
				c-4.6,1.7-9.3,3.5-14.1,4.6c13.2-8.6,26.7-16.7,40.4-24.5c15.7-8.9,31.8-17.3,48.1-25.1c8.9-4.3,17.8-8.7,25.8-14.5
				C180.6-325.7,179.8-327.8,178.1-327.5z"/>
			<path class="st2" d="M177.2-251c-29.4,6.6-57.9,16.6-86.8,25c-4,1.2-8,2.3-12,3.4c-2.9,0.8-5.7,1.5-8.6,1.7c0.9-1.1,2-2,2.9-2.8
				c2-1.9,4-3.7,6-5.4c4.1-3.5,8.3-6.7,12.7-9.9c8.8-6.4,18-12.3,26.7-18.8c5-3.7,9.9-7.6,14.5-11.7c1.8-1.6-0.1-5.1-2.4-4.2
				c-8.5,3.5-17.1,6.9-25.7,10.3c-4.3,1.7-8.6,3.4-12.9,5.1c-2.1,0.8-4.5,2-6.9,2.7c7.9-8.2,17.6-14.4,27-20.8
				c12.6-8.5,25.2-17,37.8-25.6c3.5-2.4,7-4.7,10.5-7.1c3-2.1,5.6-4.3,7.1-7.8c0.7-1.8-1.4-3.6-3.1-3.1
				c-17.8,5.3-35.3,11.9-52.5,18.9C94.2-294,77.1-286.4,59.9-279c-7.3,3.2-14.6,6.3-22,9.4c1.7-1.4,3.6-2.7,5.3-4
				c4.6-3.4,9.2-6.9,13.7-10.3c9-6.8,18-13.6,27.1-20.3c5.2-3.9,10.3-7.8,15.5-11.7c1.1-0.8,1.6-2.2,0.9-3.4
				c-0.7-1.2-2.2-1.6-3.4-0.9c-13.6,7.7-27.6,14.6-42.1,20.4c-4.1,1.6-8.3,3.2-12.5,4.7c-1.3,0.5-2.1,1.7-1.7,3.1
				c0.3,1.2,1.8,2.2,3.1,1.7c10-3.6,19.9-7.6,29.5-12C62.1-294,51-285.7,39.9-277.3c-4.2,3.2-11.1,6.8-10.8,13
				c0.1,1.5,1.6,3.1,3.2,2.4c17.3-7,34.4-14.6,51.6-22.1c17-7.4,34.1-14.7,51.5-21.1c6.6-2.5,13.3-4.8,20-6.9
				c-2.8,1.9-5.6,3.8-8.4,5.7c-6.2,4.2-12.3,8.3-18.5,12.5c-6.2,4.2-12.3,8.3-18.5,12.5c-5.7,3.8-11.4,7.6-16.9,11.7
				c-5.9,4.4-11.5,9.3-16.1,15.1c-1,1.3-1,3.9,1.1,4.2c4.8,0.7,9-0.9,13.4-2.6c4.4-1.7,8.9-3.5,13.3-5.3c3.9-1.5,7.8-3.1,11.7-4.7
				c-13.7,10.3-28.4,19.2-41.5,30.3c-2.3,2-4.6,4-6.8,6.2c-2.4,2.3-4.5,4.7-4.8,8.1c-0.1,1.4,1.3,2.4,2.5,2.5
				c3.8,0.3,7.7-0.4,11.4-1.3c3.7-0.9,7.4-2,11.1-3c7.2-2.1,14.5-4.2,21.7-6.4c14.6-4.5,29.1-9.1,43.7-13.2
				c5.3-1.5,10.7-2.9,16.1-4.2c-4.5,4.1-9.3,7.8-14.1,11.5c-3.5,2.8-7.1,5.6-10.4,8.6c-1.6,1.5-3.2,3-4.7,4.6
				c-1.5,1.6-3.4,3.4-4.6,5.4c-0.7,1.1-0.3,2.9-0.5,4.2c-0.2,1.3-0.5,2.5-0.8,3.7c-0.7,2.3-1.9,4.6-3.4,6.5c-0.8,1.1-1,2.5,0,3.5
				c0.9,0.9,2.7,1.1,3.5,0c3.6-4.6,5.7-10,5.8-15.8c8.5-10.6,20.2-17.9,30.4-26.7c3-2.6,5.8-5.3,8.5-8.3
				C181.3-248.7,179.7-251.6,177.2-251z"/>
		</g>
	</g>
</pattern>
<g>
	<defs>
		<path id="_x30_" d="M130.7,265.7l-2.6,1.6l-6.3-1.2l1.6-4.7l3.6-0.7L130.7,265.7z M655.2,240.6l5.4-5.8l4.8,1.8l-6.2,5.5l-4.7,5.3
			l-5.9-0.9l0.8-2.5L655.2,240.6z M606.5,234.5l1.5,2.8l-5.1,3.3l-3-5.3L606.5,234.5z M671.2,232.9l-1.9,2.7l-4.8-4l1.9-4.7l8.5,0.7
			L671.2,232.9z M149.6,219.2l2.7,3.1l1,3.6l-2.1,2.9l-3.3,1.2l-6.9,0.2l0.4,4.1l-6.6,0.9l1.6,4l-2.6,4.8l-4.5,2.8l4.3,2.1l-7.8,7.8
			l1.3,3.5l-8.8,2.7l-5.3-2.8l-1.5-12.4l2.1-2l2.2-12.9l1.1-6.2l3.8-10.4l-0.1-7.9l1.3-2.7l1.8-13.8l-0.6-6.8l-2.4-2.2l-10.1-6
			l-2.4-5.4l-5.9-11.1l-3.3-2.3l-0.4-3.1l2.5-3l-1.4-5.2l1.9-4.1l2.7-1.4l0.9-2.8l2.9-2.7l-0.8-6.3l-3.6-5.1l-3,2l-5.5-0.3l-1.5-1.8
			l-4.8-2.4l0.2-2.1l-4.6-5.1l-1.5,0.5l-6.1-1.7l-7.7-5l-4.1,1.2l-9.5-3.4l-5.9-2.5l-3.3-2.3l-2.3-7.7l-7.2-8.1l-6.5-5.6l-2-4.9
			l-3.4,2.2l6.8,7.8l-1.5,1.4l-4.8-2.5l0.7-3.2l-3-2.2l-3.9-7.7l-2.7-2.2l-4.1-0.9l-7.4-10l-1.5-3l-0.3-5.4l1.4-6.1l-1.8-5.9
			l4.1-1.8l-10.2-4.1l-6.9-8.8l-3.2-1.5l-4.7-5.8l-8.2-0.8l-4.6-2.3l-9.1-1l-7-2l-2,2l-13.8,4.1l-7.7,1.3l-9.2-4.6l-4.3-0.4
			l-5.1-3.8l3.5-3.7l8-2.4l-12.1-1l-3.7-2.2l8.1-2l-2-3.2l7.7-5.1l11.8-2.3l9.6,1.7l19.2,1l15.7,2.8L-3.4-12l3.8,2l9.5-0.7l16.8,3.1
			l8.8,0.9l8.4-1.8l4,1.7l13.1,0.5l9.3-2.9l-5-2.3l2.8-4.1L84-8.1l5.5-2.8L99-9.3l-0.2,4.5L88.4-2.4L83,1.9L72.6,6.6l-3.3,4.2
			l5.2,6.7l3.1-0.4l13.1,4.4l6.1,0.3l1.9,6.6l6.2-0.9l-1.2-3.5l5.7-5.3l-4.4-5l2.6-2.3L106,5.9l9.5-0.3l9.4,3.1l0.7,4.7l6.8,0.4
			l3.6-3.5l11.1,11.4l5,1.3l3.7,5.5l-9.6,4.2l-14.1,0l3,2.2l1.3,6.6l7.6,2.2l-9.6,3.8l-3.9-3.5l-6.6,3.2l-1.2,4.9l-7.4,1.9l-3.9,6
			l0,5.3L105,69l-6.2,5.4l-0.3,1.6l3.2,8.5l-2.5,3.7l-3.7-6l-1.9-4.5l-3.1,0.7l-2.9-1.7l-6.2,0.2l-0.5,2.6L76,78.2l-6.8,0.4
			l-5.9,4.7l0.5,3.3l-1.6,7.6l1.5,4l2.9,4l3.3,1.5l8.1-2.5l1.1-3.8l7.2-1.2l0.5,1.5l-4.6,11l10.1,0.1l2.7,1.9l-1.6,8l3.7,5.3
			l5.8-1.4l6.1,2.2l2.6-1.8l0.4-2.6l2.8-1.5l6.2,0.8l5.6-1.1l1.5,2l12.1,0.3l4.2,2.3l8.2,7.5l4.7-0.1l4.8,1.4l3.5,2.7l3,7l-1,2.5
			l3.9,0.4l8.2,2.9l1.1,1.3l6.5,1.7l3.3-0.1l6.1,4.3l4.4,1.4l1.1,4.2l-0.9,3.7l-4.2,4.5l-4.2,6.1l0.2,4.1l-2,8.7l-2.6,5.2l-2.3,2.3
			l-5.9,0.8l-4,1.6l-4.5,4l-0.9,6.2l-4,5.1l-3.4,2.8l-3.4,4.8l-2.5,1.2L149.6,219.2z M558.8,215.4l-4.3,1.7l-1.2,2.1l-8.3,0.2
			l-4.1,2.4l-6.6-1.9l1.7-4.4l-1.7-6.1l-1.9-3l-1.7-8.3l2.8-5.7l4.6-2.5l9.2-2.2l3.1-3.3l0.2-2.1l7.5-6.7l3.1-0.9l2.9,2.3l2.3-1
			l2.7-4.2l6.5-1.7l7.5,1.3l-3.4,5.2l8.5,5.9h3.6l1.8-5.2l0-5.8l1.8-3.9l3.1,8.6l3.2,1l2.2,8.8l5.5,3.2l1.8,4.3l7,6.5l1.6,6.3
			l-1.5,7.8l-2.6,3.1l-3.6,7.5l-8.3,5.8l-4.1-2.1l-1.9,1.6l-6.6-1.8l-2.4-4.2l-3.2-1.2l-8.5-6.6l-6.5-2.5L558.8,215.4z M351.9,203.3
			l-0.8,3.5l-9.4,9.9l-5.4,2.6l-7.1-0.2l-6.6,2.1l-3-2.1l0-4.9l-6.7-10.1l-2.1-11l-5.5-9l0-5.1l2.1-5.9l2-2.4l-0.9-7.7l-2.9-7.8
			l-6.9-8.7l2.2-9.3l-2.9-3.8l-5.8,1.1l-3.5-4.4l-7.2,0.8l-6.7,2.7l-4.5-1l-8.2,1.8l-2.9-1l-8.7-6.6l-0.7-2.5l-7.6-7.7l-1.1-5.6
			l1.6-2.7l0.4-8.8l-1.7-2l2.4-6l3.4-5.6l4-4l2.1-0.2l4.7-4l-0.6-2.8l2.6-4.6l3.9-1.9l2.2-3.6l8.3,1.3l8.1-3.2l17.8-1.7l3.2,3.7
			l-1.8,3l3,2.6l8.3,1.9l1,2l7.5,2.5l3.9-5.4l17.9,4.1l4.6-1.5l7.3,0.7l3.8-7.6l0.3-2.6l-3.2-2.2l-4.9,1.5l-4.2-1.3l-2.1,1.2
			l-4.6-1.1l-2.9-3.4l-0.3-2.8l6.8-3.9l4.2,0.3l5.2-2.1l3.7,0l7,2.4l7.1-1.3l-0.2-2.4l-8.7-4.5l0.3-4.4l-9.4,1.5l-6-1.4l-4.2,3.7
			l-2.6,5.2L343,53l-8.6,0.2l-4.6,2.8l2.6,4.4l-5.2,1.8l-1.2-3.2l-3.8-4.3l-0.1-3.6l-7.4-3.6l-2.5-3.5l-3.9-1.5l-1.2,3.7l7.3,5.7
			l3.6,1.5l-2.4,2.4l-9.6-4.2l-7.1-5.9l-5.2,2.7l-7.6,0.1l-0.1,2.6l-4.9,2l-3.3,7.5l-3.2,2.1l-15-0.4l-1.4-4.1l1.7-4.5l-0.5-4.1
			l2.2-2.6l13.5,0.7l1.6-5.7l-3.9-3.4l4.4-3.9l5.2-1.7l5.5-3.3l1.9-3.3l11.6-3.3l9.3,1.9l7.8-2.4l4.5,0.9l3.6-1.7l-0.4-3.5l5-5.3
			l10.3-0.6l0.2-2.3l-11.5,1.5l-3.4-1.9l-0.6-4.2l9.6-5.6l-7.1-1.3l-1.8,2.9l-7.8,3.7l-1.6,3.1l3.7,2.8l-4.3,3l-2.1,5.8l-7.2-0.5
			l-5-7l-4.4,2.6l-6-0.6l-1.5-7.5l12.3-5.6l9.4-7.4l9.8-4.4l19.9-3L354-9.6l14.4,3l1.8,2.5l-6.1,1.8L356.3-2l0.3,3.3l20-3.7
			l21.7-6.2l8,0.9l13.7-2.4l7.6,0.2l-0.5-3.5l7.2-4.5l12.7,1.6l8.8,0l1.9-3l14-0.6l0.8-2.6l26.1-2.9l12-2.8l14.9,2.2l6.2,3.1
			l0.2,3.8l28.8,0.1l3.3,3.5l12,1.3l13.3-0.2l1.3-3l20,1.4l7.7,3l9-0.4l8.7,3.5l15.3-0.3l17.5-0.6l9.5,2V0l-1.4,4.4l-12.6,3
			l-6.6,2.9l-9.8,1.2l-6.1-0.2l-3.4,3.6l2.6,1.4l-2.4,6.1L626.7,31l-3-9.7l3.1-5.4l3.4-0.5l3.9-5.5l-1.8-2.7l-5.7,0.8l-5.6,3.7
			l-6.5,2.2l-12.8-1.2l-7.3,0.6l-15.7,9.6l4.6,1.7l6-0.5l3.2,2.4l-2.9,10.3l-4.1,4.7l-7.4,6.5l-5.7,0.2l-5.8,3.7l0.1,1.6l-4.8,2.5
			l4.3,6.6l-0.8,3.8l-5.8,1.5l-0.7-7.4l-3.2-0.8l-1-4l-4.7,1.7l-1.7-1.3l-8.5,2.2l4.8,3.5l2.5-1.6l3.4,0.9l-7.1,5.6l2.4,1.2l3.7,5.9
			l0.4,4.1l-7.6,11.7l-6.1,3.9l-9,2.7l-7.4-0.4l-4,2.3l-2.3,3.6l3.8,5.2l3.4,3.2l1,4.1l-0.3,3.9l-9,6.8l-0.2-2.9l-3.5-1.6l-2-3.5
			l-3.6-2.7l-2.1,2.5l-1.9,5.2l2.9,5.6l6.5,5.7l0.3,8.1l-4.7-3.4l-2.7-5.7l0.2-1.6l-4-5.2l0-10.5l-3-8.4l-4,2.7l-2.6-0.7l0.3-4.8
			l-4.3-5.4l-2.1-4.6l-2.5,2.1l-7.3,0.8l-1.1,3l-5.7,4.1l-8,5.3l-0.1,6.4l-0.9,5.9l-5.1,5.3l-2.1-2.1l-3.8-8.5l-0.9-4.2l-2-3
			l-2-11.9l-4.8,1.1l-2.5-4.4l-4.2-2.4l-2.4-3.3l-10.8,0.8l-9.1-1.5l-2-3.1l-3.9,1.5l-7.1-3.1l-3.1-5.1l-4.8,0.4l1.9,5.1l3,2.2
			l3.2,5.4l5.4,0.3l4.6-4.3l3,4.8l2.9,0.7l2.4,2.8l-4.5,7.2l-5.6,4.1l-6.4,1.9l-0.5,1.7L387,113l-11.5,3l-1.6-8.2l-4.1-7l-4-4
			l-1.4-5.3l-7.5-9.7l-4,0.8l7.8,12.6l1.4,7.5l2.1,1.4l1.9,4.6l9,7.8l1.8,4.3l5.6-0.8l9.9-2.7l-0.1,3.1l-3.5,8.5l-6.4,8.8l-7.6,5.7
			l-3.4,4.4l-2.9,2l-3.4,7.4l1.6,2.1l-0.6,3.6l2.9,5.1l0.7,8.7l-2.9,4.5l-4.5,1.9l-5.8,4.9l1.7,5.1l-0.2,4.5l-6.4,3.6L351.9,203.3z
			 M386.8,51.4l2.3,2.7l-1.6,5l4.3,3.2l6.6-0.2l0.1-4.4l-2.6-2.4l4.5-2l-2.2-2.6l-5.3-2.2l-0.1-4.7l3.8,0l0-3.5l-4.1-0.4l-7.8,3.1
			l-2.2,2.3L386.8,51.4z M389,171.7l2.1,6.1l-2.2,4.2l-2.1,7.5l-3.2,9.8l-3.7,1.5l-3-1.4l-1.7-6.5l2.5-4.4l-0.9-5.9l1.1-2.6l4.1-1
			L389,171.7z M591.7,149.8l7.9,2.8l5.3,6.3l6.2,8.1l-4.2-0.6l-4.1-4.6l-2.9-1l-3.2,1.4l-1.5,2.4l-3.5-0.5l-5.2-4l-1.6-4.3l-6.1-2.1
			l-7-3.6l0.9-5.4l3.6,0.9l1,4.4l2.3,1.3l1.9-2.4l4.5-1.3L591.7,149.8z M519.6,158.3l9.2,1.2l1.9,3.1l-11.5-1.3l-6.5-2l1.5-2.1
			L519.6,158.3z M551.6,142.1l-6.1,1.4l-0.3,1.7l3.2,3.1l3.7,6.2l-1.2,2.1l-5.2-6l0.3,5.8l-2.4-0.3l0.3-4.2l-1.6-1.5l2.8-7.5
			l1.9-1.7L551.6,142.1z M540.5,134.9l0.4,4.1l-1.2,6.9l-2.1,1.5l-1.2,4.8l-2.5,1l-3.6-2.2l-6.7-0.4l-0.3-3L521,145l1.3-5.5l7.4-2.4
			l7.2-6.7l6.6,1.6L540.5,134.9z M510.5,146.4l1.2,2.8l2.7,1.6l-0.7,6.2l-2.5,0l-4.7-3.7l-8.8-13.4l-7.1-7l4.7-0.6l7,7l2.2,0
			L510.5,146.4z M559.3,125.4l0.3,2.7l-5.1,2.3l-2-2.8l0.4-2.8l6.1-1.3L559.3,125.4z M460.4,127.4l-0.3,2.3l-2.9,1.1l-1.5-4.9
			l2.5-2.4L460.4,127.4z M550.3,103.6l0.4,2.5l-1.9,2.6l0.1,3.5l-3.7-1.4l1.4-7.8L550.3,103.6z M120.2,104l-2.4-3.2l4.4-0.9l5.5,2.8
			L120.2,104z M96.8,92.6l8.7,1.5l4,2.9l2,2.9l-4.7,0l-2.1-3.9l-6.9-1.3L96.8,92.6z M593.7,57.2l-2,2.2l-0.4,5.2l-4,2.6l-8.6,0.2
			l-6.5,1.5l-1.8,5.4l-4.3-4.1l7.1-4.7l6.8-0.2l8.3-6l1-5.2l3.3-1.8L593.7,57.2z M599.7,46.6l-3.2,4.4l-4-3.1l1.3-4.8L599.7,46.6z
			 M155.9,30.3l-0.5,3.8l5.2,0.8l0.9,5.8l-7-2.2l-6.7,0.1l5.6-8.2L155.9,30.3z M265.4,24.6l-1.3,3.6l-3.9,1.3l-2.5-4.9l4.7-2.8
			L265.4,24.6z M272.3,25.7l-1.2-2.7l-4.3-1.5l-1.2-3.3l2.5-4.1l6.8,2.1l-0.3,3.9l5.7,6.6l0.2,4.8l-9.2,1.2l-3.7-3.9L272.3,25.7z
			 M66.3-34.6L84.5-34l4.4,2.2l-15.7,2.2L66.3-34.6z M-108.6-4.9l6.8,0.7l-4.5,5.8l-9.9-2.5l-3.6,0.9v-8.8L-108.6-4.9z M247-3.3l2,3
			l-11.2,3.6l-9.1-1l-2-5.1l6.8,1.2L247-3.3z M43-18l4.6,4.6l7.7,2.1l-3.2,2.8l-7.8-0.9L28-7.9l-6.2-1.4l-7.3-5.3l9.3-3.9L43-18z
			 M104.5-16.4l2.1-0.9l24.1,7.9l10.7,6.7l-7,3.9l-1.9,5.4l-10.8-2.2l-15.2-5.3l8-1.1l3.6-3.3l-10.3-5.5l-17-0.4l-10.1-1.8l-1.5-3.3
			l17.5-3.4L104.5-16.4z M397.8-19.4l7.6,6.9l-7.2-0.3l-4.9-2.8L397.8-19.4z M175.5-39.1l43.6-2l33,4.9l-16.6,5.6l2.7,3.9l-2,6
			l-9,4.9l2.4,4.3l-12,3.7l-11.2,1.6l-7.8,3.9l-7.7,1.2L183,10.8l-10.8-1.7L164.7,3l-5.2-7.9l2.2-2.6l-3.8-2.8l1.5-4.3l-10.1-8.8
			l-22-1.2L117-29.8l23.3-7.4L175.5-39.1z M9.7-21l13.4,2.2L6.3-13.1L0-15.3L9.7-21z M83.7-20.9l-10.5-3.3l28.9,2.1L83.7-20.9z
			 M40.1-24.1l-9.8,3.2l-12.2-1.8l5.1-2.8L40.1-24.1z M76.1-37.5l27.2-2.7l38.6,1.7l-20.6,5.7l-19,5.7l-1.8,2.3l-19.8-0.6l9.7-6.4
			L76.1-37.5z"/>
	</defs>
	<clipPath id="_x30__1_">
		<use xlink:href="#_x30_"  style="overflow:visible;"/>
	</clipPath>
	<rect x="-68.9" y="-41.1" class="st3" width="783" height="323"/>
</g>
</svg>
