<?xml version="1.0" encoding="utf-8"?>
<!-- Generator: Adobe Illustrator 25.0.0, SVG Export Plug-In . SVG Version: 6.00 Build 0)  -->
<svg version="1.1" id="Layer_1" xmlns="http://www.w3.org/2000/svg" xmlns:xlink="http://www.w3.org/1999/xlink" x="0px" y="0px"
	 viewBox="0 0 1280 1024" style="enable-background:new 0 0 1280 1024;" xml:space="preserve">
<style type="text/css">
	.st0{fill:#1E4065;}
	.st1{fill:#295378;}
	.st2{fill:#C14663;}
</style>
<g>
	<path class="st0" d="M1114.4,356.5c-10.5-22.8-26-41.6-48.1-54.7c-24.8-14.8-51.8-19.4-80.4-15.7c-16,2.1-31.1,7-45.6,13.9
		c-5.5,2.6-6.3,2.3-9.2-2.7c-9.3-16.3-20.1-31.6-32.7-45.6c-15.3-17.1-32.4-32.3-51.3-45.4c-16.2-11.3-33.5-20.9-51.6-29
		c-23.8-10.6-48.3-18.9-73.8-24.4c-8-1.7-16.1-3-24.2-4.6c-3.7-0.7-4-1.2-2.7-4.9c0.8-2.3,1.7-4.5,2.3-6.8c1.6-7.1-2-11.7-9.4-12.3
		c-4.8-0.4-9.3,0.4-13.7,2.6c-4.6,2.3-5.1,2-5.8-2.9c-0.7-4.8-1.6-9.5-4.3-13.7c-3.4-5.3-7.8-6.7-13.7-4.1c-1.7,0.7-3.4,1.6-4.7,2.8
		c-5.3,4.7-10.4,9.6-14.5,15.4c-3.3,4.5-5.3,9.8-8.7,14.1c-2-0.4-2.4-2-3-3.1c-3.1-6.1-7-11.7-11.4-17.1c-3.7-4.6-7.8-8.8-13.1-11.6
		c-6.6-3.5-11.8-1.9-15.3,4.6c-2.1,3.9-3.4,8.1-3.7,12.6c-0.4,5-1.5,5.6-6.1,3.1c-4.5-2.4-9.3-3.1-14.3-2.6
		c-5.8,0.6-9.1,4.4-8.9,10.2c0.1,2.8,1.1,5.5,2,8.1c1.7,4.6,1.6,4.9-3.4,5.9c-9.4,1.8-19,3.2-28.4,5.5
		c-32.9,8.1-64.6,19.5-94.1,36.1c-22.3,12.6-42.9,27.4-61.4,44.9c-19.4,18.4-35.7,39.1-48.7,62.3c-2.9,5.3-3.5,5.4-9.1,2.8
		c-14.5-6.7-29.6-11.7-45.7-13.7c-31.8-4-61.2,2-87.6,20.2c-12.2,8.4-22.3,18.9-30.4,31c-11.8,17.6-19.1,37.1-22.5,57.9
		c-2.6,15.9-2.8,32-1.1,47.9c3.3,30.5,13.5,58.8,29.9,85c19,30.3,43.7,55,76.2,71.4c6.5,3.3,11.9,6.6,14.1,13.7c0.9,3,4,5,4.6,8.5
		c-1.5,0.4-2.7,0.6-3.8,0.9c-9.1,2.6-12.6,9.5-9.2,18.2c1.8,4.5,4.2,8.6,8.1,11.8c4,3.2,3.9,3.3-0.7,6c-6.1,3.7-8.4,8.9-7.1,15.8
		c1.7,9,7.7,14.3,16,17.5c12.8,4.9,25.8,4.3,38.5-0.2c7.4-2.6,13.2-0.7,18.4,4.2c3.2,3,6.9,5.1,11,6.5c7.1,2.5,14.4,3.5,21.7,0.9
		c5.3-1.9,10.3-1.8,15.4,0.9c3.2,1.7,6.9,2.5,10.4,3.6c11.6,3.5,23.5,5.5,35.6,6.4c12.5,0.9,25,1.1,37.4-0.2
		c9.8-1,19.3-3.5,28.8-6.1c18.4-4.9,36.5-10.9,53.4-19.7c1.3-0.7,2.6-2,4.4-1.1c0,0.4,0.2,0.9,0.1,1.2c-5.1,7.8-10.2,15.5-14.7,23.6
		c-1.1,1.9-2.9,2.7-5.1,2.8c-6.1,0.3-12.3,0.5-18.4,1.2c-10,1-20.1,0.8-30.1,1.6c-11.7,0.8-23.3,1.8-35,1.9
		c-19.9,0.1-39.8-0.1-59.7,1.1c-7.1,0.4-11.2,4.7-10.5,11.8c0.2,2.8,1.1,5.5,1.9,8.2c2.9,10,5.9,20,8.8,30
		c8.8,31.2,18.1,62.3,27.8,93.3c2.6,8.4,5,16.9,7.3,25.4c1.1,4.3,0.3,5.3-4.1,6.3c-1,0.2-2,0.2-3.1,0.4c-7.5,1.5-15.1,0.8-22.7,1.2
		c-5.8,0.3-8.5,2.9-8.2,8.3c0.5,8.6,1.5,17.1,2.3,25.7c0.4,3.7,2.1,6.8,5,9.4c6.6,5.7,13.1,11.4,19.7,17.2
		c8.9,7.7,17.8,15.4,26.6,23.2c3.6,3.2,7.4,5.3,12.6,5.4c21.1,0.6,42.2,1.7,63.3,2.1c31.6,0.6,63.2,0.6,94.7,1.2
		c36.1,0.7,72.2,0.7,108.3-0.6c29.7-1.1,59.5-0.2,89.2-1.2c16-0.6,32-1.6,48-1.5c4.3,0,7.9-1.3,11.2-4.1
		c16.2-14.1,32.6-28.1,48.8-42.1c1.7-1.5,3.1-3.3,3.6-5.5c2.3-9.8,2-19.9,2.8-29.8c0.4-4.6-2.4-6.9-7.1-7.4
		c-3.2-0.3-6.6-0.2-9.8-0.2c-6,0-11.9-0.8-17.7-1.8c-4.1-0.7-4.5-1.5-3.5-5.3c0.9-3.5,2.3-6.8,3.3-10.3
		c6.1-20.3,12.2-40.7,18.2-61.1c7.9-26.9,15.7-53.9,23.5-80.8c1-3.5,1.4-7.1,0.2-10.6c-1.5-4.8-4.4-7.5-9.4-7
		c-7.2,0.8-14.3-0.5-21.5-0.6c-24.8-0.1-49.6-0.2-74.4-2c-15.5-1.1-31.1-2.4-46.6-2.7c-3.5-0.1-5.8-1.5-7.2-4.6
		c-3-6.6-7.2-12.5-11.3-18.5c-1-1.4-2.4-2.7-2.4-4.6c1.5-0.7,2.5,0.2,3.5,0.7c14.3,7.6,29.7,12.6,45.1,17.5
		c20.4,6.5,41.2,10.4,62.8,9.7c21.3-0.7,42.1-3.7,61.8-11.8c3.4-1.4,6.6-1.7,10.1-0.5c6.7,2.4,13.6,2.6,20.5,0.8
		c5.1-1.3,9.5-3.4,13.5-6.8c5.7-4.9,11.9-8.3,20-4.7c4.5,2,9.4,2.8,14.4,3.1c11.1,0.9,21.7-0.9,31.1-7.1c10-6.6,13.6-24.5-0.7-30.6
		c-0.7-0.3-1.5-0.8-1.5-1.8c0.4-1.6,2.1-2.3,3.2-3.4c3.9-3.6,7.2-7.7,8.4-13c2-8.6-1.7-14.5-10.4-16.7c-1.2-0.3-2.5,0-3.9-1.4
		c3.4-4.4,6.5-8.6,8.1-13.6c0.8-2.3,2.5-3.6,4.6-4.5c14.5-6.3,27.4-15.1,39.7-24.9c7.5-6,14.4-12.6,20.6-19.7
		c11.8-13.4,22-27.8,30.2-43.6c13.1-25.3,21.3-52.1,23.1-80.3C1130.1,407.5,1125.9,381.3,1114.4,356.5z M358.2,320.5
		c7.5-11.3,17-20.9,27.9-29.3c21.3-16.4,45-27.9,71.5-33.2c30.8-6.2,60.7-4,89,10.9c25.7,13.5,44.8,33.2,58.4,58.2
		c3.9,7.1,6.8,14.5,9.4,22.1c0.2,0.6,0.4,1.1,0.6,1.7c1.1,3.3,2.9,6,6.8,6c3.8,0,5.6-2.7,6.7-6c3.4-10.3,7.6-20.3,13.3-29.6
		c13.7-22.5,31.9-40.5,55.8-52.7c28.8-14.8,59-16.7,90.3-10.1c26.8,5.7,50.6,17.4,71.7,34.3c24.4,19.5,40.3,44.3,44.5,75
		c2.3,16.3,0.9,32.7-4.3,48.6c-7.2,22.1-18.6,41.7-34.4,58.9c-3.1,3.4-7,5.3-11.4,6.7c-20.4,6.7-41.3,8.2-62.5,6.9
		c-7.6-0.5-15-2-22.5-3.5c-0.8-0.2-1.7-0.3-1.9-1.4c0.7-2,3-2.4,4.6-3.5c12.1-8.7,21-19.6,25-33.9c0.5-1.9,0.9-3.9,1-5.9
		c0.2-2.6,0.3-5.4-3.1-6.4c-2.2-0.6-4,1.1-4.9,5c-0.7,2.9-1.4,5.8-2.8,8.5c-5,9.6-12.5,16.7-21.8,22.3c-3.7,2.2-7.7,3.6-12.2,3.6
		c-3.1,0-6.5,0.1-8.5,2.7c-2.4,2.9-5,2.7-8.2,1.9c-13.9-3.5-27.9-6.8-42.1-8.9c-14.8-2.1-29.4-5.5-44.3-7.2
		c-25.5-2.8-50.8-2.1-75.8,3.2c-7.4,1.6-15,2.4-22.4,3.6c-14.8,2.4-29.3,6-43.9,9.2c-3.2,0.7-5.9,1.2-8.2-1.8
		c-1.7-2.2-4.5-2.8-7.2-2.7c-7.3,0.4-13.3-2.9-18.7-6.8c-9.4-6.8-16.6-15.4-19.2-27c-0.1-0.4-0.1-0.8-0.2-1.2
		c-1-3.3-2.7-4.9-4.9-4.3c-3.1,0.9-2.9,3.3-2.9,5.8c0.3,9.7,4.8,17.7,10.2,25.3c5,7,11.1,12.9,18.9,16.8c0.7,0.4,1.5,0.8,1.7,2
		c-1.5,1.6-3.9,1.7-6,2c-5.4,0.9-10.9,2.1-16.4,2.4c-15.3,0.7-30.8,1.5-45.9-1.9c-7-1.6-13.9-3.6-20.8-5.4c-3.3-0.9-6-2.6-8.3-5
		c-19.7-21.2-33.4-45.3-39-73.6C334.6,372.9,341.4,345.7,358.2,320.5z M234,589.9c-28.1-13.4-50.4-33.3-68.3-58
		c-17.1-23.5-28.1-49.6-33.3-77.9c-3-16.6,0.4-32.2,8.2-47c8.1-15.2,19.9-26.8,35.4-34.7c9-4.6,18.5-7.6,28.6-8.9
		c26.7-3.4,50.6,4.4,73.1,17.6c3.9,2.3,5.6,5.5,5.3,10c-0.3,5.2-0.1,10.4-0.3,15.6c-0.6,20.3,2.3,40.2,7.6,59.9
		c6.7,24.9,15.7,48.8,28.6,71.3c5.4,9.5,12.2,18,18.9,26.6c1.2,1.6,2.7,2.9,3.4,4.7c-1.3,1-2.3,0.4-3.2,0.1
		c-6.8-2.2-12,0.2-16.3,5.3c-2.1,2.5-3.7,5.3-5,8.2c-0.9,2-1.1,4.3-3.2,5.9c-2.2-1-2.9-3.2-4-5c-5.5-9.2-13-16.4-22.1-22.1
		c-7.1-4.5-14.4-4.7-19.5-0.6c-2.8,2.3-4.6,5-4.8,8.7c-0.2,6.1-0.1,12,2.9,17.5c0.5,0.9,1,1.8,0.7,2.9c-1.6,1.1-3.1-0.2-4.6-0.5
		c-6.5-1.1-13.1-1.5-19.3,1.1C239.5,591.8,237,591.4,234,589.9z M344,598.8c-1,5.1-2.2,10.2-3.8,15.1c-0.7,2.1-1.6,4.1-3.4,5.6
		c-4,3.2-5.2,7.4-5.2,12.3c0,4.9-0.4,5.1-5.4,4c-9.7-2-17.3,0.8-22.4,8.2c-4.9,7.1-4.3,13.7,1.8,20.1c1.7,1.7,3.6,3.2,6.2,5.4
		c-4.4,2.4-8.1,4.5-10.3,8.3c-0.8,1.3-2.4,1.8-3.8,1.1c-2.9-1.6-5.5-0.5-8.3,0.5c-8.2,2.8-16.7,4.2-25.2,5c-7.7,0.7-15-1.7-21.7-5.6
		c-3-1.7-5-4.3-4.7-7.9c0.3-3.3,2.9-4.7,5.7-5.7c5.8-2.2,11.7-3.5,18-2.2c6.9,1.4,13.8,1.8,20.8,1.6c1.4-0.1,2.9-0.1,4.3-0.3
		c2-0.4,3.4-1.5,3.6-3.6c0.3-2-0.7-3.5-2.4-4.5c-1.8-1.1-3.9-1.3-5.9-1.3c-10.9-0.2-21.6-2-32.1-4.9c-5.8-1.6-10.3-4.9-13.9-9.4
		c-1.8-2.3-2.9-5-1.3-7.8c1.5-2.6,4.3-3.1,7-2.8c7.9,1,15.9,2.1,22.9,6.2c5.9,3.4,12.3,5.5,18.5,8c1.3,0.5,2.7,1,4.2,0.7
		c1.8-0.3,3-1.3,3.5-2.9c0.5-1.7-0.1-3.2-1.7-4.1c-1.4-0.8-2.9-1.4-4.5-1.9c-12.1-4.2-23.4-9.7-33.2-17.8c-3-2.5-5.6-5.3-7.5-8.7
		c-1.8-3.3-1.3-6.1,1.7-8.6c3.6-3,7.7-4.3,12.6-2.7c8.9,2.8,15.9,8.1,21.7,15.1c3.7,4.5,7.6,8.9,10.8,13.8c1.3,2,2.8,4.5,5.8,3.1
		c3.1-1.4,2.8-4.2,2.1-6.8c-1.2-4.7-3.2-9.1-6.2-13c-5.7-7.4-10.3-15.4-15.1-23.3c-2.1-3.5-3.8-7.1-4.1-11.2c-0.5-6,3.2-8.7,8.9-6.6
		c4.6,1.7,8,4.9,10.6,8.8c7.9,11.7,15.6,23.5,20.4,36.8c0.9,2.5,1.7,6.1,5.4,5.4c3.9-0.7,2.7-4.4,2.7-7c0.1-9.2,0.1-18.4,4.5-26.9
		c1-2,2.2-3.9,3.7-5.5c3.9-4.1,8.9-3.5,11.5,1.6C343.6,587.6,345,593,344,598.8z M492.6,666.2c-17,3.1-34.1,4.8-51.3,4
		c-20.4-0.9-40.1-5.4-58.8-13.6c-4.5-2-4.4-2.1-3.8-6.8c0.6-4.2,0.9-8.4-0.2-12.5c-1.7-6.3-4.7-8.4-11.5-7.8c-1.9,0.2-3.1,0-4-1.8
		c-1.8-3.7-4.7-6.6-8.2-8.8c-2.2-1.4-2.8-3.2-2.2-5.6c0.9-3.7,1.4-7.5,1.8-11.2c0.7-6.9,6.3-9.3,12.1-5.3
		c14,9.5,28.5,18.1,43.7,25.5c21.9,10.8,43.4,22.4,66.7,30.3c7.9,2.7,16,5,24,7.6c1.5,0.5,3.3,0.2,4.4,2.4
		C501.3,664.9,496.9,665.4,492.6,666.2z M394.6,908.3c1.8,0.1,3.1,1.1,3.6,2.8c2.9,9.5,5.9,19,8.8,28.5c-0.5,0.3-1,0.6-1.5,0.8
		c-11-9.8-21.9-19.5-34-30.3C380.2,908.9,387.4,907.8,394.6,908.3z M408.9,967.5c-1.6,0.7-2.8-0.4-3.8-1.3c-11-9-21.9-18-32.9-26.9
		c-5.9-4.8-4.4-11.3-5.5-17.2c0.5-0.2,1-0.4,1.5-0.6c3.7,3.1,7.5,6.1,11.1,9.4c8.4,7.8,17,15.5,25.8,22.9
		C408.8,957,409.8,960.7,408.9,967.5z M819.5,975c-0.1,2.3-1.4,3.7-3.8,3.9c-1,0.1-2,0.1-3.1,0.1c-25.4,0.3-50.8,1-76.2,1.3
		c-19.9,0.3-39.7,0.9-59.6,1.6c-24.2,0.8-48.4,0.4-72.5,0.6c-12.5,0.1-25-0.1-37.5-0.6c-35.9-1.4-71.7-1.7-107.6-2.3
		c-9.8-0.2-19.7-0.6-29.5-0.7c-5.4-0.1-6.1-0.8-6.2-5.9c-0.1-2.4-0.1-4.8,0-7.2c0.2-5.3,1-6.1,6.7-6.2c8.6-0.1,17.2,0,25.8,0
		c24,0.1,48,1,71.9,1.7c21.9,0.7,43.9,0.4,65.8,0.9c7.2,0.2,14.3,0,21.5,0.8c4.9,0.5,9.8,0.4,14.7-0.3c3-0.4,6.1-0.4,9.2-0.5
		c18.7-0.1,37.3,0.1,56-0.4c19.9-0.5,39.8-0.5,59.6-1.4c18.9-0.9,37.7-0.7,56.6-0.9c1.4,0,2.9,0,4.3,0.1c2.4,0.1,3.8,1.4,3.9,3.8
		C819.6,967.4,819.6,971.2,819.5,975z M876.1,921.6c1.7,7-0.3,13.6-5.5,17.9c-10.5,8.8-20.8,18-31.8,26.3c-0.9,0.7-1.7,1.7-3.9,1.9
		c-1.1-5.9-0.3-10.6,4.5-14.7c10.9-9.4,21.4-19.1,32.1-28.6C872.8,923.2,874.1,921.8,876.1,921.6z M868.3,909.5
		c0.9,0,1.5,0.5,1.7,1.5c-0.1,1.3-1.2,2-2.1,2.7c-6.3,5.1-11.7,11.2-18.1,16.1c-3.3,2.6-6.2,5.7-9.4,8.6c-0.8,0.7-1.7,1.3-2.7,0.6
		c-0.8-0.5-0.7-1.5-0.5-2.2c2.6-8.6,5.2-17.2,7.9-25.7c0.6-1.9,2.1-2.8,4.2-2.9C855.8,907.9,862,909.3,868.3,909.5z M749.3,730.9
		c32,0.5,64,0.4,95.9,1.1c10.9,0.2,21.7,0.6,32.6,0.8c0.8,0,1.6,0,2.5,0.1c3.9,0.4,4.8,1.4,3.7,5c-1.6,5.4-3.4,10.7-5.1,16
		c-8.3,26.2-16.6,52.3-24.8,78.5c-7.5,24.1-14.7,48.3-22.1,72.4c-3.2,10.3-6.4,20.7-9.6,31c-2.2,7-2.1,7-9.8,7
		c-19.7,0-39.4,0-59.1,0v0.1h-38.1c-26.2,0-52.5,0.9-78.7,1.4c-26.4,0.6-52.9-0.3-79.2-0.8c-41.4-0.9-82.8-0.7-124.2-0.8
		c-9.9,0-9.9,0.1-12.7-9.1c-13.7-44.6-27.2-89.3-41-133.9c-6.1-19.7-12.5-39.3-18.8-59c-0.3-0.9-0.7-1.9-1-2.8
		c-1.2-4.3-0.8-4.9,3.7-5.2c0.6,0,1.2,0,1.8,0c34.4-1,68.9-0.7,103.3-1.4c26.2-0.5,52.5-0.4,78.7-1.3c15.2-0.6,30.3-0.5,45.5-1
		c9-0.3,18-1.3,27-1.4c8-0.1,15.9,0.6,23.9,1c1.8,0.1,3.7,0.5,5.5,0.5C682.5,729.1,715.9,730.4,749.3,730.9z M570.1,709.4
		c1.9-11.9,6.6-22.6,13.9-32.3c1.8-2.4,4.1-2.9,6.9-2.9c12.7,0.1,25.4,0,38.1,0c7.6,0,15.2,0.2,22.7,0c3.9-0.1,6.6,1.2,8.8,4.3
		c6.1,8.5,10.2,17.8,12.1,27.9c0.2,1,0.3,2,0.4,3c0.5,6.7-0.5,7.6-7.4,7.6c-14.7,0-29.5,0-44.2,0s-29.5,0-44.2,0
		C570.2,717,569.1,715.9,570.1,709.4z M889,618.6c-3.6,2.1-6.4,5.1-8.3,8.7c-1.2,2.2-2.7,2.3-5,2c-5.7-0.7-8.5,1.2-10.3,6.3
		c-1.5,4.4-2,8.9-0.8,13.6c1.3,5.2,1.1,5.1-3.9,7.7c-4.9,2.5-10.3,4.1-15.5,5.7c-19.3,5.9-39.1,8.7-59.4,7.7
		c-15.6-0.8-31-3.1-46.2-6.5c-0.6-0.1-1.1-0.5-2-1c1.5-2,3.5-2.1,5.2-2.6c20.6-5.7,40.4-13.2,59.5-22.6
		c20.8-10.3,42.1-19.9,61.6-32.5c4.3-2.7,8.6-5.4,12.9-8.2c5.7-3.6,11.7-1.2,12.6,5.3c0.5,4.2,0.6,8.4,1.6,12.5
		C891.4,616.4,890.6,617.7,889,618.6z M875.8,513c-14,2.5-28,3.6-42.1,4.8c-4.6,0.4-4.9,0.8-5.7,5.4c-2.6,14.6-4.8,29.2-8,43.7
		c-2.2,10-3.3,20.1-4.3,30.3c-0.4,4.2,0.3,4.7,4.4,3.4c16.4-5.1,32.6-10.9,47.9-18.8c5.6-2.9,11.4-5.4,17.5-7.7
		c-2.5,4.1-6,7.1-9.5,10.2c-2.5,2.1-5.2,4-7.6,6.1c-9.2,8.2-19.8,14.1-31.5,18.4c-14.6,5.3-29.3,10.4-44,15.3
		c-18.3,6.2-36.9,10.7-55.7,14.9c-19.6,4.3-39.4,7.8-59.3,10.4c-8.1,1-16.3,1.4-24.5,1.5c-21.3,0.2-42.7,0.3-64,0
		c-13.9-0.2-27.8-1.6-41.6-4c-25.7-4.3-51.3-9-76.3-16.3c-20.2-5.9-40.4-12-59.9-20c-2.3-0.9-4.6-1.8-6.9-2.6
		c-18.8-6.7-32.9-19.7-46.7-33c0.3-0.4,0.6-0.8,0.8-1.2c6.9,3.4,14,6.6,20.8,10.1c13.7,7,28.2,11.8,42.8,16.6
		c4.8,1.6,5.8,0.7,5.3-4.3c-1.6-16.7-5.4-33.1-8.4-49.7c-1.4-7.7-3-15.3-3.7-23.1c-0.4-4.5-1.3-5.3-6.3-5.6
		c-20.5-1.2-40.7-4.2-60.8-8.4c-11.2-2.3-22.3-5.2-33.3-8.6c-4.4-1.4-10.3-9.7-9.9-13.9c0.2-1.9,1.5-2.3,3.1-1.9
		c2.8,0.6,5.6,1.3,8.3,2.1c20.7,6,42.1,8.4,63.4,11.9c22.4,3.7,44.9,3.8,67.5,3.2c16.2-0.4,32.3-2.9,48-6.8
		c27.8-6.9,55.9-12.6,84.2-17.5c12.1-2.1,24.3-3.8,36.6-4.4c15.5-0.7,30.7,1.8,45.8,4.2c31.8,5,63.2,12,94.4,19.5
		c14.2,3.4,28.7,4.6,43.3,5c15.4,0.4,30.8,0.3,46.1-1.1c6.9-0.6,13.8-1.6,20.7-2.7c22.2-3.6,44.6-6.6,66.2-13.2
		c0.8-0.2,1.6-0.5,2.4-0.6c1.8-0.2,3.1,0.6,2.5,2.4c-2.1,6-3.5,12-11.4,14.3C909.9,506.2,892.9,509.9,875.8,513z M1009,633
		c2,3.6-0.4,6.7-2.7,9.2c-3.3,3.7-7.6,6.1-12.4,7.5c-10.3,3-20.6,5.2-31.4,5.1c-2,0-4.1,0-6,0.9c-2.1,1.1-3.9,2.5-3.4,5.1
		c0.5,2.3,2.3,3.3,4.5,3.5c6.1,0.4,12.3,0.6,18.4-0.5c6.1-1.1,12.1-2,18.3-0.5c2.2,0.5,4.4,1,6.4,2.1c5.9,3.1,6.6,8.7,1.1,12.3
		c-7.3,4.9-15.4,7.6-24.4,6.4c-8.3-1.1-16.6-2.7-24.6-5.2c-2.2-0.7-4.3-1.3-6.6-0.2c-2.3,1.1-3.8,0.1-5.2-1.8
		c-1.1-1.4-2.4-2.8-3.8-3.9c-4.6-3.9-4.7-3.8-0.2-8.4c6.5-6.6,7.5-12,3.7-18.9c-4.3-7.7-13-12-20.9-10.7c-2.3,0.4-4.9,2.6-6.9,1
		c-2-1.6-0.7-4.5-1-6.9c-0.5-3.5-1.7-6.7-4.4-9.1c-2.9-2.6-4.2-5.8-5.2-9.3c-1.6-6-3.1-12-2.8-18.3c0.2-3.3,0.9-6.3,2.4-9.2
		c3.2-6.1,8.8-6.7,13.1-1.1c3.9,5.1,5.7,11,6.4,17.3c0.3,2.8,0.1,5.6,0.1,8.4h0.2c0,2.8,0,5.6,0,8.4c0,1.8,0.3,3.7,2.6,4.3
		c2.2,0.5,3.6-0.8,4.6-2.3c0.9-1.3,1.5-2.8,2.1-4.3c4.5-13,12.1-24.4,19.9-35.7c2.6-3.7,5.9-6.7,10.2-8.5c2.5-1,5.1-1.9,7.5,0.2
		c2.2,1.9,2.5,4.5,1.9,7.2c-0.9,4.1-3,7.8-5.1,11.5c-4.4,7.7-9.4,15-14.5,22.3c-2.6,3.7-4.4,7.7-5.7,11.9c-0.3,0.9-0.6,1.9-0.7,2.9
		c-0.2,2,0.6,3.6,2.4,4.5c2.1,1,3.6-0.1,4.8-1.6c1.5-1.9,3-3.8,4.4-5.8c4.6-6.4,10.1-12.1,15.9-17.5c4.3-4,9.5-6.2,15.2-7.5
		c0.8-0.2,1.6-0.4,2.4-0.3c4.3,0.2,8.3,1.6,10.2,5.5c1.9,3.7,0.1,7-2.5,9.9c-7.5,8.5-17,14.3-27.5,18.8c-4.3,1.9-8.8,3.4-13.2,5.1
		c-2.4,0.9-4.6,2.2-3.8,5.2c0.6,2.4,3.2,3.6,6.6,2.3c6.4-2.3,12.6-4.7,18.6-7.9c6.8-3.6,14.2-5.2,21.7-6.4
		C1003.2,629.5,1007,629.4,1009,633z M1107.8,468.6c-7.5,29.5-21.9,55.6-42.1,78.5c-15.9,18.1-34.5,33.1-56.9,43.1
		c-2.3,1-4.3,1.9-7,0.7c-6.8-3.1-13.9-2.7-21.1-1.1c-1.1,0.2-2.3,1.1-3.6,0.1c-0.8-2.1,0.8-3.7,1.5-5.5c1.8-4.8,2.8-9.6,2.1-14.7
		c-1.2-8.8-8.5-13.6-17.4-11.3c-4.6,1.2-8.8,3.4-12.4,6.5c-6.5,5.6-12.8,11.3-16.9,18.9c-0.9,1.7-1.9,3.5-3.4,4.7
		c-2.2-0.2-2.2-1.8-2.7-3c-1.4-3.3-3-6.6-5.1-9.6c-4.6-6.7-10-8.7-18-6.4c-0.8,0.2-1.5,0.8-2.4,0.1c0.2-2.1,1.8-3.4,3-4.9
		c22.6-26.8,36.1-57.9,45.8-90.9c6.7-22.8,10.3-46.1,9.9-69.8c-0.1-4.2-0.5-8.4-1-12.6c-0.5-4.2,0.9-7.2,4.6-9.6
		c13-8.3,27.1-14.3,42.3-17.1c12.6-2.4,25.1-2.9,37.8-0.2c34.5,7.3,59.9,32.6,66.2,66.3C1113.6,443.8,1110.9,456.2,1107.8,468.6z"/>
	<path class="st1" d="M870.5,939.6c-10.5,8.8-20.8,18-31.8,26.3c-0.9,0.7-1.7,1.7-3.9,1.9c-1.1-5.9-0.3-10.6,4.5-14.7
		c10.9-9.4,21.4-19.1,32.1-28.6c1.3-1.2,2.6-2.5,4.6-2.7C877.7,928.7,875.7,935.2,870.5,939.6z"/>
	<path class="st1" d="M408.9,967.5c-1.6,0.7-2.8-0.4-3.8-1.3c-11-9-21.9-18-32.9-26.9c-5.9-4.8-4.4-11.3-5.5-17.2
		c0.5-0.2,1-0.4,1.5-0.6c3.7,3.1,7.5,6.1,11.1,9.4c8.4,7.8,17,15.5,25.8,22.9C408.8,957,409.8,960.7,408.9,967.5z"/>
	<path class="st1" d="M880.2,732.9c-0.8-0.1-1.6-0.1-2.5-0.1c-10.9-0.2-21.7-0.5-32.6-0.8c-32-0.8-64-0.7-95.9-1.1
		c-33.4-0.5-66.8-1.9-100.2-1.8c-1.8,0-3.7-0.4-5.5-0.5c-8-0.4-15.9-1.1-23.9-1c-9,0.1-18,1.1-27,1.4c-15.2,0.5-30.3,0.5-45.5,1
		c-26.2,1-52.4,0.8-78.7,1.3c-34.4,0.7-68.9,0.4-103.3,1.4c-0.6,0-1.2,0-1.8,0c-4.5,0.3-4.9,0.9-3.7,5.2c0.3,1,0.7,1.9,1,2.8
		c6.3,19.7,12.7,39.3,18.8,59c13.8,44.6,27.3,89.3,41,133.9c2.8,9.2,2.8,9.1,12.7,9.1c41.4,0.1,82.8-0.1,124.2,0.8
		c26.4,0.6,52.8,1.4,79.2,0.8c26.2-0.5,52.5-1.4,78.7-1.4h38.1v-0.1c19.7,0,39.4,0,59.1,0c7.7,0,7.7,0,9.8-7
		c3.2-10.3,6.4-20.7,9.6-31c7.4-24.1,14.6-48.3,22.1-72.4c8.2-26.2,16.5-52.3,24.8-78.5c1.7-5.3,3.6-10.6,5.1-16
		C885,734.3,884.2,733.3,880.2,732.9z M660.3,819.9c-0.6,2.1-1.7,4.1-3.2,5.8c-7.8,8.9-17.4,14.3-31.9,14.3
		c-12-0.4-21.9-7.1-27.7-19.4c-5.7-12.2-3.8-23.7,4.2-34.4c3.8-5,8.5-9.2,13-13.6c1-1,2.1-2,3.3-2.6c2.6-1.3,4.7,0.1,6.6,1.8
		c1.7,1.5,1.2,3.3,0.3,4.9c-0.8,1.4-1.7,2.8-2.7,4c-4.3,5.4-5.1,11.6-4.1,18.2c0.6,4.2,2.8,7.3,6.7,9.4c8,4.5,16.5,5.6,25.5,4.4
		c1.2-0.2,2.4-0.5,3.6-0.6C658.6,811.8,661.6,815.5,660.3,819.9z"/>
	<path class="st1" d="M819.5,975c-0.1,2.3-1.4,3.7-3.8,3.9c-1,0.1-2,0.1-3.1,0.1c-25.4,0.3-50.8,1-76.2,1.3
		c-19.9,0.3-39.7,0.9-59.6,1.6c-24.2,0.8-48.4,0.4-72.5,0.6c-12.5,0.1-25-0.1-37.5-0.6c-35.9-1.4-71.7-1.7-107.6-2.3
		c-9.8-0.2-19.7-0.6-29.5-0.7c-5.4-0.1-6.1-0.8-6.2-5.9c-0.1-2.4-0.1-4.8,0-7.2c0.2-5.3,1-6.1,6.7-6.2c8.6-0.1,17.2,0,25.8,0
		c24,0.1,48,1,71.9,1.7c21.9,0.7,43.9,0.4,65.8,0.9c7.2,0.2,14.3,0,21.5,0.8c4.9,0.5,9.8,0.4,14.7-0.3c3-0.4,6.1-0.4,9.2-0.5
		c18.7-0.1,37.3,0.1,56-0.4c19.9-0.5,39.8-0.5,59.6-1.4c18.9-0.9,37.7-0.7,56.6-0.9c1.4,0,2.9,0,4.3,0.1c2.4,0.1,3.8,1.4,3.9,3.8
		C819.6,967.4,819.6,971.2,819.5,975z"/>
	<path class="st2" d="M938,487.2c-2.1,6-3.5,12-11.4,14.3c-16.8,4.7-33.7,8.5-50.9,11.6c-14,2.5-28,3.6-42.1,4.8
		c-4.6,0.4-4.9,0.8-5.7,5.4c-2.6,14.6-4.8,29.2-8,43.7c-2.2,10-3.3,20.1-4.3,30.3c-0.4,4.2,0.3,4.7,4.4,3.4
		c16.4-5.1,32.6-10.9,47.9-18.8c5.6-2.9,11.4-5.4,17.5-7.7c-2.5,4.1-6,7.1-9.5,10.2c-2.5,2.1-5.2,4-7.6,6.1
		c-9.2,8.2-19.8,14.1-31.5,18.4c-14.6,5.3-29.3,10.4-44,15.3c-18.3,6.2-36.9,10.7-55.7,14.9c-19.6,4.3-39.4,7.8-59.3,10.4
		c-8.1,1-16.3,1.4-24.5,1.5c-21.3,0.2-42.7,0.3-64,0c-13.9-0.2-27.8-1.6-41.6-4c-25.7-4.3-51.3-9-76.3-16.3
		c-20.2-5.9-40.4-12-59.9-20c-2.3-0.9-4.6-1.8-6.9-2.6c-18.8-6.7-32.9-19.7-46.7-33c0.3-0.4,0.6-0.8,0.8-1.2
		c6.9,3.4,14,6.6,20.8,10.1c13.7,7,28.2,11.8,42.8,16.6c4.8,1.6,5.8,0.7,5.3-4.3c-1.6-16.7-5.4-33.1-8.4-49.7
		c-1.4-7.7-3-15.3-3.7-23.1c-0.4-4.5-1.3-5.3-6.3-5.6c-20.5-1.2-40.7-4.2-60.8-8.4c-11.2-2.3-22.3-5.2-33.3-8.6
		c-4.4-1.4-10.3-9.7-9.9-13.9c0.2-1.9,1.5-2.3,3.1-1.9c2.8,0.6,5.6,1.3,8.3,2.1c20.7,6,42.1,8.4,63.4,11.9
		c22.4,3.7,44.9,3.8,67.5,3.2c16.2-0.4,32.3-2.9,48-6.8c27.8-6.9,55.9-12.6,84.2-17.5c12.1-2.1,24.3-3.8,36.6-4.4
		c15.5-0.7,30.7,1.8,45.8,4.2c31.8,5,63.2,12,94.4,19.5c14.2,3.4,28.7,4.6,43.3,5c15.4,0.4,30.8,0.3,46.1-1.1
		c6.9-0.6,13.8-1.6,20.7-2.7c22.2-3.6,44.6-6.6,66.2-13.2c0.8-0.2,1.6-0.5,2.4-0.6C937.3,484.6,938.6,485.4,938,487.2z"/>
	<path class="st2" d="M317.6,144.3c-0.1,16.4-6.2,23.5-18.8,26.6c-9.7,2.4-18.8,0.2-27.8-2.3c-13.5-3.8-25.8-10.4-37.3-18.1
		c-19.7-13.2-37.5-28.5-51.7-47.4c-8.5-11.4-15.1-23.8-17.9-37.8c-0.2-1.2-0.4-2.4-0.5-3.6C162.1,44,172.4,33,190.7,33
		c9.8,0,19.1,2.3,28,6c14.5,5.9,27.5,14.2,39.8,23.6c10.8,8.3,20.5,17.7,30,27.4c7.5,7.6,13.9,15.7,19.1,24.8
		C313.5,125.1,317.4,136,317.6,144.3z"/>
	<path class="st1" d="M1091.6,791.8c-6.4,0.4-12.8-1.6-18.9-4.5c-3.9-1.9-3.9-1.8-6,1.6c-1,1.7-2,3.5-3.3,5.1
		c-5.6,7.5-12.4,13.3-22.4,14.4c-4.2,0.5-4.5,1-3.1,4.4c7.4,18.1-2.9,42.5-20.8,52.3c-18.6,10.1-36.8,9.3-54.4-2.6
		c-4.1-2.8-4.1-3-8.4-0.3c-4.8,3.1-9.6,2.8-14.7,0.9c-4.9-1.8-5-1.8-7.9,2.4c-1.6,2.3-3.3,4.5-5.3,6.6c-10.4,10.4-22.8,12-35.6,4.3
		c-3.1-1.9-5.6-2.9-9.5-0.9c-5.8,3.1-14.9,0.4-18.9-4.6c-2.6-3.3-2.4-5.5,1.1-8c1.8-1.3,3.6-2.4,3.9-4.9c0.9-7.6,6.4-11.2,13.1-13.5
		c1.3-0.5,2.8-0.7,4.2-0.9c5.6-0.9,5.8-0.8,6.8-6.4c1-5.7,4.2-9.3,9.3-11.8c5.2-2.5,10.7-4.3,16.5-4.3c3.4,0,4.5-1.3,4.2-4.2
		c0-0.2,0-0.4,0-0.6c-2.2-26.2,28-44.5,49.8-41c1.2,0.2,2.4,0.5,3.6,0.5c1.9,0.1,2.6-0.8,2.3-2.6c-0.1-0.6-0.3-1.2-0.5-1.7
		c-6.1-21.7,0.7-40.6,13.7-58c5.1-6.8,11.3-12.6,18.2-17.7c10.4-7.7,22-12.5,34.9-13.8c13.6-1.4,26.6,1,38.2,8.5
		c0.9,0.6,1.7,1.2,2.5,1.7c3.1,2,3.5,2,4.7-1.3c3.4-9.5,10.7-14.9,20-18c1.7-0.6,3.6-0.9,5.4-1.2c7.2-1.1,13.6,0.3,18.2,6.2
		c2.5,3.2,5.1,3.9,9,2.5c5.6-1.9,11.3-2.2,16.6,0.9c7.4,4.3,8.7,10.4,3.4,16.9c-1.5,1.8-2,3.4-0.9,5.4c6.7,12-1.4,24.4-14.6,28.3
		c-2.2,0.6-4.4,1-6.6,1.4c-2.5,0.4-3,1.6-2.2,3.8c1.7,5.2,2.3,10.4,1.4,15.9C1135,776.8,1117.5,791.6,1091.6,791.8z M870.5,869.8
		c6.3,2.6,7.2,2.4,10.5-2.3c3.3-4.7,4.8-4.8,9.1-0.7c1.5,1.4,2.9,2.9,4.6,3.9c15.8,10.2,28-0.8,32.9-13.7c0.3-0.9,0.1-2,0-3
		c-0.3-4.5,0.4-6.2,3-6.8c2.6-0.6,4.2,0.5,6.2,4.5c0.1,0.2,0.1,0.4,0.2,0.6c2.8,5.3,9.5,6.3,13.7,1.8c1.6-1.8,2.8-3.9,4.3-5.8
		c2.7-3.4,5.5-3.3,7.6,0.4c1.2,2.1,1.8,4.5,3.9,6c4.5,3.2,9.3,6,14.8,7.2c24.9,5.1,48.3-11.9,48.7-37.6c0.1-4-1.1-7.5-3.3-10.7
		c-1.2-1.8-2.6-3.7-3.4-5.7c-1.9-4.5,0-7.5,5-7.8c2.7-0.2,5.3-0.1,8,0c9.7,0.4,16.3-4.2,20.9-12.1c1.6-2.8,2-5.4,0.5-8.5
		c-2.1-4.3-1.4-6.5,2-8.8c2.7-1.9,4.2-1.8,7.8,1.9c4.5,4.6,10,7.1,16.1,8c9.4,1.4,18.5-0.1,26.8-4.5c6-3.2,11-7.8,13.7-14.1
		c4.6-10.9,5.5-21.6-3-31.5c-2.3-2.7-0.6-6.1,3-6.7c1.2-0.2,2.4,0.1,3.7,0.2c7.3,0.8,14.3-0.8,21.1-3.2c3.7-1.3,5.4-4,5.7-7.8
		c0.3-3.7-0.4-6.8-3.9-8.8c-0.9-0.5-1.8-0.9-2.6-1.6c-2.9-2.3-2.6-4.9,0.8-6.5c1.3-0.6,2.8-0.8,4-1.5c1.7-0.9,2.7-2.5,2.3-4.5
		c-0.4-1.8-1.9-2.5-3.6-2.7c-4.5-0.5-8.5,0.5-12.2,3.1c-2,1.4-3.9,3-6.1,4c-3.4,1.6-6.2-0.2-6.4-3.9c-0.1-1,0.3-2,0.2-3
		c-0.2-5.7-3.9-9.3-9.8-9.3c-2.7,0-5.4,0.3-7.8,1.3c-9.5,3.8-16.2,12.2-14.6,24.3c0.2,1.4,0.7,2.9-0.6,3.9c-1.6,1.1-3.3,0.2-4.5-0.8
		c-2.5-2-5-4.2-7.2-6.5c-4.6-5-10.5-7.8-17-9c-8.3-1.5-16.9-1.9-25.1,0c-22.1,5.3-38.6,18.2-49,37.9c-9.2,17.3-9.3,34.5,2.8,50.9
		c1.2,1.6,2.3,3.3,3.3,5c0.7,1.2,1.5,2.4,2,3.7c0.7,1.9,0.1,3.6-1.4,4.9c-1.6,1.4-3.4,1.4-5.1,0.4c-1.6-0.9-3-2.1-4.5-3.2
		c-7.2-5.4-15.1-8.6-24.4-8.1c-9.1,0.5-16.5,4.3-23.4,9.6c-8.9,6.8-11.3,15.8-9.8,26.2c0.5,3.2,2,6.1,5.3,7.7c1,0.5,2.6,0.7,2.5,2.2
		c-0.1,1.9-1.8,2.5-3.3,3.1c-4.3,1.6-8.4,1.2-12.4-0.9c-6-3.1-11.9-2.1-17.6,0.9c-6,3.2-7.3,7.5-3.9,13.5c1.1,2,2.3,3.9,0.7,6.1
		c-1.8,2.5-4.2,2-6.6,1.1c-3.8-1.3-7.7-1.5-11.5-1c-5.7,0.8-7.9,4.4-6.2,9.5c1.5,4.5,0.5,6.2-4.2,7.2
		C872.7,868.8,871.6,868.5,870.5,869.8z"/>
	<path class="st1" d="M1066.4,613.7c2.5-0.1,5,0.1,7.2,1.2c2.6,1.2,4.5,0.5,6.7-1.2c6.7-5.2,14.5-7.1,23-7
		c12.2,0.1,20.1,15.6,15.3,23.5c-1.8,2.9-1.8,5.5,0.4,8.3c0.9,1.1,1.4,2.4,2,3.7c4.3,9.8-0.6,18.9-11.4,19.6
		c-7.2,0.5-14.2-0.1-20.5,4.7c-3.2,2.4-7.7,1.4-10.8-1.4c-2.7-2.5-5.1-2.5-8.4-1.4c-5,1.6-10.2,1.7-15-0.5
		c-8.9-4.2-11.9-14.8-6.3-23.6c2-3.1,2.7-5.6,1.5-9.3c-1.9-6.1,0.6-10.8,6.3-14.1C1059.5,614.4,1062.8,613.7,1066.4,613.7z
		 M1106.1,655.2c3.7,0.1,8.2-2.5,9.2-5.6c1-2.9-1.4-7.6-4.9-9.5c-0.5-0.3-1.2-0.4-1.7-0.7c-3.7-2-3.9-3.4-1-6.3
		c0.6-0.6,1.3-1,1.8-1.6c2.4-3,3.6-6.4,2.2-10.1c-1.4-3.7-3.9-6.8-8.2-7.3c-8.9-1-17.2,0.2-23.3,7.6c-2.9,3.6-3.5,3.4-6.8,0.6
		c-4.8-4.2-10.1-4-14.6,0.5c-2.9,2.9-2.9,5.2,0.1,8.2c5.5,5.4,5.5,5.4-0.9,9c-0.4,0.2-0.7,0.4-1.1,0.6c-3,2.1-4.7,6.8-3.8,10.1
		c1.1,4,3.9,6.2,8.6,6.4c4.9,0.2,9.2-1.2,13.3-3.8c3.5-2.3,4.4-1.8,5.4,2c1.4,5.5,4.3,7,8.4,3.2c4.4-4.1,9.1-4.8,14.6-3.7
		C1104.3,655.1,1105.1,655.1,1106.1,655.2z"/>
	<path class="st2" d="M350.8,181.7c1,10.9-9.5,22.1-21.6,22.6c-12.7,0.5-22.6-11.3-19.9-23.1c0.9-3.7,2.5-7.2,4.7-10.4
		c5.3-7.8,14-10.9,23-8.2C345.4,165.1,350.8,172.5,350.8,181.7z"/>
	<path class="st1" d="M1163.1,623.3c0,2.1-0.7,4-2.7,5.1c-2.7,1.4-4.4,3.4-5.5,6.1c-1.4,3.4-4.6,4.5-8.1,4.4
		c-3.5-0.1-6.2-1.9-7.7-5.1c-0.3-0.5-0.4-1.1-0.6-1.7c-0.8-3.5-4.1-6.9-1.3-10.8c3.3-4.4,8-7,13.3-8
		C1157,612,1163.3,617.3,1163.1,623.3z M1146.2,631.8c1.5-0.1,2.8-0.7,3.8-1.8c1.4-1.4,2.7-3,4.3-4.3c1.9-1.6,3.1-3.3,1.6-5.7
		c-1.4-2.1-3.6-2.7-5.9-2c-2.1,0.7-4.2,1.7-6.1,2.8c-3.6,2-3.7,3.1-0.5,5.8c1.3,1.1,1.7,2.1,1.5,3.6
		C1144.7,631.2,1145.2,631.7,1146.2,631.8z"/>
	<path class="st1" d="M653.9,812.1c-1.2,0.1-2.4,0.5-3.6,0.6c-9,1.2-17.5,0.1-25.5-4.4c-3.9-2.2-6.1-5.2-6.7-9.4
		c-0.9-6.5-0.2-12.7,4.1-18.2c1-1.3,1.9-2.6,2.7-4c1-1.7,1.4-3.4-0.3-4.9c-1.9-1.6-4-3.1-6.6-1.8c-1.2,0.6-2.3,1.6-3.3,2.6
		c-4.5,4.4-9.2,8.6-13,13.6c-8,10.7-9.9,22.2-4.2,34.4c5.8,12.3,15.7,19,27.7,19.4c14.5,0.1,24.1-5.4,31.9-14.3
		c1.5-1.7,2.6-3.6,3.2-5.8C661.6,815.5,658.6,811.8,653.9,812.1z M645.8,826c-7.7,6.4-20.2,7-29.9,1.5c-4.7-2.6-8.5-6.3-11.6-10.5
		c-3.2-4.4-4.4-9.4-3-14.8c1.6-6.5,4.5-12.2,10.1-17.2c1.6,2.8,0.3,4.7-0.2,6.5c-1.6,5.6-0.4,10.8,2.8,15.4
		c6.5,9.6,15.6,14.3,27.6,13.3c0.6,0,1.2-0.2,1.8-0.3c2.1-0.1,5-1.6,6,1C650.3,823.3,647.4,824.7,645.8,826z"/>
	<path class="st0" d="M539.2,403.5c-0.9,18.3-5.7,36-18,51.2c-6.2,7.7-17.4,14-30.5,10.3c-14.8-4.2-26.1-16.5-28.2-31.5
		c-1.6-11.7,1.2-22.6,5.4-33.3c3.2-8.2,7.3-16.1,12.7-23.2c5.8-7.6,13.2-12.7,22.3-16.2c7.5-2.9,22,1.3,26.7,9
		C535.9,380,538.9,391,539.2,403.5z"/>
	<path class="st0" d="M781.5,426.2c-0.3,18-10.9,36.6-32.8,39.5c-8.8,1.2-16.3-1.3-22.5-7.1c-9-8.3-14.5-18.9-17.9-30.3
		c-4.3-14.5-6-29.4-0.9-44.2c1.9-5.5,3.8-11,7.6-15.6c5.6-6.7,13.2-9.8,21.8-8.5c6.4,0.9,12.3,4.1,17.5,8.2
		c10.3,8.1,15.7,19.3,20.7,30.7C778.9,407.8,781.3,417.1,781.5,426.2z"/>
	<path class="st0" d="M444.2,322.3c0.2,1.4,0.5,2.8,0.6,4.2c0.2,3.8-1.6,6.6-4.7,7.5c-3,0.8-6.6-0.7-8.3-3.7
		c-2.1-3.6-2.8-7.5-2-11.6c2.9-15,9.7-27.8,21.9-37.8c9.3-7.6,19.5-13.2,31.7-14.7c8.7-1,16.2,1.5,22,8.1c1.4,1.5,2.4,3.3,2.7,5.3
		c0.4,2,0.5,4.1-1.3,5.5c-1.9,1.5-4,0.9-5.7-0.2c-13.2-8.1-25-4.6-36.2,3.9c-9.2,7-16.4,15.6-19.4,26.9c-0.3,1.2-0.7,2.3-0.9,3.5
		C444.3,320.4,444.3,321.4,444.2,322.3z"/>
	<path class="st0" d="M813.6,321.5c0.1,3.4-0.2,6.6-2.3,9.3c-2.2,2.9-5,4-8,3.1c-3-0.9-5.1-3.4-4.5-7c1.6-10.1-2.8-18.4-8.2-26.2
		c-6.5-9.4-15.6-15.8-26.7-19.3c-5.7-1.9-11.3-1.1-16.7,1.4c-1.9,0.8-3.7,1.8-5.5,2.7c-1.8,0.8-3.6,1.1-5.2-0.4
		c-1.5-1.4-1.8-3.1-1.3-5c1.1-3.8,3.4-6.9,6.6-9.1c5.6-3.8,11.7-5.6,18.6-4.6c10.5,1.4,19.6,5.7,27.8,12
		c11.4,8.8,19.8,19.6,23.9,33.4C813.1,315,813.7,318.3,813.6,321.5z"/>
</g>
</svg>
