<svg xmlns="http://www.w3.org/2000/svg" xml:space="preserve" x="0" y="0" version="1.1" viewBox="0 0 1280 1024"><path d="M1114.4 356.5c-10.5-22.8-26-41.6-48.1-54.7-24.8-14.8-51.8-19.4-80.4-15.7-16 2.1-31.1 7-45.6 13.9-5.5 2.6-6.3 2.3-9.2-2.7-9.3-16.3-20.1-31.6-32.7-45.6-15.3-17.1-32.4-32.3-51.3-45.4-16.2-11.3-33.5-20.9-51.6-29-23.8-10.6-48.3-18.9-73.8-24.4-8-1.7-16.1-3-24.2-4.6-3.7-.7-4-1.2-2.7-4.9.8-2.3 1.7-4.5 2.3-6.8 1.6-7.1-2-11.7-9.4-12.3-4.8-.4-9.3.4-13.7 2.6-4.6 2.3-5.1 2-5.8-2.9-.7-4.8-1.6-9.5-4.3-13.7-3.4-5.3-7.8-6.7-13.7-4.1-1.7.7-3.4 1.6-4.7 2.8-5.3 4.7-10.4 9.6-14.5 15.4-3.3 4.5-5.3 9.8-8.7 14.1-2-.4-2.4-2-3-3.1-3.1-6.1-7-11.7-11.4-17.1-3.7-4.6-7.8-8.8-13.1-11.6-6.6-3.5-11.8-1.9-15.3 4.6-2.1 3.9-3.4 8.1-3.7 12.6-.4 5-1.5 5.6-6.1 3.1-4.5-2.4-9.3-3.1-14.3-2.6-5.8.6-9.1 4.4-8.9 10.2.1 2.8 1.1 5.5 2 8.1 1.7 4.6 1.6 4.9-3.4 5.9-9.4 1.8-19 3.2-28.4 5.5-32.9 8.1-64.6 19.5-94.1 36.1-22.3 12.6-42.9 27.4-61.4 44.9-19.4 18.4-35.7 39.1-48.7 62.3-2.9 5.3-3.5 5.4-9.1 2.8-14.5-6.7-29.6-11.7-45.7-13.7-31.8-4-61.2 2-87.6 20.2-12.2 8.4-22.3 18.9-30.4 31-11.8 17.6-19.1 37.1-22.5 57.9-2.6 15.9-2.8 32-1.1 47.9 3.3 30.5 13.5 58.8 29.9 85 19 30.3 43.7 55 76.2 71.4 6.5 3.3 11.9 6.6 14.1 13.7.9 3 4 5 4.6 8.5-1.5.4-2.7.6-3.8.9-9.1 2.6-12.6 9.5-9.2 18.2 1.8 4.5 4.2 8.6 8.1 11.8 4 3.2 3.9 3.3-.7 6-6.1 3.7-8.4 8.9-7.1 15.8 1.7 9 7.7 14.3 16 17.5 12.8 4.9 25.8 4.3 38.5-.2 7.4-2.6 13.2-.7 18.4 4.2 3.2 3 6.9 5.1 11 6.5 7.1 2.5 14.4 3.5 21.7.9 5.3-1.9 10.3-1.8 15.4.9 3.2 1.7 6.9 2.5 10.4 3.6 11.6 3.5 23.5 5.5 35.6 6.4 12.5.9 25 1.1 37.4-.2 9.8-1 19.3-3.5 28.8-6.1 18.4-4.9 36.5-10.9 53.4-19.7 1.3-.7 2.6-2 4.4-1.1 0 .4.2.9.1 1.2-5.1 7.8-10.2 15.5-14.7 23.6-1.1 1.9-2.9 2.7-5.1 2.8-6.1.3-12.3.5-18.4 1.2-10 1-20.1.8-30.1 1.6-11.7.8-23.3 1.8-35 1.9-19.9.1-39.8-.1-59.7 1.1-7.1.4-11.2 4.7-10.5 11.8.2 2.8 1.1 5.5 1.9 8.2 2.9 10 5.9 20 8.8 30 8.8 31.2 18.1 62.3 27.8 93.3 2.6 8.4 5 16.9 7.3 25.4 1.1 4.3.3 5.3-4.1 6.3-1 .2-2 .2-3.1.4-7.5 1.5-15.1.8-22.7 1.2-5.8.3-8.5 2.9-8.2 8.3.5 8.6 1.5 17.1 2.3 25.7.4 3.7 2.1 6.8 5 9.4 6.6 5.7 13.1 11.4 19.7 17.2 8.9 7.7 17.8 15.4 26.6 23.2 3.6 3.2 7.4 5.3 12.6 5.4 21.1.6 42.2 1.7 63.3 2.1 31.6.6 63.2.6 94.7 1.2 36.1.7 72.2.7 108.3-.6 29.7-1.1 59.5-.2 89.2-1.2 16-.6 32-1.6 48-1.5 4.3 0 7.9-1.3 11.2-4.1 16.2-14.1 32.6-28.1 48.8-42.1 1.7-1.5 3.1-3.3 3.6-5.5 2.3-9.8 2-19.9 2.8-29.8.4-4.6-2.4-6.9-7.1-7.4-3.2-.3-6.6-.2-9.8-.2-6 0-11.9-.8-17.7-1.8-4.1-.7-4.5-1.5-3.5-5.3.9-3.5 2.3-6.8 3.3-10.3 6.1-20.3 12.2-40.7 18.2-61.1 7.9-26.9 15.7-53.9 23.5-80.8 1-3.5 1.4-7.1.2-10.6-1.5-4.8-4.4-7.5-9.4-7-7.2.8-14.3-.5-21.5-.6-24.8-.1-49.6-.2-74.4-2-15.5-1.1-31.1-2.4-46.6-2.7-3.5-.1-5.8-1.5-7.2-4.6-3-6.6-7.2-12.5-11.3-18.5-1-1.4-2.4-2.7-2.4-4.6 1.5-.7 2.5.2 3.5.7 14.3 7.6 29.7 12.6 45.1 17.5 20.4 6.5 41.2 10.4 62.8 9.7 21.3-.7 42.1-3.7 61.8-11.8 3.4-1.4 6.6-1.7 10.1-.5 6.7 2.4 13.6 2.6 20.5.8 5.1-1.3 9.5-3.4 13.5-6.8 5.7-4.9 11.9-8.3 20-4.7 4.5 2 9.4 2.8 14.4 3.1 11.1.9 21.7-.9 31.1-7.1 10-6.6 13.6-24.5-.7-30.6-.7-.3-1.5-.8-1.5-1.8.4-1.6 2.1-2.3 3.2-3.4 3.9-3.6 7.2-7.7 8.4-13 2-8.6-1.7-14.5-10.4-16.7-1.2-.3-2.5 0-3.9-1.4 3.4-4.4 6.5-8.6 8.1-13.6.8-2.3 2.5-3.6 4.6-4.5 14.5-6.3 27.4-15.1 39.7-24.9 7.5-6 14.4-12.6 20.6-19.7 11.8-13.4 22-27.8 30.2-43.6 13.1-25.3 21.3-52.1 23.1-80.3 2-27.6-2.2-53.8-13.7-78.6zm-756.2-36c7.5-11.3 17-20.9 27.9-29.3 21.3-16.4 45-27.9 71.5-33.2 30.8-6.2 60.7-4 89 10.9 25.7 13.5 44.8 33.2 58.4 58.2 3.9 7.1 6.8 14.5 9.4 22.1.2.6.4 1.1.6 1.7 1.1 3.3 2.9 6 6.8 6 3.8 0 5.6-2.7 6.7-6 3.4-10.3 7.6-20.3 13.3-29.6 13.7-22.5 31.9-40.5 55.8-52.7 28.8-14.8 59-16.7 90.3-10.1 26.8 5.7 50.6 17.4 71.7 34.3 24.4 19.5 40.3 44.3 44.5 75 2.3 16.3.9 32.7-4.3 48.6-7.2 22.1-18.6 41.7-34.4 58.9-3.1 3.4-7 5.3-11.4 6.7-20.4 6.7-41.3 8.2-62.5 6.9-7.6-.5-15-2-22.5-3.5-.8-.2-1.7-.3-1.9-1.4.7-2 3-2.4 4.6-3.5 12.1-8.7 21-19.6 25-33.9.5-1.9.9-3.9 1-5.9.2-2.6.3-5.4-3.1-6.4-2.2-.6-4 1.1-4.9 5-.7 2.9-1.4 5.8-2.8 8.5-5 9.6-12.5 16.7-21.8 22.3-3.7 2.2-7.7 3.6-12.2 3.6-3.1 0-6.5.1-8.5 2.7-2.4 2.9-5 2.7-8.2 1.9-13.9-3.5-27.9-6.8-42.1-8.9-14.8-2.1-29.4-5.5-44.3-7.2-25.5-2.8-50.8-2.1-75.8 3.2-7.4 1.6-15 2.4-22.4 3.6-14.8 2.4-29.3 6-43.9 9.2-3.2.7-5.9 1.2-8.2-1.8-1.7-2.2-4.5-2.8-7.2-2.7-7.3.4-13.3-2.9-18.7-6.8-9.4-6.8-16.6-15.4-19.2-27-.1-.4-.1-.8-.2-1.2-1-3.3-2.7-4.9-4.9-4.3-3.1.9-2.9 3.3-2.9 5.8.3 9.7 4.8 17.7 10.2 25.3 5 7 11.1 12.9 18.9 16.8.7.4 1.5.8 1.7 2-1.5 1.6-3.9 1.7-6 2-5.4.9-10.9 2.1-16.4 2.4-15.3.7-30.8 1.5-45.9-1.9-7-1.6-13.9-3.6-20.8-5.4-3.3-.9-6-2.6-8.3-5-19.7-21.2-33.4-45.3-39-73.6-6.2-29.9.6-57.1 17.4-82.3zM234 589.9c-28.1-13.4-50.4-33.3-68.3-58-17.1-23.5-28.1-49.6-33.3-77.9-3-16.6.4-32.2 8.2-47 8.1-15.2 19.9-26.8 35.4-34.7 9-4.6 18.5-7.6 28.6-8.9 26.7-3.4 50.6 4.4 73.1 17.6 3.9 2.3 5.6 5.5 5.3 10-.3 5.2-.1 10.4-.3 15.6-.6 20.3 2.3 40.2 7.6 59.9 6.7 24.9 15.7 48.8 28.6 71.3 5.4 9.5 12.2 18 18.9 26.6 1.2 1.6 2.7 2.9 3.4 4.7-1.3 1-2.3.4-3.2.1-6.8-2.2-12 .2-16.3 5.3-2.1 2.5-3.7 5.3-5 8.2-.9 2-1.1 4.3-3.2 5.9-2.2-1-2.9-3.2-4-5-5.5-9.2-13-16.4-22.1-22.1-7.1-4.5-14.4-4.7-19.5-.6-2.8 2.3-4.6 5-4.8 8.7-.2 6.1-.1 12 2.9 17.5.5.9 1 1.8.7 2.9-1.6 1.1-3.1-.2-4.6-.5-6.5-1.1-13.1-1.5-19.3 1.1-3.3 1.2-5.8.8-8.8-.7zm110 8.9c-1 5.1-2.2 10.2-3.8 15.1-.7 2.1-1.6 4.1-3.4 5.6-4 3.2-5.2 7.4-5.2 12.3s-.4 5.1-5.4 4c-9.7-2-17.3.8-22.4 8.2-4.9 7.1-4.3 13.7 1.8 20.1 1.7 1.7 3.6 3.2 6.2 5.4-4.4 2.4-8.1 4.5-10.3 8.3-.8 1.3-2.4 1.8-3.8 1.1-2.9-1.6-5.5-.5-8.3.5-8.2 2.8-16.7 4.2-25.2 5-7.7.7-15-1.7-21.7-5.6-3-1.7-5-4.3-4.7-7.9.3-3.3 2.9-4.7 5.7-5.7 5.8-2.2 11.7-3.5 18-2.2 6.9 1.4 13.8 1.8 20.8 1.6 1.4-.1 2.9-.1 4.3-.3 2-.4 3.4-1.5 3.6-3.6.3-2-.7-3.5-2.4-4.5-1.8-1.1-3.9-1.3-5.9-1.3-10.9-.2-21.6-2-32.1-4.9-5.8-1.6-10.3-4.9-13.9-9.4-1.8-2.3-2.9-5-1.3-7.8 1.5-2.6 4.3-3.1 7-2.8 7.9 1 15.9 2.1 22.9 6.2 5.9 3.4 12.3 5.5 18.5 8 1.3.5 2.7 1 4.2.7 1.8-.3 3-1.3 3.5-2.9.5-1.7-.1-3.2-1.7-4.1-1.4-.8-2.9-1.4-4.5-1.9-12.1-4.2-23.4-9.7-33.2-17.8-3-2.5-5.6-5.3-7.5-8.7-1.8-3.3-1.3-6.1 1.7-8.6 3.6-3 7.7-4.3 12.6-2.7 8.9 2.8 15.9 8.1 21.7 15.1 3.7 4.5 7.6 8.9 10.8 13.8 1.3 2 2.8 4.5 5.8 3.1 3.1-1.4 2.8-4.2 2.1-6.8-1.2-4.7-3.2-9.1-6.2-13-5.7-7.4-10.3-15.4-15.1-23.3-2.1-3.5-3.8-7.1-4.1-11.2-.5-6 3.2-8.7 8.9-6.6 4.6 1.7 8 4.9 10.6 8.8 7.9 11.7 15.6 23.5 20.4 36.8.9 2.5 1.7 6.1 5.4 5.4 3.9-.7 2.7-4.4 2.7-7 .1-9.2.1-18.4 4.5-26.9 1-2 2.2-3.9 3.7-5.5 3.9-4.1 8.9-3.5 11.5 1.6 2.8 5.1 4.2 10.5 3.2 16.3zm148.6 67.4c-17 3.1-34.1 4.8-51.3 4-20.4-.9-40.1-5.4-58.8-13.6-4.5-2-4.4-2.1-3.8-6.8.6-4.2.9-8.4-.2-12.5-1.7-6.3-4.7-8.4-11.5-7.8-1.9.2-3.1 0-4-1.8-1.8-3.7-4.7-6.6-8.2-8.8-2.2-1.4-2.8-3.2-2.2-5.6.9-3.7 1.4-7.5 1.8-11.2.7-6.9 6.3-9.3 12.1-5.3 14 9.5 28.5 18.1 43.7 25.5 21.9 10.8 43.4 22.4 66.7 30.3 7.9 2.7 16 5 24 7.6 1.5.5 3.3.2 4.4 2.4-4 2.3-8.4 2.8-12.7 3.6zm-98 242.1c1.8.1 3.1 1.1 3.6 2.8 2.9 9.5 5.9 19 8.8 28.5-.5.3-1 .6-1.5.8-11-9.8-21.9-19.5-34-30.3 8.7-1.2 15.9-2.3 23.1-1.8zm14.3 59.2c-1.6.7-2.8-.4-3.8-1.3-11-9-21.9-18-32.9-26.9-5.9-4.8-4.4-11.3-5.5-17.2l1.5-.6c3.7 3.1 7.5 6.1 11.1 9.4 8.4 7.8 17 15.5 25.8 22.9 3.7 3.2 4.7 6.9 3.8 13.7zm410.6 7.5c-.1 2.3-1.4 3.7-3.8 3.9-1 .1-2 .1-3.1.1-25.4.3-50.8 1-76.2 1.3-19.9.3-39.7.9-59.6 1.6-24.2.8-48.4.4-72.5.6-12.5.1-25-.1-37.5-.6-35.9-1.4-71.7-1.7-107.6-2.3-9.8-.2-19.7-.6-29.5-.7-5.4-.1-6.1-.8-6.2-5.9-.1-2.4-.1-4.8 0-7.2.2-5.3 1-6.1 6.7-6.2 8.6-.1 17.2 0 25.8 0 24 .1 48 1 71.9 1.7 21.9.7 43.9.4 65.8.9 7.2.2 14.3 0 21.5.8 4.9.5 9.8.4 14.7-.3 3-.4 6.1-.4 9.2-.5 18.7-.1 37.3.1 56-.4 19.9-.5 39.8-.5 59.6-1.4 18.9-.9 37.7-.7 56.6-.9 1.4 0 2.9 0 4.3.1 2.4.1 3.8 1.4 3.9 3.8.1 4 .1 7.8 0 11.6zm56.6-53.4c1.7 7-.3 13.6-5.5 17.9-10.5 8.8-20.8 18-31.8 26.3-.9.7-1.7 1.7-3.9 1.9-1.1-5.9-.3-10.6 4.5-14.7 10.9-9.4 21.4-19.1 32.1-28.6 1.3-1.2 2.6-2.6 4.6-2.8zm-7.8-12.1c.9 0 1.5.5 1.7 1.5-.1 1.3-1.2 2-2.1 2.7-6.3 5.1-11.7 11.2-18.1 16.1-3.3 2.6-6.2 5.7-9.4 8.6-.8.7-1.7 1.3-2.7.6-.8-.5-.7-1.5-.5-2.2 2.6-8.6 5.2-17.2 7.9-25.7.6-1.9 2.1-2.8 4.2-2.9 6.5-.3 12.7 1.1 19 1.3zm-119-178.6c32 .5 64 .4 95.9 1.1 10.9.2 21.7.6 32.6.8.8 0 1.6 0 2.5.1 3.9.4 4.8 1.4 3.7 5-1.6 5.4-3.4 10.7-5.1 16-8.3 26.2-16.6 52.3-24.8 78.5-7.5 24.1-14.7 48.3-22.1 72.4-3.2 10.3-6.4 20.7-9.6 31-2.2 7-2.1 7-9.8 7h-59.1v.1h-38.1c-26.2 0-52.5.9-78.7 1.4-26.4.6-52.9-.3-79.2-.8-41.4-.9-82.8-.7-124.2-.8-9.9 0-9.9.1-12.7-9.1-13.7-44.6-27.2-89.3-41-133.9-6.1-19.7-12.5-39.3-18.8-59-.3-.9-.7-1.9-1-2.8-1.2-4.3-.8-4.9 3.7-5.2h1.8c34.4-1 68.9-.7 103.3-1.4 26.2-.5 52.5-.4 78.7-1.3 15.2-.6 30.3-.5 45.5-1 9-.3 18-1.3 27-1.4 8-.1 15.9.6 23.9 1 1.8.1 3.7.5 5.5.5 33.3 0 66.7 1.3 100.1 1.8zm-179.2-21.5c1.9-11.9 6.6-22.6 13.9-32.3 1.8-2.4 4.1-2.9 6.9-2.9 12.7.1 25.4 0 38.1 0 7.6 0 15.2.2 22.7 0 3.9-.1 6.6 1.2 8.8 4.3 6.1 8.5 10.2 17.8 12.1 27.9.2 1 .3 2 .4 3 .5 6.7-.5 7.6-7.4 7.6h-88.4c-7 0-8.1-1.1-7.1-7.6zM889 618.6c-3.6 2.1-6.4 5.1-8.3 8.7-1.2 2.2-2.7 2.3-5 2-5.7-.7-8.5 1.2-10.3 6.3-1.5 4.4-2 8.9-.8 13.6 1.3 5.2 1.1 5.1-3.9 7.7-4.9 2.5-10.3 4.1-15.5 5.7-19.3 5.9-39.1 8.7-59.4 7.7-15.6-.8-31-3.1-46.2-6.5-.6-.1-1.1-.5-2-1 1.5-2 3.5-2.1 5.2-2.6 20.6-5.7 40.4-13.2 59.5-22.6 20.8-10.3 42.1-19.9 61.6-32.5 4.3-2.7 8.6-5.4 12.9-8.2 5.7-3.6 11.7-1.2 12.6 5.3.5 4.2.6 8.4 1.6 12.5.4 1.7-.4 3-2 3.9zM875.8 513c-14 2.5-28 3.6-42.1 4.8-4.6.4-4.9.8-5.7 5.4-2.6 14.6-4.8 29.2-8 43.7-2.2 10-3.3 20.1-4.3 30.3-.4 4.2.3 4.7 4.4 3.4 16.4-5.1 32.6-10.9 47.9-18.8 5.6-2.9 11.4-5.4 17.5-7.7-2.5 4.1-6 7.1-9.5 10.2-2.5 2.1-5.2 4-7.6 6.1-9.2 8.2-19.8 14.1-31.5 18.4-14.6 5.3-29.3 10.4-44 15.3-18.3 6.2-36.9 10.7-55.7 14.9-19.6 4.3-39.4 7.8-59.3 10.4-8.1 1-16.3 1.4-24.5 1.5-21.3.2-42.7.3-64 0-13.9-.2-27.8-1.6-41.6-4-25.7-4.3-51.3-9-76.3-16.3-20.2-5.9-40.4-12-59.9-20-2.3-.9-4.6-1.8-6.9-2.6-18.8-6.7-32.9-19.7-46.7-33 .3-.4.6-.8.8-1.2 6.9 3.4 14 6.6 20.8 10.1 13.7 7 28.2 11.8 42.8 16.6 4.8 1.6 5.8.7 5.3-4.3-1.6-16.7-5.4-33.1-8.4-49.7-1.4-7.7-3-15.3-3.7-23.1-.4-4.5-1.3-5.3-6.3-5.6-20.5-1.2-40.7-4.2-60.8-8.4-11.2-2.3-22.3-5.2-33.3-8.6-4.4-1.4-10.3-9.7-9.9-13.9.2-1.9 1.5-2.3 3.1-1.9 2.8.6 5.6 1.3 8.3 2.1 20.7 6 42.1 8.4 63.4 11.9 22.4 3.7 44.9 3.8 67.5 3.2 16.2-.4 32.3-2.9 48-6.8 27.8-6.9 55.9-12.6 84.2-17.5 12.1-2.1 24.3-3.8 36.6-4.4 15.5-.7 30.7 1.8 45.8 4.2 31.8 5 63.2 12 94.4 19.5 14.2 3.4 28.7 4.6 43.3 5 15.4.4 30.8.3 46.1-1.1 6.9-.6 13.8-1.6 20.7-2.7 22.2-3.6 44.6-6.6 66.2-13.2.8-.2 1.6-.5 2.4-.6 1.8-.2 3.1.6 2.5 2.4-2.1 6-3.5 12-11.4 14.3-16.5 4.9-33.5 8.6-50.6 11.7zM1009 633c2 3.6-.4 6.7-2.7 9.2-3.3 3.7-7.6 6.1-12.4 7.5-10.3 3-20.6 5.2-31.4 5.1-2 0-4.1 0-6 .9-2.1 1.1-3.9 2.5-3.4 5.1.5 2.3 2.3 3.3 4.5 3.5 6.1.4 12.3.6 18.4-.5 6.1-1.1 12.1-2 18.3-.5 2.2.5 4.4 1 6.4 2.1 5.9 3.1 6.6 8.7 1.1 12.3-7.3 4.9-15.4 7.6-24.4 6.4-8.3-1.1-16.6-2.7-24.6-5.2-2.2-.7-4.3-1.3-6.6-.2s-3.8.1-5.2-1.8c-1.1-1.4-2.4-2.8-3.8-3.9-4.6-3.9-4.7-3.8-.2-8.4 6.5-6.6 7.5-12 3.7-18.9-4.3-7.7-13-12-20.9-10.7-2.3.4-4.9 2.6-6.9 1s-.7-4.5-1-6.9c-.5-3.5-1.7-6.7-4.4-9.1-2.9-2.6-4.2-5.8-5.2-9.3-1.6-6-3.1-12-2.8-18.3.2-3.3.9-6.3 2.4-9.2 3.2-6.1 8.8-6.7 13.1-1.1 3.9 5.1 5.7 11 6.4 17.3.3 2.8.1 5.6.1 8.4h.2v8.4c0 1.8.3 3.7 2.6 4.3 2.2.5 3.6-.8 4.6-2.3.9-1.3 1.5-2.8 2.1-4.3 4.5-13 12.1-24.4 19.9-35.7 2.6-3.7 5.9-6.7 10.2-8.5 2.5-1 5.1-1.9 7.5.2 2.2 1.9 2.5 4.5 1.9 7.2-.9 4.1-3 7.8-5.1 11.5-4.4 7.7-9.4 15-14.5 22.3-2.6 3.7-4.4 7.7-5.7 11.9-.3.9-.6 1.9-.7 2.9-.2 2 .6 3.6 2.4 4.5 2.1 1 3.6-.1 4.8-1.6 1.5-1.9 3-3.8 4.4-5.8 4.6-6.4 10.1-12.1 15.9-17.5 4.3-4 9.5-6.2 15.2-7.5.8-.2 1.6-.4 2.4-.3 4.3.2 8.3 1.6 10.2 5.5 1.9 3.7.1 7-2.5 9.9-7.5 8.5-17 14.3-27.5 18.8-4.3 1.9-8.8 3.4-13.2 5.1-2.4.9-4.6 2.2-3.8 5.2.6 2.4 3.2 3.6 6.6 2.3 6.4-2.3 12.6-4.7 18.6-7.9 6.8-3.6 14.2-5.2 21.7-6.4 3.5-.5 7.3-.6 9.3 3zm98.8-164.4c-7.5 29.5-21.9 55.6-42.1 78.5-15.9 18.1-34.5 33.1-56.9 43.1-2.3 1-4.3 1.9-7 .7-6.8-3.1-13.9-2.7-21.1-1.1-1.1.2-2.3 1.1-3.6.1-.8-2.1.8-3.7 1.5-5.5 1.8-4.8 2.8-9.6 2.1-14.7-1.2-8.8-8.5-13.6-17.4-11.3-4.6 1.2-8.8 3.4-12.4 6.5-6.5 5.6-12.8 11.3-16.9 18.9-.9 1.7-1.9 3.5-3.4 4.7-2.2-.2-2.2-1.8-2.7-3-1.4-3.3-3-6.6-5.1-9.6-4.6-6.7-10-8.7-18-6.4-.8.2-1.5.8-2.4.1.2-2.1 1.8-3.4 3-4.9 22.6-26.8 36.1-57.9 45.8-90.9 6.7-22.8 10.3-46.1 9.9-69.8-.1-4.2-.5-8.4-1-12.6-.5-4.2.9-7.2 4.6-9.6 13-8.3 27.1-14.3 42.3-17.1 12.6-2.4 25.1-2.9 37.8-.2 34.5 7.3 59.9 32.6 66.2 66.3 2.6 13-.1 25.4-3.2 37.8z" fill="#1e4065"/><path d="M870.5 939.6c-10.5 8.8-20.8 18-31.8 26.3-.9.7-1.7 1.7-3.9 1.9-1.1-5.9-.3-10.6 4.5-14.7 10.9-9.4 21.4-19.1 32.1-28.6 1.3-1.2 2.6-2.5 4.6-2.7 1.7 6.9-.3 13.4-5.5 17.8zm-461.6 27.9c-1.6.7-2.8-.4-3.8-1.3-11-9-21.9-18-32.9-26.9-5.9-4.8-4.4-11.3-5.5-17.2l1.5-.6c3.7 3.1 7.5 6.1 11.1 9.4 8.4 7.8 17 15.5 25.8 22.9 3.7 3.2 4.7 6.9 3.8 13.7zm471.3-234.6c-.8-.1-1.6-.1-2.5-.1-10.9-.2-21.7-.5-32.6-.8-32-.8-64-.7-95.9-1.1-33.4-.5-66.8-1.9-100.2-1.8-1.8 0-3.7-.4-5.5-.5-8-.4-15.9-1.1-23.9-1-9 .1-18 1.1-27 1.4-15.2.5-30.3.5-45.5 1-26.2 1-52.4.8-78.7 1.3-34.4.7-68.9.4-103.3 1.4h-1.8c-4.5.3-4.9.9-3.7 5.2.3 1 .7 1.9 1 2.8 6.3 19.7 12.7 39.3 18.8 59 13.8 44.6 27.3 89.3 41 133.9 2.8 9.2 2.8 9.1 12.7 9.1 41.4.1 82.8-.1 124.2.8 26.4.6 52.8 1.4 79.2.8 26.2-.5 52.5-1.4 78.7-1.4h38.1v-.1h59.1c7.7 0 7.7 0 9.8-7 3.2-10.3 6.4-20.7 9.6-31 7.4-24.1 14.6-48.3 22.1-72.4 8.2-26.2 16.5-52.3 24.8-78.5 1.7-5.3 3.6-10.6 5.1-16 1.2-3.6.4-4.6-3.6-5zm-219.9 87c-.6 2.1-1.7 4.1-3.2 5.8-7.8 8.9-17.4 14.3-31.9 14.3-12-.4-21.9-7.1-27.7-19.4-5.7-12.2-3.8-23.7 4.2-34.4 3.8-5 8.5-9.2 13-13.6 1-1 2.1-2 3.3-2.6 2.6-1.3 4.7.1 6.6 1.8 1.7 1.5 1.2 3.3.3 4.9-.8 1.4-1.7 2.8-2.7 4-4.3 5.4-5.1 11.6-4.1 18.2.6 4.2 2.8 7.3 6.7 9.4 8 4.5 16.5 5.6 25.5 4.4 1.2-.2 2.4-.5 3.6-.6 4.7-.3 7.7 3.4 6.4 7.8zM819.5 975c-.1 2.3-1.4 3.7-3.8 3.9-1 .1-2 .1-3.1.1-25.4.3-50.8 1-76.2 1.3-19.9.3-39.7.9-59.6 1.6-24.2.8-48.4.4-72.5.6-12.5.1-25-.1-37.5-.6-35.9-1.4-71.7-1.7-107.6-2.3-9.8-.2-19.7-.6-29.5-.7-5.4-.1-6.1-.8-6.2-5.9-.1-2.4-.1-4.8 0-7.2.2-5.3 1-6.1 6.7-6.2 8.6-.1 17.2 0 25.8 0 24 .1 48 1 71.9 1.7 21.9.7 43.9.4 65.8.9 7.2.2 14.3 0 21.5.8 4.9.5 9.8.4 14.7-.3 3-.4 6.1-.4 9.2-.5 18.7-.1 37.3.1 56-.4 19.9-.5 39.8-.5 59.6-1.4 18.9-.9 37.7-.7 56.6-.9 1.4 0 2.9 0 4.3.1 2.4.1 3.8 1.4 3.9 3.8.1 4 .1 7.8 0 11.6z" fill="#295378"/><path d="M938 487.2c-2.1 6-3.5 12-11.4 14.3-16.8 4.7-33.7 8.5-50.9 11.6-14 2.5-28 3.6-42.1 4.8-4.6.4-4.9.8-5.7 5.4-2.6 14.6-4.8 29.2-8 43.7-2.2 10-3.3 20.1-4.3 30.3-.4 4.2.3 4.7 4.4 3.4 16.4-5.1 32.6-10.9 47.9-18.8 5.6-2.9 11.4-5.4 17.5-7.7-2.5 4.1-6 7.1-9.5 10.2-2.5 2.1-5.2 4-7.6 6.1-9.2 8.2-19.8 14.1-31.5 18.4-14.6 5.3-29.3 10.4-44 15.3-18.3 6.2-36.9 10.7-55.7 14.9-19.6 4.3-39.4 7.8-59.3 10.4-8.1 1-16.3 1.4-24.5 1.5-21.3.2-42.7.3-64 0-13.9-.2-27.8-1.6-41.6-4-25.7-4.3-51.3-9-76.3-16.3-20.2-5.9-40.4-12-59.9-20-2.3-.9-4.6-1.8-6.9-2.6-18.8-6.7-32.9-19.7-46.7-33 .3-.4.6-.8.8-1.2 6.9 3.4 14 6.6 20.8 10.1 13.7 7 28.2 11.8 42.8 16.6 4.8 1.6 5.8.7 5.3-4.3-1.6-16.7-5.4-33.1-8.4-49.7-1.4-7.7-3-15.3-3.7-23.1-.4-4.5-1.3-5.3-6.3-5.6-20.5-1.2-40.7-4.2-60.8-8.4-11.2-2.3-22.3-5.2-33.3-8.6-4.4-1.4-10.3-9.7-9.9-13.9.2-1.9 1.5-2.3 3.1-1.9 2.8.6 5.6 1.3 8.3 2.1 20.7 6 42.1 8.4 63.4 11.9 22.4 3.7 44.9 3.8 67.5 3.2 16.2-.4 32.3-2.9 48-6.8 27.8-6.9 55.9-12.6 84.2-17.5 12.1-2.1 24.3-3.8 36.6-4.4 15.5-.7 30.7 1.8 45.8 4.2 31.8 5 63.2 12 94.4 19.5 14.2 3.4 28.7 4.6 43.3 5 15.4.4 30.8.3 46.1-1.1 6.9-.6 13.8-1.6 20.7-2.7 22.2-3.6 44.6-6.6 66.2-13.2.8-.2 1.6-.5 2.4-.6 2.1-.1 3.4.7 2.8 2.5zM317.6 144.3c-.1 16.4-6.2 23.5-18.8 26.6-9.7 2.4-18.8.2-27.8-2.3-13.5-3.8-25.8-10.4-37.3-18.1-19.7-13.2-37.5-28.5-51.7-47.4-8.5-11.4-15.1-23.8-17.9-37.8-.2-1.2-.4-2.4-.5-3.6C162.1 44 172.4 33 190.7 33c9.8 0 19.1 2.3 28 6 14.5 5.9 27.5 14.2 39.8 23.6 10.8 8.3 20.5 17.7 30 27.4 7.5 7.6 13.9 15.7 19.1 24.8 5.9 10.3 9.8 21.2 10 29.5z" fill="#c14663"/><path d="M1091.6 791.8c-6.4.4-12.8-1.6-18.9-4.5-3.9-1.9-3.9-1.8-6 1.6-1 1.7-2 3.5-3.3 5.1-5.6 7.5-12.4 13.3-22.4 14.4-4.2.5-4.5 1-3.1 4.4 7.4 18.1-2.9 42.5-20.8 52.3-18.6 10.1-36.8 9.3-54.4-2.6-4.1-2.8-4.1-3-8.4-.3-4.8 3.1-9.6 2.8-14.7.9-4.9-1.8-5-1.8-7.9 2.4-1.6 2.3-3.3 4.5-5.3 6.6-10.4 10.4-22.8 12-35.6 4.3-3.1-1.9-5.6-2.9-9.5-.9-5.8 3.1-14.9.4-18.9-4.6-2.6-3.3-2.4-5.5 1.1-8 1.8-1.3 3.6-2.4 3.9-4.9.9-7.6 6.4-11.2 13.1-13.5 1.3-.5 2.8-.7 4.2-.9 5.6-.9 5.8-.8 6.8-6.4 1-5.7 4.2-9.3 9.3-11.8 5.2-2.5 10.7-4.3 16.5-4.3 3.4 0 4.5-1.3 4.2-4.2v-.6c-2.2-26.2 28-44.5 49.8-41 1.2.2 2.4.5 3.6.5 1.9.1 2.6-.8 2.3-2.6-.1-.6-.3-1.2-.5-1.7-6.1-21.7.7-40.6 13.7-58 5.1-6.8 11.3-12.6 18.2-17.7 10.4-7.7 22-12.5 34.9-13.8 13.6-1.4 26.6 1 38.2 8.5.9.6 1.7 1.2 2.5 1.7 3.1 2 3.5 2 4.7-1.3 3.4-9.5 10.7-14.9 20-18 1.7-.6 3.6-.9 5.4-1.2 7.2-1.1 13.6.3 18.2 6.2 2.5 3.2 5.1 3.9 9 2.5 5.6-1.9 11.3-2.2 16.6.9 7.4 4.3 8.7 10.4 3.4 16.9-1.5 1.8-2 3.4-.9 5.4 6.7 12-1.4 24.4-14.6 28.3-2.2.6-4.4 1-6.6 1.4-2.5.4-3 1.6-2.2 3.8 1.7 5.2 2.3 10.4 1.4 15.9-3.6 23.8-21.1 38.6-47 38.8zm-221.1 78c6.3 2.6 7.2 2.4 10.5-2.3 3.3-4.7 4.8-4.8 9.1-.7 1.5 1.4 2.9 2.9 4.6 3.9 15.8 10.2 28-.8 32.9-13.7.3-.9.1-2 0-3-.3-4.5.4-6.2 3-6.8 2.6-.6 4.2.5 6.2 4.5.1.2.1.4.2.6 2.8 5.3 9.5 6.3 13.7 1.8 1.6-1.8 2.8-3.9 4.3-5.8 2.7-3.4 5.5-3.3 7.6.4 1.2 2.1 1.8 4.5 3.9 6 4.5 3.2 9.3 6 14.8 7.2 24.9 5.1 48.3-11.9 48.7-37.6.1-4-1.1-7.5-3.3-10.7-1.2-1.8-2.6-3.7-3.4-5.7-1.9-4.5 0-7.5 5-7.8 2.7-.2 5.3-.1 8 0 9.7.4 16.3-4.2 20.9-12.1 1.6-2.8 2-5.4.5-8.5-2.1-4.3-1.4-6.5 2-8.8 2.7-1.9 4.2-1.8 7.8 1.9 4.5 4.6 10 7.1 16.1 8 9.4 1.4 18.5-.1 26.8-4.5 6-3.2 11-7.8 13.7-14.1 4.6-10.9 5.5-21.6-3-31.5-2.3-2.7-.6-6.1 3-6.7 1.2-.2 2.4.1 3.7.2 7.3.8 14.3-.8 21.1-3.2 3.7-1.3 5.4-4 5.7-7.8.3-3.7-.4-6.8-3.9-8.8-.9-.5-1.8-.9-2.6-1.6-2.9-2.3-2.6-4.9.8-6.5 1.3-.6 2.8-.8 4-1.5 1.7-.9 2.7-2.5 2.3-4.5-.4-1.8-1.9-2.5-3.6-2.7-4.5-.5-8.5.5-12.2 3.1-2 1.4-3.9 3-6.1 4-3.4 1.6-6.2-.2-6.4-3.9-.1-1 .3-2 .2-3-.2-5.7-3.9-9.3-9.8-9.3-2.7 0-5.4.3-7.8 1.3-9.5 3.8-16.2 12.2-14.6 24.3.2 1.4.7 2.9-.6 3.9-1.6 1.1-3.3.2-4.5-.8-2.5-2-5-4.2-7.2-6.5-4.6-5-10.5-7.8-17-9-8.3-1.5-16.9-1.9-25.1 0-22.1 5.3-38.6 18.2-49 37.9-9.2 17.3-9.3 34.5 2.8 50.9 1.2 1.6 2.3 3.3 3.3 5 .7 1.2 1.5 2.4 2 3.7.7 1.9.1 3.6-1.4 4.9-1.6 1.4-3.4 1.4-5.1.4-1.6-.9-3-2.1-4.5-3.2-7.2-5.4-15.1-8.6-24.4-8.1-9.1.5-16.5 4.3-23.4 9.6-8.9 6.8-11.3 15.8-9.8 26.2.5 3.2 2 6.1 5.3 7.7 1 .5 2.6.7 2.5 2.2-.1 1.9-1.8 2.5-3.3 3.1-4.3 1.6-8.4 1.2-12.4-.9-6-3.1-11.9-2.1-17.6.9-6 3.2-7.3 7.5-3.9 13.5 1.1 2 2.3 3.9.7 6.1-1.8 2.5-4.2 2-6.6 1.1-3.8-1.3-7.7-1.5-11.5-1-5.7.8-7.9 4.4-6.2 9.5 1.5 4.5.5 6.2-4.2 7.2-1.1.6-2.2.3-3.3 1.6zm195.9-256.1c2.5-.1 5 .1 7.2 1.2 2.6 1.2 4.5.5 6.7-1.2 6.7-5.2 14.5-7.1 23-7 12.2.1 20.1 15.6 15.3 23.5-1.8 2.9-1.8 5.5.4 8.3.9 1.1 1.4 2.4 2 3.7 4.3 9.8-.6 18.9-11.4 19.6-7.2.5-14.2-.1-20.5 4.7-3.2 2.4-7.7 1.4-10.8-1.4-2.7-2.5-5.1-2.5-8.4-1.4-5 1.6-10.2 1.7-15-.5-8.9-4.2-11.9-14.8-6.3-23.6 2-3.1 2.7-5.6 1.5-9.3-1.9-6.1.6-10.8 6.3-14.1 3.1-1.8 6.4-2.5 10-2.5zm39.7 41.5c3.7.1 8.2-2.5 9.2-5.6 1-2.9-1.4-7.6-4.9-9.5-.5-.3-1.2-.4-1.7-.7-3.7-2-3.9-3.4-1-6.3.6-.6 1.3-1 1.8-1.6 2.4-3 3.6-6.4 2.2-10.1-1.4-3.7-3.9-6.8-8.2-7.3-8.9-1-17.2.2-23.3 7.6-2.9 3.6-3.5 3.4-6.8.6-4.8-4.2-10.1-4-14.6.5-2.9 2.9-2.9 5.2.1 8.2 5.5 5.4 5.5 5.4-.9 9-.4.2-.7.4-1.1.6-3 2.1-4.7 6.8-3.8 10.1 1.1 4 3.9 6.2 8.6 6.4 4.9.2 9.2-1.2 13.3-3.8 3.5-2.3 4.4-1.8 5.4 2 1.4 5.5 4.3 7 8.4 3.2 4.4-4.1 9.1-4.8 14.6-3.7.9.3 1.7.3 2.7.4z" fill="#295378"/><path d="M350.8 181.7c1 10.9-9.5 22.1-21.6 22.6-12.7.5-22.6-11.3-19.9-23.1.9-3.7 2.5-7.2 4.7-10.4 5.3-7.8 14-10.9 23-8.2 8.4 2.5 13.8 9.9 13.8 19.1z" fill="#c14663"/><path d="M1163.1 623.3c0 2.1-.7 4-2.7 5.1-2.7 1.4-4.4 3.4-5.5 6.1-1.4 3.4-4.6 4.5-8.1 4.4-3.5-.1-6.2-1.9-7.7-5.1-.3-.5-.4-1.1-.6-1.7-.8-3.5-4.1-6.9-1.3-10.8 3.3-4.4 8-7 13.3-8 6.5-1.3 12.8 4 12.6 10zm-16.9 8.5c1.5-.1 2.8-.7 3.8-1.8 1.4-1.4 2.7-3 4.3-4.3 1.9-1.6 3.1-3.3 1.6-5.7-1.4-2.1-3.6-2.7-5.9-2-2.1.7-4.2 1.7-6.1 2.8-3.6 2-3.7 3.1-.5 5.8 1.3 1.1 1.7 2.1 1.5 3.6-.2 1 .3 1.5 1.3 1.6zM653.9 812.1c-1.2.1-2.4.5-3.6.6-9 1.2-17.5.1-25.5-4.4-3.9-2.2-6.1-5.2-6.7-9.4-.9-6.5-.2-12.7 4.1-18.2 1-1.3 1.9-2.6 2.7-4 1-1.7 1.4-3.4-.3-4.9-1.9-1.6-4-3.1-6.6-1.8-1.2.6-2.3 1.6-3.3 2.6-4.5 4.4-9.2 8.6-13 13.6-8 10.7-9.9 22.2-4.2 34.4 5.8 12.3 15.7 19 27.7 19.4 14.5.1 24.1-5.4 31.9-14.3 1.5-1.7 2.6-3.6 3.2-5.8 1.3-4.4-1.7-8.1-6.4-7.8zm-8.1 13.9c-7.7 6.4-20.2 7-29.9 1.5-4.7-2.6-8.5-6.3-11.6-10.5-3.2-4.4-4.4-9.4-3-14.8 1.6-6.5 4.5-12.2 10.1-17.2 1.6 2.8.3 4.7-.2 6.5-1.6 5.6-.4 10.8 2.8 15.4 6.5 9.6 15.6 14.3 27.6 13.3.6 0 1.2-.2 1.8-.3 2.1-.1 5-1.6 6 1 .9 2.4-2 3.8-3.6 5.1z" fill="#295378"/><path d="M539.2 403.5c-.9 18.3-5.7 36-18 51.2-6.2 7.7-17.4 14-30.5 10.3-14.8-4.2-26.1-16.5-28.2-31.5-1.6-11.7 1.2-22.6 5.4-33.3 3.2-8.2 7.3-16.1 12.7-23.2 5.8-7.6 13.2-12.7 22.3-16.2 7.5-2.9 22 1.3 26.7 9 6.3 10.2 9.3 21.2 9.6 33.7zm242.3 22.7c-.3 18-10.9 36.6-32.8 39.5-8.8 1.2-16.3-1.3-22.5-7.1-9-8.3-14.5-18.9-17.9-30.3-4.3-14.5-6-29.4-.9-44.2 1.9-5.5 3.8-11 7.6-15.6 5.6-6.7 13.2-9.8 21.8-8.5 6.4.9 12.3 4.1 17.5 8.2 10.3 8.1 15.7 19.3 20.7 30.7 3.9 8.9 6.3 18.2 6.5 27.3zM444.2 322.3c.2 1.4.5 2.8.6 4.2.2 3.8-1.6 6.6-4.7 7.5-3 .8-6.6-.7-8.3-3.7-2.1-3.6-2.8-7.5-2-11.6 2.9-15 9.7-27.8 21.9-37.8 9.3-7.6 19.5-13.2 31.7-14.7 8.7-1 16.2 1.5 22 8.1 1.4 1.5 2.4 3.3 2.7 5.3.4 2 .5 4.1-1.3 5.5-1.9 1.5-4 .9-5.7-.2-13.2-8.1-25-4.6-36.2 3.9-9.2 7-16.4 15.6-19.4 26.9-.3 1.2-.7 2.3-.9 3.5-.3 1.2-.3 2.2-.4 3.1zm369.4-.8c.1 3.4-.2 6.6-2.3 9.3-2.2 2.9-5 4-8 3.1-3-.9-5.1-3.4-4.5-7 1.6-10.1-2.8-18.4-8.2-26.2-6.5-9.4-15.6-15.8-26.7-19.3-5.7-1.9-11.3-1.1-16.7 1.4-1.9.8-3.7 1.8-5.5 2.7-1.8.8-3.6 1.1-5.2-.4-1.5-1.4-1.8-3.1-1.3-5 1.1-3.8 3.4-6.9 6.6-9.1 5.6-3.8 11.7-5.6 18.6-4.6 10.5 1.4 19.6 5.7 27.8 12 11.4 8.8 19.8 19.6 23.9 33.4 1 3.2 1.6 6.5 1.5 9.7z" fill="#1e4065"/></svg>