<svg xmlns="http://www.w3.org/2000/svg" xml:space="preserve" x="0" y="0" version="1.1" viewBox="0 0 1280 1024"><path d="M1257.5 799.4c-14.2-5.5-28.3-11.5-42.8-16.4-13.9-4.7-27.6-10-41.4-14.9-2.7-1-4.4-2-3.4-5.3.8-2.6 0-5.1-2.2-6.6-5.8-4-11.8-8-19.4-6.3-3.3.7-5.6-.3-7.7-2.5-2.8-2.8-5.8-5.3-10.1-5.4-1.3 0-2.2-.8-3-1.9-5.1-6.6-12.2-8-19.9-7.2-2.4.2-4.3.1-6.4-1.3-10.5-6.8-17.9-5.7-25.8 3.7-1.9 2.2-3.8 4.5-7.2 4.2-3.3-.3-6.5-1.2-9.6-2.3-2-.7-2.3-2.2-1.5-4 .4-.9.9-1.9 1.4-2.8 17.6-30.7 26.4-63.5 24.3-99-.4-6.4-.8-12.8-1.3-19.1-.4-3.9.6-6.8 4.4-8.6 2.8-1.3 4.3-3.7 5.2-6.6 1.3-3.9.7-7.7-.6-11.5-1.4-4-.8-5 3.3-6.2 1-.3 2-.4 3-.6 16.2-3.1 31.6-.4 46.4 6.7 1.5.7 2.9 1.5 4.5 2 2.1.6 3.2-.4 3-2.5-.1-1.2-.5-2.5-1.1-3.5-3-5-6.2-9.7-10.6-13.6-9.5-8.3-20.8-12.5-33.2-13.8-1.5-.2-3.4.5-4.3-1.8 4.7-3.8 10.2-6.1 15.7-8.3 6.9-2.7 6.9-2.7 1.9-8.1-.3-.4-.1-.8.5-1.1.5.1 1.2 0 1.6.4 5.5 4.3 11.5 4.4 18.2 3.3 7.7-1.3 15.2.1 22.1 4.2 1.8 1.1 3.9 3.5 6 1.2 1.9-2.1.5-4.7-.5-7-.4-.9-1.1-1.8-1.7-2.6-7.9-10.4-18.2-17.5-31.1-20-21.8-4.3-40.8 2.1-57.4 16.4-4.2 3.6-8 7.6-11.7 12.5-1.9-4.1-3.2-7.5-5.1-10.7-7.6-12.6-19.4-19.6-33.2-23.2-18.5-4.9-35 1.2-50.7 10.8-1.5.9-3.4 2.2-2.7 4.4.6 1.8 2.7 1.8 4.3 1.9 4.7.4 9.5.6 14 2.2 16 5.5 30.8 13 43 25.1.8.8 2.2 1.3 1.4 2.9-.2.1-.4.2-.6.2-1.4-.1-2.9-.3-4.3-.5-13.3-2-25.9.8-38 6.2-21.9 9.9-30.1 29.6-27.1 52.5.2 1.6.5 3.4 2.3 4.1 2 .7 2.9-.9 4-2.2 4.7-5.2 9.1-10.7 15.4-14.2 1.9-1.1 2.6-3.1 3.2-5.1 1-3.6 2-7.2 3.2-10.7.3-.9.2-2.5 2.3-2.3-.7 3-1.4 5.8-1.9 8.6-.7 4 .5 5 4.3 3.6 5-1.9 9.9-4.3 14.9-6.1 4.4-1.6 8.4-3.3 8.7-9.7 2.7 6 2.7 6 8.6 5.1 2.9-.4 5.7-1.1 8.6-1 2.8.1 4.3 1.2 3.8 4.2-1.4 8 1.9 13.2 9.5 15.7 2.7.9 3.3 2.8 2.7 5.4-1 4.4-1.6 8.9-2.7 13.4-5.5 23.7-14.2 46.2-25.7 67.6-5.3 9.9-11.6 19.1-18.4 27.9-1.2 1.5-2.5 3.3-4.5 1.9-4.5-3.2-10.2-3.6-14.6-6.5-8.1-5.2-17.5-5.9-26.3-8.3-1.7-.5-3.8-.6-5.5-.1-5.8 1.5-11.2 1.6-16.2-2.2-.5-.3-1.2-.3-1.8-.5-7.1-1.7-13.5-.2-19.3 4.1-3 2.2-6.1 4.2-10.2 3.5-8.6-1.5-17.2-2.1-25.9-2.9-17.7-1.7-35.3-4.7-53-5.2-21.5-.6-42.9-2.8-64.4-3.1-8-.1-16.1-.9-24.1-1.3-2.5-.1-4.5-.8-5.3-3.4-2.1-7.2-6.8-12.7-12.1-17.7-2.1-2.1-2.4-4.4-2.2-7.3 1.2-16.1 1.8-32.2-2-48-1.2-5-1-5.5 3.5-7.9 24-12.6 45.3-28.8 62.3-50.1 1.9-2.4 3.9-4.1 7.3-3.7 2.8.3 5.3-.9 7.5-2.6 9.8-7.7 10.7-13.9 6.7-22.5-2.1-4.5-2-4.8 2.3-7.3 5.3-3.1 9.5-7.4 13.3-11.9 6.2-7.4 6.8-17.4 1.6-25.3-6.1-9.1-15.4-13.6-25.6-16.2-3.8-1-8.3-1.2-11.8 1.9-3.6 3.2-7.1 6.4-8.9 11-1.4 3.4-2.7 6.9-4 10.4-.7 1.8-1.6 3.5-3.8 3.5-7.5-.2-12.7 4.1-18 8.5-3 2.5-4.9 1.9-6.4-1.8-.9-2.3.2-4 1.2-5.8 2.7-4.7 4.5-9.8 4.4-15.3 0-2.3.6-4.5 1.8-6.5 2-3.4 3.6-7 5.8-10.2 5.8-8.6 8.2-17.9 5.8-28.2-6.5-2.9-12.5-6.9-19.5-8.6-4.4-1-8.7-2.5-13.2-2.7-2.6-.1-4.9-.7-5.7-3.6l-1.2-1.2c-4.1-3.7-8-7.7-12.4-11.2-18.1-14.4-39.1-21.8-61.7-25-27.1-3.9-52.4 2.3-76.5 14.4-10 5.1-18.7 11.9-26.9 19.6-1.6 1.3-2.9 2.8-3.7 4.7-1.2 1.6-2.9 2.1-4.9 2.3-9.5.6-18 4.1-26.5 8.2-5.2 2.5-7.6 6.1-7.2 11.7.1 1.4-.1 2.9.2 4.3.9 4.3.4 5.2-4.6 7.1-6.2 2.2-12.2 5.2-16.6 10.5-1.3 1.6-2.9 2-4.9 1.9-12.9-1-22.5 5-31 13.9-5.2 5.5-6.1 11.9-4.5 19 .7 2.8 1.8 5.5 3.7 7.8 1.6 2 1.6 3.7-.8 5.1-10.2 5.9-19.2 13.6-29.5 19.4-5.4 3-5.7 3-9.6-1.9-3.5-4.4-6.6-9-11.3-12.2-7.4-5.1-9.2-5.4-16.7-.4-19.1 12.7-31.9 30.4-38.8 52.1-3.5 11.1-2.6 22.5 1.8 33.4 1.6 3.9 4.2 6.5 8.2 7.9 7.9 2.8 16.2 3.7 24.4 3.1 21.5-1.4 41.1-8.9 58.7-21.2 7.9-5.6 8.7-9.7 4.2-18.6-3.2-6.3-7.1-12.1-11.3-17.8-3-4.1-2.9-4.4 1.1-7.3 11.3-8.3 22.7-16.6 34.1-24.8 1-.7 1.8-2.4 3.9-1.4-1 2.3-2.1 4.5-3 6.8-3.6 9.9 4.3 22.7 14.9 23.2 3.9.2 6 1.8 8.2 4.4 13.9 16.6 29.9 30.8 48.6 41.8 4.6 2.7 9.3 5.3 14 7.9 2.4 1.3 3.6 3 2.9 6-3.7 16.7-4.2 33.5-2.3 50.4.3 2.8-.4 4.8-2.5 6.5-5.2 4.3-9.1 9.6-11.4 15.9-1.4 3.7-3.9 4.7-7.6 5-16.3 1.2-32.6.9-48.9 2.5-4.9.5-9.9.9-14.8 1-10.3.4-20.6.3-30.9 1.2-21.8 2-43.6 4.2-65.3 6.9-6.9.8-12.4.1-18-4s-12.9-5.6-18.8-2.3-11.2 2.4-17.3 2.2c-9.9-.2-19.6 2.6-28.5 7-3 1.5-5.8 3-9 3.9-3.5 1.1-7.7 2.1-9.2 5.8-1.7 4-4.7 4.8-8.2 5.4-17.1 3-34.2 6-51 10.5-5 1.3-8.2-.2-11.2-4.1-6.2-8.3-15.5-9.8-23.8-4.1-2.8 1.9-5.3 2.4-8.6 2-7.2-.7-14 .6-18.7 7-.9 1.3-1.9 2.2-3.5 2.2-3.6.1-6.1 2.1-8.6 4.4-2.9 2.8-6 4.3-10.6 3.4-7.3-1.4-13 2.9-18.4 7.2-1.5 1.2-2.3 3.2-1.8 5 1.2 4.3-1.6 5.4-4.6 6.5-13.6 4.9-27.1 10-40.8 14.7-13.7 4.7-27.1 10.1-40.5 15.5-1.5.6-3.7.8-3.6 4.7 19-6.2 37.3-12.4 55.6-18.3 18.5-5.9 36.9-12.1 55.6-17.2 18.7-5.1 37.6-9.5 56.6-13.8 18.7-4.3 37.2-9.5 56.2-12.8 19.1-3.3 38.3-6.6 57.4-9.8 19.1-3.2 38.3-6.6 57.5-9.5 19-2.9 38.2-4.8 57.5-5.7-5.9 4-8.2 11.6-15.2 14.1-.9.3-1.8 1.4-2.1 2.2-1.6 5.4-4.4 8.7-10.8 7.3-1.6-.4-3.1 1.2-3.4 3-.4 2.1.7 3.6 2.4 4.6 1.9 1.1 3.9 1 5.9.1 1.5-.6 2.3-2.5 4.2-2.4 1.2.9 1.2 2.2 1.5 3.3 1.2 5.7 4.9 9 10.1 10.8 7.9 2.7 15.8 3.8 23.3-.9 3-1.9 5.3-1.4 7.8.7 3.3 2.7 7.3 4.4 11.5 4.1 9.4-.6 19.1-.6 26.7-7.9 2.7-2.6 6.1-4.1 10.2-2.1-.4 2.4-1.5 4.3-2.6 6.3-2.6 4.5-1 7.4 4.2 7.8 1.9.1 3.7-.4 5.5-.9 4.1-1.3 6.8-3.8 7.4-8.2.6-4.6-3-5.7-6.4-7 .7-1.6 1.7-2.8 1.9-4.1.5-3.5 2.5-5 5.8-5.2 1-.1 2-.4 3-.6.5-.5 1-1 1.6-1.5 1-2.6 3.3-3.4 5.5-4.6 3.9-2.1 5.7-5.6 5.1-9.1-.7-3.8-3.8-6.7-8.2-7.4-1-.2-2-.2-3.1-.3-1.7-.1-3.3-.6-4.3-2.1-1.8-2.7-4.6-4.1-7.4-5.7 12.6-.8 24.9-2.2 37.3-1.8 4.5.1 7.1 1.6 8.9 5.9 3.4 8.4 9.6 14.2 17.7 18.2 3.5 1.8 7.2 3.1 11 4.1 4.4 1.2 4.9 4 1.7 7-2.1 1.9-4.7 2.6-7.4 2.9-2 .2-4.1.1-6.2.3-4.5.5-5.7 3-3.3 6.8 1.1 1.8 2.7 3.1 4.4 4.3 7.7 5.8 16.7 6.6 25.9 6.5 5.5-.1 9.9-2.4 14.2-5.4 3.3-2.3 4.9-5.3 5.1-9.4.1-2.1 1.7-2 3.1-.9 1.1.9 2.1 2 3.2 2.9 1.6 1.3 3.2 1.6 5.2.7 6.2-3.1 7.7-8.7 2.8-13.4-6-5.9-9.9-13.1-14.3-20-2.6-4.1-1.7-6 3-6.7 2-.3 4.1-.7 6.1-.7 13.8-.1 27.7-.3 41.5-.1 6.6.1 13.2-.1 19.8.9 4.1.6 4.9 2 3.2 5.8-.2.6-.5 1.2-.9 1.6-4.7 5.4-6.9 12.7-12.7 17.3-1.4 1.1-2.3 2.9-3.4 4.4-1.7 2.3-1.3 4.6.2 6.9 3.5 5.2 6.4 5.5 11.5 1.5.3-.3.6-.6.9-.8 1.9-1.5 3.1-.8 3.3 1.4.4 5.5 4.5 8 8.4 10.8 8.5 6 31.2 4.1 38.9-4.8.8-.9 1.8-1.8 2.5-2.8 2.2-3.4 1-6.1-3-6.6-2.2-.3-4.5-.1-6.8-.3-2.7-.3-5.4-.9-7.3-3-2.8-3-2.1-5.5 1.8-6.8 1-.3 2-.5 3-.9 12-4.1 22-10.4 26.5-23.1 1-2.9 3.1-4.1 6.1-4.2 8.9-.4 17.8-.2 26.6.5 4.2.3 8.3.7 13.6 1.1-2.1 1.2-3.5 1.5-4.2 2.4-3.4 3.9-7.6 5.8-12.9 6.1-3.6.2-5.7 3.2-6.2 6.8-.6 3.8.8 6.9 4.1 9 1.6 1 4.1 1 4.8 3.3-1.4 1.3-3 .4-4.4.9-1.9.8-3 2.1-3 4.2 0 2.7 2.6 5.3 5.6 5.8 2.9.4 5.3-1 6.2-3.9.4-1.2-.6-3.2 1.8-3.2 2.1 0 4.1.4 4.9 2.9.6 1.9 1.4 3.8 2.1 5.7-6.3 3.6-7.7 8.6-3.4 12.7 3.3 3.1 7.5 4.4 12 3.6 3.9-.6 4.9-3.1 3.1-6.7-1.2-2.4-2.5-4.8-3.8-7.5 7.1-.8 7.3-.8 11 2.5 8.7 7.5 19 8.2 29.7 7.4 2.9-.2 5.7-1.2 8-3.2 2.9-2.6 5.9-2.5 9.1-.7 6.2 3.6 12.8 3.1 19.3 1.5 7.5-2 13.2-6 13.6-14.7 0-.5.5-1 .9-1.7 1.3 1.2 2.4 2.4 3.8 3.2 2 1.3 4.3 1.5 6.5.4 1.8-.9 3-2.2 2.9-4.3-.1-2.2-1.7-3.3-3.6-3.6-1.4-.2-2.9-.2-4.3.1-2.5.5-3.8-.3-4.5-2.8-1.2-4.2-4.3-7-8.2-8.8-1.3-.6-2.9-1.1-3.4-2.5-1.5-3.9-4.5-6.6-8.6-10 9.9.9 18.3 1.5 26.7 2.4 29.8 3.2 59.4 7.7 88.8 13.5 24.5 4.8 49.4 7.5 73.8 13.1 25 5.7 49.9 11.5 74.8 17.5 37.4 9 73.7 21.9 110.2 33.7 5.9 1.9 11.7 4.1 17.6 5.9 1.7.5 3.8 1.7 5.6-.1-.6-1.3-1.6-1.6-2.5-2zM190 743.6c-3.5 1.1-7.2 1.9-10.8 2.8-20.3 5-40.5 10.1-60.4 16.3-1.4.4-2.8.8-4.2 1.1-.9.2-1.6-.1-2.1-.9s-.2-1.6.3-2.3c2.5-3.2 5.8-5.1 9.6-5.7.8 0 1.2 0 1.6.1 5.9 3 10.1 0 14.1-3.9 2.4-2.4 5.2-4 8.9-3.6 2 .2 3.9-.4 4.3-2.6.5-2.8 2-4.4 4.5-5.4 3.3-1.3 6.7-3 10.1-1.4 4.8 2.2 8 1.1 11.4-2.7 2.6-3 6.6-3.2 10.4-2.7 2.7.4 4.4 2.1 5.4 4.6 1 3.1.1 5.3-3.1 6.3zm155.7-30.1c-17.5 2.6-35 5.3-52.4 9-.4.1-.8.2-1.2.2-1.6.2-3.6 1.2-4.5-.6-1.1-2.2.8-3.4 2.4-4.3 1.6-.9 3.3-2.2 5-2.3 5.3 0 10-2.4 15-3.4 4.4-.9 8.5-1.4 12.5 1.2 2.8 1.8 4.9.5 7-1.6 5.9-5.9 14.2-5.9 21.1-.2-1.6 1.8-3.3 1.8-4.9 2zm148.3 6.4c1.6 3.3 4.3 4.2 7.6 3.9 1-.1 2.1 0 3.1.2 1.7.3 3.2 1 3.3 3.1.1 1.8-1.2 2.5-2.7 2.9-2.2.6-4.2 1.6-5.6 3.6-1.3 1.9-3.3 2.2-5.4 2.4-5.4.5-5.8.5-6.4 5.5-.4 3.6-2.2 4.8-5.2 4.5-6.3-.7-10.9 1.9-15.1 6.4-3.5 3.8-9 3.8-13.8 4.6-1.2.2-2.5.2-3.7.2-4.5.3-8.7-.5-12.3-3.2-3.8-2.8-7.4-2.9-11.5-.8-6.4 3.3-13 3.5-19.8 1-1.9-.7-3.7-1.8-5.2-3.3-1-1.1-1.9-2.5-1-3.9 1.5-2.5.8-3.9-1.4-5.6-2.2-1.7-1.9-4.9 1.1-5.9 5.4-1.9 7.9-6.2 11.5-10 3.8-4 9.3-7.1 14.5-9.4 3.9-1.7 8.9-.1 13.2 1.5 1.2.4 2.2 1 3.4 1.5 2.9 1.2 5.4.8 6.6-2.3 1.3-3.1 3.8-4.2 6.7-4.7 3.7-.7 7.4-.7 11.1-.4 2.1.2 4.2.8 5.3 2.7 1.7 2.9 4.1 3 7 2.3 2.8-.7 5.7-.7 8.6-.4 2.5.2 4.9 1.1 6.1 3.6zm306.8-197.2c-2.5-2.1-4.6-4.7-6.8-7.2-.8-.8-.8-1.9 0-2.8 1.1-1.2 2.6-2.8 4.2-2.2 4.5 1.6 8.3 4.5 11.7 7.8.2.2.2.8.2 1.2-.3 2.5-7.1 5.1-9.3 3.2zm-4-42.8c9.2-1.9 26.4 12.3 26.4 22.2-.1 2.7-.7 5.7-2.9 8.2-1.8 2.1-4 2.8-6.6 1.8-2.8-1.1-3.5-2.5-2.1-5.2 1.8-3.5 3.7-6.9 4.4-10.8.2-1.2.4-2.7-1.3-3-1.2-.3-1.8.8-2.1 1.8-1 3-2.6 5.6-4.3 8.2-1 1.5-2.1 3.4-4.3 2.6-2.3-.8-3.7-2.4-4-5-.2-2.6.7-4.8 1.8-7.1 1.1-2.2 2.4-4.4 2.5-6.9 0-.5-.4-1.1-.8-1.5-.6-.5-1.3-.1-1.6.4-1.2 1.7-2.3 3.4-3.4 5.2-.9 1.5-2 2.8-3.9 1.7-2-1.1-5.3-.6-5.3-4.2.1-2.9 4.5-7.7 7.5-8.4zm-6.7 17.4c2.3.1 3.6 1.8 3.6 4.8 0 3.9-2.9 7.9-5.5 7.7-1.8-.1-6.6-3.5-6.7-4.8-.3-2.2 6.1-7.9 8.6-7.7zm-31.5 19.8c2.9-2.3 5.6-5 10.1-5.1.8.2 2.1.3 3.1.8 12 6.2 22.1 14.4 27.9 27 1.1 2.5 1.3 4.6-.6 6.9-2.6 2.9-4 3.2-7.3 1-7.7-5-14.1-11.4-21.3-17-3.6-2.8-7.2-5.5-11.4-7.4-4-1.8-4-3.5-.5-6.2zm-15.2-55.2c3.4-4.1 6.5-8.4 8.9-13.2.6-1.2 1-3 2.9-2.6 1.7.4 1.7 2.1 2 3.5.1.6.1 1.2.2 2-.8 6.1-2.8 11.8-7.4 16.3-2.6 2.5-3.9 2.4-6.4.3-2.6-2.2-2.1-4.1-.2-6.3zm-16.5 116c1.5-1.8 3.6-2.8 5.8-3.3 12.7-3 26.4-22.2 25-39-.1-1.8-1.3-3.6.3-5.6 2.8 0 4.7 2.2 6.7 3.8 6 4.7 11.4 10.1 16.5 15.9 3.8 4.3 3.6 4.8-.5 9.2-16.5 17.4-35.5 31.4-56.8 42.3-3.7 1.9-7.1 4.2-10.6 6.3-3.9 2.3-5.2 5.6-4.1 10 2.8 10.5 3 21.2 2.7 32-.1 5-1 9.8-1.2 14.8-.2 3.6-2.1 5.8-5.4 6.7-9.5 2.8-19.1 1.5-29.8 1.7 10.3-14 11.8-26.9-.4-39.2 1.2-2.1 3-1.4 4.5-1.5 5.7-.1 11-1.5 16-4.2 10.8-5.8 14-15.7 8.4-26.6-.8-1.5-1.7-2.8-2.7-4.2-1-1.5-1-2.8 1-3.3 9.9-2.5 18-8 24.6-15.8zm-91.7 49.3c.3-7-.3-14.8-1.8-22.5-.3-1.6-.9-3.3-.1-4.9.8-1.7 2.3-2.3 4.1-2.2 1.9.1 3.1 1.1 3.5 3 .4 1.9.2 3.7-.2 5.5-3.8 18.5-1.5 37 1.1 55.4.1 1 .4 2 .6 3 1 6 .1 7-5.8 6.8-4.6-.2-5.4-1.1-4.7-5.7 1.9-12.3 3.6-24.8 3.3-38.4zm-23.7-104.5c-2.5.9-4.9 2.2-7.4 3.1-4.5 1.6-8-.4-8.6-5-.5-4.3-.4-8.6.6-12.9.7-2.7 2.2-4.8 4.6-6.3 6.4-4.2 13.5-5.9 21.1-5.9h29.7c7.1 0 13.9 1.3 20.2 4.7 3.7 2 6 4.8 6.7 9 .6 3.3 1.2 6.5.9 9.8-.5 6.1-4.7 8.9-10.3 6.2-6.2-2.9-12.5-5.2-19.3-6.4-13.1-2.5-25.8-1-38.2 3.7zm14.6 138.9c-1.1 6.4-2 7.1-8.3 8.1-7.8 1.2-13.8-1.8-18.1-8.1-4.4-6.5-4.4-13.2-.2-19.8 2.6-4.1 6-7.4 10.3-9.6 1.5-.8 3-1.4 4.3-2.4 2.7-2 2.3-5-.8-6.2-2-.8-4.1-.5-6.1-.6-5.6-.1-11.2.4-16.7-.8-2.7-.5-5.2-1.3-7.7-2.4-7-3.1-8.9-7.3-6.2-14.4 2.9-7.6 8.9-11.7 16.5-13.6 1.8-.5 3.2.3 4.6 1.2 7.4 5 15.6 7.6 24.4 8.1 3.3.2 4.8 1.8 5 5 .5 8 1.9 16 1.3 22.9.4 11.7-.4 22.2-2.3 32.6zm20-39.1c.1-6.3.2-11.8 1.2-17.3.5-2.7 1.8-4 4.5-4 8.2-.2 15.8-2.8 22.7-7.2 3.7-2.4 7.3-2.4 11.1-.6 5.8 2.8 10.2 7.1 12.4 13.1 2 5.5.3 9.8-4.9 12.4-5 2.6-10.4 4-16.1 4h-11.1c-1.4 0-2.9.1-4.3.4-1.7.3-3.2 1.3-3.5 3.1-.4 2 1 3.1 2.5 3.8 4.5 1.9 8.1 4.9 11.4 8.4 6.8 7.2 7.8 13.7 3.1 21.8-4.4 7.8-12 10.9-21.1 8.8-3-.7-4.7-2.1-5.3-5.1-1-5.5-2.1-10.9-2.4-16.5-.2-4.3 0-8.7-.6-13-.6-4.3.5-8.5.4-12.1zm-94-173.9c.4-13.1 5.3-23.8 15.9-32.1 12.6-9.8 27.1-14.8 42.3-18.2 26.3-5.9 51.8-2.6 76.6 7 9.5 3.7 17.9 9.2 25.2 16.6 6.1 6.2 9.1 13.7 9.7 22.2.3 4.3.1 8.7.1 13.2.5 9.4.1 18.8-3.8 27.8-1.2 2.9-2.6 5.6-4.2 8.2-1.4 2.1-2.7 3-4.8.8-14.2-14.7-32.3-16.2-51.1-14.4-5.9.6-11.9 1.1-17.4 3.9-2.8 1.4-5.5.1-8.4-.8-16.6-4.9-33.3-5.7-49.9.1-6.1 2.1-11.4 5.7-16.1 10.2-3.2 3.1-3.5 3.1-5.8-.9-4.7-8.1-8.1-16.7-8-26.3-.2-5.7-.5-11.5-.3-17.3zm-34.7.3c.1-1.4.3-2.9 2.6-3.1.4.5 1.1 1 1.5 1.7 2.7 5.4 5.7 10.5 9.9 14.8 2.2 2.2.8 4-.9 5.8-1.8 1.8-3.4 1.9-5.3.1-5.7-5.2-8.3-11.6-7.8-19.3zm10.1 57.4c.2 1.7-2.5 5.4-4.1 5.6-1.2.1-5.6-3.6-5.8-5-.2-1.2 4-4.4 5.9-4.5 1.6-.1 3.8 2.1 4 3.9zm-26.7-37.2c1.5-.7 3-1.3 4.6-1.9 3.3-1.2 5.1 0 5.7 3.8-2.7.5-5.4.4-7.8 1.8-3 1.8-3.8 3.5-2.7 6.7 1.5 4.4 4.5 7.8 8.1 10.7 1.8 1.5 3.7 1.5 5.7.1 2.3-1.6 4.2-3.7 6.1-7.2.2 4.1.6 7 .5 9.9-.2 5.2-4.5 7.5-8.4 4.2-4.5-3.8-8.6-4.3-13.5-1.2-1.4.9-3 1.7-4.3-.1-1.2-1.7.4-2.5 1.3-3.6 3.6-3.8 3.7-4.2 1.1-8.4-.2-.4-.5-.7-.7-1-4.9-8.2-4.5-9.5 4.3-13.8zm-8.3 35.3c.1 1.8-4.4 5.5-6.6 5.5-2.1 0-5.3-4.3-5.5-7.3-.2-2.8 1.4-5 3.9-5.2 2.8-.4 8.1 4.2 8.2 7zM455.6 491c4.7-5.1 10.6-8.5 17.2-10.5 5.7-1.8 10.8 1.4 12.2 7.2.1.6.3 1.4 0 1.8-1.6 2-4.1 2.7-6.4 3.4-1.8.6-2.3-1.4-3.1-2.5-.5-.7-.9-1.4-1.4-2-1-1.1-1.3-3.8-3.3-2.5-1.6 1-.4 3 .2 4.5.7 1.7 1.6 3.3 2.5 5 1 1.9 1.4 3.8 1 6-.4 2.3-1.9 3.6-4 4.2-1.9.5-3.1-.8-4.1-2.1-2-2.6-3.8-5.4-4.9-8.5-.3-1-.9-2.1-2.1-1.8-1.6.4-1.4 1.9-1.2 3 .6 3.3 2.3 6.2 3.7 9.1 1.1 2.3 2.4 4.6-.8 6.3-3.1 1.7-6 .9-7.9-2.3-1.1-1.8-1.7-4.6-1.8-8.2-.3-3.7 1.5-7.1 4.2-10.1zm-31.5 62.7c-5.6 4-5.9 5.3-2.5 11.1 3.8 6.6 7.9 13.1 11.8 19.7 3.4 5.8 3.1 7.2-2.6 10.9-10.3 6.8-21.5 11.3-33.2 14.9-7.8 2.4-15.7 3.4-23.9 3.2-4.5-.2-9.1-.3-13.6-.8-5.4-.6-8.9-3.2-10.4-8.9-2.9-10.4-2.2-20.4 1.5-30.4 6.8-18 19-31.7 34.2-43.1 4.2-3.1 5.4-3 9 .7 3.7 3.9 7.1 8.1 10.6 12.1 1 1.1 1.8 2.3 2.8 3.3 3.8 4 5.6 4.3 10.2 1.4 5.8-3.7 11.4-7.4 16.9-11.5 12.3-9 25.6-16.6 38.5-24.9.8-.5 1.8-1 2.8-1.3 1.1-.3 2 .3 2.6 1.3.6 1 .5 2-.4 2.8-1.9 1.6-3.9 3.1-5.9 4.5-16.2 11.9-32.3 23.4-48.4 35zm60.9-7.8c-.8.6-1.6 1.2-2.5 1.9-1.8 1.4-3.7 1.9-5.7.5s-3.2-3.2-2.9-5.8c.3-2.5 1.1-4.9 2.4-7 6.4-9.9 14.9-17.4 25.5-22.6.7-.4 1.5-.6 2.3-.8.4-.1.8-.1 1.6-.2 4.9.5 8.5 3.9 12.3 7.1.7.6.6 1.5-.1 2.2-.3.3-.7.5-1 .7-11.9 6.2-21.1 16.2-31.9 24zm54 48.7c-17.4-9.9-32.6-22.4-46.1-37.1-3.1-3.3-3-3.6-.2-7.3 5.5-7.4 12.8-12.9 19.7-18.7.9-.8 2.1-1.7 3.3-1.2 1.8.7 1.3 2.4 1.3 3.8-.5 8.9.9 17.3 6 24.8 5 7.3 10.8 13.6 19.7 16.1 2.2.6 4 1.9 5.6 3.7 6 7.1 13.5 12 22.4 14.8 3.5 1.1 3.5 1.5 1.8 4.7-1.1 2-2.3 4-3.1 6-3.7 9.5-.1 18.9 9.1 23.5 5 2.5 10.3 4.2 16 4.2 1.4 0 2.9-.4 4 .8.4 1.3-.5 2-1.1 2.7-10.4 12.2-7.1 22.3-2.1 31.3.6 1.1 1.5 2 2.2 3 .8 1.4.3 2.5-1.3 2.6-9.3.2-18.6 1-27.6-1.9-2.4-.8-3.9-2.3-4.4-4.7-.3-1.6-.7-3.2-.7-4.9-.4-14.6-1.8-29.3 1.9-43.7 1.2-4.4-.5-7.5-4.1-10-7.3-4.6-14.9-8.3-22.3-12.5zm51.2 132c-2.5 3.4-5.6 6.1-9.6 6.4-1.7.1-2.9-.3-3.9-1-1.7-1.2-2.3-2.7-.3-3.9 3.3-2 6.9-3.7 10.3-5.5 1.2-.6 2.4-.6 3.4.5.8 1.2 1 2.4.1 3.5zm31.9-25.6c10.5-2.7 20.2-2.1 31.1 0h-31.1zm77.3 29.5c-.4 1.6-2.1 1.8-3.4 2.2-.6.2-1.2.2-1.5.2-4.5-.3-7.7-2.2-10.1-5.6-1-1.5-1.3-3 0-4.5 1.2-1.4 2.7-.7 3.9.1 2.7 1.9 5.7 3.2 8.6 4.6 1.3.6 3 1.2 2.5 3zm21.4-10.7c-3.7 2.8-7.9 4.3-12.3 5.6-2.1.6-4.1.5-6-.4-3-1.5-5.9-2.9-8.8-4.5-3.9-2-6.1-4.8-6.6-9.6-.6-5.9-4.9-9.8-9.9-12.7-8.9-5.1-18.6-8-28.7-9.2-3.9-.5-7.8-.8-10.9-1.1-13.6 1.1-26.3 3.1-37.9 9-7 3.5-12.1 8.6-13 16.9-.1.8-.2 1.7-.6 2.4-2.2 4.4-15.7 10.6-20.6 9.3-3.6-.9-7.1-2.3-10.2-4.5-10.9-7.7-13.1-19.1-5.6-30.2.8-1.2 1.7-2.3 2.5-3.5 3.4-4.8 7-6.9 13.5-4.6 7.9 2.8 16.7 3 25.1 2.5 11.6-.7 23.1-1.5 34.2-5.1 8.4-2.7 16.7-2.2 25 .1 17.3 4.9 34.9 6 52.8 4 3.5-.4 6.9-1.2 10.2-2.5 2.2-.9 4.1-.4 5.6 1.3 3.8 4.3 7.6 8.7 9.4 14.4 2.9 8.6.1 16.8-7.2 22.4zm145.8 11.9c.4 1.5 2.2 1.7 3.7 2 1.8.4 3.6.9 5 2.2 2.4 2.1 2.6 3.9 0 6-1.7 1.5-2.1 2.8-1.5 4.8 1 3.3-1 4.9-3.5 6.3-6.6 3.6-13.6 4.2-20.2 1-5.4-2.7-9.9-3.1-14.8.8-3.2 2.5-7.3 2.7-11.3 2.4-7.5-.4-14.7-1.5-20.3-7.5-2.6-2.8-6-4-10.1-3.8-5.9.2-6 0-7.3-5.7-.7-2.9-2.2-4.4-5.1-4.3-3.3.1-6.1-.3-7.8-3.7-.9-1.8-3-2-4.8-2.5-1.2-.4-2.4-.9-2.4-2.4-.1-1.7 1.2-2.5 2.6-3 1.8-.7 3.7-.5 5.5-.5 2.4 0 4.6-.6 5.6-3 1.7-3.9 4.9-4.7 8.7-4.6 1.8 0 3.8-.1 5.5.3 3.7.9 6.8 1 9.1-2.9 1-1.6 3.2-1.8 5-2 3.5-.3 7-.1 10.5.5 2.8.5 4.9 1.4 6.4 4.2 2.1 3.8 3.3 4.2 7 2.4 3.5-1.6 7-2.2 10.7-2.8 4.7-.8 8.6-.1 11.4 4.1.3.5.8 1.1 1.3 1.3 5.5 1.6 9.6 4.5 11.1 10.4zm120.3-9.4c-.6 1.1-1.7 1-2.7.8-6.5-1.2-13-2.5-19.5-3.6-12-2-24-4-36-5.9-1.6-.3-3.3-.2-4.4-1.7 5.5-5.7 15.2-6.1 20.3-.8 3.7 3.8 3.8 3.9 8.3 1.8 3.6-1.7 7.1-1.7 10.9-.9 5.2 1.1 10.1 3.3 15.6 3.5 2.7.1 4.9 2 6.8 4 .8.8 1.2 1.8.7 2.8zm64.3 7.3c-2.3 5-2.8 5.2-8.1 4.2-8.3-1.5-16.7-3-25-4.7-4.4-.9-4.8-1.8-2-5.1 18.7-22.5 29.5-48.9 38.1-76.6 4.5-14.4 7.6-29.1 10.1-44 .1-.8.4-1.5.9-3 4.4 2.2 6.8 5 7.4 9.2 2.1 12.5 3.1 25 2 37.6-1.8 20.5-6.6 40.3-13.9 59.5-2.8 7.8-6.1 15.4-9.5 22.9zm111 33.4c-.5.7-1.2 1.2-2.1 1-1-.2-2-.5-3-.8-23.1-7.2-46.5-13.1-70-18.8-.2 0-.4-.1-.6-.1-4.6-1.1-6-2.3-5.9-5.1.2-3.5 3.1-6.3 6.9-6.6h2c3.1-.1 6.2.8 8.2 3.3 2.7 3.5 5.6 4.4 9.7 2.6 4.4-2 8.5.1 12.5 1.8 1.7.7 2.3 2.3 2.8 3.9.6 2 2 3.3 4.1 3.2 4.8-.4 8.4 2.1 11.4 5.3 3.1 3.2 6.4 4 10.6 2.7 5.6-1.7 9.3 2 13 5.3.7.6.9 1.4.4 2.3zM766.5 442.2c0 .1 0 .1 0 0 0 .1 0 .1 0 0z" fill="#295378"/><path d="M698.1 606.5c-2.2-6.1-6.6-10.3-12.4-13.1-3.8-1.9-7.4-1.8-11.1.6-6.9 4.4-14.5 7-22.7 7.2-2.7.1-4 1.3-4.5 4-1 5.5-1.2 11.1-1.2 17.3.1 3.6-1 7.8-.4 12.2.6 4.3.4 8.6.6 13 .3 5.6 1.4 11 2.4 16.5.6 3 2.3 4.5 5.3 5.1 9.1 2 16.7-1 21.1-8.8 4.6-8.2 3.7-14.7-3.1-21.8-3.3-3.5-6.9-6.5-11.4-8.4-1.6-.7-2.9-1.8-2.5-3.8.3-1.8 1.8-2.8 3.5-3.1 1.4-.3 2.9-.4 4.3-.4 3.7-.1 7.4 0 11.1 0 5.7-.1 11-1.5 16.1-4 5.2-2.8 6.9-7 4.9-12.5zm-37 53.6c.1 2.9-1.5 5-4 5.2-3 .3-5.7-2-5.9-5-.2-3 2.3-5.7 5.2-5.7 2.5.1 4.6 2.4 4.7 5.5zm-2.4-13.3c-.1 3.4-2 5.7-4.6 5.5-2.7-.2-5.4-3.2-5.2-6 .2-2.8 2.5-5.4 5-5.5 2.8-.2 4.9 2.4 4.8 6zm-31.4-40.7c-.2-3.2-1.7-4.8-5-5-8.8-.5-17-3.2-24.4-8.1-1.4-.9-2.9-1.7-4.6-1.2-7.6 1.9-13.6 6-16.5 13.6-2.7 7.1-.8 11.3 6.2 14.4 2.5 1.1 5 1.9 7.7 2.4 5.5 1.2 11.1.7 16.7.8 2.1.1 4.2-.2 6.1.6 3.1 1.2 3.5 4.2.8 6.2-1.3 1-2.9 1.6-4.3 2.4-4.4 2.2-7.7 5.5-10.3 9.6-4.2 6.6-4.2 13.3.2 19.8 4.3 6.4 10.3 9.3 18.1 8.1 6.3-1 7.2-1.6 8.3-8.1 1.8-10.4 2.7-20.9 2.5-32.6.4-6.9-1-14.9-1.5-22.9zm-4.1 54.7c-.2 2.5-3 4.7-5.7 4.5-2.8-.2-4.8-2.6-4.5-5.6.3-2.9 2.7-5.2 5.2-5 2.7.1 5.3 3.3 5 6.1zm-2.9-8.5c-2.8.1-4.9-2.4-5-5.8 0-3 1.9-5.5 4.4-5.7 2.7-.2 5.2 2.3 5.4 5.5.2 3.2-1.9 5.8-4.8 6z" fill="#c14663"/><path d="M780.6 558.8c-16.5 17.4-35.5 31.4-56.8 42.3-3.7 1.9-7.1 4.2-10.6 6.3-3.9 2.3-5.2 5.6-4.1 10 2.8 10.5 3 21.2 2.7 32-.1 5-1 9.8-1.2 14.8-.2 3.6-2.1 5.8-5.4 6.7-9.5 2.8-19.1 1.5-29.8 1.7 10.3-14 11.8-26.9-.4-39.2 1.2-2.1 3-1.4 4.5-1.5 5.7-.1 11-1.5 16-4.2 10.8-5.8 14-15.7 8.4-26.6-.8-1.5-1.7-2.8-2.7-4.2-1-1.5-1-2.8 1-3.3 9.9-2.6 18-8.1 24.6-15.8 1.5-1.8 3.6-2.8 5.8-3.3 12.7-3 26.4-22.2 25-39-.1-1.8-1.3-3.6.3-5.6 2.8 0 4.7 2.2 6.7 3.8 6 4.7 11.4 10.1 16.5 15.9 3.9 4.4 3.6 4.9-.5 9.2zM597.4 669.9c.8 1.4.3 2.5-1.3 2.6-9.3.2-18.6 1-27.6-1.9-2.4-.8-3.9-2.3-4.4-4.7-.3-1.6-.7-3.2-.7-4.9-.4-14.6-1.8-29.3 1.9-43.7 1.2-4.4-.5-7.5-4.1-10-7-4.8-14.6-8.5-22-12.7-17.4-9.9-32.6-22.4-46.1-37.1-3.1-3.3-3-3.6-.2-7.3 5.5-7.4 12.8-12.9 19.7-18.7.9-.8 2.1-1.7 3.3-1.2 1.8.7 1.3 2.4 1.3 3.8-.5 8.9.9 17.3 6 24.8 5 7.3 10.8 13.6 19.7 16.1 2.2.6 4 1.9 5.6 3.7 6 7.1 13.5 12 22.4 14.8 3.5 1.1 3.5 1.5 1.8 4.7-1.1 2-2.3 4-3.1 6-3.7 9.5-.1 18.9 9.1 23.5 5 2.5 10.3 4.2 16 4.2 1.4 0 2.9-.4 4 .8.4 1.3-.5 2-1.1 2.7-10.4 12.2-7.1 22.3-2.1 31.3.3 1.3 1.2 2.1 1.9 3.2zm477.3-22.6c-1.8 20.5-6.6 40.3-13.9 59.5-2.9 7.7-6.2 15.3-9.6 22.8-2.3 5-2.8 5.2-8.1 4.2-8.3-1.5-16.7-3-25-4.7-4.4-.9-4.8-1.8-2-5.1 18.7-22.5 29.5-48.9 38.1-76.6 4.5-14.4 7.6-29.1 10.1-44 .1-.8.4-1.5.9-3 4.4 2.2 6.8 5 7.4 9.2 2.1 12.5 3.2 25.1 2.1 37.7z" fill="#c14663"/><path d="M814.8 357.3c-7.4-13-17.7-23.4-30.7-30.8-4.5-2.5-6.8-5.4-6.3-10.7.6-6.7-1.3-13.1-3.6-19.3-6.7-18-19-31.8-33.5-43.7-10.8-8.8-23.2-14.9-35.8-20.7-34.9-15.7-70.9-18-107.9-9.6-14.8 3.4-28.4 9.8-41.9 16.6-18.3 9.2-33.5 21.8-45.1 38.7-8.3 12.1-14.2 25.2-13.9 40.3 0 3.5-1.2 5.8-4.4 7.4-2.6 1.3-5 3-7.3 4.7-21 15.9-35.4 35.4-33.1 63.3 1.6 19.5 11.2 34.3 28.7 43.4 6.6 3.4 14 4.8 21.4 6.1 2.4.4 4.4-.2 6.3-1.7 11.2-8.5 23.6-13.5 37.9-12.6.9-1.9 2.1-3.5 3.7-4.7.5-2.8 2.5-4.8 4.5-6.5 11.6-9.6 23.5-18.8 37.8-24.4 11.9-4.7 24.3-6.7 36.9-7.4 17.2-.9 34.3.4 50.7 6.3 17 6.1 31.4 16.3 44.2 29 1.5 1.5 2.8 3.1 3.3 5.2l1.2 1.2c2.2 1.4 4.7 1.2 7.1 1.3 10.1.6 19 4.5 27.5 9.6 1.6 1 2.8 2.3 3.8 3.9 2.4.7 4.7 1.2 7.3.7 5.7-1.1 11.3-2.4 16.8-4.4 11-3.9 19.2-11.4 24.9-21.2 11.8-20 10.8-40.1-.5-60zM675.2 334c-1.3 1-2.6 2-4 3-1.8 1.3-2.4 3-2.5 5.3-.1 8.7-6.8 12.3-14.3 7.9-.9-.5-1.7-1.2-2.5-1.8-3.6-2.6-3.7-2.7-5.6 1.3-1.9 3.9-4.7 6-9.2 6-4.5-.1-7.2-2.5-9.1-6.3-1.9-3.6-2-3.7-5.1-1.3-2.5 1.9-5.1 3.5-8.3 3.7-5.4.4-9-2.2-9-7.7 0-4.6-2-7.1-5.5-9.6-10.2-7-15.5-16.8-15.9-28 .5-14.4 5.7-25.1 16.2-33.2 11.7-9 25.2-11.8 39.6-11.1 4.9.2 9.9.6 14.7 1.9 8 2 15.1 5.7 21.4 10.8 15.7 12.9 21.8 42-.9 59.1zm91.3 108.3s0-.1 0 0z" fill="#1e4065"/><path d="M676.1 274.9c-6.3-5.2-13.4-8.8-21.4-10.8-4.8-1.2-9.8-1.6-14.7-1.9-14.4-.7-27.9 2-39.6 11.1-10.5 8.1-15.7 18.8-16.2 33.2.4 11.2 5.7 21 15.9 28 3.5 2.4 5.5 5 5.5 9.6 0 5.4 3.6 8.1 9 7.7 3.2-.3 5.8-1.8 8.3-3.7 3.1-2.4 3.2-2.3 5.1 1.3 2 3.7 4.6 6.2 9.1 6.3 4.5.1 7.3-2 9.2-6 1.9-4 2.1-3.9 5.6-1.3.8.6 1.6 1.3 2.5 1.8 7.6 4.4 14.2.8 14.3-7.9 0-2.3.7-4 2.5-5.3 1.3-1 2.7-2 4-3 22.7-17.1 16.6-46.2.9-59.1zm-57.8 44.9c-5.3 2.2-11.2.9-15.9-3.5-9.8-9.3-4.9-23.6 3-29.1 6.2-4.3 17.3-1.2 20.1 4.7 1.9 4 3.4 8.3 3.5 13 .1 6.8-3.6 11.8-10.7 14.9zm49.5-.5c-5.9 3-11.2 1.5-16.1-2.2-5.4-4.1-7.9-9.2-6.3-16.1 1.6-6.7 4-12.6 11.2-15 6.3-2.1 11.2-.7 15.5 4.4 3.4 4.1 5.1 8.5 5.2 15.4-.1 5.1-3.2 10.3-9.5 13.5z" fill="#c14663"/><path d="M537.1 876c2.7.5 5.6-.3 8.3-2.1 1-.7 2.2-1.4 3.4-1.5 7.4-.5 13.5-3.9 19.3-8.2 3.7-2.7 8.3-3.7 12.8-4.2 2.4-.3 4.3-1 5.9-2.9 8.2-10 19.4-11.9 31.4-10.5 5.1.6 10.2 1.9 14.6 4.8 3 2 5.3 1.6 8.5 0 11.6-5.7 23.5-7.4 35.9-2.2 3.5 1.5 6.6 3.5 9 6.4 2.2 2.7 4.9 4 8.5 4.5 6.9.9 13.2 3.4 18.1 8.5 1.4 1.4 3 2.2 4.9 2.2.4 0 .8 0 1.2.1 8.9 2 17.5 5 26.7 6.2 9.2 1.3 11.6 6.3 10.5 15.7-.3 2.5.4 4.3 1.8 6.2 4.5 6.2 3.6 10.6-2.7 15.1-5.5 4-10.6 8.6-17.8 9.5-1.9.2-3 2-4.3 3.4-5.9 6.5-12.8 11.1-21.9 11.2-2.3 0-4.4 1.1-6.4 2-6.7 3.1-13.6 4.5-21.1 3.2-6.7-1.1-13.5-1.2-20 2.2-3.1 1.6-6.8 2.3-10.2 2.1-6-.3-11.9.2-17.9.1-4.3-.1-8.6-.5-12.9 0-4.2.4-8.3-.5-12.1-2.3-6.5-3.1-13.2-3.2-20-2-6.8 1.2-13.1.2-19.3-2.5-3.6-1.6-7.3-2.7-11.3-3.1-7.1-.7-12.9-4.3-17.5-9.6-2.7-3.2-5.7-5.1-9.8-5.9-7.5-1.6-12.4-7.2-17.6-12.1-2.6-2.4-2.4-6.2.5-9.6 2.7-3.2 3.1-6.2 2.7-10.2-.9-7.9 2.2-11.4 10.9-13.9 2.4-.5 4.9-.7 7.9-.6zm2.5 41.6c-.9-1.4-1.2-2.1-1.7-2.8-4.2-6.4-4.3-10.9-.1-17.2 1.9-2.8 4.2-5 7-6.9 7.5-5.1 15.8-7.9 24.6-9.9 10.5-2.3 21.2-3.7 31.9-4.4 9.8-.6 19.7-2.1 29.6-.8 5.7.7 11.5.4 17.3-.3 2.2-.3 4.5-.4 6.8-.2 8.9.6 17.7 1.3 26.5 2.1 10.3.9 20.5 2.5 30.4 5.4 8.4 2.5 16.2 6.2 22.4 12.6 5.5 5.7 6.3 11 2.9 18-.6 1.3-1.8 2.3-1.4 3.9 5.2 1.4 7 1.1 10.2-1.6 1.9-1.6 3.6-3.4 5.6-4.8 5.5-3.9 5.8-5.1.5-9.6-2.9-2.4-3.3-4.6-2.2-8 1.8-5.5.2-8.4-5.2-10.7-2.5-1.1-5.2-1.6-7.9-.8-2.8.8-5.2.1-7.7-1.2-4.3-2.3-8.7-3.4-13.7-2.3-4.1 1-5.6.1-7.2-3.9-1.2-3.3-3.5-4.9-6.5-6.1-3.7-1.6-7.5-1.9-11.5-1.1-4.5.9-5.5.3-7.2-3.7-2.1-5-5.8-7.8-10.9-9.3-10.6-3.1-20.6-1.5-29.7 4.2-4.2 2.6-7.1 2.4-11.2-.1-9.2-5.8-19.2-7.3-29.7-3.9-4.8 1.6-9.1 3.9-10.7 9.4-.9 3.1-3.3 4-6.3 3.6-.8-.1-1.6-.4-2.4-.5-7.5-1.1-13.1 1.6-16.7 8.5-1.7 3.2-4.1 3.8-7.2 3.1-3.3-.8-6.7-1.1-9.7.4-4.7 2.4-9.3 4-14.7 2.7-2.2-.5-4.4.8-6.4 1.9-3.7 2.1-5.3 4.9-3.6 8.8 2.1 4.5 1.1 7-2.9 9.8-3.6 2.4-3.2 5.4 0 8.2 1.9 1.6 3.9 3 5.7 4.7 3.7 3.3 7.7 4.1 13 2.8zm69.4 18.5c5.5 3.8 10.1 5.1 15.4 5 8.4-.1 16.8.2 25.2 0 5.1-.1 10.4-.5 15.5-5H609zm-64-14.3c3.3 7.2 9.2 11 17.1 11.2 3.8.1 7.2 1 10.7 2.4 7.3 2.9 14.8 3.8 22.5.7-17.2-3.4-34.4-6.4-50.3-14.3zm184.2.2c-15.7 7.8-32.8 10.7-49.6 14.2 7.7 2.5 15.1 2.3 22.3-.9 3.4-1.5 6.9-2.2 10.7-2.4 7.4-.3 13.1-3.9 16.6-10.9z" fill="#1e4065"/><path d="M370.8 264.2c-.5-3.3-1.3-6.5-2.7-9.5-2.4-5.5-4.5-11.1-7-16.5-1.1-2.5-1.1-4.5.3-7 3.8-7.2-.2-20-7.3-23.8-.7-.4-1.6-.8-2.3-.7-4.7.4-6.3-2.8-8-6.3-7.8-16-17.5-30.8-27.5-45.5-2.3-3.4-5.2-6.4-8.5-8.9-8-6.1-17.3-4.8-23.3 3.2-1.4 1.8-2.5 3.8-3.8 5.7-9.3 14-15.5 29.6-21.4 45.2-4.8 12.7-9.5 25.5-11.9 39-1.9 10.8 1.7 22.4 17.5 24.8 9.2 1.4 18 .8 26.9-1.5 6.2-1.6 7.4-1 9 4.9 2.4 9.1 7.1 17.1 11.8 25.1 3.4 5.8 8.5 8.9 15.4 8.6 16.1-.7 28.6-8.3 38.7-20.4 4-4.9 5.1-10.4 4.1-16.4zm-78-39.7c-1.7 1.2-3.7 1.8-5.7 2.2-5.4 1.2-6.8.1-6.5-6.7.5-2.2 1.1-5.9 2.2-9.4 1.2-3.8 3.7-4.4 6.4-1.7 3.1 3.2 4.7 7.2 5.6 11.4.3 1.8-.6 3.2-2 4.2zm157.4-33c-.2-2.5-.6-4.9-.9-7.4-4.1-28.7-15.8-53.7-37.3-73.5-7.6-7-16-12.3-26.2-14.7-5.9-1.4-11.8-1.3-17.7.5-10.8 3.3-17.2 11.1-21.1 21.1-4.7 12-6 24.6-4.3 37.2 3.5 26.2 13.1 49.9 31.5 69.3 7.5 7.9 15.8 15 26.5 18.8 15.3 5.4 38.1-.8 45.3-19.7 3.2-8.3 4-16.8 4.2-25.5 0-1.9.2-4 0-6.1zm-58.1-7.4c-8.8-3.8-12.7-11.5-14.2-20.4-.8-4.9 3.1-8.7 8-9 .8 0 1.6 0 2.5.1 8.3 1.2 17.3 11.7 17.2 20.1-.1 8.7-5.6 12.7-13.5 9.2z" fill="#c14663"/><path d="M545.6 136.8c-2.1-4.7-3.9-9.6-6.8-13.9-2.6-3.8-3.2-7.6-1.8-12.2 2.5-8.1-5.3-19.8-13.7-21.3-1-.2-2.2-.3-3 .1-3.9 1.9-6.1-.2-8.2-3.2-7.2-10.1-15.8-19.1-24.5-27.9-5-5.1-10.2-10.1-16.7-13.7-9.2-5.1-15.7-4.1-22.2 4.2-4.4 5.6-7.5 12-8.9 18.9-2.9 14.5-6.1 29.1-5.8 44.1v5.6c.3 7.7 1 15.3 3.3 22.6 3.5 11.4 11.7 16.4 23.6 15.1 5.6-.6 10.9-2.2 16.2-3.9 8.3-2.8 8.4-2.7 12.3 4.9 3.3 6.4 6.9 12.7 11.8 18 5.1 5.6 11.1 6.7 18 4.1 8.8-3.2 15.7-8.9 22.1-15.5 7.6-7.5 8.7-16.2 4.3-26zm-70.8-18.4c-1.6 1.7-3.5 2.8-5.8 3.3-3.8 1-5.9-.1-7-3.9-.7-2.4-.5-4.9-.4-7.3 0-1.4-.1-2.9 0-4.3.5-4.4 2.6-5.5 6.1-3.2 3.1 2 5.8 4.6 7.9 7.7 2.1 3.2 1.8 4.9-.8 7.7z" fill="#c14663"/><path d="M1128.7 822.6c.1 6-.4 11-3 15.3-1.7 2.7-1 4.5 1.3 6.4 3.3 2.7 5.6 6.1 6.5 10.3.5 2.5 1.9 3.8 3.9 5.2 5.5 3.6 6 7.7 1.7 12.9-5.7 7-13.6 9.9-22.2 10.9-4.6.6-9.2.1-13.2-2.4-3.3-2.1-5.5-1.1-8.1 1.3-4.9 4.5-10.4 8.1-17 9.9-2.9.8-5.8 1.1-8.4-.4-2.7-1.6-5.4-1.6-8.3-.9-2 .4-4.1.3-6.2.4-9.2.2-18.4-1.7-27.7-.1-4.4.7-8.6-.7-12.5-2.9-2.6-1.5-5.3-2.4-8.3-2.1-9.7.9-18.4-1.9-26.7-6.6-4.3-2.4-8.6-3.7-13.5-3.5-5.5.2-10.6-1.4-15.3-4.3-8-4.9-15.9-9.7-20.6-18.2-1-1.8-2.9-2.2-4.8-2.5-9.1-1.1-16.8-5.7-24.6-9.8-.4-.2-.8-.4-1-.7-3.9-5.4-10.2-7.4-15.4-11-8.8-6.1-10-16.5-2.5-24.4 2.5-2.6 3.7-5.3 4.7-8.8 2.5-8.7 8.1-15.1 18.7-14.9 5.2.1 10.3.3 14.9 3.1 2.9 1.8 4.7.8 6.7-1.7 5.7-7.5 12.9-13.3 21.7-17 6.4-2.7 13.2-3.7 20-3.5 7 .2 14 .7 20.9 2.4 4.9 1.2 9.6 2.6 12.7 7.1 1.6 2.4 3.8 2.6 6.6 1.8 15.8-4.4 29.3 0 40.5 11.5 1.9 1.9 3.6 2.2 6 1.9 8.1-1.1 16.1-.6 23.7 2.8 4.2 1.8 8.4 3.6 11.3 7.4 1.4 1.8 3.2 2.7 5.4 1.7 8.1-3.9 15.2-1.8 21.9 3.4 6.8 5.1 11.2 11.7 10.2 20zm-15.5 53.4c7.2-.1 12.9-2 17.9-6 1.5-1.2 2.2-2.9-.2-3.7-3.5-1.2-4.5-3.6-4.9-7-.7-6.3-5.4-10.6-11.9-11.6-1.6-.2-3.4-.2-4.9-.7-3.5-1.2-4.2-5-1.3-7.3 1.2-1 2.9-1.6 4.4-2.2 2.2-.9 4-2 5.2-4.2 2.4-4.4 3.8-14.8-1.3-20.5-5.9-6.5-10.9-9.2-19-5.8-.4.2-.8.3-1.2.4-4.1 1.1-5.3.7-7.8-3-1.2-1.7-2.1-3.7-4-4.6-9.5-4.9-19.2-7.7-29.5-2.4-.7.4-1.4.8-2.2 1.2-5.6 2.3-9.1.8-11-4.8-.8-2.2-1.6-4.3-3.7-5.5-5.2-3.1-10.6-5.4-16.7-6.1-4.9-.6-8.7 1.4-12.5 4.2-4.9 3.5-7.9 2.3-10.1-3.1-.3-.8-.6-1.6-.8-2.3-1.5-5-4.8-7.8-9.9-9.2-8.3-2.4-16.8-2.2-25.2-1.9-11.9.4-25.9 9.7-31.2 20.4-1.6 3.3-2.8 4-6.4 2.8-2.7-.9-5.3-2.3-7.9-3.5-5.8-2.8-11.7-2.6-17.4.1-5.1 2.4-5.9 6.2-2.5 10.6 2.2 2.8 1.8 4.9-1.4 6.3-1.5.7-3.2 1-4.7 1.6-6.5 2.7-8.1 12.1-1.7 16 3 1.8 6 3.7 9.6 4 2.8.2 4.7 1.5 5 4.5.2 1.5.6 3 2 3.7 7.6 4 14.9 9.1 24.3 7.7 5.2-.8 5.9-.2 7.1 5.1.7 3 2 5.5 4.3 7.3 5 3.7 10 7.3 15.5 10.2 4.2 2.1 8.6 3.1 13.2 2.2 3.1-.6 5.5 0 8 1.9 8.2 6.1 17.7 8.9 27.8 9.3 4.5.2 8.5.9 12.4 3.1 3.7 2.2 7.9 2.7 12 1.3 4.6-1.6 9.2-1.4 14-.9 6.7.6 13.6 1.8 19.9-2.1 2.2-1.4 4.4-.1 5.9 1.9 2.4 3.3 5.4 3.2 8.9 2 5.2-1.8 9.7-4.8 13.4-8.7 4-4.2 7.8-4.7 12.7-2 2.7.9 5.6 1.5 7.8 1.3zm-867.1 15.4c-12-2.9-24.3 1.8-36.3-1-1.5-.3-2.8.3-4.2.8-6.1 2.5-11.8 1.3-17.2-2-3.5-2.1-7.1-4.4-9.9-7.4-2.1-2.3-4.1-2.7-7-1-11.4 6.7-26.3.8-34-5.6-1.8-1.5-3-3.4-4-5.5-1.7-3.8-1.1-7 2.4-9.2 3.3-2 5-4.6 5.9-8.2.7-2.9 2.8-5.1 4.9-7 2.6-2.4 3.5-4.8 1.7-8.2-3.7-7-2.5-14.5-2-21.9.1-1.9.9-3.6 2.2-5.1 3.5-4.1 7.1-8.1 11.9-10.8 3.9-2.3 8.2-3.5 12.5-1.9 5.2 1.9 8.7.8 13.2-2.8 8.7-6.9 19.3-9.3 30.4-7.6 4 .6 5.9-.8 8.9-3.3 10.9-9.5 23.6-14.5 38.3-10.3 3.7 1.1 6 1.2 8.3-2.3 2.1-3.2 5.5-4.8 9.3-5.7 11.4-2.6 22.8-4 34.4-2.1 11.6 1.8 20.5 8.2 28.4 16.4.9.9 1.5 1.9 2.3 2.9 1.9 2.5 4.2 3.2 7 1.6 4.5-2.6 9.4-2.8 14.4-2.7 10.1.2 17.3 6 19.1 15.8.5 2.8 1.4 5 3.7 6.8 4 3.1 5.3 7.8 6 12.5.5 3-.4 5.8-2.4 8.1-1.5 1.7-2.9 3.8-4.9 4.7-8.9 4.3-15.6 12-24.6 16.2-5.1 2.4-10.2 4.7-15.8 5.3-3.2.4-5 1.9-6.8 4.5-7 9.7-16.8 15.7-27.8 19.8-3.2 1.2-6.5 1-9.8.9-3-.1-5.6.7-8.2 2.2-8.9 5.1-18.2 8.8-28.8 7.9-3.2-.3-6.1.6-8.9 2.2-4 2.2-8.1 3.2-12.6 3zM141 866.9c7.1 8.6 18.3 11.6 27.5 7.3 5.5-2.6 9.7-2.2 13.7 2.5 3.4 3.9 7.8 6.8 12.8 8.4 3 1 5.7.8 7.9-1.8 2.5-3 5.2-3.8 8.6-1.4 1.9 1.4 4.2 1.6 6.5 1.6 4.3.1 8.7.2 13-.6 3.7-.7 7.4-.6 11 .7 4.9 1.8 9.8 1.5 14.3-1.2 3.5-2.1 7.2-2.7 11.2-2.8 10.4-.3 19.9-3.4 28.2-9.7 2.4-1.8 4.7-2.2 7.5-1.6 4.6 1 9 .2 13.2-2 5.9-3 11.4-6.7 16.4-11.1 2.2-1.9 3.8-4.2 4.3-7.3.8-4.7 1.4-4.9 6.3-4.3 3.3.4 6.6.5 9.8-.8 4.7-2.1 9.4-4.2 14.2-6.3 1.6-.7 2.8-1.7 2.8-3.7-.1-3.5 2.2-4.7 5.1-5.1 4.2-.6 7.8-2.7 11.1-5.2 2.6-2 3.3-4.6 2.4-7.7-1.3-4.6-4.2-7.2-9-8.2-4.8-1-5.4-3.4-2.5-6.9 3.1-3.8 3.1-5.2-.4-8.6-2.3-2.3-5.1-3.5-8.3-3.8-4.2-.5-8.2.6-12 2.3-2.6 1.2-5.3 2.3-8 3.3-1.9.6-4 .5-4.7-1.7-2-5.6-6.6-8.9-10.7-12.6-5.1-4.7-11.2-8.1-18.2-8.7-8.8-.8-17.7-.8-26.5 1.1-6.3 1.3-10.3 4.5-12.4 10.7-2.5 7.2-5.5 8.3-11.3 3.8-4.6-3.5-9.5-4-14.6-3.1-3 .5-5.9 1.9-8.8 3-4.2 1.7-7.4 4.1-8.7 8.9-1.1 4.3-3.6 5.5-8 5.1-1.9-.2-3.5-1-5.2-1.8-11.9-5.9-25.4-3-33.9 7.4-1.9 2.4-4 3.4-7 2.4-1.4-.4-2.8-.9-4.2-1.3-4.8-1.3-8.7-.1-12.7 2.9-6.2 4.7-7.6 10.8-6.9 18.1.5 5 2.4 8.7 7.4 10.4 1.4.5 2.8 1 3.9 1.9 3.1 2.5 2.5 6.5-1.4 7.7-1.7.5-3.7.4-5.5.7-5.6.8-10.9 5.3-11.3 10.7-.2 4.5-1.8 7.4-6.9 8.4zm290.9-398.6h-3.4c-6.8-.1-6.8-.1-8.3 6.8-1.9 8.8-7.7 14.2-16.5 15.3-7.7 1-15-2.8-18.7-10.4-1.6-3.3-3.3-5.2-7.2-5.6-8.1-.9-12.8-6.5-15.6-13.5-4.9-12.1-3.6-23.5 5.6-33.3 1.9-2.1 2-3.3.7-5.8-8.5-16.8 1.3-33.4 16.3-38.6 8.2-2.8 16.3.3 24 3.6 1.1.5 2.2 1.1 3.2 1.8 2.3 1.6 4.5 1.7 6.9.1 11-7.3 21.8-.3 27.5 7.2 6.7 8.8 6.1 21-1.3 29-3.7 4-3.7 4.7.4 8.2 2.2 1.8 4.7 3.4 7 5.1 1 .8 2.1 1.8 1.2 3.1-.8 1.2-2.2.9-3.4.5-.6-.2-1.2-.4-1.7-.7-7.1-3.9-14-8.1-19.4-14.2-.4-.5-.9-.9-1.2-1.4-1.2-1.8-3.5-3.7-1.4-5.9 1.9-2 3.7.1 5.4 1.3 4.5 3.1 5.9 2.8 8.6-1.9 5.6-9.8 2.9-20.1-6.7-25.5-5.2-2.9-11.5-.9-14.1 4.5-.2.4-.3.8-.4 1.2-.6 2.1-1.5 4-4.1 3.8-2.2-.1-2.9-2-3.6-3.8-4.5-11.3-20.6-15.1-29.9-7.2-5.3 4.5-9 9.6-8.6 16.9.3 5.7 2.6 10.3 7.6 13.4.9.5 1.8 1 2.7 1.6 1.4 1 2.4 2.3 1.9 4.2-.5 1.9-2 2.8-3.7 2.7-4.5-.5-8.3.8-10.7 4.7-2.8 4.7-4.3 9.7-3 15.4 1 4.2 3 7.7 5.7 10.8 2.8 3.1 6.1 4.6 10.5 3.5 4.9-1.2 5.5-.5 5.5 4.2 0 5.7 2.6 9.7 7.5 11.5 4.4 1.6 9.1.1 12.6-4.2.8-.9 1.5-2 2.1-3.1 2-3.6 1.8-4.2-2.3-5.4-2.1-.6-4.2-1.2-3.9-3.9.4-2.4 2.5-3.1 4.6-3.4 3.9-.5 7.9-.5 11.7.1 5.9 1 11.8 2.3 17.6 3.5 1.4.3 3.2.7 2.8 2.6-.4 1.7-2.1 1.8-3.6 1.7-2-.1-4.3-.3-6.9-.5zm409.8.1h-7.4c-1.1 0-2.1-.5-2.1-1.8 0-.9.7-1.5 1.5-1.8 1.6-.5 3.2-.9 4.8-1.3 7.3-1.7 14.6-3 22.1-2.9 1.9 0 3.7 0 5.5.7 1.4.6 2.6 1.4 2.7 3.1.1 1.7-1.1 2.5-2.5 3.2-1.6.8-4.1.2-4.7 2.4-.6 2.7 1.3 4.7 2.7 6.6 3 3.9 7.9 5.5 12.1 4.2 4.6-1.4 7.4-4.9 7.9-10 .1-1 0-2.1.1-3.1.3-2.5 1.7-3.8 4.2-3.2 3.1.7 6.1 1.8 8.9-.5 3.4-2.8 6.4-5.8 7.9-10.1 1.6-4.9 1.7-9.7 0-14.6-1.7-5.1-4.7-8.7-10.7-8.5-1.2 0-2.5-.2-3.6-.7-2.8-1.2-3.2-3.8-1-5.9.8-.7 1.7-1.1 2.6-1.7 8.6-5.1 11.2-14.8 6.3-23.5-7.2-12.6-22.2-15.3-33.3-5.9-1.8 1.5-3.1 3.3-3.5 5.7-.3 1.9-1.1 3.7-3.4 3.7-2.2 0-3.2-1.7-3.9-3.5-.3-.8-.6-1.6-1-2.3-2.8-4.9-8.3-6.3-13.3-3.7-10.1 5.3-12.8 18.8-5.6 27.7 1.5 1.9 3.1 2.6 5.3 1.1 1.2-.8 2.3-1.8 3.6-2.5 1.3-.7 2.7-1.3 3.9.1 1.1 1.3.7 2.8-.1 4-1 1.5-2.1 3.1-3.5 4.3-5.3 4.9-11.3 9-17.7 12.5-.5.3-1.1.6-1.7.7-1.4.4-3 1.2-3.9-.5-.7-1.4.5-2.3 1.5-3.1 2.1-1.7 4.3-3.3 6.4-4.9 4.4-3.5 4.4-3.5.6-8-10.9-12.6-5.6-32.7 10.1-38.3 5.5-2 10.7-1.3 15.4 1.7 2.8 1.8 4.9 1.6 7.8-.1 6.5-3.8 13.7-6.2 21.2-6.1 8.9.1 15.7 5.1 20.4 12.2 5.5 8.3 6.8 17.3 1.9 26.4-1.7 3.1-1.3 5.1 1.2 7.6 9.9 9.9 9.7 27.9.9 38.7-3.2 4-7.2 7.1-12.4 7.4-3.5.2-4.9 2-6.3 4.9-4.7 9.3-13.5 13.2-22.7 10.3-6.3-2-10.6-6.2-12.5-12.7-.2-.6-.3-1.2-.5-1.8-1.7-6.8-1.7-6.8-8.6-6.8h-3.7l.1.6z" fill="#295378"/><path d="M165.7 905.6c-4.6-.3-8.2-2.8-10.5-7-2-3.7.3-8.9 4.6-10.7 5.4-2.3 10.6-1.5 15.3 1.8 4 2.9 4.3 6.9 1.2 10.7-3 3.4-6.5 5.2-10.6 5.2zm.7-14.1c-3.2-.1-5.9 1.8-6 4.1-.1 2.2 2.9 4.8 5.6 4.8 2.6 0 5.7-2.6 5.7-4.7-.1-2.2-2.5-4.1-5.3-4.2zm942.8-4.9c2.2.3 4.5.6 6.5 1.8 4.7 2.7 5.5 8.7 1.7 12.5-6 6-14.6 5.8-19.3-.5-3.2-4.3-2.3-8.7 2.3-11.4 2.8-1.6 5.6-2.6 8.8-2.4zm-.7 4.8c-3.1-.1-5.9 1.8-6 4.1-.1 2.2 2.7 4.8 5.5 4.9 2.7.1 6.3-2.5 6.4-4.8.1-2.1-2.6-4.1-5.9-4.2zm-472.3 74.1c-.7-.2-2.4-.4-3.9-1-3-1.2-5.5-2.9-5.8-6.5-.2-3.2 2.2-6.5 5.8-7.9 4.1-1.7 8.1-1 11.9 1 2.6 1.4 3.7 3.8 3.8 6.6.1 3-1.8 4.9-4.4 6.2-2 1-4.2 1.6-7.4 1.6zm1.1-5.3c1.9-.3 4.4-.2 5-3 .4-1.6-2.5-3.8-4.8-3.8-2.4 0-4.5.7-5.2 3.3-.5 1.8 1.8 3.4 5 3.5zm192.6-504.3c-1.3 0-2.1-.2-2.5-1-.4-1 .3-1.6 1-2 1.1-.6 2.2-1.2 3.3-1.7 6.9-3.2 14.1-5.7 21.3-8.1 2.8-.9 5.6-1.2 8.5-.8 1.3.2 2.6.6 2.9 2 .4 1.7-.8 2.6-2.1 3.4-.7.4-1.5.7-2.3.9-9.2 2.3-18.4 4.6-27.5 7-1 0-2.1.1-2.6.3zm-414.6-14.3c1.8.4 4 .9 6.2 1.5 7.3 2.2 14.4 5.1 21.4 8 .9.4 1.9.9 2.7 1.4.7.4 1.3 1.1 1 2-.3 1-1.1 1.3-1.9 1.2-1.8-.2-3.7-.6-5.5-1-7.8-2-15.6-4-23.3-6.1-.8-.2-1.6-.4-2.4-.7-1.8-.7-3.9-1.5-3.6-3.7.4-2.5 2.9-2.4 5.4-2.6zm570.8 459.1c-3.8-.3-6.8-2.5-8.8-6.2-1.2-2.2-.5-3.9 1.9-4.9 2.6-1 5.3-.8 7.9-.8 4.4.1 7.6 3.1 7.4 6.5-.2 3.1-3.9 5.5-8.4 5.4zm-699.1.1c-4-.1-6.8-2.3-6.9-5.6-.1-3.7 2.4-6 6.9-6.1 2.3 0 4.6-.1 6.8.3 3.7.7 4.6 3.1 2.7 6.4-1.7 2.6-6.1 5-9.5 5zm215.1-159.6c.5-.5 1-1 1.6-1.5 1.4-.2 2.8-.7 4.3-.7 2 0 3.7.8 4.4 2.8.8 2.2.1 4.1-1.5 5.6-2 2-5.6 2.2-8 .6-3.2-2-2.6-4.3-.8-6.8zm240.3 192.1c-3.4 0-6.1-1.7-6.1-3.9-.1-2.4 2.6-4.9 5.4-4.9 3.4-.1 6.5 2 6.5 4.5 0 2.4-2.5 4.3-5.8 4.3zm-210.3 0c-3.1 0-5.8-1.9-5.8-4.3 0-2.2 2.7-4.2 5.9-4.4 2.9-.2 5.7 2 5.7 4.4 0 2.3-2.6 4.2-5.8 4.3z" fill="#295378"/><path d="M589.3 453.1c-4.6-1.3-8.2-.3-11.7.4-2.2.4-4.4 1-6.7 1.2-3.7.2-6.8-2.1-7.3-5.3-.5-2.9 1.1-5.9 4.4-7.4 3-1.4 6.3-2 9.6-2.2 4.7-.2 9.5-.3 14.2.6 4.3.8 8.6.6 13 .7 5.2 0 9.5-2.3 13.6-5.2 1.3-.9 2.6-2.6 4.3-1.3 1.7 1.3 1.4 3.4.8 5.1-1.3 3.7-4 6.2-7.2 8.2-3.2 2-6.7 3.4-10.3 4.1-3 .6-4.4 1.8-3.6 5.1.9 3.6-.2 6.9-2.2 10-1.7 2.8-4.2 4.5-7.5 5-4.3.7-8.6-1.1-10.2-4.2-1.6-2.9-.8-7 2.1-10.3 1.2-1.4 2.6-2.6 4.7-4.5zm96.8-.2c.6 2.6 2.4 3.5 3.6 4.9 3.5 4.3 3.9 8.3.9 11.7-2.9 3.3-9.2 3.8-13.1.9-4.2-3.1-5.9-7.2-5.5-12.4.4-5.1.3-5.2-4.7-6.3-5.9-1.3-10.9-3.8-14.6-8.5-1.4-1.8-2.6-3.7-2.4-6.2.2-2.6 2.4-3.9 4.2-2.3 9.1 8.4 19.8 6.5 30.5 5.3 6-.6 11.9-.8 17.8.5 2.3.5 4.4 1.2 6 3 1.9 2.2 2.5 4.8 1.3 7.5-1.1 2.6-3.3 3.5-6 3.6-2.3.1-4.5-.6-6.7-1.1-3.5-.8-7.1-1.6-11.3-.6z" fill="#1e4065"/><path d="M688 478.3c-.5 0-1.3 0-2.1-.2-1.2-.3-2.6-.6-2.6-2.1 0-1.7 1.6-1.6 2.7-1.8 5-1.1 9.4-3.1 11.1-8.5.5-1.5 1.6-2.5 3.3-2 1.9.5 2.5 2 2.4 3.8-.1 2.4-1.2 4.3-2.9 6-3.2 3.1-7 4.7-11.9 4.8zm-96.5-2.8c-.8 2.3-2.5 2.5-4.1 2.7-5 .4-9.3-1.3-12.9-4.6-2-1.9-3-4.4-2.5-7.3.2-1.5 1-2.8 2.7-3 1.4-.2 2.5.8 2.7 2 1.5 6.4 6.4 8 11.9 8.9.6.1 1.2.4 1.7.6 0 .1.1.3.5.7zm28.8 176.8c-2.8.1-4.9-2.4-5-5.8 0-3 1.9-5.5 4.4-5.7 2.7-.2 5.2 2.3 5.4 5.5.2 3.2-1.9 5.8-4.8 6zm2.9 8.5c-.2 2.5-3 4.7-5.7 4.5-2.8-.2-4.8-2.6-4.5-5.6.3-2.9 2.7-5.2 5.2-5 2.7.1 5.3 3.3 5 6.1zm35.5-14c-.1 3.4-2 5.7-4.6 5.5-2.7-.2-5.4-3.2-5.2-6 .2-2.8 2.5-5.4 5-5.5 2.8-.2 4.9 2.4 4.8 6zm2.4 13.3c.1 2.9-1.5 5-4 5.2-3 .3-5.7-2-5.9-5-.2-3 2.3-5.7 5.2-5.7 2.5.1 4.6 2.4 4.7 5.5z" fill="#295378"/><path d="M834.8 746.1c-11.3-.8-22.6-.7-33.7-3.6-4.7-1.2-9-3.1-12.8-6-4.3-3.3-4.1-8.2.3-11.4 2.2-1.6 4.8-2.4 7.5-2.7 19-2.2 37.8-1.4 56.3 4.1 2.4.7 4.8 1.4 6.9 2.6 4.8 2.5 5.4 7.4 1.5 11.2-2.8 2.7-6.4 3.8-10 4.4-5.3.9-10.6 1.6-16 1.4zm-396-.1c-4.6.2-9.8-.3-14.9-1.1-2.9-.5-5.6-1.5-8.2-2.7-3-1.5-5-3.8-4.9-7.2.1-3.3 2.4-5.1 5.1-6.4 1.5-.7 3.1-1.1 4.7-1.5 18.4-5.4 37.1-7.3 56.2-4.6 2.9.4 5.7.8 8.2 2.5 4.9 3.3 5 8.6.3 12.2-6.5 4.9-14.3 6.6-22 7.4-7.9.7-15.9 1.8-24.5 1.4zM629 304.8c0 6.9-3.6 12-10.8 15-5.3 2.2-11.2.9-15.9-3.5-9.8-9.3-4.9-23.6 3-29.1 6.2-4.3 17.3-1.2 20.1 4.7 2.1 3.9 3.6 8.2 3.6 12.9zm48.3.9c-.1 5.2-3.2 10.4-9.5 13.5-5.9 3-11.2 1.5-16.1-2.2-5.4-4.1-7.9-9.2-6.3-16.1 1.6-6.7 4-12.6 11.2-15 6.3-2.1 11.2-.7 15.5 4.4 3.4 4.1 5.1 8.6 5.2 15.4zm288.2 492.2c9.2-.8 19.2 2 29.2 4.2 9.9 2.2 19.6 4.9 29.5 7.2 13.8 3.3 26.2 10.1 38.5 16.7 6.4 3.4 12.7 6.8 18.7 11 1.2.8 2.4 1.6 3.5 2.5 11.2 9.2 9.5 25.2-3.4 32.2-3.9 2.1-8 3.4-12.3 4-8.4 1.1-17 1.6-25.3-.4-26.8-6.6-53.9-12.8-79.4-23.9-14.8-6.4-30-11.8-43.9-20.1-2.5-1.5-5-3-6.9-5.1-3.9-4.2-4.2-8.9-.6-13.4 2.6-3.3 6-5.5 9.9-7.2 13.2-5.7 26.9-7.9 42.5-7.7zm-654-.1c12 .1 25 1.6 37.4 6.7 4.2 1.7 8.3 3.7 11.4 7.2 4.4 5 4.2 10.8-.7 15.4-2 1.8-4.3 3.2-6.7 4.4-31.6 16.4-64.4 29.7-99.2 37.7-6.4 1.5-12.8 3.2-19.1 5-8.9 2.6-18 2.2-27.1 1.8-5.2-.3-10.1-1.9-14.7-4.5-8.6-5-12.6-14.1-10.5-23.8.4-1.9 1.4-3.4 2.9-4.6 2.3-1.8 4.3-3.9 6.8-5.4 20-12.5 40.2-24.5 63.5-29.9 13.5-3.1 26.8-6.9 40.4-9.2 4.8-.7 9.5-.6 15.6-.8z" fill="#1e4065"/></svg>