<?xml version="1.0" encoding="utf-8"?>
<!-- Generator: Adobe Illustrator 25.0.0, SVG Export Plug-In . SVG Version: 6.00 Build 0)  -->
<svg version="1.1" id="Layer_1" xmlns="http://www.w3.org/2000/svg" xmlns:xlink="http://www.w3.org/1999/xlink" x="0px" y="0px"
	 viewBox="0 0 1280 1024" style="enable-background:new 0 0 1280 1024;" xml:space="preserve">
<style type="text/css">
	.st0{fill:#295378;}
	.st1{fill:#C14663;}
	.st2{fill:#1E4065;}
</style>
<g>
	<path class="st0" d="M1257.5,799.4c-14.2-5.5-28.3-11.5-42.8-16.4c-13.9-4.7-27.6-10-41.4-14.9c-2.7-1-4.4-2-3.4-5.3
		c0.8-2.6,0-5.1-2.2-6.6c-5.8-4-11.8-8-19.4-6.3c-3.3,0.7-5.6-0.3-7.7-2.5c-2.8-2.8-5.8-5.3-10.1-5.4c-1.3,0-2.2-0.8-3-1.9
		c-5.1-6.6-12.2-8-19.9-7.2c-2.4,0.2-4.3,0.1-6.4-1.3c-10.5-6.8-17.9-5.7-25.8,3.7c-1.9,2.2-3.8,4.5-7.2,4.2
		c-3.3-0.3-6.5-1.2-9.6-2.3c-2-0.7-2.3-2.2-1.5-4c0.4-0.9,0.9-1.9,1.4-2.8c17.6-30.7,26.4-63.5,24.3-99c-0.4-6.4-0.8-12.8-1.3-19.1
		c-0.4-3.9,0.6-6.8,4.4-8.6c2.8-1.3,4.3-3.7,5.2-6.6c1.3-3.9,0.7-7.7-0.6-11.5c-1.4-4-0.8-5,3.3-6.2c1-0.3,2-0.4,3-0.6
		c16.2-3.1,31.6-0.4,46.4,6.7c1.5,0.7,2.9,1.5,4.5,2c2.1,0.6,3.2-0.4,3-2.5c-0.1-1.2-0.5-2.5-1.1-3.5c-3-5-6.2-9.7-10.6-13.6
		c-9.5-8.3-20.8-12.5-33.2-13.8c-1.5-0.2-3.4,0.5-4.3-1.8c4.7-3.8,10.2-6.1,15.7-8.3c6.9-2.7,6.9-2.7,1.9-8.1
		c-0.3-0.4-0.1-0.8,0.5-1.1c0.5,0.1,1.2,0,1.6,0.4c5.5,4.3,11.5,4.4,18.2,3.3c7.7-1.3,15.2,0.1,22.1,4.2c1.8,1.1,3.9,3.5,6,1.2
		c1.9-2.1,0.5-4.7-0.5-7c-0.4-0.9-1.1-1.8-1.7-2.6c-7.9-10.4-18.2-17.5-31.1-20c-21.8-4.3-40.8,2.1-57.4,16.4
		c-4.2,3.6-8,7.6-11.7,12.5c-1.9-4.1-3.2-7.5-5.1-10.7c-7.6-12.6-19.4-19.6-33.2-23.2c-18.5-4.9-35,1.2-50.7,10.8
		c-1.5,0.9-3.4,2.2-2.7,4.4c0.6,1.8,2.7,1.8,4.3,1.9c4.7,0.4,9.5,0.6,14,2.2c16,5.5,30.8,13,43,25.1c0.8,0.8,2.2,1.3,1.4,2.9
		c-0.2,0.1-0.4,0.2-0.6,0.2c-1.4-0.1-2.9-0.3-4.3-0.5c-13.3-2-25.9,0.8-38,6.2c-21.9,9.9-30.1,29.6-27.1,52.5
		c0.2,1.6,0.5,3.4,2.3,4.1c2,0.7,2.9-0.9,4-2.2c4.7-5.2,9.1-10.7,15.4-14.2c1.9-1.1,2.6-3.1,3.2-5.1c1-3.6,2-7.2,3.2-10.7
		c0.3-0.9,0.2-2.5,2.3-2.3c-0.7,3-1.4,5.8-1.9,8.6c-0.7,4,0.5,5,4.3,3.6c5-1.9,9.9-4.3,14.9-6.1c4.4-1.6,8.4-3.3,8.7-9.7
		c2.7,6,2.7,6,8.6,5.1c2.9-0.4,5.7-1.1,8.6-1c2.8,0.1,4.3,1.2,3.8,4.2c-1.4,8,1.9,13.2,9.5,15.7c2.7,0.9,3.3,2.8,2.7,5.4
		c-1,4.4-1.6,8.9-2.7,13.4c-5.5,23.7-14.2,46.2-25.7,67.6c-5.3,9.9-11.6,19.1-18.4,27.9c-1.2,1.5-2.5,3.3-4.5,1.9
		c-4.5-3.2-10.2-3.6-14.6-6.5c-8.1-5.2-17.5-5.9-26.3-8.3c-1.7-0.5-3.8-0.6-5.5-0.1c-5.8,1.5-11.2,1.6-16.2-2.2
		c-0.5-0.3-1.2-0.3-1.8-0.5c-7.1-1.7-13.5-0.2-19.3,4.1c-3,2.2-6.1,4.2-10.2,3.5c-8.6-1.5-17.2-2.1-25.9-2.9
		c-17.7-1.7-35.3-4.7-53-5.2c-21.5-0.6-42.9-2.8-64.4-3.1c-8-0.1-16.1-0.9-24.1-1.3c-2.5-0.1-4.5-0.8-5.3-3.4
		c-2.1-7.2-6.8-12.7-12.1-17.7c-2.1-2.1-2.4-4.4-2.2-7.3c1.2-16.1,1.8-32.2-2-48c-1.2-5-1-5.5,3.5-7.9c24-12.6,45.3-28.8,62.3-50.1
		c1.9-2.4,3.9-4.1,7.3-3.7c2.8,0.3,5.3-0.9,7.5-2.6c9.8-7.7,10.7-13.9,6.7-22.5c-2.1-4.5-2-4.8,2.3-7.3c5.3-3.1,9.5-7.4,13.3-11.9
		c6.2-7.4,6.8-17.4,1.6-25.3c-6.1-9.1-15.4-13.6-25.6-16.2c-3.8-1-8.3-1.2-11.8,1.9c-3.6,3.2-7.1,6.4-8.9,11
		c-1.4,3.4-2.7,6.9-4,10.4c-0.7,1.8-1.6,3.5-3.8,3.5c-7.5-0.2-12.7,4.1-18,8.5c-3,2.5-4.9,1.9-6.4-1.8c-0.9-2.3,0.2-4,1.2-5.8
		c2.7-4.7,4.5-9.8,4.4-15.3c0-2.3,0.6-4.5,1.8-6.5c2-3.4,3.6-7,5.8-10.2c5.8-8.6,8.2-17.9,5.8-28.2c-6.5-2.9-12.5-6.9-19.5-8.6
		c-4.4-1-8.7-2.5-13.2-2.7c-2.6-0.1-4.9-0.7-5.7-3.6c-0.4-0.4-0.8-0.8-1.2-1.2c-4.1-3.7-8-7.7-12.4-11.2
		c-18.1-14.4-39.1-21.8-61.7-25c-27.1-3.9-52.4,2.3-76.5,14.4c-10,5.1-18.7,11.9-26.9,19.6c-1.6,1.3-2.9,2.8-3.7,4.7
		c-1.2,1.6-2.9,2.1-4.9,2.3c-9.5,0.6-18,4.1-26.5,8.2c-5.2,2.5-7.6,6.1-7.2,11.7c0.1,1.4-0.1,2.9,0.2,4.3c0.9,4.3,0.4,5.2-4.6,7.1
		c-6.2,2.2-12.2,5.2-16.6,10.5c-1.3,1.6-2.9,2-4.9,1.9c-12.9-1-22.5,5-31,13.9c-5.2,5.5-6.1,11.9-4.5,19c0.7,2.8,1.8,5.5,3.7,7.8
		c1.6,2,1.6,3.7-0.8,5.1c-10.2,5.9-19.2,13.6-29.5,19.4c-5.4,3-5.7,3-9.6-1.9c-3.5-4.4-6.6-9-11.3-12.2c-7.4-5.1-9.2-5.4-16.7-0.4
		c-19.1,12.7-31.9,30.4-38.8,52.1c-3.5,11.1-2.6,22.5,1.8,33.4c1.6,3.9,4.2,6.5,8.2,7.9c7.9,2.8,16.2,3.7,24.4,3.1
		c21.5-1.4,41.1-8.9,58.7-21.2c7.9-5.6,8.7-9.7,4.2-18.6c-3.2-6.3-7.1-12.1-11.3-17.8c-3-4.1-2.9-4.4,1.1-7.3
		c11.3-8.3,22.7-16.6,34.1-24.8c1-0.7,1.8-2.4,3.9-1.4c-1,2.3-2.1,4.5-3,6.8c-3.6,9.9,4.3,22.7,14.9,23.2c3.9,0.2,6,1.8,8.2,4.4
		c13.9,16.6,29.9,30.8,48.6,41.8c4.6,2.7,9.3,5.3,14,7.9c2.4,1.3,3.6,3,2.9,6c-3.7,16.7-4.2,33.5-2.3,50.4c0.3,2.8-0.4,4.8-2.5,6.5
		c-5.2,4.3-9.1,9.6-11.4,15.9c-1.4,3.7-3.9,4.7-7.6,5c-16.3,1.2-32.6,0.9-48.9,2.5c-4.9,0.5-9.9,0.9-14.8,1
		c-10.3,0.4-20.6,0.3-30.9,1.2c-21.8,2-43.6,4.2-65.3,6.9c-6.9,0.8-12.4,0.1-18-4c-5.6-4.1-12.9-5.6-18.8-2.3
		c-5.9,3.3-11.2,2.4-17.3,2.2c-9.9-0.2-19.6,2.6-28.5,7c-3,1.5-5.8,3-9,3.9c-3.5,1.1-7.7,2.1-9.2,5.8c-1.7,4-4.7,4.8-8.2,5.4
		c-17.1,3-34.2,6-51,10.5c-5,1.3-8.2-0.2-11.2-4.1c-6.2-8.3-15.5-9.8-23.8-4.1c-2.8,1.9-5.3,2.4-8.6,2c-7.2-0.7-14,0.6-18.7,7
		c-0.9,1.3-1.9,2.2-3.5,2.2c-3.6,0.1-6.1,2.1-8.6,4.4c-2.9,2.8-6,4.3-10.6,3.4c-7.3-1.4-13,2.9-18.4,7.2c-1.5,1.2-2.3,3.2-1.8,5
		c1.2,4.3-1.6,5.4-4.6,6.5c-13.6,4.9-27.1,10-40.8,14.7c-13.7,4.7-27.1,10.1-40.5,15.5c-1.5,0.6-3.7,0.8-3.6,4.7
		c19-6.2,37.3-12.4,55.6-18.3c18.5-5.9,36.9-12.1,55.6-17.2c18.7-5.1,37.6-9.5,56.6-13.8c18.7-4.3,37.2-9.5,56.2-12.8
		c19.1-3.3,38.3-6.6,57.4-9.8c19.1-3.2,38.3-6.6,57.5-9.5c19-2.9,38.2-4.8,57.5-5.7c-5.9,4-8.2,11.6-15.2,14.1
		c-0.9,0.3-1.8,1.4-2.1,2.2c-1.6,5.4-4.4,8.7-10.8,7.3c-1.6-0.4-3.1,1.2-3.4,3c-0.4,2.1,0.7,3.6,2.4,4.6c1.9,1.1,3.9,1,5.9,0.1
		c1.5-0.6,2.3-2.5,4.2-2.4c1.2,0.9,1.2,2.2,1.5,3.3c1.2,5.7,4.9,9,10.1,10.8c7.9,2.7,15.8,3.8,23.3-0.9c3-1.9,5.3-1.4,7.8,0.7
		c3.3,2.7,7.3,4.4,11.5,4.1c9.4-0.6,19.1-0.6,26.7-7.9c2.7-2.6,6.1-4.1,10.2-2.1c-0.4,2.4-1.5,4.3-2.6,6.3c-2.6,4.5-1,7.4,4.2,7.8
		c1.9,0.1,3.7-0.4,5.5-0.9c4.1-1.3,6.8-3.8,7.4-8.2c0.6-4.6-3-5.7-6.4-7c0.7-1.6,1.7-2.8,1.9-4.1c0.5-3.5,2.5-5,5.8-5.2
		c1-0.1,2-0.4,3-0.6c0.5-0.5,1-1,1.6-1.5c1-2.6,3.3-3.4,5.5-4.6c3.9-2.1,5.7-5.6,5.1-9.1c-0.7-3.8-3.8-6.7-8.2-7.4
		c-1-0.2-2-0.2-3.1-0.3c-1.7-0.1-3.3-0.6-4.3-2.1c-1.8-2.7-4.6-4.1-7.4-5.7c12.6-0.8,24.9-2.2,37.3-1.8c4.5,0.1,7.1,1.6,8.9,5.9
		c3.4,8.4,9.6,14.2,17.7,18.2c3.5,1.8,7.2,3.1,11,4.1c4.4,1.2,4.9,4,1.7,7c-2.1,1.9-4.7,2.6-7.4,2.9c-2,0.2-4.1,0.1-6.2,0.3
		c-4.5,0.5-5.7,3-3.3,6.8c1.1,1.8,2.7,3.1,4.4,4.3c7.7,5.8,16.7,6.6,25.9,6.5c5.5-0.1,9.9-2.4,14.2-5.4c3.3-2.3,4.9-5.3,5.1-9.4
		c0.1-2.1,1.7-2,3.1-0.9c1.1,0.9,2.1,2,3.2,2.9c1.6,1.3,3.2,1.6,5.2,0.7c6.2-3.1,7.7-8.7,2.8-13.4c-6-5.9-9.9-13.1-14.3-20
		c-2.6-4.1-1.7-6,3-6.7c2-0.3,4.1-0.7,6.1-0.7c13.8-0.1,27.7-0.3,41.5-0.1c6.6,0.1,13.2-0.1,19.8,0.9c4.1,0.6,4.9,2,3.2,5.8
		c-0.2,0.6-0.5,1.2-0.9,1.6c-4.7,5.4-6.9,12.7-12.7,17.3c-1.4,1.1-2.3,2.9-3.4,4.4c-1.7,2.3-1.3,4.6,0.2,6.9
		c3.5,5.2,6.4,5.5,11.5,1.5c0.3-0.3,0.6-0.6,0.9-0.8c1.9-1.5,3.1-0.8,3.3,1.4c0.4,5.5,4.5,8,8.4,10.8c8.5,6,31.2,4.1,38.9-4.8
		c0.8-0.9,1.8-1.8,2.5-2.8c2.2-3.4,1-6.1-3-6.6c-2.2-0.3-4.5-0.1-6.8-0.3c-2.7-0.3-5.4-0.9-7.3-3c-2.8-3-2.1-5.5,1.8-6.8
		c1-0.3,2-0.5,3-0.9c12-4.1,22-10.4,26.5-23.1c1-2.9,3.1-4.1,6.1-4.2c8.9-0.4,17.8-0.2,26.6,0.5c4.2,0.3,8.3,0.7,13.6,1.1
		c-2.1,1.2-3.5,1.5-4.2,2.4c-3.4,3.9-7.6,5.8-12.9,6.1c-3.6,0.2-5.7,3.2-6.2,6.8c-0.6,3.8,0.8,6.9,4.1,9c1.6,1,4.1,1,4.8,3.3
		c-1.4,1.3-3,0.4-4.4,0.9c-1.9,0.8-3,2.1-3,4.2c0,2.7,2.6,5.3,5.6,5.8c2.9,0.4,5.3-1,6.2-3.9c0.4-1.2-0.6-3.2,1.8-3.2
		c2.1,0,4.1,0.4,4.9,2.9c0.6,1.9,1.4,3.8,2.1,5.7c-6.3,3.6-7.7,8.6-3.4,12.7c3.3,3.1,7.5,4.4,12,3.6c3.9-0.6,4.9-3.1,3.1-6.7
		c-1.2-2.4-2.5-4.8-3.8-7.5c7.1-0.8,7.3-0.8,11,2.5c8.7,7.5,19,8.2,29.7,7.4c2.9-0.2,5.7-1.2,8-3.2c2.9-2.6,5.9-2.5,9.1-0.7
		c6.2,3.6,12.8,3.1,19.3,1.5c7.5-2,13.2-6,13.6-14.7c0-0.5,0.5-1,0.9-1.7c1.3,1.2,2.4,2.4,3.8,3.2c2,1.3,4.3,1.5,6.5,0.4
		c1.8-0.9,3-2.2,2.9-4.3c-0.1-2.2-1.7-3.3-3.6-3.6c-1.4-0.2-2.9-0.2-4.3,0.1c-2.5,0.5-3.8-0.3-4.5-2.8c-1.2-4.2-4.3-7-8.2-8.8
		c-1.3-0.6-2.9-1.1-3.4-2.5c-1.5-3.9-4.5-6.6-8.6-10c9.9,0.9,18.3,1.5,26.7,2.4c29.8,3.2,59.4,7.7,88.8,13.5
		c24.5,4.8,49.4,7.5,73.8,13.1c25,5.7,49.9,11.5,74.8,17.5c37.4,9,73.7,21.9,110.2,33.7c5.9,1.9,11.7,4.1,17.6,5.9
		c1.7,0.5,3.8,1.7,5.6-0.1C1259.4,800.1,1258.4,799.8,1257.5,799.4z M190,743.6c-3.5,1.1-7.2,1.9-10.8,2.8
		c-20.3,5-40.5,10.1-60.4,16.3c-1.4,0.4-2.8,0.8-4.2,1.1c-0.9,0.2-1.6-0.1-2.1-0.9c-0.5-0.8-0.2-1.6,0.3-2.3
		c2.5-3.2,5.8-5.1,9.6-5.7c0.8,0,1.2,0,1.6,0.1c5.9,3,10.1,0,14.1-3.9c2.4-2.4,5.2-4,8.9-3.6c2,0.2,3.9-0.4,4.3-2.6
		c0.5-2.8,2-4.4,4.5-5.4c3.3-1.3,6.7-3,10.1-1.4c4.8,2.2,8,1.1,11.4-2.7c2.6-3,6.6-3.2,10.4-2.7c2.7,0.4,4.4,2.1,5.4,4.6
		C194.1,740.4,193.2,742.6,190,743.6z M345.7,713.5c-17.5,2.6-35,5.3-52.4,9c-0.4,0.1-0.8,0.2-1.2,0.2c-1.6,0.2-3.6,1.2-4.5-0.6
		c-1.1-2.2,0.8-3.4,2.4-4.3c1.6-0.9,3.3-2.2,5-2.3c5.3,0,10-2.4,15-3.4c4.4-0.9,8.5-1.4,12.5,1.2c2.8,1.8,4.9,0.5,7-1.6
		c5.9-5.9,14.2-5.9,21.1-0.2C349,713.3,347.3,713.3,345.7,713.5z M494,719.9c1.6,3.3,4.3,4.2,7.6,3.9c1-0.1,2.1,0,3.1,0.2
		c1.7,0.3,3.2,1,3.3,3.1c0.1,1.8-1.2,2.5-2.7,2.9c-2.2,0.6-4.2,1.6-5.6,3.6c-1.3,1.9-3.3,2.2-5.4,2.4c-5.4,0.5-5.8,0.5-6.4,5.5
		c-0.4,3.6-2.2,4.8-5.2,4.5c-6.3-0.7-10.9,1.9-15.1,6.4c-3.5,3.8-9,3.8-13.8,4.6c-1.2,0.2-2.5,0.2-3.7,0.2
		c-4.5,0.3-8.7-0.5-12.3-3.2c-3.8-2.8-7.4-2.9-11.5-0.8c-6.4,3.3-13,3.5-19.8,1c-1.9-0.7-3.7-1.8-5.2-3.3c-1-1.1-1.9-2.5-1-3.9
		c1.5-2.5,0.8-3.9-1.4-5.6c-2.2-1.7-1.9-4.9,1.1-5.9c5.4-1.9,7.9-6.2,11.5-10c3.8-4,9.3-7.1,14.5-9.4c3.9-1.7,8.9-0.1,13.2,1.5
		c1.2,0.4,2.2,1,3.4,1.5c2.9,1.2,5.4,0.8,6.6-2.3c1.3-3.1,3.8-4.2,6.7-4.7c3.7-0.7,7.4-0.7,11.1-0.4c2.1,0.2,4.2,0.8,5.3,2.7
		c1.7,2.9,4.1,3,7,2.3c2.8-0.7,5.7-0.7,8.6-0.4C490.4,716.5,492.8,717.4,494,719.9z M800.8,522.7c-2.5-2.1-4.6-4.7-6.8-7.2
		c-0.8-0.8-0.8-1.9,0-2.8c1.1-1.2,2.6-2.8,4.2-2.2c4.5,1.6,8.3,4.5,11.7,7.8c0.2,0.2,0.2,0.8,0.2,1.2
		C809.8,522,803,524.6,800.8,522.7z M796.8,479.9c9.2-1.9,26.4,12.3,26.4,22.2c-0.1,2.7-0.7,5.7-2.9,8.2c-1.8,2.1-4,2.8-6.6,1.8
		c-2.8-1.1-3.5-2.5-2.1-5.2c1.8-3.5,3.7-6.9,4.4-10.8c0.2-1.2,0.4-2.7-1.3-3c-1.2-0.3-1.8,0.8-2.1,1.8c-1,3-2.6,5.6-4.3,8.2
		c-1,1.5-2.1,3.4-4.3,2.6c-2.3-0.8-3.7-2.4-4-5c-0.2-2.6,0.7-4.8,1.8-7.1c1.1-2.2,2.4-4.4,2.5-6.9c0-0.5-0.4-1.1-0.8-1.5
		c-0.6-0.5-1.3-0.1-1.6,0.4c-1.2,1.7-2.3,3.4-3.4,5.2c-0.9,1.5-2,2.8-3.9,1.7c-2-1.1-5.3-0.6-5.3-4.2
		C789.4,485.4,793.8,480.6,796.8,479.9z M790.1,497.3c2.3,0.1,3.6,1.8,3.6,4.8c0,3.9-2.9,7.9-5.5,7.7c-1.8-0.1-6.6-3.5-6.7-4.8
		C781.2,502.8,787.6,497.1,790.1,497.3z M758.6,517.1c2.9-2.3,5.6-5,10.1-5.1c0.8,0.2,2.1,0.3,3.1,0.8c12,6.2,22.1,14.4,27.9,27
		c1.1,2.5,1.3,4.6-0.6,6.9c-2.6,2.9-4,3.2-7.3,1c-7.7-5-14.1-11.4-21.3-17c-3.6-2.8-7.2-5.5-11.4-7.4
		C755.1,521.5,755.1,519.8,758.6,517.1z M743.4,461.9c3.4-4.1,6.5-8.4,8.9-13.2c0.6-1.2,1-3,2.9-2.6c1.7,0.4,1.7,2.1,2,3.5
		c0.1,0.6,0.1,1.2,0.2,2c-0.8,6.1-2.8,11.8-7.4,16.3c-2.6,2.5-3.9,2.4-6.4,0.3C741,466,741.5,464.1,743.4,461.9z M726.9,577.9
		c1.5-1.8,3.6-2.8,5.8-3.3c12.7-3,26.4-22.2,25-39c-0.1-1.8-1.3-3.6,0.3-5.6c2.8,0,4.7,2.2,6.7,3.8c6,4.7,11.4,10.1,16.5,15.9
		c3.8,4.3,3.6,4.8-0.5,9.2c-16.5,17.4-35.5,31.4-56.8,42.3c-3.7,1.9-7.1,4.2-10.6,6.3c-3.9,2.3-5.2,5.6-4.1,10
		c2.8,10.5,3,21.2,2.7,32c-0.1,5-1,9.8-1.2,14.8c-0.2,3.6-2.1,5.8-5.4,6.7c-9.5,2.8-19.1,1.5-29.8,1.7c10.3-14,11.8-26.9-0.4-39.2
		c1.2-2.1,3-1.4,4.5-1.5c5.7-0.1,11-1.5,16-4.2c10.8-5.8,14-15.7,8.4-26.6c-0.8-1.5-1.7-2.8-2.7-4.2c-1-1.5-1-2.8,1-3.3
		C712.2,591.2,720.3,585.7,726.9,577.9z M635.2,627.2c0.3-7-0.3-14.8-1.8-22.5c-0.3-1.6-0.9-3.3-0.1-4.9c0.8-1.7,2.3-2.3,4.1-2.2
		c1.9,0.1,3.1,1.1,3.5,3c0.4,1.9,0.2,3.7-0.2,5.5c-3.8,18.5-1.5,37,1.1,55.4c0.1,1,0.4,2,0.6,3c1,6,0.1,7-5.8,6.8
		c-4.6-0.2-5.4-1.1-4.7-5.7C633.8,653.3,635.5,640.8,635.2,627.2z M611.5,522.7c-2.5,0.9-4.9,2.2-7.4,3.1c-4.5,1.6-8-0.4-8.6-5
		c-0.5-4.3-0.4-8.6,0.6-12.9c0.7-2.7,2.2-4.8,4.6-6.3c6.4-4.2,13.5-5.9,21.1-5.9c5.2,0,10.3,0,15.5,0v0c4.7,0,9.5,0,14.2,0
		c7.1,0,13.9,1.3,20.2,4.7c3.7,2,6,4.8,6.7,9c0.6,3.3,1.2,6.5,0.9,9.8c-0.5,6.1-4.7,8.9-10.3,6.2c-6.2-2.9-12.5-5.2-19.3-6.4
		C636.6,516.5,623.9,518,611.5,522.7z M626.1,661.6c-1.1,6.4-2,7.1-8.3,8.1c-7.8,1.2-13.8-1.8-18.1-8.1c-4.4-6.5-4.4-13.2-0.2-19.8
		c2.6-4.1,6-7.4,10.3-9.6c1.5-0.8,3-1.4,4.3-2.4c2.7-2,2.3-5-0.8-6.2c-2-0.8-4.1-0.5-6.1-0.6c-5.6-0.1-11.2,0.4-16.7-0.8
		c-2.7-0.5-5.2-1.3-7.7-2.4c-7-3.1-8.9-7.3-6.2-14.4c2.9-7.6,8.9-11.7,16.5-13.6c1.8-0.5,3.2,0.3,4.6,1.2c7.4,5,15.6,7.6,24.4,8.1
		c3.3,0.2,4.8,1.8,5,5c0.5,8,1.9,16,1.3,22.9C628.8,640.7,628,651.2,626.1,661.6z M646.1,622.5c0.1-6.3,0.2-11.8,1.2-17.3
		c0.5-2.7,1.8-4,4.5-4c8.2-0.2,15.8-2.8,22.7-7.2c3.7-2.4,7.3-2.4,11.1-0.6c5.8,2.8,10.2,7.1,12.4,13.1c2,5.5,0.3,9.8-4.9,12.4
		c-5,2.6-10.4,4-16.1,4c-3.7,0-7.4,0-11.1,0c-1.4,0-2.9,0.1-4.3,0.4c-1.7,0.3-3.2,1.3-3.5,3.1c-0.4,2,1,3.1,2.5,3.8
		c4.5,1.9,8.1,4.9,11.4,8.4c6.8,7.2,7.8,13.7,3.1,21.8c-4.4,7.8-12,10.9-21.1,8.8c-3-0.7-4.7-2.1-5.3-5.1c-1-5.5-2.1-10.9-2.4-16.5
		c-0.2-4.3,0-8.7-0.6-13C645.1,630.3,646.2,626.1,646.1,622.5z M552.1,448.6c0.4-13.1,5.3-23.8,15.9-32.1
		c12.6-9.8,27.1-14.8,42.3-18.2c26.3-5.9,51.8-2.6,76.6,7c9.5,3.7,17.9,9.2,25.2,16.6c6.1,6.2,9.1,13.7,9.7,22.2
		c0.3,4.3,0.1,8.7,0.1,13.2c0.5,9.4,0.1,18.8-3.8,27.8c-1.2,2.9-2.6,5.6-4.2,8.2c-1.4,2.1-2.7,3-4.8,0.8
		c-14.2-14.7-32.3-16.2-51.1-14.4c-5.9,0.6-11.9,1.1-17.4,3.9c-2.8,1.4-5.5,0.1-8.4-0.8c-16.6-4.9-33.3-5.7-49.9,0.1
		c-6.1,2.1-11.4,5.7-16.1,10.2c-3.2,3.1-3.5,3.1-5.8-0.9c-4.7-8.1-8.1-16.7-8-26.3C552.2,460.2,551.9,454.4,552.1,448.6z
		 M517.4,448.9c0.1-1.4,0.3-2.9,2.6-3.1c0.4,0.5,1.1,1,1.5,1.7c2.7,5.4,5.7,10.5,9.9,14.8c2.2,2.2,0.8,4-0.9,5.8
		c-1.8,1.8-3.4,1.9-5.3,0.1C519.5,463,516.9,456.6,517.4,448.9z M527.5,506.3c0.2,1.7-2.5,5.4-4.1,5.6c-1.2,0.1-5.6-3.6-5.8-5
		c-0.2-1.2,4-4.4,5.9-4.5C525.1,502.3,527.3,504.5,527.5,506.3z M500.8,469.1c1.5-0.7,3-1.3,4.6-1.9c3.3-1.2,5.1,0,5.7,3.8
		c-2.7,0.5-5.4,0.4-7.8,1.8c-3,1.8-3.8,3.5-2.7,6.7c1.5,4.4,4.5,7.8,8.1,10.7c1.8,1.5,3.7,1.5,5.7,0.1c2.3-1.6,4.2-3.7,6.1-7.2
		c0.2,4.1,0.6,7,0.5,9.9c-0.2,5.2-4.5,7.5-8.4,4.2c-4.5-3.8-8.6-4.3-13.5-1.2c-1.4,0.9-3,1.7-4.3-0.1c-1.2-1.7,0.4-2.5,1.3-3.6
		c3.6-3.8,3.7-4.2,1.1-8.4c-0.2-0.4-0.5-0.7-0.7-1C491.6,474.7,492,473.4,500.8,469.1z M492.5,504.4c0.1,1.8-4.4,5.5-6.6,5.5
		c-2.1,0-5.3-4.3-5.5-7.3c-0.2-2.8,1.4-5,3.9-5.2C487.1,497,492.4,501.6,492.5,504.4z M455.6,491c4.7-5.1,10.6-8.5,17.2-10.5
		c5.7-1.8,10.8,1.4,12.2,7.2c0.1,0.6,0.3,1.4,0,1.8c-1.6,2-4.1,2.7-6.4,3.4c-1.8,0.6-2.3-1.4-3.1-2.5c-0.5-0.7-0.9-1.4-1.4-2
		c-1-1.1-1.3-3.8-3.3-2.5c-1.6,1-0.4,3,0.2,4.5c0.7,1.7,1.6,3.3,2.5,5c1,1.9,1.4,3.8,1,6c-0.4,2.3-1.9,3.6-4,4.2
		c-1.9,0.5-3.1-0.8-4.1-2.1c-2-2.6-3.8-5.4-4.9-8.5c-0.3-1-0.9-2.1-2.1-1.8c-1.6,0.4-1.4,1.9-1.2,3c0.6,3.3,2.3,6.2,3.7,9.1
		c1.1,2.3,2.4,4.6-0.8,6.3c-3.1,1.7-6,0.9-7.9-2.3c-1.1-1.8-1.7-4.6-1.8-8.2C451.1,497.4,452.9,494,455.6,491z M424.1,553.7
		c-5.6,4-5.9,5.3-2.5,11.1c3.8,6.6,7.9,13.1,11.8,19.7c3.4,5.8,3.1,7.2-2.6,10.9c-10.3,6.8-21.5,11.3-33.2,14.9
		c-7.8,2.4-15.7,3.4-23.9,3.2c-4.5-0.2-9.1-0.3-13.6-0.8c-5.4-0.6-8.9-3.2-10.4-8.9c-2.9-10.4-2.2-20.4,1.5-30.4
		c6.8-18,19-31.7,34.2-43.1c4.2-3.1,5.4-3,9,0.7c3.7,3.9,7.1,8.1,10.6,12.1c1,1.1,1.8,2.3,2.8,3.3c3.8,4,5.6,4.3,10.2,1.4
		c5.8-3.7,11.4-7.4,16.9-11.5c12.3-9,25.6-16.6,38.5-24.9c0.8-0.5,1.8-1,2.8-1.3c1.1-0.3,2,0.3,2.6,1.3c0.6,1,0.5,2-0.4,2.8
		c-1.9,1.6-3.9,3.1-5.9,4.5C456.3,530.6,440.2,542.1,424.1,553.7z M485,545.9c-0.8,0.6-1.6,1.2-2.5,1.9c-1.8,1.4-3.7,1.9-5.7,0.5
		c-2-1.4-3.2-3.2-2.9-5.8c0.3-2.5,1.1-4.9,2.4-7c6.4-9.9,14.9-17.4,25.5-22.6c0.7-0.4,1.5-0.6,2.3-0.8c0.4-0.1,0.8-0.1,1.6-0.2
		c4.9,0.5,8.5,3.9,12.3,7.1c0.7,0.6,0.6,1.5-0.1,2.2c-0.3,0.3-0.7,0.5-1,0.7C505,528.1,495.8,538.1,485,545.9z M539,594.6
		c-17.4-9.9-32.6-22.4-46.1-37.1c-3.1-3.3-3-3.6-0.2-7.3c5.5-7.4,12.8-12.9,19.7-18.7c0.9-0.8,2.1-1.7,3.3-1.2
		c1.8,0.7,1.3,2.4,1.3,3.8c-0.5,8.9,0.9,17.3,6,24.8c5,7.3,10.8,13.6,19.7,16.1c2.2,0.6,4,1.9,5.6,3.7c6,7.1,13.5,12,22.4,14.8
		c3.5,1.1,3.5,1.5,1.8,4.7c-1.1,2-2.3,4-3.1,6c-3.7,9.5-0.1,18.9,9.1,23.5c5,2.5,10.3,4.2,16,4.2c1.4,0,2.9-0.4,4,0.8
		c0.4,1.3-0.5,2-1.1,2.7c-10.4,12.2-7.1,22.3-2.1,31.3c0.6,1.1,1.5,2,2.2,3c0.8,1.4,0.3,2.5-1.3,2.6c-9.3,0.2-18.6,1-27.6-1.9
		c-2.4-0.8-3.9-2.3-4.4-4.7c-0.3-1.6-0.7-3.2-0.7-4.9c-0.4-14.6-1.8-29.3,1.9-43.7c1.2-4.4-0.5-7.5-4.1-10
		C554,602.5,546.4,598.8,539,594.6z M590.2,726.6c-2.5,3.4-5.6,6.1-9.6,6.4c-1.7,0.1-2.9-0.3-3.9-1c-1.7-1.2-2.3-2.7-0.3-3.9
		c3.3-2,6.9-3.7,10.3-5.5c1.2-0.6,2.4-0.6,3.4,0.5C590.9,724.3,591.1,725.5,590.2,726.6z M622.1,701c10.5-2.7,20.2-2.1,31.1,0H622.1
		z M699.4,730.5c-0.4,1.6-2.1,1.8-3.4,2.2c-0.6,0.2-1.2,0.2-1.5,0.2c-4.5-0.3-7.7-2.2-10.1-5.6c-1-1.5-1.3-3,0-4.5
		c1.2-1.4,2.7-0.7,3.9,0.1c2.7,1.9,5.7,3.2,8.6,4.6C698.2,728.1,699.9,728.7,699.4,730.5z M720.8,719.8c-3.7,2.8-7.9,4.3-12.3,5.6
		c-2.1,0.6-4.1,0.5-6-0.4c-3-1.5-5.9-2.9-8.8-4.5c-3.9-2-6.1-4.8-6.6-9.6c-0.6-5.9-4.9-9.8-9.9-12.7c-8.9-5.1-18.6-8-28.7-9.2
		c-3.9-0.5-7.8-0.8-10.9-1.1c-13.6,1.1-26.3,3.1-37.9,9c-7,3.5-12.1,8.6-13,16.9c-0.1,0.8-0.2,1.7-0.6,2.4
		c-2.2,4.4-15.7,10.6-20.6,9.3c-3.6-0.9-7.1-2.3-10.2-4.5c-10.9-7.7-13.1-19.1-5.6-30.2c0.8-1.2,1.7-2.3,2.5-3.5
		c3.4-4.8,7-6.9,13.5-4.6c7.9,2.8,16.7,3,25.1,2.5c11.6-0.7,23.1-1.5,34.2-5.1c8.4-2.7,16.7-2.2,25,0.1c17.3,4.9,34.9,6,52.8,4
		c3.5-0.4,6.9-1.2,10.2-2.5c2.2-0.9,4.1-0.4,5.6,1.3c3.8,4.3,7.6,8.7,9.4,14.4C730.9,706,728.1,714.2,720.8,719.8z M866.6,731.7
		c0.4,1.5,2.2,1.7,3.7,2c1.8,0.4,3.6,0.9,5,2.2c2.4,2.1,2.6,3.9,0,6c-1.7,1.5-2.1,2.8-1.5,4.8c1,3.3-1,4.9-3.5,6.3
		c-6.6,3.6-13.6,4.2-20.2,1c-5.4-2.7-9.9-3.1-14.8,0.8c-3.2,2.5-7.3,2.7-11.3,2.4c-7.5-0.4-14.7-1.5-20.3-7.5c-2.6-2.8-6-4-10.1-3.8
		c-5.9,0.2-6,0-7.3-5.7c-0.7-2.9-2.2-4.4-5.1-4.3c-3.3,0.1-6.1-0.3-7.8-3.7c-0.9-1.8-3-2-4.8-2.5c-1.2-0.4-2.4-0.9-2.4-2.4
		c-0.1-1.7,1.2-2.5,2.6-3c1.8-0.7,3.7-0.5,5.5-0.5c2.4,0,4.6-0.6,5.6-3c1.7-3.9,4.9-4.7,8.7-4.6c1.8,0,3.8-0.1,5.5,0.3
		c3.7,0.9,6.8,1,9.1-2.9c1-1.6,3.2-1.8,5-2c3.5-0.3,7-0.1,10.5,0.5c2.8,0.5,4.9,1.4,6.4,4.2c2.1,3.8,3.3,4.2,7,2.4
		c3.5-1.6,7-2.2,10.7-2.8c4.7-0.8,8.6-0.1,11.4,4.1c0.3,0.5,0.8,1.1,1.3,1.3C861,722.9,865.1,725.8,866.6,731.7z M986.9,722.3
		c-0.6,1.1-1.7,1-2.7,0.8c-6.5-1.2-13-2.5-19.5-3.6c-12-2-24-4-36-5.9c-1.6-0.3-3.3-0.2-4.4-1.7c5.5-5.7,15.2-6.1,20.3-0.8
		c3.7,3.8,3.8,3.9,8.3,1.8c3.6-1.7,7.1-1.7,10.9-0.9c5.2,1.1,10.1,3.3,15.6,3.5c2.7,0.1,4.9,2,6.8,4
		C987,720.3,987.4,721.3,986.9,722.3z M1051.2,729.6c-2.3,5-2.8,5.2-8.1,4.2c-8.3-1.5-16.7-3-25-4.7c-4.4-0.9-4.8-1.8-2-5.1
		c18.7-22.5,29.5-48.9,38.1-76.6c4.5-14.4,7.6-29.1,10.1-44c0.1-0.8,0.4-1.5,0.9-3c4.4,2.2,6.8,5,7.4,9.2c2.1,12.5,3.1,25,2,37.6
		c-1.8,20.5-6.6,40.3-13.9,59.5C1057.9,714.5,1054.6,722.1,1051.2,729.6z M1162.2,763c-0.5,0.7-1.2,1.2-2.1,1c-1-0.2-2-0.5-3-0.8
		c-23.1-7.2-46.5-13.1-70-18.8c-0.2,0-0.4-0.1-0.6-0.1c-4.6-1.1-6-2.3-5.9-5.1c0.2-3.5,3.1-6.3,6.9-6.6c0.6,0,1.2,0,2,0
		c3.1-0.1,6.2,0.8,8.2,3.3c2.7,3.5,5.6,4.4,9.7,2.6c4.4-2,8.5,0.1,12.5,1.8c1.7,0.7,2.3,2.3,2.8,3.9c0.6,2,2,3.3,4.1,3.2
		c4.8-0.4,8.4,2.1,11.4,5.3c3.1,3.2,6.4,4,10.6,2.7c5.6-1.7,9.3,2,13,5.3C1162.5,761.3,1162.7,762.1,1162.2,763z M766.5,442.2
		C766.5,442.3,766.5,442.3,766.5,442.2C766.5,442.3,766.5,442.3,766.5,442.2L766.5,442.2z"/>
	<path class="st1" d="M698.1,606.5c-2.2-6.1-6.6-10.3-12.4-13.1c-3.8-1.9-7.4-1.8-11.1,0.6c-6.9,4.4-14.5,7-22.7,7.2
		c-2.7,0.1-4,1.3-4.5,4c-1,5.5-1.2,11.1-1.2,17.3c0.1,3.6-1,7.8-0.4,12.2c0.6,4.3,0.4,8.6,0.6,13c0.3,5.6,1.4,11,2.4,16.5
		c0.6,3,2.3,4.5,5.3,5.1c9.1,2,16.7-1,21.1-8.8c4.6-8.2,3.7-14.7-3.1-21.8c-3.3-3.5-6.9-6.5-11.4-8.4c-1.6-0.7-2.9-1.8-2.5-3.8
		c0.3-1.8,1.8-2.8,3.5-3.1c1.4-0.3,2.9-0.4,4.3-0.4c3.7-0.1,7.4,0,11.1,0c5.7-0.1,11-1.5,16.1-4C698.4,616.2,700.1,612,698.1,606.5z
		 M661.1,660.1c0.1,2.9-1.5,5-4,5.2c-3,0.3-5.7-2-5.9-5c-0.2-3,2.3-5.7,5.2-5.7C658.9,654.7,661,657,661.1,660.1z M658.7,646.8
		c-0.1,3.4-2,5.7-4.6,5.5c-2.7-0.2-5.4-3.2-5.2-6c0.2-2.8,2.5-5.4,5-5.5C656.7,640.6,658.8,643.2,658.7,646.8z"/>
	<path class="st1" d="M627.3,606.1c-0.2-3.2-1.7-4.8-5-5c-8.8-0.5-17-3.2-24.4-8.1c-1.4-0.9-2.9-1.7-4.6-1.2
		c-7.6,1.9-13.6,6-16.5,13.6c-2.7,7.1-0.8,11.3,6.2,14.4c2.5,1.1,5,1.9,7.7,2.4c5.5,1.2,11.1,0.7,16.7,0.8c2.1,0.1,4.2-0.2,6.1,0.6
		c3.1,1.2,3.5,4.2,0.8,6.2c-1.3,1-2.9,1.6-4.3,2.4c-4.4,2.2-7.7,5.5-10.3,9.6c-4.2,6.6-4.2,13.3,0.2,19.8c4.3,6.4,10.3,9.3,18.1,8.1
		c6.3-1,7.2-1.6,8.3-8.1c1.8-10.4,2.7-20.9,2.5-32.6C629.2,622.1,627.8,614.1,627.3,606.1z M623.2,660.8c-0.2,2.5-3,4.7-5.7,4.5
		c-2.8-0.2-4.8-2.6-4.5-5.6c0.3-2.9,2.7-5.2,5.2-5C620.9,654.8,623.5,658,623.2,660.8z M620.3,652.3c-2.8,0.1-4.9-2.4-5-5.8
		c0-3,1.9-5.5,4.4-5.7c2.7-0.2,5.2,2.3,5.4,5.5C625.3,649.5,623.2,652.1,620.3,652.3z"/>
	<path class="st1" d="M780.6,558.8c-16.5,17.4-35.5,31.4-56.8,42.3c-3.7,1.9-7.1,4.2-10.6,6.3c-3.9,2.3-5.2,5.6-4.1,10
		c2.8,10.5,3,21.2,2.7,32c-0.1,5-1,9.8-1.2,14.8c-0.2,3.6-2.1,5.8-5.4,6.7c-9.5,2.8-19.1,1.5-29.8,1.7c10.3-14,11.8-26.9-0.4-39.2
		c1.2-2.1,3-1.4,4.5-1.5c5.7-0.1,11-1.5,16-4.2c10.8-5.8,14-15.7,8.4-26.6c-0.8-1.5-1.7-2.8-2.7-4.2c-1-1.5-1-2.8,1-3.3
		c9.9-2.6,18-8.1,24.6-15.8c1.5-1.8,3.6-2.8,5.8-3.3c12.7-3,26.4-22.2,25-39c-0.1-1.8-1.3-3.6,0.3-5.6c2.8,0,4.7,2.2,6.7,3.8
		c6,4.7,11.4,10.1,16.5,15.9C785,554,784.7,554.5,780.6,558.8z"/>
	<path class="st1" d="M597.4,669.9c0.8,1.4,0.3,2.5-1.3,2.6c-9.3,0.2-18.6,1-27.6-1.9c-2.4-0.8-3.9-2.3-4.4-4.7
		c-0.3-1.6-0.7-3.2-0.7-4.9c-0.4-14.6-1.8-29.3,1.9-43.7c1.2-4.4-0.5-7.5-4.1-10c-7-4.8-14.6-8.5-22-12.7
		c-17.4-9.9-32.6-22.4-46.1-37.1c-3.1-3.3-3-3.6-0.2-7.3c5.5-7.4,12.8-12.9,19.7-18.7c0.9-0.8,2.1-1.7,3.3-1.2
		c1.8,0.7,1.3,2.4,1.3,3.8c-0.5,8.9,0.9,17.3,6,24.8c5,7.3,10.8,13.6,19.7,16.1c2.2,0.6,4,1.9,5.6,3.7c6,7.1,13.5,12,22.4,14.8
		c3.5,1.1,3.5,1.5,1.8,4.7c-1.1,2-2.3,4-3.1,6c-3.7,9.5-0.1,18.9,9.1,23.5c5,2.5,10.3,4.2,16,4.2c1.4,0,2.9-0.4,4,0.8
		c0.4,1.3-0.5,2-1.1,2.7c-10.4,12.2-7.1,22.3-2.1,31.3C595.8,668,596.7,668.8,597.4,669.9z"/>
	<path class="st1" d="M1074.7,647.3c-1.8,20.5-6.6,40.3-13.9,59.5c-2.9,7.7-6.2,15.3-9.6,22.8c-2.3,5-2.8,5.2-8.1,4.2
		c-8.3-1.5-16.7-3-25-4.7c-4.4-0.9-4.8-1.8-2-5.1c18.7-22.5,29.5-48.9,38.1-76.6c4.5-14.4,7.6-29.1,10.1-44c0.1-0.8,0.4-1.5,0.9-3
		c4.4,2.2,6.8,5,7.4,9.2C1074.7,622.1,1075.8,634.7,1074.7,647.3z"/>
	<path class="st2" d="M814.8,357.3c-7.4-13-17.7-23.4-30.7-30.8c-4.5-2.5-6.8-5.4-6.3-10.7c0.6-6.7-1.3-13.1-3.6-19.3
		c-6.7-18-19-31.8-33.5-43.7c-10.8-8.8-23.2-14.9-35.8-20.7C670,216.4,634,214.1,597,222.5c-14.8,3.4-28.4,9.8-41.9,16.6
		c-18.3,9.2-33.5,21.8-45.1,38.7c-8.3,12.1-14.2,25.2-13.9,40.3c0,3.5-1.2,5.8-4.4,7.4c-2.6,1.3-5,3-7.3,4.7
		c-21,15.9-35.4,35.4-33.1,63.3c1.6,19.5,11.2,34.3,28.7,43.4c6.6,3.4,14,4.8,21.4,6.1c2.4,0.4,4.4-0.2,6.3-1.7
		c11.2-8.5,23.6-13.5,37.9-12.6c0.9-1.9,2.1-3.5,3.7-4.7c0.5-2.8,2.5-4.8,4.5-6.5c11.6-9.6,23.5-18.8,37.8-24.4
		c11.9-4.7,24.3-6.7,36.9-7.4c17.2-0.9,34.3,0.4,50.7,6.3c17,6.1,31.4,16.3,44.2,29c1.5,1.5,2.8,3.1,3.3,5.2
		c0.4,0.4,0.8,0.8,1.2,1.2c2.2,1.4,4.7,1.2,7.1,1.3c10.1,0.6,19,4.5,27.5,9.6c1.6,1,2.8,2.3,3.8,3.9c2.4,0.7,4.7,1.2,7.3,0.7
		c5.7-1.1,11.3-2.4,16.8-4.4c11-3.9,19.2-11.4,24.9-21.2C827.1,397.3,826.1,377.2,814.8,357.3z M675.2,334c-1.3,1-2.6,2-4,3
		c-1.8,1.3-2.4,3-2.5,5.3c-0.1,8.7-6.8,12.3-14.3,7.9c-0.9-0.5-1.7-1.2-2.5-1.8c-3.6-2.6-3.7-2.7-5.6,1.3c-1.9,3.9-4.7,6-9.2,6
		c-4.5-0.1-7.2-2.5-9.1-6.3c-1.9-3.6-2-3.7-5.1-1.3c-2.5,1.9-5.1,3.5-8.3,3.7c-5.4,0.4-9-2.2-9-7.7c0-4.6-2-7.1-5.5-9.6
		c-10.2-7-15.5-16.8-15.9-28c0.5-14.4,5.7-25.1,16.2-33.2c11.7-9,25.2-11.8,39.6-11.1c4.9,0.2,9.9,0.6,14.7,1.9
		c8,2,15.1,5.7,21.4,10.8C691.8,287.8,697.9,316.9,675.2,334z M766.5,442.3C766.5,442.3,766.5,442.3,766.5,442.3
		C766.5,442.3,766.5,442.2,766.5,442.3L766.5,442.3z"/>
	<path class="st1" d="M676.1,274.9c-6.3-5.2-13.4-8.8-21.4-10.8c-4.8-1.2-9.8-1.6-14.7-1.9c-14.4-0.7-27.9,2-39.6,11.1
		c-10.5,8.1-15.7,18.8-16.2,33.2c0.4,11.2,5.7,21,15.9,28c3.5,2.4,5.5,5,5.5,9.6c0,5.4,3.6,8.1,9,7.7c3.2-0.3,5.8-1.8,8.3-3.7
		c3.1-2.4,3.2-2.3,5.1,1.3c2,3.7,4.6,6.2,9.1,6.3c4.5,0.1,7.3-2,9.2-6c1.9-4,2.1-3.9,5.6-1.3c0.8,0.6,1.6,1.3,2.5,1.8
		c7.6,4.4,14.2,0.8,14.3-7.9c0-2.3,0.7-4,2.5-5.3c1.3-1,2.7-2,4-3C697.9,316.9,691.8,287.8,676.1,274.9z M618.3,319.8
		c-5.3,2.2-11.2,0.9-15.9-3.5c-9.8-9.3-4.9-23.6,3-29.1c6.2-4.3,17.3-1.2,20.1,4.7c1.9,4,3.4,8.3,3.5,13
		C629.1,311.7,625.4,316.7,618.3,319.8z M667.8,319.3c-5.9,3-11.2,1.5-16.1-2.2c-5.4-4.1-7.9-9.2-6.3-16.1c1.6-6.7,4-12.6,11.2-15
		c6.3-2.1,11.2-0.7,15.5,4.4c3.4,4.1,5.1,8.5,5.2,15.4C677.2,310.9,674.1,316.1,667.8,319.3z"/>
	<path class="st2" d="M537.1,876c2.7,0.5,5.6-0.3,8.3-2.1c1-0.7,2.2-1.4,3.4-1.5c7.4-0.5,13.5-3.9,19.3-8.2
		c3.7-2.7,8.3-3.7,12.8-4.2c2.4-0.3,4.3-1,5.9-2.9c8.2-10,19.4-11.9,31.4-10.5c5.1,0.6,10.2,1.9,14.6,4.8c3,2,5.3,1.6,8.5,0
		c11.6-5.7,23.5-7.4,35.9-2.2c3.5,1.5,6.6,3.5,9,6.4c2.2,2.7,4.9,4,8.5,4.5c6.9,0.9,13.2,3.4,18.1,8.5c1.4,1.4,3,2.2,4.9,2.2
		c0.4,0,0.8,0,1.2,0.1c8.9,2,17.5,5,26.7,6.2c9.2,1.3,11.6,6.3,10.5,15.7c-0.3,2.5,0.4,4.3,1.8,6.2c4.5,6.2,3.6,10.6-2.7,15.1
		c-5.5,4-10.6,8.6-17.8,9.5c-1.9,0.2-3,2-4.3,3.4c-5.9,6.5-12.8,11.1-21.9,11.2c-2.3,0-4.4,1.1-6.4,2c-6.7,3.1-13.6,4.5-21.1,3.2
		c-6.7-1.1-13.5-1.2-20,2.2c-3.1,1.6-6.8,2.3-10.2,2.1c-6-0.3-11.9,0.2-17.9,0.1c-4.3-0.1-8.6-0.5-12.9,0c-4.2,0.4-8.3-0.5-12.1-2.3
		c-6.5-3.1-13.2-3.2-20-2c-6.8,1.2-13.1,0.2-19.3-2.5c-3.6-1.6-7.3-2.7-11.3-3.1c-7.1-0.7-12.9-4.3-17.5-9.6
		c-2.7-3.2-5.7-5.1-9.8-5.9c-7.5-1.6-12.4-7.2-17.6-12.1c-2.6-2.4-2.4-6.2,0.5-9.6c2.7-3.2,3.1-6.2,2.7-10.2
		c-0.9-7.9,2.2-11.4,10.9-13.9C531.6,876.1,534.1,875.9,537.1,876z M539.6,917.6c-0.9-1.4-1.2-2.1-1.7-2.8
		c-4.2-6.4-4.3-10.9-0.1-17.2c1.9-2.8,4.2-5,7-6.9c7.5-5.1,15.8-7.9,24.6-9.9c10.5-2.3,21.2-3.7,31.9-4.4c9.8-0.6,19.7-2.1,29.6-0.8
		c5.7,0.7,11.5,0.4,17.3-0.3c2.2-0.3,4.5-0.4,6.8-0.2c8.9,0.6,17.7,1.3,26.5,2.1c10.3,0.9,20.5,2.5,30.4,5.4
		c8.4,2.5,16.2,6.2,22.4,12.6c5.5,5.7,6.3,11,2.9,18c-0.6,1.3-1.8,2.3-1.4,3.9c5.2,1.4,7,1.1,10.2-1.6c1.9-1.6,3.6-3.4,5.6-4.8
		c5.5-3.9,5.8-5.1,0.5-9.6c-2.9-2.4-3.3-4.6-2.2-8c1.8-5.5,0.2-8.4-5.2-10.7c-2.5-1.1-5.2-1.6-7.9-0.8c-2.8,0.8-5.2,0.1-7.7-1.2
		c-4.3-2.3-8.7-3.4-13.7-2.3c-4.1,1-5.6,0.1-7.2-3.9c-1.2-3.3-3.5-4.9-6.5-6.1c-3.7-1.6-7.5-1.9-11.5-1.1c-4.5,0.9-5.5,0.3-7.2-3.7
		c-2.1-5-5.8-7.8-10.9-9.3c-10.6-3.1-20.6-1.5-29.7,4.2c-4.2,2.6-7.1,2.4-11.2-0.1c-9.2-5.8-19.2-7.3-29.7-3.9
		c-4.8,1.6-9.1,3.9-10.7,9.4c-0.9,3.1-3.3,4-6.3,3.6c-0.8-0.1-1.6-0.4-2.4-0.5c-7.5-1.1-13.1,1.6-16.7,8.5c-1.7,3.2-4.1,3.8-7.2,3.1
		c-3.3-0.8-6.7-1.1-9.7,0.4c-4.7,2.4-9.3,4-14.7,2.7c-2.2-0.5-4.4,0.8-6.4,1.9c-3.7,2.1-5.3,4.9-3.6,8.8c2.1,4.5,1.1,7-2.9,9.8
		c-3.6,2.4-3.2,5.4,0,8.2c1.9,1.6,3.9,3,5.7,4.7C530.3,918.1,534.3,918.9,539.6,917.6z M609,936.1c5.5,3.8,10.1,5.1,15.4,5
		c8.4-0.1,16.8,0.2,25.2,0c5.1-0.1,10.4-0.5,15.5-5C646,936.1,628.1,936.1,609,936.1z M545,921.8c3.3,7.2,9.2,11,17.1,11.2
		c3.8,0.1,7.2,1,10.7,2.4c7.3,2.9,14.8,3.8,22.5,0.7C578.1,932.7,560.9,929.7,545,921.8z M729.2,922c-15.7,7.8-32.8,10.7-49.6,14.2
		c7.7,2.5,15.1,2.3,22.3-0.9c3.4-1.5,6.9-2.2,10.7-2.4C720,932.6,725.7,929,729.2,922z"/>
	<path class="st1" d="M370.8,264.2c-0.5-3.3-1.3-6.5-2.7-9.5c-2.4-5.5-4.5-11.1-7-16.5c-1.1-2.5-1.1-4.5,0.3-7
		c3.8-7.2-0.2-20-7.3-23.8c-0.7-0.4-1.6-0.8-2.3-0.7c-4.7,0.4-6.3-2.8-8-6.3c-7.8-16-17.5-30.8-27.5-45.5c-2.3-3.4-5.2-6.4-8.5-8.9
		c-8-6.1-17.3-4.8-23.3,3.2c-1.4,1.8-2.5,3.8-3.8,5.7c-9.3,14-15.5,29.6-21.4,45.2c-4.8,12.7-9.5,25.5-11.9,39
		c-1.9,10.8,1.7,22.4,17.5,24.8c9.2,1.4,18,0.8,26.9-1.5c6.2-1.6,7.4-1,9,4.9c2.4,9.1,7.1,17.1,11.8,25.1c3.4,5.8,8.5,8.9,15.4,8.6
		c16.1-0.7,28.6-8.3,38.7-20.4C370.7,275.7,371.8,270.2,370.8,264.2z M292.8,224.5c-1.7,1.2-3.7,1.8-5.7,2.2
		c-5.4,1.2-6.8,0.1-6.5-6.7c0.5-2.2,1.1-5.9,2.2-9.4c1.2-3.8,3.7-4.4,6.4-1.7c3.1,3.2,4.7,7.2,5.6,11.4
		C295.1,222.1,294.2,223.5,292.8,224.5z"/>
	<path class="st1" d="M450.2,191.5c-0.2-2.5-0.6-4.9-0.9-7.4c-4.1-28.7-15.8-53.7-37.3-73.5c-7.6-7-16-12.3-26.2-14.7
		c-5.9-1.4-11.8-1.3-17.7,0.5c-10.8,3.3-17.2,11.1-21.1,21.1c-4.7,12-6,24.6-4.3,37.2c3.5,26.2,13.1,49.9,31.5,69.3
		c7.5,7.9,15.8,15,26.5,18.8c15.3,5.4,38.1-0.8,45.3-19.7c3.2-8.3,4-16.8,4.2-25.5C450.2,195.7,450.4,193.6,450.2,191.5z
		 M392.1,184.1c-8.8-3.8-12.7-11.5-14.2-20.4c-0.8-4.9,3.1-8.7,8-9c0.8,0,1.6,0,2.5,0.1c8.3,1.2,17.3,11.7,17.2,20.1
		C405.5,183.6,400,187.6,392.1,184.1z"/>
	<path class="st1" d="M545.6,136.8c-2.1-4.7-3.9-9.6-6.8-13.9c-2.6-3.8-3.2-7.6-1.8-12.2c2.5-8.1-5.3-19.8-13.7-21.3
		c-1-0.2-2.2-0.3-3,0.1c-3.9,1.9-6.1-0.2-8.2-3.2c-7.2-10.1-15.8-19.1-24.5-27.9c-5-5.1-10.2-10.1-16.7-13.7
		c-9.2-5.1-15.7-4.1-22.2,4.2c-4.4,5.6-7.5,12-8.9,18.9c-2.9,14.5-6.1,29.1-5.8,44.1c0,1.9,0,3.7,0,5.6c0.3,7.7,1,15.3,3.3,22.6
		c3.5,11.4,11.7,16.4,23.6,15.1c5.6-0.6,10.9-2.2,16.2-3.9c8.3-2.8,8.4-2.7,12.3,4.9c3.3,6.4,6.9,12.7,11.8,18
		c5.1,5.6,11.1,6.7,18,4.1c8.8-3.2,15.7-8.9,22.1-15.5C548.9,155.3,550,146.6,545.6,136.8z M474.8,118.4c-1.6,1.7-3.5,2.8-5.8,3.3
		c-3.8,1-5.9-0.1-7-3.9c-0.7-2.4-0.5-4.9-0.4-7.3c0-1.4-0.1-2.9,0-4.3c0.5-4.4,2.6-5.5,6.1-3.2c3.1,2,5.8,4.6,7.9,7.7
		C477.7,113.9,477.4,115.6,474.8,118.4z"/>
	<path class="st0" d="M1128.7,822.6c0.1,6-0.4,11-3,15.3c-1.7,2.7-1,4.5,1.3,6.4c3.3,2.7,5.6,6.1,6.5,10.3c0.5,2.5,1.9,3.8,3.9,5.2
		c5.5,3.6,6,7.7,1.7,12.9c-5.7,7-13.6,9.9-22.2,10.9c-4.6,0.6-9.2,0.1-13.2-2.4c-3.3-2.1-5.5-1.1-8.1,1.3c-4.9,4.5-10.4,8.1-17,9.9
		c-2.9,0.8-5.8,1.1-8.4-0.4c-2.7-1.6-5.4-1.6-8.3-0.9c-2,0.4-4.1,0.3-6.2,0.4c-9.2,0.2-18.4-1.7-27.7-0.1c-4.4,0.7-8.6-0.7-12.5-2.9
		c-2.6-1.5-5.3-2.4-8.3-2.1c-9.7,0.9-18.4-1.9-26.7-6.6c-4.3-2.4-8.6-3.7-13.5-3.5c-5.5,0.2-10.6-1.4-15.3-4.3
		c-8-4.9-15.9-9.7-20.6-18.2c-1-1.8-2.9-2.2-4.8-2.5c-9.1-1.1-16.8-5.7-24.6-9.8c-0.4-0.2-0.8-0.4-1-0.7c-3.9-5.4-10.2-7.4-15.4-11
		c-8.8-6.1-10-16.5-2.5-24.4c2.5-2.6,3.7-5.3,4.7-8.8c2.5-8.7,8.1-15.1,18.7-14.9c5.2,0.1,10.3,0.3,14.9,3.1
		c2.9,1.8,4.7,0.8,6.7-1.7c5.7-7.5,12.9-13.3,21.7-17c6.4-2.7,13.2-3.7,20-3.5c7,0.2,14,0.7,20.9,2.4c4.9,1.2,9.6,2.6,12.7,7.1
		c1.6,2.4,3.8,2.6,6.6,1.8c15.8-4.4,29.3,0,40.5,11.5c1.9,1.9,3.6,2.2,6,1.9c8.1-1.1,16.1-0.6,23.7,2.8c4.2,1.8,8.4,3.6,11.3,7.4
		c1.4,1.8,3.2,2.7,5.4,1.7c8.1-3.9,15.2-1.8,21.9,3.4C1125.3,807.7,1129.7,814.3,1128.7,822.6z M1113.2,876c7.2-0.1,12.9-2,17.9-6
		c1.5-1.2,2.2-2.9-0.2-3.7c-3.5-1.2-4.5-3.6-4.9-7c-0.7-6.3-5.4-10.6-11.9-11.6c-1.6-0.2-3.4-0.2-4.9-0.7c-3.5-1.2-4.2-5-1.3-7.3
		c1.2-1,2.9-1.6,4.4-2.2c2.2-0.9,4-2,5.2-4.2c2.4-4.4,3.8-14.8-1.3-20.5c-5.9-6.5-10.9-9.2-19-5.8c-0.4,0.2-0.8,0.3-1.2,0.4
		c-4.1,1.1-5.3,0.7-7.8-3c-1.2-1.7-2.1-3.7-4-4.6c-9.5-4.9-19.2-7.7-29.5-2.4c-0.7,0.4-1.4,0.8-2.2,1.2c-5.6,2.3-9.1,0.8-11-4.8
		c-0.8-2.2-1.6-4.3-3.7-5.5c-5.2-3.1-10.6-5.4-16.7-6.1c-4.9-0.6-8.7,1.4-12.5,4.2c-4.9,3.5-7.9,2.3-10.1-3.1
		c-0.3-0.8-0.6-1.6-0.8-2.3c-1.5-5-4.8-7.8-9.9-9.2c-8.3-2.4-16.8-2.2-25.2-1.9c-11.9,0.4-25.9,9.7-31.2,20.4
		c-1.6,3.3-2.8,4-6.4,2.8c-2.7-0.9-5.3-2.3-7.9-3.5c-5.8-2.8-11.7-2.6-17.4,0.1c-5.1,2.4-5.9,6.2-2.5,10.6c2.2,2.8,1.8,4.9-1.4,6.3
		c-1.5,0.7-3.2,1-4.7,1.6c-6.5,2.7-8.1,12.1-1.7,16c3,1.8,6,3.7,9.6,4c2.8,0.2,4.7,1.5,5,4.5c0.2,1.5,0.6,3,2,3.7
		c7.6,4,14.9,9.1,24.3,7.7c5.2-0.8,5.9-0.2,7.1,5.1c0.7,3,2,5.5,4.3,7.3c5,3.7,10,7.3,15.5,10.2c4.2,2.1,8.6,3.1,13.2,2.2
		c3.1-0.6,5.5,0,8,1.9c8.2,6.1,17.7,8.9,27.8,9.3c4.5,0.2,8.5,0.9,12.4,3.1c3.7,2.2,7.9,2.7,12,1.3c4.6-1.6,9.2-1.4,14-0.9
		c6.7,0.6,13.6,1.8,19.9-2.1c2.2-1.4,4.4-0.1,5.9,1.9c2.4,3.3,5.4,3.2,8.9,2c5.2-1.8,9.7-4.8,13.4-8.7c4-4.2,7.8-4.7,12.7-2
		C1108.1,875.6,1111,876.2,1113.2,876z"/>
	<path class="st0" d="M246.1,891.4c-12-2.9-24.3,1.8-36.3-1c-1.5-0.3-2.8,0.3-4.2,0.8c-6.1,2.5-11.8,1.3-17.2-2
		c-3.5-2.1-7.1-4.4-9.9-7.4c-2.1-2.3-4.1-2.7-7-1c-11.4,6.7-26.3,0.8-34-5.6c-1.8-1.5-3-3.4-4-5.5c-1.7-3.8-1.1-7,2.4-9.2
		c3.3-2,5-4.6,5.9-8.2c0.7-2.9,2.8-5.1,4.9-7c2.6-2.4,3.5-4.8,1.7-8.2c-3.7-7-2.5-14.5-2-21.9c0.1-1.9,0.9-3.6,2.2-5.1
		c3.5-4.1,7.1-8.1,11.9-10.8c3.9-2.3,8.2-3.5,12.5-1.9c5.2,1.9,8.7,0.8,13.2-2.8c8.7-6.9,19.3-9.3,30.4-7.6c4,0.6,5.9-0.8,8.9-3.3
		c10.9-9.5,23.6-14.5,38.3-10.3c3.7,1.1,6,1.2,8.3-2.3c2.1-3.2,5.5-4.8,9.3-5.7c11.4-2.6,22.8-4,34.4-2.1
		c11.6,1.8,20.5,8.2,28.4,16.4c0.9,0.9,1.5,1.9,2.3,2.9c1.9,2.5,4.2,3.2,7,1.6c4.5-2.6,9.4-2.8,14.4-2.7c10.1,0.2,17.3,6,19.1,15.8
		c0.5,2.8,1.4,5,3.7,6.8c4,3.1,5.3,7.8,6,12.5c0.5,3-0.4,5.8-2.4,8.1c-1.5,1.7-2.9,3.8-4.9,4.7c-8.9,4.3-15.6,12-24.6,16.2
		c-5.1,2.4-10.2,4.7-15.8,5.3c-3.2,0.4-5,1.9-6.8,4.5c-7,9.7-16.8,15.7-27.8,19.8c-3.2,1.2-6.5,1-9.8,0.9c-3-0.1-5.6,0.7-8.2,2.2
		c-8.9,5.1-18.2,8.8-28.8,7.9c-3.2-0.3-6.1,0.6-8.9,2.2C254.7,890.6,250.6,891.6,246.1,891.4z M141,866.9
		c7.1,8.6,18.3,11.6,27.5,7.3c5.5-2.6,9.7-2.2,13.7,2.5c3.4,3.9,7.8,6.8,12.8,8.4c3,1,5.7,0.8,7.9-1.8c2.5-3,5.2-3.8,8.6-1.4
		c1.9,1.4,4.2,1.6,6.5,1.6c4.3,0.1,8.7,0.2,13-0.6c3.7-0.7,7.4-0.6,11,0.7c4.9,1.8,9.8,1.5,14.3-1.2c3.5-2.1,7.2-2.7,11.2-2.8
		c10.4-0.3,19.9-3.4,28.2-9.7c2.4-1.8,4.7-2.2,7.5-1.6c4.6,1,9,0.2,13.2-2c5.9-3,11.4-6.7,16.4-11.1c2.2-1.9,3.8-4.2,4.3-7.3
		c0.8-4.7,1.4-4.9,6.3-4.3c3.3,0.4,6.6,0.5,9.8-0.8c4.7-2.1,9.4-4.2,14.2-6.3c1.6-0.7,2.8-1.7,2.8-3.7c-0.1-3.5,2.2-4.7,5.1-5.1
		c4.2-0.6,7.8-2.7,11.1-5.2c2.6-2,3.3-4.6,2.4-7.7c-1.3-4.6-4.2-7.2-9-8.2c-4.8-1-5.4-3.4-2.5-6.9c3.1-3.8,3.1-5.2-0.4-8.6
		c-2.3-2.3-5.1-3.5-8.3-3.8c-4.2-0.5-8.2,0.6-12,2.3c-2.6,1.2-5.3,2.3-8,3.3c-1.9,0.6-4,0.5-4.7-1.7c-2-5.6-6.6-8.9-10.7-12.6
		c-5.1-4.7-11.2-8.1-18.2-8.7c-8.8-0.8-17.7-0.8-26.5,1.1c-6.3,1.3-10.3,4.5-12.4,10.7c-2.5,7.2-5.5,8.3-11.3,3.8
		c-4.6-3.5-9.5-4-14.6-3.1c-3,0.5-5.9,1.9-8.8,3c-4.2,1.7-7.4,4.1-8.7,8.9c-1.1,4.3-3.6,5.5-8,5.1c-1.9-0.2-3.5-1-5.2-1.8
		c-11.9-5.9-25.4-3-33.9,7.4c-1.9,2.4-4,3.4-7,2.4c-1.4-0.4-2.8-0.9-4.2-1.3c-4.8-1.3-8.7-0.1-12.7,2.9c-6.2,4.7-7.6,10.8-6.9,18.1
		c0.5,5,2.4,8.7,7.4,10.4c1.4,0.5,2.8,1,3.9,1.9c3.1,2.5,2.5,6.5-1.4,7.7c-1.7,0.5-3.7,0.4-5.5,0.7c-5.6,0.8-10.9,5.3-11.3,10.7
		C147.7,863,146.1,865.9,141,866.9z"/>
	<path class="st0" d="M431.9,468.3c-0.9,0-2.1,0-3.4,0c-6.8-0.1-6.8-0.1-8.3,6.8c-1.9,8.8-7.7,14.2-16.5,15.3
		c-7.7,1-15-2.8-18.7-10.4c-1.6-3.3-3.3-5.2-7.2-5.6c-8.1-0.9-12.8-6.5-15.6-13.5c-4.9-12.1-3.6-23.5,5.6-33.3
		c1.9-2.1,2-3.3,0.7-5.8c-8.5-16.8,1.3-33.4,16.3-38.6c8.2-2.8,16.3,0.3,24,3.6c1.1,0.5,2.2,1.1,3.2,1.8c2.3,1.6,4.5,1.7,6.9,0.1
		c11-7.3,21.8-0.3,27.5,7.2c6.7,8.8,6.1,21-1.3,29c-3.7,4-3.7,4.7,0.4,8.2c2.2,1.8,4.7,3.4,7,5.1c1,0.8,2.1,1.8,1.2,3.1
		c-0.8,1.2-2.2,0.9-3.4,0.5c-0.6-0.2-1.2-0.4-1.7-0.7c-7.1-3.9-14-8.1-19.4-14.2c-0.4-0.5-0.9-0.9-1.2-1.4c-1.2-1.8-3.5-3.7-1.4-5.9
		c1.9-2,3.7,0.1,5.4,1.3c4.5,3.1,5.9,2.8,8.6-1.9c5.6-9.8,2.9-20.1-6.7-25.5c-5.2-2.9-11.5-0.9-14.1,4.5c-0.2,0.4-0.3,0.8-0.4,1.2
		c-0.6,2.1-1.5,4-4.1,3.8c-2.2-0.1-2.9-2-3.6-3.8c-4.5-11.3-20.6-15.1-29.9-7.2c-5.3,4.5-9,9.6-8.6,16.9c0.3,5.7,2.6,10.3,7.6,13.4
		c0.9,0.5,1.8,1,2.7,1.6c1.4,1,2.4,2.3,1.9,4.2c-0.5,1.9-2,2.8-3.7,2.7c-4.5-0.5-8.3,0.8-10.7,4.7c-2.8,4.7-4.3,9.7-3,15.4
		c1,4.2,3,7.7,5.7,10.8c2.8,3.1,6.1,4.6,10.5,3.5c4.9-1.2,5.5-0.5,5.5,4.2c0,5.7,2.6,9.7,7.5,11.5c4.4,1.6,9.1,0.1,12.6-4.2
		c0.8-0.9,1.5-2,2.1-3.1c2-3.6,1.8-4.2-2.3-5.4c-2.1-0.6-4.2-1.2-3.9-3.9c0.4-2.4,2.5-3.1,4.6-3.4c3.9-0.5,7.9-0.5,11.7,0.1
		c5.9,1,11.8,2.3,17.6,3.5c1.4,0.3,3.2,0.7,2.8,2.6c-0.4,1.7-2.1,1.8-3.6,1.7C436.8,468.7,434.5,468.5,431.9,468.3z"/>
	<path class="st0" d="M841.7,468.4c-2.5,0-5,0-7.4,0c-1.1,0-2.1-0.5-2.1-1.8c0-0.9,0.7-1.5,1.5-1.8c1.6-0.5,3.2-0.9,4.8-1.3
		c7.3-1.7,14.6-3,22.1-2.9c1.9,0,3.7,0,5.5,0.7c1.4,0.6,2.6,1.4,2.7,3.1c0.1,1.7-1.1,2.5-2.5,3.2c-1.6,0.8-4.1,0.2-4.7,2.4
		c-0.6,2.7,1.3,4.7,2.7,6.6c3,3.9,7.9,5.5,12.1,4.2c4.6-1.4,7.4-4.9,7.9-10c0.1-1,0-2.1,0.1-3.1c0.3-2.5,1.7-3.8,4.2-3.2
		c3.1,0.7,6.1,1.8,8.9-0.5c3.4-2.8,6.4-5.8,7.9-10.1c1.6-4.9,1.7-9.7,0-14.6c-1.7-5.1-4.7-8.7-10.7-8.5c-1.2,0-2.5-0.2-3.6-0.7
		c-2.8-1.2-3.2-3.8-1-5.9c0.8-0.7,1.7-1.1,2.6-1.7c8.6-5.1,11.2-14.8,6.3-23.5c-7.2-12.6-22.2-15.3-33.3-5.9
		c-1.8,1.5-3.1,3.3-3.5,5.7c-0.3,1.9-1.1,3.7-3.4,3.7c-2.2,0-3.2-1.7-3.9-3.5c-0.3-0.8-0.6-1.6-1-2.3c-2.8-4.9-8.3-6.3-13.3-3.7
		c-10.1,5.3-12.8,18.8-5.6,27.7c1.5,1.9,3.1,2.6,5.3,1.1c1.2-0.8,2.3-1.8,3.6-2.5c1.3-0.7,2.7-1.3,3.9,0.1c1.1,1.3,0.7,2.8-0.1,4
		c-1,1.5-2.1,3.1-3.5,4.3c-5.3,4.9-11.3,9-17.7,12.5c-0.5,0.3-1.1,0.6-1.7,0.7c-1.4,0.4-3,1.2-3.9-0.5c-0.7-1.4,0.5-2.3,1.5-3.1
		c2.1-1.7,4.3-3.3,6.4-4.9c4.4-3.5,4.4-3.5,0.6-8c-10.9-12.6-5.6-32.7,10.1-38.3c5.5-2,10.7-1.3,15.4,1.7c2.8,1.8,4.9,1.6,7.8-0.1
		c6.5-3.8,13.7-6.2,21.2-6.1c8.9,0.1,15.7,5.1,20.4,12.2c5.5,8.3,6.8,17.3,1.9,26.4c-1.7,3.1-1.3,5.1,1.2,7.6
		c9.9,9.9,9.7,27.9,0.9,38.7c-3.2,4-7.2,7.1-12.4,7.4c-3.5,0.2-4.9,2-6.3,4.9c-4.7,9.3-13.5,13.2-22.7,10.3
		c-6.3-2-10.6-6.2-12.5-12.7c-0.2-0.6-0.3-1.2-0.5-1.8c-1.7-6.8-1.7-6.8-8.6-6.8c-1.2,0-2.5,0-3.7,0
		C841.7,468.4,841.7,468.4,841.7,468.4z"/>
	<path class="st0" d="M165.7,905.6c-4.6-0.3-8.2-2.8-10.5-7c-2-3.7,0.3-8.9,4.6-10.7c5.4-2.3,10.6-1.5,15.3,1.8
		c4,2.9,4.3,6.9,1.2,10.7C173.3,903.8,169.8,905.6,165.7,905.6z M166.4,891.5c-3.2-0.1-5.9,1.8-6,4.1c-0.1,2.2,2.9,4.8,5.6,4.8
		c2.6,0,5.7-2.6,5.7-4.7C171.6,893.5,169.2,891.6,166.4,891.5z"/>
	<path class="st0" d="M1109.2,886.6c2.2,0.3,4.5,0.6,6.5,1.8c4.7,2.7,5.5,8.7,1.7,12.5c-6,6-14.6,5.8-19.3-0.5
		c-3.2-4.3-2.3-8.7,2.3-11.4C1103.2,887.4,1106,886.4,1109.2,886.6z M1108.5,891.4c-3.1-0.1-5.9,1.8-6,4.1c-0.1,2.2,2.7,4.8,5.5,4.9
		c2.7,0.1,6.3-2.5,6.4-4.8C1114.5,893.5,1111.8,891.5,1108.5,891.4z"/>
	<path class="st0" d="M636.2,965.5c-0.7-0.2-2.4-0.4-3.9-1c-3-1.2-5.5-2.9-5.8-6.5c-0.2-3.2,2.2-6.5,5.8-7.9c4.1-1.7,8.1-1,11.9,1
		c2.6,1.4,3.7,3.8,3.8,6.6c0.1,3-1.8,4.9-4.4,6.2C641.6,964.9,639.4,965.5,636.2,965.5z M637.3,960.2c1.9-0.3,4.4-0.2,5-3
		c0.4-1.6-2.5-3.8-4.8-3.8c-2.4,0-4.5,0.7-5.2,3.3C631.8,958.5,634.1,960.1,637.3,960.2z"/>
	<path class="st0" d="M829.9,455.9c-1.3,0-2.1-0.2-2.5-1c-0.4-1,0.3-1.6,1-2c1.1-0.6,2.2-1.2,3.3-1.7c6.9-3.2,14.1-5.7,21.3-8.1
		c2.8-0.9,5.6-1.2,8.5-0.8c1.3,0.2,2.6,0.6,2.9,2c0.4,1.7-0.8,2.6-2.1,3.4c-0.7,0.4-1.5,0.7-2.3,0.9c-9.2,2.3-18.4,4.6-27.5,7
		C831.5,455.6,830.4,455.7,829.9,455.9z"/>
	<path class="st0" d="M415.3,441.6c1.8,0.4,4,0.9,6.2,1.5c7.3,2.2,14.4,5.1,21.4,8c0.9,0.4,1.9,0.9,2.7,1.4c0.7,0.4,1.3,1.1,1,2
		c-0.3,1-1.1,1.3-1.9,1.2c-1.8-0.2-3.7-0.6-5.5-1c-7.8-2-15.6-4-23.3-6.1c-0.8-0.2-1.6-0.4-2.4-0.7c-1.8-0.7-3.9-1.5-3.6-3.7
		C410.3,441.7,412.8,441.8,415.3,441.6z"/>
	<path class="st0" d="M986.1,900.7c-3.8-0.3-6.8-2.5-8.8-6.2c-1.2-2.2-0.5-3.9,1.9-4.9c2.6-1,5.3-0.8,7.9-0.8
		c4.4,0.1,7.6,3.1,7.4,6.5C994.3,898.4,990.6,900.8,986.1,900.7z"/>
	<path class="st0" d="M287,900.8c-4-0.1-6.8-2.3-6.9-5.6c-0.1-3.7,2.4-6,6.9-6.1c2.3,0,4.6-0.1,6.8,0.3c3.7,0.7,4.6,3.1,2.7,6.4
		C294.8,898.4,290.4,900.8,287,900.8z"/>
	<path class="st0" d="M502.1,741.2c0.5-0.5,1-1,1.6-1.5c1.4-0.2,2.8-0.7,4.3-0.7c2,0,3.7,0.8,4.4,2.8c0.8,2.2,0.1,4.1-1.5,5.6
		c-2,2-5.6,2.2-8,0.6C499.7,746,500.3,743.7,502.1,741.2z"/>
	<path class="st0" d="M742.4,933.3c-3.4,0-6.1-1.7-6.1-3.9c-0.1-2.4,2.6-4.9,5.4-4.9c3.4-0.1,6.5,2,6.5,4.5
		C748.2,931.4,745.7,933.3,742.4,933.3z"/>
	<path class="st0" d="M532.1,933.3c-3.1,0-5.8-1.9-5.8-4.3c0-2.2,2.7-4.2,5.9-4.4c2.9-0.2,5.7,2,5.7,4.4
		C537.9,931.3,535.3,933.2,532.1,933.3z"/>
	<path class="st2" d="M589.3,453.1c-4.6-1.3-8.2-0.3-11.7,0.4c-2.2,0.4-4.4,1-6.7,1.2c-3.7,0.2-6.8-2.1-7.3-5.3
		c-0.5-2.9,1.1-5.9,4.4-7.4c3-1.4,6.3-2,9.6-2.2c4.7-0.2,9.5-0.3,14.2,0.6c4.3,0.8,8.6,0.6,13,0.7c5.2,0,9.5-2.3,13.6-5.2
		c1.3-0.9,2.6-2.6,4.3-1.3c1.7,1.3,1.4,3.4,0.8,5.1c-1.3,3.7-4,6.2-7.2,8.2c-3.2,2-6.7,3.4-10.3,4.1c-3,0.6-4.4,1.8-3.6,5.1
		c0.9,3.6-0.2,6.9-2.2,10c-1.7,2.8-4.2,4.5-7.5,5c-4.3,0.7-8.6-1.1-10.2-4.2c-1.6-2.9-0.8-7,2.1-10.3
		C585.8,456.2,587.2,455,589.3,453.1z"/>
	<path class="st2" d="M686.1,452.9c0.6,2.6,2.4,3.5,3.6,4.9c3.5,4.3,3.9,8.3,0.9,11.7c-2.9,3.3-9.2,3.8-13.1,0.9
		c-4.2-3.1-5.9-7.2-5.5-12.4c0.4-5.1,0.3-5.2-4.7-6.3c-5.9-1.3-10.9-3.8-14.6-8.5c-1.4-1.8-2.6-3.7-2.4-6.2c0.2-2.6,2.4-3.9,4.2-2.3
		c9.1,8.4,19.8,6.5,30.5,5.3c6-0.6,11.9-0.8,17.8,0.5c2.3,0.5,4.4,1.2,6,3c1.9,2.2,2.5,4.8,1.3,7.5c-1.1,2.6-3.3,3.5-6,3.6
		c-2.3,0.1-4.5-0.6-6.7-1.1C693.9,452.7,690.3,451.9,686.1,452.9z"/>
	<path class="st0" d="M688,478.3c-0.5,0-1.3,0-2.1-0.2c-1.2-0.3-2.6-0.6-2.6-2.1c0-1.7,1.6-1.6,2.7-1.8c5-1.1,9.4-3.1,11.1-8.5
		c0.5-1.5,1.6-2.5,3.3-2c1.9,0.5,2.5,2,2.4,3.8c-0.1,2.4-1.2,4.3-2.9,6C696.7,476.6,692.9,478.2,688,478.3z"/>
	<path class="st0" d="M591.5,475.5c-0.8,2.3-2.5,2.5-4.1,2.7c-5,0.4-9.3-1.3-12.9-4.6c-2-1.9-3-4.4-2.5-7.3c0.2-1.5,1-2.8,2.7-3
		c1.4-0.2,2.5,0.8,2.7,2c1.5,6.4,6.4,8,11.9,8.9c0.6,0.1,1.2,0.4,1.7,0.6C591,474.9,591.1,475.1,591.5,475.5z"/>
	<path class="st0" d="M620.3,652.3c-2.8,0.1-4.9-2.4-5-5.8c0-3,1.9-5.5,4.4-5.7c2.7-0.2,5.2,2.3,5.4,5.5
		C625.3,649.5,623.2,652.1,620.3,652.3z"/>
	<path class="st0" d="M623.2,660.8c-0.2,2.5-3,4.7-5.7,4.5c-2.8-0.2-4.8-2.6-4.5-5.6c0.3-2.9,2.7-5.2,5.2-5
		C620.9,654.8,623.5,658,623.2,660.8z"/>
	<path class="st0" d="M658.7,646.8c-0.1,3.4-2,5.7-4.6,5.5c-2.7-0.2-5.4-3.2-5.2-6c0.2-2.8,2.5-5.4,5-5.5
		C656.7,640.6,658.8,643.2,658.7,646.8z"/>
	<path class="st0" d="M661.1,660.1c0.1,2.9-1.5,5-4,5.2c-3,0.3-5.7-2-5.9-5c-0.2-3,2.3-5.7,5.2-5.7C658.9,654.7,661,657,661.1,660.1
		z"/>
	<path class="st2" d="M834.8,746.1c-11.3-0.8-22.6-0.7-33.7-3.6c-4.7-1.2-9-3.1-12.8-6c-4.3-3.3-4.1-8.2,0.3-11.4
		c2.2-1.6,4.8-2.4,7.5-2.7c19-2.2,37.8-1.4,56.3,4.1c2.4,0.7,4.8,1.4,6.9,2.6c4.8,2.5,5.4,7.4,1.5,11.2c-2.8,2.7-6.4,3.8-10,4.4
		C845.5,745.6,840.2,746.3,834.8,746.1z"/>
	<path class="st2" d="M438.8,746c-4.6,0.2-9.8-0.3-14.9-1.1c-2.9-0.5-5.6-1.5-8.2-2.7c-3-1.5-5-3.8-4.9-7.2c0.1-3.3,2.4-5.1,5.1-6.4
		c1.5-0.7,3.1-1.1,4.7-1.5c18.4-5.4,37.1-7.3,56.2-4.6c2.9,0.4,5.7,0.8,8.2,2.5c4.9,3.3,5,8.6,0.3,12.2c-6.5,4.9-14.3,6.6-22,7.4
		C455.4,745.3,447.4,746.4,438.8,746z"/>
	<path class="st2" d="M629,304.8c0,6.9-3.6,12-10.8,15c-5.3,2.2-11.2,0.9-15.9-3.5c-9.8-9.3-4.9-23.6,3-29.1
		c6.2-4.3,17.3-1.2,20.1,4.7C627.5,295.8,629,300.1,629,304.8z"/>
	<path class="st2" d="M677.3,305.7c-0.1,5.2-3.2,10.4-9.5,13.5c-5.9,3-11.2,1.5-16.1-2.2c-5.4-4.1-7.9-9.2-6.3-16.1
		c1.6-6.7,4-12.6,11.2-15c6.3-2.1,11.2-0.7,15.5,4.4C675.5,294.4,677.2,298.9,677.3,305.7z"/>
	<path class="st2" d="M965.5,797.9c9.2-0.8,19.2,2,29.2,4.2c9.9,2.2,19.6,4.9,29.5,7.2c13.8,3.3,26.2,10.1,38.5,16.7
		c6.4,3.4,12.7,6.8,18.7,11c1.2,0.8,2.4,1.6,3.5,2.5c11.2,9.2,9.5,25.2-3.4,32.2c-3.9,2.1-8,3.4-12.3,4c-8.4,1.1-17,1.6-25.3-0.4
		c-26.8-6.6-53.9-12.8-79.4-23.9c-14.8-6.4-30-11.8-43.9-20.1c-2.5-1.5-5-3-6.9-5.1c-3.9-4.2-4.2-8.9-0.6-13.4
		c2.6-3.3,6-5.5,9.9-7.2C936.2,799.9,949.9,797.7,965.5,797.9z"/>
	<path class="st2" d="M311.5,797.8c12,0.1,25,1.6,37.4,6.7c4.2,1.7,8.3,3.7,11.4,7.2c4.4,5,4.2,10.8-0.7,15.4
		c-2,1.8-4.3,3.2-6.7,4.4c-31.6,16.4-64.4,29.7-99.2,37.7c-6.4,1.5-12.8,3.2-19.1,5c-8.9,2.6-18,2.2-27.1,1.8
		c-5.2-0.3-10.1-1.9-14.7-4.5c-8.6-5-12.6-14.1-10.5-23.8c0.4-1.9,1.4-3.4,2.9-4.6c2.3-1.8,4.3-3.9,6.8-5.4
		c20-12.5,40.2-24.5,63.5-29.9c13.5-3.1,26.8-6.9,40.4-9.2C300.7,797.9,305.4,798,311.5,797.8z"/>
</g>
</svg>
