<?xml version="1.0" standalone="no"?>
<!DOCTYPE svg PUBLIC "-//W3C//DTD SVG 20010904//EN"
 "http://www.w3.org/TR/2001/REC-SVG-20010904/DTD/svg10.dtd">
<svg version="1.0" xmlns="http://www.w3.org/2000/svg"
 width="700.000000pt" height="700.000000pt" viewBox="0 0 700.000000 700.000000"
 preserveAspectRatio="xMidYMid meet">
<metadata>
Created by potrace 1.11, written by Peter Selinger 2001-2013
</metadata>
<g transform="translate(0.000000,700.000000) scale(0.100000,-0.100000)"
fill="#000000" stroke="none">
<path d="M3230 6583 c-111 -8 -347 -47 -475 -78 -691 -166 -1294 -551 -1750
-1120 -158 -196 -346 -520 -448 -770 -160 -394 -231 -761 -231 -1200 0 -242 8
-344 45 -555 148 -851 647 -1609 1379 -2097 405 -269 863 -438 1375 -505 133
-17 617 -17 750 0 422 55 807 179 1155 372 395 218 761 539 1030 903 152 204
331 534 414 757 230 628 266 1274 106 1910 -182 720 -628 1371 -1240 1807
-479 342 -1066 549 -1641 579 l-126 7 -6 -24 c-4 -13 -7 -133 -7 -266 l0 -243
38 0 c76 0 315 -30 434 -54 239 -49 415 -109 643 -221 142 -70 343 -191 333
-200 -2 -3 -167 -99 -366 -214 l-362 -208 108 -52 c358 -174 668 -453 879
-792 273 -438 369 -991 261 -1514 -75 -367 -267 -728 -533 -1003 -280 -291
-602 -480 -979 -577 -790 -202 -1609 70 -2132 710 -227 278 -387 649 -438
1014 -21 146 -21 417 0 563 96 693 527 1283 1159 1589 217 105 462 176 670
194 39 3 91 8 118 11 l47 6 0 616 c0 340 -3 627 -6 640 -6 21 -11 22 -83 20
-42 -1 -96 -3 -121 -5z"/>
<path d="M3296 5169 c-198 -21 -406 -77 -587 -159 -955 -427 -1403 -1532
-1013 -2502 181 -451 523 -815 965 -1028 388 -186 809 -237 1239 -150 287 58
614 216 840 406 253 212 445 474 564 772 381 949 -40 2033 -959 2472 -66 32
-143 65 -172 74 l-51 17 -276 -158 -275 -158 -1 -241 0 -242 58 -6 c237 -28
506 -172 654 -350 115 -137 190 -282 231 -446 32 -130 30 -359 -5 -491 -24
-90 -80 -224 -114 -277 -15 -22 -15 -22 -58 30 l-43 53 28 57 c81 162 109 386
71 568 -79 383 -387 671 -774 726 l-48 6 0 -444 c0 -285 -4 -456 -10 -475 -6
-17 -23 -36 -37 -42 -23 -10 -31 -9 -52 7 l-26 19 -3 468 -2 468 -59 -7 c-350
-40 -649 -298 -758 -653 -24 -80 -27 -103 -27 -248 0 -145 3 -168 27 -248 117
-381 421 -628 817 -663 l75 -6 16 -47 c9 -25 20 -55 24 -65 8 -18 4 -19 -103
-12 -256 15 -480 111 -663 283 -430 406 -438 1077 -17 1494 160 158 359 256
589 290 l79 11 -2 452 -3 451 -30 1 c-16 1 -65 -2 -109 -7z"/>
</g>
</svg>
