<svg xmlns="http://www.w3.org/2000/svg" width="933.333" height="933.333" preserveAspectRatio="xMidYMid meet" version="1.0" viewBox="0 0 700 700"><g fill="#000" stroke="none"><path d="M323 41.7c-11.1.8-34.7 4.7-47.5 7.8-69.1 16.6-129.4 55.1-175 112-15.8 19.6-34.6 52-44.8 77-16 39.4-23.1 76.1-23.1 120 0 24.2.8 34.4 4.5 55.5 14.8 85.1 64.7 160.9 137.9 209.7 40.5 26.9 86.3 43.8 137.5 50.5 13.3 1.7 61.7 1.7 75 0 42.2-5.5 80.7-17.9 115.5-37.2 39.5-21.8 76.1-53.9 103-90.3 15.2-20.4 33.1-53.4 41.4-75.7 23-62.8 26.6-127.4 10.6-191-18.2-72-62.8-137.1-124-180.7-47.9-34.2-106.6-54.9-164.1-57.9l-12.6-.7-.6 2.4c-.4 1.3-.7 13.3-.7 26.6V94h3.8c7.6 0 31.5 3 43.4 5.4 23.9 4.9 41.5 10.9 64.3 22.1 14.2 7 34.3 19.1 33.3 20-.2.3-16.7 9.9-36.6 21.4L428 183.7l10.8 5.2c35.8 17.4 66.8 45.3 87.9 79.2 27.3 43.8 36.9 99.1 26.1 151.4-7.5 36.7-26.7 72.8-53.3 100.3-28 29.1-60.2 48-97.9 57.7-79 20.2-160.9-7-213.2-71-22.7-27.8-38.7-64.9-43.8-101.4-2.1-14.6-2.1-41.7 0-56.3 9.6-69.3 52.7-128.3 115.9-158.9 21.7-10.5 46.2-17.6 67-19.4 3.9-.3 9.1-.8 11.8-1.1l4.7-.6v-61.6c0-34-.3-62.7-.6-64-.6-2.1-1.1-2.2-8.3-2-4.2.1-9.6.3-12.1.5z"/><path d="M329.6 183.1c-19.8 2.1-40.6 7.7-58.7 15.9-95.5 42.7-140.3 153.2-101.3 250.2 18.1 45.1 52.3 81.5 96.5 102.8 38.8 18.6 80.9 23.7 123.9 15 28.7-5.8 61.4-21.6 84-40.6 25.3-21.2 44.5-47.4 56.4-77.2 38.1-94.9-4-203.3-95.9-247.2-6.6-3.2-14.3-6.5-17.2-7.4l-5.1-1.7-27.6 15.8-27.5 15.8-.1 24.1v24.2l5.8.6c23.7 2.8 50.6 17.2 65.4 35 11.5 13.7 19 28.2 23.1 44.6 3.2 13 3 35.9-.5 49.1-2.4 9-8 22.4-11.4 27.7-1.5 2.2-1.5 2.2-5.8-3l-4.3-5.3 2.8-5.7c8.1-16.2 10.9-38.6 7.1-56.8-7.9-38.3-38.7-67.1-77.4-72.6l-4.8-.6v44.4c0 28.5-.4 45.6-1 47.5-.6 1.7-2.3 3.6-3.7 4.2-2.3 1-3.1.9-5.2-.7l-2.6-1.9-.3-46.8-.2-46.8-5.9.7c-35 4-64.9 29.8-75.8 65.3-2.4 8-2.7 10.3-2.7 24.8s.3 16.8 2.7 24.8c11.7 38.1 42.1 62.8 81.7 66.3l7.5.6 1.6 4.7c.9 2.5 2 5.5 2.4 6.5.8 1.8.4 1.9-10.3 1.2-25.6-1.5-48-11.1-66.3-28.3-43-40.6-43.8-107.7-1.7-149.4 16-15.8 35.9-25.6 58.9-29l7.9-1.1-.2-45.2-.3-45.1-3-.1c-1.6-.1-6.5.2-10.9.7z"/></g></svg>