<svg xmlns="http://www.w3.org/2000/svg" xml:space="preserve" x="0" y="0" version="1.1" viewBox="0 0 116.8 110.1"><ellipse fill="none" cx="43.3" cy="39.2" stroke="#dfdad7" stroke-miterlimit="10" stroke-width="10" rx="63" ry="63.9"/><path d="M90.5 15c-6.1 8.6 14.6 4.4 18.5 3.9 3-.8 3.2 4.6 7.2 1.2 1.3-2.8.4-6.7-1-9.4-1.3-3.3-1.2-11-5.9-10.7-1.1-.1-3.1 1.6-3 3.3-3.8 5.6-10.7 7.5-15.8 11.7zM78 84.4c-10.6 0 5 14.5 7.5 17.3 2.4 2-1.9 5.3 3.2 6.5 3-.6 5.7-3.6 7.1-6.3 2-3 8.3-7.4 5.2-11-.5-.9-3.1-1.6-4.5-.5-6.6.3-12.2-4.3-18.5-6zm-56.6 1.9c0-10.6-14.4 5-17.3 7.5-2 2.4-5.3-1.9-6.5 3.2.6 3 3.6 5.7 6.3 7.1 3 2 7.4 8.3 11 5.2.9-.5 1.6-3.1.5-4.5-.2-6.6 4.4-12.2 6-18.5z" fill="#d3ccc8"/><path d="M38.5 23.8c.2-.7.3-1.4.5-2 .2-.9.3-1.7 1.1-2.3.6-.5 1.5-.6 2.3-.3 1.1.4 1.9 1.3 2.5 2.3s1 2.1 1.7 3.1c.3.5.7.9 1.2 1.2 1 .5 3.5 0 4-1.2.1-.3.1-.5.1-.8 0-1.5.1-2.9.3-4.4.1-.5.1-1 .4-1.4.6-1.2 2-1.3 3.2-1.2.6.1 1.2.3 1.7.7.8.7 1.1 2.1 1.3 3.2.4 1.9 1.1 4.2 3.5 4.1 1.3 0 3.1-.9 3.2-2.3.1-1.9-.5-5.5 1.4-6.7 1-.6 2.3-.6 3.3.1 1.2.8 1.5 2.2 2.1 3.4.8 1.5 1.7 3 2.6 4.5 1.4 2.2 2.8 4.5 4.2 6.7.7 1.1 1.5 2.3 2.2 3.4.9 1.5 2.4 4.8-.4 5.3-.7.1-1.4.1-2-.1-1.7-.5-3-2.1-4.7-2.4-1.3-.2-3.2.5-3.7 1.8-.3.8-.1 1.7.3 2.5.6 1.2 1.7 2.2 2.3 3.4.3.5.5 1.1.5 1.7 0 2.2-1.7 3.3-3.8 3-1-.2-1.9-.7-2.7-1.3-.8-.6-1.5-1.3-2.4-1.6-1-.4-3.3-.7-3.9.4-.4.8-.4 2.1-.3 3 .1.3.2.6.4.9.8 1.4 1.7 2.9 2.1 4.5.2.8.5 2.4-.2 3.1-.3.2-.7.3-1 .3-1.8.1-3.2-.8-4.7-1.8" fill="none" stroke="#dfdad7" stroke-miterlimit="10" stroke-width="3"/></svg>