<?xml version="1.0" encoding="utf-8"?>
<!-- Generator: Adobe Illustrator 25.2.0, SVG Export Plug-In . SVG Version: 6.00 Build 0)  -->
<svg version="1.1" id="Layer_1" xmlns="http://www.w3.org/2000/svg" xmlns:xlink="http://www.w3.org/1999/xlink" x="0px" y="0px"
	 viewBox="0 0 116.8 110.1" style="enable-background:new 0 0 116.8 110.1;" xml:space="preserve">
<style type="text/css">
	.st0{fill:none;stroke:#DFDAD7;stroke-width:10;stroke-miterlimit:10;}
	.st1{fill:#D3CCC8;}
	.st2{fill:none;stroke:#DFDAD7;stroke-width:3;stroke-miterlimit:10;}
</style>
<ellipse class="st0" cx="43.3" cy="39.2" rx="63" ry="63.9"/>
<g>
	<path class="st1" d="M90.5,15c-6.1,8.6,14.6,4.4,18.5,3.9c3-0.8,3.2,4.6,7.2,1.2c1.3-2.8,0.4-6.7-1-9.4c-1.3-3.3-1.2-11-5.9-10.7
		c-1.1-0.1-3.1,1.6-3,3.3C102.5,8.9,95.6,10.8,90.5,15z"/>
</g>
<g>
	<path class="st1" d="M78,84.4c-10.6,0,5,14.5,7.5,17.3c2.4,2-1.9,5.3,3.2,6.5c3-0.6,5.7-3.6,7.1-6.3c2-3,8.3-7.4,5.2-11
		c-0.5-0.9-3.1-1.6-4.5-0.5C89.9,90.7,84.3,86.1,78,84.4z"/>
</g>
<g>
	<path class="st1" d="M21.4,86.3c0-10.6-14.4,5-17.3,7.5c-2,2.4-5.3-1.9-6.5,3.2c0.6,3,3.6,5.7,6.3,7.1c3,2,7.4,8.3,11,5.2
		c0.9-0.5,1.6-3.1,0.5-4.5C15.2,98.2,19.8,92.6,21.4,86.3z"/>
</g>
<path class="st2" d="M38.5,23.8c0.2-0.7,0.3-1.4,0.5-2c0.2-0.9,0.3-1.7,1.1-2.3c0.6-0.5,1.5-0.6,2.3-0.3c1.1,0.4,1.9,1.3,2.5,2.3
	s1,2.1,1.7,3.1c0.3,0.5,0.7,0.9,1.2,1.2c1,0.5,3.5,0,4-1.2c0.1-0.3,0.1-0.5,0.1-0.8c0-1.5,0.1-2.9,0.3-4.4c0.1-0.5,0.1-1,0.4-1.4
	c0.6-1.2,2-1.3,3.2-1.2c0.6,0.1,1.2,0.3,1.7,0.7c0.8,0.7,1.1,2.1,1.3,3.2c0.4,1.9,1.1,4.2,3.5,4.1c1.3,0,3.1-0.9,3.2-2.3
	c0.1-1.9-0.5-5.5,1.4-6.7c1-0.6,2.3-0.6,3.3,0.1c1.2,0.8,1.5,2.2,2.1,3.4c0.8,1.5,1.7,3,2.6,4.5c1.4,2.2,2.8,4.5,4.2,6.7
	c0.7,1.1,1.5,2.3,2.2,3.4c0.9,1.5,2.4,4.8-0.4,5.3c-0.7,0.1-1.4,0.1-2-0.1c-1.7-0.5-3-2.1-4.7-2.4c-1.3-0.2-3.2,0.5-3.7,1.8
	c-0.3,0.8-0.1,1.7,0.3,2.5c0.6,1.2,1.7,2.2,2.3,3.4c0.3,0.5,0.5,1.1,0.5,1.7c0,2.2-1.7,3.3-3.8,3c-1-0.2-1.9-0.7-2.7-1.3
	c-0.8-0.6-1.5-1.3-2.4-1.6c-1-0.4-3.3-0.7-3.9,0.4c-0.4,0.8-0.4,2.1-0.3,3c0.1,0.3,0.2,0.6,0.4,0.9c0.8,1.4,1.7,2.9,2.1,4.5
	c0.2,0.8,0.5,2.4-0.2,3.1c-0.3,0.2-0.7,0.3-1,0.3c-1.8,0.1-3.2-0.8-4.7-1.8"/>
</svg>
