<?xml version="1.0"?>
<svg xmlns="http://www.w3.org/2000/svg" version="1.2" baseProfile="tiny" width="800" height="316" viewBox="0 0 800 316" stroke-linecap="round" stroke-linejoin="round">
<g id="wb_regions">
<path class="1" d="M 775.3148 292.3035 780.8839 286.3452 785.8154 288.2109 774.5457 299.3776 769.3055 295.8696 775.3148 292.3035 Z M 791.8611 284.3046 784.8424 283.0275 786.8436 278.15 795.6006 278.8703 791.8611 284.3046 Z M 675.5526 266.3095 669.8468 270.1474 661.2138 270.3443 656.93 272.8399 650.0571 270.8496 651.8333 266.2845 646.313 248.3574 649.1882 242.4998 663.4203 237.5808 666.7592 232.0133 674.4915 225.0804 683.0278 225.516 685.7975 221.1965 692.5211 219.4775 700.317 220.7737 696.8258 226.1917 705.61 232.2806 711.207 226.947 719.6259 226.8096 721.9475 235.9179 727.5889 239.2027 729.4914 243.6758 736.7739 250.381 738.4113 256.8972 736.8573 264.9902 730.4012 275.9472 721.788 281.943 708.7689 279.613 694.1786 267.2293 687.4217 264.6586 675.5526 266.3095 Z M 711.6252 102.6412 709.0795 110.2931 704.9565 112.9872 697.3963 111.0169 711.6252 102.6412 Z M 709.5979 198.4189 717.8132 201.3102 729.7297 216.2837 725.4446 215.6812 718.1804 209.9495 713.3303 213.839 704.253 209.2391 702.5548 204.822 694.5196 198.8064 703.4761 196.3616 709.5979 198.4189 Z M 625.6276 194.9453 629.6132 199.4771 628.9462 205.8742 621.5341 202.1328 612.4038 188.2782 619.4108 187.6818 625.6276 194.9453 Z M 656.6023 182.9736 655.7762 194.3008 652.29 200.8417 639.0469 199.1843 636.452 193.5118 637.7618 187.8588 645.4008 185.3465 652.794 178.3759 656.6023 182.9736 Z M 598.1158 145.073 604.4341 131.5418 598.4243 128.5083 583.1117 127.8052 566.8716 120.2121 567.269 113.7796 558.2548 106.6777 555.6007 101.0064 570.0363 95.8945 569.6848 89.4906 577.0533 83.9602 597.809 76.0008 609.3283 78.4676 613.0001 73.1463 624.038 77.6334 640.0513 79.8337 648.5341 77.2704 656.5959 78.9606 663.7569 70.3862 675.0888 71.4375 679.0111 78.3892 686.6444 82.9055 695.9034 81.3281 686.1693 95.6743 678.727 101.3208 683.1444 108.1352 676.3253 113.6235 675.6124 105.922 671.2359 100.9273 655.8015 103.6572 660.7762 107.282 659.5117 112.4319 665.8317 119.808 666.2534 124.0711 658.3785 136.1866 652.0375 140.2315 642.7599 143.0566 635.1475 142.679 628.5894 148.7699 635.9596 157.4385 636.7002 165.7136 627.4347 172.7445 617.853 161.7114 613.6701 169.6193 616.6628 175.427 623.361 181.3289 618.7979 186.1296 616.3121 178.6112 612.1801 173.243 612.1934 162.377 609.11 153.6514 602.6003 150.7062 598.1158 145.073 Z"/>
<path class="2" d="M 267.9534 182.9307 261.3813 187.1588 262.6804 179.2622 267.9534 182.9307 Z M 279.1723 3.0441 324.2481 1 358.3859 6.1077 341.2012 11.9309 341.9627 22.145 332.6324 27.2236 335.1401 31.6954 322.7651 35.4984 295.1079 42.403 286.9329 54.6919 275.7357 52.948 268.0097 46.6016 262.655 38.436 262.5745 28.4454 252.0733 19.3445 229.3347 18.0971 218.6637 12.6612 242.7525 5.0099 279.1723 3.0441 Z M 558.2548 106.6777 550.3734 105.5641 538.1676 106.7378 526.6906 110.7351 522.1608 106.6938 509.981 107.1845 511.8499 98.5833 504.0686 93.5814 503.7236 84.6051 493.3852 90.1974 500.1176 99.45 498.4312 104.614 487.4874 102.0743 484.4383 106.7573 471.3434 108.5047 469.2413 110.342 449.7364 108.4226 446.3657 101.993 453.4015 97.9667 466.99 96.0864 474.2797 98.5889 481.3994 94.6998 472.4262 90.0873 472.1649 84.6658 462.7053 86.8244 456.8601 85.6725 452.4797 89.4989 446.7949 100.415 438.7527 101.5444 431.1655 96.8205 414.1255 96.856 406.7493 90.7541 401.34 93.5908 393.4798 93.7139 388.2305 98.4372 384.8059 106.168 381.452 108.3875 365.973 107.9413 364.534 103.6577 368.0835 92.1708 382.0139 92.917 383.6358 86.9749 379.5795 83.4094 395.1529 74.1247 397.1604 70.7521 409.1577 67.3024 418.7401 69.2271 435.1277 65.9411 434.7196 62.2885 450.5157 56.1185 429.441 54.7281 422.7749 63.8463 415.3139 63.3814 410.1136 56.1313 399.3607 58.1524 397.8162 50.3976 410.5059 44.6322 430.3495 32.4106 450.9385 29.2746 463.7985 33.5935 487.1218 41.0033 509.513 34.6114 531.9475 33.0297 546.7012 25.0233 570.9341 23.6291 613.14 17.2134 641.0032 16.6103 647.6317 23.7513 677.4501 23.8187 680.851 27.4532 707.0066 28.5815 708.3782 25.4602 746.2911 29.6278 755.3085 33.2821 789.1979 32.2735 799 34.3679 799 43.5005 797.5566 48.0786 777.6775 54.1452 761.2659 55.2169 758.0066 66.7098 745.7935 75.5219 742.6847 65.5043 753.431 53.6683 745.6351 51.6277 733.1303 57.7105 712.3432 57.1166 696.1324 66.9976 710.3889 70.7572 707.447 81.4004 695.5437 92.9734 686.1693 95.6743 695.9034 81.3281 686.6444 82.9055 679.0111 78.3892 675.0888 71.4375 663.7569 70.3862 656.5959 78.9606 648.5341 77.2704 640.0513 79.8337 624.038 77.6334 613.0001 73.1463 609.3283 78.4676 597.809 76.0008 577.0533 83.9602 569.6848 89.4906 570.0363 95.8945 555.6007 101.0064 558.2548 106.6777 Z M 379.2803 70.0351 373.5664 65.6645 374.8877 58.0564 387.4498 71.123 387.634 76.0843 378.0799 77.3162 379.2803 70.0351 Z"/>
<path class="3" d="M 117.8717 117.8752 131.8647 120.6275 142.2171 119.6651 146.9179 124.6684 154.9398 125.1068 159.3815 132.0085 162.7971 133.2234 162.0123 141.0078 166.5317 149.2975 169.9133 150.8647 178.2893 148.252 179.42 144.3188 186.8169 143.0725 183.8287 154.5637 195.7679 158.0823 194.1443 166.3865 199.6831 172.317 203.9606 170.425 210.234 172.6551 213.343 168.1157 228.4668 166.2259 230.046 168.2632 238.9315 168.0643 245.1879 169.8256 255.3691 178.7657 262.6804 179.2622 261.3813 187.1588 267.9534 182.9307 274.9159 192.9982 291.3016 199.1338 294.7264 199.0445 305.5997 204.9861 305.8454 213.0815 297.077 224.078 295.2257 237.3869 290.1196 245.1144 279.841 247.6793 275.2027 251.7782 274.3018 258.1902 260.4389 272.583 243.9105 285.7051 238.7921 290.7407 235.8986 300.7413 220.0424 315.1725 214.5664 312.2642 212.9671 299.3923 215.15 297.3666 218.6469 277.56 222.6087 266.7747 223.8313 255.8205 225.697 241.4999 225.0521 234.5188 212.1309 226.0401 203.5313 208.9505 200.117 206.5263 202.2889 200.2636 200.8422 194.8825 209.5669 183.6336 208.7669 177.1198 204.999 171.836 196.1838 173.6035 189.6925 169.2254 184.8633 162.3159 177.2336 160.5306 169.3037 155.3197 165.0266 156.5747 155.2334 153.0959 145.6914 148.1786 143.3149 140.2524 135.835 131.8413 123.974 130.2385 117.8717 117.8752 Z"/>
<path class="4" d="M 470.8837 142.0261 452.8972 142.0261 443.6819 142.0261 441.0173 147.5726 422.7315 138.7945 418.7955 140.8999 413.8798 138.6525 399.3876 147.5251 393.5858 147.3133 382.8192 140.2091 366.4646 129.6571 358.9341 133.0094 356.7341 143.5687 347.2567 144.3191 353.2707 132.2734 364.4463 123.8394 366.5263 116.2593 372.7787 110.4831 381.3982 111.8392 389.7352 108.5445 408.1729 106.8382 411.8373 116.1376 421.3212 118.4947 430.1257 123.0765 434.1789 117.4821 452.6531 121.6927 464.9217 120.8919 469.2413 110.342 471.3434 108.5047 484.4383 106.7573 487.4874 102.0743 498.4312 104.614 506.1812 108.3273 509.981 107.1845 522.1608 106.6938 526.6906 110.7351 525.9191 124.0786 531.5179 131.1224 527.3475 134.9697 517.9485 133.4529 504.4774 128.5798 505.1046 137.3959 513.4595 134.1423 523.4706 141.3143 518.8459 148.7484 513.0833 152.9645 497.9635 160.3578 486.0517 163.4901 484.1413 154.0046 476.0947 143.6494 474.6123 138.1556 466.904 128.1267 462.8203 128.9599 470.8837 142.0261 Z"/>
<path class="5" d="M 258.9159 74.8204 263.7842 79.5609 264.7181 85.5065 250.5125 83.3337 258.9159 74.8204 Z M 176.4207 4.726 204.5719 1.892 244.4885 3.6546 201.6959 17.8296 181.2263 17.155 191.3029 10.5689 176.4207 4.726 Z M 162.7971 133.2234 159.3815 132.0085 154.9398 125.1068 146.9179 124.6684 142.2171 119.6651 131.8647 120.6275 117.8717 117.8752 110.4444 113.4927 102.7433 103.1666 100.8965 94.4227 100.5426 82.0016 94.2422 75.9356 79.0153 59.2185 65.743 55.9755 47.0595 54.9656 24.8127 60.4864 5.5599 51.4773 9.1335 47.7032 1 41.9181 15.2165 31.228 37.3125 30.6167 73.4551 34.5182 94.2159 31.1274 134.3346 36.6203 160.7037 37.0774 168.1182 27.5896 184.5984 35.1669 199.804 38.6153 172.8217 50.2745 169.4466 54.6632 178.0009 61.1404 191.4935 65.6841 197.7722 66.0378 199.7714 72.893 210.9109 62.8607 206.3823 57.6562 207.3222 49.5984 217.1038 49.3138 238.3228 54.1466 249.8166 65.91 258.7253 72.9187 248.7541 77.2831 237.2391 79.5984 238.578 86.4624 225.6399 92.3182 224.4391 97.3821 216.778 99.3238 212.7891 105.4924 212.7767 110.9628 206.2964 114.8355 199.5659 122.0137 202.8528 130.8393 200.2955 134.6877 194.4787 123.8326 181.9373 122.9628 169.3075 124.8792 163.1639 129.6932 162.7971 133.2234 Z M 205.8006 26.6001 232.8543 33.8579 243.8711 40.7943 234.6962 50.4895 223.5601 48.2434 207.8027 42.7452 219.8287 38.2169 209.2008 32.5204 191.6473 32.0686 179.5884 26.8685 197.6743 23.3935 205.8006 26.6001 Z M 142.1827 24.9408 143.4724 33.8719 126.6161 35.3492 112.6583 28.4193 122.3159 24.3938 142.1827 24.9408 Z"/>
<path class="6" d="M 598.1158 145.073 593.312 142.4012 585.7534 143.1825 584.6614 146.2633 570.5073 156.0115 569.437 168.7156 561.9523 172.0579 554.9404 155.8018 552.8689 143.5024 547.9172 144.5997 538.5239 134.1744 527.3475 134.9697 531.5179 131.1224 525.9191 124.0786 526.6906 110.7351 538.1676 106.7378 550.3734 105.5641 558.2548 106.6777 567.269 113.7796 566.8716 120.2121 583.1117 127.8052 598.4243 128.5083 604.4341 131.5418 598.1158 145.073 Z"/>
<path class="7" d="M 499.9448 221.0439 502.0836 227.3633 499.8419 231.6718 494.3336 249.634 487.328 249.7411 485.5273 243.0223 488.0951 238.4718 487.1524 232.3685 499.9448 221.0439 Z M 347.2567 144.3191 356.7341 143.5687 358.9341 133.0094 366.4646 129.6571 382.8192 140.2091 393.5858 147.3133 399.3876 147.5251 413.8798 138.6525 418.7955 140.8999 422.7315 138.7945 441.0173 147.5726 443.6819 142.0261 452.8972 142.0261 470.8837 142.0261 472.2948 149.7879 476.3851 155.9575 485.1308 163.3461 485.2777 166.1831 487.507 168.5133 503.5385 164.8934 499.7366 176.8596 493.1164 185.913 485.2563 191.7886 478.6705 198.3569 475.1803 206.0039 479.1641 217.1368 479.8452 226.1374 476.8125 230.7889 466.1159 237.8108 467.6572 247.7565 462.0511 250.5875 460.7879 257.3349 451.0627 267.584 445.4713 270.2723 438.1209 270.0876 431.3406 272.277 428.1436 265.0387 421.2406 254.561 419.0565 243.1456 413.0559 230.6795 417.6261 220.0555 416.7153 212.0872 413.686 204.0073 406.5408 195.0059 408.8267 185.413 405.8583 181.5192 399.8933 182.6873 396.2884 178.0837 388.8027 178.8673 381.8686 181.6602 377.1828 180.5843 369.1362 182.5134 356.6884 174.581 352.3546 167.5252 348.2873 164.5581 349.0576 146.3988 347.2567 144.3191 Z"/>
</g>
</svg>
