<svg xmlns="http://www.w3.org/2000/svg" xml:space="preserve" x="0" y="0" version="1.1" viewBox="0 0 465 123.5"><path d="M.1-1h464.7v124H.1z" fill="#21335b"/><path d="m29.92 31.46 50-18.4v95.9l-50-18.5zm54.7-18.4 84.6 21.9v52.1l-84.6 21.9z" fill="#7986cb"/><path d="M60.32 67.76c-.6 0-1.2 0-1.7.1l-5.5-21.9c2.2-1.5 3.8-4.5 3.8-7.7 0-4.3-2.8-7-6-6.1-3.1.9-5.4 4.6-5.4 8.5 0 2.1.7 3.9 1.9 5l-9.2 19c-.4-.2-.8-.4-1.2-.4-1.7-.1-3 1.9-3 4.3s1.3 4.7 3 4.9c1.2.2 2.2-.7 2.8-2.1l10.7 5.1c-.1.7-.2 1.5-.2 2.3 0 6.4 4.2 12.8 9.9 14.5 6.3 1.9 12-2.8 12.1-10.6 0-7.8-5.7-14.5-12-14.9zm-20.2 2v-.7c0-1.2-.3-2.4-.8-3.2l9.4-19.3c.7.3 1.4.4 2.2.3.3 0 .6-.1.8-.2l5.4 21.5c-2.9 1-5.1 3.4-6.1 6.7l-10.9-5.1z" fill="#fff"/><path d="M102.32 90.96c-.8 0-1.5-.7-1.5-1.5v-59.2c0-.8.7-1.5 1.5-1.5s1.5.6 1.5 1.5v59.2c0 .9-.7 1.5-1.5 1.5zm12.7-2.2c-.8 0-1.5-.7-1.5-1.5v-54.7c0-.8.7-1.5 1.5-1.5s1.5.6 1.5 1.5v54.7c-.1.8-.7 1.5-1.5 1.5zm10.8-1.9c-.8 0-1.5-.7-1.5-1.5v-50.9c0-.8.7-1.5 1.5-1.5s1.5.6 1.5 1.5v50.9c0 .8-.7 1.5-1.5 1.5zm9.5-1.6c-.8 0-1.5-.7-1.5-1.5v-47.5c0-.8.7-1.5 1.5-1.5s1.5.6 1.5 1.5v47.6c0 .8-.7 1.4-1.5 1.4zm8.3-1.4c-.8 0-1.5-.7-1.5-1.5v-44.6c0-.8.7-1.5 1.5-1.5s1.5.7 1.5 1.5v44.7c-.1.8-.7 1.4-1.5 1.4zm7.3-1.2c-.8 0-1.5-.7-1.5-1.5v-42c0-.8.7-1.5 1.5-1.5s1.5.7 1.5 1.5v42c0 .8-.7 1.5-1.5 1.5zm6.5-1.1c-.8 0-1.5-.7-1.5-1.5v-39.7c0-.8.7-1.5 1.5-1.5s1.5.7 1.5 1.5v39.7c0 .8-.7 1.5-1.5 1.5zm5.9-1c-.8 0-1.5-.7-1.5-1.5v-37.6c0-.8.7-1.5 1.5-1.5s1.5.7 1.5 1.5v37.7c-.1.7-.7 1.4-1.5 1.4z" fill="#c5cae9"/><path d="M182.52 43.76h13.6c11 0 18.6 7.5 18.6 17.4v.1c0 9.8-7.6 17.5-18.6 17.5h-13.6v-35zm13.6 28c6.3 0 10.6-4.2 10.6-10.4v-.1c0-6.2-4.2-10.5-10.6-10.5h-5.9v21.1l5.9-.1zm23.4-6.3c0-7.8 6.2-14 14.6-14 8.3 0 14.4 6.2 14.4 13.8v.1c0 7.7-6.2 13.9-14.6 13.9-8.3.1-14.4-6.1-14.4-13.8zm21.5 0c0-4-2.9-7.5-7.1-7.5-4.4 0-6.9 3.3-6.9 7.3v.1c0 3.9 2.9 7.4 7.1 7.4 4.3 0 6.9-3.3 6.9-7.3zm11.7 0c0-7.8 5.9-14 14.1-14 5.1 0 8.2 1.7 10.7 4.5l-4.6 5c-1.7-1.8-3.4-3-6.1-3-3.8 0-6.5 3.3-6.5 7.3v.1c0 4.1 2.7 7.4 6.8 7.4 2.6 0 4.3-1.1 6.1-2.8l4.5 4.5c-2.6 2.8-5.6 4.9-11 4.9-8.1 0-14-6.2-14-13.9zm29.8-23.2h7.6v19.5l8.9-9.8h9.1l-10.2 10.5 10.5 16.2h-8.7l-7-10.9-2.6 2.8v8.2h-7.6v-36.5zm27.5 32.9 3.2-5c2.9 2.1 6 3.2 8.5 3.2 2.2 0 3.2-.8 3.2-2v-.1c0-1.7-2.6-2.2-5.5-3.1-3.8-1.1-8-2.8-8-8v-.1c0-5.5 4.4-8.5 9.8-8.5 3.4 0 7.1 1.2 10 3.1l-2.9 5.2c-2.6-1.6-5.3-2.5-7.2-2.5-1.9 0-2.8.8-2.8 1.8v.1c0 1.5 2.5 2.2 5.5 3.2 3.8 1.2 8.1 3.1 8.1 7.9v.1c0 5.9-4.5 8.7-10.2 8.7-3.9.1-8.1-1.2-11.7-4zm28-4v-12.7h-3.2v-6.5h3.2v-6.8h7.6v6.8h6.3v6.5h-6.3v11.4c0 1.8.8 2.6 2.5 2.6 1.4 0 2.6-.3 3.8-.9v6.1c-1.6.9-3.5 1.6-6 1.6-4.8-.1-7.9-1.9-7.9-8.1zm17.4-5.7c0-7.8 6.2-14 14.5-14s14.5 6.2 14.5 13.8v.1c0 7.7-6.2 13.9-14.5 13.9-8.3.1-14.5-6.1-14.5-13.8zm21.5 0c0-4-2.9-7.5-7-7.5-4.4 0-7 3.3-7 7.3v.1c0 3.9 2.9 7.4 7 7.4 4.4 0 7-3.3 7-7.3zm13-13.5h7.6v5.4c1.5-3.7 4-6.1 8.5-5.9v7.9h-.3c-5 0-8.1 3.1-8.1 9.4v9.9h-7.6l-.1-26.7zm18.9 13.5c0-7.8 5.5-14 13.2-14 9 0 13 6.9 13 14.5 0 .6 0 1.3-.1 2h-18.6c.8 3.4 3.1 5.2 6.5 5.2 2.5 0 4.4-.8 6.5-2.8l4.4 3.8c-2.5 3.1-6.1 5-11 5-8 .2-13.9-5.5-13.9-13.7zm18.9-2.2c-.5-3.4-2.5-5.7-5.6-5.7s-5.2 2.2-5.8 5.7h11.4z" fill="#fff"/></svg>