<svg xmlns="http://www.w3.org/2000/svg" xml:space="preserve" x="0" y="0" version="1.1" viewBox="0 0 322 103"><path d="M79.2 19.8c-1.2 1.6-3.4 2-5 .8s-2-3.4-.8-5 3.4-2 5-.8c1.6 1.1 2 3.4.8 5m-13.7-1.2c.8-1.5 2.6-2.1 4.1-1.3s2.1 2.6 1.3 4.1c-.8 1.5-2.6 2.1-4.1 1.3-1.5-.8-2.1-2.6-1.3-4.1M64.1 24c-.4 1.3-1.9 2.1-3.2 1.6-1.3-.4-2.1-1.9-1.6-3.2.4-1.3 1.9-2.1 3.2-1.6 1.3.4 2 1.9 1.6 3.2m-5.3 3.1c-.2 1.2-1.3 1.9-2.4 1.8-1.1-.2-1.9-1.3-1.8-2.4.2-1.2 1.3-1.9 2.4-1.8 1.2.1 2 1.2 1.8 2.4m-3.9 3.4c0 1-.8 1.7-1.8 1.7s-1.8-.8-1.8-1.7c0-1 .8-1.7 1.8-1.7 1-.1 1.8.7 1.8 1.7m-2.8 3.3c.1.8-.4 1.5-1.2 1.6-.8.1-1.5-.4-1.6-1.2s.4-1.5 1.2-1.6c.7-.1 1.5.4 1.6 1.2" fill="#566471"/><path d="M32.9 83.5c-1.2 1.6-3.4 2-5 .8s-2-3.4-.8-5 3.4-2 5-.8c1.6 1.1 2 3.4.8 5m2.4-5.8c.8-1.5 2.6-2.1 4.1-1.3 1.5.8 2.1 2.6 1.3 4.1-.8 1.5-2.6 2.1-4.1 1.3-1.4-.7-2-2.6-1.3-4.1M47 76.6c-.4 1.3-1.9 2.1-3.2 1.6-1.3-.4-2.1-1.9-1.6-3.2.4-1.3 1.9-2.1 3.2-1.6s2 1.9 1.6 3.2m4.6-4c-.2 1.2-1.3 1.9-2.4 1.8-1.2-.2-1.9-1.3-1.8-2.4.2-1.2 1.3-1.9 2.4-1.8 1.2.2 2 1.3 1.8 2.4m3.3-4c0 1-.8 1.7-1.8 1.7s-1.8-.8-1.8-1.7c0-1 .8-1.7 1.8-1.7 1-.1 1.8.7 1.8 1.7m2.1-3.8c.1.8-.4 1.5-1.2 1.6-.8.1-1.5-.4-1.6-1.2-.1-.8.4-1.5 1.2-1.6.8-.1 1.5.4 1.6 1.2M16.8 33.9c1.9.6 2.9 2.7 2.3 4.6-.6 1.9-2.7 2.9-4.5 2.3-1.9-.6-2.9-2.7-2.3-4.5.6-1.9 2.6-3 4.5-2.4m4 7.4c1.7.3 2.8 1.8 2.5 3.5s-1.8 2.8-3.5 2.5-2.8-1.8-2.5-3.5c.3-1.6 1.9-2.7 3.5-2.5m4.7 5.7c1.4 0 2.5 1.1 2.5 2.5S26.9 52 25.5 52 23 50.9 23 49.5c-.1-1.4 1.1-2.5 2.5-2.5m4.5 4c1.2-.2 2.2.6 2.4 1.8.2 1.2-.6 2.2-1.8 2.4-1.2.2-2.2-.6-2.4-1.8-.1-1.1.7-2.2 1.8-2.4m4.5 2.8c.9-.3 1.9.2 2.2 1.1s-.2 1.9-1.1 2.2c-.9.3-1.9-.2-2.2-1.1-.4-1 .2-1.9 1.1-2.2m4 1.6c.7-.4 1.6-.1 1.9.6.4.7.1 1.6-.6 1.9-.7.4-1.6.1-1.9-.6-.4-.7-.1-1.6.6-1.9" fill="#a3cd3d"/><path d="M91.7 58.3c1.9.6 2.9 2.6 2.3 4.5s-2.7 2.9-4.5 2.3c-1.9-.6-2.9-2.7-2.3-4.6.6-1.8 2.6-2.9 4.5-2.2m-5.3-6.6c1.7.3 2.8 1.8 2.5 3.5s-1.8 2.8-3.5 2.5-2.8-1.8-2.5-3.5c.3-1.6 1.9-2.7 3.5-2.5M80.8 47c1.4 0 2.5 1.1 2.5 2.5S82.2 52 80.8 52s-2.5-1.1-2.5-2.5 1.1-2.5 2.5-2.5m-5.2-3.2c1.2-.2 2.2.6 2.4 1.8.2 1.2-.6 2.2-1.8 2.4-1.2.2-2.2-.6-2.4-1.8-.2-1.1.6-2.2 1.8-2.4M70.7 42c.9-.3 1.9.2 2.2 1.1.3.9-.2 1.9-1.1 2.2-.9.3-1.9-.2-2.2-1.1-.3-.9.2-1.9 1.1-2.2m-4.2-.9c.7-.4 1.6-.1 1.9.6.4.7.1 1.6-.6 1.9-.7.4-1.6.1-1.9-.6-.4-.6-.2-1.5.6-1.9M32.9 15.6c1.2 1.6.8 3.9-.8 5-1.6 1.2-3.9.8-5-.8-1.2-1.6-.8-3.9.8-5 1.6-1.2 3.9-.8 5 .8m-1.1 8.3c1.2 1.2 1.2 3.1 0 4.3s-3.1 1.2-4.3 0-1.2-3.1 0-4.3 3.1-1.2 4.3 0m.4 7.3c1.1.8 1.4 2.4.6 3.5-.8 1.1-2.4 1.4-3.5.6-1.1-.8-1.4-2.4-.6-3.5.8-1.2 2.4-1.4 3.5-.6m1.4 6c1 .5 1.5 1.8.9 2.8-.5 1-1.8 1.5-2.8.9-1-.5-1.5-1.8-.9-2.8.4-1 1.7-1.5 2.8-.9m1.9 4.8c.9.3 1.4 1.3 1.1 2.2-.3.9-1.3 1.4-2.2 1.1-.8-.3-1.4-1.3-1.1-2.2s1.3-1.4 2.2-1.1m2.4 3.7c.8.1 1.3.9 1.2 1.7-.1.8-.9 1.3-1.6 1.2-.8-.1-1.3-.9-1.2-1.6.1-.9.8-1.5 1.6-1.3" fill="#566471"/><path d="M79.2 79.2c1.2 1.6.8 3.9-.8 5-1.6 1.2-3.9.8-5-.8-1.2-1.6-.8-3.9.8-5s3.8-.8 5 .8m-.4-8.3c1.2 1.2 1.2 3.1 0 4.3-1.2 1.2-3.1 1.2-4.3 0-1.2-1.2-1.2-3.1 0-4.3s3.1-1.2 4.3 0M77 63.7c1.1.8 1.4 2.4.6 3.5s-2.4 1.4-3.5.6-1.4-2.4-.6-3.5 2.4-1.4 3.5-.6m-2.4-5.6c1 .5 1.5 1.8.9 2.8-.5 1-1.8 1.5-2.8.9-1-.5-1.5-1.8-.9-2.8.5-1 1.8-1.4 2.8-.9m-2.8-4.3c.9.3 1.4 1.3 1.1 2.2-.3.9-1.3 1.4-2.2 1.1-.9-.3-1.4-1.3-1.1-2.2.3-.9 1.3-1.4 2.2-1.1m-2.9-3.2c.8.1 1.3.9 1.2 1.6-.1.8-.9 1.3-1.6 1.2-.8-.1-1.3-.9-1.2-1.7 0-.7.8-1.3 1.6-1.1m20.6-16.7c1.9-.6 3.9.4 4.5 2.3.6 1.9-.4 3.9-2.3 4.5s-3.9-.4-4.5-2.3c-.7-1.8.4-3.8 2.3-4.5m-8.2-2.2c1.5-.8 3.3-.2 4.1 1.3.8 1.5.2 3.3-1.3 4.1s-3.3.2-4.1-1.3c-.8-1.5-.2-3.3 1.3-4.1m-7.3-.5c1.1-.8 2.7-.6 3.5.6.8 1.1.6 2.7-.6 3.5-1.1.8-2.7.6-3.5-.6-.8-1.1-.5-2.7.6-3.5m-6.1.5c.8-.8 2.2-.8 3 0s.8 2.2 0 3-2.2.8-3 0-.8-2.1 0-3m-2.1 3.4c-.6.8-1.7 1-2.4.4-.8-.6-1-1.7-.4-2.4.6-.8 1.7-1 2.4-.4.8.6.9 1.7.4 2.4m-4.3 1.1c-.4.7-1.2 1-1.9.6s-1-1.2-.6-1.9 1.2-1 1.9-.6c.7.3 1 1.2.6 1.9" fill="#a3cd3d"/><path d="M14.6 58.3c1.9-.6 3.9.4 4.5 2.3s-.4 3.9-2.3 4.6c-1.9.6-3.9-.4-4.5-2.3-.6-2 .4-4 2.3-4.6m7.6 3.6c1.5-.8 3.3-.2 4.1 1.3s.2 3.3-1.3 4.1c-1.5.8-3.3.2-4.1-1.3-.8-1.5-.2-3.3 1.3-4.1m7.1 1.8c1.1-.8 2.7-.6 3.5.6.8 1.1.6 2.7-.6 3.5-1.1.8-2.7.6-3.5-.6-.8-1-.6-2.6.6-3.5m6 .6c.8-.8 2.2-.8 3 0s.8 2.2 0 3-2.2.8-3 0c-.8-.8-.8-2.1 0-3m8 1.7c-.6.8-1.7 1-2.4.4-.8-.6-1-1.7-.4-2.4.6-.8 1.7-1 2.4-.4.8.5 1 1.6.4 2.4m4-1.8c-.4.7-1.2 1-1.9.6s-1-1.2-.6-1.9 1.2-1 1.9-.6c.7.3 1 1.1.6 1.9" fill="#566471"/><path d="M56.8 10.2c0 2-1.6 3.6-3.6 3.6s-3.6-1.6-3.6-3.6 1.6-3.6 3.6-3.6c1.9 0 3.6 1.6 3.6 3.6m-11.9 7c-.3-1.7.9-3.2 2.5-3.5 1.7-.3 3.2.9 3.5 2.5.3 1.7-.9 3.2-2.5 3.5s-3.2-.8-3.5-2.5m2.1 5.2c.4 1.3-.3 2.8-1.6 3.2-1.3.4-2.8-.3-3.2-1.6-.4-1.3.3-2.8 1.6-3.2s2.8.3 3.2 1.6M44.6 28c.5 1 .1 2.3-.9 2.9-1 .5-2.3.1-2.8-.9s-.1-2.3.9-2.8c1-.6 2.2-.2 2.8.8m-1.3 5.1c.6.8.4 1.9-.4 2.4-.8.6-1.9.4-2.4-.4-.6-.8-.4-1.9.4-2.4.8-.6 1.9-.4 2.4.4m-.2 4.3c.6.6.6 1.5 0 2-.6.6-1.5.6-2 0-.6-.6-.6-1.5 0-2 .5-.5 1.4-.5 2 0" fill="#a3cd3d"/><path d="M56.8 88.9c0 2-1.6 3.6-3.6 3.6s-3.6-1.6-3.6-3.6 1.6-3.6 3.6-3.6c1.9 0 3.6 1.6 3.6 3.6m-1.5-6.1c-.3-1.7.9-3.2 2.5-3.5 1.7-.3 3.2.9 3.5 2.5.3 1.7-.9 3.2-2.5 3.5-1.7.3-3.2-.8-3.5-2.5m8.8-7.7c.4 1.3-.3 2.8-1.6 3.2-1.3.4-2.8-.3-3.2-1.6-.4-1.3.3-2.8 1.6-3.2 1.3-.5 2.8.2 3.2 1.6m1.4-6c.5 1 .1 2.3-.9 2.8s-2.3.1-2.9-.9c-.5-1-.1-2.3.9-2.8 1.1-.5 2.4-.1 2.9.9m.3-5.2c.6.8.4 1.9-.4 2.4-.8.6-1.9.4-2.4-.4-.6-.8-.4-1.9.4-2.4.7-.5 1.8-.4 2.4.4m-.6-4.3c.6.6.6 1.5 0 2-.6.6-1.5.6-2 0-.6-.6-.6-1.5 0-2 .6-.6 1.5-.6 2 0" fill="#566471"/><path d="M68.7 13.2c-.6 1.9-2.7 2.9-4.6 2.3-1.9-.6-2.9-2.7-2.3-4.5.6-1.9 2.6-2.9 4.5-2.3 2 .6 3.1 2.6 2.4 4.5m-13.4 3.1c.3-1.7 1.8-2.8 3.5-2.5s2.8 1.8 2.5 3.5-1.8 2.8-3.5 2.5c-1.6-.3-2.7-1.9-2.5-3.5m.4 5.6c0 1.4-1.1 2.5-2.5 2.5s-2.5-1.1-2.5-2.5 1.1-2.5 2.5-2.5c1.3-.1 2.5 1.1 2.5 2.5m-4.1 4.5c.2 1.2-.6 2.2-1.8 2.4-1.2.2-2.2-.6-2.4-1.8-.2-1.2.6-2.2 1.8-2.4 1.2-.1 2.2.7 2.4 1.8m-2.7 4.5c.3.9-.2 1.9-1.1 2.2s-1.9-.2-2.2-1.1c-.3-.9.2-1.9 1.1-2.2.9-.4 1.9.1 2.2 1.1m-1.6 4c.4.7.1 1.6-.6 1.9-.7.4-1.6.1-1.9-.6-.4-.7-.1-1.6.6-1.9.7-.4 1.5-.1 1.9.6" fill="#c54d58"/><path d="M44.4 88.1c-.6 1.9-2.7 2.9-4.6 2.3s-2.9-2.7-2.3-4.5c.6-1.9 2.7-2.9 4.5-2.3 2 .5 3 2.6 2.4 4.5m.5-6.2c.3-1.7 1.8-2.8 3.5-2.5s2.8 1.8 2.5 3.5-1.8 2.8-3.5 2.5c-1.6-.3-2.7-1.9-2.5-3.5m10.8-4.7c0 1.4-1.1 2.5-2.5 2.5s-2.5-1.1-2.5-2.5 1.1-2.5 2.5-2.5c1.3 0 2.5 1.1 2.5 2.5m3.1-5.2c.2 1.2-.6 2.2-1.8 2.4-1.2.2-2.2-.6-2.4-1.8-.2-1.2.6-2.2 1.8-2.4 1.2-.2 2.3.6 2.4 1.8m1.9-4.9c.3.9-.2 1.9-1.1 2.2-.9.3-1.9-.2-2.2-1.1-.3-.9.2-1.9 1.1-2.2.9-.3 1.9.2 2.2 1.1m.8-4.3c.4.7.1 1.6-.6 1.9-.7.4-1.6.1-1.9-.6-.4-.7-.1-1.6.6-1.9.7-.3 1.6-.1 1.9.6M13.8 45.9c2 0 3.6 1.6 3.6 3.6s-1.6 3.6-3.6 3.6-3.6-1.6-3.6-3.6 1.6-3.6 3.6-3.6m6.1 5.8c1.7-.3 3.2.9 3.5 2.5.3 1.7-.9 3.2-2.5 3.5-1.7.3-3.2-.9-3.5-2.5-.3-1.7.8-3.2 2.5-3.5m6.1 4c1.3-.4 2.8.3 3.2 1.6.4 1.3-.3 2.8-1.6 3.2-1.3.4-2.8-.3-3.2-1.6-.4-1.4.3-2.8 1.6-3.2m5.6 2.4c1-.5 2.3-.1 2.8.9s.1 2.3-.9 2.8-2.3.1-2.8-.9-.1-2.3.9-2.8m5.1 1.2c.8-.6 1.9-.4 2.4.4.6.8.4 1.9-.4 2.4-.8.6-1.9.4-2.4-.4-.6-.7-.4-1.8.4-2.4m4.3.3c.6-.6 1.5-.6 2 0 .6.6.6 1.5 0 2-.6.6-1.5.6-2 0-.5-.5-.5-1.4 0-2" fill="#5ac4bc"/><path d="M92.5 45.9c2 0 3.6 1.6 3.6 3.6s-1.6 3.6-3.6 3.6-3.6-1.6-3.6-3.6 1.6-3.6 3.6-3.6m-7-4.6c1.7-.3 3.2.9 3.5 2.5.3 1.7-.9 3.2-2.5 3.5-1.7.3-3.2-.9-3.5-2.5-.3-1.6.8-3.2 2.5-3.5m-6.8-2.7c1.3-.4 2.8.3 3.2 1.6.4 1.3-.3 2.8-1.6 3.2-1.3.4-2.8-.3-3.2-1.6-.5-1.4.2-2.8 1.6-3.2m-6-1.4c1-.5 2.3-.1 2.8.9s.1 2.3-.9 2.8-2.3.1-2.8-.9-.1-2.3.9-2.8m-5.2-.3c.8-.6 1.9-.4 2.4.4.6.8.4 1.9-.4 2.4-.8.6-1.9.4-2.4-.4-.5-.7-.3-1.8.4-2.4m-4.3.5c.6-.6 1.5-.6 2 0 .6.6.6 1.5 0 2-.6.6-1.5.6-2 0-.6-.5-.6-1.4 0-2M23.4 23.5c1.6 1.2 2 3.4.8 5s-3.4 2-5 .8-2-3.4-.8-5c1.1-1.6 3.4-2 5-.8m1.5 8.2c1.5.8 2.1 2.6 1.3 4.1s-2.6 2.1-4.1 1.3-2.1-2.6-1.3-4.1c.8-1.4 2.6-2 4.1-1.3m2.7 6.9c1.3.4 2.1 1.9 1.6 3.2-.4 1.3-1.9 2.1-3.2 1.6-1.3-.4-2.1-1.9-1.6-3.2.4-1.3 1.9-2.1 3.2-1.6m3.1 5.2c1.2.2 1.9 1.3 1.8 2.4-.2 1.2-1.3 1.9-2.4 1.8-1.1-.2-1.9-1.3-1.8-2.4.2-1.2 1.2-2 2.4-1.8m3.4 4c1 0 1.7.8 1.7 1.7s-.8 1.7-1.7 1.7c-1 0-1.8-.8-1.8-1.7s.8-1.7 1.8-1.7m3.3 2.8c.8-.1 1.5.4 1.6 1.2.1.8-.4 1.5-1.2 1.7-.8.1-1.5-.4-1.6-1.2-.1-.9.4-1.6 1.2-1.7" fill="#c54d58"/><path d="M87.1 69.7c1.6 1.2 2 3.4.8 5s-3.4 2-5 .8-2-3.4-.8-5c1.1-1.6 3.4-1.9 5-.8m-3-7.8c1.5.8 2.1 2.6 1.3 4.1-.8 1.5-2.6 2.1-4.1 1.3-1.5-.8-2.1-2.6-1.3-4.1.8-1.5 2.6-2.1 4.1-1.3m-3.9-6.2c1.3.4 2.1 1.9 1.6 3.2-.4 1.3-1.9 2.1-3.2 1.6-1.3-.4-2.1-1.9-1.6-3.2s1.9-2.1 3.2-1.6m-4-4.7c1.2.2 1.9 1.3 1.8 2.4-.2 1.2-1.3 1.9-2.4 1.8-1.2-.2-1.9-1.3-1.8-2.4.2-1.1 1.3-1.9 2.4-1.8m-4-3.2c1 0 1.7.8 1.7 1.7s-.8 1.7-1.7 1.7c-1 0-1.7-.8-1.7-1.7s.7-1.7 1.7-1.7m-3.8-2.1c.8-.1 1.5.4 1.6 1.2.1.8-.4 1.5-1.2 1.6-.8.1-1.5-.4-1.6-1.2-.1-.8.4-1.5 1.2-1.6m14.5-22.2c1.6-1.2 3.9-.8 5 .8 1.2 1.6.8 3.9-.8 5-1.6 1.2-3.9.8-5-.8-1.2-1.6-.9-3.8.8-5m-8.4.4c1.2-1.2 3.1-1.2 4.3 0 1.2 1.2 1.2 3.1 0 4.3s-3.1 1.2-4.3 0c-1.2-1.2-1.2-3.1 0-4.3m-3 4.7c-.8 1.1-2.4 1.4-3.5.6-1.1-.8-1.4-2.4-.6-3.5s2.4-1.4 3.5-.6 1.4 2.4.6 3.5m-6 1.3c-.5 1-1.8 1.5-2.8.9-1-.5-1.5-1.8-.9-2.8.5-1 1.8-1.5 2.8-.9 1 .5 1.4 1.8.9 2.8m-4.8 2c-.3.9-1.3 1.4-2.2 1.1-.9-.3-1.4-1.3-1.1-2.2s1.3-1.4 2.2-1.1c.9.3 1.4 1.3 1.1 2.2M57 34.3c-.1.8-.9 1.3-1.7 1.2-.8-.1-1.3-.9-1.2-1.6.1-.8.9-1.3 1.7-1.2.8 0 1.3.8 1.2 1.6" fill="#5ac4bc"/><path d="M19.2 69.7c1.6-1.2 3.9-.8 5 .8 1.2 1.6.8 3.9-.8 5-1.6 1.2-3.9.8-5-.8-1.2-1.5-.8-3.8.8-5m8.3 1.2c1.2-1.2 3.1-1.2 4.3 0s1.2 3.1 0 4.3c-1.2 1.2-3.1 1.2-4.3 0-1.2-1.2-1.2-3.2 0-4.3m11.4 2.5c-.8 1.1-2.4 1.4-3.6.6-1.1-.8-1.4-2.4-.6-3.5.8-1.1 2.4-1.4 3.5-.6 1.3.8 1.6 2.4.7 3.5m5.7-2.4c-.5 1-1.8 1.5-2.9.9-1-.5-1.5-1.8-.9-2.8.5-1 1.8-1.5 2.8-.9 1.1.5 1.5 1.8 1 2.8m4.3-2.8c-.3.9-1.3 1.4-2.2 1.1-.9-.3-1.4-1.3-1.1-2.2.3-.9 1.3-1.4 2.2-1.1s1.4 1.3 1.1 2.2m3.2-3c-.1.8-.9 1.3-1.6 1.2-.8-.1-1.3-.9-1.2-1.6.1-.8.9-1.3 1.7-1.2.7.1 1.2.9 1.1 1.6" fill="#c54d58"/><path d="M44.4 11c.6 1.9-.4 3.9-2.3 4.5s-3.9-.4-4.5-2.3c-.6-1.9.4-3.9 2.3-4.5 1.9-.6 3.9.4 4.5 2.3m-3.6 7.6c.8 1.5.2 3.3-1.3 4.1s-3.3.2-4.1-1.3-.2-3.3 1.3-4.1c1.5-.8 3.3-.2 4.1 1.3m-1.9 7.1c.8 1.1.6 2.7-.6 3.5-1.1.8-2.7.6-3.5-.6-.8-1.1-.6-2.7.6-3.5 1.1-.8 2.7-.6 3.5.6m-.6 6c.8.8.8 2.2 0 3s-2.2.8-3 0-.8-2.2 0-3c.9-.8 2.2-.8 3 0m.4 5.2c.8.6 1 1.7.4 2.4-.6.8-1.7 1-2.4.4-.8-.6-.9-1.7-.4-2.4.6-.8 1.7-1 2.4-.4m1.1 4.2c.7.4 1 1.2.6 1.9s-1.2 1-1.9.6-1-1.2-.6-1.9c.3-.7 1.2-.9 1.9-.6" fill="#5ac4bc"/><path d="M68.7 85.8c.6 1.9-.4 3.9-2.3 4.5s-3.9-.4-4.5-2.3.4-3.9 2.3-4.5 3.9.4 4.5 2.3m2.2-8.1c.8 1.5.2 3.3-1.3 4.1-1.5.8-3.3.2-4.1-1.3-.8-1.5-.2-3.3 1.3-4.1s3.4-.2 4.1 1.3m.6-7.3c.8 1.1.6 2.7-.6 3.5-1.1.8-2.7.6-3.5-.6-.8-1.1-.6-2.7.6-3.5 1-.8 2.6-.5 3.5.6m-.6-6.1c.8.8.8 2.2 0 3s-2.2.8-3 0-.8-2.2 0-3c.9-.8 2.2-.8 3 0m-1.3-5c.8.6 1 1.7.4 2.4-.6.8-1.7 1-2.4.4-.8-.6-1-1.7-.4-2.4.5-.8 1.6-.9 2.4-.4m-1.8-3.9c.7.4 1 1.2.6 1.9s-1.2 1-1.9.6-1-1.2-.6-1.9c.3-.7 1.2-1 1.9-.6" fill="#c54d58"/><path d="M138.5 33.9c-.8-.5-1.8-.7-2.8-.7-3 0-4.4 1.9-4.4 5.6v4.1h6.2v3.6h-6.2v22.8h-4.2V46.5h-4.5v-3.6h4.5v-4.3c0-2.8.8-5 2.4-6.6 1.6-1.6 3.6-2.4 6-2.4 1.3 0 2.3.2 3.1.5v3.8h-.1zm5.7 2.2c-.8 0-1.4-.3-1.9-.8s-.8-1.2-.8-2 .3-1.5.8-2 1.2-.8 1.9-.8c.8 0 1.4.3 2 .8.5.5.8 1.2.8 2s-.3 1.4-.8 1.9c-.6.7-1.2.9-2 .9zm2.1 33.2H142V42.9h4.2v26.4h.1zm31.1-2.1c0 9.7-4.6 14.6-13.9 14.6-3.3 0-6.1-.6-8.6-1.9v-4.2c3 1.7 5.8 2.5 8.5 2.5 6.5 0 9.8-3.5 9.8-10.4v-2.9h-.1c-2 3.4-5 5.1-9.1 5.1-3.3 0-5.9-1.2-7.9-3.5s-3-5.5-3-9.5c0-4.5 1.1-8.1 3.2-10.7s5.1-4 8.9-4c3.6 0 6.2 1.4 7.9 4.3h.1v-3.7h4.2v24.3zm-4.2-9.9v-3.9c0-2.1-.7-3.9-2.1-5.4-1.4-1.5-3.2-2.2-5.3-2.2-2.6 0-4.7 1-6.1 2.9-1.5 1.9-2.2 4.6-2.2 8 0 2.9.7 5.3 2.1 7.1 1.4 1.8 3.3 2.6 5.6 2.6 2.4 0 4.3-.8 5.8-2.5 1.4-1.8 2.2-3.9 2.2-6.6zm10.2 11.3V62c1.3.8 2.7 1.4 4 1.8s2.6.6 3.8.6c1.4 0 2.6-.2 3.4-.6.8-.4 1.3-1 1.3-1.8 0-.5-.2-.9-.6-1.3-.4-.3-.9-.6-1.5-.9s-1.2-.5-1.9-.7-1.4-.4-2-.7c-1.1-.4-2-.8-2.8-1.3s-1.5-1-2-1.6-1-1.3-1.2-2.1c-.3-.8-.4-1.7-.4-2.8 0-1.5.3-2.8 1-3.8.6-1.1 1.5-1.9 2.6-2.6s2.3-1.2 3.7-1.5 2.8-.5 4.3-.5c1.2 0 2.4.1 3.6.3 1.2.2 2.4.4 3.6.8v6.3c-1-.6-2.1-1.1-3.3-1.4s-2.3-.5-3.5-.5c-.5 0-1 0-1.5.1s-.9.2-1.3.4-.6.4-.9.7c-.2.3-.3.6-.3 1 0 .5.2.9.5 1.2.3.3.7.6 1.2.9.5.2 1.1.5 1.7.7l1.8.6c1.1.4 2.1.8 2.9 1.2.9.4 1.6 1 2.3 1.6.6.6 1.1 1.3 1.4 2.1.3.8.5 1.8.5 2.9 0 1.6-.3 2.9-1 4s-1.6 2-2.7 2.7c-1.1.7-2.4 1.2-3.9 1.5s-3 .5-4.6.5c-3 .1-5.7-.3-8.2-1.2zm50.4.7h-8.1v-15c0-3.9-1.4-5.8-4.2-5.8-1.4 0-2.6.5-3.5 1.6s-1.3 2.5-1.3 4.1v15.1h-8.2V30.2h8.2v16.6h.1c2-3 4.7-4.6 8.1-4.6 6 0 9 3.6 9 10.8v16.3h-.1zm28.4 0h-7.7v-3.8h-.1c-1.8 3-4.4 4.4-7.9 4.4-2.6 0-4.6-.7-6.1-2.2s-2.2-3.4-2.2-5.8c0-5.1 3-8.1 9.1-8.9l7.2-1c0-2.9-1.6-4.3-4.7-4.3-3.2 0-6.1.9-9 2.8v-6.1c1.1-.6 2.7-1.1 4.7-1.5s3.8-.7 5.4-.7c7.5 0 11.3 3.8 11.3 11.3v15.8zm-7.6-10.7v-1.8l-4.8.6c-2.7.3-4 1.5-4 3.6 0 .9.3 1.7 1 2.3s1.5.9 2.6.9c1.5 0 2.8-.5 3.7-1.6 1-1.1 1.5-2.4 1.5-4zm31.3-8.4c-1-.5-2.1-.8-3.4-.8-1.8 0-3.2.6-4.2 1.9s-1.5 3.1-1.5 5.3v12.6h-8.2V42.9h8.2v4.9h.1c1.3-3.6 3.6-5.4 7-5.4.9 0 1.5.1 2 .3v7.5zm27.6 8.2h-17.2c.3 3.8 2.7 5.8 7.3 5.8 2.9 0 5.5-.7 7.7-2.1V68c-2.4 1.3-5.6 2-9.5 2-4.3 0-7.6-1.2-9.9-3.6-2.4-2.4-3.5-5.7-3.5-9.9 0-4.4 1.3-7.9 3.8-10.4 2.5-2.6 5.7-3.8 9.4-3.8 3.9 0 6.8 1.1 8.9 3.4s3.2 5.4 3.2 9.3v3.4h-.2zm-7.6-5c0-3.8-1.5-5.7-4.6-5.7-1.3 0-2.4.5-3.4 1.6s-1.5 2.4-1.7 4.1h9.7z" fill="#566471"/></svg>