<svg xmlns="http://www.w3.org/2000/svg" xml:space="preserve" x="0" y="0" version="1.1" viewBox="0 0 175 50"><path d="M25 45.5C13.7 45.5 4.5 36.3 4.5 25S13.7 4.5 25 4.5V0C11.2 0 0 11.2 0 25s11.2 25 25 25v-4.5z" fill="#5667ad" fill-rule="evenodd" clip-rule="evenodd"/><circle fill="#5667ad" cx="25" cy="25" r="16"/><path d="M53 13.1h-3.3V11h8.7v2.1h-3.2v9.6H53v-9.6zm6.6-3h2.2v5c.6-.8 1.5-1.2 2.5-1.2 2 0 3.4 1.3 3.4 3.6v5.2h-2.3v-4.9c.2-.9-.5-1.8-1.4-2h-.3c-1 0-1.9.8-1.9 1.9v5h-2.2V10.1zm9.2 8.3c0-2.5 1.9-4.5 4.4-4.5h.1c2.4-.1 4.4 1.8 4.5 4.1v1.1h-6.9c.3 1.1 1.3 1.9 2.5 1.8.9 0 1.7-.4 2.2-1.1l1.8 1.1c-.9 1.3-2.4 2.1-4 2-2.4.1-4.4-1.7-4.6-4.1v-.4zm2.2-1h4.6c-.2-1-1.2-1.7-2.3-1.7-1.1.1-2 .8-2.3 1.7zm11.8-.5c-.1-3.2 2.5-5.9 5.8-6h.2c2.1 0 4.1 1.1 5.2 2.9L92 15c-.6-1.2-1.8-2-3.2-2-2 0-3.7 1.6-3.7 3.6v.1c0 2 1.6 3.7 3.6 3.8h.1c1.4 0 2.8-.8 3.3-2.2l2.1 1.1c-1.5 2.9-5.1 4.1-8.1 2.6-2-.9-3.2-2.9-3.3-5.1zm11.9 0c0-3.3 2.7-6 6-6s6 2.7 6 6-2.7 6-6 6-6-2.7-6-6zm9.7 0c0-2-1.7-3.7-3.8-3.6-2 0-3.7 1.7-3.6 3.8 0 2 1.7 3.6 3.7 3.6s3.7-1.7 3.7-3.8zm1.8-5.8h2.4l3.1 8.7 3.2-8.7h2.4l-4.4 11.7h-2.2l-4.5-11.7zm12.1 0h2.3v11.7h-2.3V11.1zm4.2 0h3.8c3.2-.2 5.9 2.2 6.1 5.3v.5c0 3.2-2.6 5.8-5.8 5.8h-4.1V11.1zm2.3 2.1v7.5h1.4c2 .1 3.8-1.4 3.9-3.4V17c.1-2-1.5-3.7-3.4-3.8h-1.9zM53 29.1h-3.3V27h8.7v2.1h-3.2v9.6H53v-9.6z" fill="#5667ad"/><path d="M57.9 30.1h2.2v1.3c.4-1 1.4-1.6 2.4-1.5.5 0 1 .1 1.5.3l-.8 2.2c-.3-.2-.7-.3-1.2-.3-1-.1-1.8.6-1.9 1.6v5h-2.2v-8.6zm6 6.2c0-1.8 1.5-2.9 3.9-2.9h2.3v-.1c0-.9-.7-1.6-1.6-1.6h-.3c-.8 0-1.6.4-2 1.1l-2-1c.9-1.3 2.5-2.1 4.1-2 2.6 0 4 1.3 4 3.5v5.3h-2.2v-1.3c-.8 1-1.9 1.5-3.2 1.5-1.9.1-3-.9-3-2.5zm6.2-.8V35h-2c-1.3 0-1.8.4-1.8 1.1s.4.9 1.3.9c1.1.1 2-.5 2.5-1.5zm3.2-1.1c0-2.5 2.1-4.5 4.6-4.5 1.8 0 3.4 1.1 4.1 2.7l-2 .8c-.3-.9-1.2-1.5-2.2-1.5-1.3.1-2.3 1.2-2.3 2.6.1 1.2 1 2.2 2.3 2.3 1 0 1.8-.6 2.2-1.5l2.1.8c-.7 1.7-2.4 2.8-4.2 2.8-2.5 0-4.5-1.9-4.5-4.4-.1 0-.1 0-.1-.1zm13.3.8-1.3 1.5v2.1h-2.2V26.1h2.2v8l3.5-4h2.6l-3.2 3.7 3.4 5h-2.5l-2.5-3.6zm7.1-9c.8 0 1.4.6 1.4 1.3v.1c-.1.9-.8 1.4-1.5 1.4-.7-.1-1.2-.6-1.3-1.3-.1-.8.5-1.4 1.4-1.5-.1 0-.1 0 0 0zm-1.1 3.9h2.3v8.6h-2.3v-8.6zm3.9 0h2.2v1.1c.6-.8 1.5-1.3 2.5-1.3 2 0 3.3 1.3 3.3 3.6v5.2h-2.3v-4.9c.2-.9-.5-1.8-1.4-2h-.3c-1 0-1.9.8-1.9 1.9v5.1h-2.2v-8.7zm9.1 4.3c-.1-2.3 1.7-4.3 4-4.5h.2c1.1 0 2.1.5 2.7 1.3v-1.1h2.2v8c0 2.4-1.8 4.3-4.2 4.3h-.3c-1.6.1-3.1-.5-4.2-1.7l1.8-1.4c.5.8 1.4 1.2 2.3 1.2 1.2.1 2.3-.9 2.4-2.1v-.9c-.6.9-1.6 1.4-2.7 1.4-2.4 0-4.2-2-4.2-4.3v-.2zm7 0c0-1.3-1.1-2.4-2.4-2.4-1.3 0-2.4 1.1-2.4 2.4 0 1.3 1.1 2.4 2.4 2.4 1.4 0 2.4-1 2.4-2.4zm7.8-7.3h4.6c2.3 0 4.3 1.9 4.3 4.2 0 2.3-1.9 4.3-4.2 4.3h-2.3v3.2h-2.3l-.1-11.7zm2.2 2v4.3h2.2c1.2 0 2.2-1 2.2-2.2s-1-2.2-2.2-2.2h-2.2zm7.6 1h2.2v1.3c.4-1 1.4-1.6 2.4-1.5.5 0 1 .1 1.5.3l-.8 2.2c-.3-.2-.7-.3-1.1-.3-1-.1-1.8.6-1.9 1.6v5h-2.2l-.1-8.6zm5.6 4.3c0-2.5 2-4.6 4.5-4.6s4.6 2 4.6 4.5-2 4.6-4.5 4.6h-.1c-2.5 0-4.5-1.9-4.6-4.4.1 0 0 0 .1-.1zm6.9 0c0-1.3-1.1-2.3-2.4-2.3-1.3 0-2.3 1.1-2.3 2.4 0 1.3 1.1 2.3 2.4 2.3 1.2 0 2.3-1 2.3-2.4zm1.6 5.7c1.5 0 1.7-.2 1.7-1.7V30h2.3v8.4c0 2.8-.9 3.7-3.6 3.7h-.3l-.1-2zm2.8-13.9c.8 0 1.4.6 1.4 1.3v.1c-.1.8-.8 1.4-1.5 1.3-.7-.1-1.2-.6-1.3-1.3 0-.7.6-1.3 1.4-1.4zm2.3 8.2c0-2.5 1.9-4.5 4.4-4.5h.1c2.4-.1 4.4 1.8 4.5 4.1v1.1h-6.9c.3 1.1 1.3 1.9 2.5 1.8.9 0 1.7-.4 2.1-1.2l1.9 1.1c-.9 1.3-2.4 2.1-4 2-2.4.1-4.5-1.7-4.6-4.1v-.3zm2.2-1h4.6c-.2-1-1.2-1.7-2.3-1.7-1 .1-2 .7-2.3 1.7zm7.7 1c0-2.5 2.1-4.5 4.6-4.5 1.8 0 3.4 1.1 4.1 2.7l-2 .8c-.3-.9-1.2-1.5-2.2-1.5-1.3.1-2.3 1.2-2.3 2.6.1 1.2 1 2.2 2.3 2.3 1 0 1.8-.6 2.1-1.5l2 .8c-.7 1.7-2.4 2.8-4.2 2.8-2.4 0-4.4-1.9-4.4-4.5 0 .1 0 .1 0 0zm9.2-4.3h1.6v-1.9l2.2-1.2v3.1h2.3v2h-2.3v3.5c0 .9.4 1.2.9 1.2.3 0 .6-.1.8-.3l1 1.7c-.6.4-1.3.7-2.1.7-1.8 0-2.9-.9-2.9-3.2V32h-1.6l.1-1.9z" fill="#5667ad"/></svg>