<svg xmlns="http://www.w3.org/2000/svg" class="logo svg replaced-svg" color="#008dc9" cursor="pointer" style="border-color:#008dc9;height:60px;max-width:100%;outline-color:#008dc9;text-decoration-color:#008dc9;width:195.812px;column-rule-color:#008dc9;perspective-origin:97.9062px 30px;-webkit-text-emphasis-color:#008dc9;-webkit-text-fill-color:#008dc9;-webkit-text-stroke-color:#008dc9;caret-color:#008dc9" text-decoration="none solid #008dc9" transform-origin="97.9062px 30px" version="1.1" viewBox="0 0 585 177.96"><g fill="#0093d5" color="#008dc9" cursor="pointer" data-name="Layer 2" style="border-color:#008dc9;height:auto;outline-color:#008dc9;overflow-x:visible;overflow-y:visible;text-decoration-color:#008dc9;width:auto;column-rule-color:#008dc9;perspective-origin:0 0;-webkit-text-emphasis-color:#008dc9;-webkit-text-fill-color:#008dc9;-webkit-text-stroke-color:#008dc9;caret-color:#008dc9" text-decoration="none solid #008dc9" transform-origin="0 0"><path d="M164 32.58c3.86 4.6 10.61 7.31 14.56 11.92-2.83-13.63-13.35-24.76-25.79-27.42 6.07 4.57 7.38 10.92 11.23 15.5ZM14.48 67.13c8.57-18.65 21.36-14.7 26.77-32.47-3 5.45-17 7.75-23.51 21.72 3.31-8.3 1.65-21 7.25-27.85-16.74 12.35-9.61 32.33-10.51 38.6ZM30 111.86c1.54 7.26-3 17.74 4.2 27.76-7.44-8.34-23.2-10.46-29.62-23.14 8 31 29 24.6 38.39 31.33-7.76-11.15-1.41-18.56-12.97-35.95Zm-2.41 19.45C23 114 31.18 108 24.93 91.4c-.65 9.36-6.89 13.92-2.68 31C14.82 107.94 3.33 102.54 0 92.6c.23 27.18 22.07 31.21 27.59 38.71Zm33.54 29c-6.43-8.9-2-13.93-20.1-30.09 3.82 5.9-.12 13.32 12.06 24.86-11.92-7-28.36-4-36.29-13.41 13.62 26.07 37.55 15.43 44.33 18.67Zm87.42-5.23c12.18-11.54 8.24-19 12.06-24.86-18.06 16.16-13.67 21.19-20.1 30.09 6.78-3.24 30.71 7.4 44.32-18.64-7.92 9.42-24.36 6.41-36.28 13.44Zm18.89-15.49c7.17-10 2.66-20.5 4.2-27.76-11.56 17.39-5.21 24.8-13 36 9.44-6.73 30.36-.35 38.39-31.33-6.41 12.66-22.15 14.78-29.59 23.12Zm-28.86 21.95a89.2 89.2 0 0 0-19.75-3 47.75 47.75 0 0 0-18 3.06 47.78 47.78 0 0 0-18-3.06 89.2 89.2 0 0 0-19.75 3c-10.87 2.89-20.26 5.13-28.45 1 7.85 7 17 9.45 30.23 8 11-1.18 19.91-6.69 30.29-6.61h.41a55.47 55.47 0 0 0-17.12 13.31l5 .67s5.27-10.59 17.39-13.35c12.12 2.76 17.39 13.35 17.39 13.35l5-.67A55.63 55.63 0 0 0 106.1 164h.41c10.38-.08 19.27 5.43 30.28 6.61 13.23 1.43 22.39-1.06 30.24-8-8.19 4.09-17.58 1.85-28.45-1.04ZM25.67 72.63C21.19 81.23 14.23 83.2 15 101 11.22 85.18 2.24 79.32 2.35 69.23c-6.24 26.3 10.44 29.42 14.72 40.44-.63-15.79 9.45-18.98 8.6-37.04Zm6.26-20.3c-1.56 2.18-2.65 3.11-6.81 6.54A33.77 33.77 0 0 0 13 78.64c.43-9.64-5.53-23.49-1.57-33.59-15.33 21.65.88 34.62 1.45 42.46C16.86 72.42 26 72.3 31.93 52.33Zm156.7 26.31a33.82 33.82 0 0 0-12.11-19.77c-4.16-3.43-5.25-4.36-6.81-6.54 5.93 20 15.07 20.09 19 35.18.57-7.84 16.78-20.81 1.44-42.46 4 10.1-1.95 23.95-1.52 33.59Zm13 14c-3.33 9.94-14.82 15.34-22.25 29.84 4.21-17.12-2-21.68-2.68-31-6.25 16.62 2 22.59-2.66 39.91 5.53-7.58 27.37-11.61 27.6-38.79ZM176 72.63c-.85 18.06 9.24 21.25 8.6 37 4.29-11 21-14.14 14.72-40.44.12 10.09-8.86 16-12.61 31.72.7-17.71-6.26-19.68-10.71-28.28Zm-138.34-40c3.87-4.6 5.18-10.93 11.24-15.5-12.44 2.66-23 13.79-25.79 27.42 3.89-4.66 10.65-7.37 14.51-11.97Zm122.77 2.08c5.41 17.77 18.2 13.82 26.76 32.47-.89-6.27 6.24-26.25-10.5-38.6 5.6 6.86 3.94 19.55 7.25 27.85-6.53-14.02-20.5-16.32-23.55-21.77ZM117 44.75A41.92 41.92 0 0 0 106.77 42v2.28a40 40 0 0 1 9.4 2.58 6 6 0 0 0 .83-2.11Zm-2.59-22 .68-.61-1.3-.55-3.42-.07-.89.62-2-.17v.49a34.75 34.75 0 0 1 3.52.37l1.67-.15Zm-6.63 73.75c0-.58-.77-1.15-1.91-1.69h-.21c0 .47 0 2.79-.07 3.92 1.41-.63 2.19-1.31 2.19-2.23ZM68.16 53a10.92 10.92 0 0 1 .29-1.25 5.79 5.79 0 0 1-1.4.14Zm32.73 100.6A69.76 69.76 0 0 0 108 14.47c0 .13 0 .27-.08.4-.14.68-.27 1.29-.37 1.83a67.35 67.35 0 0 1 40.63 19l-7.7 7.7.29-1.36-1-.44-1.38-.08.29-.89-.93-3.15-1.92-2.11-6-3.17-.52.55-1.09.32a18 18 0 0 1 3.18 10.11v1.37l3 3.75-1.4.32.93 1.4-2.63 2.62-1.06-2a17.92 17.92 0 0 1-2 3.93l.59.54-8.11 8.11c-.49-.47-1-.92-1.52-1.35-.78.36-1.57.69-2.38 1l.69.54-.41.41-1 .53-.35 1-.59-.59-1.71.57.47.75 1.18-.31.77.06.06-.42.59-.3.18-.35 1.06-.3h.83c.16.14.33.29.48.44l-3.26 3.1-.24-.34-3.36.55-.75.75-.73.09 2.08-2-.74-.37-1.95 2.6.57-.06v1l.71.28.14 1-1.17-.23-1.22.22-3-1.51-.24 11.9c7 2.34 14.35 5.72 14.35 14.6a11 11 0 0 1-5 9.38l-.15.1-.22.15c-2.82 1.86-6.44 2.86-9.58 3.84l-.09 6.22c5 2.48 11.05 6.09 10.49 16.42-.07 2.54-1.06 3.24-1.91 3.47a52.52 52.52 0 0 1-9 1.43v2.27a55.87 55.87 0 0 0 34.78-15.36l8.1 8.1a67.37 67.37 0 0 1-93.3.19l8.1-8.1a55.83 55.83 0 0 0 34.29 15.15v-2.27A53.59 53.59 0 0 1 64.05 123l2.16-2.17 3 .34 1.58-1.7 4.14.14.61-1.43-.15-.61A42 42 0 0 0 96.48 126v-2.28a39.93 39.93 0 0 1-22.72-10.42l8.11-8.11a28.85 28.85 0 0 0 6.57 4.41 7.67 7.67 0 0 1 .82-2.13 26.22 26.22 0 0 1-5.79-3.89l8.13-8.12a14.86 14.86 0 0 0 4.34 2.41v-2.44a12.47 12.47 0 0 1-2.68-1.59l2.29-2.29c-.8-.24-1.62-.5-2.42-.78l-1.54 1.54a12.4 12.4 0 0 1-1.94-2.89 27.57 27.57 0 0 1-4-2.14 15.69 15.69 0 0 1-7.59-13.78A16.54 16.54 0 0 1 81.34 63l-8.08-8.08A39.91 39.91 0 0 1 94.9 44.28c0-.78 0-1.55-.05-2.28a42.18 42.18 0 0 0-23.19 11.34L70.29 52c-.31.55-.67 1.24-1.09 2.11l.86.87A42.13 42.13 0 0 0 58.6 83.17H47.13A53.62 53.62 0 0 1 62 46.83l3.64 3.65a4.61 4.61 0 0 0 .52 0 5.5 5.5 0 0 0 2.07-.6l-4.63-4.63a54.51 54.51 0 0 1 8-6.38 15.06 15.06 0 0 1 .57-1.68 26.93 26.93 0 0 1 1.75-2.35A56 56 0 0 0 62 43.63l-8.1-8.1A67.2 67.2 0 0 1 94 16.73c-.06-.28-.1-.5-.1-.5-.1-.53-.22-1.12-.33-1.74a69.77 69.77 0 0 0 7.28 139.15ZM116 105.45v-.06Zm33.78-68.12a67.26 67.26 0 0 1 18.65 45.84h-11.51a55.67 55.67 0 0 0-6-24.48l.1-.2.79.42.19-.61-2-3.59-2.43-3.36-2.88-2.35c-1-1.22-2-2.4-3.07-3.54ZM135.13 52l2.75.12.66.79-.33 1.17 3.79 2.4.75-.09 4.9 5.6 2-.7a53.4 53.4 0 0 1 5 21.88h-11.46a41.78 41.78 0 0 0-1.07-8.72l.53-.71.71-3.59-.54-3.86-1.38-4.44-3.2-4.68.78.41.39-.39-2.57-1.74-.17.57 2.57 3.67 1.45 3 1 3 .33 2 .53 3.38-1 .07s-1.11-2.07-1.45-2.92l.51-.77-1-1.4v-1.4l-.7-.88-.87.11c-.31-.58-.64-1.15-1-1.71l.62.31.16-.16-.33-.72.75-.42-.34-.42-1.11.42.41-1.74-.66-.38-.59 1.39a42.64 42.64 0 0 0-4.17-5.3Zm-2.3 26.87 2.06-1.12 2.1-.32.46-1 1.17-.7.45-1 .36-1.69c.17.59.32 1.2.46 1.81l-1.11 3.31v1.12l1.61-2.15a38.74 38.74 0 0 1 .57 6h-10l-.23-.87 1.17-.93.23-.56.51-.38 1.36-.14.14-.6ZM119.07 71l1-.24v-.24l-1-.69.35-2.16 1.23-1.23a27.16 27.16 0 0 1 2.13 2.77l-.43 1.33-1.12-.8-.85.23.42.79h.42l-.47 1.17-.32-.47Zm4.39 38.07-2.48-.7-.74.27-1.4-1.07-1.32-.47c.65-.47 1.28-1 1.89-1.48l2 1.44 1.56.82.77.77Zm-1.26-44.22 8.11-8.11a40.43 40.43 0 0 1 5 6.74l-1 .28.05 1.81 3 1.92a39.2 39.2 0 0 1 1.9 5.12l-.53.78-1.1.7-.27 1.68-.75.42-.63.74-.63-.23h-1.12l.65-.88.47-2.29.74-.46-2.09-2.15-1.63.55L132 73l-1 1.11-1.07-.88-.38-.94.61-.38.34.62.5-.19-.22-1h-.71l-.05.42-.47.09-2.55-2.99-.86-.65.33-.36.76-.26-.7-.28s-.89.2-1 .2l.51.64h-1.28a27.71 27.71 0 0 0-2.56-3.3Zm4.13 43.15-1.1-1.1.84-1.09 1.06-2.16-.41-.6.7-1.6-.08-1.44-.42-1.49-1-.35-.37.84-.6-.16a27.18 27.18 0 0 0 2.4-4.19l1-.44.58-.78.28.32.7-.84-.56-.7.51-.14.94.38h1.77l1.07-.56 2.8-.74-.53-.93-.18-1.13 1.5.66.56-.33-.28-1.16-1.81.73-2-.42-1.54-3.15h8.77a39.92 39.92 0 0 1-11.07 26.08l-1.2-1.21.52-1.61-.94-3.55Zm1.55 22.37 1.08-2.32-.42-1 1.59-1.4v-.84l-1.36-.85 1.12-2.23 1.68-2.2-1.68-1.81h-1.26l-.78-1.27c.67-.56 1.34-1.13 2-1.73l8.11 8.11a54.38 54.38 0 0 1-10.08 7.55Zm10.12-10.7.9-1-.85-4.44-.58-.23.36-.75-1.92-.6-.37 1.58-.19 2-.4.37-3.5-3.5a42.17 42.17 0 0 0 11.74-27.67h11.47a53.55 53.55 0 0 1-15.1 35.78Zm3.16 3.15a55.84 55.84 0 0 0 15.77-37.38h11.46a67.28 67.28 0 0 1-19.12 45.49Zm-69-11.11c-.83-.86-1.62-1.75-2.38-2.68l.35-2.9-1.21-2.78-.3-4.35-1.36-2.64.28-1.64-1.64-3.15-1.43-.72.58-1.67-.59-1.32.59-1.51h1.57l.55-.91h2.68l.41.79-.5 2.77-.32.47 1 2.19-.66.36-.46-.58-.2.22.46 1.3.79 1.52h.37L71 93l-.38-.5v-.92l-.12-1.9.5-3.34-.54-.9h1.92a28.48 28.48 0 0 0 7.89 18.17Zm-7.6-22.41L63.48 91h-1.86l-.15-.11a40.74 40.74 0 0 1-.58-5.45h3.45l-.83 2.76Zm3.77-7.87.21-2.28 1.36-.79 2.43.43.37.44a27 27 0 0 0-.37 3.94h-2.75ZM80 90l.57-.29L82 90.84l-.65.53 1.69 1.12-.04-1.2.9-1.49.94 1 1 1.38-1.84.38.79 1.58L86 93.5l-.12-.5.9-.61.53-2.5a14.91 14.91 0 0 0 2.63 4l-8.1 8.1a26.21 26.21 0 0 1-7.1-15.22l1.66 1.77h1.56Zm-8.34-33.46 8.1 8.11a28.91 28.91 0 0 0-4.3 6.19h-.56l-1.14.35h-.4l-1.21 1.13 1.53-.32 1.38-.35-.24.53-1.21.74H73l-1.78 1.36-1.72-.14-2.49 4.64.49.93-1.35 1.5-.21 2h-5.08a39.92 39.92 0 0 1 10.8-26.67Zm-10.47 61.15 2.57 1.51.53.36-1.86 1.86q-1.3-1.35-2.52-2.79Zm-2.57-32.25c0 1.11.14 2.22.26 3.31l-1.4.32-.29 1.42-2.92 3.72.07 5.11-3 1H49.7a53.48 53.48 0 0 1-2.56-14.89ZM47.3 100.26l-.67-.13-.63-.71-3.22-.28 1 1.35-3-.56.78-.72-.73-.72-2.15.94-.77 1.42.3 3.27 2.48 5.88 1.19 1.86.68.25-1.87-3.55-.41-1.81.42-.44-.26-1 1.13.15 1.73 2.62.43.17v-1.91l.7.41.15 1 1.82.48.76-.54.26.18v1.39l.8 1 1 .22 2.12 3.59 1.29.36.4-1.68a56.32 56.32 0 0 0 7.9 10.2l-8.1 8.1a67.32 67.32 0 0 1-19.42-45.61h11.47a55.83 55.83 0 0 0 2.42 14.82Zm5-63.13 8.1 8.1a55.91 55.91 0 0 0-15.54 37.94H33.4a67.28 67.28 0 0 1 18.85-46.04Zm83-4.18-.69-1.12-1.5-.75-1.17.89 1.5.8 1.61 1.23Zm-7.01 32.35v.88l2-.59.61-1.21-1.37-1.8.73-1.1 1.85 1.32.34-.27-.37-.26-.42-.8.76-.44-.74-1-1.74.88-.58 1.09-.35.95.77 1.29-.28.6Zm-82.9 51.42.15-.52-1-2.24-1.22-.45Zm46.88-43.08c0 1.92 1.17 3.28 3.3 4.45v-.86l-1.34-1.34.71-1.29.58-.16c0-2.24-.09-4.75-.1-5.11h-.1c-1.98 1.1-3.05 2.42-3.05 4.31Z" style="border-color:#008dc9;height:auto;outline-color:#008dc9;overflow-x:visible;overflow-y:visible;text-decoration-color:#008dc9;width:auto;column-rule-color:#008dc9;perspective-origin:0 0;-webkit-text-emphasis-color:#008dc9;-webkit-text-fill-color:#008dc9;-webkit-text-stroke-color:#008dc9;d:path(&quot;M 164 32.58 C 167.86 37.18 174.61 39.89 178.56 44.5 C 175.73 30.87 165.21 19.74 152.77 17.08 C 158.84 21.65 160.15 28 164 32.58 Z M 14.48 67.13 C 23.05 48.48 35.84 52.43 41.25 34.66 C 38.25 40.11 24.25 42.41 17.74 56.38 C 21.05 48.08 19.39 35.38 24.99 28.53 C 8.25 40.88 15.38 60.86 14.48 67.13 Z M 30 111.86 C 31.54 119.12 27 129.6 34.2 139.62 C 26.76 131.28 11 129.16 4.58 116.48 C 12.58 147.48 33.58 141.08 42.97 147.81 C 35.21 136.66 41.56 129.25 30 111.86 Z M 27.59 131.31 C 23 114 31.18 108 24.93 91.4 C 24.28 100.76 18.04 105.32 22.25 122.4 C 14.82 107.94 3.33 102.54 0 92.6 C 0.23 119.78 22.07 123.81 27.59 131.31 Z M 61.13 160.31 C 54.7 151.41 59.13 146.38 41.03 130.22 C 44.85 136.12 40.91 143.54 53.09 155.08 C 41.17 148.08 24.73 151.08 16.8 141.67 C 30.42 167.74 54.35 157.1 61.13 160.34 Z M 148.55 155.08 C 160.73 143.54 156.79 136.08 160.61 130.22 C 142.55 146.38 146.94 151.41 140.51 160.31 C 147.29 157.07 171.22 167.71 184.83 141.67 C 176.91 151.09 160.47 148.08 148.55 155.11 Z M 167.44 139.59 C 174.61 129.59 170.1 119.09 171.64 111.83 C 160.08 129.22 166.43 136.63 158.64 147.83 C 168.08 141.1 189 147.48 197.03 116.5 C 190.62 129.16 174.88 131.28 167.44 139.62 Z M 138.58 161.54 A 89.2 89.2 0 0 0 118.83 158.54 A 47.75 47.75 0 0 0 100.83 161.6 A 47.78 47.78 0 0 0 82.83 158.54 A 89.2 89.2 0 0 0 63.08 161.54 C 52.21 164.43 42.82 166.67 34.63 162.54 C 42.48 169.54 51.63 171.99 64.86 170.54 C 75.86 169.36 84.77 163.85 95.15 163.93 H 95.56 A 55.47 55.47 0 0 0 78.44 177.24 L 83.44 177.91 S 88.71 167.32 100.83 164.56 C 112.95 167.32 118.22 177.91 118.22 177.91 L 123.22 177.24 A 55.63 55.63 0 0 0 106.1 164 H 106.51 C 116.89 163.92 125.78 169.43 136.79 170.61 C 150.02 172.04 159.18 169.55 167.03 162.61 C 158.84 166.7 149.45 164.46 138.58 161.57 Z M 25.67 72.63 C 21.19 81.23 14.23 83.2 15 101 C 11.22 85.18 2.24 79.32 2.35 69.23 C -3.89 95.53 12.79 98.65 17.07 109.67 C 16.44 93.88 26.52 90.69 25.67 72.63 Z M 31.93 52.33 C 30.37 54.51 29.28 55.44 25.12 58.87 A 33.77 33.77 0 0 0 13 78.64 C 13.43 69 7.47 55.15 11.43 45.05 C -3.9 66.7 12.31 79.67 12.88 87.51 C 16.86 72.42 26 72.3 31.93 52.33 Z M 188.63 78.64 A 33.82 33.82 0 0 0 176.52 58.87 C 172.36 55.44 171.27 54.51 169.71 52.33 C 175.64 72.33 184.78 72.42 188.71 87.51 C 189.28 79.67 205.49 66.7 190.15 45.05 C 194.15 55.15 188.2 69 188.63 78.64 Z M 201.63 92.64 C 198.3 102.58 186.81 107.98 179.38 122.48 C 183.59 105.36 177.38 100.8 176.7 91.48 C 170.45 108.1 178.7 114.07 174.04 131.39 C 179.57 123.81 201.41 119.78 201.64 92.6 Z M 176 72.63 C 175.15 90.69 185.24 93.88 184.6 109.63 C 188.89 98.63 205.6 95.49 199.32 69.19 C 199.44 79.28 190.46 85.19 186.71 100.91 C 187.41 83.2 180.45 81.23 176 72.63 Z M 37.66 32.63 C 41.53 28.03 42.84 21.7 48.9 17.13 C 36.46 19.79 25.9 30.92 23.11 44.55 C 27 39.89 33.76 37.18 37.62 32.58 Z M 160.43 34.71 C 165.84 52.48 178.63 48.53 187.19 67.18 C 186.3 60.91 193.43 40.93 176.69 28.58 C 182.29 35.44 180.63 48.13 183.94 56.43 C 177.41 42.41 163.44 40.11 160.39 34.66 Z M 117 44.75 A 41.92 41.92 0 0 0 106.77 42 C 106.77 42.75 106.77 43.52 106.77 44.28 A 40 40 0 0 1 116.17 46.86 A 6 6 0 0 0 117 44.75 Z M 114.41 22.75 L 115.09 22.14 L 113.79 21.59 L 110.37 21.52 L 109.48 22.14 L 107.48 21.97 L 107.48 22.46 A 34.75 34.75 0 0 1 111 22.83 L 112.67 22.68 Z M 107.78 96.5 C 107.78 95.92 107.01 95.35 105.87 94.81 H 105.66 C 105.66 95.28 105.66 97.6 105.59 98.73 C 107 98.1 107.78 97.42 107.78 96.5 Z M 68.16 53 A 10.92 10.92 0 0 1 68.45 51.75 A 5.79 5.79 0 0 1 67.05 51.89 Z M 100.89 153.6 A 69.76 69.76 0 0 0 108 14.47 C 108 14.6 108 14.74 107.92 14.87 C 107.78 15.55 107.65 16.16 107.55 16.7 A 67.35 67.35 0 0 1 148.18 35.7 L 140.48 43.4 L 140.77 42.04 L 139.77 41.6 L 138.39 41.52 L 138.68 40.63 L 137.75 37.48 L 135.83 35.37 L 129.83 32.2 L 129.31 32.75 L 128.22 33.07 A 18 18 0 0 1 131.4 43.18 C 131.4 43.65 131.4 44.1 131.4 44.55 L 134.4 48.3 L 133 48.62 L 133.93 50.02 L 131.3 52.64 L 130.24 50.64 A 17.92 17.92 0 0 1 128.24 54.57 L 128.83 55.11 L 120.72 63.22 C 120.23 62.75 119.72 62.3 119.2 61.87 C 118.42 62.23 117.63 62.56 116.82 62.87 L 117.51 63.41 L 117.1 63.82 L 116.1 64.35 L 115.75 65.35 L 115.16 64.76 L 113.45 65.33 L 113.92 66.08 L 115.1 65.77 L 115.87 65.83 L 115.93 65.41 L 116.52 65.11 L 116.7 64.76 L 117.76 64.46 L 118.59 64.46 C 118.75 64.6 118.92 64.75 119.07 64.9 L 115.81 68 L 115.57 67.66 L 112.21 68.21 L 111.46 68.96 L 110.73 69.05 L 112.81 67.05 L 112.07 66.68 L 110.12 69.28 L 110.69 69.22 L 110.69 70.22 L 111.4 70.5 L 111.54 71.5 L 110.37 71.27 L 109.15 71.49 L 106.15 69.98 S 105.99 77.9 105.91 81.88 C 112.91 84.22 120.26 87.6 120.26 96.48 A 11 11 0 0 1 115.26 105.86 H 115.26 L 115.11 105.96 H 115.11 L 114.89 106.11 C 112.07 107.97 108.45 108.97 105.31 109.95 C 105.31 109.95 105.22 116.17 105.22 116.17 C 110.22 118.65 116.27 122.26 115.71 132.59 C 115.64 135.13 114.65 135.83 113.8 136.06 H 113.8 A 52.52 52.52 0 0 1 104.8 137.49 C 104.8 138.29 104.8 139.05 104.8 139.76 A 55.87 55.87 0 0 0 139.58 124.4 L 147.68 132.5 A 67.37 67.37 0 0 1 54.38 132.69 L 62.48 124.59 A 55.83 55.83 0 0 0 96.77 139.74 C 96.77 139.04 96.77 138.28 96.77 137.47 A 53.59 53.59 0 0 1 64.05 123 L 66.21 120.83 L 69.21 121.17 L 70.79 119.47 L 74.93 119.61 L 75.54 118.18 L 75.39 117.57 A 42 42 0 0 0 96.48 126 C 96.48 125.12 96.48 124.35 96.48 123.72 A 39.93 39.93 0 0 1 73.76 113.3 L 81.87 105.19 A 28.85 28.85 0 0 0 88.44 109.6 A 7.67 7.67 0 0 1 89.26 107.47 A 26.22 26.22 0 0 1 83.47 103.58 L 91.6 95.46 A 14.86 14.86 0 0 0 95.94 97.87 C 95.94 97.07 95.94 96.22 95.94 95.43 A 12.47 12.47 0 0 1 93.26 93.84 L 95.55 91.55 C 94.75 91.31 93.93 91.05 93.13 90.77 L 91.59 92.31 A 12.4 12.4 0 0 1 89.65 89.42 A 27.57 27.57 0 0 1 85.65 87.28 A 15.69 15.69 0 0 1 78.06 73.5 A 16.54 16.54 0 0 1 81.34 63 L 73.26 54.92 A 39.91 39.91 0 0 1 94.9 44.28 C 94.9 43.5 94.9 42.73 94.85 42 A 42.18 42.18 0 0 0 71.66 53.34 L 70.29 52 C 69.98 52.55 69.62 53.24 69.2 54.11 L 70.06 54.98 A 42.13 42.13 0 0 0 58.6 83.17 H 47.13 A 53.62 53.62 0 0 1 62 46.83 L 65.64 50.48 A 4.61 4.61 0 0 0 66.16 50.48 A 5.5 5.5 0 0 0 68.23 49.88 L 63.6 45.25 A 54.51 54.51 0 0 1 71.6 38.87 A 15.06 15.06 0 0 1 72.17 37.19 A 26.93 26.93 0 0 1 73.92 34.84 A 56 56 0 0 0 62 43.63 L 53.9 35.53 A 67.2 67.2 0 0 1 94 16.73 C 93.94 16.45 93.9 16.23 93.9 16.23 C 93.8 15.7 93.68 15.11 93.57 14.49 A 69.77 69.77 0 0 0 100.85 153.64 Z M 116 105.45 V 105.39 L 116 105.39 Z M 149.78 37.33 A 67.26 67.26 0 0 1 168.43 83.17 H 156.92 A 55.67 55.67 0 0 0 150.92 58.69 L 151.02 58.49 L 151.81 58.91 L 152 58.3 L 150 54.71 L 147.57 51.35 L 144.69 49 C 143.69 47.78 142.69 46.6 141.62 45.46 Z M 135.13 52 L 137.88 52.12 L 138.54 52.91 L 138.21 54.08 L 142 56.48 L 142.75 56.39 L 147.65 61.99 L 149.65 61.29 A 53.4 53.4 0 0 1 154.65 83.17 H 143.19 A 41.78 41.78 0 0 0 142.12 74.45 L 142.65 73.74 L 143.36 70.15 L 142.82 66.29 L 141.44 61.85 L 138.24 57.17 L 139.02 57.58 L 139.41 57.19 L 136.84 55.45 L 136.67 56.02 L 139.24 59.69 L 140.69 62.69 L 141.69 65.69 L 142.02 67.69 L 142.55 71.07 L 141.55 71.14 S 140.44 69.07 140.1 68.22 L 140.61 67.45 L 139.61 66.05 V 64.65 L 138.91 63.77 L 138.04 63.88 C 137.73 63.3 137.4 62.73 137.04 62.17 L 137.66 62.48 L 137.82 62.32 L 137.49 61.6 L 138.24 61.18 L 137.9 60.76 L 136.79 61.18 L 137.2 59.44 L 136.54 59.06 L 135.95 60.45 A 42.64 42.64 0 0 0 131.78 55.15 Z M 132.83 78.87 L 134.89 77.75 L 136.99 77.43 L 137.45 76.43 L 138.62 75.73 L 139.07 74.73 L 139.43 73.04 C 139.6 73.63 139.75 74.24 139.89 74.85 L 138.78 78.16 L 138.78 79.28 L 140.39 77.13 A 38.74 38.74 0 0 1 140.96 83.13 H 130.96 L 130.73 82.26 L 131.9 81.33 L 132.13 80.77 L 132.64 80.39 L 134 80.25 L 134.14 79.65 Z M 119.07 71 L 120.07 70.76 L 120.07 70.52 L 119.07 69.83 L 119.42 67.67 L 120.65 66.44 A 27.16 27.16 0 0 1 122.78 69.21 L 122.35 70.54 L 121.23 69.74 L 120.38 69.97 L 120.8 70.76 H 121.22 L 120.75 71.93 L 120.43 71.46 Z M 123.46 109.07 L 120.98 108.37 L 120.24 108.64 L 118.84 107.57 L 117.52 107.1 C 118.17 106.63 118.8 106.1 119.41 105.62 L 121.41 107.06 L 122.97 107.88 L 123.74 108.65 Z M 122.2 64.85 L 130.31 56.74 A 40.43 40.43 0 0 1 135.31 63.48 L 134.31 63.76 L 134.36 65.57 L 137.36 67.49 A 39.2 39.2 0 0 1 139.26 72.61 L 138.73 73.39 L 137.63 74.09 L 137.36 75.77 L 136.61 76.19 L 135.98 76.93 L 135.35 76.7 L 134.23 76.7 L 134.88 75.82 L 135.35 73.53 L 136.09 73.07 L 134 70.92 L 132.37 71.47 L 132 73 L 131 74.11 L 129.93 73.23 L 129.55 72.29 L 130.16 71.91 L 130.5 72.53 L 131 72.34 L 130.78 71.34 L 130.07 71.34 L 130.02 71.76 L 129.55 71.85 L 127 68.86 L 126.14 68.21 L 126.47 67.85 L 127.23 67.59 L 126.53 67.31 S 125.64 67.51 125.53 67.51 L 126.04 68.15 L 124.76 68.15 A 27.71 27.71 0 0 0 122.2 64.85 Z M 126.33 108 L 125.23 106.9 L 126.07 105.81 L 127.13 103.65 L 126.72 103.05 L 127.42 101.45 L 127.34 100.01 L 126.92 98.52 L 125.92 98.17 L 125.55 99.01 L 124.95 98.85 A 27.18 27.18 0 0 0 127.35 94.66 L 128.35 94.22 L 128.93 93.44 L 129.21 93.76 L 129.91 92.92 L 129.35 92.22 L 129.86 92.08 L 130.8 92.46 L 132.57 92.46 L 133.64 91.9 L 136.44 91.16 L 135.91 90.23 L 135.73 89.1 L 137.23 89.76 L 137.79 89.43 L 137.51 88.27 L 135.7 89 L 133.7 88.58 L 132.16 85.43 H 140.93 A 39.92 39.92 0 0 1 129.86 111.51 L 128.66 110.3 L 129.18 108.69 L 128.24 105.14 Z M 127.88 130.37 L 128.96 128.05 L 128.54 127.05 L 130.13 125.65 V 124.81 L 128.77 123.96 L 129.89 121.73 L 131.57 119.53 L 129.89 117.72 H 128.63 L 127.85 116.45 C 128.52 115.89 129.19 115.32 129.85 114.72 L 137.96 122.83 A 54.38 54.38 0 0 1 127.88 130.38 Z M 138 119.67 L 138.9 118.67 L 138.05 114.23 L 137.47 114 L 137.83 113.25 L 135.91 112.65 L 135.54 114.23 L 135.35 116.23 L 134.95 116.6 L 131.45 113.1 A 42.17 42.17 0 0 0 143.19 85.43 H 154.66 A 53.55 53.55 0 0 1 139.56 121.21 Z M 141.16 122.82 A 55.84 55.84 0 0 0 156.93 85.44 H 168.39 A 67.28 67.28 0 0 1 149.27 130.93 Z M 72.16 111.71 C 71.33 110.85 70.54 109.96 69.78 109.03 L 70.13 106.13 L 68.92 103.35 L 68.62 99 L 67.26 96.36 L 67.54 94.72 L 65.9 91.57 L 64.47 90.85 L 65.05 89.18 L 64.46 87.86 L 65.05 86.35 H 66.62 L 67.17 85.44 H 69.85 L 70.26 86.23 L 69.76 89 L 69.44 89.47 L 70.44 91.66 L 69.78 92.02 L 69.32 91.44 L 69.12 91.66 L 69.58 92.96 L 70.37 94.48 L 70.74 94.48 L 71 93 L 70.62 92.5 L 70.62 91.58 L 70.5 89.68 L 71 86.34 L 70.46 85.44 H 72.38 A 28.48 28.48 0 0 0 80.27 103.61 Z M 64.56 89.3 L 63.48 91 H 61.62 L 61.47 90.89 A 40.74 40.74 0 0 1 60.89 85.44 H 64.34 L 63.51 88.2 Z M 68.33 81.43 L 68.54 79.15 L 69.9 78.36 L 72.33 78.79 L 72.7 79.23 A 27 27 0 0 0 72.33 83.17 H 69.58 Z M 80 90 L 80.57 89.71 L 82 90.84 L 81.35 91.37 L 83.04 92.49 L 83 91.29 L 83.9 89.8 L 84.84 90.8 L 85.84 92.18 L 84 92.56 L 84.79 94.14 L 86 93.5 L 85.88 93 L 86.78 92.39 L 87.31 89.89 A 14.91 14.91 0 0 0 89.94 93.89 L 81.84 101.99 A 26.21 26.21 0 0 1 74.74 86.77 L 76.4 88.54 L 77.96 88.54 Z M 71.66 56.54 L 79.76 64.65 A 28.91 28.91 0 0 0 75.46 70.84 L 74.9 70.84 L 73.76 71.19 L 73.36 71.19 L 72.15 72.32 L 73.68 72 L 75.06 71.65 L 74.82 72.18 L 73.61 72.92 H 73 L 71.22 74.28 L 69.5 74.14 L 67.01 78.78 L 67.5 79.71 L 66.15 81.21 L 65.94 83.21 H 60.86 A 39.92 39.92 0 0 1 71.66 56.54 Z M 61.19 117.69 L 63.76 119.2 L 64.29 119.56 L 62.43 121.42 Q 61.13 120.07 59.91 118.63 Z M 58.62 85.44 C 58.62 86.55 58.76 87.66 58.88 88.75 L 57.48 89.07 L 57.19 90.49 L 54.27 94.21 L 54.34 99.32 L 51.34 100.32 H 49.7 A 53.48 53.48 0 0 1 47.14 85.43 Z M 47.3 100.26 L 46.63 100.13 L 46 99.42 L 42.78 99.14 L 43.78 100.49 L 40.78 99.93 L 41.56 99.21 L 40.83 98.49 L 38.68 99.43 L 37.91 100.85 L 38.21 104.12 L 40.69 110 L 41.88 111.86 L 42.56 112.11 L 40.69 108.56 L 40.28 106.75 L 40.7 106.31 L 40.44 105.31 L 41.57 105.46 L 43.3 108.08 L 43.73 108.25 L 43.73 106.34 L 44.43 106.75 L 44.58 107.75 L 46.4 108.23 L 47.16 107.69 L 47.42 107.87 L 47.42 109.26 L 48.22 110.26 L 49.22 110.48 L 51.34 114.07 L 52.63 114.43 L 53.03 112.75 A 56.32 56.32 0 0 0 60.93 122.95 L 52.83 131.05 A 67.32 67.32 0 0 1 33.41 85.44 H 44.88 A 55.83 55.83 0 0 0 47.3 100.26 Z M 52.3 37.13 L 60.4 45.23 A 55.91 55.91 0 0 0 44.86 83.17 H 33.4 A 67.28 67.28 0 0 1 52.25 37.13 Z M 135.3 32.95 L 134.61 31.83 L 133.11 31.08 L 131.94 31.97 L 133.44 32.77 L 135.05 34 Z M 128.29 65.3 L 128.29 66.18 L 130.29 65.59 L 130.9 64.38 L 129.53 62.58 L 130.26 61.48 L 132.11 62.8 L 132.45 62.53 L 132.08 62.27 L 131.66 61.47 L 132.42 61.03 L 131.68 60.03 L 129.94 60.91 L 129.36 62 L 129.01 62.95 L 129.78 64.24 L 129.5 64.84 Z M 45.39 116.72 L 45.54 116.2 L 44.54 113.96 L 43.32 113.51 Z M 92.27 73.64 C 92.27 75.56 93.44 76.92 95.57 78.09 C 95.57 78.09 95.57 77.76 95.57 77.23 L 94.23 75.89 L 94.94 74.6 L 95.52 74.44 C 95.52 72.2 95.43 69.69 95.42 69.33 L 95.32 69.33 C 93.34 70.43 92.27 71.75 92.27 73.64 Z&quot;);caret-color:#008dc9" text-decoration="none solid #008dc9" transform-origin="0 0"/><path d="M105.07 123.32c3.6 1.82 6.92 4.34 8.31 9.11.61-7.9-3.82-11.32-8.21-13.63l-.1 4.52Z" style="border-color:#008dc9;height:auto;outline-color:#008dc9;overflow-x:visible;overflow-y:visible;text-decoration-color:#008dc9;width:auto;column-rule-color:#008dc9;perspective-origin:0 0;-webkit-text-emphasis-color:#008dc9;-webkit-text-fill-color:#008dc9;-webkit-text-stroke-color:#008dc9;d:path(&quot;M 105.07 123.32 C 108.67 125.14 111.99 127.66 113.38 132.43 C 113.99 124.53 109.56 121.11 105.17 118.8 C 105.17 118.81 105.07 123.33 105.07 123.32 Z&quot;);caret-color:#008dc9" text-decoration="none solid #008dc9" transform-origin="0 0"/><path d="M129 43.2c0-7.17-5.2-15.13-17.95-17.94a30.69 30.69 0 0 0-3.89-.45c0 1.08-.08 3.56-.08 3.56 0 .78-.08 3.65-.1 4.27a18 18 0 0 1 2.45.34c7.41 1.77 10.06 6 10.06 10.22 0 6.81-5.82 9.38-13 11.32l-2.37.62c-2.17.54-4.4 1.06-6.61 1.65-.79.21-1.57.44-2.35.67-7.93 2.42-14.75 6.24-14.75 16s7.78 13.34 15.37 15.68q-.07-4.19-.16-8.42c-3.35-1.57-5.71-3.64-5.71-7.12s2.15-5.46 5.44-7c.73-.33 1.51-.63 2.34-.91 1.89-.64 4-1.19 6.25-1.73l2.37-.57C117 60.89 129 57.54 129 43.2Z" style="border-color:#008dc9;height:auto;outline-color:#008dc9;overflow-x:visible;overflow-y:visible;text-decoration-color:#008dc9;width:auto;column-rule-color:#008dc9;perspective-origin:0 0;-webkit-text-emphasis-color:#008dc9;-webkit-text-fill-color:#008dc9;-webkit-text-stroke-color:#008dc9;d:path(&quot;M 129 43.2 C 129 36.03 123.8 28.07 111.05 25.26 A 30.69 30.69 0 0 0 107.16 24.81 C 107.16 25.89 107.08 28.37 107.08 28.37 C 107.08 29.15 107 32.02 106.98 32.64 A 18 18 0 0 1 109.43 32.98 C 116.84 34.75 119.49 38.98 119.49 43.2 C 119.49 50.01 113.67 52.58 106.49 54.52 L 104.12 55.14 C 101.95 55.68 99.72 56.2 97.51 56.79 C 96.72 57 95.94 57.23 95.16 57.46 H 95.16 C 87.23 59.88 80.41 63.7 80.41 73.46 S 88.19 86.8 95.78 89.14 Q 95.71 84.95 95.62 80.72 C 92.27 79.15 89.91 77.08 89.91 73.6 S 92.06 68.14 95.35 66.6 C 96.08 66.27 96.86 65.97 97.69 65.69 C 99.58 65.05 101.69 64.5 103.94 63.96 L 106.31 63.39 H 106.31 C 117 60.89 129 57.54 129 43.2 Z&quot;);caret-color:#008dc9" text-decoration="none solid #008dc9" transform-origin="0 0"/><path d="M90.56 111.67c0 3.92 2.9 6 5.79 7.67 0-.66-.12-6.73-.12-6.83.06-1.21 1.23-1.94 2.18-2.39a47.05 47.05 0 0 1 4.59-1.75c.86-.3 1.59-.59 2.41-.83 5.8-1.75 12.51-4 12.51-11s-5.75-10-12-12.13c0 2.25-.11 5.54-.16 7.81 2.66 1 4.42 2.31 4.42 4.32 0 2.53-2.7 4-4.61 4.72-.8.31-2 .71-2.35.82-1.54.48-3.2 1-4.75 1.6a22.79 22.79 0 0 0-2.35 1c-2.76 1.38-5.57 3.41-5.56 6.99Z" style="border-color:#008dc9;height:auto;outline-color:#008dc9;overflow-x:visible;overflow-y:visible;text-decoration-color:#008dc9;width:auto;column-rule-color:#008dc9;perspective-origin:0 0;-webkit-text-emphasis-color:#008dc9;-webkit-text-fill-color:#008dc9;-webkit-text-stroke-color:#008dc9;d:path(&quot;M 90.56 111.67 C 90.56 115.59 93.46 117.67 96.35 119.34 C 96.35 118.68 96.23 112.61 96.23 112.51 C 96.29 111.3 97.46 110.57 98.41 110.12 A 47.05 47.05 0 0 1 103 108.37 C 103.86 108.07 104.59 107.78 105.41 107.54 H 105.41 C 111.21 105.79 117.92 103.54 117.92 96.54 S 112.17 86.54 105.92 84.41 C 105.92 86.66 105.81 89.95 105.76 92.22 C 108.42 93.22 110.18 94.53 110.18 96.54 C 110.18 99.07 107.48 100.54 105.57 101.26 C 104.77 101.57 103.57 101.97 103.22 102.08 C 101.68 102.56 100.02 103.08 98.47 103.68 A 22.79 22.79 0 0 0 96.12 104.68 C 93.36 106.06 90.55 108.09 90.56 111.67 Z&quot;);caret-color:#008dc9" text-decoration="none solid #008dc9" transform-origin="0 0"/><path d="M94.49 25.93a46.17 46.17 0 0 0-7 2.85c-2.5.83-6 1-9.67 4.94A49.49 49.49 0 0 0 74.49 38c-1.1 1.58-1.15 4.12-2 5.49-1.16 2-.88 3.11-.88 3.11v.06a5.31 5.31 0 0 1-1.34 2.48A5.08 5.08 0 0 1 65.61 51c1.66.83 4-.33 4-.33a30.61 30.61 0 0 0-.88 3.3c1.86-4.21 3.57-5.75 4.1-6.18.8.18 2.46.11 5.54-1.66 3.48-2 8.71-5.25 10.19-7.31a13.59 13.59 0 0 1 6.16-4.65c-.11-3.17-.17-5.91-.23-8.24ZM79.81 39.08l-1.81.39L80.16 36l2.52.08Z" style="border-color:#008dc9;height:auto;outline-color:#008dc9;overflow-x:visible;overflow-y:visible;text-decoration-color:#008dc9;width:auto;column-rule-color:#008dc9;perspective-origin:0 0;-webkit-text-emphasis-color:#008dc9;-webkit-text-fill-color:#008dc9;-webkit-text-stroke-color:#008dc9;d:path(&quot;M 94.49 25.93 A 46.17 46.17 0 0 0 87.49 28.78 C 84.99 29.61 81.49 29.78 77.82 33.72 A 49.49 49.49 0 0 0 74.49 38 C 73.39 39.58 73.34 42.12 72.49 43.49 C 71.33 45.49 71.61 46.6 71.61 46.6 L 71.61 46.66 A 5.31 5.31 0 0 1 70.27 49.14 A 5.08 5.08 0 0 1 65.61 51 C 67.27 51.83 69.61 50.67 69.61 50.67 A 30.61 30.61 0 0 0 68.73 53.97 C 70.59 49.76 72.3 48.22 72.83 47.79 C 73.63 47.97 75.29 47.9 78.37 46.13 C 81.85 44.13 87.08 40.88 88.56 38.82 A 13.59 13.59 0 0 1 94.72 34.17 C 94.61 31 94.55 28.26 94.49 25.93 Z M 79.81 39.08 L 78 39.47 L 80.16 36 L 82.68 36.08 Z&quot;);caret-color:#008dc9" text-decoration="none solid #008dc9" transform-origin="0 0"/><path d="M101.68 111.18c-.34.12-1.21.49-1.76.68s-1.32.51-1.32.71.56 30.41.56 31.08c0 6.25 3.18 6.29 3.18 0 0-.45.64-32.9.64-32.9s-.76.25-1.3.43Z" style="border-color:#008dc9;height:auto;outline-color:#008dc9;overflow-x:visible;overflow-y:visible;text-decoration-color:#008dc9;width:auto;column-rule-color:#008dc9;perspective-origin:0 0;-webkit-text-emphasis-color:#008dc9;-webkit-text-fill-color:#008dc9;-webkit-text-stroke-color:#008dc9;d:path(&quot;M 101.68 111.18 C 101.34 111.3 100.47 111.67 99.92 111.86 S 98.6 112.37 98.6 112.57 S 99.16 142.98 99.16 143.65 C 99.16 149.9 102.34 149.94 102.34 143.65 C 102.34 143.2 102.98 110.75 102.98 110.75 S 102.22 111 101.68 111.18 Z&quot;);caret-color:#008dc9" text-decoration="none solid #008dc9" transform-origin="0 0"/><path d="M98.38 101.16c1-.34 2-.64 2.9-.93l1.93-.6c0-1.91.58-28.33.68-33.13a60.72 60.72 0 0 0-6.15 1.77c.07 3.6.59 30.01.64 32.89Z" style="border-color:#008dc9;height:auto;outline-color:#008dc9;overflow-x:visible;overflow-y:visible;text-decoration-color:#008dc9;width:auto;column-rule-color:#008dc9;perspective-origin:0 0;-webkit-text-emphasis-color:#008dc9;-webkit-text-fill-color:#008dc9;-webkit-text-stroke-color:#008dc9;d:path(&quot;M 98.38 101.16 C 99.38 100.82 100.38 100.52 101.28 100.23 L 103.21 99.63 C 103.21 97.72 103.79 71.3 103.89 66.5 A 60.72 60.72 0 0 0 97.74 68.27 C 97.81 71.87 98.33 98.28 98.38 101.16 Z&quot;);caret-color:#008dc9" text-decoration="none solid #008dc9" transform-origin="0 0"/><path d="M101 0c-8.94 0-5.14 13.26-4.43 17.58 0 .21.72 30 .86 36.79 1.36-.36 2.71-.69 4-1l2.7-.68c.13-6.57.79-35 .81-35.15C105.53 12.91 110.21 0 101 0Z" style="border-color:#008dc9;height:auto;outline-color:#008dc9;overflow-x:visible;overflow-y:visible;text-decoration-color:#008dc9;width:auto;column-rule-color:#008dc9;perspective-origin:0 0;-webkit-text-emphasis-color:#008dc9;-webkit-text-fill-color:#008dc9;-webkit-text-stroke-color:#008dc9;d:path(&quot;M 101 0 C 92.06 0 95.86 13.26 96.57 17.58 C 96.57 17.79 97.29 47.58 97.43 54.37 C 98.79 54.01 100.14 53.68 101.43 53.37 L 104.13 52.69 C 104.26 46.12 104.92 17.69 104.94 17.54 C 105.53 12.91 110.21 0 101 0 Z&quot;);caret-color:#008dc9" text-decoration="none solid #008dc9" transform-origin="0 0"/><path d="M247.15 42.27H247l-7.57 41.34h-10.38l-9.71-50.45h8.26l6.75 38.89h.13l7.23-38.89h10.74l7.16 38.89h.14l7-38.89h8l-9.92 50.45h-10.52Z" style="border-color:#008dc9;height:auto;outline-color:#008dc9;overflow-x:visible;overflow-y:visible;text-decoration-color:#008dc9;width:auto;column-rule-color:#008dc9;perspective-origin:0 0;-webkit-text-emphasis-color:#008dc9;-webkit-text-fill-color:#008dc9;-webkit-text-stroke-color:#008dc9;d:path(&quot;M 247.15 42.27 H 247 L 239.43 83.61 H 229.05 L 219.34 33.16 H 227.6 L 234.35 72.05 H 234.48 L 241.71 33.16 H 252.45 L 259.61 72.05 H 259.75 L 266.75 33.16 H 274.75 L 264.83 83.61 H 254.31 Z&quot;);caret-color:#008dc9" text-decoration="none solid #008dc9" transform-origin="0 0"/><path d="M289.43 45.81c7.22 0 15.56 4 15.56 19.15 0 15.62-8.34 19.23-15.56 19.23S273.8 80.58 273.8 65c0-15.21 8.4-19.19 15.63-19.19Zm0 32c5.5 0 6.74-6.65 6.74-12.87s-1.24-12.79-6.74-12.79-6.82 6.58-6.82 12.79 1.31 12.89 6.82 12.89Z" style="border-color:#008dc9;height:auto;outline-color:#008dc9;overflow-x:visible;overflow-y:visible;text-decoration-color:#008dc9;width:auto;column-rule-color:#008dc9;perspective-origin:0 0;-webkit-text-emphasis-color:#008dc9;-webkit-text-fill-color:#008dc9;-webkit-text-stroke-color:#008dc9;d:path(&quot;M 289.43 45.81 C 296.65 45.81 304.99 49.81 304.99 64.96 C 304.99 80.58 296.65 84.19 289.43 84.19 S 273.8 80.58 273.8 65 C 273.8 49.79 282.2 45.81 289.43 45.81 Z M 289.43 77.81 C 294.93 77.81 296.17 71.16 296.17 64.94 S 294.93 52.15 289.43 52.15 S 282.61 58.73 282.61 64.94 S 283.92 77.83 289.43 77.83 Z&quot;);caret-color:#008dc9" text-decoration="none solid #008dc9" transform-origin="0 0"/><path d="M310.28 52.53a52.55 52.55 0 0 0-.27-6.14h7.71c.07 2.24.28 4.55.28 6.79h.13c1-2.89 3.72-7.37 9-7.37a8.15 8.15 0 0 1 1.45.22v8.38a8.4 8.4 0 0 0-2.41-.36c-3.51 0-7.37 2.24-7.37 9.18v20.38h-8.54Z" style="border-color:#008dc9;height:auto;outline-color:#008dc9;overflow-x:visible;overflow-y:visible;text-decoration-color:#008dc9;width:auto;column-rule-color:#008dc9;perspective-origin:0 0;-webkit-text-emphasis-color:#008dc9;-webkit-text-fill-color:#008dc9;-webkit-text-stroke-color:#008dc9;d:path(&quot;M 310.28 52.53 A 52.55 52.55 0 0 0 310.01 46.39 H 317.72 C 317.79 48.63 318 50.94 318 53.18 H 318.13 C 319.13 50.29 321.85 45.81 327.13 45.81 A 8.15 8.15 0 0 1 328.58 46.03 V 54.41 A 8.4 8.4 0 0 0 326.17 54.05 C 322.66 54.05 318.8 56.29 318.8 63.23 V 83.61 H 310.26 Z&quot;);caret-color:#008dc9" text-decoration="none solid #008dc9" transform-origin="0 0"/><path d="M334 29.4h8.54v54.21H334Z" style="border-color:#008dc9;height:auto;outline-color:#008dc9;overflow-x:visible;overflow-y:visible;text-decoration-color:#008dc9;width:auto;column-rule-color:#008dc9;perspective-origin:0 0;-webkit-text-emphasis-color:#008dc9;-webkit-text-fill-color:#008dc9;-webkit-text-stroke-color:#008dc9;d:path(&quot;M 334 29.4 H 342.54 V 83.61 H 334 Z&quot;);caret-color:#008dc9" text-decoration="none solid #008dc9" transform-origin="0 0"/><path d="M378.14 29.4v47.85a51.7 51.7 0 0 0 .27 6.36h-8a51.34 51.34 0 0 1-.28-5.78h-.21c-1.37 3.18-3.92 6.36-9.43 6.36-8.81 0-12.46-8.82-12.46-19.15 0-12.15 4.61-19.23 12.26-19.23a9.51 9.51 0 0 1 9.15 5.93h.14V29.4Zm-15.29 48.22c5 0 6.75-5.72 6.75-12.73 0-7.23-1.93-12.5-6.61-12.5s-6.4 4.84-6.4 12.29c0 8.6 1.31 12.94 6.26 12.94Z" style="border-color:#008dc9;height:auto;outline-color:#008dc9;overflow-x:visible;overflow-y:visible;text-decoration-color:#008dc9;width:auto;column-rule-color:#008dc9;perspective-origin:0 0;-webkit-text-emphasis-color:#008dc9;-webkit-text-fill-color:#008dc9;-webkit-text-stroke-color:#008dc9;d:path(&quot;M 378.14 29.4 V 77.25 A 51.7 51.7 0 0 0 378.41 83.61 H 370.41 A 51.34 51.34 0 0 1 370.13 77.83 H 369.92 C 368.55 81.01 366 84.19 360.49 84.19 C 351.68 84.19 348.03 75.37 348.03 65.04 C 348.03 52.89 352.64 45.81 360.29 45.81 A 9.51 9.51 0 0 1 369.44 51.74 H 369.58 V 29.4 Z M 362.85 77.62 C 367.85 77.62 369.6 71.9 369.6 64.89 C 369.6 57.66 367.67 52.39 362.99 52.39 S 356.59 57.23 356.59 64.68 C 356.59 73.28 357.9 77.62 362.85 77.62 Z&quot;);caret-color:#008dc9" text-decoration="none solid #008dc9" transform-origin="0 0"/><path d="M406.26 33.16h8.82v20.53h14.24V33.16h8.82v50.45h-8.82V61.35h-14.24v22.26h-8.82Z" style="border-color:#008dc9;height:auto;outline-color:#008dc9;overflow-x:visible;overflow-y:visible;text-decoration-color:#008dc9;width:auto;column-rule-color:#008dc9;perspective-origin:0 0;-webkit-text-emphasis-color:#008dc9;-webkit-text-fill-color:#008dc9;-webkit-text-stroke-color:#008dc9;d:path(&quot;M 406.26 33.16 H 415.08 V 53.69 H 429.32 V 33.16 H 438.14 V 83.61 H 429.32 V 61.35 H 415.08 V 83.61 H 406.26 Z&quot;);caret-color:#008dc9" text-decoration="none solid #008dc9" transform-origin="0 0"/><path d="M470.84 81.81a25.48 25.48 0 0 1-10.6 2.38c-11.43 0-16.39-8.6-16.39-18.65 0-11.13 5.58-19.73 14.6-19.73 7.64 0 14.18 4.7 14.18 19.88v1.73h-20.52c0 6.36 2.41 10.2 9 10.2 5.23 0 7.71-1.67 9.3-2.9Zm-6.47-20c0-6.58-2.07-9.91-5.92-9.91-4.48 0-6.34 5-6.34 9.91Z" style="border-color:#008dc9;height:auto;outline-color:#008dc9;overflow-x:visible;overflow-y:visible;text-decoration-color:#008dc9;width:auto;column-rule-color:#008dc9;perspective-origin:0 0;-webkit-text-emphasis-color:#008dc9;-webkit-text-fill-color:#008dc9;-webkit-text-stroke-color:#008dc9;d:path(&quot;M 470.84 81.81 A 25.48 25.48 0 0 1 460.24 84.19 C 448.81 84.19 443.85 75.59 443.85 65.54 C 443.85 54.41 449.43 45.81 458.45 45.81 C 466.09 45.81 472.63 50.51 472.63 65.69 V 67.42 H 452.11 C 452.11 73.78 454.52 77.62 461.11 77.62 C 466.34 77.62 468.82 75.95 470.41 74.72 Z M 464.37 61.81 C 464.37 55.23 462.3 51.9 458.45 51.9 C 453.97 51.9 452.11 56.9 452.11 61.81 Z&quot;);caret-color:#008dc9" text-decoration="none solid #008dc9" transform-origin="0 0"/><path d="M480.27 48.56a23.72 23.72 0 0 1 11.22-2.75c11 0 13.56 5.64 13.56 15V77a47.23 47.23 0 0 0 .49 6.57h-7.72a19.44 19.44 0 0 1-.48-5h-.13c-2.14 3-4.83 5.63-9.92 5.63-5.51 0-10.6-4-10.6-10.91 0-10.12 7.85-12.65 18.66-12.65h1.72v-1.38c0-3.69-1.72-7.09-6.61-7.09a15.87 15.87 0 0 0-9.71 3.62Zm16.8 16.84h-.76c-7.3 0-11.63 1.59-11.63 7 0 3.4 2.13 5.71 5.43 5.71 5.1 0 7-4 7-10.63Z" style="border-color:#008dc9;height:auto;outline-color:#008dc9;overflow-x:visible;overflow-y:visible;text-decoration-color:#008dc9;width:auto;column-rule-color:#008dc9;perspective-origin:0 0;-webkit-text-emphasis-color:#008dc9;-webkit-text-fill-color:#008dc9;-webkit-text-stroke-color:#008dc9;d:path(&quot;M 480.27 48.56 A 23.72 23.72 0 0 1 491.49 45.81 C 502.49 45.81 505.05 51.45 505.05 60.81 V 77 A 47.23 47.23 0 0 0 505.54 83.57 H 497.82 A 19.44 19.44 0 0 1 497.34 78.57 H 497.21 C 495.07 81.57 492.38 84.2 487.29 84.2 C 481.78 84.2 476.69 80.2 476.69 73.29 C 476.69 63.17 484.54 60.64 495.35 60.64 H 497.07 V 59.26 C 497.07 55.57 495.35 52.17 490.46 52.17 A 15.87 15.87 0 0 0 480.75 55.79 Z M 497.07 65.4 H 496.31 C 489.01 65.4 484.68 66.99 484.68 72.4 C 484.68 75.8 486.81 78.11 490.11 78.11 C 495.21 78.11 497.11 74.11 497.11 67.48 Z&quot;);caret-color:#008dc9" text-decoration="none solid #008dc9" transform-origin="0 0"/><path d="M513.45 29.4H522v54.21h-8.54Z" style="border-color:#008dc9;height:auto;outline-color:#008dc9;overflow-x:visible;overflow-y:visible;text-decoration-color:#008dc9;width:auto;column-rule-color:#008dc9;perspective-origin:0 0;-webkit-text-emphasis-color:#008dc9;-webkit-text-fill-color:#008dc9;-webkit-text-stroke-color:#008dc9;d:path(&quot;M 513.45 29.4 H 522 V 83.61 H 513.46 Z&quot;);caret-color:#008dc9" text-decoration="none solid #008dc9" transform-origin="0 0"/><path d="M532.66 38.73 541.2 36v10.39h7.09V53h-7.09v19.3c0 4 1.37 5.13 3.85 5.13a6.51 6.51 0 0 0 3.24-.8V83a12.66 12.66 0 0 1-5.72 1.23c-6.33 0-9.91-3-9.91-10.84V53H527v-6.61h5.64Z" style="border-color:#008dc9;height:auto;outline-color:#008dc9;overflow-x:visible;overflow-y:visible;text-decoration-color:#008dc9;width:auto;column-rule-color:#008dc9;perspective-origin:0 0;-webkit-text-emphasis-color:#008dc9;-webkit-text-fill-color:#008dc9;-webkit-text-stroke-color:#008dc9;d:path(&quot;M 532.66 38.73 L 541.2 36 V 46.39 H 548.29 V 53 H 541.2 V 72.3 C 541.2 76.3 542.57 77.43 545.05 77.43 A 6.51 6.51 0 0 0 548.29 76.63 V 83 A 12.66 12.66 0 0 1 542.57 84.23 C 536.24 84.23 532.66 81.23 532.66 73.39 V 53 H 527 V 46.39 H 532.64 Z&quot;);caret-color:#008dc9" text-decoration="none solid #008dc9" transform-origin="0 0"/><path d="M552.69 29.4h8.54v21.76h.21c1.51-2.32 3.51-5.35 8.81-5.35 8 0 10.46 6.29 10.46 13.81v24h-8.54V61.28c0-5.71-1.37-8.1-4.88-8.1-4.48 0-6.06 4-6.06 8.75v21.68h-8.54Z" style="border-color:#008dc9;height:auto;outline-color:#008dc9;overflow-x:visible;overflow-y:visible;text-decoration-color:#008dc9;width:auto;column-rule-color:#008dc9;perspective-origin:0 0;-webkit-text-emphasis-color:#008dc9;-webkit-text-fill-color:#008dc9;-webkit-text-stroke-color:#008dc9;d:path(&quot;M 552.69 29.4 H 561.23 V 51.16 H 561.44 C 562.95 48.84 564.95 45.81 570.25 45.81 C 578.25 45.81 580.71 52.1 580.71 59.62 V 83.62 H 572.17 V 61.28 C 572.17 55.57 570.8 53.18 567.29 53.18 C 562.81 53.18 561.23 57.18 561.23 61.93 V 83.61 H 552.69 Z&quot;);caret-color:#008dc9" text-decoration="none solid #008dc9" transform-origin="0 0"/><path d="M238.13 97c10 0 19.14 7.81 19.14 26s-9.15 25.94-19.14 25.94S219 141.14 219 123s9.15-26 19.13-26Zm0 44.82c5.58 0 10.05-5 10.05-18.86s-4.47-18.87-10.05-18.87-10 5-10 18.87 4.43 18.9 10 18.9Z" style="border-color:#008dc9;height:auto;outline-color:#008dc9;overflow-x:visible;overflow-y:visible;text-decoration-color:#008dc9;width:auto;column-rule-color:#008dc9;perspective-origin:0 0;-webkit-text-emphasis-color:#008dc9;-webkit-text-fill-color:#008dc9;-webkit-text-stroke-color:#008dc9;d:path(&quot;M 238.13 97 C 248.13 97 257.27 104.81 257.27 123 S 248.12 148.94 238.13 148.94 S 219 141.14 219 123 S 228.15 97 238.13 97 Z M 238.13 141.82 C 243.71 141.82 248.18 136.82 248.18 122.96 S 243.71 104.09 238.13 104.09 S 228.13 109.09 228.13 122.96 S 232.56 141.86 238.13 141.86 Z&quot;);caret-color:#008dc9" text-decoration="none solid #008dc9" transform-origin="0 0"/><path d="M263 117.14a55 55 0 0 0-.27-6.15h7.71c.07 2.25.27 4.56.27 6.8h.14c1-2.89 3.72-7.37 9-7.37a8.9 8.9 0 0 1 1.44.21V119a8.27 8.27 0 0 0-2.4-.36c-3.52 0-7.37 2.24-7.37 9.18v20.38H263Z" style="border-color:#008dc9;height:auto;outline-color:#008dc9;overflow-x:visible;overflow-y:visible;text-decoration-color:#008dc9;width:auto;column-rule-color:#008dc9;perspective-origin:0 0;-webkit-text-emphasis-color:#008dc9;-webkit-text-fill-color:#008dc9;-webkit-text-stroke-color:#008dc9;d:path(&quot;M 263 117.14 A 55 55 0 0 0 262.73 110.99 H 270.44 C 270.51 113.24 270.71 115.55 270.71 117.79 H 270.85 C 271.85 114.9 274.57 110.42 279.85 110.42 A 8.9 8.9 0 0 1 281.29 110.63 V 119 A 8.27 8.27 0 0 0 278.89 118.64 C 275.37 118.64 271.52 120.88 271.52 127.82 V 148.2 H 263 Z&quot;);caret-color:#008dc9" text-decoration="none solid #008dc9" transform-origin="0 0"/><path d="M286.63 154a21.73 21.73 0 0 0 10.47 3.19c8 0 9.36-5.86 9.36-11.72v-3.54h-.14c-1.37 2.89-3.78 6.29-9.36 6.29-5 0-12.39-3.47-12.39-18.5 0-10.27 3.51-19.3 12.8-19.3 5.17 0 7.58 3.11 9.37 6.36h.26c0-2 .21-3.83.28-5.79H315c-.14 2-.28 3.91-.28 5.86v27.47c0 11.64-3.37 20-16.38 20a34.38 34.38 0 0 1-12.19-2.32Zm13.28-12.36c5.37 0 7.5-4 7.5-12.5 0-7.81-2.82-12-6.88-11.93-4.48.08-6.2 4.41-6.2 12 0 8.79 2.67 12.43 5.58 12.43Z" style="border-color:#008dc9;height:auto;outline-color:#008dc9;overflow-x:visible;overflow-y:visible;text-decoration-color:#008dc9;width:auto;column-rule-color:#008dc9;perspective-origin:0 0;-webkit-text-emphasis-color:#008dc9;-webkit-text-fill-color:#008dc9;-webkit-text-stroke-color:#008dc9;d:path(&quot;M 286.63 154 A 21.73 21.73 0 0 0 297.1 157.19 C 305.1 157.19 306.46 151.33 306.46 145.47 V 141.93 H 306.32 C 304.95 144.82 302.54 148.22 296.96 148.22 C 291.96 148.22 284.57 144.75 284.57 129.72 C 284.57 119.45 288.08 110.42 297.37 110.42 C 302.54 110.42 304.95 113.53 306.74 116.78 H 307 C 307 114.78 307.21 112.95 307.28 110.99 H 315 C 314.86 112.99 314.72 114.9 314.72 116.85 V 144.32 C 314.72 155.96 311.35 164.32 298.34 164.32 A 34.38 34.38 0 0 1 286.15 162 Z M 299.91 141.64 C 305.28 141.64 307.41 137.64 307.41 129.14 C 307.41 121.33 304.59 117.14 300.53 117.21 C 296.05 117.29 294.33 121.62 294.33 129.21 C 294.33 138 297 141.64 299.91 141.64 Z&quot;);caret-color:#008dc9" text-decoration="none solid #008dc9" transform-origin="0 0"/><path d="M324 113.16a23.9 23.9 0 0 1 11.23-2.74c11 0 13.56 5.64 13.56 15v16.26a47.54 47.54 0 0 0 .48 6.58h-7.71a19.47 19.47 0 0 1-.48-5.06h-.14c-2.13 3-4.82 5.64-9.91 5.64-5.51 0-10.6-4-10.6-10.91 0-10.12 7.84-12.65 18.65-12.65h1.72v-1.38c0-3.68-1.72-7.08-6.61-7.08a15.9 15.9 0 0 0-9.7 3.61ZM340.75 130H340c-7.3 0-11.64 1.59-11.64 7 0 3.39 2.14 5.71 5.44 5.71 5.09 0 6.95-4 6.95-10.63Z" style="border-color:#008dc9;height:auto;outline-color:#008dc9;overflow-x:visible;overflow-y:visible;text-decoration-color:#008dc9;width:auto;column-rule-color:#008dc9;perspective-origin:0 0;-webkit-text-emphasis-color:#008dc9;-webkit-text-fill-color:#008dc9;-webkit-text-stroke-color:#008dc9;d:path(&quot;M 324 113.16 A 23.9 23.9 0 0 1 335.23 110.42 C 346.23 110.42 348.79 116.06 348.79 125.42 V 141.68 A 47.54 47.54 0 0 0 349.27 148.26 H 341.56 A 19.47 19.47 0 0 1 341.08 143.2 H 340.94 C 338.81 146.2 336.12 148.84 331.03 148.84 C 325.52 148.84 320.43 144.84 320.43 137.93 C 320.43 127.81 328.27 125.28 339.08 125.28 H 340.8 V 123.9 C 340.8 120.22 339.08 116.82 334.19 116.82 A 15.9 15.9 0 0 0 324.49 120.43 Z M 340.75 130 H 340 C 332.7 130 328.36 131.59 328.36 137 C 328.36 140.39 330.5 142.71 333.8 142.71 C 338.89 142.71 340.75 138.71 340.75 132.08 Z&quot;);caret-color:#008dc9" text-decoration="none solid #008dc9" transform-origin="0 0"/><path d="M357.34 117.14a55 55 0 0 0-.27-6.15h8c.06 1.88.27 3.83.27 5.72h.14c1.24-2.25 3.65-6.29 9.43-6.29 8.05 0 10.46 6.29 10.46 13.8v24h-8.53v-22.33c0-5.71-1.38-8.1-4.89-8.1-4.48 0-6.06 4-6.06 8.75v21.68h-8.54Z" style="border-color:#008dc9;height:auto;outline-color:#008dc9;overflow-x:visible;overflow-y:visible;text-decoration-color:#008dc9;width:auto;column-rule-color:#008dc9;perspective-origin:0 0;-webkit-text-emphasis-color:#008dc9;-webkit-text-fill-color:#008dc9;-webkit-text-stroke-color:#008dc9;d:path(&quot;M 357.34 117.14 A 55 55 0 0 0 357.07 110.99 H 365.07 C 365.13 112.87 365.34 114.82 365.34 116.71 H 365.48 C 366.72 114.46 369.13 110.42 374.91 110.42 C 382.96 110.42 385.37 116.71 385.37 124.22 V 148.22 H 376.84 V 125.89 C 376.84 120.18 375.46 117.79 371.95 117.79 C 367.47 117.79 365.89 121.79 365.89 126.54 V 148.22 H 357.35 Z&quot;);caret-color:#008dc9" text-decoration="none solid #008dc9" transform-origin="0 0"/><path d="M393.06 95.16h8.81V104h-8.81Zm.13 15.83h8.54v37.23h-8.54Z" style="border-color:#008dc9;height:auto;outline-color:#008dc9;overflow-x:visible;overflow-y:visible;text-decoration-color:#008dc9;width:auto;column-rule-color:#008dc9;perspective-origin:0 0;-webkit-text-emphasis-color:#008dc9;-webkit-text-fill-color:#008dc9;-webkit-text-stroke-color:#008dc9;d:path(&quot;M 393.06 95.16 H 401.87 V 104 H 393.06 Z M 393.19 110.99 H 401.73 V 148.22 H 393.19 Z&quot;);caret-color:#008dc9" text-decoration="none solid #008dc9" transform-origin="0 0"/><path d="m409.68 140.49 15.14-22.7h-14.66V111h23.2v7.67l-14.87 22.77h15.35v6.79h-24.16Z" style="border-color:#008dc9;height:auto;outline-color:#008dc9;overflow-x:visible;overflow-y:visible;text-decoration-color:#008dc9;width:auto;column-rule-color:#008dc9;perspective-origin:0 0;-webkit-text-emphasis-color:#008dc9;-webkit-text-fill-color:#008dc9;-webkit-text-stroke-color:#008dc9;d:path(&quot;M 409.68 140.49 L 424.82 117.79 H 410.16 V 111 H 433.36 V 118.67 L 418.49 141.44 H 433.84 V 148.23 H 409.68 Z&quot;);caret-color:#008dc9" text-decoration="none solid #008dc9" transform-origin="0 0"/><path d="M441.92 113.16a23.87 23.87 0 0 1 11.23-2.74c11 0 13.56 5.64 13.56 15v16.26a47.54 47.54 0 0 0 .48 6.58h-7.71a19 19 0 0 1-.48-5.06h-.14c-2.14 3-4.82 5.64-9.91 5.64-5.51 0-10.61-4-10.61-10.91 0-10.12 7.85-12.65 18.66-12.65h1.72v-1.38c0-3.68-1.72-7.08-6.61-7.08a15.9 15.9 0 0 0-9.7 3.61Zm16.8 16.84H458c-7.3 0-11.63 1.59-11.63 7 0 3.39 2.13 5.71 5.44 5.71 5.09 0 7-4 7-10.63Z" style="border-color:#008dc9;height:auto;outline-color:#008dc9;overflow-x:visible;overflow-y:visible;text-decoration-color:#008dc9;width:auto;column-rule-color:#008dc9;perspective-origin:0 0;-webkit-text-emphasis-color:#008dc9;-webkit-text-fill-color:#008dc9;-webkit-text-stroke-color:#008dc9;d:path(&quot;M 441.92 113.16 A 23.87 23.87 0 0 1 453.15 110.42 C 464.15 110.42 466.71 116.06 466.71 125.42 V 141.68 A 47.54 47.54 0 0 0 467.19 148.26 H 459.48 A 19 19 0 0 1 459 143.2 H 458.86 C 456.72 146.2 454.04 148.84 448.95 148.84 C 443.44 148.84 438.34 144.84 438.34 137.93 C 438.34 127.81 446.19 125.28 457 125.28 H 458.72 V 123.9 C 458.72 120.22 457 116.82 452.11 116.82 A 15.9 15.9 0 0 0 442.41 120.43 Z M 458.72 130 H 458 C 450.7 130 446.37 131.59 446.37 137 C 446.37 140.39 448.5 142.71 451.81 142.71 C 456.9 142.71 458.81 138.71 458.81 132.08 Z&quot;);caret-color:#008dc9" text-decoration="none solid #008dc9" transform-origin="0 0"/><path d="m476.52 103.33 8.54-2.74V111h7.09v6.58h-7.09v19.3c0 4 1.38 5.13 3.86 5.13a6.48 6.48 0 0 0 3.23-.79v6.36a12.62 12.62 0 0 1-5.71 1.23c-6.34 0-9.92-3-9.92-10.84v-20.4h-5.64V111h5.64Z" style="border-color:#008dc9;height:auto;outline-color:#008dc9;overflow-x:visible;overflow-y:visible;text-decoration-color:#008dc9;width:auto;column-rule-color:#008dc9;perspective-origin:0 0;-webkit-text-emphasis-color:#008dc9;-webkit-text-fill-color:#008dc9;-webkit-text-stroke-color:#008dc9;d:path(&quot;M 476.52 103.33 L 485.06 100.59 V 111 H 492.15 V 117.58 H 485.06 V 136.88 C 485.06 140.88 486.44 142.01 488.92 142.01 A 6.48 6.48 0 0 0 492.15 141.22 V 147.58 A 12.62 12.62 0 0 1 486.44 148.81 C 480.1 148.81 476.52 145.81 476.52 137.97 V 117.57 H 470.88 V 111 H 476.52 Z&quot;);caret-color:#008dc9" text-decoration="none solid #008dc9" transform-origin="0 0"/><path d="M498 95.16h8.81V104H498Zm1.1 15.84h8.54v37.23h-8.54Z" style="border-color:#008dc9;height:auto;outline-color:#008dc9;overflow-x:visible;overflow-y:visible;text-decoration-color:#008dc9;width:auto;column-rule-color:#008dc9;perspective-origin:0 0;-webkit-text-emphasis-color:#008dc9;-webkit-text-fill-color:#008dc9;-webkit-text-stroke-color:#008dc9;d:path(&quot;M 498 95.16 H 506.81 V 104 H 498 Z M 499.1 111 H 507.64 V 148.23 H 499.1 Z&quot;);caret-color:#008dc9" text-decoration="none solid #008dc9" transform-origin="0 0"/><path d="M529.81 110.42c7.23 0 15.55 4 15.55 19.15 0 15.62-8.32 19.23-15.55 19.23s-15.63-3.61-15.63-19.23c0-15.18 8.4-19.15 15.63-19.15Zm0 32c5.5 0 6.74-6.65 6.74-12.87s-1.24-12.79-6.74-12.79-6.81 6.59-6.81 12.81 1.3 12.87 6.81 12.87Z" style="border-color:#008dc9;height:auto;outline-color:#008dc9;overflow-x:visible;overflow-y:visible;text-decoration-color:#008dc9;width:auto;column-rule-color:#008dc9;perspective-origin:0 0;-webkit-text-emphasis-color:#008dc9;-webkit-text-fill-color:#008dc9;-webkit-text-stroke-color:#008dc9;d:path(&quot;M 529.81 110.42 C 537.04 110.42 545.36 114.42 545.36 129.57 C 545.36 145.19 537.04 148.8 529.81 148.8 S 514.18 145.19 514.18 129.57 C 514.18 114.39 522.58 110.42 529.81 110.42 Z M 529.81 142.42 C 535.31 142.42 536.55 135.77 536.55 129.55 S 535.31 116.76 529.81 116.76 S 523 123.35 523 129.57 S 524.3 142.44 529.81 142.44 Z&quot;);caret-color:#008dc9" text-decoration="none solid #008dc9" transform-origin="0 0"/><path d="M552.8 117.14a52.51 52.51 0 0 0-.28-6.15h8c.07 1.88.28 3.83.28 5.72h.14c1.23-2.25 3.64-6.29 9.42-6.29 8.06 0 10.47 6.29 10.47 13.8v24h-8.53v-22.33c0-5.71-1.38-8.1-4.9-8.1-4.47 0-6 4-6 8.75v21.68h-8.6Z" style="border-color:#008dc9;height:auto;outline-color:#008dc9;overflow-x:visible;overflow-y:visible;text-decoration-color:#008dc9;width:auto;column-rule-color:#008dc9;perspective-origin:0 0;-webkit-text-emphasis-color:#008dc9;-webkit-text-fill-color:#008dc9;-webkit-text-stroke-color:#008dc9;d:path(&quot;M 552.8 117.14 A 52.51 52.51 0 0 0 552.52 110.99 H 560.52 C 560.59 112.87 560.8 114.82 560.8 116.71 H 560.94 C 562.17 114.46 564.58 110.42 570.36 110.42 C 578.42 110.42 580.83 116.71 580.83 124.22 V 148.22 H 572.3 V 125.89 C 572.3 120.18 570.92 117.79 567.4 117.79 C 562.93 117.79 561.4 121.79 561.4 126.54 V 148.22 H 552.8 Z&quot;);caret-color:#008dc9" text-decoration="none solid #008dc9" transform-origin="0 0"/></g></svg>