<svg xmlns="http://www.w3.org/2000/svg" xml:space="preserve" x="0" y="0" version="1.1" viewBox="0 0 163 57.1"><linearGradient id="a" x1="0" x2="162.993" y1="28.565" y2="28.565" gradientUnits="userSpaceOnUse"><stop offset="0" stop-color="#0047a8"/><stop offset="1" stop-color="#2bbcff"/></linearGradient><path d="M0 0h163v57.1H0z" fill="url(#a)"/><path d="M153.6 22.5c-.7-1.6-1.7-3-2.8-4.2-1.2-1.2-2.6-2.1-4.2-2.8-1.6-.7-3.3-1-5.1-1-1.8 0-3.6.3-5.1 1-.8.3-1.5.7-2.2 1.2-.7.5-1.4 1-2 1.6-.4.4-.7.8-1.1 1.2-.4.5-.8 1.1-1 1.4-.3.5-1 1.9-1.3 2.8 0-1.6.3-4.1 1.3-5.5V6.4c0-.8-.3-1.4-.8-2-.6-.5-1.2-.8-1.9-.8-.8 0-1.4.3-2 .8-.5.5-.8 1.2-.8 2V17c-1.1-.8-2.3-1.4-3.6-1.8-1.3-.4-2.6-.7-4-.7-1.8 0-3.5.3-5.1 1-1.6.7-3 1.6-4.2 2.8-1.2 1.2-2.1 2.6-2.8 4.2-.1.1-.1.2-.2.4 0-.1-.1-.2-.1-.4-.7-1.6-1.7-3-2.8-4.2-1.2-1.2-2.6-2.1-4.2-2.8-1.6-.7-3.3-1-5.1-1-1.8 0-3.6.3-5.1 1-1.6.7-3 1.6-4.2 2.8-1.2 1.2-2.2 2.6-2.8 4.2 0 .1-.1.2-.1.3 0-.1-.1-.2-.1-.3-.7-1.6-1.7-3-2.8-4.2-1.2-1.2-2.6-2.1-4.2-2.8-1.6-.7-3.3-1-5.1-1-1.8 0-3.6.3-5.1 1-1.6.7-3 1.6-4.2 2.8-1.2 1.2-2.2 2.6-2.8 4.2 0 .1-.1.2-.1.3 0-.1-.1-.2-.1-.3-.7-1.6-1.7-3-2.8-4.2-1.2-1.2-2.6-2.1-4.2-2.8-1.6-.7-3.3-1-5.1-1-1.8 0-3.6.3-5.1 1-1.5.6-2.8 1.5-3.9 2.6v-.4c0-1.6-1.3-2.8-2.8-2.8H11.6c-1.6 0-2.8 1.3-2.8 2.8 0 1.6 1.3 2.8 2.8 2.8h15.5L8.9 44.9c-.4.5-.6 1.1-.6 1.7v1.8c0 1.6 1.3 2.8 2.8 2.8h21c1.5 0 2.7-1.2 2.8-2.6.9.7 2 1.4 3.1 1.8 1.6.7 3.3 1 5.1 1 2.7 0 5.2-.7 7.3-2.2 1.7-1.2 3.1-2.6 4.1-4.4v3.8c0 .8.3 1.4.8 2 .5.5 1.2.8 2 .8.7 0 1.4-.3 1.9-.8.6-.5.8-1.2.8-2v-9.9h-6.9c-.6 0-1.1.2-1.6.5s-.8.7-1 1.3l-.5.9c-.6 1.4-1.6 2.4-2.8 3.2-1.2.8-2.6 1.2-4.2 1.2-1 0-2-.2-3-.6-.9-.4-1.8-.9-2.4-1.6-.7-.7-1.2-1.5-1.6-2.4-.4-.9-.6-1.9-.6-2.9v-2.5h24.5v-8.4c0-1 .2-2 .6-2.9.4-.9.9-1.7 1.6-2.4.7-.7 1.5-1.2 2.4-1.6.9-.4 1.9-.6 3-.6 1 0 2 .2 3 .6.9.4 1.8.9 2.4 1.6.7.7 1.2 1.5 1.6 2.4.4.9.6 1.9.6 2.9v21.2c0 .8.3 1.4.8 2 .5.5 1.2.8 2 .8.7 0 1.4-.3 1.9-.8.6-.5.8-1.2.8-2V45c.6 1 1.3 1.9 2.1 2.7 1.2 1.2 2.6 2.1 4.2 2.8 1.6.7 3.3 1 5.1 1 1.8 0 3.5-.3 5.1-1 1.6-.7 3-1.6 4.2-2.8 1.2-1.2 2.2-2.6 2.8-4.2 0-.1.1-.2.1-.3 0 .1.1.2.1.3.7 1.6 1.6 3 2.8 4.2 1.2 1.2 2.6 2.1 4.2 2.8 1.6.7 3.3 1 5.1 1 1.8 0 3.5-.3 5.1-1 1.6-.7 3-1.6 4.2-2.8 1.2-1.2 2.1-2.6 2.8-4.2.1-.1.1-.2.1-.4 0 .1.1.2.1.4.7 1.6 1.7 3 2.8 4.2 1.2 1.2 2.6 2.1 4.2 2.8 1.6.7 3.3 1 5.1 1 1.8 0 3.5-.3 5.1-1 1.6-.7 3-1.6 4.2-2.8 1.2-1.2 2.2-2.6 2.8-4.2.7-1.6 1-3.3 1-5.1V27.6c.8-1.8.4-3.5-.3-5.1zM15.4 45.6l14.8-19.9c-.1.7-.2 1.3-.2 1.9v10.9c0 1.8.4 3.5 1.1 5.1.3.8.7 1.5 1.2 2.1l-16.9-.1zm35.5-15.2H35.6v-2.8c0-1 .2-2 .6-2.9.4-.9.9-1.7 1.6-2.4.7-.7 1.5-1.2 2.4-1.6.9-.4 1.9-.6 3-.6 1 0 2 .2 2.9.6.9.4 1.8.9 2.4 1.6.7.7 1.2 1.5 1.6 2.4.4.9.6 1.9.6 2.9.2 0 .2 2.8.2 2.8zm49.1 8c0 1-.2 2-.6 2.9-.4.9-.9 1.7-1.6 2.4-.7.7-1.5 1.2-2.4 1.6-.9.4-1.9.6-3 .6-1 0-2-.2-3-.6-.9-.4-1.8-.9-2.4-1.6-.7-.7-1.2-1.5-1.6-2.4s-.6-1.9-.6-2.9V27.6c0-1 .2-2 .6-2.9.4-.9.9-1.7 1.6-2.4.7-.7 1.5-1.2 2.4-1.6.9-.4 1.9-.6 3-.6 1 0 2 .2 2.9.6 1 .4 1.8.9 2.4 1.6.7.7 1.2 1.5 1.6 2.4.4.9.6 1.9.6 2.9.1 0 .1 10.8.1 10.8zm24.6 0c0 1-.2 2-.6 2.9-.4.9-1 1.7-1.6 2.4-.7.7-1.5 1.2-2.4 1.6-.9.4-1.9.6-2.9.6-1.1 0-2.1-.2-3-.6-.9-.4-1.7-.9-2.4-1.6-.7-.7-1.3-1.5-1.6-2.4s-.6-1.9-.6-2.9V27.6c0-1 .2-2 .6-2.9.4-.9 1-1.7 1.6-2.4.7-.7 1.5-1.2 2.4-1.6 1-.4 1.9-.6 3-.6s2.1.2 3 .6c.9.4 1.7.9 2.4 1.6.7.7 1.3 1.5 1.6 2.4.4.9.6 1.9.6 2.9l-.1 10.8zm24.5 0c0 1-.2 2-.6 2.9-.4.9-.9 1.7-1.6 2.4-.7.7-1.5 1.2-2.4 1.6-.9.4-1.9.6-3 .6-1 0-2-.2-3-.6-.9-.4-1.8-.9-2.4-1.6-.7-.7-1.2-1.5-1.6-2.4s-.6-1.9-.6-2.9V27.6c0-1 .2-2 .6-2.9.4-.9.9-1.7 1.6-2.4.7-.7 1.5-1.2 2.4-1.6.9-.4 1.9-.6 3-.6 1 0 2 .2 2.9.6.9.4 1.8.9 2.4 1.6.7.7 1.2 1.5 1.6 2.4.4.9.6 1.9.6 2.9l.1 10.8z" fill="#fff"/></svg>